<?xml version="1.0" encoding="UTF-8"?>
<svg xmlns="http://www.w3.org/2000/svg" width="800" height="800" version="1.1" viewBox="0 0 800 800">
  <defs>
    <style>
      .cls-1 {
        letter-spacing: -.02em;
      }

      .cls-2 {
        stroke-width: 4.22px;
      }

      .cls-2, .cls-3, .cls-4 {
        fill: none;
        stroke: #000;
      }

      .cls-2, .cls-4 {
        stroke-linecap: round;
        stroke-linejoin: round;
      }

      .cls-5 {
        letter-spacing: -.03em;
      }

      .cls-6 {
        fill: #fff;
      }

      .cls-7 {
        letter-spacing: 0em;
      }

      .cls-8 {
        letter-spacing: -.05em;
      }

      .cls-9 {
        letter-spacing: 0em;
      }

      .cls-3 {
        stroke-miterlimit: 10;
        stroke-width: 1.06px;
      }

      .cls-10 {
        letter-spacing: 0em;
      }

      .cls-11 {
        letter-spacing: -.02em;
      }

      .cls-12 {
        letter-spacing: -.04em;
      }

      .cls-13 {
        letter-spacing: 0em;
      }

      .cls-4 {
        stroke-width: 3.17px;
      }

      .cls-14 {
        letter-spacing: 0em;
      }

      .cls-15 {
        font-family: Averta-Black, Averta;
        font-size: 14.66px;
        font-weight: 800;
      }
    </style>
  </defs>
  <!-- Generator: Adobe Illustrator 28.7.3, SVG Export Plug-In . SVG Version: 1.2.0 Build 164)  -->
  <g>
    <g id="Camada_1">
      <g>
        <path class="cls-4" d="M591.36,418.49c11.39-1.97,25.91.32,31.98,11.7"/>
        <path class="cls-4" d="M622.39,453.28c-5.82-1.07-8.3-18.54-42.36-14.72"/>
        <path class="cls-4" d="M312.37,344.97c.17.55.46,1.07.87,1.57,3.32,3.99,37.61,23.54,104.07,15.82,66.47-7.73,82.24-30.45,80.12-33.11"/>
        <path class="cls-4" d="M215.65,538.29c-12.68,4.72-26.74,17.65-17.82,26.75"/>
        <path class="cls-4" d="M179.27,558.77c-3.43-9.73,3.32-22.28,20.87-30.96"/>
        <path class="cls-4" d="M327.26,724.4c-4.16-4.4-.77-15.76,17.73-21.65"/>
        <path class="cls-4" d="M307.56,718.34c-1.38-5.24,2.45-16.13,18.61-20.25"/>
        <path class="cls-4" d="M476.68,725.32c6.63-7.45,1.31-13.87-16.82-20.81"/>
        <path class="cls-4" d="M494.81,722.17c4.72-4.91.47-16.49-16.1-19.41"/>
        <path d="M431.03,492.01c-.17.16-.33.31-.49.46-3.92,3.68-9.84,9.25-12.08,9.3h-.02c-1.79,0-6.27-6.01-8.43-8.91-4.16-5.58-7.45-10-11.3-9.33-2.69.46-5.29,3.08-9.65,7.68-3.92,4.13-9.3,9.8-12.84,9.97-2.77.11-6.94-5.07-10.32-9.25-4.32-5.34-8.39-10.38-13.07-10.38h-.1c-4.33.07-9.28,4.32-16.9,11.32-3.65,3.35-9.75,8.95-11.66,8.95h-.02c-2.15-.2-7.49-8.25-10.06-12.11-4.43-6.67-6.65-10-9.74-9.49-4.77.82-14.09,13.28-16.45,17.44-.75,1.32-.28,3,1.04,3.75,1.32.75,3,.29,3.75-1.04,2.88-5.09,9.44-12.63,11.99-14.4,1.18,1.27,3.25,4.39,4.83,6.77,5.78,8.72,9.92,14.44,14.48,14.57.05,0,.11,0,.16,0,3.87,0,8.39-3.97,15.39-10.4,4.27-3.92,10.71-9.83,13.27-9.87h.02c2.05,0,5.95,4.82,8.79,8.34,4.59,5.68,9.32,11.51,14.86,11.28,5.75-.27,11.49-6.33,16.56-11.68,2.06-2.17,5.12-5.4,6.4-5.97,1.36.69,4.34,4.69,6.16,7.13,4.26,5.72,8.29,11.12,12.85,11.12h.13c3.76-.08,8.01-3.6,14.26-9.42-1-1.9-1.31-3.84-1.8-5.84Z"/>
        <path d="M434.59,453.75c.4-2.84,1.47-5.58,3.01-8.06.4-.98.86-1.92,1.36-2.83-1.94,1.62-4.02,3.57-6.25,5.66-3.92,3.68-9.84,9.25-12.08,9.3h-.02c-1.79,0-6.27-6.01-8.43-8.91-4.16-5.59-7.45-10.01-11.3-9.33-2.69.46-5.29,3.08-9.65,7.68-3.92,4.13-9.3,9.8-12.84,9.97-2.71.1-6.94-5.07-10.32-9.25-4.32-5.34-8.39-10.38-13.07-10.38h-.1c-4.33.06-9.28,4.32-16.9,11.32-3.65,3.35-9.75,8.95-11.65,8.95h-.02c-2.15-.19-7.49-8.24-10.06-12.11-4.43-6.67-6.64-10-9.74-9.49-4.77.81-14.09,13.28-16.45,17.44-.75,1.32-.28,3,1.04,3.75,1.32.75,3,.29,3.75-1.04,2.89-5.09,9.44-12.63,11.99-14.39,1.18,1.27,3.25,4.39,4.83,6.77,5.78,8.72,9.92,14.44,14.48,14.57.05,0,.11,0,.16,0,3.87,0,8.39-3.97,15.39-10.4,4.27-3.92,10.71-9.83,13.27-9.87h.02c2.05,0,5.95,4.82,8.8,8.34,4.59,5.68,9.28,11.57,14.86,11.28,5.75-.28,11.49-6.34,16.57-11.68,2.06-2.17,5.12-5.4,6.39-5.97,1.36.69,4.34,4.7,6.16,7.13,4.3,5.77,8.28,11.21,12.97,11.12,3.69-.08,7.85-3.46,13.89-9.08-.03-.17-.07-.34-.05-.49Z"/>
        <path d="M453.33,397.52c-1.48-.7-3.06-.97-4.71-.52-3.81,1.02-7.46,5.71-11.7,11.13-2.77,3.55-7.42,9.51-9.33,9.54h-.02c-1.79,0-6.27-6.01-8.43-8.91-4.16-5.58-7.48-10-11.3-9.33-2.69.46-5.29,3.08-9.65,7.68-3.92,4.13-9.3,9.8-12.84,9.97-2.72.2-6.94-5.07-10.32-9.25-4.32-5.34-8.39-10.38-13.07-10.38h-.1c-4.33.06-9.28,4.32-16.91,11.32-3.65,3.35-9.75,8.95-11.65,8.95h-.01c-2.15-.19-7.49-8.25-10.06-12.11-4.43-6.67-6.65-10.01-9.73-9.49-4.77.82-14.09,13.28-16.44,17.44-.75,1.32-.28,3,1.04,3.75,1.32.75,3,.29,3.75-1.04,2.88-5.09,9.44-12.63,11.98-14.4,1.18,1.27,3.25,4.39,4.83,6.77,5.79,8.71,9.92,14.44,14.48,14.57.05,0,.11,0,.16,0,3.86,0,8.39-3.97,15.39-10.4,4.27-3.92,10.72-9.83,13.27-9.87h.02c2.05,0,5.95,4.82,8.79,8.34,4.59,5.68,9.28,11.5,14.86,11.28,5.75-.27,11.49-6.33,16.56-11.68,2.06-2.17,5.12-5.4,6.4-5.98,1.36.69,4.34,4.69,6.15,7.13,4.3,5.77,8.44,11.22,12.97,11.12,4.52-.1,8.71-5.46,13.55-11.66,2.85-3.66,6.76-8.66,8.79-9.21.95-.25,2.36.87,3.86,2.71-.75-2.56-1.08-5.15-.57-7.49Z"/>
        <path class="cls-4" d="M272.49,523.56c-.81.38-2.81.26-5.63-.36"/>
        <path class="cls-4" d="M219.59,460.31c5.68,4.29,43.61,34.45,67.63,38.8"/>
        <path class="cls-4" d="M266.86,523.21c-12.04-2.62-39.21-14.17-54.32-33.96"/>
        <path class="cls-4" d="M303.12,403.72c-5.69,17.26-17.69,52.06-14.65,106.25"/>
        <path class="cls-4" d="M579.82,454.7c-1.46-6.33-3.2-11.38-4.45-14.44,19.29-11.17,37.3-49.77-40.77-67.21-28.09-6.27-72.36-3.45-79.36,12.4-6.99,15.84,4.56,33.63,4.56,33.63-27.3,20.46-39.37,58.47-22.19,92.79,12.54,25.07,46.19,41.61,79.9,37.56"/>
        <path class="cls-4" d="M467.14,387.66c-6.04,15.03,27.87,28.87,53.23,34.34,25.36,5.47,10.28,23.26,2.47,43.42-7.81,20.16-6.67,47.81,9.8,41.96,16.47-5.85,6.28-41.54,12.57-54.83,6.29-13.3,2.43,7.38,5.66,15.72,3.23,8.34,14.67,6.89,13.06-7.85-1.61-14.75-11.54-29.06-.54-36.11,10.99-7.05,16.59-8.39,17.39-14.86.97-7.93-28.77-26.02-59.46-28.75s-51.76.94-54.18,6.96Z"/>
        <path class="cls-4" d="M457.51,415.55c6.82,9.82,34.42,22.76,61.39,25.6"/>
        <path class="cls-4" d="M564.24,442.67c4.38-.79,14.73-2.1,20.95-11.09"/>
        <path class="cls-4" d="M583.99,446.6c-2.72,9.5-20,25.94-21.6,39.15-1.33,10.99,3.99,18.6,14.61,21.1"/>
        <path class="cls-4" d="M566.45,493.47c6.83,7.07,25.71-1.47,28.79-23.48"/>
        <path class="cls-4" d="M571.07,502.94c7.22,3.89,28.32,3.51,36.35-20.81"/>
        <path class="cls-4" d="M507.52,582.25c-10.69,5.19-126.04,30.78-208.83-7.81"/>
        <path class="cls-4" d="M292.7,543.55c41.76,14.49,132.96,31.77,223.92,9.16"/>
        <path class="cls-4" d="M308.41,549.96c-.67,7.32,1.45,23.88,1.45,23.88"/>
        <path class="cls-4" d="M321.02,552.46c-1.11,6.85,2.54,23.45,2.54,23.45"/>
        <path class="cls-4" d="M484.34,559.12c-.16,5.5-2.32,16.9-5.29,24.6"/>
        <path class="cls-4" d="M469.62,560.99s-.7,8.23-3.66,15.48"/>
        <path class="cls-4" d="M494.94,557.13c-.14,5.04-4.25,18.66-4.25,18.66"/>
        <path class="cls-4" d="M351.44,557.61c-1.07,5.47,2.03,25.27,2.03,25.27"/>
        <path class="cls-4" d="M339.58,555.44c-.63,5.94.94,15.16.94,15.16"/>
        <path class="cls-4" d="M230.35,468.87c-4.08,3.55-9.1,18.99-10.19,25.07"/>
        <path class="cls-4" d="M239.02,475.54c-3.78,3.87-9.1,18.99-9.1,18.99"/>
        <path class="cls-4" d="M339.77,337.65c-3.12,2.05-9.41,11.22-9.41,11.22"/>
        <path class="cls-4" d="M349.39,339.49c-3.45,2.96-11.64,18.16-11.64,18.16"/>
        <path class="cls-4" d="M450.21,338.8c3.29,2.54,11.91,9.26,13.03,12.65"/>
        <path class="cls-4" d="M438.53,339.94c5.5,5.27,9.16,16.73,9.16,16.73"/>
        <path class="cls-4" d="M464.87,333.53s14.3,5.85,16.04,8.95"/>
        <path class="cls-4" d="M605.87,419.11c.78,4.61-.43,14.96-1.77,19.2"/>
        <path class="cls-4" d="M615.99,428.56c1.12,3.7-.1,14.05-1.74,17.98"/>
        <path class="cls-4" d="M300.39,130.95c-8.82-24.39-36.73-26.99-46.68-13.96-11,14.42,2.17,38.51,26.05,41.64"/>
        <path class="cls-4" d="M484.29,122.94c4.7-16.66,23.3-35.74,42.73-24,19.67,11.88,5.35,43.68-21.36,43.87"/>
        <path class="cls-4" d="M319.02,331.56c26.66,9.43,61.16,13.54,95.42,11,26.84-1.99,55.75-8.23,78.23-20.36"/>
        <path class="cls-3" d="M330.88,202.64c-27.11,3.58-24.93,50.23,7.26,45.29,32.69-5.02,21.27-49.06-7.26-45.29Z"/>
        <path d="M349.82,208.45c-11.09-5.78-28.59-.34-28.29,16.38.32,17.78,23.32,23.53,33.91,12.25,5.01-9.05,2.27-21.37-5.63-28.63Z"/>
        <path class="cls-6" d="M340.43,221.41c-.08,2.87-2.41,5.13-5.19,5.05-2.78-.08-4.97-2.47-4.89-5.34.08-2.87,2.4-5.13,5.19-5.05,2.78.08,4.97,2.47,4.89,5.34Z"/>
        <path class="cls-3" d="M459.04,196.8c27.06-3.99,37.74,41.48,5.43,45.54-32.82,4.13-33.9-41.35-5.43-45.54Z"/>
        <path d="M442.42,207.58c9.09-8.6,27.4-8.16,31.69,8,4.56,17.18-15.98,29.02-29.26,21.07-7.3-7.33-8.04-19.94-2.43-29.08Z"/>
        <path class="cls-6" d="M455,217.46c.87,2.73,3.72,4.27,6.37,3.43,2.65-.84,4.11-3.74,3.24-6.47-.86-2.73-3.72-4.27-6.37-3.43-2.65.84-4.11,3.74-3.24,6.47Z"/>
        <path class="cls-4" d="M401.25,226.78c-15.11.47-39.02,8.09-38.15,35.31,1.13,35.27,48.16,55.94,72.82,18.59,19.81-30-9.74-54.68-34.67-53.9Z"/>
        <path class="cls-4" d="M381.79,258.19c10.35,1.52,29.06,1.75,40.41-2.51-4.42,37.16-32.66,41.24-40.41,2.51Z"/>
        <path class="cls-2" d="M302.63,163.81c3.92-8.17,14.44-16.42,23.79-20.17"/>
        <path class="cls-2" d="M486.69,159.46c-4.57-7.82-15.74-15.19-25.36-18.16"/>
        <path d="M382.97,240.66c.04,5.53,10.41,11.44,16.8,10.87,10.42-.93,18.68-8.08,17.15-12.04-3.7-9.58-34.02-7.39-33.96,1.17Z"/>
        <g>
          <path d="M322.66,117.23c0,2.36-1.92,4.28-4.28,4.28s-4.28-1.92-4.28-4.28,1.91-4.28,4.28-4.28,4.28,1.92,4.28,4.28Z"/>
          <text class="cls-15" transform="translate(319 108.98)"><tspan x="0" y="0">1</tspan></text>
        </g>
        <g>
          <path d="M396.29,96.76c0,2.36-1.92,4.28-4.28,4.28s-4.28-1.92-4.28-4.28,1.91-4.28,4.28-4.28,4.28,1.92,4.28,4.28Z"/>
          <text class="cls-15" transform="translate(392.62 90.19)"><tspan x="0" y="0">2</tspan></text>
        </g>
        <g>
          <path d="M471.14,111.42c0,2.36-1.92,4.28-4.28,4.28s-4.28-1.92-4.28-4.28,1.92-4.28,4.28-4.28,4.28,1.92,4.28,4.28Z"/>
          <text class="cls-15" transform="translate(456.93 105.01)"><tspan x="0" y="0">3</tspan></text>
        </g>
        <g>
          <path d="M508.1,67.43c0,2.36-1.92,4.28-4.28,4.28s-4.28-1.92-4.28-4.28,1.92-4.28,4.28-4.28,4.28,1.92,4.28,4.28Z"/>
          <text class="cls-15" transform="translate(493.59 62.54)"><tspan x="0" y="0">4</tspan></text>
        </g>
        <g>
          <path d="M557.9,83.31c0,2.36-1.92,4.28-4.28,4.28s-4.28-1.92-4.28-4.28,1.92-4.28,4.28-4.28,4.28,1.92,4.28,4.28Z"/>
          <text class="cls-15" transform="translate(554.24 76.75)"><tspan x="0" y="0">5</tspan></text>
        </g>
        <g>
          <path d="M565.54,137.09c0,2.36-1.92,4.28-4.28,4.28s-4.28-1.92-4.28-4.28,1.92-4.28,4.28-4.28,4.28,1.92,4.28,4.28Z"/>
          <text class="cls-15" transform="translate(566.92 144.42)"><tspan x="0" y="0">6</tspan></text>
        </g>
        <g>
          <path d="M525.83,211.94c0,2.36-1.92,4.28-4.28,4.28s-4.28-1.91-4.28-4.28,1.91-4.28,4.28-4.28,4.28,1.92,4.28,4.28Z"/>
          <text class="cls-15" transform="translate(526.59 209.8)"><tspan x="0" y="0">8</tspan></text>
        </g>
        <g>
          <path d="M536.06,254.71c0,2.36-1.92,4.28-4.28,4.28s-4.28-1.92-4.28-4.28,1.92-4.28,4.28-4.28,4.28,1.92,4.28,4.28Z"/>
          <text class="cls-15" transform="translate(536.36 251.19)"><tspan x="0" y="0">9</tspan></text>
        </g>
        <g>
          <path d="M496.5,321c0,2.36-1.92,4.28-4.28,4.28s-4.28-1.92-4.28-4.28,1.92-4.28,4.28-4.28,4.28,1.92,4.28,4.28Z"/>
          <text class="cls-15" transform="translate(478.47 312.76)"><tspan x="0" y="0">11</tspan></text>
        </g>
        <g>
          <path d="M525.98,295.03c0,2.36-1.91,4.28-4.28,4.28s-4.28-1.92-4.28-4.28,1.92-4.28,4.28-4.28,4.28,1.92,4.28,4.28Z"/>
          <text class="cls-15" transform="translate(530.41 297.78)"><tspan x="0" y="0">10</tspan></text>
        </g>
        <g>
          <path d="M556.68,339.94c0,2.36-1.92,4.28-4.28,4.28s-4.28-1.92-4.28-4.28,1.92-4.28,4.28-4.28,4.28,1.92,4.28,4.28Z"/>
          <text class="cls-15" transform="translate(556.53 335.97)"><tspan x="0" y="0">13</tspan></text>
        </g>
        <g>
          <path d="M605.56,368.97c0,2.36-1.91,4.28-4.28,4.28s-4.28-1.92-4.28-4.28,1.92-4.28,4.28-4.28,4.28,1.92,4.28,4.28Z"/>
          <text class="cls-15" transform="translate(608.62 365.91)"><tspan x="0" y="0">14</tspan></text>
        </g>
        <g>
          <path d="M629.39,428.54c0,2.36-1.91,4.28-4.28,4.28s-4.28-1.92-4.28-4.28,1.92-4.28,4.28-4.28,4.28,1.92,4.28,4.28Z"/>
          <text class="cls-15" transform="translate(632.33 425.49)"><tspan x="0" y="0">15</tspan></text>
        </g>
        <g>
          <path d="M628.7,453.75c0,2.36-1.92,4.28-4.28,4.28s-4.28-1.92-4.28-4.28,1.92-4.28,4.28-4.28,4.28,1.92,4.28,4.28Z"/>
          <text class="cls-15" transform="translate(631.64 457.11)"><tspan x="0" y="0">16</tspan></text>
        </g>
        <g>
          <path d="M623.43,489.95c0,2.36-1.91,4.28-4.28,4.28s-4.28-1.92-4.28-4.28,1.92-4.28,4.28-4.28,4.28,1.92,4.28,4.28Z"/>
          <text class="cls-15" transform="translate(625.46 495.14)"><tspan x="0" y="0">17</tspan></text>
        </g>
        <g>
          <path d="M582.19,508.74c0,2.36-1.92,4.28-4.28,4.28s-4.28-1.92-4.28-4.28,1.91-4.28,4.28-4.28,4.28,1.92,4.28,4.28Z"/>
          <text class="cls-15" transform="translate(576.88 524.01)"><tspan x="0" y="0">18</tspan></text>
        </g>
        <g>
          <path d="M556.53,538.37c0,2.36-1.91,4.28-4.28,4.28s-4.28-1.92-4.28-4.28,1.92-4.28,4.28-4.28,4.28,1.92,4.28,4.28Z"/>
          <text class="cls-15" transform="translate(556.26 548.61)"><tspan x="0" y="0">19</tspan></text>
        </g>
        <g>
          <path d="M521.09,551.2c0,2.36-1.92,4.28-4.28,4.28s-4.28-1.92-4.28-4.28,1.91-4.28,4.28-4.28,4.28,1.92,4.28,4.28Z"/>
          <text class="cls-15" transform="translate(521.74 561.44)"><tspan x="0" y="0">20</tspan></text>
        </g>
        <g>
          <path d="M511.62,583.28c0,2.36-1.92,4.28-4.28,4.28s-4.28-1.92-4.28-4.28,1.92-4.28,4.28-4.28,4.28,1.92,4.28,4.28Z"/>
          <text class="cls-15" transform="translate(514.1 590.31)"><tspan x="0" y="0">21</tspan></text>
        </g>
        <g>
          <path d="M503.67,624.52c0,2.36-1.92,4.28-4.28,4.28s-4.28-1.92-4.28-4.28,1.92-4.28,4.28-4.28,4.28,1.91,4.28,4.28Z"/>
          <text class="cls-15" transform="translate(504.78 624.68)"><tspan x="0" y="0">22</tspan></text>
        </g>
        <g>
          <path d="M498.17,657.82c0,2.36-1.92,4.28-4.28,4.28s-4.28-1.92-4.28-4.28,1.92-4.28,4.28-4.28,4.28,1.92,4.28,4.28Z"/>
          <text class="cls-15" transform="translate(499.74 656.6)"><tspan x="0" y="0">23</tspan></text>
        </g>
        <g>
          <path d="M487.18,691.43c0,2.36-1.92,4.28-4.28,4.28s-4.28-1.92-4.28-4.28,1.92-4.28,4.28-4.28,4.28,1.92,4.28,4.28Z"/>
          <text class="cls-15" transform="translate(489.2 688.83)"><tspan x="0" y="0">24</tspan></text>
        </g>
        <g>
          <path d="M511.31,709.45c0,2.36-1.92,4.28-4.28,4.28s-4.28-1.92-4.28-4.28,1.92-4.28,4.28-4.28,4.28,1.92,4.28,4.28Z"/>
          <text class="cls-15" transform="translate(513.33 712.81)"><tspan x="0" y="0">25</tspan></text>
        </g>
        <g>
          <path d="M484.73,730.53c0,2.36-1.91,4.28-4.28,4.28s-4.28-1.92-4.28-4.28,1.92-4.28,4.28-4.28,4.28,1.92,4.28,4.28Z"/>
          <text class="cls-15" transform="translate(476.21 747.18)"><tspan x="0" y="0">26</tspan></text>
        </g>
        <g>
          <path d="M449.45,723.51c0,2.36-1.92,4.28-4.28,4.28s-4.28-1.92-4.28-4.28,1.92-4.28,4.28-4.28,4.28,1.91,4.28,4.28Z"/>
          <text class="cls-15" transform="translate(430.85 740.16)"><tspan x="0" y="0">27</tspan></text>
        </g>
        <g>
          <path d="M423.63,705.48c0,2.36-1.92,4.28-4.28,4.28s-4.28-1.92-4.28-4.28,1.92-4.28,4.28-4.28,4.28,1.92,4.28,4.28Z"/>
          <text class="cls-15" transform="translate(406.41 721.67)"><tspan x="0" y="0">28</tspan></text>
        </g>
        <g>
          <path d="M421.49,671.57c0,2.36-1.92,4.28-4.28,4.28s-4.28-1.92-4.28-4.28,1.92-4.28,4.28-4.28,4.28,1.91,4.28,4.28Z"/>
          <text class="cls-15" transform="translate(396.94 681.35)"><tspan x="0" y="0">29</tspan></text>
        </g>
        <g>
          <path d="M421.19,637.66c0,2.36-1.92,4.28-4.28,4.28s-4.28-1.92-4.28-4.28,1.92-4.28,4.28-4.28,4.28,1.92,4.28,4.28Z"/>
          <text class="cls-15" transform="translate(394.8 649.73)"><tspan x="0" y="0">30</tspan></text>
        </g>
        <g>
          <path d="M419.36,614.44c0,2.36-1.92,4.28-4.28,4.28s-4.28-1.92-4.28-4.28,1.92-4.28,4.28-4.28,4.28,1.92,4.28,4.28Z"/>
          <text class="cls-15" transform="translate(395.72 626.96)"><tspan class="cls-13" x="0" y="0">3</tspan><tspan class="cls-7" x="7.59" y="0">1</tspan></text>
        </g>
        <g>
          <path d="M390.03,614.44c0,2.36-1.92,4.28-4.28,4.28s-4.28-1.92-4.28-4.28,1.92-4.28,4.28-4.28,4.28,1.92,4.28,4.28Z"/>
          <text class="cls-15" transform="translate(363.18 613.22)"><tspan x="0" y="0">32</tspan></text>
        </g>
        <g>
          <path d="M389.41,641.93c0,2.36-1.92,4.28-4.28,4.28s-4.28-1.91-4.28-4.28,1.92-4.28,4.28-4.28,4.28,1.92,4.28,4.28Z"/>
          <text class="cls-15" transform="translate(362.57 643)"><tspan x="0" y="0">33</tspan></text>
        </g>
        <g>
          <path d="M387.89,676.15c0,2.36-1.91,4.28-4.28,4.28s-4.28-1.92-4.28-4.28,1.92-4.28,4.28-4.28,4.28,1.92,4.28,4.28Z"/>
          <text class="cls-15" transform="translate(360.12 677.68)"><tspan x="0" y="0">34</tspan></text>
        </g>
        <g>
          <path d="M383.91,703.95c0,2.36-1.91,4.28-4.28,4.28s-4.28-1.92-4.28-4.28,1.92-4.28,4.28-4.28,4.28,1.92,4.28,4.28Z"/>
          <text class="cls-15" transform="translate(374.48 719.69)"><tspan x="0" y="0">35</tspan></text>
        </g>
        <g>
          <path d="M354.28,724.11c0,2.36-1.92,4.28-4.28,4.28s-4.28-1.92-4.28-4.28,1.92-4.28,4.28-4.28,4.28,1.91,4.28,4.28Z"/>
          <text class="cls-15" transform="translate(343.47 739.85)"><tspan class="cls-13" x="0" y="0">3</tspan><tspan x="7.59" y="0">6</tspan></text>
        </g>
        <g>
          <path d="M315.48,723.5c0,2.36-1.91,4.28-4.28,4.28s-4.28-1.91-4.28-4.28,1.92-4.28,4.28-4.28,4.28,1.91,4.28,4.28Z"/>
          <text class="cls-15" transform="translate(297.34 739.24)"><tspan x="0" y="0">37</tspan></text>
        </g>
        <g>
          <path d="M304.18,697.23c0,2.36-1.92,4.28-4.28,4.28s-4.28-1.92-4.28-4.28,1.92-4.28,4.28-4.28,4.28,1.92,4.28,4.28Z"/>
          <text class="cls-15" transform="translate(275.96 701.51)"><tspan x="0" y="0">38</tspan></text>
        </g>
        <g>
          <path d="M329.53,684.09c0,2.36-1.92,4.28-4.28,4.28s-4.28-1.92-4.28-4.28,1.92-4.28,4.28-4.28,4.28,1.92,4.28,4.28Z"/>
          <text class="cls-15" transform="translate(302.23 682.87)"><tspan class="cls-13" x="0" y="0">3</tspan><tspan x="7.59" y="0">9</tspan></text>
        </g>
        <g>
          <path d="M318.84,648.35c0,2.36-1.91,4.28-4.28,4.28s-4.28-1.92-4.28-4.28,1.92-4.28,4.28-4.28,4.28,1.91,4.28,4.28Z"/>
          <text class="cls-15" transform="translate(290.62 656.75)"><tspan class="cls-13" x="0" y="0">4</tspan><tspan class="cls-9" x="8.1" y="0">0</tspan></text>
        </g>
        <g>
          <path d="M309.98,611.69c0,2.36-1.92,4.28-4.28,4.28s-4.28-1.92-4.28-4.28,1.91-4.28,4.28-4.28,4.28,1.92,4.28,4.28Z"/>
          <text class="cls-15" transform="translate(284.97 621.01)"><tspan class="cls-12" x="0" y="0">4</tspan><tspan x="7.56" y="0">1</tspan></text>
        </g>
        <g>
          <path d="M303.87,575.64c0,2.36-1.92,4.28-4.28,4.28s-4.28-1.92-4.28-4.28,1.92-4.28,4.28-4.28,4.28,1.92,4.28,4.28Z"/>
          <text class="cls-15" transform="translate(277.94 583.58)"><tspan x="0" y="0">42</tspan></text>
        </g>
        <g>
          <path d="M295.93,543.56c0,2.36-1.92,4.28-4.28,4.28s-4.28-1.92-4.28-4.28,1.92-4.28,4.28-4.28,4.28,1.91,4.28,4.28Z"/>
          <text class="cls-15" transform="translate(278.25 559.29)"><tspan x="0" y="0">43</tspan></text>
        </g>
        <g>
          <path d="M292.26,511.18c0,2.36-1.91,4.28-4.28,4.28s-4.28-1.91-4.28-4.28,1.92-4.28,4.28-4.28,4.28,1.92,4.28,4.28Z"/>
          <text class="cls-15" transform="translate(293.83 520.04)"><tspan x="0" y="0">44</tspan></text>
        </g>
        <g>
          <path d="M274.54,524.92c0,2.36-1.92,4.28-4.28,4.28s-4.28-1.92-4.28-4.28,1.92-4.28,4.28-4.28,4.28,1.92,4.28,4.28Z"/>
          <text class="cls-15" transform="translate(263.28 541.27)"><tspan class="cls-13" x="0" y="0">4</tspan><tspan x="8.1" y="0">5</tspan></text>
        </g>
        <path d="M259.58,563.11c0,2.36-1.92,4.28-4.28,4.28s-4.28-1.92-4.28-4.28,1.91-4.28,4.28-4.28,4.28,1.92,4.28,4.28Z"/>
        <path d="M240.33,547.23c0,2.36-1.92,4.28-4.28,4.28s-4.28-1.92-4.28-4.28,1.91-4.28,4.28-4.28,4.28,1.92,4.28,4.28Z"/>
        <g>
          <path d="M210.08,568.31c0,2.36-1.92,4.28-4.28,4.28s-4.28-1.91-4.28-4.28,1.92-4.28,4.28-4.28,4.28,1.92,4.28,4.28Z"/>
          <text class="cls-15" transform="translate(193.32 584.96)"><tspan x="0" y="0">48</tspan></text>
        </g>
        <g>
          <path d="M178.01,556.09c0,2.36-1.92,4.28-4.28,4.28s-4.28-1.92-4.28-4.28,1.91-4.28,4.28-4.28,4.28,1.92,4.28,4.28Z"/>
          <text class="cls-15" transform="translate(150.7 567.39)"><tspan class="cls-5" x="0" y="0">4</tspan><tspan x="7.76" y="0">9</tspan></text>
        </g>
        <g>
          <path d="M183.2,523.09c0,2.36-1.92,4.28-4.28,4.28s-4.28-1.91-4.28-4.28,1.91-4.28,4.28-4.28,4.28,1.91,4.28,4.28Z"/>
          <text class="cls-15" transform="translate(154.52 525.54)"><tspan class="cls-13" x="0" y="0">5</tspan><tspan x="7.6" y="0">0</tspan></text>
        </g>
        <g>
          <path d="M212.53,502.32c0,2.36-1.92,4.28-4.28,4.28s-4.28-1.92-4.28-4.28,1.92-4.28,4.28-4.28,4.28,1.92,4.28,4.28Z"/>
          <text class="cls-15" transform="translate(187.51 501.1)"><tspan class="cls-11" x="0" y="0">5</tspan><tspan x="7.33" y="0">1</tspan></text>
        </g>
        <g>
          <path d="M216.8,487.96c0,2.36-1.92,4.28-4.28,4.28s-4.28-1.92-4.28-4.28,1.92-4.28,4.28-4.28,4.28,1.92,4.28,4.28Z"/>
          <text class="cls-15" transform="translate(190.87 483.53)"><tspan class="cls-13" x="0" y="0">5</tspan><tspan x="7.6" y="0">2</tspan></text>
        </g>
        <g>
          <path d="M223.83,459.24c0,2.36-1.91,4.28-4.28,4.28s-4.28-1.92-4.28-4.28,1.92-4.28,4.28-4.28,4.28,1.91,4.28,4.28Z"/>
          <text class="cls-15" transform="translate(201.11 456.19)"><tspan x="0" y="0">53</tspan></text>
        </g>
        <g>
          <path d="M240.94,422.89c0,2.36-1.92,4.28-4.28,4.28s-4.28-1.91-4.28-4.28,1.92-4.28,4.28-4.28,4.28,1.92,4.28,4.28Z"/>
          <text class="cls-15" transform="translate(214.55 419.38)"><tspan x="0" y="0">54</tspan></text>
        </g>
        <g>
          <path d="M264.77,387.75c0,2.36-1.92,4.28-4.28,4.28s-4.28-1.92-4.28-4.28,1.92-4.28,4.28-4.28,4.28,1.92,4.28,4.28Z"/>
          <text class="cls-15" transform="translate(238.84 384.7)"><tspan x="0" y="0">55</tspan></text>
        </g>
        <g>
          <path d="M297.15,356.59c0,2.36-1.92,4.28-4.28,4.28s-4.28-1.91-4.28-4.28,1.92-4.28,4.28-4.28,4.28,1.92,4.28,4.28Z"/>
          <text class="cls-15" transform="translate(270.3 357.66)"><tspan class="cls-13" x="0" y="0">5</tspan><tspan x="7.6" y="0">6</tspan></text>
        </g>
        <g>
          <path d="M316.7,345.29c0,2.36-1.92,4.28-4.28,4.28s-4.28-1.91-4.28-4.28,1.92-4.28,4.28-4.28,4.28,1.92,4.28,4.28Z"/>
          <text class="cls-15" transform="translate(291.23 342.69)"><tspan x="0" y="0">57</tspan></text>
        </g>
        <g>
          <path d="M323.12,331.54c0,2.36-1.92,4.28-4.28,4.28s-4.28-1.92-4.28-4.28,1.92-4.28,4.28-4.28,4.28,1.92,4.28,4.28Z"/>
          <text class="cls-15" transform="translate(314.15 323.45)"><tspan x="0" y="0">58</tspan></text>
        </g>
        <g>
          <path d="M286.46,311.07c0,2.36-1.92,4.28-4.28,4.28s-4.28-1.92-4.28-4.28,1.92-4.28,4.28-4.28,4.28,1.92,4.28,4.28Z"/>
          <text class="cls-15" transform="translate(257.78 319.93)"><tspan class="cls-1" x="0" y="0">5</tspan><tspan x="7.4" y="0">9</tspan></text>
        </g>
        <g>
          <path d="M270.57,275.17c0,2.36-1.92,4.28-4.28,4.28s-4.28-1.92-4.28-4.28,1.92-4.28,4.28-4.28,4.28,1.92,4.28,4.28Z"/>
          <text class="cls-15" transform="translate(243.27 281.74)"><tspan class="cls-13" x="0" y="0">6</tspan><tspan x="8.19" y="0">0</tspan></text>
        </g>
        <g>
          <path d="M275.31,226.75c0,2.36-1.92,4.28-4.28,4.28s-4.28-1.92-4.28-4.28,1.92-4.28,4.28-4.28,4.28,1.92,4.28,4.28Z"/>
          <text class="cls-15" transform="translate(247.54 234.24)"><tspan class="cls-8" x="0" y="0">6</tspan><tspan x="7.59" y="0">1</tspan></text>
        </g>
        <g>
          <path d="M277.9,179.09c0,2.36-1.92,4.28-4.28,4.28s-4.28-1.92-4.28-4.28,1.92-4.28,4.28-4.28,4.28,1.91,4.28,4.28Z"/>
          <text class="cls-15" transform="translate(251.97 192.99)"><tspan class="cls-10" x="0" y="0">6</tspan><tspan x="8.12" y="0">2</tspan></text>
        </g>
        <g>
          <path d="M243.69,165.65c0,2.36-1.92,4.28-4.28,4.28s-4.28-1.92-4.28-4.28,1.92-4.28,4.28-4.28,4.28,1.92,4.28,4.28Z"/>
          <text class="cls-15" transform="translate(215.46 176.34)"><tspan x="0" y="0">63</tspan></text>
        </g>
        <g>
          <path d="M224.13,134.18c0,2.36-1.92,4.28-4.28,4.28s-4.28-1.91-4.28-4.28,1.92-4.28,4.28-4.28,4.28,1.92,4.28,4.28Z"/>
          <text class="cls-15" transform="translate(195.46 141.66)"><tspan x="0" y="0">64</tspan></text>
        </g>
        <g>
          <path d="M240.63,90.49c0,2.36-1.92,4.28-4.28,4.28s-4.28-1.92-4.28-4.28,1.92-4.28,4.28-4.28,4.28,1.92,4.28,4.28Z"/>
          <text class="cls-15" transform="translate(211.04 93.39)"><tspan class="cls-13" x="0" y="0">6</tspan><tspan x="8.19" y="0">5</tspan></text>
        </g>
        <g>
          <path d="M289.21,81.32c0,2.36-1.92,4.28-4.28,4.28s-4.28-1.92-4.28-4.28,1.92-4.28,4.28-4.28,4.28,1.92,4.28,4.28Z"/>
          <text class="cls-15" transform="translate(274.28 73.69)"><tspan x="0" y="0">66</tspan></text>
        </g>
        <g>
          <path d="M502.83,330.55c0,2.36-1.92,4.28-4.28,4.28s-4.28-1.92-4.28-4.28,1.91-4.28,4.28-4.28,4.28,1.92,4.28,4.28Z"/>
          <text class="cls-15" transform="translate(506.58 327.42)"><tspan x="0" y="0">12</tspan></text>
        </g>
        <g>
          <path d="M520.94,165.5c0,2.36-1.92,4.28-4.28,4.28s-4.28-1.92-4.28-4.28,1.92-4.28,4.28-4.28,4.28,1.92,4.28,4.28Z"/>
          <text class="cls-15" transform="translate(523.84 174.51)"><tspan x="0" y="0">7</tspan></text>
        </g>
        <text class="cls-15" transform="translate(246.93 579.46)"><tspan class="cls-14" x="0" y="0">4</tspan><tspan x="8.03" y="0">6</tspan></text>
        <text class="cls-15" transform="translate(222.19 564.34)"><tspan x="0" y="0">47</tspan></text>
      </g>
    </g>
  </g>
</svg>