<?xml version="1.0" encoding="UTF-8"?>
<svg xmlns="http://www.w3.org/2000/svg" width="800" height="800" version="1.1" viewBox="0 0 800 800">
  <defs>
    <style>
      .cls-1 {
        fill: #fff;
      }
    </style>
  </defs>
  <!-- Generator: Adobe Illustrator 28.7.3, SVG Export Plug-In . SVG Version: 1.2.0 Build 164)  -->
  <g>
    <g id="Camada_1">
      <g>
        <path d="M227.53,230.14c-10.04-6.55-12.98-15.38-11.55-26.33,1.49-11.36,10.07-16.71,18.56-22.84-7.38-9.71-7.42-20.07-2.81-30.49,4.84-10.94,14.79-14.32,25.95-15.8-3.35-12.47-2.06-23.59,7.63-32.5,9.58-8.81,21.16-7.6,33.03-5.64,1.23-12.77,6.12-22.66,18.44-27.33,12.07-4.57,22.26,0,32.06,7.32,1.38-2.06,2.46-3.79,3.65-5.43,12.14-16.76,34.2-16.45,45.91.65q3.57,5.22,8.59,1.78c16.11-11.01,37.28-2.08,40.18,17.27.79,5.27,2.77,8.68,7.3,11.55,14.17,8.97,25.1,21.5,35.75,34.19,18.89,22.5,42.62,36.19,71.81,40.11,11.38,1.53,22.75,1.42,34.03-1.05,2.99-.65,6-1.26,9.03-1.62,8.56-1.03,16.03,4.95,16.99,13.44,2.12,18.92-11.77,36.21-31.02,38.95-17.47,2.49-34.34-1.08-51.23-4.61-12.65-2.64-25.28-5.45-37.98-7.83-19.05-3.58-37.61-.79-56,4.63-11.72,3.46-23.53,6.78-35.5,9.22-14.41,2.94-28.73,1.36-42.64-3.72l-.79.97c2.59,3.11,4.92,6.47,7.81,9.27,5.49,5.32,11.37,10.24,16.97,15.45,17.12,15.96,27.15,35.88,33.07,58.29,5.58,21.15,5.48,42.24-.8,62.98-8.6,28.41-23.08,53.5-45.06,73.87-2.34,2.17-4.72,4.37-7.37,6.11-18.13,11.9-36.23,23.85-54.58,35.4-5.73,3.61-12.36,5.75-18.28,9.09-15.65,8.84-27.43,21.41-31.5,39.14-4.95,21.58-.82,41.84,13.65,59.14,18.35,21.93,42.56,27.79,69.88,24.47,11.92-1.45,22.29-6.43,31.9-13.47,22.27-16.32,20.3-49.41-3.86-62.78-10.44-5.78-26.29-.09-30.7,11.02-1.45,3.65-.49,8.3,2.24,10.8,2.37,2.17,9.34,3.28,11.88,1.72.69-.42,1.24-1.43,1.39-2.26.19-1.06-.18-2.21-.14-3.32.09-2.41.28-4.82.43-7.23,2.57.78,5.43,1.09,7.66,2.43,6.22,3.74,8.44,11.85,5.96,20.04-5.13,16.87-23,26.61-40.31,22.38-9.93-2.42-17.52-8.15-24.27-15.36-1.03-1.1-1.88-2.45-2.49-3.82-2.96-6.72-5.89-13.46-8.69-20.26-3.49-8.49-1.48-16.99,5.06-23.24,1.32-1.26,2.22-3.12,2.88-4.87.68-1.8.96-3.78,1.2-5.71,1.38-11.33,7.08-19.56,17.07-25.2,4.43-2.5,8.09-6.31,12.35-9.17,11.2-7.51,22.58-6.13,33.99-.34,2.59,1.31,5.26,2.76,8.05,3.3,2.11.41,4.77.04,6.69-.94,5.19-2.66,10.03-2.67,14.59,1.31,3.08,2.69,6.34,4.01,10.41,4.51,10.72,1.32,20.45,12.35,21,23.25q.41,8.01,8.04,9.93c14.22,3.58,20.27,19.2,12.04,31.28-1.79,2.63-4.07,4.93-6.02,7.46-2.29,2.98-2.15,5.42.17,8.89,3.4,5.1,6.6,10.83,7.9,16.73,2.64,11.98-6.48,22.22-19.53,23.22-1.22.09-2.45.01-3.71.01,2.93,10.73,2.06,20.91-5.19,28.86-7.76,8.52-18.42,6.7-28.51,4.7-.76,3.6-1.11,7.1-2.23,10.33-6.66,19.1-26.54,19.5-38.05,12.41-.59-.36-1.09-.86-1.67-1.26-4.68-3.26-8.42-2.52-10.8,2.59-4.13,8.87-10.51,14.84-20.19,17.14-10.67,2.53-21.26-1.58-27.21-10.77-.83-1.28-1.6-2.61-2.44-3.89-3.47-5.24-7.77-5.73-12.52-1.45-15.43,13.9-36.56,8.55-43.58-11.04-.61-1.7-1.17-3.42-1.73-5.14-2.38-7.35-4.86-8.37-12.54-6.81-5.21,1.06-10.79,1.95-15.95,1.18-9.6-1.43-16.65-6.99-19.29-16.75-1.81-6.7-3-13.58-4.4-20.39-.22-1.07-.45-2.4-.01-3.29,2.23-4.6-.9-7-3.46-10-4.06-4.77-8.85-7.08-15.12-8.3-16.75-3.27-25.18-22.3-17.27-38.09,2.22-4.42,5.28-8.42,8.33-13.21-12.43-3.22-20.77-10.29-21.87-23.86-1.08-13.32,6.49-21.51,16.89-28.37-1.46-1.35-2.7-2.61-4.05-3.74-15.55-13.01-13.42-34.59,4.43-44.57,1.94-1.08,3.89-2.16,5.89-3.12,2.53-1.21,2.87-2.73,1.07-4.89-12.97-15.57-11.5-31.79,3.76-45.27,4.96-4.38,9.24-9.51,13.99-14.14,2.57-2.5,5.52-4.6,8.22-6.97,1.96-1.72,3.8-3.59,5.69-5.4-.28-.48-.57-.95-.85-1.43-5.26,1.07-10.53,2.06-15.77,3.23-10.31,2.31-20.6,4.69-30.88,7.14-1.93.46-4.8,0-4.59,3.58.02.28-2.34,1.06-3.56,1-7.75-.38-12.18-5.16-15.38-11.7-7.9-16.12-9.04-33.31-8.74-50.88.33-19.57,5.25-37.85,16.08-54,5.26-7.84,12.42-14.55,19.43-21.02,6.42-5.92,12.28-5.67,18.45.51,12.49,12.48,24.56,25.38,36.79,38.12,2.59,2.7,5.1,5.49,7.74,8.34,3.46-2.76,6.73-5.38,10.55-8.43-9.7-5.84-14.7-13.88-13.38-25.27,1.27-11,8.98-17.42,17.53-24.14ZM298.3,622.48c-8.05-4.56-16.86-8.58-22.78-16.59-1.58-2.14-3.42-1.92-4.99.39-3.05,4.48-6.12,8.96-9.32,13.33-3.73,5.09-8.29,9.19-14.96,9.53-2.18.11-4.43-.93-7.78-1.72,4.35-4.52,8-7.59,10.76-11.32,5.04-6.8,9.31-14.25,18.65-16.75-6.76-12.04-12.22-23.86-13.64-37.47-2.32.79-4.26,1.51-6.24,2.1-2.12.63-4.25,1.35-6.43,1.66-4.6.66-8.33-1.83-8.78-5.62-.47-3.99,1.86-6.34,6.83-7.16,4.61-.75,9.19-1.67,13.09-2.39,1.49-9.18,2.85-17.54,4.12-25.31-4.18,0-9.09.47-13.84-.16-3.56-.47-7.31-1.79-10.27-3.79-3.14-2.11-2.3-6-.47-8.61.74-1.05,4.15-1.21,5.76-.49,4.8,2.17,9.56.72,14.34.92,7.48.32,12.74-2.63,17.24-8.27,2.07-2.6,5.08-4.45,8.36-7.23-2.89-1.05-4.15-1.7-5.49-1.95-9.09-1.72-17.03-5.92-24.36-11.35-2.33-1.73-4.62-3.61-6.55-5.77-2.38-2.66-1.88-5.95.61-8.57,2.57-2.71,5.01-1.64,7.4.08,1.23.89,2.21,2.11,3.38,3.1,12.64,10.62,26.65,15.39,42.88,9.54,6.53-2.35,13.1-4.81,19.23-8.03,7.3-3.83,14.14-8.54,21.56-13.1-.94-.41-1.27-.64-1.64-.7-11.09-1.91-22.29-3.29-33.23-5.83-12.57-2.91-22.89-9.88-30.57-20.41-2.38-3.26-1.69-7.66,1.37-9.58,3.4-2.13,5.14.51,7.33,2.57,4.01,3.78,7.97,7.84,12.61,10.7,14.91,9.18,31.72,11.46,48.82,12.16,6.6.27,12.43-1.97,17.94-5.71,13.71-9.3,24.52-21.28,33.43-35.1,2.4-3.73,4.72-7.51,7.61-12.12-5.2,1.42-9,2.79-12.93,3.48-14.83,2.57-29.71,1.98-44.46-.49-13.14-2.2-25.77-6.12-35.88-15.47-1.88-1.74-3.9-4.01-4.42-6.36-.49-2.2.91-4.83,1.48-7.27,1.96.59,4.18.77,5.83,1.83,4.31,2.77,8,6.76,12.58,8.79,24.95,11.05,50.78,12.47,77.06,5.59,2.22-.58,4.57-2.86,5.72-4.97,5.27-9.71,9.38-19.9,10.2-31.09.63-8.54,1.02-17.09,1.55-26.25-2.06.55-3.17.69-4.13,1.13-13.27,6.06-27.43,8-41.79,8.96-13.6.91-26.68-1.33-38.82-7.55-3.56-1.82-6.75-4.9-9.25-8.08-2.01-2.57-2.02-6.41.72-8.79,2.75-2.39,5.32.02,7.27,1.87,4.94,4.68,10.97,7.07,17.38,8.58,21.5,5.06,42.24,2.12,62.5-6.07,2.63-1.06,2.47-2.76,1.94-4.61-1.44-5.08-2.89-10.17-4.71-15.12-4.81-13.12-12.69-24.38-21.71-34.89-2-2.33-4.43-4.51-7.91-2.55-9.07,5.09-19.04,4.99-28.89,4.49-6.89-.35-13.82-1.52-20.51-3.19-3.12-.78-6.16-3.22-8.46-5.64-2.6-2.73-1.39-6.06.89-8.66,2.32-2.65,4.45-.74,6.58.62,1.51.96,3.09,1.92,4.77,2.48,10.86,3.63,21.83,3.92,32.82.61,1.72-.52,3.29-1.56,5.35-2.57-1.23-1.1-1.87-1.62-2.44-2.2-6.91-6.97-13.52-14.08-14.54-24.6-.13-1.38-1.41-3.1-2.65-3.87-17.47-10.84-23.5-27.78-25.1-47-.43-5.11,2.13-8.06,5.83-7.93,4.09.14,6.67,3.16,6.46,8.02-.58,13.44,5.26,24.17,14.89,32.64,16,14.08,35.1,18.33,55.72,14.25,12.79-2.53,25.3-6.48,37.91-9.91,21.14-5.75,42.48-6.99,64.05-2.98,18.72,3.48,37.38,7.31,56.13,10.67,11.47,2.06,22.83,1.83,32.93-5.17,5.95-4.12,9.28-9.93,9.34-17.26.04-4.67-1.9-5.64-6.28-4.56-5.9,1.45-11.9,3.01-17.92,3.36-32.12,1.85-61.35-6.47-86.02-27.44-10.43-8.87-19.42-19.48-28.66-29.67-15.51-17.1-33.42-30.87-55.37-38.25-35.22-11.84-68.84-6.12-101.1,11.02-15.32,8.14-27.32,19.93-37.71,33.57-2.35,3.08-4.36,6.02-3.03,10.22.89,2.8-.97,5.46-3.24,5.23-3.8-.38-5.04,2.07-6.3,4.24-3.13,5.4-6.04,10.94-8.66,16.6-7.68,16.62-8.78,34.73-10.81,52.47-1.8,15.71-1.47,31.65-2.65,47.44-.88,11.77-2.51,23.47-6.79,34.65-1.63,4.26-4.11,5.76-8.56,5.17-5.68-.76-9.55-4.09-13.17-8.08-13.29-14.61-26.55-29.24-39.98-43.72-4.87-5.25-10.19-10.09-15.43-15.26-4.15,4.14-8.71,7.61-11.86,12.08-5.24,7.42-9.69,15.41-14.24,23.29-1.37,2.37-.48,4.53,2.28,5.7,16.5,6.99,32.88,14.26,49.51,20.92,6.4,2.56,13.34,3.77,20.04,5.57,4.45,1.19,6.62,3.79,5.88,7.18-.69,3.18-3.49,4.65-8.04,3.9-2.18-.36-4.26-1.26-6.42-1.77-22.94-5.32-44.52-14.05-64.97-25.66-.57-.32-1.26-.42-1.98-.65-3.82,9.47-3.16,18.99-1.54,28.5.17,1,1.9,2.38,2.99,2.47,20.37,1.66,40.68,4.52,61.21,2.7,3.12-.28,6.5-.03,9.42.96,1.52.51,3.15,3.17,3.17,4.88.02,1.46-1.99,3.23-3.49,4.33-.99.73-2.68.72-4.05.69-17.78-.35-35.57-.64-53.35-1.23-5.48-.18-10.93-1.22-16.89-1.93,1.67,5.59,3.01,10.69,4.71,15.66,2.61,7.59,3.19,8.13,11.19,6.48,15.37-3.17,30.64-6.81,45.97-10.15,4.06-.88,8.18-1.85,12.3-1.95,5.17-.12,9.33,3.43,8.34,7.74-1.59,6.92-4.31,13.62-7.05,20.21-1.68,4.03-4.87,7.45-6.39,11.51-3.45,9.23-6.02,18.78-9.47,28.01-2.33,6.22-2.56,11.39,2.46,16.62,4.39,4.57,7.4,10.49,11.87,14.97,7.36,7.36,16.45,11.77,27.01,12.69,3.37.29,4.57,2.5,4.35,5.47-.21,2.93-1.85,4.93-4.98,5.22-1.1.1-2.23-.03-3.33-.16-13.06-1.58-23.73-7.86-32.28-17.5-4.68-5.28-8.34-11.48-12.42-17.21-6.05,17.15-6.97,35.55-8.23,52.64,3.58,1.68,7.14,2.33,9.14,4.45,9.7,10.26,21.37,15.11,35.42,14.68,4.35-.13,7.02,4.61,4.28,8-1.44,1.78-4.36,3.42-6.57,3.37-13.44-.33-25.86-4.07-35.87-13.45-2.81-2.64-4.54-6.43-6.8-9.75-.19.29-.54.6-.59.95-.16,1.1-.26,2.21-.3,3.32-.72,19.87,3.43,39.1,9.22,57.8,7.47,24.13,20.37,45.38,39.03,62.7,8.23,7.65,16.49,15.5,25.75,21.75,13.25,8.94,28.88,12.77,44.03,17.4.72.22,1.57.03,2.25.03-.6-13.92,9.46-24.81,9.66-38.91ZM433.44,547.94c-.69-1.63-1.09-2.64-1.53-3.63-5.04-11.26-13.62-19.97-22.97-27.16-13.43-10.32-29.41-15.34-46.33-10.74-19.5,5.3-34.83,17.14-45.11,34.71-1.95,3.33-2.75,8.11-2.18,11.94.85,5.66,3.01,11.25,5.31,16.56,7.12,16.42,25.25,21.5,39.87,11.29,1.67-1.17,2.75-3.18,4.1-4.8-3.08-.48-5.26-.08-7.45.06-8.86.58-15.83-3.12-19.34-11.03-3.32-7.48-2.85-15.17,3.53-21.6.95-.95.72-3,1.28-4.43.81-2.05,1.39-5.26,2.86-5.8,7.35-2.71,14.5-6.91,22.71-5.92,4.8.58,9.48,2.12,14.5,3.29.31-.52.9-1.62,1.59-2.64.7-1.03,1.45-2.05,2.28-2.98,2.62-2.96,5.31-2.78,6.57.94.83,2.46.64,5.45.24,8.1-.45,2.94.18,4.71,2.56,6.76,3.3,2.84,5.95,6.48,8.64,9.95,1.49,1.92,2.49,4.21,3.87,6.61,8.42-3.19,16.44-6.24,24.98-9.48ZM335.09,631.76c-8.3-1.34-16.34-2.64-24.68-3.99-2.79,11.98-5.94,24.41-15.29,34.99,15.56,3.16,30.35,2.98,44.46-.74-1.55-10.46-3.01-20.26-4.5-30.26ZM390.84,643.76c-8.96-5.16-14.12-12.18-17.7-19.88-8.87,2.74-17.26,5.33-25.23,7.79.72,9.35,1.44,18.62,2.16,27.99,14.63-1.81,27.24-8.42,40.77-15.91ZM436.86,560.79c-8.34,2.01-16.43,3.88-24.44,6.03-.92.25-1.81,2.02-2.05,3.22-1.27,6.48-2.49,12.98-3.37,19.52-.24,1.75.15,4.46,1.31,5.38,4.11,3.24,8.63,5.98,13.11,8.73,2.73,1.68,4.7.62,5.93-2.23,5.58-12.96,9.61-26.27,9.51-40.65ZM384.78,619.78c2.25,3.4,5.6,8,8.45,12.91,1.9,3.28,4.01,3.51,6.71,1.52,7.4-5.43,14.47-11.23,19.54-19.05.77-1.19,1.23-2.57,1.68-3.54-7.56-3.32-14.57-6.4-18.98-8.34-6.29,5.97-11.58,10.99-17.39,16.51ZM290.41,106.81c-6.43-1.74-15.79,1.51-20.09,7.96-3.45,5.17-3.63,10.84-1.25,13.87,7.24-7.4,14.58-14.91,21.34-21.83ZM200.15,619.79c.23,9.14,2.3,16.55,8.51,22.11,4.11,3.68,9.18,4.43,14.68,2.65-7.65-8.17-14.99-16-23.19-24.76ZM257.59,146.13c-8.47,1.19-14.48,6.01-16.54,12.81-1.59,5.26-1.07,10.11,2.48,14.57,4.72-9.19,9.26-18.03,14.05-27.38ZM338.02,82.98c-5.91-4.04-11.79-4.6-17.93-1.73-5.8,2.71-9.52,7.15-11.29,14.06,10.13-4.28,19.5-8.23,29.23-12.33ZM230.81,243.5c-6.13,2.86-9.46,8.43-9.06,15.2.31,5.3,3.8,10.01,9.06,11.62v-26.82ZM170.25,425.29c3.12-9.5,6.05-18.41,9.1-27.68-11.79,3.89-19.1,17.87-9.1,27.68ZM174.97,585.08c-3.48-8.86-6.86-17.47-10.45-26.63-7.24,13.01-1.64,26.09,10.45,26.63ZM233.99,221.06c1.26-9.75,2.39-18.57,3.58-27.75-6.12,2.79-9.57,7.14-10.12,13.47-.48,5.56,1.42,10.21,6.54,14.28ZM158.83,531.78c-.87-8.83-1.71-17.36-2.57-26.13-10.06,8.7-6.5,23.5,2.57,26.13ZM361.07,77.62h26.96c-6.22-9.59-20.06-9.16-26.96,0ZM162.47,454.12c-6.62,4.1-10.28,10.93-9.57,16.96.44,3.77,2.2,6.54,6,8.27,1.2-8.49,2.34-16.52,3.58-25.23ZM253.35,661.85c1.02,5.77,3.96,9.68,9.58,11.04,4.36,1.06,8.43.07,12.65-2.08-7.84-3.16-14.9-6-22.23-8.95ZM332.59,675.51h-22.35c3.25,8.02,15.84,8.1,22.35,0ZM436.09,606.7c4.26,0,8.08-1.35,9.68-5,.96-2.2.13-5.62-.85-8.11-.93-2.35-2.85-2.43-3.93.43-1.54,4.09-3.14,8.15-4.9,12.68ZM361.69,497.17c-9.95-3.15-19.06.53-22.88,8.72,7.55-2.88,14.73-5.61,22.88-8.72ZM415.35,81.98c6.41,2.76,12.66,5.45,19.04,8.2-1.14-8.31-10.82-12.37-19.04-8.2ZM409.52,640.15c5.09,2.06,8.47-.15,11.44-3.62,2.09-2.44,3.98-4.92,1.7-9.16-4.53,4.41-8.75,8.51-13.15,12.78ZM387.75,656.64c-6.77,2.95-12.54,5.47-18.7,8.15,3.05,2.34,6.26,2.58,9.71,1.46,4.34-1.4,7.43-4.03,8.99-9.62ZM412.8,506.85c4.92,4.58,9.84,9.17,15.22,14.18-.18-7.1-6.68-13.39-15.22-14.18ZM441.16,542.05c1.54,4.28,2.91,8.08,4.41,12.23,3.29-2.44,3.99-5.22,2.83-8.04-1.07-2.62-2.86-5.04-7.24-4.19ZM228.63,291.03c-.43-.29-.86-.58-1.3-.88-2.04,2.39-4.08,4.78-6.12,7.17,1.49,1.23,2.98,2.45,5.14,4.22.91-4.21,1.6-7.37,2.28-10.52ZM322.27,516.44c.32.27.65.55.97.82,2.15-2.59,4.29-5.18,6.44-7.77l-1.54-1.23c-1.96,2.72-3.91,5.45-5.87,8.17Z"/>
        <path d="M534.27,597.27c1.08-4.54,1.86-7.76,2.61-10.99,1.73-7.42.56-14.23-3.63-20.73-3.84-5.95-7.29-12.17-10.66-18.4-5.47-10.12-5.5-20.8-2.57-31.63,1.2-4.43,2.83-8.74,3.97-13.18,2.71-10.5,9.27-18.11,17.58-24.63,2.69-2.11,5.01-4.82,7.1-7.56,4.06-5.33,9.37-6.13,15.31-4.63,5.93,1.5,9.21,5.89,8.84,11.64-.46,7.13-2.11,14.2-3.5,21.24-1.42,7.2-3.91,14.28-4.56,21.53-1,11.2,2.74,21.64,9.14,30.63,11.49,16.16,9.71,32.51,1.48,48.87-3.93,7.8-5.69,15.49-4.48,24.1,1.99,14.17,1.78,28.32-1.72,42.28-.81,3.22-1.83,6.44-3.28,9.41-.64,1.33-2.48,2.72-3.92,2.9-6.11.76-7.38-.91-6.36-7.12,1.39-8.48,2.83-16.96,3.9-25.49,1.08-8.65-.02-17.13-2.01-25.64-2.09-8.92,1.27-17.12,5.87-24.55,7.75-12.5,8.77-24.99,1.05-37.74-7.63-12.61-13.33-26.01-12.4-40.9.57-9.18,3.54-18.2,5.41-27.3.81-3.93,1.74-7.85,2.27-11.82.36-2.72-1.28-4.08-4.04-4.05-4.12.04-7.66,1.09-9.87,4.99-7.87,13.85-15.3,27.8-15.41,44.39-.05,7.78.63,15.27,4.57,22.17,3.72,6.52,7.59,12.96,11.1,19.59,5.3,10,2.08,23.36-7.02,29.93-1.17.85-2.53,1.45-4.76,2.7Z"/>
        <path d="M608.64,716.17c-15.38-2.21-30.91-3.7-46.11-6.79-26.88-5.46-52.96-3.54-78.92,5.01-15.43,5.08-31.13,9.33-47.61,9.98-10.61.42-20.7-2.04-30.89-4.19-.89-.19-2.15-1.25-2.21-1.98-.06-.8.95-2.21,1.74-2.44,4.77-1.34,9.56-3.05,14.44-3.46,11.75-.98,23.73-.28,35.29-2.2,11.56-1.92,22.74-6.22,34.08-9.47,27.28-7.83,54.72-8.76,82.43-2.28,16.03,3.75,32.3,6.01,48.8,4.73,6.61-.51,13.12-2.17,19.68-3.27,2.32-.39,4.65-.9,6.98-.95,4.18-.09,5.3,1.32,3.28,5.02-1.28,2.34-3.67,4.58-6.1,5.69-11.01,5.05-22.8,5.79-34.73,5.33-.05.43-.11.86-.16,1.29Z"/>
        <path d="M512.65,686.27c-7.01-2.14-14.02-4.26-21.02-6.44-13.38-4.16-26.87-8.19-40.71-2.53-6.78,2.77-13.12,6.64-19.59,10.14-14.91,8.07-29.77,16.23-44.65,24.34-18.43,10.04-38.62,13.7-59.1,16.27-1.78.22-3.72.45-5.38-.03-1.51-.43-3.44-1.58-3.89-2.86-.48-1.35.07-3.78,1.1-4.77,1.5-1.44,3.75-2.37,5.83-2.9,10.5-2.66,21.15-4.74,31.55-7.75,15.98-4.62,30.55-12.56,45.12-20.38,11.14-5.98,22.18-12.13,33.18-18.37,17.25-9.79,35.25-11.1,53.91-4.97,9.37,3.07,18.73,6.18,27.96,9.63,2.18.81,3.82,3.08,5.71,4.67-2.28,1.63-4.5,3.36-6.88,4.83-.74.46-1.9.25-2.86.34-.09.26-.18.52-.27.77Z"/>
        <path d="M601.61,637.57c-1.27,1.84-2.38,3.39-3.42,4.97-1.38,2.09-2.57,4.31-4.12,6.26-.68.85-2.04,1.15-3.09,1.7-.34-1.1-.99-2.21-.97-3.29.49-19.53,3.6-38.71,7.87-57.73,1.1-4.88,1.82-9.88,3.36-14.61,2.73-8.39,7.28-9.68,14.52-4.57,8.6,6.06,11.36,18.15,5.58,27-4.56,6.97-9.89,13.43-14.85,20.13-1.24,1.67-2.61,3.3-3.54,5.14-1.99,3.92-1,6.19,3.09,7.71,9.95,3.69,13.4,12.55,7.92,21.66-2.02,3.36-4.94,6.45-8.1,8.78-6.03,4.43-12.52,8.24-18.83,12.28-.93.6-1.93,1.49-2.92,1.52-2.26.08-4.54-.3-6.81-.49.22-2.08-.23-4.6.79-6.15,2.89-4.39,6.31-8.45,9.71-12.48.62-.73,2.15-.97,3.25-.95,4.59.11,8.48-1.55,11.72-4.61,3.79-3.58,3.46-8.35-1.15-12.27ZM608.45,596.5c6.32-2.84,7.64-9.2,2.94-13.78-2.75,4.18-3.36,8.6-2.94,13.78Z"/>
        <path d="M607.54,365.36c.07,12.37-11.83,24.17-24.54,24.32-13.52.16-24.25-10.79-24.4-24.89-.16-14.95,9.07-25.32,22.76-25.54,13.87-.23,26.11,11.97,26.19,26.11ZM582.13,351.71c-6.41,0-10.92,5.39-10.96,13.07-.04,7.17,4.65,11.92,11.6,11.78,6.67-.14,12.59-5.71,12.68-11.94.09-6.41-6.61-12.91-13.32-12.91Z"/>
        <path d="M230.63,711.28c-14.63-.18-27.76-5.45-40.81-11.1-11.14-4.83-22.46-9.11-34.94-7.9-4.4.43-8.75,1.42-13.13,2.12-1.64.26-3.29.63-4.93.6-2.95-.05-5.08-1.52-5.72-4.5-.65-2.97.46-5.61,3.37-6.33,7.09-1.76,14.25-3.83,21.49-4.33,14.65-1.01,28.38,3.51,41.31,9.82,12.55,6.12,25.55,9.09,39.4,8.94,1.93-.02,4.33-.35,5.69.62,1.92,1.36,3.74,3.61,4.38,5.84.82,2.83-1.78,4.21-4.19,4.65-3.94.73-7.94,1.07-11.92,1.58Z"/>
        <path d="M536.09,330.88c-14.43-.12-22.67-9.25-22.62-25.08.04-14.56,9.49-24.46,23.28-24.39,14.28.07,24.5,10.53,24.43,25-.07,13.88-11.05,24.59-25.08,24.47ZM548.94,306.33c-.07-6.83-5.55-12.27-12.2-12.12-6.91.15-11.76,5.54-11.73,13,.03,6.54,4.71,11.04,11.45,11.03,7.64-.01,12.55-4.71,12.48-11.91Z"/>
        <path d="M528.15,585.2c-7.62,1.64-10.89,9.97-7.22,17.65,5.57,11.63,11.96,22.98,16.23,35.07,3.52,9.94,4.57,20.77,6.47,31.25.45,2.46-.16,5.85-3.2,5.8-2.25-.04-4.57-2.25-6.63-3.8-.74-.56-.95-1.98-1.17-3.06-3.75-18.29-11-35.23-19.97-51.49-5.54-10.03-5.63-20.46-2.57-31.11.67-2.35,1.95-4.63,3.39-6.62,3.03-4.2,6.71-5.5,10.37-4.11,3.67,1.4,4.96,4.4,4.3,10.44Z"/>
        <path d="M622.6,247.01c.19-13.07,8.67-21.89,20.8-21.62,11.88.26,22.13,10.89,22.01,22.82-.13,12.03-10.61,21.83-23.02,21.52-11.91-.3-19.98-9.56-19.79-22.72ZM642.74,256.39c5.71.08,10.64-4.01,10.73-8.88.09-5.33-4.33-9.85-9.73-9.95-5.08-.1-9.83,4.69-9.81,9.91.02,5.45,3.38,8.85,8.82,8.92Z"/>
        <path d="M538.18,119.49c-11.09.04-20.17-9.01-20.14-20.07.04-12.27,9.95-22.63,21.58-22.54,11.06.08,20.37,10.26,20.32,22.21-.05,11.73-9.25,20.36-21.76,20.4ZM549.09,98.24c.06-4.99-4.86-9.96-9.84-9.94-4.21.01-10.69,6.88-10.62,11.25.07,4.56,4.49,8.66,9.43,8.76,6,.11,10.97-4.42,11.04-10.07Z"/>
        <path d="M635.98,697.48c-2.36-.12-4.79.08-7.04-.48-1.54-.38-2.82-1.81-4.21-2.78,1.21-1.13,2.25-2.86,3.67-3.29,9.82-2.96,19.75-5.58,29.6-8.46,7.05-2.06,14.01-4.42,21.04-6.53,2.9-.87,5.86-1.84,8.84-2.08,3.52-.29,6.73.86,7.57,4.94.68,3.29-1.66,6.23-5.88,7.34-8.17,2.16-16.34,4.34-24.57,6.24-9.56,2.2-19.19,4.09-28.79,6.12-.08-.34-.16-.67-.24-1.01Z"/>
        <path d="M160.17,183.67c-8.73.06-15.04-5.96-15.09-14.39-.06-9.18,6.14-16.27,14.31-16.37,8.66-.11,15.83,7.36,15.86,16.52.03,8.55-5.93,14.18-15.08,14.24ZM158.91,173.07c4.35-.26,5.84-2.18,5.28-4.72-.34-1.51-2.84-3.95-3.55-3.7-1.85.66-4.2,2.39-4.55,4.06-.28,1.36,2.05,3.26,2.83,4.36Z"/>
        <path d="M490.01,391.96c-.11,8.69-6.62,15.57-14.62,15.46-7.11-.1-13.01-6.97-12.95-15.1.05-8.03,6.17-14.95,13.21-14.94,8.16.01,14.46,6.41,14.36,14.58ZM475.62,397.11c1.89-2.06,4.15-3.6,3.92-4.48-.43-1.64-2.31-2.91-3.59-4.33-1.16,1.46-2.75,2.78-3.28,4.44-.26.81,1.45,2.26,2.95,4.37Z"/>
        <path d="M625.08,422.08c-.11,3.69-3.77,7.05-7.47,6.87-4.72-.23-8.56-4.09-8.51-8.54.05-4.33,3.1-7.17,7.55-7.01,4.52.16,8.57,4.33,8.43,8.68Z"/>
        <path d="M691.7,559.28c.08,3.85-2.58,7.02-5.99,7.14-3.94.13-8.25-3.81-8.33-7.63-.09-4.33,2.65-7.51,6.51-7.55,4.14-.04,7.72,3.65,7.81,8.04Z"/>
        <path d="M284.55,720.32c2.79,1.08,5.84,1.78,8.28,3.4,1.25.83,2.13,3.45,1.83,4.99-.23,1.18-2.6,2.77-3.99,2.74-3.78-.06-7.68-.49-11.27-1.6-1.41-.43-3.24-3.4-2.89-4.64.46-1.64,2.79-2.9,4.52-3.97.84-.52,2.17-.26,3.27-.36.08-.19.16-.37.24-.56Z"/>
        <path d="M635.85,526.14c-.01-4.7,2.89-7.73,7.37-7.7,3.93.03,6.84,3.1,6.92,7.3.08,4.07-3.21,7.23-7.5,7.21-4.04-.02-6.78-2.77-6.79-6.81Z"/>
        <path d="M535.26,733.88c-.07,3.45-3.86,6.97-7.48,6.95-3.71-.02-7.96-4.29-7.76-7.79.18-3.19,4.06-6.64,7.38-6.59,4.39.07,7.94,3.43,7.86,7.42Z"/>
        <path d="M646.17,402.63c.11,3.86-3.1,7.33-6.86,7.42-4.27.1-7.27-2.7-7.28-6.79,0-4,3.15-7.87,6.47-7.96,3.76-.1,7.55,3.52,7.66,7.32Z"/>
        <path d="M184.17,726.57c.08,3.69-3.4,7.69-6.76,7.75-3.61.06-7.14-4.02-7.19-8.3-.04-3.7,2.89-6.94,6.29-6.97,3.49-.03,7.58,3.99,7.66,7.53Z"/>
        <path d="M244.48,734.1c.04,3.19-2.76,6.2-5.88,6.31-3.59.12-8.92-3.46-9.01-6.06-.11-3.44,3.85-7.1,7.8-7.22,3.98-.12,7.04,2.89,7.09,6.98Z"/>
        <path d="M555.2,740.7c-3.65-.06-6.4-3.21-6.4-7.33,0-4.25,2.65-7.02,6.59-6.91,3.89.11,6.93,3.37,6.92,7.42,0,3.46-3.58,6.88-7.11,6.82Z"/>
        <path d="M159.95,724.01c-.1,3.73-3.62,8.04-6.56,8.03-3.27,0-6.66-4.06-6.59-7.86.07-3.78,2.97-7.05,6.21-7.02,3.72.04,7.03,3.3,6.94,6.85Z"/>
        <path d="M501.01,727.44c3.68-.07,7.35,3.49,7.36,7.14,0,3.29-3.73,7.07-7.01,7.08-3.33.01-6.69-3.61-6.71-7.26-.03-3.67,2.92-6.89,6.37-6.96Z"/>
        <path d="M470.19,421.58c-.04,3.68-2.25,6.71-4.84,6.63-4.47-.14-8.21-3.96-8.12-8.3.07-3.73,2.74-6.49,6.17-6.36,3.7.14,6.84,3.85,6.8,8.03Z"/>
        <path d="M201.29,736.77c-3.25.05-6.61-3.63-6.69-7.32-.07-3.3,3.33-7.06,6.39-7.07,3.63,0,6.58,3.47,6.56,7.74-.01,3.3-3.12,6.6-6.26,6.65Z"/>
        <path d="M585.49,727.38c3.13-.08,6.4,3.49,6.36,6.95-.03,2.55-3.62,5.97-6.41,6.1-3.08.15-6.27-3-6.46-6.38-.19-3.48,2.83-6.58,6.5-6.67Z"/>
        <path d="M497.54,428.16c-.11,2.1-1.33,4.48-4.66,4.79-3.54.32-7.24-3.44-7.27-7.05-.03-3.65,2.31-5.92,6.01-5.83,3.58.09,5.9,2.87,5.93,8.09Z"/>
        <path d="M395.44,733.16c3.59-.1,6.58,2.98,6.76,6.96.13,2.83-2.31,5.84-4.7,5.8-3-.05-6.94-3.67-7.02-6.45-.11-3.87,1.73-6.21,4.97-6.3Z"/>
        <path d="M484.07,737.87c-.32,2.34-1.54,4.75-4.93,4.94-3.31.18-5.89-2.46-5.88-5.66.01-3.73,2.1-5.87,5.61-5.73,3.17.12,5.32,2.49,5.21,6.46Z"/>
        <path d="M610.61,729.36c3.08-.07,5.66,2.32,5.59,5.43-.06,3.03-1.7,5.01-4.73,5.31-3.08.31-6.31-2.64-6.16-5.48.17-3.26,2.05-5,5.3-5.26Z"/>
        <path d="M668.59,562.86c5.18.09,8.8,2.87,8.21,5.78-.31,1.51-2.25,3.57-3.69,3.79-3.64.54-7.41-2.84-6.91-5.96.24-1.54,1.88-2.86,2.4-3.61Z"/>
        <path d="M667.26,582.03c4.81.1,7.28,2.38,7.02,5.41-.22,2.57-1.3,4.59-4.36,4.48-3.3-.11-6.32-2.79-6.19-5.58.15-3.11,2.06-4.34,3.54-4.32Z"/>
        <path d="M369.64,741.39c0-2.92,2.64-5.75,5.01-5.45,3.75.48,3.82,3.72,4.09,6.36.28,2.74-1.77,4.14-4.24,4-3.04-.17-4.67-2.17-4.85-4.91Z"/>
        <path class="cls-1" d="M298.3,622.48c-.2,14.11-10.26,25-9.66,38.91-.68,0-1.53.19-2.25-.03-15.15-4.63-30.78-8.46-44.03-17.4-9.26-6.25-17.52-14.1-25.75-21.75-18.66-17.32-31.55-38.57-39.03-62.7-5.79-18.7-9.93-37.93-9.22-57.8.04-1.11.13-2.22.3-3.32.05-.35.41-.67.59-.95,2.26,3.32,3.99,7.11,6.8,9.75,10.01,9.39,22.43,13.12,35.87,13.45,2.21.05,5.13-1.58,6.57-3.37,2.74-3.38.07-8.13-4.28-8-14.05.43-25.72-4.42-35.42-14.68-2-2.12-5.56-2.77-9.14-4.45,1.26-17.09,2.18-35.49,8.23-52.64,4.08,5.73,7.73,11.92,12.42,17.21,8.54,9.64,19.22,15.92,32.28,17.5,1.1.13,2.23.26,3.33.16,3.13-.28,4.76-2.28,4.98-5.22.22-2.97-.99-5.18-4.35-5.47-10.56-.92-19.66-5.33-27.01-12.69-4.47-4.47-7.48-10.39-11.87-14.97-5.02-5.23-4.78-10.4-2.46-16.62,3.45-9.23,6.02-18.78,9.47-28.01,1.52-4.06,4.71-7.49,6.39-11.51,2.74-6.58,5.46-13.29,7.05-20.21.99-4.31-3.16-7.86-8.34-7.74-4.11.1-8.24,1.07-12.3,1.95-15.33,3.34-30.6,6.98-45.97,10.15-8,1.65-8.59,1.11-11.19-6.48-1.71-4.97-3.05-10.08-4.71-15.66,5.96.71,11.41,1.75,16.89,1.93,17.78.59,35.56.88,53.35,1.23,1.37.03,3.05.03,4.05-.69,1.5-1.1,3.5-2.87,3.49-4.33-.02-1.71-1.65-4.36-3.17-4.88-2.93-.99-6.3-1.23-9.42-.96-20.53,1.82-40.85-1.04-61.21-2.7-1.1-.09-2.82-1.47-2.99-2.47-1.62-9.51-2.28-19.03,1.54-28.5.72.23,1.41.33,1.98.65,20.45,11.61,42.03,20.34,64.97,25.66,2.16.5,4.24,1.41,6.42,1.77,4.55.74,7.34-.72,8.04-3.9.74-3.39-1.43-5.99-5.88-7.18-6.7-1.79-13.64-3-20.04-5.57-16.63-6.66-33.01-13.93-49.51-20.92-2.76-1.17-3.65-3.33-2.28-5.7,4.55-7.88,8.99-15.87,14.24-23.29,3.16-4.47,7.72-7.94,11.86-12.08,5.25,5.16,10.56,10,15.43,15.26,13.43,14.48,26.69,29.11,39.98,43.72,3.63,3.99,7.49,7.32,13.17,8.08,4.45.59,6.93-.91,8.56-5.17,4.28-11.18,5.91-22.89,6.79-34.65,1.18-15.79.85-31.73,2.65-47.44,2.03-17.74,3.13-35.85,10.81-52.47,2.62-5.66,5.53-11.21,8.66-16.6,1.26-2.17,2.51-4.62,6.3-4.24,2.27.23,4.13-2.43,3.24-5.23-1.34-4.2.68-7.14,3.03-10.22,10.4-13.65,22.39-25.43,37.71-33.57,32.26-17.14,65.88-22.86,101.1-11.02,21.95,7.38,39.86,21.15,55.37,38.25,9.24,10.19,18.23,20.8,28.66,29.67,24.67,20.97,53.9,29.29,86.02,27.44,6.02-.35,12.02-1.91,17.92-3.36,4.38-1.08,6.32-.11,6.28,4.56-.06,7.33-3.39,13.14-9.34,17.26-10.09,7-21.45,7.23-32.93,5.17-18.74-3.36-37.4-7.19-56.13-10.67-21.56-4-42.91-2.77-64.05,2.98-12.61,3.43-25.12,7.38-37.91,9.91-20.62,4.08-39.72-.17-55.72-14.25-9.63-8.47-15.47-19.21-14.89-32.64.21-4.85-2.37-7.88-6.46-8.02-3.7-.13-6.26,2.82-5.83,7.93,1.6,19.22,7.63,36.16,25.1,47,1.24.77,2.51,2.48,2.65,3.87,1.02,10.52,7.64,17.63,14.54,24.6.57.58,1.21,1.1,2.44,2.2-2.07,1.01-3.63,2.05-5.35,2.57-10.99,3.32-21.96,3.03-32.82-.61-1.68-.56-3.26-1.52-4.77-2.48-2.14-1.36-4.26-3.27-6.58-.62-2.28,2.59-3.49,5.92-.89,8.66,2.3,2.42,5.34,4.86,8.46,5.64,6.69,1.67,13.62,2.84,20.51,3.19,9.85.5,19.82.6,28.89-4.49,3.49-1.96,5.91.22,7.91,2.55,9.02,10.51,16.91,21.77,21.71,34.89,1.81,4.95,3.27,10.04,4.71,15.12.53,1.85.69,3.54-1.94,4.61-20.26,8.19-41,11.13-62.5,6.07-6.4-1.51-12.43-3.9-17.38-8.58-1.96-1.85-4.52-4.26-7.27-1.87-2.73,2.37-2.73,6.22-.72,8.79,2.5,3.18,5.69,6.25,9.25,8.08,12.13,6.22,25.21,8.46,38.82,7.55,14.36-.96,28.51-2.9,41.79-8.96.97-.44,2.07-.58,4.13-1.13-.53,9.16-.92,17.71-1.55,26.25-.83,11.18-4.94,21.38-10.2,31.09-1.15,2.11-3.5,4.39-5.72,4.97-26.28,6.88-52.12,5.46-77.06-5.59-4.59-2.03-8.28-6.02-12.58-8.79-1.65-1.06-3.87-1.25-5.83-1.83-.57,2.44-1.97,5.06-1.48,7.27.52,2.35,2.54,4.62,4.42,6.36,10.11,9.35,22.73,13.27,35.88,15.47,14.75,2.47,29.63,3.07,44.46.49,3.92-.68,7.73-2.05,12.93-3.48-2.89,4.6-5.21,8.39-7.61,12.12-8.91,13.82-19.72,25.8-33.43,35.1-5.51,3.74-11.35,5.98-17.94,5.71-17.09-.7-33.91-2.98-48.82-12.16-4.65-2.86-8.6-6.92-12.61-10.7-2.19-2.06-3.93-4.7-7.33-2.57-3.07,1.92-3.75,6.33-1.37,9.58,7.68,10.52,18,17.49,30.57,20.41,10.94,2.53,22.15,3.92,33.23,5.83.36.06.7.29,1.64.7-7.42,4.56-14.26,9.27-21.56,13.1-6.13,3.22-12.7,5.67-19.23,8.03-16.23,5.85-30.25,1.08-42.88-9.54-1.17-.98-2.15-2.21-3.38-3.1-2.39-1.72-4.82-2.79-7.4-.08-2.49,2.62-2.99,5.91-.61,8.57,1.93,2.15,4.22,4.04,6.55,5.77,7.34,5.43,15.27,9.63,24.36,11.35,1.34.25,2.6.91,5.49,1.95-3.28,2.78-6.28,4.64-8.36,7.23-4.5,5.64-9.77,8.59-17.24,8.27-4.79-.2-9.55,1.25-14.34-.92-1.61-.73-5.03-.57-5.76.49-1.83,2.61-2.67,6.5.47,8.61,2.96,1.99,6.71,3.31,10.27,3.79,4.76.63,9.66.16,13.84.16-1.26,7.77-2.62,16.13-4.12,25.31-3.9.72-8.48,1.63-13.09,2.39-4.97.81-7.3,3.16-6.83,7.16.45,3.79,4.18,6.28,8.78,5.62,2.18-.31,4.31-1.03,6.43-1.66,1.98-.59,3.91-1.31,6.24-2.1,1.43,13.61,6.88,25.43,13.64,37.47-9.34,2.5-13.61,9.95-18.65,16.75-2.76,3.73-6.41,6.8-10.76,11.32,3.35.78,5.6,1.83,7.78,1.72,6.67-.35,11.23-4.44,14.96-9.53,3.21-4.37,6.27-8.85,9.32-13.33,1.57-2.31,3.41-2.53,4.99-.39,5.92,8.01,14.73,12.03,22.78,16.59ZM421.88,135.89c-10.71-.19-19.46,9.11-19.75,21.01-.29,11.58,7.82,20.82,18.45,21.05,11.99.26,21.94-9.02,22.17-20.67.23-11.65-9.07-21.18-20.87-21.39ZM229.56,331.12c-.48.26-.96.53-1.45.79-2.28,7.01-2.4,13.79,3.03,19.69,7.1,7.71,14.95,14.57,24.28,19.46,8.85,4.64,18.31,6.39,28.27,4.9,3.22-.48,5.06-2.19,4.72-5.64-.32-3.37-2.08-4.55-5.56-4.58-22.08-.2-37.46-11.8-49.21-29.4-1.22-1.83-2.72-3.49-4.09-5.22ZM294.95,319.89c2.29-.58,6.1-1.29,9.71-2.56,2.67-.94,3.42-3.69,2.09-5.86-.93-1.53-3.5-3.28-5.02-3.03-11.52,1.91-21.7-1.8-31.55-6.92-7-3.64-13.02-8.49-16.99-15.52-1.71-3.03-4.65-4.29-7.3-2.6-1.46.93-2.07,4.28-1.87,6.43.21,2.18,1.56,4.48,2.97,6.3,11.72,15.16,27.61,22.23,47.97,23.77ZM249.43,426.32c5.7.19,8.02-1.32,8.3-4.68.34-4.01-2.32-5.15-5.59-5.89-3.91-.88-8.05-1.42-11.6-3.13-12.14-5.85-22.15-14.12-28.24-26.55-1.19-2.43-2.81-4.83-4.77-6.66-2.66-2.48-5.61-1.31-5.62,2.36-.01,3.49.66,7.2,1.94,10.45,2.95,7.52,8.38,13.33,14.34,18.65,9.34,8.32,19.93,13.98,31.24,15.45ZM293.21,256c2.9-.26,5.53-.44,8.15-.75.95-.11,1.88-.5,2.78-.86,3.12-1.28,3.25-3.85,2.71-6.62-.53-2.69-2.32-3.52-4.91-3.22-1.65.19-3.33.21-5,.18-16.55-.25-30.61-5.91-41.28-18.97-.87-1.06-1.81-2.48-2.97-2.79-1.69-.45-3.94-.61-5.32.19-.96.56-1.61,3.28-1.09,4.45,1.74,3.85,3.36,8.19,6.31,10.99,11.37,10.81,25.19,16.43,40.64,17.41ZM204.42,307.53c.42-.61.84-1.22,1.25-1.83-1.84-2.57-3.26-5.64-5.61-7.61-5.09-4.27-10.74-7.86-15.99-11.95-8.86-6.88-17.53-14.01-26.42-20.85-1.92-1.48-4.44-2.19-6.69-3.25-.75,2.97-1.74,5.91-2.1,8.92-.13,1.08,1.11,2.53,2.05,3.49,2.52,2.57,4.91,5.43,7.88,7.36,13.02,8.46,26.19,16.72,39.44,24.82,1.63,1,4.1.63,6.19.9ZM206.74,570.35c4.3-.66,7.95-.85,11.37-1.84,3.85-1.11,5.53-4.76,4.45-8.22-1.09-3.47-3.1-4.35-7.71-3.03-6.48,1.85-12.9,1.81-19.29-.3-1.71-.57-3.31-1.59-5.05-1.93-1.59-.31-4.57-.39-4.74.14-.62,1.91-1.12,4.64-.18,6.11,1.48,2.32,3.88,4.7,6.4,5.59,4.9,1.73,10.16,2.45,14.74,3.47ZM286.75,182.11c.98-.75,3.34-1.77,4.32-3.55.8-1.45.69-4.4-.31-5.63-2.21-2.73-5.15-4.89-7.95-7.1-2.06-1.63-3.94-.75-5.4,1.1-2.01,2.55-2.99,5.32-1.44,8.5,1.93,3.93,5.04,6.17,10.78,6.68ZM260.06,195.99c0,5.13,4.36,9.39,8.16,7.98,4.05-1.5,7.2-7.93,5.92-12.07-1.09-3.54-4.51-5.75-7.98-5.16-3.56.61-6.11,4.46-6.11,9.25ZM339.36,119.3c.06,4.17,2.97,7,7.16,6.97,4.64-.03,8.95-3.98,8.94-8.19,0-3.51-3.73-7-7.44-6.99-4.86.01-8.72,3.67-8.66,8.21ZM370.16,111.04c4.39-.04,7.61-3.01,7.71-7.1.09-3.8-3.5-6.84-7.97-6.73-4.46.11-7.6,2.83-7.66,6.61-.06,4.32,3.16,7.26,7.91,7.22ZM378.74,125.19c.08-3.45-3.67-7.21-7.22-7.26-3.49-.04-6.78,3.24-6.91,6.91-.13,3.74,3.58,7.88,7.03,7.83,3.36-.04,7.02-3.9,7.1-7.48ZM291.73,192.17c-3.44.04-6.45,2.82-6.31,5.84.14,3.02,5.26,8.19,8.01,8.08,2.63-.1,5.95-4.12,5.9-7.13-.06-3.55-3.73-6.84-7.6-6.8ZM281.28,207.1c-3.21.07-5.33,2.82-5.2,6.72.14,3.93,3.54,7.34,7.17,7.19,2.97-.12,5.75-3.31,5.76-6.61.02-3.63-3.96-7.39-7.73-7.31ZM194.13,546.13c3.09.04,5.95-2.87,6.05-6.13.12-4.06-2.96-7.73-6.49-7.71-3.02.01-5.84,3.11-5.82,6.38.03,4.08,2.82,7.42,6.26,7.46ZM203.5,430.87c.02,3.72,2.06,6.01,5.35,6,3,0,5.99-3.32,6.06-6.71.07-3.71-2.65-6.89-5.8-6.77-3.18.12-5.63,3.4-5.61,7.49Z"/>
        <path class="cls-1" d="M433.44,547.94c-8.54,3.24-16.56,6.28-24.98,9.48-1.38-2.4-2.39-4.69-3.87-6.61-2.69-3.48-5.34-7.11-8.64-9.95-2.38-2.05-3.01-3.82-2.56-6.76.4-2.65.59-5.64-.24-8.1-1.26-3.72-3.95-3.9-6.57-.94-.83.93-1.58,1.95-2.28,2.98-.69,1.02-1.28,2.12-1.59,2.64-5.02-1.17-9.7-2.71-14.5-3.29-8.21-.99-15.36,3.21-22.71,5.92-1.48.54-2.06,3.75-2.86,5.8-.57,1.44-.34,3.48-1.28,4.43-6.38,6.42-6.85,14.12-3.53,21.6,3.51,7.91,10.48,11.61,19.34,11.03,2.19-.14,4.37-.55,7.45-.06-1.35,1.62-2.43,3.63-4.1,4.8-14.63,10.21-32.76,5.13-39.87-11.29-2.3-5.31-4.46-10.89-5.31-16.56-.58-3.83.23-8.61,2.18-11.94,10.28-17.58,25.6-29.42,45.11-34.71,16.92-4.59,32.9.42,46.33,10.74,9.35,7.19,17.93,15.91,22.97,27.16.44.99.85,2,1.53,3.63Z"/>
        <path class="cls-1" d="M335.09,631.76c1.49,10,2.94,19.8,4.5,30.26-14.12,3.72-28.9,3.9-44.46.74,9.35-10.57,12.49-23,15.29-34.99,8.34,1.35,16.37,2.64,24.68,3.99Z"/>
        <path class="cls-1" d="M390.84,643.76c-13.53,7.49-26.14,14.1-40.77,15.91-.72-9.37-1.44-18.65-2.16-27.99,7.97-2.46,16.37-5.05,25.23-7.79,3.57,7.7,8.74,14.72,17.7,19.88Z"/>
        <path class="cls-1" d="M436.86,560.79c.1,14.38-3.94,27.69-9.51,40.65-1.22,2.84-3.2,3.91-5.93,2.23-4.47-2.75-8.99-5.49-13.11-8.73-1.16-.92-1.54-3.62-1.31-5.38.88-6.54,2.1-13.04,3.37-19.52.24-1.2,1.12-2.97,2.05-3.22,8.01-2.15,16.1-4.01,24.44-6.03Z"/>
        <path class="cls-1" d="M384.78,619.78c5.81-5.52,11.1-10.54,17.39-16.51,4.42,1.94,11.43,5.02,18.98,8.34-.45.97-.92,2.36-1.68,3.54-5.07,7.82-12.13,13.63-19.54,19.05-2.7,1.98-4.81,1.76-6.71-1.52-2.84-4.9-6.2-9.51-8.45-12.91Z"/>
        <path class="cls-1" d="M290.41,106.81c-6.76,6.92-14.1,14.43-21.34,21.83-2.38-3.03-2.2-8.7,1.25-13.87,4.3-6.45,13.66-9.7,20.09-7.96Z"/>
        <path class="cls-1" d="M200.15,619.79c8.2,8.76,15.54,16.59,23.19,24.76-5.5,1.78-10.57,1.03-14.68-2.65-6.2-5.56-8.28-12.97-8.51-22.11Z"/>
        <path class="cls-1" d="M257.59,146.13c-4.8,9.35-9.33,18.18-14.05,27.38-3.55-4.46-4.08-9.31-2.48-14.57,2.06-6.8,8.07-11.62,16.54-12.81Z"/>
        <path class="cls-1" d="M338.02,82.98c-9.73,4.1-19.09,8.05-29.23,12.33,1.78-6.91,5.49-11.35,11.29-14.06,6.14-2.87,12.03-2.31,17.93,1.73Z"/>
        <path class="cls-1" d="M230.81,243.5v26.82c-5.26-1.61-8.74-6.32-9.06-11.62-.4-6.77,2.93-12.34,9.06-15.2Z"/>
        <path class="cls-1" d="M170.25,425.29c-10-9.81-2.69-23.79,9.1-27.68-3.05,9.27-5.98,18.18-9.1,27.68Z"/>
        <path class="cls-1" d="M174.97,585.08c-12.09-.54-17.69-13.62-10.45-26.63,3.59,9.16,6.97,17.76,10.45,26.63Z"/>
        <path class="cls-1" d="M233.99,221.06c-5.12-4.06-7.02-8.71-6.54-14.28.55-6.33,4-10.68,10.12-13.47-1.18,9.18-2.32,18-3.58,27.75Z"/>
        <path class="cls-1" d="M158.83,531.78c-9.08-2.63-12.63-17.43-2.57-26.13.86,8.77,1.7,17.3,2.57,26.13Z"/>
        <path class="cls-1" d="M361.07,77.62c6.89-9.16,20.74-9.59,26.96,0h-26.96Z"/>
        <path class="cls-1" d="M162.47,454.12c-1.23,8.71-2.37,16.74-3.58,25.23-3.79-1.73-5.55-4.5-6-8.27-.71-6.03,2.96-12.86,9.57-16.96Z"/>
        <path class="cls-1" d="M253.35,661.85c7.33,2.95,14.39,5.8,22.23,8.95-4.23,2.16-8.29,3.14-12.65,2.08-5.61-1.36-8.56-5.27-9.58-11.04Z"/>
        <path class="cls-1" d="M332.59,675.51c-6.51,8.1-19.1,8.02-22.35,0h22.35Z"/>
        <path class="cls-1" d="M436.09,606.7c1.75-4.53,3.35-8.59,4.9-12.68,1.08-2.85,3-2.78,3.93-.43.98,2.49,1.81,5.91.85,8.11-1.59,3.65-5.42,4.99-9.68,5Z"/>
        <path class="cls-1" d="M361.69,497.17c-8.15,3.11-15.33,5.84-22.88,8.72,3.82-8.19,12.93-11.87,22.88-8.72Z"/>
        <path class="cls-1" d="M415.35,81.98c8.23-4.16,17.9-.11,19.04,8.2-6.39-2.75-12.64-5.44-19.04-8.2Z"/>
        <path class="cls-1" d="M409.52,640.15c4.4-4.28,8.61-8.37,13.15-12.78,2.28,4.24.38,6.72-1.7,9.16-2.97,3.48-6.36,5.68-11.44,3.62Z"/>
        <path class="cls-1" d="M387.75,656.64c-1.56,5.59-4.65,8.21-8.99,9.62-3.45,1.12-6.66.88-9.71-1.46,6.16-2.69,11.94-5.2,18.7-8.15Z"/>
        <path class="cls-1" d="M412.8,506.85c8.54.79,15.05,7.08,15.22,14.18-5.38-5.01-10.3-9.6-15.22-14.18Z"/>
        <path class="cls-1" d="M441.16,542.05c4.38-.86,6.16,1.57,7.24,4.19,1.16,2.83.47,5.6-2.83,8.04-1.5-4.15-2.87-7.95-4.41-12.23Z"/>
        <path class="cls-1" d="M228.63,291.03c-.68,3.15-1.37,6.3-2.28,10.52-2.15-1.77-3.64-3-5.14-4.22,2.04-2.39,4.08-4.78,6.12-7.17.43.29.86.58,1.3.88Z"/>
        <path class="cls-1" d="M322.27,516.44c1.96-2.72,3.91-5.45,5.87-8.17l1.54,1.23c-2.15,2.59-4.29,5.18-6.44,7.77-.32-.27-.65-.55-.97-.82Z"/>
        <path class="cls-1" d="M608.45,596.5c-.42-5.18.19-9.59,2.94-13.78,4.7,4.57,3.38,10.94-2.94,13.78Z"/>
        <path class="cls-1" d="M582.13,351.71c6.71,0,13.41,6.5,13.32,12.91-.09,6.23-6.01,11.8-12.68,11.94-6.96.14-11.64-4.61-11.6-11.78.04-7.68,4.56-13.07,10.96-13.07Z"/>
        <path class="cls-1" d="M548.94,306.33c.08,7.21-4.84,11.9-12.48,11.91-6.74.01-11.42-4.49-11.45-11.03-.04-7.46,4.82-12.85,11.73-13,6.65-.15,12.12,5.29,12.2,12.12Z"/>
        <path class="cls-1" d="M642.74,256.39c-5.44-.08-8.8-3.48-8.82-8.92-.02-5.22,4.73-10.01,9.81-9.91,5.41.11,9.82,4.62,9.73,9.95-.08,4.87-5.02,8.96-10.73,8.88Z"/>
        <path class="cls-1" d="M549.09,98.24c-.06,5.65-5.03,10.18-11.04,10.07-4.94-.09-9.36-4.2-9.43-8.76-.07-4.38,6.41-11.24,10.62-11.25,4.99-.02,9.9,4.95,9.84,9.94Z"/>
        <path class="cls-1" d="M158.91,173.07c-.77-1.09-3.11-2.99-2.83-4.36.35-1.67,2.69-3.4,4.55-4.06.72-.25,3.21,2.18,3.55,3.7.57,2.54-.92,4.46-5.28,4.72Z"/>
        <path class="cls-1" d="M475.62,397.11c-1.5-2.11-3.21-3.56-2.95-4.37.53-1.66,2.12-2.98,3.28-4.44,1.28,1.42,3.16,2.69,3.59,4.33.23.88-2.03,2.42-3.92,4.48Z"/>
        <path d="M421.88,135.89c11.81.21,21.11,9.74,20.87,21.39-.23,11.65-10.18,20.92-22.17,20.67-10.63-.23-18.74-9.47-18.45-21.05.29-11.9,9.04-21.2,19.75-21.01ZM424.21,148.8c2.49,2.27,3.94,4.61,5.82,5.03,2.31.51,4.8-1.09,4.48-4.1-.31-2.94-1.9-5.6-5.27-5.16-1.49.19-2.75,2.23-5.03,4.23Z"/>
        <path d="M229.56,331.12c1.37,1.74,2.86,3.39,4.09,5.22,11.76,17.6,27.14,29.2,49.21,29.4,3.49.03,5.24,1.22,5.56,4.58.33,3.46-1.51,5.16-4.72,5.64-9.96,1.49-19.42-.27-28.27-4.9-9.33-4.89-17.18-11.75-24.28-19.46-5.43-5.9-5.31-12.68-3.03-19.69.48-.26.96-.53,1.45-.79Z"/>
        <path d="M294.95,319.89c-20.37-1.54-36.25-8.61-47.97-23.77-1.41-1.82-2.76-4.11-2.97-6.3-.2-2.15.41-5.5,1.87-6.43,2.65-1.69,5.59-.43,7.3,2.6,3.97,7.02,9.99,11.88,16.99,15.52,9.85,5.12,20.03,8.83,31.55,6.92,1.52-.25,4.09,1.5,5.02,3.03,1.33,2.18.58,4.92-2.09,5.86-3.61,1.27-7.41,1.98-9.71,2.56Z"/>
        <path d="M249.43,426.32c-11.31-1.47-21.91-7.13-31.24-15.45-5.96-5.31-11.39-11.12-14.34-18.65-1.28-3.25-1.95-6.96-1.94-10.45.01-3.68,2.96-4.84,5.62-2.36,1.96,1.83,3.58,4.23,4.77,6.66,6.09,12.43,16.1,20.7,28.24,26.55,3.55,1.71,7.69,2.24,11.6,3.13,3.27.74,5.93,1.88,5.59,5.89-.29,3.37-2.6,4.88-8.3,4.68Z"/>
        <path d="M293.21,256c-15.46-.99-29.27-6.6-40.64-17.41-2.95-2.8-4.57-7.14-6.31-10.99-.53-1.16.13-3.89,1.09-4.45,1.38-.8,3.63-.64,5.32-.19,1.16.31,2.11,1.73,2.97,2.79,10.67,13.06,24.74,18.72,41.28,18.97,1.67.02,3.35,0,5-.18,2.6-.3,4.38.53,4.91,3.22.54,2.77.41,5.34-2.71,6.62-.9.37-1.83.75-2.78.86-2.62.32-5.25.49-8.15.75Z"/>
        <path d="M204.42,307.53c-2.08-.27-4.55.1-6.19-.9-13.25-8.1-26.41-16.36-39.44-24.82-2.97-1.93-5.37-4.79-7.88-7.36-.94-.96-2.18-2.41-2.05-3.49.36-3.01,1.35-5.95,2.1-8.92,2.25,1.06,4.77,1.77,6.69,3.25,8.89,6.84,17.56,13.97,26.42,20.85,5.25,4.08,10.91,7.67,15.99,11.95,2.35,1.97,3.77,5.04,5.61,7.61-.42.61-.84,1.22-1.25,1.83Z"/>
        <path d="M206.74,570.35c-4.58-1.02-9.84-1.74-14.74-3.47-2.53-.89-4.92-3.27-6.4-5.59-.94-1.47-.44-4.2.18-6.11.17-.53,3.15-.45,4.74-.14,1.74.34,3.34,1.36,5.05,1.93,6.39,2.11,12.81,2.15,19.29.3,4.61-1.32,6.62-.44,7.71,3.03,1.09,3.46-.6,7.1-4.45,8.22-3.42.99-7.07,1.18-11.37,1.84Z"/>
        <path d="M286.75,182.11c-5.74-.52-8.85-2.75-10.78-6.68-1.56-3.18-.58-5.95,1.44-8.5,1.46-1.85,3.34-2.72,5.4-1.1,2.79,2.21,5.74,4.37,7.95,7.1,1,1.24,1.11,4.18.31,5.63-.98,1.78-3.33,2.8-4.32,3.55Z"/>
        <path d="M260.06,195.99c0-4.79,2.54-8.64,6.11-9.25,3.46-.59,6.88,1.62,7.98,5.16,1.28,4.14-1.88,10.56-5.92,12.07-3.8,1.41-8.16-2.85-8.16-7.98Z"/>
        <path d="M339.36,119.3c-.06-4.54,3.8-8.2,8.66-8.21,3.72,0,7.44,3.49,7.44,6.99.01,4.21-4.3,8.16-8.94,8.19-4.2.03-7.11-2.8-7.16-6.97Z"/>
        <path d="M370.16,111.04c-4.75.04-7.97-2.9-7.91-7.22.06-3.78,3.2-6.49,7.66-6.61,4.46-.11,8.06,2.92,7.97,6.73-.1,4.09-3.33,7.06-7.71,7.1Z"/>
        <path d="M378.74,125.19c-.08,3.58-3.74,7.44-7.1,7.48-3.45.04-7.17-4.09-7.03-7.83.13-3.66,3.42-6.95,6.91-6.91,3.56.04,7.3,3.81,7.22,7.26Z"/>
        <path d="M291.73,192.17c3.86-.04,7.54,3.25,7.6,6.8.05,3.01-3.28,7.02-5.9,7.13-2.75.11-7.87-5.06-8.01-8.08-.14-3.02,2.87-5.81,6.31-5.84Z"/>
        <path d="M281.28,207.1c3.77-.09,7.75,3.67,7.73,7.31-.01,3.3-2.79,6.49-5.76,6.61-3.63.15-7.03-3.26-7.17-7.19-.14-3.91,1.98-6.65,5.2-6.72Z"/>
        <path d="M194.13,546.13c-3.43-.04-6.23-3.38-6.26-7.46-.02-3.27,2.8-6.37,5.82-6.38,3.52-.02,6.6,3.65,6.49,7.71-.09,3.26-2.96,6.17-6.05,6.13Z"/>
        <path d="M203.5,430.87c-.03-4.09,2.43-7.37,5.61-7.49,3.14-.12,5.87,3.06,5.8,6.77-.07,3.4-3.05,6.71-6.06,6.71-3.29,0-5.33-2.28-5.35-6Z"/>
        <path class="cls-1" d="M424.21,148.8c2.28-2,3.54-4.04,5.03-4.23,3.37-.43,4.96,2.22,5.27,5.16.32,3.01-2.17,4.61-4.48,4.1-1.88-.42-3.33-2.77-5.82-5.03Z"/>
      </g>
    </g>
  </g>
</svg>