<?xml version="1.0" encoding="UTF-8"?>
<svg xmlns="http://www.w3.org/2000/svg" width="800" height="800" version="1.1" viewBox="0 0 800 800">
  <defs>
    <style>
      .cls-1 {
        fill: #fff;
      }
    </style>
  </defs>
  <!-- Generator: Adobe Illustrator 28.7.3, SVG Export Plug-In . SVG Version: 1.2.0 Build 164)  -->
  <g>
    <g id="Camada_1">
      <path d="M246.8,498.04c-10.74-16.34-10.4-31.54,4.21-45.49,2.13-2.04,3.56-6.88,2.71-9.63-4.44-14.52,1.99-25.39,10.32-36.14,49.94-64.38,99.88-128.76,149.41-193.45,4.4-5.75,5.31-14.06,8.76-20.7,4.08-7.84,7.56-17.45,14.22-22.15,9.33-6.58,20.33-3.22,28.7,4.94,24.09,23.5,48.05,47.12,72.05,70.7,22.88,22.47,45.73,44.98,68.65,67.42,8.86,8.68,14.52,18.5,9.17,30.99-5.09,11.88-14.17,16.93-27.7,16.13-5.26-.31-11.42,4.11-16.19,7.69-65.17,48.93-130.03,98.28-195.39,146.96-8.07,6.01-18.73,8.46-27.87,13.19-5.39,2.79-10.52,6.37-15.11,10.35-9.46,8.21-20.22,13.01-31.71,6.93-10.14-5.37-15.71-2.03-22.63,5.07-15.6,16.03-16.31,15.72-32.59.13q-24.95-23.89.97-52.95ZM406.59,254.8c13.89,13.84,26.52,26.46,39.19,39.03,13.07,12.98,26.36,25.75,39.19,38.96,5.08,5.23,14.56,10.5,6,19.31-8.09,8.32-14.06.88-19.67-4.78-2.97-2.99-5.86-6.05-8.86-9-22.37-21.96-44.77-43.9-68.15-66.83-40.52,51.91-79.98,102.42-119.38,152.97-6.09,7.82-3.53,14.56,2.89,20.86,19.15,18.81,37.7,38.26,57.68,56.13,4.28,3.83,15.5,5.18,20.22,2.29,15.49-9.47,29.45-21.42,47.77-35.27-6.39-4.48-11.67-7.24-15.78-11.21-16.29-15.71-32.57-31.46-47.95-48.04-2.8-3.02-1.34-9.99-1.84-15.14,5.09.35,10.46-.14,15.18,1.36,3.13,1,5.34,4.87,7.97,7.45,18.6,18.25,37.21,36.5,56,54.92,50.48-38.12,99.4-75.05,147.1-111.07-39.81-40.76-78.36-80.26-116.98-119.69-3.26-3.33-7-6.18-11.46-10.09-9.68,12.57-18.91,24.56-29.12,37.82ZM444.21,188.49c-1.08,1.17-2.17,2.34-3.25,3.52,50.33,49.63,100.66,99.25,150.98,148.88.67-14.74-135.49-150.13-147.73-152.4ZM267.94,464.65c-12.89,11.17-13.21,12.93-2.85,23.53,10.64,10.89,21.93,21.16,32.32,32.27,9.59,10.25,17.49,9.86,23.57.46-18.07-19.16-35.58-37.73-53.05-56.26ZM260.84,538.83c4.86-4.59,9.09-8.58,14.01-13.23-5.2-4.87-9.22-8.63-13.97-13.08-4.7,4.63-8.61,8.48-13.58,13.39,4.73,4.51,8.47,8.07,13.55,12.92Z"/>
      <path d="M340.67,634.83c-30.5,0-61,.15-91.49-.07-14.51-.11-18.66-5.61-15.89-19.72,4.83-24.55,27.25-40.3,53.41-39.18,6.73.29,15.05-2.45,20.27-6.7,20.06-16.36,48.09-16.41,68.15-.09,5.24,4.26,13.41,6.98,20.2,6.9,26.47-.31,48.71,15.14,54,39.13,3.12,14.13-.87,19.57-15.58,19.7-31.02.26-62.04.08-93.07.08v-.05ZM255.39,613.81h169.18c-9.01-17.04-21.37-22.37-37.49-14.92-10.42,4.81-15.59,2.93-21.36-6.93-12.34-21.11-38.62-21.2-50.88-.2-5.67,9.72-10.52,12.22-21.17,7.14-16.14-7.7-28.4-2.56-38.28,14.91Z"/>
      <path d="M572.28,449.96c19.61-.06,35.29,15.39,35.15,34.62-.14,18.34-15.79,34.14-34.13,34.46-19.63.34-35.41-14.75-35.77-34.21-.36-19.54,14.85-34.81,34.75-34.87ZM572.42,503.44c6.43-9.15,13.59-14.9,13.05-19.8-.57-5.15-8.62-13.27-13.21-13.15-4.89.13-12.86,8.06-13.39,13.21-.5,4.9,6.87,10.6,13.55,19.74Z"/>
      <path d="M251.76,283.97c.06,16.26-12.41,28.79-28.85,28.96-16.41.17-29.14-12.09-29.47-28.37-.35-17.19,12.47-30.04,29.66-29.74,16.41.28,28.59,12.68,28.66,29.15ZM235.99,283.73c-6-4.36-10.03-9.36-12.67-8.72-3.86.95-8,5.49-9.42,9.43-.61,1.7,5.38,8.26,8.15,8.12,3.91-.19,7.62-4.55,13.94-8.84Z"/>
      <path d="M192.26,560.57c-4.49-6.38-9.65-10.51-9.25-14.02.4-3.56,6.28-9,9.76-8.99,3.2,0,8.64,5.97,8.93,9.64.27,3.45-4.9,7.33-9.44,13.37Z"/>
      <path d="M226.81,372.52c-6.78,4.11-10.93,8.64-14.42,8.18-3.46-.46-6.24-5.96-9.32-9.25,3.33-3.07,6.58-8.43,10.02-8.56,3.55-.14,7.29,4.83,13.72,9.63Z"/>
      <path d="M532.3,536.49c-6.14,5.03-9.78,10.32-13.32,10.26-3.66-.07-7.23-5.34-10.84-8.33,3.11-3.44,5.84-9.07,9.44-9.69,3.51-.6,7.9,3.91,14.71,7.76Z"/>
      <path d="M581.69,205.83c-6.75,4.63-10.51,9.14-14.42,9.27-3.06.1-9.28-5.93-8.8-8.03.92-4.05,5.19-9.51,8.82-10.15,3.31-.59,7.61,4.43,14.4,8.92Z"/>
      <path d="M321.34,210.99c4.37,7.05,9.27,11.5,8.6,14.83-.73,3.61-6.34,7.7-10.44,8.54-2.04.42-7.79-6.07-7.67-9.27.14-3.83,4.77-7.49,9.51-14.1Z"/>
      <path d="M601.13,391.26c-6.91,4.38-11.24,9.22-14.25,8.5-3.67-.87-7.78-6.07-8.64-10.06-.44-2.08,5.73-7.85,8.87-7.81,3.68.04,7.3,4.59,14.02,9.37Z"/>
      <path class="cls-1" d="M406.59,254.8c10.21-13.26,19.44-25.25,29.12-37.82,4.47,3.91,8.21,6.76,11.46,10.09,38.62,39.43,77.17,78.93,116.98,119.69-47.71,36.02-96.62,72.95-147.1,111.07-18.79-18.42-37.39-36.67-56-54.92-2.63-2.58-4.84-6.46-7.97-7.45-4.73-1.51-10.09-1.01-15.18-1.36.51,5.15-.96,12.12,1.84,15.14,15.38,16.58,31.66,32.33,47.95,48.04,4.12,3.97,9.39,6.74,15.78,11.21-18.32,13.84-32.29,25.8-47.77,35.27-4.73,2.89-15.94,1.54-20.22-2.29-19.98-17.87-38.54-37.32-57.68-56.13-6.42-6.3-8.98-13.05-2.89-20.86,39.4-50.55,78.86-101.06,119.38-152.97,23.39,22.93,45.78,44.87,68.15,66.83,3,2.95,5.89,6.01,8.86,9,5.61,5.65,11.59,13.1,19.67,4.78,8.56-8.81-.92-14.08-6-19.31-12.83-13.21-26.12-25.98-39.19-38.96-12.67-12.58-25.3-25.19-39.19-39.03ZM405.46,416.62c28.17.22,52.63-23.88,52.74-51.98.1-23.85-17.82-41.41-42.22-41.36-27.24.05-51.76,24.2-52,51.2-.21,24.1,17.36,41.95,41.48,42.14Z"/>
      <path class="cls-1" d="M444.21,188.49c12.24,2.27,148.4,137.66,147.73,152.4-50.33-49.63-100.66-99.25-150.98-148.88,1.08-1.17,2.17-2.34,3.25-3.52Z"/>
      <path class="cls-1" d="M267.94,464.65c17.47,18.53,34.98,37.1,53.05,56.26-6.08,9.4-13.99,9.78-23.57-.46-10.39-11.11-21.68-21.38-32.32-32.27-10.36-10.6-10.05-12.35,2.85-23.53Z"/>
      <path class="cls-1" d="M260.84,538.83c-5.08-4.85-8.81-8.41-13.55-12.92,4.98-4.9,8.88-8.75,13.58-13.39,4.76,4.45,8.78,8.21,13.97,13.08-4.92,4.64-9.15,8.64-14.01,13.23Z"/>
      <path class="cls-1" d="M255.39,613.81c9.89-17.47,22.14-22.61,38.28-14.91,10.65,5.08,15.49,2.58,21.17-7.14,12.26-21,38.54-20.91,50.88.2,5.77,9.86,10.94,11.74,21.36,6.93,16.13-7.45,28.48-2.13,37.49,14.92h-169.18Z"/>
      <path class="cls-1" d="M572.42,503.44c-6.68-9.14-14.05-14.84-13.55-19.74.52-5.15,8.5-13.08,13.39-13.21,4.6-.12,12.65,8,13.21,13.15.54,4.9-6.62,10.65-13.05,19.8Z"/>
      <path class="cls-1" d="M235.99,283.73c-6.32,4.29-10.03,8.65-13.94,8.84-2.77.14-8.77-6.42-8.15-8.12,1.42-3.95,5.56-8.48,9.42-9.43,2.64-.65,6.66,4.35,12.67,8.72Z"/>
      <path d="M405.46,416.62c-24.12-.19-41.69-18.03-41.48-42.14.24-27,24.76-51.15,52-51.2,24.4-.04,42.32,17.51,42.22,41.36-.12,28.1-24.57,52.2-52.74,51.98ZM406.31,396.55c15.85.35,31.39-14.72,31.73-30.77.28-13.25-9.06-22.51-22.61-22.4-15.37.13-30.51,14.55-31.18,29.68-.56,12.69,9.32,23.22,22.06,23.5Z"/>
      <path class="cls-1" d="M406.31,396.55c-12.74-.28-22.61-10.81-22.06-23.5.66-15.13,15.81-29.55,31.18-29.68,13.54-.11,22.89,9.15,22.61,22.4-.34,16.05-15.88,31.12-31.73,30.77Z"/>
    </g>
  </g>
</svg>