<?xml version="1.0" encoding="UTF-8"?>
<svg xmlns="http://www.w3.org/2000/svg" width="800" height="800" version="1.1" viewBox="0 0 800 800">
  <defs>
    <style>
      .cls-1 {
        fill: none;
        stroke: #000;
        stroke-miterlimit: 10;
        stroke-width: 24px;
      }
    </style>
  </defs>
  <!-- Generator: Adobe Illustrator 28.7.3, SVG Export Plug-In . SVG Version: 1.2.0 Build 164)  -->
  <g>
    <g id="Camada_1">
      <path class="cls-1" d="M466.38,125.52l29.71,91.44c8.07,24.83,31.2,41.64,57.31,41.64h96.15c58.37,0,82.64,74.7,35.42,109.01l-77.79,56.52c-21.12,15.34-29.96,42.54-21.89,67.37l29.71,91.44c18.04,55.52-45.5,101.68-92.73,67.37l-77.79-56.52c-21.12-15.34-49.72-15.34-70.84,0l-77.79,56.52c-47.22,34.31-110.76-11.85-92.73-67.37l29.71-91.44c8.07-24.83-.77-52.03-21.89-67.37l-77.79-56.52c-47.22-34.31-22.95-109.01,35.42-109.01h96.15c26.11,0,49.24-16.81,57.31-41.64l29.71-91.44c18.04-55.52,96.58-55.52,114.62,0Z"/>
    </g>
  </g>
</svg>