<?xml version="1.0" encoding="UTF-8"?>
<svg xmlns="http://www.w3.org/2000/svg" width="800" height="800" version="1.1" viewBox="0 0 800 800">
  <!-- Generator: Adobe Illustrator 28.7.3, SVG Export Plug-In . SVG Version: 1.2.0 Build 164)  -->
  <g>
    <g id="Camada_1">
      <path d="M356.38,441.76c-62.06,0-112.54-50.49-112.54-112.54s50.49-112.54,112.54-112.54,112.54,50.49,112.54,112.54-50.49,112.54-112.54,112.54ZM356.38,230.67c-54.34,0-98.54,44.21-98.54,98.54s44.21,98.54,98.54,98.54,98.54-44.21,98.54-98.54-44.21-98.54-98.54-98.54Z"/>
      <path d="M453.34,438.58c4.38-3.88,8.52-8.03,12.41-12.41l-12.41,12.41Z"/>
      <g>
        <path d="M443.71,428.41c4.2-3.7,8.16-7.66,11.86-11.86l-11.86,11.86Z"/>
        <path d="M607.06,542.62l-130.38-130.38c16.34-23.6,25.92-52.21,25.92-83.02,0-80.63-65.59-146.22-146.22-146.22s-146.22,65.59-146.22,146.22,65.6,146.22,146.22,146.22c21.74,0,42.37-4.77,60.93-13.31l135.12,135.13c3.2,3.2,7.41,4.8,11.62,4.8s8.42-1.6,11.62-4.8l31.39-31.39c6.41-6.41,6.41-16.84,0-23.25ZM224.16,329.22c0-72.91,59.32-132.22,132.22-132.22s132.22,59.31,132.22,132.22c0,33.44-12.48,64.02-33.03,87.33-3.7,4.2-7.66,8.16-11.86,11.86-23.31,20.55-53.88,33.03-87.33,33.03-72.9,0-132.22-59.32-132.22-132.22ZM597.16,555.96l-31.39,31.4c-.95.95-2.49.95-3.44,0l-128.88-128.89,32.3-32.3,2.53-2.53,128.88,128.89c.95.94.95,2.49,0,3.43Z"/>
      </g>
    </g>
  </g>
</svg>