<?xml version="1.0" encoding="UTF-8"?>
<svg xmlns="http://www.w3.org/2000/svg" width="800" height="800" version="1.1" viewBox="0 0 800 800">
  <defs>
    <style>
      .cls-1 {
        fill: #fff;
      }
    </style>
  </defs>
  <!-- Generator: Adobe Illustrator 28.7.3, SVG Export Plug-In . SVG Version: 1.2.0 Build 164)  -->
  <g>
    <g id="Camada_1">
      <g>
        <path d="M249.72,103.41c12.03-6.25,23.67-12.3,35.68-18.53-1.04-2.58-2.1-5.51-3.44-8.3-.4-.83-1.53-1.65-2.45-1.83-17.62-3.47-21.13-23.56-12.84-34.88,8.66-11.83,29.76-14.61,39.18,1.58,3.82,6.56,3.26,13.26.49,19.81-1.04,2.46-1.12,4.21.38,6.24.5.68.79,1.52,1.17,2.29,4.74,9.5,5.27,9.69,15.72,5.59-2.78-6.64-5.01-13.75,1.87-19.03,6.78-5.2,12.24.57,18.22,3.92.35-2.41.67-4.49.96-6.58.67-4.76,2.38-6.82,7.06-5.99,4.15.74,8.61,2.4,11.85,5.01,6.5,5.23,10.23,12.66,12.7,20.55.72,2.28,1.66,3.28,3.98,3.59,2.82.38,5.57,1.2,8.48,1.86,2.24-4.46,4.57-8.84,6.58-13.36.38-.87-.4-2.37-.86-3.48-3.93-9.35-2.22-19.46,4.42-25.89,5.91-5.72,17.2-7.46,24.95-3.85,13.46,6.27,18.33,24.25,9.21,35.62-2.34,2.93-6.1,5.51-9.67,6.44-3.68.96-5.04,2.59-5.98,5.86-1.69,5.9-1.77,5.71,3.53,8.33,9.59,4.75,19.09,9.69,29.09,14.79,2.84-3.75,6.14-8.19,9.53-12.57,14.18-18.35,32.55-30.25,55.49-33.79,22.03-3.39,40.63,4.24,48.56,24.78,7.45,19.29,3.34,37.41-10.9,52.51-14.09,14.94-32.06,21.5-52.38,22.09-2.28.07-4.56,0-7.78,0,1.56,3.21,3.02,5.73,4.06,8.41,11.07,28.55,14.25,57.75,6.1,87.57-7.17,26.26-22.03,47.29-44.59,62.74-14.07,9.63-29.36,16.59-45.79,21.12-.99.27-2.23,1.8-2.33,2.83-1.15,12.92-8.04,21.68-19.48,27.24,13.62,11.75,10.98,24.53.51,33.68,3.87,3.96,9.13,7.34,11.25,12.11,2.02,4.57.76,10.58.98,16.85,10.86-2.67,22.68-5.27,34.32-8.5,18.25-5.07,36.75-8.55,55.56-5.17,10.15,1.82,19.84,6.18,29.81,9.15,2.42.72,5.34,1.23,7.68.58,16.98-4.72,29.17-14.76,34.58-32.08.89-2.84,2.17-5.55,3.28-8.34-12.64-8.94-17.73-21.17-15.52-35.91,2.3-15.3,11.28-25.99,25.44-32.22,3.66-1.61,7.54-2.74,11.21-4.33,5.3-2.29,6.02-3.8,5.1-9.31-1-6,2.31-9.02,7.92-6.48,3.64,1.65,7.45,4.18,9.72,7.36,14.56,20.36,17.1,42.21,5.63,64.73-6.16,12.09-16.61,19.04-31.18,20.37.5,27.27-10.92,48.98-31.46,64.86,3.55,9.08,7.64,17.45,10.08,26.27,4.46,16.14,4.02,32.65.65,48.96-1.94,9.36-4.52,18.6-7.24,27.77-1.31,4.41-1.9,7.87,1.09,12.24,16.45,24.06,26.05,51.1,33.33,79.09,2.12,8.16,4.58,16.25,7.13,24.29,2.42,7.65.82,14.35-4.88,19.67-14.91,13.92-32.49,20.51-53.04,18.15-4.98-.57-8.3-3.44-10.43-7.93-2.69-5.64-5.54-11.2-8.75-17.65-1.82,7.66-3.27,14.4-5.02,21.05-3.96,15.1-9.58,19.86-25.21,21.9-14.63,1.91-28.86,1.2-42.29-5.75-7.61-3.94-12.71-9.35-11.4-19.34-2.19,0-4.11-.05-6.02,0-12.15.36-23.57-2.02-34.06-8.51-10.64-6.58-13.34-12.43-10.05-24.39,3.95-14.34,8.25-28.58,12.34-42.88.7-2.45,1.09-4.98,1.66-7.69-7.83-.73-15.3-1.43-23.12-2.16-.34,5.04-.59,10.26-1.05,15.46-1.7,19.4-3.06,38.84-5.38,58.17-1.05,8.73-3.62,17.39-6.45,25.76-1.16,3.45-4.25,7.51-7.45,8.79-19.71,7.89-39.4,7.92-58.2-2.98-8.87-5.14-12.08-12.88-10.11-23.34,4.67-24.85,6.5-49.98,5.71-75.28-.02-.53-.1-1.06-.25-2.51-2.47,3.83-4.26,7.16-6.57,10.09-11.88,15.05-23.88,30.01-35.86,44.98-2.8,3.5-6.62,4.82-10.97,4.99-20.31.81-45.43-15.24-53.38-34.04-2.07-4.89-1.72-9.64.84-14.04,5.82-10.02,11.42-20.23,18-29.74,11.15-16.13,23.07-31.73,34.5-47.66,4.5-6.27,8.66-12.8,12.76-19.35.78-1.24,1.13-3.36.65-4.7-7.89-21.98-9.73-44.72-8.38-67.78,1.78-30.33,7.59-59.93,17.88-88.54,3.96-11.02,8.9-21.7,13.42-32.52,1.04-2.49,2.17-4.94,3.27-7.43-90.16-29.11-109.68-110.44-77.79-177.32-6.82-1.04-13.7-1.8-20.45-3.18-17.72-3.64-31.95-12.88-42.74-27.42-12.98-17.48-11.9-44.2,2.38-58.76,6.72-6.85,15.23-10.26,24.4-11.66,15.28-2.33,29.59,1.11,42.95,8.73,15.84,9.04,27.44,22.32,37.33,37.31.31.47.64.93.59.86ZM420.18,99.19c-4.43-2.75-8.2-6.1-12.59-7.6-8.35-2.85-17.05-4.68-25.63-6.85-2.74-.69-4.66.26-5.6,3.14-1.37,4.17-3.32,8.19-4.32,12.44-3.62,15.47-13.54,24.56-29.31,26.4-10.88,1.27-17.09-5.45-14.7-15.91.12-.53.13-1.09.21-1.79-7.64-.81-15.93-.77-19.28-9.37-2.55-6.52,2.74-10.08,7.68-14.01-1.47,0-2.16-.13-2.77.02-20.87,5.14-40.7,12.91-58.33,25.31-30.2,21.24-48.04,50.42-54.27,86.79-4.18,24.42-1.97,48.1,9.53,70.2,17.95,34.51,48.44,52.9,84.87,61.58,25.99,6.19,52.68,7.13,79.48,4.69,27.61-2.51,53.21-9.89,76.53-25.46,34.4-22.97,47.46-56.31,46.9-95.82-.32-22.48-7.37-43.57-18.64-63.24-13.75-23.99-33.31-41.17-58.6-52.05-.63.81-1.15,1.5-1.17,1.52ZM306.5,628.83c7.88-9.73,13.59-11.69,22.16-8.06,8.27,3.5,11.91,9.3,10.92,17.4-.77,6.35-5.72,11.01-13.24,11.99-4.96.64-10.24.24-13.55-3.71-2.91-3.47-4.47-8.07-6.49-11.91-.02.17-.16.85-.2,1.54-.87,14.15-1.79,28.3-2.46,42.46-.06,1.25,1.28,3.18,2.47,3.78,18.56,9.29,37.73,10.92,57.37,3.82,1.26-.46,2.59-2.53,2.74-3.97,1.1-10.54,2.26-21.09,2.73-31.67,1.06-24.03,1.77-48.07,2.56-72.11.21-6.3.12-12.61.36-18.9.05-1.39.95-2.75,1.46-4.13,1.15,1.28,2.83,2.39,3.32,3.88.91,2.77,1.12,5.77,1.68,9.06,1.12-.62,1.9-.94,2.55-1.43,12.22-9.19,25.92-13.12,41.15-11.75,16.43,1.48,28.94,8.91,36.98,23.67,7.28,13.37,7.24,27.86,6.39,42.25-1.08,18.41-7,35.93-11.96,53.56-.95,3.37-.16,4.76,2.45,6.06,17.21,8.61,34.99,11.24,53.7,5.49,3.09-.95,4.72-2.34,5.28-5.65,3.91-23,8.28-45.93,11.89-68.97,1.49-9.47,3.46-18.43,8.81-26.6,13.16-20.12,20.67-42.34,23.64-66.14,2.28-18.28,1.07-36.16-7.65-52.73-13.05-24.82-33.85-39.14-61.51-43.03-7.16-1-14.58-.15-22.36-.15,8.86,10.11,10.27,19.19,4.42,28.19-5.15,7.92-13.45,10.91-22.1,12.72-15.78,3.31-30.07-6.9-32.5-22.83-.32-2.08-.69-4.16-1.06-6.37-6.68.75-13.02,1.46-20.58,2.31,1.01,3.43,1.05,7.11,2.9,8.88,1.87,1.78,5.54,1.65,8.94,2.49-4.06,2.26-7.72,3.42-11.39.98-3.83-2.54-5.39-6.45-4.36-10.86.78-3.36-.55-4.26-3.38-5.42-12.24-4.99-21.52-12.81-24.38-26.61-.38-1.82-2.31-4.34-3.92-4.7-7.36-1.61-14.57-.8-20.9,3.78-6.8,4.91-8,13.47-2.85,19.55,4.09,4.83,10.92,5.73,17.08,1.34,4.24-3.02,7.68-7.15,12.01-11.29-.27,2.17-.05,4.33-.85,5.99-1.35,2.81-3.07,5.54-5.12,7.89-4.82,5.53-13.94,7.65-20.5,5.13-6.74-2.59-11.39-9.63-11.38-17.22.02-9.34,6.64-18.01,16.6-19.74,6.4-1.11,13.15-.21,20.18-.21-1.91-18.69,3.21-36.61,7.14-54.72-27.21,3.57-53.39-.31-80.71-4.71-4.81,11.41-10.21,22.91-14.57,34.8-13.13,35.77-20.93,72.59-19.43,110.93,1.27,32.42,9.98,62.35,30.79,87.99,1.8,2.22,3.71,4.35,5.56,6.52.23-5.41-.65-10.33-1.09-15.29-.13-1.52.98-3.14,1.52-4.71,1.18,1.19,2.82,2.18,3.47,3.61,6.05,13.34,6.24,27.81,7.71,42.01.85,8.22,1.03,16.51,1.56,25.53ZM260.97,545.02c-4.57,6.43-9.1,12.86-13.68,19.25-11.07,15.47-22.22,30.89-33.15,46.46-1.03,1.47-1.71,4.33-.98,5.72,9.97,19.09,25.56,30.84,46.82,34.72,1.49.27,3.93-.73,4.87-1.95,9.76-12.73,19.29-25.64,28.92-38.48,1.89-2.52,2.86-17.78,1.18-20.3-.23-.35-.63-.57-.92-.89-5.78-6.52-12.06-12.67-17.21-19.66-5.81-7.89-10.61-16.53-15.86-24.87ZM551.68,573.35c.18-.15-.24.05-.45.38-9.42,15.38-17.86,31.11-17.64,49.9,0,.71-.2,1.42-.31,2.13-2.13,14.16-4.37,28.3-6.32,42.48-.82,5.93.29,6.82,6.23,6.68,19.1-.46,36.2-6.59,51.35-18.14.89-.68,1.51-2.78,1.16-3.86-9.08-27.5-14.67-56.49-34.03-79.57ZM409.44,610.93c14.99-.06,29.41-2.68,43.34-8.02,2.28-.87,5.02-1.4,4.37-5.16-3.25-18.55-15.64-32.57-33.27-35.48-15.2-2.51-28.91,1.56-41.16,10.84-2.98,2.25-3.77,5.03-3.54,8.62.47,7.28.88,14.58.78,21.87-.05,3.44,1.23,4.57,4.29,4.85,8.4.78,16.79,1.65,25.19,2.49ZM234.3,117.76c2.08-1.94,4.25-4.22,6.68-6.18,2.17-1.74,2.16-3.48.74-5.52-2.46-3.52-4.71-7.22-7.46-10.49-14.26-17-31.13-29.5-54.28-31.09-20.49-1.41-36.66,10.82-38.22,29.3-1.3,15.4,4.3,28.12,15.95,38.05,13.16,11.2,28.55,16.48,45.84,16.65,4.71.05,8.82.09,10.19-5.62.26-1.07,1.35-1.93,2.3-3.22-2.83-.27-5.24-.52-7.65-.73-15.91-1.36-30.71-5.54-42.6-16.96-4.85-4.66-8.33-10.13-9.64-16.87-3.45-17.81,6.96-26.69,23.59-26.01,14.56.59,25.5,8.73,35.45,18.23,6.71,6.41,12.71,13.56,19.12,20.47ZM483.63,139.76c.95,1.95,1.78,4.44,3.27,6.43.99,1.32,2.96,2.8,4.43,2.74,10.3-.46,20.6-1.33,30.34-5.09,14.27-5.52,26.72-13.39,33.04-28.14,5.23-12.2,6.03-24.57-1.64-36.12-8.95-13.49-22.26-16.34-37.38-14.3-13.84,1.86-25.35,8.61-36.07,16.95-9.43,7.33-16.68,16.66-23.39,26.22,3.18,3.13,6.1,5.99,9.23,9.08.87-.92,1.81-1.95,2.8-2.94,7.58-7.59,14.75-15.65,22.85-22.63,10.63-9.15,23.01-14.41,37.54-12.46,8.05,1.08,13.67,6.06,15.54,13.94,1.88,7.96.31,15.39-4.24,22.09-7.2,10.6-17.65,16.73-29.74,19.73-8.66,2.15-17.64,3.04-26.58,4.5ZM603.69,307.27c-.36.9-.68,1.51-.85,2.17-1.49,5.88-4.71,9.34-11.04,10.98-6.12,1.58-12.11,4.5-17.51,7.87-10.84,6.78-16.08,21.22-12.71,33.51,1.32,4.82,3.78,9.07,8.95,12.43-1-3.42-1.66-6.02-2.52-8.55-2.43-7.14-1.74-14.12,2.53-20.12,6.83-9.58,13.58-19.5,26.75-23.51-1.76,2.23-2.86,4.21-4.48,5.54-2.08,1.71-4.48,3.11-6.92,4.26-3.41,1.61-5.98,3.75-7.18,7.47-.57,1.74-1.51,3.43-2.58,4.93-7.57,10.66-4.32,21.25.24,31.77.48,1.1,2.04,2.1,3.25,2.34.59.11,1.83-1.53,2.29-2.58,1.77-4.05,4.06-7.49,8.62-9.12,1.22,1.37,2.39,2.69,3.64,4.08-2.85,2.77-7.58,3.56-7.76,8.71.87-.09,1.43-.09,1.95-.2,14.62-3.07,25.28-15.11,27.3-30.03,2.13-15.7-.51-29.85-11.98-41.95ZM413.22,618.81c-3.02,10.08-5.59,19.74-8.87,29.17-1.51,4.35-.58,6.56,3.11,9.09,10.94,7.52,22.88,10.72,36.06,9.92,2.69-.16,4.12-.99,4.72-3.77,1.99-9.21,4.54-18.32,6.22-27.59,1.49-8.2,2.11-16.56,3.28-26.21-15.03,7.04-29.82,8.22-44.51,9.39ZM471.43,122.07c3.15,10,10.1,10.91,19.23,9.23,11.73-2.16,23.47-3.81,33.8-10.32,8.24-5.2,13.64-12.22,13.49-22.43-.1-6.46-3.73-10.41-10.04-11.4-8.3-1.3-16.21.44-22.99,4.96-7.45,4.97-14.41,10.74-21.13,16.68-4.58,4.04-8.38,8.96-12.35,13.28ZM217.59,131.99c2.25.33,5.19.11,6.38-3.88.3-1.01,1.23-1.97,2.12-2.65,2.28-1.75,2.13-3.44.25-5.32-7.56-7.58-14.66-15.69-22.77-22.62-8.42-7.19-18.35-11.64-29.97-10.28-7.69.9-12.05,5.27-11.18,12.79.51,4.45,2.07,9.56,4.95,12.76,4.29,4.75,9.75,8.88,15.45,11.82,10.44,5.39,22.06,6.7,34.77,7.38ZM356.36,76.32c-.53.25-1.06.51-1.6.76-1.04-.67-2.09-1.32-3.11-2.03-4.59-3.17-9-6.64-13.83-9.39-1.88-1.07-4.69-.5-7.08-.68.19,2.43-.43,5.41.76,7.17,2,2.95,5.11,5.17,7.83,7.62,1.66,1.5,3.44,2.85,5.96,4.91-10.31,4.39-21.6,3.05-29.43,12.76,3.75,1.41,6.62,3.04,9.67,3.53,7.83,1.26,14.63-1.28,20.55-6.53,1.28-1.14,3.14-1.63,4.73-2.41.36.36.72.73,1.08,1.09-.66,1.78-.96,3.83-2.05,5.29-3.41,4.54-7.24,8.76-10.66,13.3-1.09,1.45-1.39,3.49-2.05,5.26,1.75.38,3.49.88,5.27,1.1.79.1,1.68-.29,2.48-.58,7.77-2.78,14.41-7.03,18.33-14.61,1.59-3.07,2.94-6.16,6.83-7.15.72-.18,1.43-2.05,1.43-3.14,0-11.23-3.41-21.41-10.11-30.38-1.98-2.65-5.06-6.46-8.25-4.35-2.99,1.98-1.01,6.17.43,9.43,1.26,2.87,1.92,6,2.85,9.01ZM301.71,688.48c-.56,4.57-1.09,9.08-1.69,13.59-.98,7.41-.17,9.18,6.47,12.6,15.6,8.04,31.82,8.33,48.35,3.47,1.53-.45,3.63-1.57,4.02-2.82,2.18-7.15,3.92-14.43,5.88-21.95-22.2,7.8-42.82,5.37-63.03-4.88ZM450.65,686.24c-1.01,6.49-1.88,12.42-2.88,18.34-.55,3.26.57,5.47,3.51,6.98,16.91,8.71,34.28,10.25,52.16,3.32,1.33-.52,2.95-1.72,3.36-2.96,1.94-5.91,3.5-11.94,5.34-18.45-21.61,5.9-41.95,4.46-61.49-7.23ZM207.03,620.48c-3.17,6.64-6.11,12.47-8.71,18.46-.59,1.35-.55,3.54.16,4.79,9.63,16.75,23.71,26.82,43.37,28.07,1.59.1,3.69-.24,4.77-1.23,3.93-3.63,7.53-7.62,11.53-11.76-22.79-5.17-39.46-17.31-51.12-38.33ZM532.32,682.35c3.09,5.86,5.68,11.25,8.78,16.33.84,1.38,3.2,2.5,4.92,2.58,17.07.86,31.71-4.91,43.78-16.96,1.23-1.23,2.25-3.56,2.03-5.2-.73-5.44-2.06-10.8-3.23-16.52-16.47,13.63-35.24,18.92-56.28,19.78ZM443.24,458.06c7.4.12,17.51-4.06,22.48-9.3,3.93-4.14,4.92-10.16,2.47-15.1-2.86-5.77-8.41-9.33-14.11-8.16-8.81,1.82-17.53,4.07-26.2,6.46-1.35.37-2.91,2.33-3.21,3.79-2.45,12.08,5.99,22.1,18.56,22.3ZM400.1,660.42c-1.17,5.6-2.57,10.72-3.15,15.93-.23,2.01.8,4.9,2.28,6.23,11.01,9.89,24.59,11.23,38.56,10.68,1.01-.04,2.51-1.43,2.85-2.49,1.68-5.25,3.05-10.59,4.53-15.91-30.11-.75-31.13-5.74-45.08-14.44ZM549.04,446.9c20-13.6,29.52-32.53,29.2-56.48-.02-1.31-1.42-2.6-2.77-4.92-5.2,24.65-18.05,40.64-41.53,47.19,2.86,2.37,5.58,4.4,8.04,6.72,2.47,2.33,4.68,4.94,7.06,7.48ZM286.58,38.94c-8.76-.18-15.37,6.01-15.68,14.7-.24,6.78,5.9,12.88,13.2,13.12,7.94.26,15.51-6.42,15.71-13.84.22-8.52-4.78-13.8-13.22-13.97ZM414.41,39.07c-7.86.02-13.46,4.92-13.56,11.86-.11,8.37,7.26,15.56,16.08,15.68,7.23.1,12.03-4.99,11.97-12.7-.06-8.41-6.36-14.86-14.49-14.83ZM374.12,368.26c-.6,9.81-1.19,19.49-1.79,29.4,10.63-1.25,17.82-6.83,18.18-13.27.38-6.81-6.83-14.27-16.39-16.13ZM375.89,360.33c14.35.2,25.15-10.11,24.14-21.41-6.38,1.11-12.76,2.23-19.11,3.34-1.65,5.93-3.28,11.79-5.03,18.06ZM323.59,644.62c6.11-.02,10.54-4.39,10.36-10.22-.15-4.75-6.5-9.58-12.58-9.55-4.23.02-8.6,4.72-8.48,9.12.16,6.01,4.84,10.66,10.7,10.64ZM373.27,405.53c1.19,9.09,7.28,14.02,13.74,18.56,1.49,1.05,4.42,2.24,5.25,1.58,1.56-1.25,2.74-3.78,2.84-5.83.1-2.06-.69-4.91-2.16-6.16-5.5-4.68-11.92-7.61-19.67-8.15ZM406.9,83.63c1.3-3.74,2.49-7.15,3.56-10.24-2.91-1.13-5.49-2.14-8.18-3.19-1.63,3.27-3.25,6.52-5.02,10.05,3.2,1.12,6.11,2.14,9.64,3.37ZM303.42,80.13c-1.93-3.54-3.61-6.64-5.35-9.82-2.56,1.38-4.9,2.63-7.51,4.04,1.04,3.17,2.07,6.35,3.08,9.45,3.46-1.3,6.37-2.39,9.78-3.67Z"/>
        <path d="M388.98,756.47c1.93.25,4.09.1,5.82.89,1.41.64,3.19,2.38,3.21,3.66.02,1.34-1.78,3.8-2.92,3.88-4.17.3-8.44.09-12.57-.56-1.18-.19-2.89-2.68-2.74-3.91.16-1.24,2.16-2.63,3.65-3.23,1.65-.67,3.63-.52,5.54-.73Z"/>
        <path d="M458.8,763.24c-.57,0-1.15.02-1.72,0-2.69-.11-5.5-.47-5.76-3.8-.28-3.6,2.51-4.42,5.4-4.7,2.84-.27,5.7-.61,8.55-.6,2.47.01,4.98,1.18,4.61,3.88-.22,1.58-2.26,3.43-3.93,4.17-2.14.95-4.73.9-7.12,1.28-.01-.08-.02-.15-.04-.23Z"/>
        <path d="M533.92,741.44c1.28,1.33,3.23,2.56,3.76,4.24.3.93-1.5,3.31-2.83,3.83-3.54,1.39-7.3,2.49-11.05,2.91-1.33.15-3.44-1.72-4.18-3.19-.46-.91.63-3.67,1.63-4.07,3.81-1.5,7.86-2.38,12.67-3.73Z"/>
        <path d="M555.25,744.11c-1.77-1.74-3.69-2.79-4-4.19-.3-1.36.62-3.8,1.77-4.5,3.12-1.9,6.57-3.39,10.07-4.45,1.11-.34,3.37.84,4.04,1.96.66,1.09.55,3.85-.25,4.4-3.54,2.47-7.44,4.41-11.63,6.78Z"/>
        <path d="M246.2,745.41c-3.87-2.08-7.45-3.74-10.69-5.92-.82-.56-1.22-3.34-.6-4.09,1.11-1.34,3.4-2.93,4.76-2.6,3.24.78,6.43,2.31,9.23,4.16,1.13.75,1.9,3.32,1.52,4.71-.36,1.34-2.41,2.23-4.23,3.75Z"/>
        <path d="M424.74,756.84c1.1.1,3.07-.07,4.73.57,1.22.48,2.82,2.02,2.82,3.1,0,1.35-1.28,3.73-2.29,3.89-3.99.61-8.11.87-12.11.48-1.25-.12-2.99-2.64-3.11-4.18-.08-.99,2.2-2.6,3.71-3.19,1.66-.65,3.65-.44,6.24-.67Z"/>
        <path d="M489.15,759.47c-1.02-1.08-3.01-2.3-3.59-3.99-.87-2.54,1.15-3.81,3.52-4.27,2.66-.51,5.31-1.07,7.98-1.48,2.66-.41,4.98.2,5.66,3.18.7,3.11-1.85,3.95-3.97,4.59-2.7.82-5.55,1.17-9.6,1.98Z"/>
        <path d="M218.82,731.54c-3.01-1.73-5.95-2.94-8.22-4.92-1.06-.92-1.65-3.9-.95-4.93.93-1.37,3.81-2.85,4.99-2.33,3.02,1.34,5.7,3.6,8.18,5.86.62.56.41,2.8-.21,3.76-.71,1.09-2.3,1.61-3.79,2.56Z"/>
        <path d="M275.72,754.14c-3.76-1.91-6.9-3.17-9.61-5.06-1.02-.71-1.73-3.23-1.24-4.33.48-1.09,2.77-2.13,4.07-1.93,2.9.45,5.87,1.33,8.43,2.74,1.36.74,2.85,3.13,2.59,4.44-.3,1.47-2.5,2.56-4.25,4.16Z"/>
        <path d="M584.49,730.18c-1.9-1.58-3.39-2.25-3.81-3.34-.42-1.08-.25-3.15.5-3.78,2.68-2.27,5.61-4.29,8.68-5.99.83-.46,3.04.17,3.62,1,.84,1.2,1.55,3.89.94,4.46-3,2.78-6.47,5.07-9.93,7.66Z"/>
        <path d="M356.94,764.28c-1.25-.27-3.63-.42-5.64-1.35-1.35-.62-3.21-2.59-3-3.54.31-1.39,2.17-3.25,3.56-3.42,2.89-.37,6.05-.23,8.82.62,1.54.47,2.52,2.77,3.75,4.24-1.59,1.15-3.14,2.36-4.79,3.42-.4.26-1.12.04-2.71.04Z"/>
        <path d="M299.2,748.55c3.35,1.13,5.85,1.53,7.8,2.79,1.27.81,2.77,3.36,2.34,4.24-.71,1.45-2.79,2.73-4.49,3.07-1.84.36-3.95-.28-5.87-.77-2.56-.65-5.53-1.88-4.67-4.92.52-1.85,3.29-3.06,4.88-4.41Z"/>
        <path d="M194.45,700.94c2.4,2.67,4.76,4.94,6.53,7.59.31.47-1.62,3.42-2.87,3.71-1.6.37-4.32-.24-5.18-1.42-1.35-1.87-1.78-4.54-2.1-6.94-.08-.6,1.72-1.45,3.62-2.94Z"/>
        <path d="M612.86,690.05c.58-2.45-.73-6.09,3.8-6.17,3.42-.06,4.49,2.09,4.24,4.99-.25,2.88-.19,6.36-4.4,6.48-3.6.1-4-2.4-3.63-5.3Z"/>
        <path d="M614.58,707.56c-2.41,1.92-4.82,3.84-7.22,5.76-1.29-1.65-3.97-4.36-3.65-4.77,1.66-2.15,3.88-4.1,6.32-5.28.84-.41,2.85,1.58,4.33,2.47.07.61.15,1.21.22,1.82Z"/>
        <path d="M195.45,691.16c-1.5,1.12-2.86,2.84-4.54,3.22-2.67.62-4.76-.61-4.66-3.85.08-2.7.51-5.32,4-5.36,3.21-.03,4.44,2,5.2,5.98Z"/>
        <path d="M615.79,677.25c-1.75-2.07-3.56-3.29-3.57-4.54-.01-1.05,2.19-3.08,3.18-2.95,1.39.18,3.05,1.77,3.62,3.16.28.68-1.62,2.26-3.23,4.33Z"/>
        <path d="M192.17,672.16c1.65,2.26,3.09,3.45,3.3,4.83.11.74-2.1,2.7-2.9,2.52-1.43-.34-3.01-1.66-3.65-3-.28-.59,1.58-2.21,3.24-4.35Z"/>
        <path d="M332.8,758.72c-2.81.18-5.61.47-8.42.44-.6,0-1.19-1.2-1.79-1.84.92-.7,1.93-2.09,2.73-1.97,2.59.37,5.11,1.3,7.66,2.01-.06.45-.12.91-.18,1.36Z"/>
        <path class="cls-1" d="M420.18,99.19s.54-.71,1.17-1.52c25.29,10.87,44.85,28.06,58.6,52.05,11.27,19.66,18.32,40.76,18.64,63.24.56,39.5-12.5,72.84-46.9,95.82-23.32,15.57-48.92,22.95-76.53,25.46-26.8,2.44-53.49,1.5-79.48-4.69-36.43-8.67-66.92-27.06-84.87-61.58-11.5-22.1-13.71-45.79-9.53-70.2,6.23-36.36,24.07-65.55,54.27-86.79,17.63-12.4,37.46-20.17,58.33-25.31.62-.15,1.31-.02,2.77-.02-4.94,3.93-10.22,7.49-7.68,14.01,3.35,8.59,11.65,8.56,19.28,9.37-.08.7-.09,1.26-.21,1.79-2.39,10.46,3.82,17.18,14.7,15.91,15.77-1.84,25.69-10.93,29.31-26.4.99-4.25,2.95-8.27,4.32-12.44.94-2.88,2.86-3.83,5.6-3.14,8.58,2.17,17.28,4,25.63,6.85,4.39,1.5,8.15,4.85,12.59,7.6ZM223,224.49c.09,1.22.19,2.76.3,4.31.99,14.06,13.01,26.25,26.63,27.01,15.25.85,27.33-7.29,31.86-21.47,4.03-12.6-2.08-28.53-13.78-35.96-11.02-6.99-29.25-4.72-36.76,4.58-3.48,4.31-4.05,4.45-8.56,1.32-1.39-.96-2.38-2.52-3.8-3.4-1.28-.79-3.89-1.78-4.18-1.39-1.05,1.42-2.18,3.59-1.78,5.07.5,1.85,2.24,3.63,3.89,4.84,2.23,1.65,4.87,2.73,7.56,4.18-.57,1.57-1.09,2.96-1.76,4.81-4.2-1.28-7.95-2.68-11.83-3.48-1.45-.3-4,.37-4.56,1.4-.57,1.05.36,3.32,1.25,4.63.71,1.05,2.28,1.88,3.59,2.11,3.74.65,7.54.93,11.93,1.43ZM474.34,213.06c1.66-.69,3.35-.98,4.44-1.94,2.49-2.18,4.99-4.49,6.83-7.19.6-.88-.84-3.15-1.34-4.79-1.34.46-2.78.74-3.99,1.43-1.09.62-1.92,1.71-2.9,2.54-5.54,4.67-5.7,4.72-10.69-.5-7.59-7.93-16.77-10.13-27.09-7.27-16.32,4.52-25.64,21.06-21.45,37.7,3.08,12.24,10.66,20.13,23.17,22.54,11.41,2.19,23.35-3.29,29.5-14.06,3.08-5.4,4.58-11.71,7.03-18.23.47.05,2.19.59,3.78.32,3-.52,6.19-1.05,8.77-2.5,1.29-.73,1.4-3.52,2.05-5.38-1.66-.37-3.38-1.19-4.97-.99-2.37.3-4.63,1.37-6.96,2.03-2.93.83-5.03-.01-6.16-3.7ZM334.87,327.6c-3.29-1.28-5.46-2.2-7.68-2.97-4.6-1.58-9.32-2.86-13.83-4.65-18.52-7.36-28.22-21.1-27.16-39.43.92-15.94,9.54-27.48,23.19-34.88,24-13,48.92-13.97,74.02-3.4,11.57,4.87,21.12,12.42,27.18,23.91,6.9,13.09,6.05,30.2-3.32,40.33-8.59,9.28-19.03,15.91-31.85,18.19-4.12.73-8.12,2.1-12.18,3.17.05.41.1.82.15,1.24.88.27,1.75.75,2.64.78,16.69.6,31.47-3.57,43.95-15.57,10.13-9.73,13.59-21.45,12.24-34.68-1.88-18.48-11.94-32.23-27.98-40.8-27.03-14.45-55.05-15.05-83.12-2.89-17.78,7.7-29.42,21.06-31.93,40.57-4.02,31.26,19.77,53.71,51.66,52.12.93-.05,1.84-.46,4.02-1.04ZM352.17,303.33c2.21-.5,5.61-1.03,8.84-2.06,6.29-2,10.82-6.29,14.12-11.89,1.53-2.59-.01-6.31-2.92-7.43-3.3-1.26-3.45,1.04-3.78,3.3-.12.8-.58,1.67-1.14,2.28-4.82,5.3-10.93,8.04-17.99,7.33-6.87-.69-13.18-2.88-15.67-10.56-.95-2.92-3.51-3.39-4.88-.77-.95,1.81-1.31,4.87-.4,6.55,4.78,8.87,12.9,12.48,23.83,13.25ZM400.58,113.95c-8.87.08-14.97,4.97-15.36,12.32-.34,6.32,4.37,11.3,11.76,12.45,8.35,1.3,16.85-4.1,17.27-10.97.47-7.66-5.68-13.87-13.66-13.8ZM384.31,255.76c-4.52-.05-10.32,5.72-9.35,11.75.33,2.03,2.38,3.78,3.64,5.65,1.19-1.33,2.39-2.65,3.56-4,.18-.2.16-.58.35-.77.85-.85,1.83-2.41,2.59-2.32,1.14.14,2.29,1.32,3.14,2.31.61.7.61,1.89,1.1,2.74.59,1.01,1.48,2.7,2.13,2.65,1.21-.09,2.69-.97,3.43-1.99,2.52-3.48,1.28-7.08-.35-10.47-1.65-3.44-4.33-5.58-10.24-5.54ZM311.49,275.49c.56-2.92.77-4.58,1.22-6.18.36-1.3.9-3.49,1.56-3.57,1.33-.16,2.94.64,4.17,1.45,1.03.67,1.62,1.99,2.54,2.87.85.81,2.33,2.21,2.78,1.96,1.11-.6,2.19-1.87,2.57-3.1,1.25-4.02-1.7-9.78-6.03-12.3-3.45-2.02-7.98-1.41-11.09,1.49-3.38,3.15-4.91,8.97-2.85,12.53.95,1.64,2.83,2.74,5.12,4.84ZM447.35,155.96c-.98.22-2.94.15-4.21,1.06-1.42,1.02-2.21,2.92-3.27,4.44,1.41.85,2.74,2.27,4.23,2.45,5.76.7,10.76,2.43,14.51,7.26,2.27,2.92,4.71,2.34,5.74-1.29.41-1.44.13-3.49-.66-4.77-3.54-5.74-8.77-8.85-16.34-9.15ZM238.05,172.81c4.25-5.11,9.11-8.99,16.18-9.16,1.73-.04,3.43-1.64,5.14-2.52-1.47-1.71-2.61-4.24-4.47-4.98-6.83-2.72-17.36,2.55-19.85,9.45-1.14,3.14-.48,5.51,3.01,7.21ZM402.32,99.62c.18-4.63-4.25-8.51-9.79-8.59-5.09-.07-10.63,3.98-10.8,7.9-.22,5.15,3.72,9.51,8.77,9.72,6.81.29,11.61-3.38,11.82-9.03ZM450.41,286.79c1.29,0,2.59.14,3.86-.02,6.68-.86,11.32-8.6,8.44-13.97-4.71-8.77-20.38-9.75-25.51-1.27-1.29,2.12-1.39,5.99-.35,8.29,2.49,5.54,7.79,7.09,13.56,6.98ZM252.46,286.82s0-.06,0-.08c1,0,2.01.12,2.99-.02,5.34-.77,9.99-5.33,10.25-9.97.25-4.51-3.63-9.3-8.58-10.34-1.65-.35-3.41-.32-5.1-.23-5.85.31-12.49,6.68-12.33,11.73.15,4.71,5.79,8.78,12.35,8.91.14,0,.28,0,.43,0ZM432.8,133.64c3.96.12,7.92-3.96,8.14-8.39.21-4.29-4.16-8.46-9.01-8.58-4.82-.13-7.84,2.57-7.89,7.06-.06,5.15,4.02,9.77,8.75,9.92ZM463.18,266.58c.03,4.52,2.65,7.53,6.34,7.29,3.16-.2,5.52-1.65,5.7-5.17.21-4.02-3.14-6.94-7.52-6.98-3.65-.03-4.8,1.89-4.53,4.86ZM232.19,274.75c2.8.12,7.18-3.5,7.39-6.11.24-2.98-2.35-5.87-5.35-5.96-3.11-.09-7.19,3.44-7.44,6.45-.22,2.56,2.61,5.5,5.4,5.62Z"/>
        <path class="cls-1" d="M306.5,628.83c-.53-9.02-.71-17.31-1.56-25.53-1.47-14.19-1.66-28.67-7.71-42.01-.65-1.43-2.29-2.42-3.47-3.61-.54,1.57-1.65,3.2-1.52,4.71.43,4.96,1.31,9.88,1.09,15.29-1.86-2.17-3.76-4.3-5.56-6.52-20.81-25.64-29.52-55.57-30.79-87.99-1.5-38.34,6.3-75.15,19.43-110.93,4.36-11.89,9.76-23.39,14.57-34.8,27.32,4.4,53.5,8.28,80.71,4.71-3.92,18.11-9.05,36.03-7.14,54.72-7.03,0-13.78-.9-20.18.21-9.96,1.72-16.59,10.4-16.6,19.74-.01,7.59,4.64,14.63,11.38,17.22,6.57,2.52,15.68.4,20.5-5.13,2.05-2.35,3.77-5.08,5.12-7.89.8-1.67.58-3.82.85-5.99-4.33,4.14-7.77,8.27-12.01,11.29-6.16,4.39-12.99,3.49-17.08-1.34-5.15-6.08-3.95-14.64,2.85-19.55,6.33-4.57,13.54-5.38,20.9-3.78,1.61.35,3.54,2.88,3.92,4.7,2.86,13.8,12.14,21.62,24.38,26.61,2.83,1.15,4.16,2.06,3.38,5.42-1.03,4.41.53,8.32,4.36,10.86,3.68,2.44,7.34,1.28,11.39-.98-3.4-.84-7.08-.71-8.94-2.49-1.85-1.77-1.89-5.44-2.9-8.88,7.56-.85,13.9-1.56,20.58-2.31.37,2.21.74,4.28,1.06,6.37,2.43,15.93,16.72,26.14,32.5,22.83,8.65-1.81,16.95-4.8,22.1-12.72,5.86-9,4.45-18.08-4.42-28.19,7.78,0,15.2-.85,22.36.15,27.67,3.89,48.47,18.21,61.51,43.03,8.71,16.57,9.93,34.45,7.65,52.73-2.97,23.81-10.48,46.02-23.64,66.14-5.35,8.17-7.32,17.13-8.81,26.6-3.61,23.05-7.98,45.97-11.89,68.97-.56,3.31-2.19,4.7-5.28,5.65-18.71,5.75-36.49,3.12-53.7-5.49-2.61-1.3-3.4-2.69-2.45-6.06,4.95-17.63,10.87-35.15,11.96-53.56.85-14.39.89-28.89-6.39-42.25-8.04-14.76-20.55-22.19-36.98-23.67-15.23-1.37-28.93,2.56-41.15,11.75-.65.49-1.43.81-2.55,1.43-.57-3.29-.78-6.29-1.68-9.06-.49-1.5-2.17-2.6-3.32-3.88-.51,1.38-1.4,2.74-1.46,4.13-.25,6.3-.16,12.61-.36,18.9-.79,24.04-1.49,48.08-2.56,72.11-.47,10.58-1.63,21.13-2.73,31.67-.15,1.44-1.48,3.51-2.74,3.97-19.64,7.1-38.81,5.47-57.37-3.82-1.2-.6-2.53-2.53-2.47-3.78.67-14.16,1.59-28.31,2.46-42.46.04-.69.18-1.38.2-1.54,2.02,3.83,3.58,8.44,6.49,11.91,3.32,3.95,8.6,4.35,13.55,3.71,7.52-.98,12.46-5.64,13.24-11.99.99-8.1-2.65-13.9-10.92-17.4-8.57-3.63-14.28-1.67-22.16,8.06ZM389.53,464.47l-.35,1.19c-.57,0-1.14,0-1.72,0-14.06.17-22.42,7.86-23.73,21.8-1.11,11.85,7.05,22.2,19.54,24.88,12.97,2.79,23.51-1.83,31.8-11.39,9.48-10.93,6.83-24.23-6.18-30.53-6.01-2.91-12.89-4.02-19.37-5.95ZM499.74,505.24c-12.83-.04-26.84,13.43-26.96,25.9-.11,12.11,11.59,22.71,25.31,22.92,14.45.22,27.02-10.79,27.15-23.79.13-13.13-11.95-24.99-25.51-25.03ZM330.09,451.9c-7.56-.17-14.43,1.84-20.36,6.65-13.42,10.88-11.81,30.31,3.35,37.19,10.04,4.55,20.37,4.26,29.25-2.64,4.1-3.19,7.84-7.81,9.83-12.58,6.4-15.39-4.05-28.55-22.07-28.61ZM522.94,483.79c4-1.3,8.27-2.1,11.96-4.01,6.59-3.4,8.77-9.64,5.61-16.34-5.13-10.87-13.75-17.92-25.68-19.91-11.97-1.99-20.1,7.21-17.53,19.14,2.57,11.93,12.97,20.24,25.65,21.11ZM292.39,543.12c13.43-.15,23.16-11.8,20.32-24.34-1.74-7.71-11.06-15.74-19.81-17.06-6.52-.98-12.57-.2-17.55,4.64-5.86,5.7-7.18,13.18-3.75,21.33,3.99,9.49,12.13,15.52,20.79,15.43ZM284.62,414.86c-4.37.17-9.09,1.56-12.59,5.66-5.54,6.48-7.66,14.11-6.22,22.39,1.79,10.25,9.74,16.47,18.64,14.85,8.32-1.52,14.84-5.97,18.88-13.51,7.27-13.57-2.46-29.47-18.71-29.39ZM301.59,399.6c9.29-.04,15.81-4.51,19.61-12.8,4.57-9.95-.5-22.13-10.71-26.37-10.35-4.3-19.24.02-23.68,11.5-.41,1.07-.84,2.13-1.17,3.23-3.83,13.04,3.62,24.46,15.93,24.44ZM330.12,541.91c-9.58.02-15.78,6.91-15.78,17.52,0,11.75,7.66,20.62,17.85,20.68,9.52.06,18.32-8.91,18.28-18.62-.05-10.59-9.43-19.62-20.35-19.59ZM470.54,471.48c-4.54,1.86-9.17,3.06-13.02,5.5-7.01,4.45-9.07,12.24-5.88,19.07,3.26,6.97,11.43,10.96,19.02,8.78,4.22-1.21,8.43-2.89,12.24-5.06,9.21-5.24,9.67-17.79.7-23.37-3.74-2.32-8.37-3.2-13.07-4.91ZM342.52,373.73c5.56.2,11.32-4.68,11.62-9.83.33-5.79-4.34-10.21-11.13-10.49-5.8-.25-10.13,3.54-10.36,9.06-.25,6.07,4.12,11.05,9.87,11.26ZM529.31,506c-.1,5.86,3.85,10.25,9.2,10.23,4.14-.02,8.66-4.75,8.69-9.09.04-5.02-4.83-10.22-9.61-10.28-4.41-.05-8.2,4.12-8.28,9.14ZM437.67,514.54c-5.28.04-7.74,2.04-7.78,6.35-.06,5.71,4.54,10.77,9.87,10.86,4.06.07,7.86-3.97,7.93-8.43.08-5.1-4.16-8.82-10.01-8.77ZM490.57,575.95c-.2,4.99,3.08,8.99,7.51,9.16,4.56.17,8.96-3.55,9.16-7.77.24-4.93-3.6-9.16-8.52-9.39-4.4-.21-7.96,3.29-8.15,8ZM344.11,529.58c5.52-.09,9.22-3.42,9.04-8.15-.16-4.22-4.55-8.12-9.04-8.04-4.7.09-8.19,3.59-8.15,8.19.05,4.82,3.37,8.08,8.15,8ZM357.96,542.1c3.32.02,7.27-3.83,7.3-7.08.03-2.95-1.5-4.52-4.34-4.72-2.87-.21-6.95,4.25-6.93,7.37.02,2.67,1.06,4.37,3.96,4.44Z"/>
        <path class="cls-1" d="M260.97,545.02c5.25,8.34,10.05,16.98,15.86,24.87,5.15,6.99,11.42,13.14,17.21,19.66.28.32.69.54.92.89,1.67,2.53.7,17.78-1.18,20.3-9.62,12.84-19.16,25.75-28.92,38.48-.94,1.22-3.38,2.22-4.87,1.95-21.26-3.88-36.86-15.64-46.82-34.72-.73-1.39-.05-4.25.98-5.72,10.93-15.57,22.08-30.99,33.15-46.46,4.58-6.4,9.11-12.82,13.68-19.25ZM247.72,605.27c8.59.21,13.24-3.94,13.38-11.96.16-8.84-5.43-15.13-13.73-15.45-7.29-.28-14.49,6.54-14.66,13.87-.18,7.8,5.93,13.31,15.01,13.54Z"/>
        <path class="cls-1" d="M551.68,573.35c19.35,23.08,24.94,52.07,34.03,79.57.36,1.08-.27,3.18-1.16,3.86-15.15,11.55-32.26,17.68-51.35,18.14-5.94.14-7.05-.74-6.23-6.68,1.96-14.18,4.2-28.32,6.32-42.48.11-.71.31-1.42.31-2.13-.22-18.79,8.22-34.52,17.64-49.9.2-.33.63-.53.45-.38Z"/>
        <path class="cls-1" d="M409.44,610.93c-8.4-.83-16.79-1.71-25.19-2.49-3.06-.28-4.33-1.41-4.29-4.85.1-7.29-.31-14.59-.78-21.87-.23-3.59.56-6.37,3.54-8.62,12.25-9.28,25.96-13.35,41.16-10.84,17.63,2.91,30.02,16.93,33.27,35.48.66,3.76-2.09,4.29-4.37,5.16-13.93,5.34-28.35,7.96-43.34,8.02Z"/>
        <path class="cls-1" d="M234.3,117.76c-6.41-6.92-12.41-14.07-19.12-20.47-9.95-9.5-20.89-17.64-35.45-18.23-16.63-.68-27.04,8.2-23.59,26.01,1.31,6.74,4.79,12.21,9.64,16.87,11.89,11.42,26.69,15.6,42.6,16.96,2.41.21,4.83.46,7.65.73-.95,1.29-2.04,2.15-2.3,3.22-1.37,5.72-5.48,5.67-10.19,5.62-17.28-.17-32.68-5.45-45.84-16.65-11.66-9.92-17.25-22.65-15.95-38.05,1.56-18.48,17.73-30.71,38.22-29.3,23.15,1.59,40.02,14.1,54.28,31.09,2.75,3.28,5,6.97,7.46,10.49,1.43,2.04,1.43,3.79-.74,5.52-2.43,1.95-4.6,4.23-6.68,6.18Z"/>
        <path class="cls-1" d="M483.63,139.76c8.94-1.47,17.92-2.35,26.58-4.5,12.09-3.01,22.54-9.14,29.74-19.73,4.55-6.7,6.12-14.13,4.24-22.09-1.86-7.88-7.49-12.86-15.54-13.94-14.52-1.95-26.9,3.31-37.54,12.46-8.11,6.97-15.28,15.04-22.85,22.63-.99.99-1.93,2.02-2.8,2.94-3.14-3.09-6.05-5.95-9.23-9.08,6.71-9.57,13.95-18.89,23.39-26.22,10.73-8.33,22.24-15.08,36.07-16.95,15.12-2.03,28.42.82,37.38,14.3,7.67,11.55,6.87,23.92,1.64,36.12-6.32,14.74-18.77,22.62-33.04,28.14-9.74,3.77-20.04,4.63-30.34,5.09-1.47.07-3.44-1.41-4.43-2.74-1.49-1.99-2.32-4.48-3.27-6.43Z"/>
        <path class="cls-1" d="M603.69,307.27c11.46,12.1,14.1,26.25,11.98,41.95-2.02,14.92-12.69,26.96-27.3,30.03-.53.11-1.08.11-1.95.2.18-5.15,4.9-5.94,7.76-8.71-1.24-1.4-2.42-2.71-3.64-4.08-4.55,1.63-6.85,5.07-8.62,9.12-.46,1.06-1.7,2.7-2.29,2.58-1.21-.23-2.77-1.24-3.25-2.34-4.56-10.52-7.82-21.1-.24-31.77,1.07-1.5,2.01-3.19,2.58-4.93,1.21-3.72,3.78-5.86,7.18-7.47,2.44-1.15,4.84-2.55,6.92-4.26,1.62-1.34,2.72-3.31,4.48-5.54-13.17,4.01-19.92,13.93-26.75,23.51-4.28,5.99-4.96,12.98-2.53,20.12.86,2.53,1.52,5.13,2.52,8.55-5.16-3.37-7.62-7.61-8.95-12.43-3.37-12.3,1.87-26.74,12.71-33.51,5.4-3.37,11.39-6.29,17.51-7.87,6.33-1.64,9.55-5.1,11.04-10.98.16-.65.49-1.26.85-2.17Z"/>
        <path class="cls-1" d="M413.22,618.81c14.69-1.17,29.48-2.35,44.51-9.39-1.17,9.66-1.79,18.01-3.28,26.21-1.68,9.27-4.23,18.37-6.22,27.59-.6,2.78-2.04,3.61-4.72,3.77-13.17.79-25.11-2.41-36.06-9.92-3.69-2.54-4.62-4.74-3.11-9.09,3.27-9.42,5.85-19.09,8.87-29.17Z"/>
        <path class="cls-1" d="M471.43,122.07c3.97-4.32,7.77-9.24,12.35-13.28,6.72-5.93,13.69-11.71,21.13-16.68,6.79-4.53,14.7-6.26,22.99-4.96,6.31.99,9.94,4.95,10.04,11.4.16,10.21-5.24,17.23-13.49,22.43-10.33,6.51-22.07,8.16-33.8,10.32-9.14,1.68-16.09.78-19.23-9.23Z"/>
        <path class="cls-1" d="M217.59,131.99c-12.72-.68-24.34-1.99-34.77-7.38-5.71-2.95-11.17-7.07-15.45-11.82-2.88-3.2-4.44-8.31-4.95-12.76-.86-7.52,3.49-11.89,11.18-12.79,11.62-1.36,21.55,3.09,29.97,10.28,8.11,6.93,15.22,15.04,22.77,22.62,1.88,1.88,2.03,3.57-.25,5.32-.88.67-1.82,1.64-2.12,2.65-1.19,3.99-4.13,4.21-6.38,3.88Z"/>
        <path class="cls-1" d="M356.36,76.32c-.92-3.01-1.58-6.15-2.85-9.01-1.44-3.26-3.42-7.45-.43-9.43,3.18-2.11,6.27,1.69,8.25,4.35,6.7,8.97,10.12,19.15,10.11,30.38,0,1.09-.71,2.96-1.43,3.14-3.89.98-5.23,4.08-6.83,7.15-3.93,7.57-10.56,11.83-18.33,14.61-.8.29-1.69.67-2.48.58-1.77-.22-3.51-.71-5.27-1.1.66-1.77.96-3.81,2.05-5.26,3.41-4.54,7.24-8.76,10.66-13.3,1.09-1.45,1.39-3.51,2.05-5.29-.36-.36-.72-.73-1.08-1.09-1.59.79-3.45,1.28-4.73,2.41-5.92,5.25-12.72,7.79-20.55,6.53-3.05-.49-5.92-2.12-9.67-3.53,7.83-9.71,19.12-8.37,29.43-12.76-2.52-2.07-4.3-3.42-5.96-4.91-2.71-2.45-5.83-4.66-7.83-7.62-1.19-1.76-.57-4.74-.76-7.17,2.39.18,5.2-.39,7.08.68,4.83,2.74,9.24,6.22,13.83,9.39,1.02.7,2.07,1.35,3.11,2.03.53-.25,1.06-.51,1.6-.76Z"/>
        <path class="cls-1" d="M301.71,688.48c20.21,10.25,40.83,12.68,63.03,4.88-1.96,7.53-3.7,14.81-5.88,21.95-.38,1.25-2.49,2.37-4.02,2.82-16.52,4.86-32.74,4.57-48.35-3.47-6.64-3.42-7.45-5.19-6.47-12.6.6-4.5,1.12-9.02,1.69-13.59Z"/>
        <path class="cls-1" d="M450.65,686.24c19.54,11.69,39.88,13.13,61.49,7.23-1.84,6.5-3.41,12.54-5.34,18.45-.41,1.24-2.03,2.44-3.36,2.96-17.87,6.93-35.24,5.4-52.16-3.32-2.94-1.51-4.06-3.73-3.51-6.98.99-5.91,1.87-11.85,2.88-18.34Z"/>
        <path class="cls-1" d="M207.03,620.48c11.66,21.02,28.33,33.16,51.12,38.33-3.99,4.14-7.6,8.13-11.53,11.76-1.07.99-3.18,1.33-4.77,1.23-19.67-1.26-33.75-11.32-43.37-28.07-.72-1.25-.75-3.44-.16-4.79,2.6-5.99,5.54-11.82,8.71-18.46Z"/>
        <path class="cls-1" d="M532.32,682.35c21.04-.86,39.81-6.15,56.28-19.78,1.17,5.73,2.51,11.08,3.23,16.52.22,1.64-.8,3.97-2.03,5.2-12.07,12.06-26.71,17.82-43.78,16.96-1.72-.09-4.07-1.2-4.92-2.58-3.1-5.08-5.69-10.47-8.78-16.33Z"/>
        <path class="cls-1" d="M443.24,458.06c-12.57-.21-21.01-10.22-18.56-22.3.3-1.46,1.86-3.42,3.21-3.79,8.67-2.39,17.39-4.64,26.2-6.46,5.7-1.17,11.25,2.39,14.11,8.16,2.44,4.94,1.46,10.96-2.47,15.1-4.98,5.24-15.08,9.42-22.48,9.3Z"/>
        <path class="cls-1" d="M400.1,660.42c13.95,8.7,14.97,13.69,45.08,14.44-1.48,5.32-2.85,10.67-4.53,15.91-.34,1.06-1.84,2.45-2.85,2.49-13.97.55-27.55-.79-38.56-10.68-1.49-1.34-2.51-4.23-2.28-6.23.59-5.21,1.99-10.33,3.15-15.93Z"/>
        <path class="cls-1" d="M549.04,446.9c-2.38-2.54-4.59-5.15-7.06-7.48-2.46-2.32-5.18-4.36-8.04-6.72,23.48-6.55,36.33-22.54,41.53-47.19,1.35,2.32,2.75,3.61,2.77,4.92.33,23.95-9.2,42.88-29.2,56.48Z"/>
        <path class="cls-1" d="M286.58,38.94c8.45.17,13.44,5.45,13.22,13.97-.19,7.42-7.77,14.1-15.71,13.84-7.3-.24-13.43-6.34-13.2-13.12.31-8.68,6.91-14.88,15.68-14.7Z"/>
        <path class="cls-1" d="M414.41,39.07c8.13-.02,14.43,6.42,14.49,14.83.06,7.71-4.74,12.8-11.97,12.7-8.82-.12-16.19-7.3-16.08-15.68.09-6.94,5.69-11.83,13.56-11.86Z"/>
        <path class="cls-1" d="M374.12,368.26c9.55,1.86,16.77,9.32,16.39,16.13-.36,6.44-7.54,12.02-18.18,13.27.6-9.9,1.19-19.59,1.79-29.4Z"/>
        <path class="cls-1" d="M375.89,360.33c1.75-6.28,3.38-12.14,5.03-18.06,6.35-1.11,12.74-2.23,19.11-3.34,1.01,11.29-9.8,21.61-24.14,21.41Z"/>
        <path class="cls-1" d="M323.59,644.62c-5.87.02-10.55-4.63-10.7-10.64-.12-4.4,4.25-9.1,8.48-9.12,6.08-.03,12.44,4.79,12.58,9.55.18,5.83-4.26,10.2-10.36,10.22Z"/>
        <path class="cls-1" d="M373.27,405.53c7.74.55,14.17,3.47,19.67,8.15,1.47,1.25,2.26,4.1,2.16,6.16-.1,2.06-1.28,4.58-2.84,5.83-.83.66-3.75-.53-5.25-1.58-6.46-4.54-12.55-9.48-13.74-18.56Z"/>
        <path class="cls-1" d="M406.9,83.63c-3.53-1.23-6.45-2.25-9.64-3.37,1.77-3.54,3.39-6.78,5.02-10.05,2.7,1.05,5.27,2.06,8.18,3.19-1.08,3.09-2.26,6.5-3.56,10.24Z"/>
        <path class="cls-1" d="M303.42,80.13c-3.41,1.28-6.32,2.37-9.78,3.67-1.01-3.09-2.05-6.27-3.08-9.45,2.62-1.41,4.95-2.67,7.51-4.04,1.73,3.19,3.42,6.28,5.35,9.82Z"/>
        <path d="M223,224.49c-4.4-.5-8.19-.79-11.93-1.43-1.31-.23-2.88-1.06-3.59-2.11-.89-1.32-1.83-3.59-1.25-4.63.57-1.03,3.11-1.7,4.56-1.4,3.87.8,7.62,2.2,11.83,3.48.68-1.84,1.19-3.24,1.76-4.81-2.68-1.44-5.33-2.53-7.56-4.18-1.64-1.22-3.39-2.99-3.89-4.84-.4-1.48.73-3.66,1.78-5.07.29-.39,2.9.6,4.18,1.39,1.42.88,2.41,2.44,3.8,3.4,4.51,3.12,5.09,2.98,8.56-1.32,7.51-9.3,25.74-11.57,36.76-4.58,11.71,7.43,17.81,23.36,13.78,35.96-4.53,14.18-16.61,22.32-31.86,21.47-13.62-.76-25.64-12.95-26.63-27.01-.11-1.55-.22-3.09-.3-4.31ZM242.99,221.46c4.51.01,8.67-4.3,8.58-8.89-.07-3.41-3.54-7.11-6.74-7.19-4.25-.11-9.56,4.89-9.46,8.9.09,3.79,3.68,7.17,7.62,7.18ZM269.83,235.06c-3.08-1.91-5.03-4.05-6.94-4-1.45.03-2.85,2.82-4.26,4.38,1.62,1.39,3.19,3.81,4.86,3.88,1.69.07,3.47-2.2,6.34-4.26ZM238.98,237.36c.59.05,1.18.1,1.76.16,1.06-1.55,3.12-3.24,2.92-4.6-.27-1.8-2.31-3.33-3.59-4.98-1.25,1.46-3.33,2.81-3.52,4.4-.19,1.56,1.54,3.34,2.43,5.03Z"/>
        <path d="M474.34,213.06c1.12,3.68,3.23,4.53,6.16,3.7,2.33-.66,4.6-1.73,6.96-2.03,1.59-.2,3.31.63,4.97.99-.65,1.86-.76,4.65-2.05,5.38-2.58,1.46-5.77,1.98-8.77,2.5-1.58.27-3.31-.27-3.78-.32-2.45,6.52-3.94,12.83-7.03,18.23-6.14,10.77-18.08,16.25-29.5,14.06-12.51-2.4-20.09-10.3-23.17-22.54-4.19-16.64,5.13-33.18,21.45-37.7,10.32-2.86,19.5-.66,27.09,7.27,4.99,5.21,5.15,5.16,10.69.5.98-.83,1.81-1.92,2.9-2.54,1.21-.69,2.65-.97,3.99-1.43.51,1.64,1.94,3.9,1.34,4.79-1.84,2.7-4.34,5.01-6.83,7.19-1.1.96-2.78,1.25-4.44,1.94ZM444.36,212.93c0-4.03-3.05-7.36-6.71-7.35-4.39.02-9.06,4.52-8.98,8.65.08,4.05,3.75,7.89,7.5,7.86,4.52-.04,8.19-4.14,8.19-9.17ZM464.2,235.49c-2.88-2.08-4.83-4.51-6.2-4.22-1.84.39-3.78,2.65-4.55,4.57-.32.8,2.49,4.11,3.44,3.93,2.18-.41,4.08-2.26,7.31-4.28ZM433.8,234.76c.52-.02,1.05-.04,1.57-.06.71-1.47,1.94-2.94,1.92-4.4-.01-.92-2.3-2.78-2.85-2.54-1.27.55-2.79,2.04-2.91,3.28-.11,1.15,1.45,2.48,2.27,3.72Z"/>
        <path d="M334.87,327.6c-2.18.58-3.09.99-4.02,1.04-31.88,1.59-55.67-20.86-51.66-52.12,2.51-19.51,14.15-32.86,31.93-40.57,28.07-12.16,56.09-11.56,83.12,2.89,16.04,8.57,26.1,22.32,27.98,40.8,1.35,13.23-2.11,24.95-12.24,34.68-12.48,11.99-27.26,16.17-43.95,15.57-.89-.03-1.76-.51-2.64-.78-.05-.41-.1-.83-.15-1.24,4.06-1.08,8.06-2.44,12.18-3.17,12.82-2.28,23.26-8.9,31.85-18.19,9.37-10.13,10.22-27.24,3.32-40.33-6.06-11.49-15.61-19.04-27.18-23.91-25.11-10.57-50.03-9.6-74.02,3.4-13.66,7.4-22.28,18.94-23.19,34.88-1.06,18.33,8.64,32.07,27.16,39.43,4.51,1.79,9.23,3.07,13.83,4.65,2.22.77,4.39,1.69,7.68,2.97Z"/>
        <path d="M352.17,303.33c-10.94-.77-19.05-4.39-23.83-13.25-.9-1.68-.54-4.74.4-6.55,1.37-2.62,3.94-2.15,4.88.77,2.49,7.68,8.8,9.87,15.67,10.56,7.06.71,13.17-2.03,17.99-7.33.55-.61,1.02-1.47,1.14-2.28.34-2.25.49-4.56,3.78-3.3,2.91,1.12,4.45,4.84,2.92,7.43-3.3,5.6-7.83,9.89-14.12,11.89-3.23,1.03-6.63,1.55-8.84,2.06Z"/>
        <path d="M400.58,113.95c7.97-.07,14.13,6.14,13.66,13.8-.42,6.87-8.92,12.27-17.27,10.97-7.39-1.15-12.09-6.13-11.76-12.45.39-7.34,6.49-12.23,15.36-12.32ZM400.69,119.46c-5.15-.06-9.66,2.87-9.75,6.33-.1,4.03,4.01,7.61,8.71,7.6,4.27-.01,8.42-3.35,8.52-6.87.12-3.97-3.1-7.01-7.48-7.06Z"/>
        <path d="M384.31,255.76c5.91-.04,8.59,2.1,10.24,5.54,1.63,3.39,2.87,7,.35,10.47-.73,1.01-2.22,1.89-3.43,1.99-.65.05-1.54-1.63-2.13-2.65-.49-.84-.49-2.03-1.1-2.74-.85-.99-2-2.17-3.14-2.31-.76-.09-1.74,1.46-2.59,2.32-.19.19-.17.57-.35.77-1.17,1.35-2.37,2.67-3.56,4-1.26-1.88-3.32-3.62-3.64-5.65-.98-6.02,4.83-11.8,9.35-11.75Z"/>
        <path d="M311.49,275.49c-2.29-2.11-4.17-3.2-5.12-4.84-2.06-3.57-.54-9.38,2.85-12.53,3.11-2.9,7.64-3.5,11.09-1.49,4.32,2.52,7.28,8.29,6.03,12.3-.38,1.22-1.46,2.5-2.57,3.1-.45.24-1.93-1.15-2.78-1.96-.93-.88-1.51-2.2-2.54-2.87-1.23-.8-2.84-1.61-4.17-1.45-.67.08-1.2,2.27-1.56,3.57-.45,1.6-.66,3.26-1.22,6.18Z"/>
        <path d="M447.35,155.96c7.56.3,12.8,3.41,16.34,9.15.78,1.27,1.06,3.33.66,4.77-1.02,3.62-3.46,4.21-5.74,1.29-3.75-4.82-8.75-6.55-14.51-7.26-1.49-.18-2.82-1.6-4.23-2.45,1.06-1.52,1.85-3.42,3.27-4.44,1.27-.91,3.23-.84,4.21-1.06Z"/>
        <path d="M238.05,172.81c-3.49-1.71-4.14-4.07-3.01-7.21,2.5-6.9,13.02-12.17,19.85-9.45,1.86.74,3,3.27,4.47,4.98-1.71.88-3.41,2.48-5.14,2.52-7.06.17-11.93,4.05-16.18,9.16Z"/>
        <path d="M402.32,99.62c-.22,5.65-5.01,9.32-11.82,9.03-5.05-.21-8.99-4.58-8.77-9.72.17-3.92,5.7-7.97,10.8-7.9,5.54.08,9.97,3.96,9.79,8.59ZM391.22,104.37c3.7-1.07,6.04-1.99,5.93-5.28-.11-3.34-2.57-4.09-5.32-4.1-2.93,0-4.84,1.82-4.34,4.49.34,1.8,2.42,3.27,3.73,4.89Z"/>
        <path d="M450.41,286.79c-5.77.11-11.07-1.43-13.56-6.98-1.04-2.31-.93-6.17.35-8.29,5.13-8.48,20.8-7.5,25.51,1.27,2.89,5.37-1.76,13.11-8.44,13.97-1.27.16-2.57.02-3.86.02ZM448.49,284.07c7.04-.13,11.16-2.6,11.47-6.43.32-4.02-3.18-7.65-8.87-8.9-4.59-1-8.61.57-11.52,4.02-.99,1.17-1.21,3.98-.51,5.41,1.98,4.02,5.73,5.75,9.43,5.91Z"/>
        <path d="M252.46,286.82c-.14,0-.29,0-.43,0-6.56-.13-12.2-4.2-12.35-8.91-.16-5.05,6.48-11.42,12.33-11.73,1.7-.09,3.46-.12,5.1.23,4.96,1.04,8.84,5.83,8.58,10.34-.26,4.64-4.91,9.2-10.25,9.97-.98.14-1.99.02-2.99.02,0,.03,0,.06,0,.08ZM252.46,283.62c5.16.1,9.51-2.49,10.28-6.09.62-2.91-1.83-6.31-5.74-7.55-4.87-1.54-9.16-.08-12.5,3.51-1.16,1.24-2.22,3.83-1.69,5.15,1.64,4.14,5.61,4.87,9.65,4.98Z"/>
        <path d="M432.8,133.64c-4.73-.15-8.81-4.77-8.75-9.92.05-4.48,3.07-7.18,7.89-7.06,4.85.13,9.22,4.29,9.01,8.58-.22,4.43-4.18,8.51-8.14,8.39ZM437.68,124.82c-2.72-1.86-4.27-3.59-6.03-3.86-.99-.15-2.35,2.1-3.54,3.28,1.67,1.46,3.21,3.17,5.12,4.2.47.26,2.13-1.68,4.45-3.62Z"/>
        <path d="M463.18,266.58c-.27-2.97.88-4.89,4.53-4.86,4.37.03,7.72,2.95,7.52,6.98-.18,3.52-2.54,4.97-5.7,5.17-3.69.24-6.32-2.77-6.34-7.29ZM464.4,267.6c1.6,1.55,3.05,3.2,3.23,3.08,1.31-.93,2.63-2.09,3.34-3.49.19-.37-1.75-2.58-2.68-2.56-1.09.02-2.15,1.56-3.88,2.97Z"/>
        <path d="M232.19,274.75c-2.79-.12-5.62-3.06-5.4-5.62.25-3.01,4.33-6.54,7.44-6.45,3,.09,5.59,2.98,5.35,5.96-.21,2.62-4.59,6.23-7.39,6.11ZM237.42,268.49c-2.16-1.74-3.47-2.8-4.78-3.86-1.01,1.34-2.71,2.63-2.81,4.03-.07.98,1.96,2.84,3.2,2.97,1.1.11,2.39-1.61,4.39-3.14Z"/>
        <path d="M389.53,464.47c6.48,1.93,13.36,3.04,19.37,5.95,13.01,6.3,15.66,19.61,6.18,30.53-8.29,9.56-18.83,14.17-31.8,11.39-12.49-2.68-20.65-13.03-19.54-24.88,1.3-13.94,9.66-21.62,23.73-21.8.57,0,1.14,0,1.72,0l.35-1.19ZM389.97,471.71c-11.36-.19-17.78,4.43-19.51,12.96-1.86,9.17,2.01,16.71,10.38,20.27,10.53,4.47,25.98-.75,31.67-10.7,3.55-6.2,2.32-12.33-3.29-16.76-6.11-4.83-13.44-5.18-19.26-5.75Z"/>
        <path d="M499.74,505.24c13.56.04,25.64,11.89,25.51,25.03-.13,13-12.71,24.02-27.15,23.79-13.73-.21-25.42-10.8-25.31-22.92.12-12.48,14.13-25.94,26.96-25.9ZM499.57,547.64c5.79-.35,11.91-3.42,16.61-9.04,2.78-3.33,3.76-7.36,2.86-11.68-2.01-9.58-11.95-17.16-20.97-16.05-10.36,1.28-19.47,11.09-19.34,20.85.11,8.46,8.93,15.75,20.84,15.93Z"/>
        <path d="M330.09,451.9c18.02.05,28.47,13.22,22.07,28.61-1.98,4.77-5.72,9.4-9.83,12.58-8.89,6.9-19.21,7.2-29.25,2.64-15.16-6.88-16.77-26.3-3.35-37.19,5.93-4.81,12.79-6.82,20.36-6.65ZM347.98,473.09c.01-7.88-3.87-13.2-10.91-14.91-7.96-1.93-15.4-.59-22.12,3.97-5.83,3.96-9.39,9.47-8.19,16.76,1.08,6.58,5.92,10.25,11.82,12.44,13.14,4.88,29.37-5.27,29.39-18.26Z"/>
        <path d="M522.94,483.79c-12.67-.87-23.07-9.18-25.65-21.11-2.57-11.94,5.56-21.14,17.53-19.14,11.93,1.99,20.56,9.04,25.68,19.91,3.16,6.7.98,12.93-5.61,16.34-3.69,1.91-7.95,2.71-11.96,4.01ZM523.65,476.58c1.33-.2,3.07-.29,4.71-.73,5.25-1.37,8.25-6.02,6.18-10.19-4.32-8.7-10.77-15.05-20.82-16.69-6.14-1-11.02,3.22-11.03,9.39-.02,9.51,10.31,18.65,20.96,18.21Z"/>
        <path d="M292.39,543.12c-8.66.1-16.8-5.94-20.79-15.43-3.43-8.15-2.11-15.63,3.75-21.33,4.98-4.84,11.04-5.62,17.55-4.64,8.75,1.32,18.06,9.35,19.81,17.06,2.84,12.54-6.89,24.19-20.32,24.34ZM289.2,506.95c-10.08-.05-16.58,9.13-12.29,18.22,1.79,3.79,4.98,7.41,8.43,9.82,7.57,5.27,19.19.31,21.57-8.65,2.21-8.31-7.87-19.34-17.72-19.39Z"/>
        <path d="M284.62,414.86c16.25-.08,25.99,15.82,18.71,29.39-4.04,7.54-10.56,12-18.88,13.51-8.91,1.62-16.86-4.6-18.64-14.85-1.44-8.29.68-15.91,6.22-22.39,3.5-4.1,8.22-5.49,12.59-5.66ZM270.79,438.66c.57,9.73,7.58,16.36,14.95,12.9,4.57-2.14,8.99-5.75,11.99-9.79,4.67-6.28,1.78-15.49-4.97-19.15-7.9-4.28-14.46-2.43-18.5,5.64-1.62,3.24-2.35,6.92-3.48,10.4Z"/>
        <path d="M301.58,399.59c-12.31.02-19.76-11.39-15.93-24.43.32-1.1.75-2.16,1.17-3.23,4.43-11.48,13.33-15.8,23.68-11.5,10.21,4.24,15.27,16.42,10.71,26.37-3.8,8.28-10.32,12.76-19.62,12.79ZM316.25,379.22c.06-8.82-8.31-16.89-15.45-14.9-8.61,2.4-13.59,18.46-7.84,25.32,3.47,4.14,8.08,5.4,13.09,3.57,5.95-2.17,10.16-7.95,10.2-14Z"/>
        <path d="M330.12,541.91c10.93-.03,20.31,9,20.35,19.59.04,9.71-8.76,18.67-18.28,18.62-10.19-.06-17.85-8.93-17.85-20.68,0-10.61,6.2-17.5,15.78-17.52ZM344.2,560.57c-.07-6.7-7.29-13.29-14.4-13.15-5.27.11-9.97,6.1-9.81,12.52.18,7.4,5.83,14.2,11.7,14.07,6.29-.13,12.59-6.9,12.51-13.44Z"/>
        <path d="M470.54,471.48c4.69,1.71,9.33,2.59,13.07,4.91,8.97,5.58,8.52,18.13-.7,23.37-3.81,2.17-8.02,3.84-12.24,5.06-7.59,2.18-15.76-1.81-19.02-8.78-3.19-6.82-1.13-14.61,5.88-19.07,3.84-2.44,8.48-3.64,13.02-5.5ZM470.96,478.04c-.18-.35-.35-.7-.53-1.05-3.7,1.88-7.92,3.14-10.97,5.76-6.01,5.17-4.9,11.29,2.11,15.11,6.31,3.44,20.27-1.73,22.66-8.51.38-1.07.19-2.53-.2-3.65-1.77-5.03-6.51-7.74-13.06-7.67Z"/>
        <path d="M342.52,373.73c-5.75-.2-10.12-5.18-9.87-11.26.22-5.52,4.56-9.31,10.36-9.06,6.79.29,11.47,4.7,11.13,10.49-.3,5.15-6.06,10.03-11.62,9.83ZM348.7,363.57c-.09-3.53-3.15-5.75-7.11-5.59-2.81.11-4.07,1.53-3.98,4.34.11,3.89,2.43,6.52,5.84,6.39,3.52-.14,4.83-2.44,5.25-5.14Z"/>
        <path d="M529.31,506c.08-5.01,3.87-9.19,8.28-9.14,4.78.06,9.65,5.26,9.61,10.28-.03,4.34-4.56,9.07-8.69,9.09-5.34.02-9.3-4.37-9.2-10.23ZM543.34,506c-2.52-1.84-4.14-3.92-5.46-3.75-1.47.19-2.67,2.44-3.99,3.79,1.49,1.42,2.78,3.35,4.55,4.02.77.29,2.52-2.01,4.89-4.05Z"/>
        <path d="M437.67,514.54c5.85-.04,10.09,3.67,10.01,8.77-.07,4.46-3.87,8.5-7.93,8.43-5.33-.09-9.93-5.15-9.87-10.86.05-4.3,2.5-6.31,7.78-6.35ZM443.41,522.51c-2.05-1.87-3.66-4.25-4.63-4.01-1.54.38-3.7,2.51-3.68,3.87.02,1.47,2.23,2.92,3.48,4.38,1.35-1.19,2.7-2.37,4.82-4.24Z"/>
        <path d="M490.57,575.95c.19-4.71,3.75-8.21,8.15-8,4.91.23,8.75,4.46,8.52,9.39-.2,4.21-4.59,7.94-9.16,7.77-4.43-.16-7.71-4.16-7.51-9.16ZM503.71,576.1c-2.34-1.73-3.87-3.64-4.8-3.38-1.72.47-3.08,2.21-4.6,3.42,1.41,1.28,2.68,3.26,4.29,3.59,1.11.23,2.69-1.82,5.11-3.63Z"/>
        <path d="M344.11,529.58c-4.78.08-8.1-3.18-8.15-8-.04-4.6,3.44-8.1,8.15-8.19,4.49-.08,8.89,3.82,9.04,8.04.18,4.72-3.52,8.06-9.04,8.15ZM343.62,526.55c2.03-2.34,4.33-3.93,4.1-4.97-.35-1.6-2.26-3.18-3.89-3.98-.51-.25-3.17,2.01-3.23,3.21-.07,1.5,1.52,3.09,3.02,5.75Z"/>
        <path d="M357.96,542.1c-2.9-.07-3.94-1.76-3.96-4.44-.02-3.12,4.06-7.58,6.93-7.37,2.84.21,4.36,1.78,4.34,4.72-.03,3.26-3.98,7.11-7.3,7.09ZM360.14,531.89c-1.45,2.15-2.62,3.34-3.02,4.75-.16.58,1.33,1.63,2.06,2.46,1.08-1.09,2.46-2.04,3.09-3.35.28-.57-.99-1.88-2.13-3.86Z"/>
        <path d="M247.72,605.27c-9.08-.23-15.19-5.73-15.01-13.54.17-7.33,7.37-14.15,14.66-13.87,8.3.32,13.89,6.6,13.73,15.45-.14,8.02-4.79,12.17-13.38,11.96ZM247.23,599.92c4.23.2,7.6-2.97,7.75-7.28.15-4.63-4.1-9.96-8.02-10.06-4.02-.1-8.58,4.76-8.84,9.42-.21,3.72,4.36,7.7,9.11,7.92Z"/>
        <path class="cls-1" d="M242.99,221.46c-3.94-.01-7.52-3.39-7.62-7.18-.1-4.01,5.21-9.01,9.46-8.9,3.2.08,6.67,3.78,6.74,7.19.09,4.59-4.07,8.91-8.58,8.89Z"/>
        <path class="cls-1" d="M269.83,235.06c-2.87,2.06-4.65,4.33-6.34,4.26-1.67-.07-3.24-2.49-4.86-3.88,1.42-1.56,2.81-4.35,4.26-4.38,1.9-.04,3.85,2.09,6.94,4Z"/>
        <path class="cls-1" d="M238.98,237.36c-.89-1.69-2.62-3.47-2.43-5.03.19-1.58,2.27-2.94,3.52-4.4,1.28,1.65,3.32,3.18,3.59,4.98.2,1.36-1.86,3.05-2.92,4.6-.59-.05-1.18-.1-1.76-.16Z"/>
        <path class="cls-1" d="M444.36,212.93c0,5.02-3.66,9.13-8.19,9.17-3.75.03-7.42-3.81-7.5-7.86-.08-4.13,4.59-8.63,8.98-8.65,3.66-.02,6.71,3.32,6.71,7.35Z"/>
        <path class="cls-1" d="M464.2,235.49c-3.22,2.02-5.13,3.87-7.31,4.28-.95.18-3.77-3.13-3.44-3.93.77-1.91,2.72-4.18,4.55-4.57,1.37-.29,3.31,2.14,6.2,4.22Z"/>
        <path class="cls-1" d="M433.8,234.76c-.82-1.25-2.39-2.57-2.27-3.72.12-1.24,1.64-2.73,2.91-3.28.55-.24,2.84,1.62,2.85,2.54.02,1.46-1.22,2.94-1.92,4.4-.52.02-1.05.04-1.57.06Z"/>
        <path class="cls-1" d="M400.69,119.46c4.38.05,7.6,3.09,7.48,7.06-.11,3.52-4.26,6.85-8.52,6.87-4.7.01-8.81-3.57-8.71-7.6.09-3.45,4.6-6.38,9.75-6.33Z"/>
        <path class="cls-1" d="M391.22,104.37c-1.3-1.62-3.39-3.09-3.73-4.89-.5-2.67,1.41-4.5,4.34-4.49,2.75,0,5.21.76,5.32,4.1.11,3.29-2.23,4.21-5.93,5.28Z"/>
        <path class="cls-1" d="M448.49,284.07c-3.71-.16-7.46-1.89-9.43-5.91-.7-1.43-.48-4.23.51-5.41,2.9-3.44,6.93-5.02,11.52-4.02,5.7,1.25,9.2,4.88,8.87,8.9-.31,3.84-4.42,6.3-11.47,6.43Z"/>
        <path class="cls-1" d="M252.46,283.62c-4.04-.11-8.01-.84-9.65-4.98-.53-1.32.54-3.91,1.69-5.15,3.34-3.59,7.63-5.05,12.5-3.51,3.91,1.24,6.35,4.64,5.74,7.55-.76,3.61-5.12,6.19-10.28,6.09Z"/>
        <path class="cls-1" d="M437.68,124.82c-2.33,1.94-3.98,3.87-4.45,3.62-1.9-1.03-3.44-2.74-5.12-4.2,1.19-1.17,2.55-3.43,3.54-3.28,1.76.27,3.31,2,6.03,3.86Z"/>
        <path class="cls-1" d="M464.4,267.6c1.73-1.41,2.79-2.95,3.88-2.97.93-.02,2.87,2.19,2.68,2.56-.71,1.39-2.03,2.55-3.34,3.49-.18.13-1.62-1.53-3.23-3.08Z"/>
        <path class="cls-1" d="M237.42,268.49c-2.01,1.52-3.3,3.25-4.39,3.14-1.23-.13-3.27-1.99-3.2-2.97.1-1.41,1.8-2.69,2.81-4.03,1.31,1.06,2.62,2.12,4.78,3.86Z"/>
        <path class="cls-1" d="M389.97,471.71c5.82.57,13.15.93,19.26,5.75,5.61,4.43,6.83,10.56,3.29,16.76-5.68,9.95-21.14,15.17-31.67,10.7-8.38-3.56-12.24-11.1-10.38-20.27,1.73-8.53,8.14-13.14,19.51-12.96Z"/>
        <path class="cls-1" d="M499.57,547.64c-11.91-.18-20.73-7.47-20.84-15.93-.13-9.76,8.97-19.57,19.34-20.85,9.02-1.11,18.96,6.47,20.97,16.05.91,4.32-.08,8.36-2.86,11.68-4.7,5.63-10.82,8.7-16.61,9.04Z"/>
        <path class="cls-1" d="M347.98,473.09c-.02,12.99-16.25,23.14-29.39,18.26-5.91-2.19-10.74-5.87-11.82-12.44-1.2-7.29,2.36-12.8,8.19-16.76,6.71-4.56,14.16-5.91,22.12-3.97,7.04,1.71,10.92,7.03,10.91,14.91Z"/>
        <path class="cls-1" d="M523.65,476.58c-10.65.44-20.98-8.69-20.96-18.21.01-6.17,4.89-10.39,11.03-9.39,10.05,1.64,16.5,7.98,20.82,16.69,2.07,4.17-.93,8.82-6.18,10.19-1.65.43-3.38.53-4.71.73Z"/>
        <path class="cls-1" d="M289.2,506.95c9.85.05,19.93,11.08,17.72,19.39-2.39,8.96-14,13.91-21.57,8.65-3.45-2.41-6.64-6.03-8.43-9.82-4.29-9.09,2.2-18.26,12.29-18.22Z"/>
        <path class="cls-1" d="M270.79,438.66c1.13-3.48,1.86-7.16,3.48-10.4,4.03-8.07,10.6-9.92,18.5-5.64,6.74,3.66,9.64,12.87,4.97,19.15-3.01,4.05-7.43,7.65-11.99,9.79-7.37,3.45-14.39-3.17-14.95-12.9Z"/>
        <path class="cls-1" d="M316.25,379.22c-.04,6.05-4.25,11.82-10.2,14-5.01,1.83-9.63.57-13.09-3.57-5.74-6.86-.77-22.92,7.84-25.32,7.14-1.99,15.51,6.07,15.45,14.9Z"/>
        <path class="cls-1" d="M344.2,560.57c.07,6.55-6.23,13.31-12.51,13.44-5.87.12-11.52-6.68-11.7-14.07-.16-6.42,4.54-12.41,9.81-12.52,7.11-.14,14.32,6.45,14.4,13.15Z"/>
        <path class="cls-1" d="M470.96,478.04c6.55-.08,11.3,2.64,13.06,7.67.39,1.12.58,2.58.2,3.65-2.39,6.78-16.34,11.94-22.66,8.51-7.01-3.82-8.13-9.94-2.11-15.11,3.05-2.62,7.28-3.88,10.97-5.76.18.35.35.7.53,1.05Z"/>
        <path class="cls-1" d="M348.7,363.57c-.42,2.7-1.73,5.01-5.25,5.14-3.42.13-5.73-2.5-5.84-6.39-.08-2.82,1.17-4.24,3.98-4.34,3.96-.15,7.02,2.06,7.11,5.59Z"/>
        <path class="cls-1" d="M543.34,506c-2.37,2.04-4.12,4.34-4.89,4.05-1.77-.67-3.07-2.6-4.55-4.02,1.32-1.35,2.52-3.59,3.99-3.79,1.32-.17,2.94,1.91,5.46,3.75Z"/>
        <path class="cls-1" d="M443.41,522.51c-2.12,1.86-3.47,3.05-4.82,4.24-1.25-1.46-3.47-2.91-3.48-4.38-.02-1.37,2.14-3.49,3.68-3.87.96-.24,2.57,2.14,4.63,4.01Z"/>
        <path class="cls-1" d="M503.71,576.1c-2.41,1.81-3.99,3.86-5.11,3.63-1.61-.33-2.88-2.31-4.29-3.59,1.51-1.21,2.88-2.95,4.6-3.42.93-.26,2.46,1.65,4.8,3.38Z"/>
        <path class="cls-1" d="M343.62,526.55c-1.5-2.66-3.09-4.25-3.02-5.75.06-1.19,2.72-3.45,3.23-3.21,1.63.8,3.54,2.38,3.89,3.98.23,1.05-2.07,2.64-4.1,4.97Z"/>
        <path class="cls-1" d="M360.14,531.89c1.15,1.98,2.41,3.29,2.13,3.86-.63,1.31-2.01,2.25-3.09,3.35-.74-.83-2.23-1.88-2.06-2.46.4-1.41,1.57-2.59,3.02-4.75Z"/>
        <path class="cls-1" d="M247.23,599.92c-4.75-.22-9.32-4.2-9.11-7.92.26-4.66,4.82-9.52,8.84-9.42,3.92.09,8.17,5.43,8.02,10.06-.14,4.31-3.52,7.48-7.75,7.28Z"/>
      </g>
    </g>
  </g>
</svg>