<?xml version="1.0" encoding="UTF-8"?>
<svg xmlns="http://www.w3.org/2000/svg" width="800" height="800" version="1.1" viewBox="0 0 800 800">
  <!-- Generator: Adobe Illustrator 28.7.3, SVG Export Plug-In . SVG Version: 1.2.0 Build 164)  -->
  <g>
    <g id="Camada_1">
      <path d="M326.08,263.3c3.13-12.89,5.2-24.48,8.81-35.56,5.73-17.64,15.93-22.52,34.19-15.7,12.2,4.56,23.61,11.24,37.51,18.02,9.39-8.06,20.14-17.29,32.55-27.95,8.2,8.33,15.01,15.23,22.96,23.31-7.11,13.42-13.58,25.64-22.34,42.18,13.56,0,21.99-.35,30.39.06,71.06,3.43,120.51,73.27,95.83,140.2-17.2,46.64-40.29,91.41-70.75,131.16-10.28,13.41-26.06,23.09-40.58,32.57-6.91,4.51-17.56,7.87-25.09,6-23.37-5.82-45.83-3-69.17-.58-11.56,1.2-25.87-6.07-35.99-13.51-12.71-9.34-24.61-21.41-32.97-34.74-21-33.49-42-67.3-59.03-102.88-34.92-72.98,1.8-142.05,82.17-158.76,2.79-.58,5.46-1.78,11.5-3.8ZM323.91,290.44c-20.9,1.68-35.83,6.92-48.58,17.8-24.2,20.66-45.39,58.58-24.75,98.66,20.08,39.01,43.01,76.56,64.99,114.57,2.88,4.98,7.41,9.05,11.42,13.32,14.29,15.21,31.67,22.69,51.42,13.74,13.7-6.21,24.73-3.21,37.59,1.26,18.13,6.29,34.8.88,48.43-12.46,6.25-6.11,12.98-12.39,17.11-19.9,20.47-37.19,41.43-74.22,59.74-112.48,16.7-34.91,5.25-66.05-20.72-92.02-24.7-24.7-54.49-29.52-84.51-12.21-28.84,16.64-55.01,14.73-82.89-.83-9.92-5.54-22-7.21-29.25-9.45ZM361.31,235.77c-8.25,21.51-4.91,36.89,13.64,46.19,5.09,2.55,12.54.39,20.18.39-1.07-23.17-8.94-38.11-33.82-46.58Z"/>
    </g>
  </g>
</svg>