<?xml version="1.0" encoding="UTF-8"?>
<svg xmlns="http://www.w3.org/2000/svg" width="800" height="800" version="1.1" viewBox="0 0 800 800">
  <defs>
    <style>
      .cls-1 {
        stroke-miterlimit: 10;
        stroke-width: 12px;
      }

      .cls-1, .cls-2 {
        fill: none;
        stroke: #000;
      }

      .cls-2 {
        stroke-linecap: round;
        stroke-linejoin: round;
        stroke-width: 14px;
      }
    </style>
  </defs>
  <!-- Generator: Adobe Illustrator 28.7.3, SVG Export Plug-In . SVG Version: 1.2.0 Build 164)  -->
  <g>
    <g id="Camada_1">
      <path d="M214.14,392.92c.53-98.95,82.85-178.9,183.61-178.32,95.73.55,175.14,81.26,176.06,176.08.99,103.02-82.26,186.12-186.82,183.73-94.8-2.17-172.76-82.72-172.85-181.48ZM235,393.05c-2.66,70.98,54.81,157.7,154.91,160.8,79.63,2.47,157.35-56.15,163.13-152.75,5.49-91.94-66.59-161.97-150.53-165.85-82.71-3.82-162.05,51.56-167.51,157.8Z"/>
      <path d="M556.02,139.48c-.87,1.67-1.6,3.44-2.64,4.99-16.64,24.81-33.18,49.7-50.25,74.21-1.6,2.3-8.76,3.99-9.77,2.83-3.29-3.75-8.15-10.89-6.7-13.3,15.6-25.98,32.07-51.46,49.04-76.58,1.61-2.39,8.41-2.29,12.55-1.66,4.08.62,7.83,3.38,11.73,5.2l-3.95,4.3Z"/>
      <path d="M303.32,212.5c-2.03,2.43-3.74,6.1-6.56,7.44-2.94,1.4-7.32,1.55-10.37.4-2.77-1.04-5.15-4.24-6.77-7.03-12.71-21.76-25.26-43.61-37.72-65.52-4.05-7.12-6.27-14.27,2.95-19.53,9.24-5.26,13.26,1.85,16.8,7.84,12.58,21.29,24.76,42.81,36.92,64.34,1.83,3.24,2.79,6.98,4.75,12.06Z"/>
      <path d="M405.43,149.66c0,11.19-.06,23.51.02,35.84.05,7.05-1.72,11.7-10.26,11.89-7.76.17-11.81-2.69-11.88-10.36-.26-25.6-.65-51.2-.34-76.79.09-7.56,3.29-13.93,13.04-13.18,9.32.71,11.9,6.27,11.43,14.52-.7,12.3-1.31,24.6-2.02,38.08Z"/>
      <path d="M405.16,652.18c0,13.35.8,26.78-.46,40.01-.41,4.28-6.22,8.05-9.56,12.06-3.76-3.36-10.62-6.59-10.78-10.11-1.26-29-1.54-58.05-1.15-87.07.03-2.16,8.03-6.42,11.54-5.73,3.99.79,9.81,5.81,10.12,9.41,1.19,13.72.48,27.61.48,41.44-.07,0-.13,0-.2,0Z"/>
      <path d="M248.83,658.02c-8.42.21-15.8-10.77-11.57-17.65,14.38-23.4,29.4-46.44,45.04-69.01,1.64-2.36,9.78-2.27,13.51-.46,2.92,1.42,6.26,8.9,5,10.92-15.58,24.87-31.95,49.24-48.25,73.66-.93,1.39-2.97,2.03-3.73,2.53Z"/>
      <path d="M535.54,663.19c-1.57-4.08-2.6-8.47-4.79-12.18-12.52-21.22-25.17-42.36-38.08-63.34-4.92-7.98-4.26-13.83,4.06-18.89,9.06-5.51,12.02,1.89,15.27,7.16,12.43,20.15,24.73,40.4,36.45,60.97,5.37,9.42.67,20.55-7.89,21.24-1.68,1.68-3.36,3.36-5.03,5.04Z"/>
      <path d="M656.23,538.72c.42,9.74-8.72,16.17-16.4,11.46-21.48-13.17-42.59-26.97-63.39-41.2-2.78-1.9-5.15-9.55-3.73-11.32,2.61-3.23,9.8-6.87,12.29-5.45,23.06,13.16,45.57,27.31,68.1,41.4,1.75,1.09,2.42,3.9,3.13,5.11Z"/>
      <path d="M139.34,404.08c-12.33,0-24.67-.08-37,.03-8.3.07-13.58-4.25-11.49-12.02,1.14-4.23,7.56-9.93,11.68-9.99,25.12-.4,50.28.31,75.38,1.55,3.46.17,8.65,4.85,9.56,8.35,1.76,6.74-1.39,11.99-9.72,11.94-12.8-.08-25.61-.02-38.41-.02v.16Z"/>
      <path d="M657.52,249.41c-1.34,1.65-3.23,5.78-6.43,7.64-20.96,12.21-41.97,24.37-63.6,35.29-3.06,1.55-10.33-2.98-14.08-6.41-1.18-1.07,1.57-9.66,4.58-11.58,18.81-12.04,38.03-23.46,57.47-34.48,11.61-6.58,21.49-2.94,22.06,9.55Z"/>
      <path d="M209.66,298.74c-24-15.3-48.47-30.6-72.44-46.65-2.32-1.55-3.08-10.69-1.85-11.36,4.57-2.51,11.6-5.58,15.31-3.7,12.67,6.42,24.3,14.88,36.36,22.52,7.24,4.58,14.54,9.07,21.8,13.62,13.58,8.52,13.78,10.43.82,25.57Z"/>
      <path d="M141.26,551.83c-2.41-2.59-7.02-5.32-7.41-8.55-.44-3.69,1.78-9.44,4.76-11.5,14.44-9.92,29.56-18.82,44.35-28.24,6.39-4.07,12.09-9.83,19-12.23,3.74-1.3,10.4,1.8,13.73,5.01,1.78,1.71.77,10.15-1.54,11.67-21.72,14.32-43.98,27.82-66.14,41.47-1.56.96-3.54,1.26-6.77,2.37Z"/>
      <path d="M643.37,404.68c-10.01,0-20.02-.03-30.03,0-7.08.03-13.42-.2-13.47-10.18-.04-8.76,3.75-11.52,12.11-11.58,21.45-.15,42.9-1.19,64.36-1.4,7.72-.07,17.57,1.12,16.32,10.96-.55,4.32-10.29,9.59-16.47,10.6-10.69,1.74-21.86.48-32.83.48,0,.37,0,.73,0,1.1Z"/>
      <circle class="cls-1" cx="494.19" cy="405.41" r="19.05"/>
      <circle class="cls-1" cx="299.19" cy="405.41" r="19.05"/>
      <circle cx="326.4" cy="363.34" r="19.05"/>
      <circle cx="456.08" cy="363.34" r="19.05"/>
      <path class="cls-2" d="M334,405.41s5,40.07,59.98,40c52.06-.07,62.11-41.3,62.11-41.3"/>
    </g>
  </g>
</svg>