<?xml version="1.0" encoding="UTF-8"?>
<svg xmlns="http://www.w3.org/2000/svg" width="800" height="800" version="1.1" viewBox="0 0 800 800">
  <!-- Generator: Adobe Illustrator 28.7.3, SVG Export Plug-In . SVG Version: 1.2.0 Build 164)  -->
  <g>
    <g id="Camada_1">
      <g>
        <g>
          <path d="M312.33,413.55c-5.65-3.68-7.98-15.24-5.18-27.2.02-.09.06-.21.08-.3,1.9,1.99,3.89,3.98,5.93,5.95l.17.04c-1.16,6.81-1.56,14.08-.99,21.51Z"/>
          <path d="M363.13,504.83c-16.23,0-33.69-5.54-48.29-21.11-19.39,2.9-37.41-10.85-42.77-32.86-1.25-5.11-1.69-10.39-1.31-15.67.04-.57.42-1.06.96-1.24.54-.18,1.14-.01,1.51.42,8.65,10.12,17.88,9.25,27.65,8.33,6.78-.63,13.79-1.29,20.39,2.08.51-.03,1.04.27,1.29.77,1.41,2.78,2.98,5.45,4.66,7.97,15.85-4.71,28.52,2.93,34.73,7.98,3.18,2.58,6.37,6.05,9.76,9.72,8.85,9.61,18.88,20.51,31.81,18.55.64-.09,1.28.26,1.52.87.24.61.04,1.3-.5,1.68-9.64,6.76-24.88,12.51-41.41,12.51ZM315.35,480.82c.39,0,.79.16,1.06.46,26.24,28.51,62.36,22.78,82.17,11.48-11.73-.94-20.81-10.79-28.95-19.62-3.31-3.6-6.44-6.99-9.46-9.45-5.9-4.8-18.05-12.1-33.1-7.17-.59.19-1.25-.03-1.6-.54-1.83-2.67-3.54-5.51-5.08-8.47-5.99-3.24-12.43-2.64-19.26-2-9.23.87-18.76,1.77-27.7-6.81-.01,3.88.44,7.73,1.36,11.5,4.33,17.8,19.59,34.04,40.32,30.65.08-.01.15-.02.23-.02Z"/>
          <g>
            <path d="M105.93,437.87c-.1,0-.2-.01-.3-.03-4.32-.93-7.41-6.52-7.35-13.31.06-7.05,3.55-12.73,8.11-13.23.76-.1,1.47.47,1.55,1.25.08.77-.47,1.47-1.25,1.55-3.04.33-5.55,5.02-5.6,10.46-.05,5.28,2.2,9.9,5.12,10.53.76.16,1.24.91,1.08,1.67-.14.66-.73,1.11-1.38,1.11Z"/>
            <path d="M98.87,478.65c-.12,0-.44-.03-.56-.06-4.68-.79-7.46-7.22-6.2-14.61.58-3.4,1.94-6.47,3.83-8.66,2.07-2.39,4.54-3.48,6.95-3.06.23.03.5.1.74.2.72.3,1.05,1.13.75,1.85-.3.71-1.13,1.05-1.85.75-2.02-.34-3.66,1.17-4.47,2.11-1.56,1.81-2.69,4.39-3.19,7.29-.96,5.64.88,10.85,4.01,11.39.78,0,1.39.63,1.39,1.41s-.65,1.41-1.42,1.41Z"/>
            <path d="M91.68,527.56c-.27,0-.54-.02-.81-.05-5.4-.64-8.88-7.74-7.89-16.16,1-8.42,6.03-14.51,11.47-13.91.44.05.86.15,1.29.3.73.26,1.12,1.06.86,1.8-.26.73-1.07,1.12-1.8.86-.22-.08-.44-.13-.67-.15-3.74-.45-7.56,4.81-8.35,11.44-.78,6.62,1.72,12.59,5.45,13.04.31.04.6.04.88,0,.77-.11,1.48.43,1.58,1.21.1.77-.44,1.48-1.21,1.58-.27.04-.54.05-.81.05Z"/>
            <path d="M96.01,587.99c-2.13,0-4.35-1.02-6.36-2.97-2.37-2.29-4.22-5.64-5.21-9.43-1.32-5.02-.93-10.05,1.05-13.43,1.13-1.92,2.7-3.19,4.56-3.68.84-.21,1.69-.26,2.54-.15.77.11,1.31.82,1.2,1.59-.11.77-.83,1.31-1.59,1.2-.49-.07-.96-.04-1.45.08-1.41.37-2.32,1.49-2.83,2.37-1.59,2.71-1.88,7.04-.76,11.3.86,3.3,2.44,6.19,4.44,8.12,1.81,1.75,3.72,2.48,5.39,2.05.39-.09.72-.25,1.07-.48.65-.43,1.52-.27,1.96.37s.27,1.52-.37,1.96c-.63.43-1.27.71-1.96.88-.55.14-1.1.21-1.67.21Z"/>
            <path d="M164.29,345.97c-.16,0-.32-.03-.47-.08-1.62-.57-3.21-1.42-4.73-2.51-5.49-4.03-8.09-10.27-6.2-14.84.3-.72,1.12-1.06,1.84-.76.72.3,1.06,1.12.76,1.84-1.38,3.34.88,8.27,5.26,11.49,1.29.93,2.65,1.65,4.01,2.13.73.26,1.12,1.06.86,1.8-.21.58-.75.94-1.33.94Z"/>
            <path d="M98.29,353.47c-2.87,0-5.53-.82-7.48-2.43-.6-.49-.68-1.38-.19-1.98.49-.6,1.38-.69,1.98-.19,2.47,2.04,6.79,2.36,10.75.79,5.06-2,8.21-6.45,7.16-10.13-.21-.75.22-1.53.97-1.74.75-.21,1.53.22,1.74.97,1.46,5.14-2.33,10.96-8.83,13.52-2.02.8-4.11,1.19-6.1,1.19Z"/>
            <path d="M131.83,337.99c-4.07,0-7.79-1.31-10.13-3.64-.55-.55-.55-1.44,0-1.99.55-.55,1.44-.55,1.99,0,2.24,2.24,6.28,3.25,10.52,2.64,5.31-.8,9.6-4.11,9.97-7.69.08-.78.79-1.35,1.54-1.25.77.08,1.34.77,1.26,1.54-.51,4.9-5.7,9.18-12.36,10.18-.94.14-1.88.2-2.79.2Z"/>
            <path d="M74.04,355.57c-5.64,0-11.09-1.29-16.04-3.87-7.57-3.94-13.22-10.5-14.76-17.12-2.58-11,2.94-13.25,4.7-13.68.76-.18,1.52.28,1.7,1.03.18.76-.28,1.52-1.03,1.7-2.99.73-3.97,4.58-2.62,10.3,1.34,5.76,6.57,11.76,13.32,15.27,8.63,4.49,18.94,4.72,29.02.66.95-.37,1.86-.78,2.8-1.2,5.66-2.52,11.32-5.76,16.79-8.89l3.25-1.86c3.25-1.85,7.08-3.99,10.92-5.83,9.06-4.38,16.54-6.31,23.54-6.03,3.18.15,6.13.7,9.02,1.69,4.22,1.4,8.25,3.67,12.31,6.94.61.49.7,1.37.21,1.98-.49.61-1.38.7-1.98.21-3.79-3.05-7.54-5.16-11.44-6.46-2.65-.91-5.34-1.41-8.24-1.54-6.51-.25-13.57,1.58-22.2,5.76-3.76,1.8-7.54,3.91-10.75,5.74l-3.25,1.85c-5.53,3.17-11.25,6.45-17.04,9.02-.97.44-1.93.86-2.91,1.24-5.11,2.06-10.3,3.09-15.32,3.09Z"/>
            <g>
              <path d="M192.85,275.14c-.88,0-1.68-.33-2.32-.96-.31-.31-.55-.66-.7-1.05-.18-.39-.26-.83-.26-1.27,0-.85.35-1.71.96-2.32,1.23-1.22,3.44-1.22,4.64,0,.61.61.96,1.47.96,2.32,0,.44-.07.87-.24,1.27-.15.4-.39.75-.72,1.05-.61.63-1.44.96-2.32.96Z"/>
              <path d="M74.89,328.31c-1.18-1.38-1.01-3.46.37-4.62v-.02c1.36-1.18,3.44-1.01,4.62.37h0c1.18,1.38,1.03,3.44-.35,4.62h0c-.63.52-1.38.79-2.14.79h0c-.92,0-1.84-.37-2.49-1.14ZM98.85,302.82c-1.4-1.16-1.6-3.22-.44-4.64v.02c1.14-1.4,3.22-1.6,4.62-.46h0c1.4,1.16,1.6,3.22.44,4.62h0c-.63.79-1.58,1.2-2.54,1.2h0c-.72,0-1.47-.24-2.08-.74ZM122.81,277.41c-.98-1.53-.55-3.57.99-4.55h0c1.53-.99,3.57-.53,4.53.98h0c.99,1.53.55,3.57-.98,4.55h0c-.55.35-1.16.5-1.77.5h0c-1.07,0-2.12-.53-2.76-1.49ZM155.37,265.64c-.07-1.82,1.36-3.32,3.17-3.39h0c1.82-.07,3.33,1.36,3.39,3.17h0c.04,1.82-1.38,3.32-3.2,3.39h-.11c-1.75,0-3.22-1.4-3.26-3.17Z"/>
              <path d="M48.26,325.55c-.88,0-1.68-.35-2.32-.96-.31-.33-.55-.68-.7-1.07-.18-.39-.26-.81-.26-1.25,0-.22.02-.44.07-.66.04-.2.11-.41.2-.61.09-.2.18-.4.31-.57.11-.18.24-.35.39-.48.15-.15.33-.31.5-.41.18-.13.37-.22.57-.31.2-.09.39-.15.61-.18.42-.09.85-.09,1.29,0,.2.02.42.09.61.18.2.09.37.18.57.31.18.11.33.26.48.41.15.13.31.31.42.48.13.18.22.37.31.57.09.2.15.41.18.61.04.22.07.44.07.66,0,.44-.07.85-.24,1.25-.15.4-.39.74-.72,1.07-.61.61-1.44.96-2.32.96Z"/>
            </g>
            <path d="M245.42,305.7c-1.51,0-2.87-.4-4.02-1.24-1.44-1.05-2.38-2.71-2.71-4.81-.69-4.36,1.27-10.35,5.11-15.63,2.26-3.11,4.96-5.69,7.81-7.46.66-.41,1.53-.2,1.94.45.41.66.21,1.53-.45,1.94-2.54,1.58-4.97,3.9-7.02,6.73-3.37,4.63-5.18,9.94-4.61,13.54.22,1.36.75,2.36,1.59,2.97,2.62,1.9,7.83-.2,12.38-4.99.54-.56,1.43-.59,1.99-.05.56.54.59,1.43.05,1.99-4.04,4.25-8.44,6.57-12.06,6.57Z"/>
            <path d="M250.15,238.79c-.38,0-.75-.03-1.11-.1-5.56-.97-8.66-9.04-7.04-18.37,1.04-5.9,3.85-11.04,7.33-13.44.64-.44,1.52-.28,1.96.36.44.64.28,1.52-.36,1.96-2.88,1.99-5.24,6.43-6.15,11.61-1.3,7.51.88,14.43,4.77,15.11.57.1,1.16.06,1.79-.13.74-.22,1.53.2,1.75.94.23.74-.2,1.53-.94,1.75-.68.2-1.35.31-2,.31Z"/>
            <path d="M441.13,392.07c-.78,0-1.41-.63-1.41-1.41,0-.32.11-.62.3-.87,4.5-6.8,8.48-13.09,12.18-19.23,8.68-14.37,16.29-28.72,22.62-42.65,6.68-14.62,12.05-29.08,15.98-42.97.21-.75.99-1.18,1.74-.97.75.21,1.18.99.97,1.74-3.96,14.03-9.39,28.62-16.12,43.38-6.37,14.03-14.03,28.48-22.77,42.94-3.73,6.19-7.75,12.54-12.29,19.4-.06.09-.14.18-.22.26-.25.24-.6.39-.97.39Z"/>
            <path d="M500.2,237.53s-.03,0-.05,0c-.78-.03-1.39-.68-1.36-1.45.06-1.69.07-3.38.07-5.04,0-.78.63-1.41,1.41-1.41s1.41.63,1.41,1.41c0,1.69-.02,3.41-.08,5.13-.03.76-.65,1.36-1.41,1.36Z"/>
            <path d="M499.65,218.83c-.72,0-1.33-.55-1.4-1.28-.5-5.4-1.3-10.68-2.39-15.67-.17-.76.32-1.51,1.07-1.68.76-.16,1.51.32,1.68,1.07,1.12,5.11,1.94,10.5,2.45,16.02.07.77-.5,1.46-1.27,1.53-.04,0-.09,0-.13,0Z"/>
            <path d="M492.01,185.78c-.56,0-1.1-.34-1.31-.9-1.88-4.82-4.16-9.55-6.77-14.05-5.83-9.98-13.32-18.72-22.27-25.97-.6-.49-.7-1.38-.21-1.98.49-.6,1.38-.7,1.98-.21,9.21,7.46,16.92,16.46,22.93,26.74,2.69,4.63,5.04,9.49,6.97,14.45.28.72-.08,1.54-.8,1.82-.17.06-.34.1-.51.1Z"/>
            <g>
              <path d="M351.34,125.68c-.44,0-.85-.09-1.25-.24-.39-.18-.77-.42-1.07-.72-.31-.31-.55-.66-.7-1.05-.18-.41-.26-.83-.26-1.27,0-.22.02-.44.07-.63.04-.22.11-.41.2-.61.07-.2.18-.4.28-.57.13-.17.26-.35.42-.5.15-.15.33-.28.5-.42.17-.11.37-.22.57-.28.2-.09.39-.15.61-.2,1.07-.2,2.19.13,2.95.9.15.15.29.33.42.5.11.18.22.37.31.57.07.2.13.39.18.61.04.2.07.42.07.63,0,.44-.09.85-.24,1.27-.18.4-.42.74-.72,1.05-.61.63-1.44.96-2.32.96Z"/>
              <path d="M436.2,131.83c-1.66-.72-2.45-2.65-1.73-4.31h0c.7-1.66,2.63-2.45,4.31-1.75h0c1.66.72,2.43,2.65,1.73,4.31h0c-.52,1.25-1.75,1.99-3.02,1.99h0c-.44,0-.88-.06-1.29-.24ZM408.89,123.93c-1.79-.31-3-2.01-2.69-3.81h0c.31-1.77,2.01-2.97,3.79-2.67h0c1.79.31,3,2.01,2.69,3.79h0c-.28,1.6-1.66,2.74-3.24,2.74h0c-.18,0-.37-.02-.55-.04ZM377.03,118.68c-.07-1.79,1.38-3.31,3.19-3.35h0c1.82-.04,3.3,1.38,3.35,3.19h0c.04,1.82-1.38,3.32-3.19,3.37h-.09c-1.77,0-3.22-1.42-3.26-3.22Z"/>
              <path d="M462.54,147.04c-.88,0-1.71-.33-2.32-.96-.31-.31-.55-.66-.72-1.05-.15-.4-.24-.83-.24-1.27,0-.2.02-.42.07-.63.04-.22.11-.42.2-.61.07-.2.17-.39.28-.57.13-.18.26-.35.42-.5.77-.77,1.9-1.09,2.95-.9.22.04.42.11.61.2.2.09.39.18.57.31.2.11.35.24.5.39.15.15.28.33.42.5.11.18.22.37.31.57.07.2.13.39.17.61.04.22.07.44.07.63,0,.44-.09.87-.24,1.27-.18.39-.42.74-.72,1.05-.31.33-.66.57-1.07.72-.39.15-.81.24-1.25.24Z"/>
            </g>
            <path d="M313.16,393.4c-.35,0-.7-.13-.98-.39-2.14-2.06-4.15-4.08-5.97-6-2.9-2.99-5.76-6.11-8.49-9.27-17.77-20.53-30.91-43.2-39.05-67.37-1.35-4.01-2.56-8-3.58-11.86-1.79-6.82-3.19-13.74-4.14-20.57-2.75-19.12-1.56-33.9-.6-41l.11-.82c1.02-7.1,2.97-14.96,5.64-22.73.25-.73,1.06-1.12,1.79-.87.74.25,1.13,1.05.87,1.79-2.61,7.61-4.52,15.29-5.51,22.21l-.11.79c-.94,6.96-2.1,21.45.6,40.23.94,6.72,2.31,13.54,4.08,20.25,1,3.8,2.19,7.73,3.52,11.68,8.03,23.82,20.98,46.17,38.51,66.43,2.7,3.11,5.52,6.19,8.39,9.16,1.8,1.9,3.78,3.88,5.9,5.92.56.54.58,1.43.04,1.99-.28.29-.65.43-1.01.43Z"/>
            <path d="M204.69,165.95c-.38,0-.77-.16-1.05-.47-4.16-4.61-7.35-14.18-8.89-19.47-1.19-4.07-2.24-8.53-3.04-12.89-.11-.63.21-1.25.78-1.52.57-.28,1.26-.13,1.67.35.12.14,12.18,13.91,32.43,11.94.76-.06,1.46.49,1.54,1.27.07.77-.49,1.46-1.27,1.54-15.54,1.49-26.4-5.43-31.52-9.72.62,2.82,1.33,5.62,2.1,8.25,2.5,8.62,5.51,15.31,8.27,18.38.52.58.47,1.47-.1,1.99-.27.24-.61.36-.94.36Z"/>
            <path d="M243.67,119.21c-.71,0-1.32-.54-1.4-1.26-.54-5.14-1.49-10.52-2.82-15.97-.15-.63.14-1.27.71-1.58.57-.3,1.27-.18,1.7.29.64.69,15.83,16.97,34.04,7.96,13.31-6.59,6.25-28.48,3.6-36.71l-.38-1.17c-.18-.58.03-1.22.53-1.57.5-.35,1.17-.35,1.66.03.07.05,6.64,4.96,16.42,9.87.69.35.98,1.19.63,1.89-.35.69-1.19.97-1.89.63-5.82-2.92-10.47-5.8-13.4-7.74,3.17,10.27,8.14,30.34-5.91,37.31-14.83,7.33-27.99-.7-33.97-5.51.85,4.08,1.49,8.1,1.9,11.99.08.77-.48,1.46-1.25,1.54-.05,0-.1,0-.15,0Z"/>
            <path d="M261.41,217.72c-.16,0-.32-.03-.48-.09-.18-.07-.37-.15-.57-.25-.02,0-.23-.11-.25-.12-.91-.47-2.03-1.19-3.51-2.28-1.85-1.32-4.2-3.19-7.38-5.88-14.57-12.36-36.72-34.09-45.57-43.61-.53-.57-.5-1.46.07-1.99.5-.47,1.26-.5,1.79-.11.15.1.28.23.38.38,8.92,9.57,30.75,30.97,45.14,43.18,3.12,2.64,5.41,4.46,7.21,5.75,1.36.99,2.38,1.66,3.15,2.05l.19.09c.11.05.21.1.3.14.73.26,1.11,1.07.84,1.8-.21.57-.75.93-1.32.93Z"/>
            <path d="M269.85,219.23c-3.41,0-6.27-.52-8.97-1.61-.72-.29-1.07-1.11-.78-1.83.29-.72,1.12-1.06,1.83-.78,7.11,2.88,15.47,1.43,38.66-4.71,21.67-5.74,46.55-25.34,54.86-36.87,8.05-11.21,9.25-17.12,1.67-34.7-1.72-3.97-4.1-9.27-7.06-15.74-7.65-16.61-17.1-36.35-18.88-40.06-17.49-3.99-30.45-11.48-36.66-15.61,1.42,3.77,2.77,8.12,3.93,12.69,5.84,22.76,6.92,49.16-7.56,55.02-14.02,5.66-33.88-5.62-48.07-16.09-8.14-6-16.78-13.51-25-21.72-.22-.22-.36-.51-.4-.82-1.46-11.59-5.25-19.54-10.14-21.27-2.13-.75-4.31-.19-6.16,1.58-1.6,1.53-3.01,4.47-2.18,8.15.7,3.11,3.66,8.93,15.56,12.87.37.12.67.39.84.75,4.58,10.01,11.58,31.12,12.79,46.73.37,4.74.18,8.68-.56,11.71-1.64,6.69-4.62,10.86-8.85,12.36-6.53,2.32-13.51-2.56-14.84-3.56-.62-.47-.75-1.35-.28-1.97s1.35-.75,1.97-.28c.69.52,6.92,5.05,12.2,3.16,3.28-1.17,5.66-4.66,7.06-10.38.67-2.74.84-6.38.49-10.82-1.17-14.98-7.8-35.2-12.3-45.22-12.73-4.39-16.01-11.09-16.83-14.73-.91-4.03.23-8.17,2.98-10.8,2.61-2.51,5.91-3.31,9.05-2.2,5.93,2.1,10.26,10.5,11.93,23.09,8.01,7.98,16.42,15.27,24.34,21.11,19.24,14.19,35.34,19.79,45.34,15.74,12.81-5.18,11.17-31.09,5.88-51.71-1.63-6.42-3.64-12.39-5.66-16.81-.27-.59-.1-1.29.42-1.7s1.24-.39,1.75.01c.16.13,16.07,12.76,40.23,18.12.42.09.78.37.96.77.11.22,10.75,22.37,19.19,40.71,2.97,6.49,5.36,11.8,7.09,15.8,8,18.56,6.53,25.63-1.97,37.46-8.37,11.62-33.27,31.82-56.42,37.95-15.02,3.98-24.41,6.21-31.47,6.21Z"/>
            <path d="M313.92,427.15c-.11,0-.21-.01-.32-.04-17.1-3.97-21.53-21.48-20.13-35.27.52-5.38,1.91-10.77,4.03-15.59.31-.71,1.14-1.03,1.86-.72s1.03,1.14.72,1.85c-2,4.55-3.32,9.65-3.81,14.74-1.35,13.26,2.67,28.69,17.97,32.24.76.18,1.23.93,1.05,1.69-.15.65-.73,1.09-1.37,1.09Z"/>
            <path d="M326.63,456.59c-.45,0-.89-.21-1.16-.61-1.97-2.87-3.8-5.95-5.43-9.15-3.32-6.51-5.8-13.52-7.37-20.82-.88-4.16-1.47-8.32-1.75-12.36-.56-7.32-.22-14.67,1.01-21.85,1.28-7.53,3.57-14.84,6.64-21.12.34-.7,1.19-.99,1.88-.65.7.34.99,1.18.65,1.88-2.95,6.05-5.16,13.09-6.39,20.36-1.19,6.95-1.52,14.07-.98,21.17.27,3.92.85,7.95,1.7,11.98,1.52,7.06,3.91,13.84,7.12,20.13,1.58,3.09,3.34,6.06,5.24,8.83.44.64.28,1.52-.37,1.96-.24.17-.52.25-.79.25Z"/>
            <path d="M412.25,442.1c-6.13,0-11.01-3.19-14.11-9.22-6.66-12.96-3.62-37.35,6.39-51.16,5.96-8.22,13.49-11.85,21.78-10.54,8.47,1.35,14.23,8.17,16.22,19.22,2.53,14.08-1.77,31.19-10.44,41.62-5.46,6.56-12.28,10.04-19.73,10.08h-.11ZM423.07,373.73c-7.58,0-12.96,5.09-16.26,9.64-9.48,13.08-12.41,36.06-6.16,48.22,2.64,5.13,6.49,7.72,11.69,7.69,6.6-.03,12.68-3.17,17.58-9.07,8.05-9.68,12.19-26.21,9.84-39.32-1.02-5.66-4.18-15.39-13.89-16.93h0c-.96-.15-1.9-.23-2.8-.23Z"/>
            <path d="M660.05,174.19c-.33,0-.66-.12-.93-.35-3.84-3.38-9.44-5.21-17.13-5.62-.78-.04-1.37-.7-1.33-1.48.04-.78.69-1.41,1.48-1.33,8.35.44,14.51,2.51,18.84,6.32.58.51.64,1.4.13,1.99-.28.32-.67.48-1.06.48Z"/>
            <g>
              <path d="M453.4,374.57c-.88,0-1.68-.33-2.32-.96-.61-.61-.96-1.44-.96-2.32s.35-1.71.96-2.32c1.23-1.23,3.44-1.23,4.64,0,.61.61.96,1.47.96,2.32s-.33,1.71-.96,2.32c-.61.63-1.44.96-2.32.96Z"/>
              <path d="M482.3,387.13c-1.77-.35-2.93-2.1-2.58-3.87h0c.37-1.77,2.1-2.93,3.87-2.56h0c1.77.35,2.93,2.08,2.56,3.85h0c-.31,1.57-1.68,2.65-3.22,2.65h0c-.2,0-.42-.02-.63-.07ZM511.82,384.09c-.5-1.73.5-3.57,2.25-4.07h0c1.73-.5,3.55.5,4.05,2.23h0c.5,1.75-.48,3.57-2.23,4.07h0c-.31.11-.61.13-.9.13h0c-1.44,0-2.76-.92-3.17-2.36ZM538.93,367.39c-1.44-1.09-1.73-3.15-.63-4.59h0c1.09-1.44,3.15-1.73,4.59-.63h0c1.44,1.09,1.73,3.15.63,4.59h0c-.63.85-1.62,1.29-2.6,1.29h0c-.7,0-1.4-.22-1.99-.66ZM552,338.2c-1.82-.2-3.11-1.84-2.89-3.63h0c.2-1.79,1.82-3.08,3.63-2.89h0c1.79.22,3.09,1.84,2.89,3.63h0c-.2,1.68-1.62,2.91-3.26,2.91h0c-.13,0-.26,0-.37-.02ZM547.31,303.23c-.26-1.79.99-3.46,2.78-3.72h0c1.79-.26,3.46.96,3.72,2.76h0c.26,1.79-.96,3.46-2.76,3.74h0c-.17.02-.33.02-.48.02h0c-1.62,0-3.02-1.16-3.26-2.8ZM543.07,271.04h0c-.2-1.82,1.12-3.44,2.91-3.63h0c1.79-.2,3.41,1.12,3.61,2.91h0c.2,1.79-1.09,3.41-2.89,3.61h0c-.13.02-.24.02-.37.02h0c-1.64,0-3.06-1.23-3.26-2.91ZM540.38,238.62c-.09-1.82,1.31-3.35,3.11-3.46h0c1.82-.09,3.37,1.31,3.46,3.11h0c.11,1.82-1.29,3.37-3.11,3.46h-.15c-1.75,0-3.19-1.36-3.3-3.11ZM543.2,209.38c-1.79-.15-3.13-1.75-2.98-3.57h0c.18-1.79,1.77-3.13,3.57-2.97h0c1.82.18,3.13,1.77,2.98,3.57h0c-.15,1.71-1.57,3-3.26,3h0c-.11,0-.2,0-.31-.02ZM550.14,177.91c-1.64-.74-2.36-2.69-1.62-4.33h0v-.02h0c.77-1.64,2.71-2.36,4.35-1.6h0c1.64.74,2.39,2.69,1.62,4.33h0c-.55,1.21-1.73,1.93-2.98,1.93h0c-.46,0-.92-.09-1.38-.31ZM679.3,160.23c-.74-1.66.02-3.59,1.68-4.31h0c1.66-.74,3.59.02,4.31,1.69h0c.74,1.66-.02,3.59-1.68,4.31h0c-.44.2-.88.28-1.31.28h0c-1.27,0-2.47-.72-3-1.97ZM568.04,151.2c-1.23-1.36-1.12-3.41.24-4.64h0c1.33-1.2,3.41-1.09,4.62.24h0c1.23,1.36,1.12,3.44-.24,4.64h0c-.61.57-1.4.85-2.19.85h0c-.9,0-1.79-.37-2.43-1.09ZM659.08,138.59c-1.6-.88-2.19-2.87-1.31-4.44h0c.88-1.6,2.87-2.19,4.46-1.31h0c1.58.85,2.17,2.87,1.29,4.44h0c-.59,1.09-1.71,1.71-2.89,1.71h0c-.52,0-1.05-.11-1.55-.39ZM595.02,133.67c-.66-1.71.2-3.59,1.9-4.25h0c1.68-.63,3.59.22,4.22,1.9h0c.66,1.71-.2,3.59-1.9,4.25h0c-.37.13-.77.22-1.16.22h0c-1.33,0-2.56-.81-3.06-2.12ZM629.61,130.41c-1.82-.09-3.22-1.62-3.13-3.41h0c.07-1.82,1.6-3.22,3.41-3.15h0c1.82.09,3.22,1.62,3.13,3.44h0c-.07,1.75-1.51,3.13-3.26,3.13h-.15Z"/>
              <path d="M687.12,194.06c-.88,0-1.68-.35-2.32-.96-.61-.63-.96-1.44-.96-2.32s.35-1.73.96-2.34c.15-.13.33-.28.5-.4.18-.13.37-.22.57-.31.2-.09.39-.15.61-.2.42-.09.85-.09,1.29,0,.2.04.42.11.61.2s.37.18.57.31c.18.11.33.26.48.4.61.61.96,1.47.96,2.34s-.33,1.69-.96,2.32c-.31.31-.66.55-1.05.7-.39.18-.83.26-1.27.26Z"/>
            </g>
            <path d="M674.18,220.14c-1.91,0-4.49-.88-6.79-4.66-2.13-3.5-1.95-8.98-1.75-15.33.3-9.38.64-20.02-6.52-26.3-.58-.51-.64-1.4-.13-1.99.51-.59,1.4-.64,1.99-.13,8.16,7.16,7.78,18.99,7.48,28.51-.18,5.65-.35,10.99,1.34,13.77,1.08,1.79,2.87,3.8,5.24,3.2,4.53-1.13,9.82-10.81,10.68-26.52.04-.78.68-1.4,1.48-1.33.78.04,1.37.71,1.33,1.48-.85,15.46-6.11,27.42-12.8,29.1-.43.11-.95.19-1.54.19Z"/>
            <path d="M616.92,450.36c-.33,0-.66-.12-.93-.35-.58-.51-.64-1.4-.13-1.99,1.74-1.98,3.12-3.6,4.33-5.12.49-.61,1.37-.7,1.98-.21.61.49.7,1.37.21,1.98-1.24,1.54-2.65,3.2-4.41,5.21-.28.32-.67.48-1.06.48Z"/>
            <path d="M577.88,483.9c-.45,0-.9-.22-1.17-.62-.43-.65-.26-1.52.38-1.96,12.14-8.17,22.96-17,32.15-26.25.55-.55,1.44-.56,1.99,0,.55.55.55,1.44,0,1.99-9.32,9.38-20.28,18.33-32.57,26.61-.24.16-.51.24-.79.24Z"/>
            <path d="M644.12,406.07c-.16,0-.33-.03-.49-.09-.73-.27-1.1-1.08-.82-1.81,6.79-18.12,9.08-37.19,6.83-56.67-1.21-10.5-3.34-21.78-6.52-34.49-2.39-9.55-5.42-20.1-9.27-32.28-.96-3.04-1.95-6.13-3-9.31-.77-2.32-1.53-4.6-2.32-6.82-.98-2.77-1.95-5.47-2.91-8.12-2.62-7.23-5.09-14.06-6.97-20.76-1.48-5.24-2.44-9.91-2.95-14.28-.84-7.18-.5-13.87,1.06-20.44.7-2.92,1.64-5.72,2.81-8.31.32-.71,1.15-1.02,1.86-.71.71.32,1.02,1.15.71,1.86-1.09,2.43-1.98,5.05-2.64,7.8-1.48,6.25-1.81,12.61-1,19.46.49,4.22,1.43,8.75,2.87,13.84,1.85,6.6,4.31,13.39,6.91,20.56.96,2.66,1.94,5.37,2.92,8.15.79,2.24,1.56,4.54,2.34,6.88,1.05,3.2,2.05,6.3,3.01,9.35,3.87,12.23,6.91,22.84,9.31,32.44,3.21,12.83,5.36,24.23,6.58,34.85,2.31,19.93-.04,39.44-6.99,57.98-.21.57-.75.91-1.32.91Z"/>
            <path d="M620.86,194.67c-.19,0-.39-.04-.58-.13-.71-.32-1.02-1.15-.7-1.86,3.25-7.19,8.39-13.02,14.89-16.87,6.66-3.95,14.53-5.72,22.16-4.98,1.2.11,2.46.3,3.72.57.76.16,1.25.91,1.09,1.67-.16.76-.91,1.24-1.67,1.09-1.16-.24-2.3-.42-3.41-.52-7.06-.69-14.31.95-20.46,4.59-5.99,3.55-10.75,8.95-13.76,15.61-.24.52-.75.83-1.28.83Z"/>
            <path d="M642.24,183.75c-1.13,0-2.22-.14-3.22-.44-2.89-.87-4.7-2.96-5.22-6.05-.13-.77.38-1.49,1.15-1.62.76-.14,1.49.38,1.63,1.15.34,2.02,1.41,3.27,3.26,3.82,4.24,1.29,11.03-1.43,14.03-4.61.67-.72,1.74-2.09,1.3-3.27-.27-.73.1-1.54.83-1.81s1.54.11,1.81.83c.71,1.93.04,4.12-1.9,6.18-2.96,3.14-8.71,5.82-13.67,5.82Z"/>
            <path d="M617.1,222.68c-.73,0-1.34-.56-1.4-1.29-.06-.77.51-1.46,1.29-1.52,5.7-.47,9.5-8.04,9.75-14.79.08-2.2-.11-9.46-6.08-10.42-.68-.1-1.22-.68-1.22-1.39,0-.78.62-1.41,1.4-1.41h.02c.07,0,.15,0,.22.02,5.5.87,8.75,5.97,8.47,13.31-.3,8.12-5,16.88-12.33,17.49-.04,0-.08,0-.12,0Z"/>
            <path d="M629.85,265.54c-.38,0-.76-.15-1.04-.46-.53-.57-.49-1.46.08-1.99,5.31-4.88,4.67-14.02,1.37-20.14-2.6-4.82-6.31-7.15-9.93-6.25-.75.19-1.52-.27-1.71-1.02-.19-.75.27-1.52,1.02-1.71,4.88-1.23,9.9,1.71,13.1,7.65,3.8,7.06,4.41,17.71-1.95,23.55-.27.25-.61.37-.95.37Z"/>
            <path d="M644.47,314.08c-.48,0-.95-.25-1.21-.69-.4-.67-.18-1.53.49-1.93,6.07-3.61,5.69-13.68,2.26-21.32-2.31-5.14-6.42-9.75-10.4-8.49-.74.24-1.53-.18-1.77-.91-.24-.74.17-1.53.91-1.77,4.96-1.58,10.38,2.36,13.83,10.02,4.03,8.97,4.16,20.4-3.39,24.89-.23.13-.47.2-.72.2Z"/>
            <path d="M497.01,607.21c-1.24,0-2.49-.05-3.77-.14-27.52-1.99-39.86-28.96-42.24-53.55-1.24-12.83.08-25.63,3.63-35.11.27-.73,1.09-1.09,1.81-.82.73.27,1.1,1.08.82,1.81-3.41,9.09-4.67,21.43-3.46,33.85,2.27,23.44,13.87,49.15,39.64,51.01,12.59.91,23.42-2.98,32.18-11.55,16.73-16.37,21.54-44.86,20.47-66.06-.82-16.18-4.27-32.74-7.6-48.76-4.41-21.17-8.57-41.17-5.8-56.99,4.32-24.52,20.97-42.73,41.44-45.32.66-.08,1.34-.14,2.01-.19,2.34-.18,4.68-.17,6.95.04,13.84,1.24,25.44,7.46,32.66,17.52,8.45,11.78,10.39,28.41,5.62,48.09-.79,3.24-1.87,6.12-3.21,8.58-2.09,3.94-4.73,6.7-7.41,7.75-.72.28-1.54-.07-1.82-.8-.28-.72.07-1.54.8-1.82,2.02-.79,4.19-3.15,5.95-6.46,1.23-2.26,2.22-4.92,2.96-7.92,4.57-18.85,2.78-34.69-5.17-45.78-6.73-9.39-17.6-15.2-30.62-16.36-2.11-.19-4.29-.2-6.47-.03-.63.05-1.27.11-1.89.18-19.22,2.43-34.9,19.72-39.01,43.01-2.68,15.3,1.43,35.03,5.78,55.93,3.36,16.12,6.83,32.79,7.66,49.19,1.1,21.81-3.92,51.19-21.31,68.21-8.47,8.3-18.75,12.48-30.58,12.49Z"/>
            <g>
              <path d="M332.3,577.3c-.44,0-.85-.09-1.25-.24-.39-.18-.77-.41-1.07-.72-.61-.61-.96-1.44-.96-2.32,0-.22.02-.44.07-.63.04-.22.11-.42.2-.61s.17-.39.31-.57c.11-.18.24-.35.39-.5,1.23-1.22,3.41-1.22,4.64,0,.15.15.28.33.42.5.11.18.22.37.31.57.09.2.13.39.17.61.04.2.07.41.07.63,0,.87-.33,1.71-.96,2.32-.61.61-1.44.96-2.32.96Z"/>
              <path d="M464.1,716.93v.02c-1.82-.18-3.15-1.77-2.98-3.57h0c.15-1.82,1.75-3.15,3.57-2.97h0c1.79.15,3.13,1.75,2.95,3.55h0c-.15,1.71-1.58,3-3.26,3h0c-.09,0-.2,0-.28-.02ZM494.93,712.22c-.31-1.79.9-3.48,2.69-3.79h0c1.79-.28,3.48.92,3.79,2.71h0c.29,1.77-.92,3.48-2.71,3.76h0c-.18.04-.35.04-.55.04h0c-1.55,0-2.95-1.14-3.22-2.74ZM430.46,707.69c-1.64-.74-2.38-2.69-1.64-4.33h0c.74-1.66,2.69-2.41,4.35-1.66h0c1.64.74,2.38,2.69,1.64,4.35h0c-.55,1.2-1.75,1.93-3,1.93h0c-.46,0-.92-.09-1.36-.28ZM527.64,703.58c-.72-1.66.04-3.59,1.71-4.31h0c1.66-.72,3.61.07,4.31,1.73h0c.72,1.66-.04,3.59-1.71,4.31h0c-.42.18-.88.26-1.29.26h0c-1.29,0-2.49-.75-3.02-1.99ZM400.82,689.84h0c-1.44-1.09-1.73-3.15-.63-4.59h0c1.09-1.44,3.17-1.73,4.62-.63h0c1.44,1.09,1.71,3.15.61,4.59h0c-.63.85-1.62,1.29-2.6,1.29h0c-.7,0-1.4-.2-1.99-.66ZM557.01,686.82c-1.16-1.38-.96-3.46.44-4.62h0c1.4-1.14,3.48-.94,4.62.46h0c1.16,1.38.96,3.46-.44,4.62h0c-.61.5-1.36.74-2.08.74h0c-.94,0-1.88-.41-2.54-1.2ZM375.54,666.25c-1.18-1.38-1.03-3.46.35-4.64h0c1.36-1.18,3.44-1.03,4.62.35h0c1.18,1.38,1.03,3.44-.35,4.62h0c-.61.55-1.38.81-2.12.81h0c-.94,0-1.86-.4-2.49-1.14ZM580.38,662.4c-1.51-1.01-1.9-3.06-.9-4.55h0c1.01-1.51,3.04-1.93,4.55-.9h0c1.51,1.01,1.9,3.04.9,4.55h0c-.63.94-1.66,1.44-2.74,1.44h0c-.61,0-1.25-.18-1.82-.55ZM356.57,637.23c-.81-1.62-.15-3.61,1.47-4.42h0c1.62-.81,3.59-.15,4.42,1.47h0c.81,1.62.15,3.59-1.47,4.42h0c-.48.22-.98.35-1.47.35h0c-1.2-.02-2.36-.68-2.95-1.82ZM596.02,632.4c-1.71-.59-2.65-2.43-2.06-4.16h0c.57-1.71,2.43-2.65,4.13-2.08h0c1.73.59,2.65,2.45,2.08,4.16h0c-.46,1.38-1.73,2.25-3.11,2.25h0c-.35,0-.7-.07-1.05-.18ZM343.62,605.44h0c-.59-1.73.31-3.59,2.04-4.18h0c1.71-.59,3.57.31,4.18,2.01h0c.59,1.71-.33,3.59-2.03,4.18h0c-.35.13-.72.2-1.07.2h0c-1.36,0-2.63-.85-3.11-2.21Z"/>
              <path d="M603.72,599.25c-.88,0-1.71-.35-2.32-.96-.31-.31-.55-.68-.72-1.07-.15-.39-.24-.81-.24-1.25,0-.87.35-1.71.96-2.32.15-.15.31-.28.5-.42.18-.11.35-.22.55-.31.22-.07.42-.13.63-.18,1.05-.22,2.19.13,2.95.9.61.61.96,1.44.96,2.32s-.35,1.69-.96,2.32c-.61.61-1.44.96-2.32.96Z"/>
            </g>
            <path d="M603.72,597.37s-.08,0-.11,0c-.78-.06-1.35-.74-1.29-1.52,2.44-30.13-4.52-56.35-16.55-88.9-2.54-6.85-5.46-14.46-9.21-23.94-.25-.66-.5-1.29-.75-1.93l-.38-.95c-6.89-17.36-20.82-58.93-1.54-69.81,6.06-3.42,12.33-3.5,17.63-.22,7.18,4.44,11.48,14.19,10.93,24.83-.74,14.56,2.53,18.51,3.97,19.54.97.69,2.04.78,3.28.28.72-.29,1.54.05,1.83.77.29.72-.05,1.54-.77,1.83-2.11.86-4.23.65-5.97-.59-3.96-2.81-5.74-10.41-5.15-21.98.49-9.48-3.37-18.44-9.6-22.29-4.46-2.76-9.57-2.66-14.77.28-17.84,10.06-2.39,53.3,2.77,66.32l.37.94c.26.65.52,1.31.77,1.96,3.74,9.47,6.67,17.1,9.22,23.97,12.16,32.91,19.19,59.46,16.71,90.1-.06.74-.68,1.29-1.4,1.29Z"/>
            <path d="M501.76,452.81s-.09,0-.13,0c-.77-.07-1.34-.76-1.27-1.53,1.04-11.18,3.73-21.44,8.48-32.29.46-1.06.96-2.12,1.5-3.16.36-.69,1.21-.96,1.9-.6.69.36.96,1.21.6,1.9-.51.99-.99,1.99-1.43,2.99-4.69,10.71-7.24,20.4-8.26,31.42-.07.73-.68,1.28-1.4,1.28Z"/>
            <path d="M504.42,499.33c-.68,0-1.28-.5-1.39-1.19-1.35-8.54-2.24-16.07-2.74-23-.06-.78.53-1.45,1.3-1.5.8-.03,1.45.53,1.5,1.31.49,6.86,1.37,14.3,2.71,22.76.12.77-.4,1.49-1.17,1.61-.07.01-.15.02-.22.02Z"/>
            <path d="M512.3,546.8c-.72,0-1.33-.54-1.4-1.27-.65-6.81-1.69-13.95-3.08-21.23-.15-.76.35-1.5,1.12-1.65.76-.15,1.5.36,1.65,1.12,1.41,7.36,2.45,14.59,3.12,21.49.07.77-.49,1.46-1.27,1.54-.05,0-.09,0-.14,0Z"/>
            <path d="M493.35,607.08c-.52,0-1.02-.29-1.27-.79-.34-.7-.05-1.54.65-1.88,6.96-3.41,12.06-9.61,15.15-18.44,1.43-4.05,2.46-8.67,3.05-13.74.09-.77.78-1.33,1.56-1.24.77.09,1.33.79,1.24,1.56-.61,5.27-1.68,10.1-3.19,14.35-3.34,9.55-8.92,16.29-16.57,20.04-.2.1-.41.14-.62.14Z"/>
            <path d="M521.03,404.07c-.33,0-.66-.12-.93-.35-.58-.51-.64-1.4-.13-1.99,13.98-15.94,34.28-25.83,54.29-26.44.65-.02,1.32-.04,2-.04.78,0,1.41.63,1.41,1.41s-.63,1.41-1.41,1.41c-.64,0-1.29.02-1.91.04-19.25.59-38.78,10.11-52.26,25.48-.28.32-.67.48-1.06.48Z"/>
            <path d="M363.14,504.83c-16.41,0-34.09-5.67-48.79-21.65-1.91-2.07-3.74-4.28-5.44-6.57-.46-.63-.33-1.51.29-1.97.62-.47,1.51-.33,1.97.29,1.64,2.21,3.41,4.34,5.25,6.34,26.24,28.5,62.36,22.78,82.17,11.48-11.74-.94-20.81-10.79-28.95-19.62-3.31-3.59-6.44-6.99-9.46-9.45-5.9-4.8-18.05-12.1-33.1-7.17-3.53,1.16-7.07,2.95-10.51,5.32-.64.44-1.52.28-1.96-.36-.44-.64-.28-1.52.36-1.96,3.66-2.53,7.44-4.44,11.23-5.68,16.32-5.35,29.4,2.5,35.75,7.66,3.18,2.58,6.37,6.05,9.76,9.72,8.85,9.61,18.89,20.5,31.81,18.55.65-.09,1.28.26,1.52.87.24.61.04,1.3-.5,1.68-9.64,6.76-24.89,12.51-41.41,12.51Z"/>
            <path d="M309.85,484.09c-17.51,0-32.89-13.18-37.77-33.23-1.25-5.11-1.69-10.39-1.31-15.68.04-.57.42-1.06.96-1.24.54-.18,1.14-.01,1.51.42,8.66,10.11,17.88,9.25,27.65,8.33,6.95-.65,14.14-1.33,20.89,2.34.68.37.93,1.23.56,1.91-.37.68-1.23.93-1.91.56-6-3.26-12.45-2.65-19.28-2.02-9.24.87-18.77,1.76-27.7-6.81-.01,3.88.44,7.74,1.36,11.5,4.33,17.8,19.58,34.04,40.32,30.65.76-.13,1.49.4,1.62,1.16.13.77-.39,1.49-1.16,1.62-1.93.32-3.85.47-5.74.47Z"/>
            <path d="M182.53,574.53c-.74,0-1.36-.58-1.4-1.33-.05-.78.55-1.44,1.32-1.49,12.52-.73,23.53-14.02,34.65-41.82,7.57-18.94,15.46-35.07,23.44-47.95,6.89-11.14,13.75-19.67,20.41-25.35,4.07-3.46,8.11-5.95,12.01-7.38.73-.27,1.54.1,1.81.83.27.73-.1,1.54-.83,1.81-3.59,1.32-7.34,3.64-11.16,6.89-6.43,5.49-13.11,13.8-19.84,24.69-7.9,12.75-15.71,28.73-23.22,47.52-11.57,28.93-23.36,42.78-37.1,43.59-.03,0-.06,0-.08,0Z"/>
            <path d="M210.85,597.25c-12.25,0-22.35-7.97-29.59-23.53-10.28-22.06-11.92-52.62-12.18-61.47l-.2-7.03c-.8-28.72-1.9-68.06-8.08-93.33-1.04-4.27-2.23-8.08-3.62-11.65-.28-.72.07-1.54.8-1.82.72-.28,1.54.07,1.82.8,1.44,3.68,2.66,7.61,3.74,12,6.25,25.56,7.31,63.46,8.16,93.92l.2,7.03c.25,8.7,1.86,38.78,11.92,60.36,8.72,18.73,21.17,25.5,37.02,20.13.74-.26,1.54.14,1.79.88.25.74-.15,1.53-.88,1.78-3.79,1.28-7.42,1.92-10.88,1.92Z"/>
            <path d="M67.53,423.32c-.95,0-1.71-.22-2.24-.46-4.96-2.18-6.29-11.11-3.09-20.76.25-.74,1.04-1.14,1.78-.89.74.24,1.14,1.04.89,1.78-2.88,8.68-1.52,15.95,1.55,17.3,2.44,1.08,7.02-1.35,12.57-11.33,3.83-6.87,8.06-12.56,12.59-16.9.56-.54,1.45-.52,1.99.04.54.56.52,1.45-.04,1.99-4.32,4.15-8.38,9.62-12.08,16.24-6.01,10.81-10.93,13-13.92,13Z"/>
            <g>
              <path d="M142.68,584.5c-.44,0-.85-.09-1.25-.26-.39-.15-.74-.4-1.07-.7-.31-.31-.55-.68-.7-1.07-.18-.39-.26-.81-.26-1.25,0-.22.02-.44.07-.66.04-.2.11-.41.2-.61s.18-.37.31-.57c.11-.18.24-.35.39-.48.77-.77,1.9-1.12,2.98-.9.2.04.42.09.61.18s.37.18.57.31c.18.11.33.26.48.41.15.13.31.31.42.48.11.2.22.37.31.57s.15.41.18.61c.04.22.07.44.07.66,0,.44-.07.85-.24,1.25-.18.4-.39.77-.72,1.07-.61.61-1.44.96-2.32.96Z"/>
              <path d="M134.86,548.07c-.09-1.82,1.31-3.35,3.13-3.44h0c1.82-.09,3.35,1.31,3.44,3.13h0c.09,1.82-1.31,3.35-3.13,3.43h-.15c-1.75,0-3.19-1.38-3.28-3.13ZM138.52,517.56c-1.79-.13-3.17-1.71-3.04-3.5h0c.13-1.82,1.71-3.17,3.52-3.04h0c1.79.13,3.17,1.68,3.04,3.5h0c-.13,1.73-1.57,3.04-3.28,3.04h-.24Z"/>
              <path d="M141.91,484.06c-.44,0-.85-.09-1.25-.24-.39-.17-.77-.41-1.07-.72-.61-.61-.96-1.44-.96-2.32,0-.2.02-.41.07-.63.04-.22.11-.41.2-.61.09-.2.18-.39.31-.57.11-.18.24-.35.39-.5,1.2-1.23,3.44-1.23,4.64,0,.15.15.31.33.42.5.13.18.22.37.31.57.09.2.15.4.18.61.04.22.07.44.07.63,0,.44-.07.85-.24,1.27-.18.39-.39.74-.72,1.05-.61.61-1.44.96-2.32.96Z"/>
            </g>
            <path d="M141.92,482.19s-.09,0-.13,0c-.77-.07-1.34-.76-1.27-1.53,2.84-30.53,4.89-72.84-10.01-87.66-11.22-11.15-24.7-10.75-36.98,1.09-.56.54-1.45.52-1.99-.04-.54-.56-.52-1.45.04-1.99,13.34-12.86,28.64-13.26,40.92-1.06,15.75,15.66,13.72,58.82,10.83,89.92-.07.73-.68,1.28-1.4,1.28Z"/>
            <g>
              <path d="M211.65,664.08c-.44,0-.85-.09-1.25-.26-.42-.15-.77-.4-1.07-.7-.61-.61-.96-1.44-.96-2.32s.35-1.71.96-2.32c1.23-1.22,3.44-1.22,4.64,0,.61.61.96,1.47.96,2.32s-.35,1.68-.96,2.32c-.31.31-.66.55-1.07.7-.39.18-.81.26-1.25.26Z"/>
              <path d="M176.59,647.15c-1.4-1.16-1.57-3.24-.42-4.62h0c1.16-1.4,3.24-1.57,4.64-.41h0c1.38,1.16,1.57,3.24.39,4.62h0c-.63.79-1.57,1.18-2.52,1.18h0c-.74,0-1.49-.26-2.1-.77ZM152.94,617.34c-.88-1.6-.28-3.59,1.31-4.46h0c1.6-.85,3.59-.28,4.44,1.31h0c.88,1.6.28,3.59-1.31,4.46h0c-.48.26-1.03.4-1.55.4h0c-1.16,0-2.3-.61-2.89-1.71Z"/>
              <path d="M142.68,584.5c-.44,0-.85-.09-1.25-.26-.39-.15-.74-.4-1.07-.7-.31-.31-.55-.68-.7-1.07-.18-.39-.26-.81-.26-1.25,0-.22.02-.44.07-.66.04-.2.11-.41.2-.61s.18-.37.31-.57c.11-.18.24-.35.39-.48.77-.77,1.9-1.12,2.98-.9.2.04.42.09.61.18s.37.18.57.31c.18.11.33.26.48.41.15.13.31.31.42.48.11.2.22.37.31.57s.15.41.18.61c.04.22.07.44.07.66,0,.44-.07.85-.24,1.25-.18.4-.39.77-.72,1.07-.61.61-1.44.96-2.32.96Z"/>
            </g>
            <path d="M63.53,403.95c-.15,0-.29-.02-.44-.07-.74-.24-1.14-1.04-.89-1.78,8.6-25.99,32.89-41.89,56.51-36.98,20.87,4.34,33.54,14.85,41.1,34.09.29.72-.07,1.54-.79,1.82-.72.28-1.54-.07-1.82-.79-7.17-18.26-19.22-28.24-39.05-32.36-22.22-4.63-45.12,10.47-53.26,35.1-.2.59-.75.97-1.34.97Z"/>
            <path d="M356.88,582.62c-.51,0-1.01-.28-1.26-.77-4.55-8.96-9.14-13.82-13.28-14.03-3.02-.14-6.06,2.14-9.08,6.82-.42.66-1.29.84-1.95.42-.65-.42-.84-1.29-.42-1.94,3.61-5.59,7.53-8.29,11.59-8.11,5.27.27,10.53,5.51,15.64,15.57.35.69.07,1.54-.62,1.89-.2.1-.42.15-.64.15Z"/>
            <g>
              <path d="M332.08,577.15c-.88,0-1.71-.33-2.32-.96-.61-.61-.96-1.44-.96-2.32s.35-1.71.96-2.32c.15-.15.33-.29.5-.42.18-.11.37-.22.57-.28.2-.09.39-.15.61-.2.42-.09.85-.09,1.27,0,.22.04.42.11.61.2.2.07.39.18.57.28.18.13.35.26.5.42.61.61.96,1.47.96,2.32s-.35,1.71-.96,2.32c-.61.63-1.44.96-2.32.96Z"/>
              <path d="M240.55,661.74c-.33-1.79.85-3.5,2.65-3.83h0c1.77-.33,3.48.85,3.81,2.65h0c.33,1.77-.85,3.48-2.63,3.81h0c-.22.04-.42.06-.61.06h0c-1.55,0-2.93-1.12-3.22-2.69ZM270.77,651.15c-1.03-1.51-.61-3.57.9-4.55h0c1.51-1.03,3.55-.61,4.55.9h0c1.01,1.51.59,3.55-.9,4.55h0c-.57.37-1.2.55-1.84.55h0c-1.05,0-2.1-.5-2.71-1.44ZM295.32,630.41c-1.36-1.22-1.47-3.3-.24-4.64h0c1.2-1.36,3.28-1.47,4.62-.24h0c1.36,1.2,1.47,3.28.26,4.62h0v.02h0c-.66.72-1.55,1.07-2.45,1.07h0c-.79,0-1.58-.26-2.19-.83ZM315.13,605.02c-1.55-.96-2.01-3-1.05-4.53h0c.99-1.53,3-1.99,4.53-1.03h0c1.53.96,1.99,2.97,1.03,4.51h0v.02h0c-.61.98-1.68,1.53-2.78,1.53h0c-.59,0-1.2-.18-1.73-.5Z"/>
              <path d="M211.76,664.11c-.44,0-.85-.09-1.25-.26-.39-.15-.77-.39-1.07-.7-.61-.63-.96-1.44-.96-2.32s.35-1.71.96-2.32c1.23-1.22,3.44-1.22,4.64,0,.61.61.96,1.44.96,2.32s-.33,1.68-.96,2.32c-.31.31-.66.55-1.05.7-.39.18-.83.26-1.27.26Z"/>
            </g>
            <path d="M211.76,662.22c-.08,0-.18-.01-.29-.03-17.33-2.03-55.93-15.24-83.35-34.79-12.84-9.16-23.98-24.16-30.59-41.16-3.24-8.34-5.44-17.2-6.54-26.34-.57-4.71-.86-9.61-.84-14.57.04-6.72.28-13.03.74-19.32.57-8.56,1.51-17.19,2.98-27.15,1.11-7.69,2.45-15.37,3.61-21.87.67-3.76,1.35-7.56,2.05-11.42.71-3.94,1.44-7.96,2.17-12.06l.15-.84c.68-3.97,1.38-8.02,2.07-12.18.24-1.43.44-2.82.61-4.18,1.28-9.3,1.49-17.16.62-23.4-1.45-10.36-5.7-16.4-12.99-18.47-.75-.21-1.18-.99-.97-1.74.21-.75.99-1.18,1.74-.97,8.36,2.37,13.42,9.37,15.01,20.79.91,6.5.7,14.62-.62,24.15-.17,1.39-.38,2.82-.63,4.28-.68,4.17-1.38,8.23-2.07,12.2l-.15.85c-.73,4.12-1.46,8.13-2.17,12.08-.7,3.86-1.38,7.65-2.05,11.41-1.16,6.48-2.49,14.13-3.6,21.79-1.45,9.89-2.39,18.45-2.95,26.94-.45,6.23-.69,12.48-.73,19.14-.02,4.84.26,9.63.82,14.22,1.07,8.91,3.22,17.54,6.37,25.66,6.41,16.5,17.2,31.04,29.6,39.89,27.04,19.28,65.03,32.3,82.05,34.29.04,0,.08.01.12.02.69.09,1.24.68,1.23,1.4,0,.78-.63,1.41-1.4,1.41Z"/>
            <path d="M167.58,331.03c-.14,0-.29-.02-.43-.07-.71-.26-1.13-.94-.9-1.66.02-.07.09-.22.12-.29.32-.79.67-1.6,1.03-2.39,1.53-3.43,3.36-6.97,5.41-10.51,6.77-11.82,15.52-23.07,23.99-33.95,10.38-13.33,20.18-25.92,26.74-39.58,10.05-20.93,3.67-43.03-6.51-54.7-14.82-17-30.67-21.19-41.36-21.72-13.4-.69-26.8,4.04-35.85,12.56-7.79,7.35-11.26,15.43-13.84,23.06-.25.74-1.04,1.13-1.78.88-.74-.25-1.13-1.05-.88-1.78,2.7-7.98,6.33-16.43,14.58-24.21,9.59-9.04,23.76-14.03,37.92-13.33,11.23.55,27.87,4.93,43.34,22.68,10.77,12.35,17.53,35.69,6.93,57.77-6.69,13.93-17.04,27.23-27.05,40.09-8.41,10.8-17.1,21.97-23.77,33.62-2.01,3.46-3.79,6.91-5.29,10.27-.35.77-.68,1.54-.99,2.3-.23.56-.8.95-1.39.95Z"/>
            <path d="M163.18,375.16c-.73,0-1.34-.56-1.4-1.29-.17-2.04-.28-4.05-.38-6.02-.35-7.53.15-15.45,1.5-23.52.53-3.15,1.12-6.05,1.8-8.88.42-1.86.95-3.92,1.61-6.28.23-.83.48-1.69.74-2.55,4.8-16.14,12.84-34.28,24.57-55.43.41-.77.85-1.55,1.29-2.33l.62-1.11c19.23-34.18,18.81-56.99-1.35-73.96-7.24-6.1-16.66-8.68-26.56-7.25-10.16,1.46-19.37,7.07-24.63,15.01-3.94,5.94-5.95,10.48-7.58,14.13-2.48,5.59-4.28,9.64-10.76,13.69-5.77,3.6-10.2,2.35-12.03-.49-2.03-3.15-1.05-8.36,4.75-12.22,3.53-2.35,5.09-7.09,7.05-13.08.28-.86.57-1.74.88-2.64.25-.74,1.05-1.14,1.78-.88.74.25,1.13,1.05.88,1.78-.3.89-.59,1.77-.87,2.62-2.05,6.25-3.83,11.65-8.17,14.55-4.24,2.82-5.19,6.41-3.94,8.35,1.08,1.68,4.03,2.21,8.18-.38,5.75-3.59,7.23-6.92,9.68-12.44,1.66-3.75,3.73-8.41,7.8-14.55,5.7-8.59,15.63-14.67,26.58-16.24,10.7-1.54,20.92,1.27,28.77,7.89,21.1,17.77,21.74,42.39,1.99,77.49l-.63,1.12c-.43.77-.86,1.53-1.28,2.3-11.64,20.99-19.6,38.94-24.35,54.9-.26.85-.5,1.68-.72,2.49-.65,2.32-1.16,4.34-1.58,6.17-.67,2.78-1.25,5.62-1.77,8.71-1.32,7.87-1.81,15.59-1.46,22.92.09,1.94.2,3.91.37,5.92.06.78-.51,1.46-1.29,1.52-.04,0-.08,0-.12,0Z"/>
            <path d="M184.19,437.65c-.44,0-.88-.21-1.15-.6-6.14-8.75-11.02-18.38-14.5-28.63-.25-.74.14-1.54.88-1.79.74-.25,1.54.15,1.79.88,3.4,10,8.16,19.39,14.14,27.91.45.64.29,1.52-.34,1.96-.25.17-.53.26-.81.26Z"/>
            <path d="M241.74,484.09c-.21,0-.42-.05-.62-.14-14.75-7.19-27.61-15.56-38.21-24.87-.58-.51-.64-1.4-.13-1.99.51-.58,1.4-.64,1.99-.13,10.42,9.14,23.06,17.37,37.59,24.46.7.34.99,1.18.65,1.88-.24.5-.74.79-1.27.79Z"/>
            <path d="M250.65,323.88c-.27,0-.54-.08-.78-.24-.65-.43-.82-1.31-.38-1.95,2.95-4.4,6.12-8.65,9.43-12.65.49-.6,1.38-.68,1.98-.19.6.5.68,1.38.19,1.98-3.25,3.93-6.37,8.11-9.26,12.43-.27.41-.72.62-1.17.62Z"/>
            <path d="M261.86,459.07c-.31,0-.63-.1-.89-.32-39.27-32.04-43.99-88.4-11.49-137.04.43-.65,1.31-.82,1.95-.39.65.43.82,1.31.39,1.95-31.67,47.39-27.17,102.21,10.93,133.3.6.49.69,1.38.2,1.98-.28.34-.68.52-1.09.52Z"/>
            <path d="M294.84,393.4c-.12,0-.23-.01-.35-.04-21.16-5.4-35.7-15.26-43.21-29.29-6.51-12.17-7.21-27.09-1.97-42.01.18-.57.71-.99,1.34-.99.78,0,1.41.62,1.41,1.4v.02c0,.16-.03.32-.08.47-4.99,14.18-4.36,28.31,1.79,39.79,7.12,13.31,21.06,22.69,41.42,27.89.75.19,1.21.96,1.02,1.71-.16.64-.74,1.06-1.36,1.06Z"/>
            <path d="M124.64,202.84c-.78,0-1.4-.68-1.4-1.46v-.06c3.42-30.13,27.74-60.69,72.98-57.1.78.06,1.35.74,1.29,1.52-.06.77-.73,1.33-1.52,1.29-43.38-3.47-66.68,25.79-69.95,54.45,0,.78-.63,1.35-1.4,1.35Z"/>
            <path d="M170.65,409.44c-.33,0-.67-.03-1.02-.09-3.48-.6-6.87-4.4-9.07-10.16-.9-2.4-1.56-4.97-1.95-7.64-1.19-7.98.21-15.35,3.55-18.79,1.06-1.11,2.27-1.77,3.61-1.96,1.65-.25,3.39.26,5.02,1.47,3.75,2.78,6.75,9.04,7.81,16.34,1.6,10.8-1.54,19.92-7.15,20.76-.26.04-.53.06-.81.06ZM166.61,373.57c-.14,0-.28.01-.42.03-.71.1-1.38.48-1.99,1.12,0,0,0,0-.01.01-2.67,2.74-3.82,9.49-2.79,16.42.37,2.47.97,4.84,1.8,7.05,1.81,4.74,4.46,7.96,6.9,8.38.34.05.65.06.92.02,3.44-.51,6.25-7.86,4.81-17.57-.95-6.48-3.58-12.17-6.71-14.49-.87-.65-1.71-.97-2.51-.97ZM163.18,373.75h.02-.02Z"/>
            <path d="M199.66,463.48c-4.09,0-9.51-3.47-13.84-9.24-5.66-7.57-6.98-15.83-3.02-18.79.2-.16.46-.32.76-.47,4.17-2.11,11.09,1.53,16.43,8.65,3.73,4.98,5.74,10.56,5.25,14.55-.22,1.86-.99,3.34-2.23,4.26-.94.7-2.08,1.04-3.35,1.04ZM186.23,437.2c-.54,0-1.02.1-1.41.3,0,0,0,0,0,0-.13.06-.23.13-.3.19-2.3,1.72-1.39,8.24,3.56,14.87,4.97,6.62,10.97,9.34,13.25,7.64.61-.46.99-1.24,1.12-2.34.4-3.26-1.44-8.17-4.7-12.53-4.05-5.4-8.68-8.13-11.51-8.13ZM184.19,436.24h.02-.02Z"/>
            <path d="M223.94,453.18c-1.61,0-3.36-.39-5.19-1.16-3.69-1.56-7.33-4.56-10.24-8.44-6.27-8.37-7.16-17.94-2.03-21.79,5.15-3.84,14.09-.31,20.35,8.05h0c3.94,5.27,5.89,11.24,5.2,15.98-.36,2.51-1.47,4.52-3.2,5.81-1.37,1.03-3.04,1.55-4.9,1.55ZM211.41,423.06c-1.24,0-2.34.31-3.23.98-3.74,2.8-2.55,10.98,2.59,17.85,2.61,3.49,5.84,6.16,9.08,7.54,2.99,1.26,5.58,1.25,7.31-.05,1.14-.85,1.84-2.18,2.1-3.96.57-3.96-1.22-9.28-4.67-13.89-3.92-5.23-9.22-8.47-13.17-8.47Z"/>
            <path d="M182.52,343.21c-.86,0-1.69-.16-2.47-.48-5.71-2.38-6.7-12.61-2.26-23.28,2.04-4.93,4.95-9.19,8.18-11.99,3.49-3.02,7.01-4.03,9.89-2.83,2.89,1.2,4.66,4.39,4.98,9,.3,4.26-.67,9.33-2.72,14.28h0c-3.82,9.2-10.25,15.3-15.6,15.3ZM193.36,306.96c-1.62,0-3.57.91-5.56,2.63-2.91,2.52-5.54,6.4-7.42,10.94-4.09,9.83-2.91,18.07.74,19.6,3.64,1.52,10.31-3.47,14.39-13.3,1.89-4.55,2.78-9.17,2.51-13-.24-3.44-1.43-5.84-3.25-6.59-.43-.18-.91-.27-1.42-.27ZM196.82,327.37h.02-.02Z"/>
            <path d="M211.4,353.22c-1.54,0-2.97-.36-4.24-1.1-6.08-3.53-6.32-14.12-.54-24.13,3.65-6.33,8.88-10.92,13.99-12.29,2.66-.71,5.14-.47,7.16.7,2.02,1.17,3.47,3.19,4.18,5.86,1.37,5.11,0,11.93-3.65,18.25-2.68,4.65-6.27,8.44-10.12,10.66-2.36,1.36-4.67,2.05-6.78,2.05ZM223.52,318.12c-.68,0-1.41.1-2.19.31-4.34,1.16-9.04,5.36-12.28,10.98-4.83,8.36-5.05,17.64-.49,20.29,2.11,1.22,5.03.88,8.21-.95,3.42-1.97,6.65-5.39,9.09-9.63,3.24-5.6,4.53-11.77,3.37-16.11-.52-1.93-1.51-3.37-2.87-4.15,0,0,0,0,0,0-.83-.48-1.78-.72-2.83-.72Z"/>
            <path d="M201.55,407.91c-7.02,0-12.52-9.05-12.52-20.61s5.5-20.63,12.52-20.63,12.52,9.06,12.52,20.63-5.5,20.61-12.52,20.61ZM201.55,369.49c-5.26,0-9.7,8.16-9.7,17.81s4.44,17.79,9.7,17.79,9.7-8.15,9.7-17.79-4.44-17.81-9.7-17.81Z"/>
            <path d="M222.72,287.57c-1.53,0-2.89-.42-4-1.23-2.32-1.69-3.27-4.85-2.69-8.88.54-3.72,2.35-7.83,5.08-11.58,3.83-5.26,8.92-8.95,13.29-9.64,2.11-.33,3.99.05,5.44,1.11h0c4.58,3.34,3.52,12.32-2.39,20.45-3.85,5.27-8.95,8.97-13.32,9.64-.49.07-.96.11-1.42.11ZM235.86,258.95c-.32,0-.66.03-1.02.08-3.6.56-8.09,3.91-11.45,8.52-2.47,3.38-4.1,7.05-4.57,10.32-.42,2.91.15,5.17,1.56,6.2.84.62,1.95.81,3.32.6,3.6-.56,8.1-3.9,11.48-8.52,5.32-7.31,5.85-14.45,3.01-16.52h0c-.63-.46-1.41-.69-2.33-.69Z"/>
            <path d="M128.46,438.19h-.06c-5.38-.07-9.53-6.64-9.45-14.96.03-3.84.98-7.47,2.69-10.21,1.82-2.93,4.3-4.55,6.98-4.55h.05c1.89.02,3.69.85,5.22,2.41,2.7,2.75,4.28,7.43,4.22,12.53-.08,8.3-4.32,14.78-9.66,14.78ZM128.62,411.29c-1.67,0-3.3,1.14-4.59,3.22-1.43,2.31-2.24,5.41-2.26,8.75-.07,6.52,2.99,12.07,6.66,12.11h.03c3.64,0,6.77-5.48,6.84-11.99.04-4.3-1.27-8.33-3.42-10.53-.7-.71-1.82-1.56-3.24-1.57h-.03Z"/>
            <path d="M123.05,482.19c-.27,0-.54-.02-.82-.05h0c-1.87-.24-3.56-1.27-4.9-3-2.36-3.04-3.38-7.89-2.74-12.96.48-3.81,1.85-7.3,3.86-9.83,2.17-2.73,4.83-4.05,7.51-3.71,5.34.69,8.69,7.7,7.64,15.95-1,7.83-5.54,13.58-10.55,13.58ZM125.15,455.42c-1.52,0-3.1.94-4.5,2.69-1.69,2.13-2.85,5.12-3.27,8.43-.54,4.28.29,8.45,2.17,10.88.61.78,1.63,1.75,3.03,1.93h0c3.65.44,7.4-4.62,8.23-11.09.82-6.47-1.56-12.33-5.21-12.81-.15-.02-.3-.03-.45-.03Z"/>
            <path d="M117.04,530.27c-.29,0-.59-.02-.89-.06h0c-5.72-.73-9.31-8.26-8.18-17.14,1.13-8.87,6.5-15.3,12.19-14.57,5.71.73,9.3,8.27,8.17,17.15-.52,4.11-2,7.87-4.16,10.59-2.08,2.62-4.58,4.02-7.13,4.02ZM119.31,501.28c-3.84,0-7.69,5.38-8.55,12.16-.9,7.07,1.73,13.48,5.75,13.99h0c1.84.23,3.77-.8,5.46-2.92,1.84-2.32,3.11-5.58,3.57-9.19.9-7.08-1.73-13.49-5.73-14.01-.17-.02-.33-.03-.5-.03Z"/>
            <path d="M119.31,584.9c-5.66,0-10.83-6.51-12.03-15.41-.59-4.35-.1-8.61,1.38-11.99,1.58-3.61,4.11-5.82,7.11-6.22,6.02-.81,11.75,5.92,13.02,15.32.59,4.36.1,8.63-1.38,12.01-1.58,3.61-4.1,5.82-7.11,6.23h0c-.33.04-.66.07-.98.07ZM120.1,583.44h.02-.02ZM116.73,554.03c-.2,0-.39.01-.59.04-1.99.27-3.73,1.89-4.91,4.56-1.27,2.91-1.69,6.63-1.17,10.48,1.02,7.59,5.54,13.49,9.85,12.93,1.99-.27,3.73-1.89,4.9-4.56,1.27-2.91,1.69-6.64,1.17-10.5-.98-7.23-5.13-12.95-9.26-12.95Z"/>
            <g>
              <path d="M278.67,162.66c-.44,0-.88-.09-1.27-.24-.39-.18-.74-.41-1.07-.72-.61-.61-.94-1.44-.94-2.32,0-.22.02-.44.07-.63.02-.22.09-.42.18-.61s.17-.39.31-.57c.11-.18.26-.35.39-.5,1.23-1.23,3.44-1.23,4.66,0,.61.61.96,1.47.96,2.32,0,.44-.09.85-.26,1.25-.15.41-.39.77-.7,1.07-.63.61-1.44.96-2.32.96Z"/>
              <path d="M241.19,143.85c-.44,0-.85-.09-1.25-.26-.39-.15-.77-.4-1.07-.7-.61-.63-.96-1.44-.96-2.32s.35-1.73.96-2.32c1.23-1.22,3.41-1.22,4.64,0,.61.59.96,1.44.96,2.32s-.33,1.68-.96,2.32c-.31.31-.66.55-1.05.7-.39.18-.83.26-1.27.26Z"/>
              <path d="M244.34,183.23c-.88,0-1.68-.33-2.32-.96-.31-.31-.55-.66-.7-1.05-.18-.39-.26-.83-.26-1.27,0-.2.02-.42.07-.63.04-.22.11-.42.2-.61s.18-.39.31-.57c.11-.18.24-.35.39-.5,1.23-1.22,3.44-1.22,4.66,0,.13.15.28.33.39.5.13.18.22.37.31.57s.15.39.18.61c.04.22.07.44.07.63,0,.44-.07.87-.24,1.27-.15.4-.39.75-.7,1.05-.33.31-.68.55-1.07.72-.39.15-.83.24-1.27.24Z"/>
              <path d="M277.88,200.52c-.44,0-.88-.09-1.27-.26-.39-.15-.74-.39-1.05-.72-.63-.61-.96-1.42-.96-2.3,0-.22.02-.44.07-.66.02-.2.09-.42.17-.61s.2-.39.31-.57.26-.35.42-.48c.74-.77,1.88-1.12,2.95-.9.2.02.42.09.61.18.2.09.39.18.57.31.18.11.35.26.5.42.61.61.96,1.44.96,2.32,0,.44-.09.85-.26,1.25-.15.39-.39.74-.7,1.05-.63.63-1.47.99-2.32.99Z"/>
            </g>
            <path d="M587.09,507.87c-.48,0-.95-.25-1.21-.69-.39-.67-.17-1.53.5-1.93,11.95-7.03,20.83-21.11,27.14-43.04,1.89-6.58,4.07-12.96,6.47-18.94,6.1-15.22,13.64-28.14,23.05-39.49.5-.6,1.38-.68,1.98-.19.6.5.68,1.38.19,1.98-9.22,11.13-16.61,23.8-22.6,38.75-2.36,5.9-4.51,12.18-6.37,18.67-6.52,22.66-15.82,37.28-28.42,44.69-.22.13-.47.19-.71.19Z"/>
            <g>
              <path d="M756.7,364.37c-.87,0-1.68-.35-2.32-.96-.61-.63-.96-1.44-.96-2.32,0-.22.02-.44.07-.66.04-.2.11-.41.2-.61.09-.2.18-.37.31-.57.11-.18.24-.35.4-.48,1.22-1.23,3.43-1.23,4.64,0,.15.13.31.31.41.48.11.2.22.37.31.57.09.2.13.42.17.61.04.22.07.44.07.66,0,.85-.33,1.69-.96,2.32-.61.61-1.44.96-2.32.96Z"/>
              <path d="M665.04,384.24c-1.12-1.44-.85-3.5.57-4.62h0c1.44-1.12,3.5-.85,4.62.59h0c1.09,1.42.83,3.5-.59,4.59h0c-.59.46-1.31.7-2.01.7h0c-.98,0-1.95-.44-2.58-1.27ZM690.97,364.81c-1.27-1.31-1.23-3.39.09-4.64h0c1.29-1.27,3.37-1.22,4.64.09h0c1.25,1.31,1.2,3.39-.09,4.64h0c-.63.61-1.47.92-2.28.92h0c-.85,0-1.73-.35-2.36-1.01ZM703.13,334.57c-.26-1.79.99-3.46,2.78-3.7h0c1.79-.26,3.46.99,3.72,2.78h0c.24,1.79-1.01,3.46-2.8,3.72h0c-.15.02-.31.02-.46.02h0c-1.62,0-3.02-1.18-3.24-2.82ZM742.96,332.95c-1.05-1.49-.7-3.52.79-4.58h0c1.49-1.05,3.55-.68,4.57.81h0c1.05,1.47.68,3.52-.81,4.55h0c-.57.42-1.22.61-1.86.61h0c-1.05,0-2.06-.5-2.69-1.4ZM681.47,319.8c-1.77-.41-2.87-2.19-2.45-3.94h0c.42-1.77,2.19-2.87,3.94-2.45h0c1.77.4,2.87,2.17,2.45,3.94h0c-.35,1.51-1.68,2.54-3.19,2.54h0c-.24,0-.48-.04-.74-.09ZM719.78,313.28c-1.64-.81-2.32-2.76-1.53-4.4h0c.79-1.64,2.76-2.32,4.4-1.51h0c1.62.79,2.3,2.76,1.51,4.38h0c-.57,1.18-1.73,1.86-2.95,1.86h0c-.48,0-.96-.11-1.42-.33ZM689.83,306.01h0c-1.79-.07-3.24-1.57-3.17-3.39h0c.07-1.82,1.58-3.24,3.39-3.17h0c1.82.07,3.24,1.57,3.17,3.39h0c-.07,1.77-1.51,3.17-3.28,3.17h-.11Z"/>
              <path d="M644.12,407.96c-.44,0-.85-.09-1.25-.26-.42-.15-.77-.39-1.07-.7-.61-.63-.96-1.44-.96-2.32,0-.22.02-.44.07-.66.04-.2.11-.41.18-.61.09-.2.2-.39.31-.57.13-.18.26-.35.42-.48.15-.15.33-.31.5-.42.18-.13.37-.22.57-.31.2-.09.39-.15.61-.2.42-.07.85-.07,1.27,0,.22.04.42.11.61.2.2.09.39.18.57.31.18.11.35.26.5.42.61.59.96,1.44.96,2.32s-.35,1.69-.96,2.32c-.31.31-.68.55-1.07.7-.39.18-.81.26-1.25.26Z"/>
            </g>
            <path d="M603.72,597.37c-.68,0-1.29-.5-1.39-1.2-.12-.77.42-1.49,1.18-1.6,25.48-3.8,44.28-11.91,55.88-24.11,8.36-8.8,12.97-19.71,13.71-32.45.38-6.46.56-12.76.73-18.84.91-32.68,1.7-60.91,32.79-89.95,32.46-30.32,48.38-52.6,48.68-68.13.01-.78.69-1.38,1.43-1.38.78.01,1.4.66,1.38,1.43-.31,16.33-16.52,39.27-49.57,70.13-30.23,28.24-31,55.92-31.9,87.97-.17,6.11-.35,12.42-.73,18.93-.78,13.41-5.65,24.93-14.48,34.22-12.04,12.67-31.39,21.06-57.5,24.96-.07.01-.14.01-.21.01Z"/>
            <path d="M660.28,572.88c-.37,0-.72-.13-.98-.39-.52-.55-.61-1.33-.08-1.87.03-.03.15-.14.18-.17,21.49-19.06,32.08-36.81,35.49-59.45.12-.77.85-1.29,1.6-1.18.77.12,1.3.83,1.18,1.6-3.52,23.34-14.38,41.6-36.33,61.06-.29.26-.68.4-1.07.4Z"/>
            <path d="M701.61,475.7c-.12,0-.23-.01-.35-.04-.75-.19-1.21-.96-1.01-1.71,2.97-11.56,7.77-21.09,15.56-30.9.49-.61,1.37-.71,1.98-.23.61.49.71,1.37.23,1.98-7.54,9.48-12.17,18.69-15.04,29.85-.16.63-.74,1.06-1.36,1.06Z"/>
            <path d="M735.76,422.64c-.78,0-1.41-.62-1.41-1.4,0-.32.11-.64.3-.89,4.81-6.12,8.39-11.31,11.26-16.33.39-.68,1.25-.91,1.92-.52.68.39.91,1.25.52,1.92-2.94,5.13-6.58,10.41-11.45,16.61-.26.37-.68.6-1.15.6Z"/>
            <path d="M755.38,385.24c-.1,0-.2-.01-.3-.03-.76-.17-1.24-.92-1.07-1.68,1.54-7.02,1.97-14.31,1.31-22.3l1.4-.15,1.41.04c.68,8.15.23,15.72-1.37,23.01-.15.66-.73,1.11-1.37,1.11Z"/>
            <path d="M696.53,512.63c-.11,0-.21,0-.32,0-.4-.02-.77-.21-1.02-.51-.25-.31-.36-.71-.3-1.1.33-2.18.57-4.12.74-5.96,1.08-11.42,2.18-21.64,4.62-31.1.18-.68.84-1.13,1.53-1.05.43.05.85.16,1.24.32,5.93,2.02,8.81,12.15,6.48,23.05-2.01,9.56-7.43,16.36-12.97,16.36ZM702.62,476.09c-2.14,8.87-3.16,18.5-4.18,29.21-.12,1.35-.29,2.75-.49,4.26,3.34-1.14,7.17-6.1,8.8-13.88,1.88-8.82-.01-17.51-4.13-19.59Z"/>
            <path d="M500.33,476.74c-.27,0-.55-.02-.83-.07-4.3-.75-7.39-7.18-7.03-14.65.23-4.84,1.93-9.09,4.42-11.09,1.3-1.04,2.76-1.45,4.23-1.19.37.07.83.18,1.3.42.5.27.8.81.74,1.38-.67,7-.69,14.65-.05,23.4.04.59-.29,1.15-.83,1.39-.62.28-1.27.41-1.94.41ZM500.25,452.48c-.53,0-1.07.23-1.6.65-1.86,1.49-3.18,5.03-3.37,9.02-.31,6.39,2.23,11.31,4.69,11.74.08.01.16.02.24.03-.52-7.91-.51-14.95.04-21.44Z"/>
            <path d="M507.17,526c-4.75,0-9.32-6.37-10.39-14.54-.71-5.39.26-10.22,2.6-12.92,1.19-1.37,2.68-2.1,4.3-2.12h0c.39,0,.73.04,1.06.11.56.13.99.59,1.08,1.16,1.03,6.66,2.37,14.03,4.08,22.52.24,1.16.47,2.35.7,3.54.11.58-.15,1.17-.66,1.47-.85.51-1.81.74-2.76.76ZM503.21,499.31c-.61.13-1.19.49-1.71,1.09-1.77,2.03-2.53,6.24-1.94,10.7.94,7.14,4.77,12.09,7.62,12.09.15,0,.28,0,.42-.03-.15-.79-.31-1.58-.47-2.36-1.63-8.05-2.91-15.09-3.92-21.49Z"/>
            <path d="M512.33,573.79c-.24,0-.47-.02-.71-.04-4.8-.68-8.39-7.68-8.23-15.94.09-5.35,1.82-10.09,4.5-12.38,1.38-1.18,2.96-1.68,4.56-1.45.32.04.66.21.88.45.22.23.35.52.38.84.95,10.23.96,19.41.01,27.29-.08.71-.68,1.24-1.4,1.24ZM511.02,546.85c-.46.12-.89.37-1.3.72-2.05,1.75-3.43,5.79-3.51,10.29-.13,6.49,2.33,11.56,4.89,12.82.71-6.99.68-14.99-.07-23.83Z"/>
            <path d="M527.48,573.62c-.33,0-.66-.03-.99-.09h0c-4.9-.91-8.31-8.34-7.77-16.92.34-5.57,2.34-10.44,5.23-12.69,1.47-1.15,3.12-1.59,4.77-1.29,4.9.89,8.31,8.31,7.77,16.9-.34,5.65-2.29,10.4-5.22,12.69-1.18.93-2.47,1.4-3.79,1.4ZM526.99,570.76c.84.14,1.7-.1,2.53-.76,2.23-1.75,3.86-5.93,4.14-10.65.48-7.55-2.5-13.42-5.47-13.96-.85-.16-1.7.09-2.53.74-2.24,1.75-3.86,5.92-4.15,10.65-.48,7.66,2.44,13.41,5.47,13.98h0Z"/>
            <path d="M524.58,524.84c-.16,0-.32,0-.49-.02-5.49-.46-10.09-8.32-10.47-17.9-.25-6.23,1.42-11.85,4.36-14.67,1.48-1.42,3.21-2.08,5.05-1.94,5.5.44,10.1,8.3,10.47,17.89.25,6.22-1.41,11.84-4.35,14.67-1.35,1.3-2.92,1.98-4.57,1.98ZM522.53,493.1c-.91,0-1.79.4-2.6,1.18-2.34,2.24-3.71,7.16-3.49,12.52h0c.35,8.74,4.36,14.92,7.89,15.21,1,.1,1.97-.32,2.87-1.18,2.34-2.25,3.71-7.16,3.49-12.53-.34-8.74-4.35-14.91-7.88-15.19-.09,0-.18-.01-.27-.01Z"/>
            <path d="M516.07,473.97c-.4,0-.79-.04-1.19-.12,0,0,0,0,0,0-5.11-1.1-8.5-9.06-7.72-18.13.52-5.89,2.79-10.98,5.9-13.27,1.58-1.16,3.32-1.59,5.04-1.22,5.12,1.07,8.5,9.02,7.69,18.09-.51,5.88-2.76,10.97-5.87,13.29-1.22.9-2.53,1.36-3.85,1.36ZM515.47,471.09c.92.19,1.85-.06,2.77-.75,2.45-1.82,4.31-6.24,4.75-11.27.73-8.19-2.24-14.42-5.47-15.09-.92-.2-1.85.05-2.78.73-2.45,1.8-4.32,6.22-4.77,11.25-.71,8.19,2.27,14.43,5.5,15.13Z"/>
            <path d="M515.96,425.77c-.68,0-1.33-.14-1.95-.43-2.53-1.19-3.96-4.52-3.82-8.91.04-1.9.4-3.91,1.06-5.97,2.04-6.3,6.39-10.23,10.14-9.17.26.06.51.16.76.28,3.66,1.69,4.87,8.22,2.71,14.83-1.4,4.33-3.89,7.65-6.67,8.86-.75.33-1.5.5-2.22.5ZM520.13,403.94c-1.93,0-4.7,2.75-6.2,7.4-.58,1.79-.89,3.53-.93,5.17-.1,3.15.76,5.61,2.19,6.28.53.25,1.16.22,1.86-.09,1.99-.87,4-3.68,5.12-7.16,1.82-5.56.79-10.48-1.26-11.43-.03,0-.25-.09-.27-.1-.16-.05-.33-.07-.51-.07Z"/>
            <path d="M721.08,447.69c-1.7,0-3.18-.56-4.3-1.65-.43-.41-.81-.9-1.1-1.45-.27-.5-.21-1.1.13-1.54.71-.89,1.45-1.79,2.21-2.69l3.25-3.83c4.79-5.64,9.32-10.96,13.38-16.16.25-.31.61-.51,1.01-.54.4-.03.79.12,1.07.39,3.76,3.63,2.41,12.12-3.06,19.34-3.53,4.69-8.11,7.79-11.95,8.1-.22.02-.43.03-.63.03ZM718.68,443.96s.03.03.05.04c.68.66,1.63.94,2.77.85,3.02-.24,6.92-2.98,9.93-6.99,4.17-5.49,5.38-11.2,4.24-14.23-3.78,4.75-7.9,9.61-12.25,14.71l-3.25,3.83c-.51.59-1,1.19-1.49,1.78Z"/>
            <path d="M749.01,407.35c-1.12,0-2.1-.5-2.79-1.43-.13-.2-.22-.34-.31-.49-.25-.43-.25-.96,0-1.4,3.94-6.92,6.58-13.62,8.09-20.5.09-.4.34-.74.69-.93,2.06-1.14,3.99-.86,5.18.76,2.43,3.3.58,10.86-2.4,16.3-2.52,4.63-5.58,7.5-8.19,7.69-.09,0-.18,0-.27,0ZM748.86,404.52c.07.01.15.02.22.01,1.31-.09,3.76-2.26,5.91-6.23,3.02-5.52,3.86-11.56,2.6-13.29-.11-.15-.32-.44-1-.21-1.52,6.62-4.06,13.08-7.74,19.71Z"/>
            <path d="M558.77,163.65c-.36,0-.73-.14-1-.42-25.04-25.4-67.5-28.3-94.73-18.14-.73.28-1.54-.1-1.81-.83-.27-.73.1-1.54.83-1.81,28.06-10.47,71.84-7.44,97.72,18.8.55.56.54,1.45-.01,1.99-.27.27-.63.41-.99.41Z"/>
            <path d="M442.85,325.56c-.45,0-.9-.07-1.35-.2-4.27-1.29-6.06-8.18-4.66-17.99,4.42-30.85,35.59-53.13,60.63-71.02l1.91-1.37c6.45-4.6,12.66-9.07,17.77-13.34,11.93-9.96,11.45-23.29,7.02-32.44-5.64-11.65-19.8-21.65-38.74-17.7-.76.15-1.51-.33-1.67-1.09s.33-1.51,1.09-1.66c20.43-4.25,35.73,6.59,41.85,19.23,6.24,12.89,3.27,26.62-7.75,35.82-5.19,4.33-11.45,8.84-17.94,13.47l-1.91,1.37c-24.6,17.58-55.22,39.47-59.48,69.13-1.27,8.87.39,14.21,2.68,14.9,1.64.49,4.48-1.5,7.12-7.06,8.32-17.6,22.92-25.36,42.29-31.62,2.65-.87,5.39-1.7,8.18-2.53,9.12-2.72,17.18-4.06,24.29-5.24,9.48-1.57,16.97-2.82,21.2-6.65.58-.52,1.47-.48,1.99.1.52.57.48,1.47-.1,1.99-4.85,4.39-12.7,5.69-22.63,7.35-7.03,1.17-15,2.49-23.95,5.16-2.77.82-5.47,1.65-8.11,2.51-19.2,6.2-32.69,13.4-40.61,30.14-2.66,5.61-5.98,8.75-9.13,8.75Z"/>
            <path d="M497.23,202.99c-.26,0-.53-.07-.76-.22-.32-.2-.54-.52-.62-.88-1.33-6.03-3.06-11.75-5.15-17-.18-.44-.12-.94.15-1.33.27-.39.73-.6,1.19-.6,9.16.27,16.26,4.91,16.18,10.55-.04,4.28-4.24,7.99-10.69,9.44-.1.02-.21.03-.31.03ZM494.13,185.94c1.63,4.38,3.02,9.05,4.16,13.92,4.29-1.28,7.11-3.75,7.13-6.38.06-3.57-4.93-6.78-11.29-7.54Z"/>
            <path d="M500.27,232.44c-.27,0-.55-.08-.78-.24-.39-.26-.63-.7-.63-1.17,0-4.59-.21-9.12-.61-13.48-.04-.43.12-.86.44-1.15.31-.3.75-.43,1.18-.37,4.9.74,8.16,3.17,8.72,6.49.63,3.76-2.42,7.61-7.78,9.81-.17.07-.35.11-.54.11ZM501.68,231.03h.02-.02ZM501.22,219.2c.25,3.13.4,6.34.44,9.59,2.82-1.64,4.47-3.87,4.15-5.8-.28-1.67-1.99-3.05-4.59-3.79Z"/>
            <path d="M509.21,587.84c-.11,0-.23-.01-.34-.04-48.01-12.06-57.38-32.97-57.75-33.85-.3-.71.03-1.54.75-1.84.72-.31,1.54.03,1.84.74.13.29,9.49,20.57,55.85,32.22.75.19,1.21.96,1.02,1.71-.16.64-.73,1.06-1.36,1.06Z"/>
          </g>
          <path d="M420.17,373.94c-6.76-2.5-14.68,6.03-17.74,18.96-3.02,12.97-.04,25.49,6.7,27.99,6.74,2.46,14.7-6.03,17.72-19.01,3.06-12.95.08-25.47-6.68-27.93ZM423.64,391.53c-1.05,4.56-3.85,7.55-6.21,6.68-2.38-.88-3.44-5.27-2.37-9.84,1.07-4.54,3.87-7.55,6.23-6.66,2.36.86,3.42,5.27,2.35,9.82Z"/>
        </g>
        <path d="M47.84,308.41l-1.18.89-1.12-1.75,2.81-1.95h1.86v8.64h-2.37v-5.83Z"/>
        <path d="M80.15,317.04v2.1h-5.84l-.03-1.5,2.46-2.64c.68-.71.98-1.18.98-1.74,0-.43-.29-.73-.7-.73s-.8.2-1.16.69l-1.66-1.21c.52-.88,1.49-1.63,3.02-1.63s2.85.98,2.85,2.6c0,1.02-.23,1.68-1.41,2.9l-1.1,1.14v.03h2.59Z"/>
        <path d="M103.87,292.26c0,1.55-1.28,2.51-3.03,2.51-1.6,0-2.82-.89-3.24-2.06l2.04-.79c.16.55.47.83,1.03.83.39,0,.78-.25.78-.81,0-.47-.33-.81-.96-.81h-.52v-1.78h.67c.46,0,.75-.28.75-.71,0-.46-.31-.73-.74-.73s-.66.21-.82.65l-1.87-1c.34-.98,1.45-1.7,2.75-1.7,1.6,0,2.89.85,2.89,2.35,0,.83-.4,1.5-1.05,1.94v.02c.82.39,1.33,1.07,1.33,2.07Z"/>
        <path d="M124.59,267.92h-3.35v-1.33l3.82-6h1.78v5.44h1.07v1.88h-1.07v1.31h-2.24v-1.31ZM124.84,266.22v-2.11l-1.32,2.11h1.32Z"/>
        <path d="M161.94,255.55c0,1.77-1.36,2.99-3.16,2.99-1.18,0-2.26-.36-3.1-1.28l1.66-1.35c.31.31.71.55,1.22.55.58,0,1.04-.42,1.04-.95,0-.71-.62-.98-1-.98-.31,0-.6.09-1.04.41l-1.21-.48.28-4.69h4.83v2.09h-2.99l-.07,1.07c.35-.1.69-.16.95-.16,1.41,0,2.58,1.1,2.58,2.77Z"/>
        <path d="M192.83,260.63c0,1.8-1.34,2.94-3.21,2.94s-3.14-1.43-3.14-3.58c0-2.5,1.63-4.9,4.72-5.5l.6,1.78c-1.48.42-2.32.99-2.76,1.82h.04c.38-.16.8-.25,1.2-.25,1.29,0,2.55.96,2.55,2.79ZM190.64,260.54c0-.57-.38-.98-1-.98-.31,0-.71.19-1,.53v.1c0,.86.47,1.36,1,1.36.63,0,1-.44,1-1.01Z"/>
        <path d="M240.4,127.32l-1.18.89-1.12-1.75,2.81-1.95h1.86v8.64h-2.37v-5.83Z"/>
        <path d="M350.92,106.97l-1.18.89-1.12-1.75,2.81-1.95h1.86v8.64h-2.37v-5.83Z"/>
        <path d="M448.88,359.17l-1.18.89-1.12-1.75,2.81-1.95h1.86v8.64h-2.37v-5.83Z"/>
        <path d="M281.24,149.83v2.1h-5.84l-.02-1.5,2.46-2.64c.68-.71.98-1.18.98-1.75,0-.43-.29-.73-.7-.73s-.8.2-1.16.69l-1.66-1.2c.52-.88,1.49-1.63,3.02-1.63s2.85.98,2.85,2.6c0,1.01-.23,1.68-1.41,2.9l-1.1,1.14v.02h2.59Z"/>
        <path d="M281.3,188.76c0,1.55-1.28,2.51-3.04,2.51-1.6,0-2.82-.89-3.24-2.06l2.04-.79c.16.55.47.83,1.03.83.39,0,.78-.25.78-.81,0-.47-.32-.81-.96-.81h-.52v-1.78h.67c.46,0,.75-.28.75-.71,0-.46-.31-.73-.74-.73s-.66.21-.82.65l-1.87-1c.34-.98,1.45-1.69,2.75-1.69,1.6,0,2.89.85,2.89,2.35,0,.83-.4,1.5-1.05,1.94v.02c.82.39,1.33,1.07,1.33,2.07Z"/>
        <path d="M242.93,170.01h-3.35v-1.33l3.82-6h1.78v5.44h1.07v1.88h-1.07v1.31h-2.24v-1.31ZM243.18,168.3v-2.11l-1.32,2.11h1.32Z"/>
        <path d="M383.99,109.21v2.1h-5.84l-.02-1.51,2.46-2.64c.68-.71.98-1.18.98-1.74,0-.43-.29-.73-.7-.73s-.8.19-1.16.69l-1.66-1.21c.52-.88,1.49-1.63,3.02-1.63s2.85.98,2.85,2.6c0,1.02-.23,1.68-1.41,2.9l-1.1,1.14v.03h2.59Z"/>
        <path d="M413.45,110.11c0,1.55-1.28,2.51-3.04,2.51-1.6,0-2.82-.89-3.24-2.06l2.04-.79c.16.55.47.83,1.03.83.39,0,.78-.25.78-.81,0-.47-.32-.81-.96-.81h-.52v-1.78h.67c.46,0,.75-.28.75-.71,0-.46-.31-.73-.74-.73s-.66.21-.82.65l-1.87-1c.34-.98,1.45-1.69,2.75-1.69,1.6,0,2.89.85,2.89,2.35,0,.83-.4,1.5-1.05,1.94v.02c.82.39,1.33,1.07,1.33,2.07Z"/>
        <path d="M437.72,119.68h-3.35v-1.33l3.82-6h1.78v5.44h1.07v1.89h-1.07v1.31h-2.24v-1.31ZM437.97,117.97v-2.11l-1.32,2.11h1.32Z"/>
        <path d="M466.49,132.08c0,1.77-1.36,2.99-3.16,2.99-1.18,0-2.26-.36-3.1-1.28l1.66-1.35c.31.31.71.55,1.22.55.58,0,1.04-.42,1.04-.95,0-.71-.62-.98-1-.98-.31,0-.6.09-1.04.41l-1.21-.48.28-4.69h4.84v2.09h-2.99l-.07,1.07c.35-.1.69-.16.95-.16,1.41,0,2.58,1.1,2.58,2.77Z"/>
        <path d="M485.96,372.65v2.1h-5.84l-.02-1.5,2.46-2.64c.68-.71.98-1.18.98-1.74,0-.43-.29-.73-.7-.73s-.8.2-1.16.69l-1.66-1.21c.52-.88,1.49-1.63,3.02-1.63s2.85.98,2.85,2.6c0,1.02-.23,1.68-1.41,2.9l-1.1,1.14v.03h2.59Z"/>
        <path d="M518.95,372.36c0,1.55-1.28,2.51-3.04,2.51-1.6,0-2.82-.89-3.24-2.06l2.04-.79c.16.55.47.83,1.03.83.39,0,.78-.25.78-.81,0-.47-.32-.81-.96-.81h-.52v-1.78h.67c.46,0,.75-.28.75-.71,0-.46-.31-.73-.74-.73s-.66.21-.82.65l-1.87-1c.34-.98,1.45-1.7,2.75-1.7,1.6,0,2.89.85,2.89,2.35,0,.83-.4,1.5-1.05,1.94v.02c.82.39,1.33,1.07,1.33,2.07Z"/>
        <path d="M552.95,363.68h-3.35v-1.33l3.82-6h1.78v5.44h1.07v1.89h-1.07v1.31h-2.24v-1.31ZM553.2,361.97v-2.11l-1.32,2.11h1.32Z"/>
        <path d="M565.92,335.25c0,1.77-1.36,2.99-3.16,2.99-1.18,0-2.26-.36-3.1-1.28l1.66-1.35c.31.31.71.55,1.22.55.58,0,1.04-.42,1.04-.95,0-.71-.62-.98-1-.98-.31,0-.6.09-1.04.41l-1.21-.48.28-4.69h4.84v2.09h-2.99l-.07,1.07c.35-.1.69-.16.95-.16,1.41,0,2.58,1.1,2.58,2.77Z"/>
        <path d="M564.14,302.32c0,1.8-1.34,2.94-3.21,2.94s-3.14-1.43-3.14-3.58c0-2.5,1.63-4.9,4.72-5.5l.6,1.78c-1.48.42-2.32,1-2.76,1.82h.04c.38-.16.8-.25,1.2-.25,1.29,0,2.55.96,2.55,2.79ZM561.94,302.23c0-.57-.38-.98-1-.98-.31,0-.71.19-1,.53v.1c0,.86.47,1.36,1,1.36.63,0,1-.44,1-1.01Z"/>
        <path d="M562.53,266.53v1.49l-2.6,7.37-2.3-.41,2.39-6.38h-2.91v-2.07h5.41Z"/>
        <path d="M558.39,240.43c0,1.59-1.43,2.53-3.24,2.53s-3.21-.95-3.21-2.53c0-1.19.68-1.96,1.53-2.28h0c-.57-.26-1.05-.95-1.05-1.77,0-1.56,1.22-2.32,2.72-2.32s2.74.77,2.74,2.32c0,.81-.47,1.5-1.04,1.76v.02c.88.32,1.54,1.1,1.54,2.28ZM556.03,240.1c0-.52-.37-.92-.88-.92s-.88.4-.88.92.39.97.88.97.88-.44.88-.97ZM554.5,236.58c0,.41.28.71.66.71s.66-.31.66-.71c0-.43-.29-.75-.66-.75s-.66.32-.66.75Z"/>
        <path d="M559.23,209.16c0,2.5-1.65,4.91-4.75,5.5l-.61-1.77c1.5-.43,2.35-1.01,2.78-1.86-.4.19-.84.28-1.26.28-1.29,0-2.54-.96-2.54-2.79s1.39-2.97,3.15-2.97c2,0,3.23,1.46,3.23,3.6ZM556.03,209.59c.32,0,.72-.19,1.01-.53v-.1c0-.86-.48-1.37-1.01-1.37-.63,0-.99.46-.99,1.03s.37.98,1,.98Z"/>
        <g>
          <path d="M560.37,180.96l-1.18.89-1.12-1.75,2.81-1.95h1.86v8.64h-2.37v-5.83Z"/>
          <path d="M563.89,182.46c0-2.71,1.36-4.44,3.49-4.44s3.5,1.69,3.5,4.44-1.38,4.46-3.5,4.46-3.49-1.68-3.49-4.46ZM568.46,182.46c0-1.3-.31-2.25-1.08-2.25-.62,0-1.07.66-1.07,2.25,0,1.31.31,2.27,1.07,2.27.63,0,1.08-.65,1.08-2.27Z"/>
        </g>
        <g>
          <path d="M579.03,157.42l-1.18.89-1.12-1.75,2.81-1.95h1.86v8.64h-2.37v-5.83Z"/>
          <path d="M584.44,157.42l-1.18.89-1.12-1.75,2.81-1.95h1.86v8.64h-2.37v-5.83Z"/>
        </g>
        <g>
          <path d="M592.65,119.43l-1.18.89-1.12-1.74,2.81-1.95h1.86v8.64h-2.37v-5.83Z"/>
          <path d="M601.95,123.16v2.1h-5.84l-.02-1.51,2.46-2.64c.68-.71.98-1.18.98-1.74,0-.43-.29-.73-.7-.73s-.8.2-1.16.69l-1.66-1.21c.52-.88,1.49-1.63,3.02-1.63s2.85.98,2.85,2.6c0,1.02-.23,1.68-1.41,2.9l-1.1,1.14v.02h2.59Z"/>
        </g>
        <g>
          <path d="M625.99,114.02l-1.18.89-1.12-1.75,2.81-1.95h1.85v8.64h-2.36v-5.83Z"/>
          <path d="M635.37,117.47c0,1.55-1.28,2.51-3.04,2.51-1.6,0-2.82-.89-3.24-2.06l2.04-.79c.16.55.47.83,1.03.83.39,0,.78-.25.78-.81,0-.47-.32-.81-.96-.81h-.52v-1.78h.67c.46,0,.75-.28.75-.71,0-.46-.31-.73-.74-.73s-.66.21-.82.65l-1.87-1c.34-.98,1.45-1.69,2.75-1.69,1.6,0,2.89.85,2.89,2.35,0,.83-.4,1.5-1.05,1.94v.02c.82.39,1.33,1.07,1.33,2.07Z"/>
        </g>
        <g>
          <path d="M659.13,121.98l-1.18.89-1.12-1.74,2.81-1.95h1.86v8.64h-2.37v-5.83Z"/>
          <path d="M665.69,126.5h-3.35v-1.33l3.82-6h1.78v5.44h1.07v1.88h-1.07v1.31h-2.24v-1.31ZM665.94,124.79v-2.11l-1.32,2.11h1.32Z"/>
        </g>
        <g>
          <path d="M693.08,156.58l-1.18.89-1.12-1.74,2.81-1.95h1.86v8.64h-2.37v-5.83Z"/>
          <path d="M702.43,159.55c0,1.77-1.36,2.99-3.16,2.99-1.18,0-2.26-.36-3.1-1.28l1.66-1.35c.31.31.71.55,1.22.55.58,0,1.04-.42,1.04-.95,0-.71-.62-.98-1-.98-.31,0-.6.09-1.04.41l-1.21-.48.28-4.69h4.84v2.09h-2.99l-.07,1.07c.35-.1.69-.16.95-.16,1.41,0,2.58,1.11,2.58,2.77Z"/>
        </g>
        <g>
          <path d="M697.78,189.86l-1.18.89-1.12-1.75,2.81-1.95h1.85v8.64h-2.36v-5.83Z"/>
          <path d="M707.65,192.88c0,1.8-1.34,2.94-3.21,2.94s-3.14-1.43-3.14-3.58c0-2.5,1.63-4.9,4.72-5.5l.6,1.78c-1.48.43-2.32,1-2.76,1.82h.04c.38-.16.8-.25,1.2-.25,1.29,0,2.55.96,2.55,2.79ZM705.45,192.79c0-.57-.38-.98-1-.98-.31,0-.71.19-1,.53v.1c0,.86.47,1.36,1,1.36.63,0,1-.44,1-1.02Z"/>
        </g>
        <path d="M593.62,592.96l-1.18.89-1.12-1.75,2.81-1.95h1.86v8.64h-2.37v-5.83Z"/>
        <path d="M636.4,391.98l-1.18.89-1.12-1.75,2.81-1.95h1.86v8.64h-2.37v-5.83Z"/>
        <path d="M588.07,630.16v2.1h-5.84l-.02-1.5,2.46-2.64c.68-.71.98-1.18.98-1.74,0-.43-.29-.73-.7-.73s-.8.2-1.16.69l-1.66-1.21c.52-.88,1.49-1.63,3.02-1.63s2.85.98,2.85,2.6c0,1.02-.23,1.68-1.41,2.9l-1.1,1.14v.03h2.59Z"/>
        <path d="M574.33,656.23c0,1.55-1.28,2.51-3.04,2.51-1.6,0-2.82-.89-3.24-2.06l2.04-.79c.16.55.47.83,1.03.83.39,0,.78-.25.78-.81,0-.47-.32-.81-.96-.81h-.52v-1.78h.67c.46,0,.75-.28.75-.71,0-.46-.31-.73-.74-.73s-.66.21-.82.65l-1.87-1c.34-.98,1.45-1.7,2.75-1.7,1.6,0,2.89.85,2.89,2.35,0,.83-.4,1.5-1.05,1.94v.02c.82.39,1.33,1.07,1.33,2.07Z"/>
        <path d="M550.98,677.04h-3.35v-1.33l3.82-6h1.78v5.44h1.07v1.89h-1.07v1.31h-2.24v-1.31ZM551.23,675.33v-2.11l-1.32,2.11h1.32Z"/>
        <path d="M526.4,692.62c0,1.77-1.36,2.99-3.16,2.99-1.18,0-2.26-.36-3.1-1.28l1.66-1.35c.31.31.71.55,1.22.55.58,0,1.04-.42,1.04-.95,0-.71-.62-.98-1-.98-.31,0-.6.09-1.04.41l-1.21-.48.28-4.69h4.84v2.09h-2.99l-.07,1.07c.35-.1.69-.16.95-.16,1.41,0,2.58,1.1,2.58,2.77Z"/>
        <path d="M500.28,700.22c0,1.8-1.34,2.94-3.21,2.94s-3.14-1.43-3.14-3.58c0-2.5,1.63-4.9,4.72-5.5l.6,1.78c-1.48.42-2.32,1-2.76,1.82h.04c.38-.16.8-.25,1.2-.25,1.29,0,2.55.96,2.55,2.79ZM498.09,700.13c0-.57-.38-.98-1-.98-.31,0-.71.19-1,.53v.1c0,.86.47,1.36,1,1.36.63,0,1-.44,1-1.01Z"/>
        <path d="M468.88,695.79v1.49l-2.6,7.37-2.3-.41,2.39-6.38h-2.91v-2.07h5.41Z"/>
        <path d="M438.61,693.09c0,1.59-1.43,2.52-3.24,2.52s-3.21-.94-3.21-2.52c0-1.19.68-1.96,1.53-2.29h0c-.57-.26-1.05-.95-1.05-1.77,0-1.55,1.22-2.32,2.72-2.32s2.74.78,2.74,2.32c0,.81-.47,1.51-1.04,1.76v.02c.88.32,1.54,1.1,1.54,2.28ZM436.24,692.77c0-.52-.37-.92-.88-.92s-.88.4-.88.92c0,.55.39.97.88.97s.88-.44.88-.97ZM434.71,689.25c0,.41.28.71.66.71s.66-.31.66-.71c0-.43-.29-.75-.66-.75s-.66.33-.66.75Z"/>
        <path d="M414.75,677.48c0,2.5-1.65,4.91-4.75,5.5l-.61-1.78c1.5-.42,2.35-1.01,2.78-1.85-.4.18-.84.28-1.26.28-1.29,0-2.54-.96-2.54-2.79s1.39-2.97,3.15-2.97c2,0,3.23,1.46,3.23,3.61ZM411.56,677.9c.32,0,.72-.19,1.01-.53v-.1c0-.86-.48-1.37-1.01-1.37-.63,0-.99.46-.99,1.03s.37.98,1,.98Z"/>
        <g>
          <path d="M387.41,656.09l-1.18.89-1.12-1.75,2.81-1.95h1.86v8.64h-2.37v-5.83Z"/>
          <path d="M390.93,657.59c0-2.71,1.36-4.44,3.49-4.44s3.5,1.7,3.5,4.44-1.38,4.45-3.5,4.45-3.49-1.68-3.49-4.45ZM395.5,657.59c0-1.3-.31-2.25-1.08-2.25-.62,0-1.07.66-1.07,2.25,0,1.31.31,2.27,1.07,2.27.63,0,1.08-.65,1.08-2.27Z"/>
        </g>
        <g>
          <path d="M371.97,630.32l-1.18.89-1.12-1.75,2.81-1.95h1.85v8.64h-2.36v-5.83Z"/>
          <path d="M377.37,630.32l-1.18.89-1.12-1.75,2.81-1.95h1.85v8.64h-2.36v-5.83Z"/>
        </g>
        <g>
          <path d="M355.8,600.36l-1.18.89-1.12-1.75,2.81-1.95h1.86v8.64h-2.37v-5.83Z"/>
          <path d="M365.1,604.09v2.1h-5.84l-.02-1.5,2.46-2.64c.68-.71.98-1.18.98-1.74,0-.43-.29-.73-.7-.73s-.8.2-1.16.69l-1.66-1.21c.52-.88,1.49-1.63,3.02-1.63s2.85.98,2.85,2.6c0,1.02-.23,1.68-1.41,2.9l-1.1,1.14v.03h2.59Z"/>
        </g>
        <g>
          <path d="M315.33,564.59l-1.18.89-1.12-1.75,2.81-1.95h1.85v8.64h-2.36v-5.83Z"/>
          <path d="M324.7,568.04c0,1.55-1.28,2.51-3.04,2.51-1.6,0-2.82-.89-3.24-2.06l2.04-.79c.16.55.47.83,1.03.83.39,0,.78-.25.78-.81,0-.47-.32-.81-.96-.81h-.52v-1.78h.67c.46,0,.75-.28.75-.71,0-.46-.31-.73-.74-.73s-.66.21-.82.65l-1.87-1c.34-.98,1.45-1.7,2.75-1.7,1.6,0,2.89.85,2.89,2.35,0,.83-.4,1.5-1.05,1.94v.02c.82.39,1.33,1.07,1.33,2.07Z"/>
        </g>
        <g>
          <path d="M296.65,596.37l-1.18.89-1.12-1.75,2.81-1.95h1.86v8.64h-2.37v-5.83Z"/>
          <path d="M303.22,600.89h-3.35v-1.33l3.82-6h1.78v5.44h1.07v1.89h-1.07v1.31h-2.24v-1.31ZM303.47,599.18v-2.11l-1.32,2.11h1.32Z"/>
        </g>
        <g>
          <path d="M280.18,619.63l-1.18.89-1.12-1.75,2.81-1.95h1.86v8.64h-2.37v-5.83Z"/>
          <path d="M286.96,619.83c1.41,0,2.58,1.1,2.58,2.77,0,1.77-1.36,2.99-3.16,2.99-1.18,0-2.26-.36-3.1-1.28l1.66-1.35c.31.31.71.55,1.22.55.58,0,1.04-.42,1.04-.95,0-.71-.62-.98-1-.98-.31,0-.6.09-1.04.41l-1.21-.48.28-4.69h4.83v2.09h-2.99l-.07,1.07c.35-.1.69-.16.95-.16h0Z"/>
        </g>
        <g>
          <path d="M257.48,634.48l-1.18.89-1.12-1.75,2.81-1.95h1.86v8.64h-2.37v-5.83Z"/>
          <path d="M267.35,637.5c0,1.8-1.34,2.94-3.21,2.94s-3.14-1.43-3.14-3.58c0-2.5,1.63-4.9,4.72-5.5l.6,1.78c-1.48.42-2.32,1-2.76,1.82h.04c.38-.16.8-.25,1.2-.25,1.29,0,2.55.96,2.55,2.79ZM265.16,637.41c0-.57-.38-.98-1-.98-.31,0-.71.19-1,.53v.1c0,.86.47,1.36,1,1.36.63,0,1-.44,1-1.01Z"/>
        </g>
        <g>
          <path d="M237.82,646.59l-1.18.89-1.12-1.75,2.81-1.95h1.86v8.64h-2.37v-5.83Z"/>
          <path d="M246.51,643.78v1.49l-2.6,7.37-2.3-.4,2.39-6.38h-2.91v-2.07h5.41Z"/>
        </g>
        <g>
          <path d="M208.89,646.59l-1.18.89-1.12-1.75,2.81-1.95h1.86v8.64h-2.37v-5.83Z"/>
          <path d="M218.73,650.02c0,1.59-1.43,2.52-3.24,2.52s-3.21-.94-3.21-2.52c0-1.19.68-1.96,1.54-2.29h0c-.57-.26-1.05-.95-1.05-1.77,0-1.55,1.22-2.32,2.72-2.32s2.73.78,2.73,2.32c0,.81-.47,1.51-1.04,1.76v.02c.88.32,1.54,1.1,1.54,2.28ZM216.37,649.7c0-.52-.37-.92-.88-.92s-.88.4-.88.92c0,.55.39.97.88.97s.88-.44.88-.97ZM214.83,646.18c0,.41.28.71.66.71s.66-.31.66-.71c0-.43-.29-.75-.66-.75s-.66.33-.66.75Z"/>
        </g>
        <g>
          <path d="M184.24,632.2l-1.18.89-1.12-1.75,2.81-1.95h1.86v8.64h-2.37v-5.83Z"/>
          <path d="M194.06,632.87c0,2.5-1.65,4.91-4.76,5.5l-.61-1.78c1.51-.42,2.35-1.01,2.78-1.85-.4.18-.84.28-1.26.28-1.29,0-2.54-.96-2.54-2.79s1.39-2.97,3.15-2.97c2,0,3.23,1.46,3.23,3.61ZM190.86,633.3c.32,0,.72-.19,1.01-.53v-.1c0-.86-.48-1.37-1.01-1.37-.63,0-.99.46-.99,1.03s.38.98,1,.98Z"/>
        </g>
        <g>
          <path d="M171.32,610.51v2.1h-5.84l-.02-1.5,2.46-2.64c.68-.71.98-1.18.98-1.74,0-.43-.29-.73-.7-.73s-.8.2-1.16.69l-1.66-1.21c.52-.88,1.49-1.63,3.02-1.63s2.85.98,2.85,2.6c0,1.02-.23,1.68-1.41,2.9l-1.1,1.14v.03h2.59Z"/>
          <path d="M172.06,608.29c0-2.71,1.36-4.44,3.49-4.44s3.5,1.7,3.5,4.44-1.38,4.45-3.5,4.45-3.49-1.68-3.49-4.45ZM176.63,608.29c0-1.3-.31-2.25-1.08-2.25-.62,0-1.07.66-1.07,2.25,0,1.31.31,2.27,1.07,2.27.63,0,1.08-.65,1.08-2.27Z"/>
        </g>
        <g>
          <path d="M158.71,581.88v2.1h-5.84l-.02-1.5,2.46-2.64c.68-.71.98-1.18.98-1.74,0-.43-.29-.73-.7-.73s-.8.2-1.16.69l-1.66-1.21c.52-.88,1.49-1.63,3.02-1.63s2.85.98,2.85,2.6c0,1.02-.23,1.68-1.41,2.9l-1.1,1.14v.03h2.59Z"/>
          <path d="M161.33,578.15l-1.18.89-1.12-1.75,2.81-1.95h1.86v8.64h-2.37v-5.83Z"/>
        </g>
        <g>
          <path d="M152.43,550.04v2.1h-5.84l-.02-1.5,2.46-2.64c.68-.71.98-1.18.98-1.74,0-.43-.29-.73-.7-.73s-.8.2-1.16.69l-1.66-1.21c.52-.88,1.49-1.63,3.02-1.63s2.85.98,2.85,2.6c0,1.02-.23,1.68-1.41,2.9l-1.1,1.14v.03h2.59Z"/>
          <path d="M158.96,550.04v2.1h-5.84l-.02-1.5,2.46-2.64c.68-.71.98-1.18.98-1.74,0-.43-.29-.73-.7-.73s-.8.2-1.16.69l-1.66-1.21c.52-.88,1.49-1.63,3.02-1.63s2.85.98,2.85,2.6c0,1.02-.23,1.68-1.41,2.9l-1.1,1.14v.03h2.59Z"/>
        </g>
        <g>
          <path d="M154.89,515.96v2.1h-5.84l-.02-1.5,2.46-2.64c.68-.71.98-1.18.98-1.74,0-.43-.29-.73-.7-.73s-.8.2-1.16.69l-1.66-1.21c.52-.88,1.49-1.63,3.02-1.63s2.85.98,2.85,2.6c0,1.02-.23,1.68-1.41,2.9l-1.1,1.14v.03h2.59Z"/>
          <path d="M161.49,515.68c0,1.55-1.28,2.51-3.04,2.51-1.6,0-2.82-.89-3.24-2.06l2.04-.79c.16.55.47.83,1.03.83.39,0,.78-.25.78-.81,0-.47-.32-.81-.96-.81h-.52v-1.78h.67c.46,0,.75-.28.75-.71,0-.46-.31-.73-.74-.73s-.66.21-.82.65l-1.87-1c.34-.98,1.45-1.7,2.75-1.7,1.6,0,2.89.85,2.89,2.35,0,.83-.4,1.5-1.05,1.94v.02c.82.39,1.33,1.07,1.33,2.07Z"/>
        </g>
        <g>
          <path d="M155.9,483.08v2.1h-5.84l-.02-1.5,2.46-2.64c.68-.71.98-1.18.98-1.74,0-.43-.29-.73-.7-.73s-.8.2-1.16.69l-1.66-1.21c.52-.88,1.49-1.63,3.02-1.63s2.85.98,2.85,2.6c0,1.02-.23,1.68-1.41,2.9l-1.1,1.14v.03h2.59Z"/>
          <path d="M159.68,483.87h-3.35v-1.33l3.82-6h1.78v5.44h1.07v1.89h-1.07v1.31h-2.24v-1.31ZM159.93,482.16v-2.11l-1.32,2.11h1.32Z"/>
        </g>
        <path d="M667.24,371.81v2.1h-5.84l-.02-1.5,2.46-2.64c.68-.71.98-1.18.98-1.74,0-.43-.29-.73-.7-.73s-.8.2-1.16.69l-1.66-1.21c.52-.88,1.49-1.63,3.02-1.63s2.85.98,2.85,2.6c0,1.02-.23,1.68-1.41,2.9l-1.1,1.14v.03h2.59Z"/>
        <path d="M688.5,354.81c0,1.55-1.28,2.51-3.04,2.51-1.6,0-2.82-.89-3.24-2.06l2.04-.79c.16.55.47.83,1.03.83.39,0,.78-.25.78-.81,0-.47-.32-.81-.96-.81h-.52v-1.78h.67c.46,0,.75-.28.75-.71,0-.46-.31-.73-.74-.73s-.66.21-.82.65l-1.87-1c.34-.98,1.45-1.7,2.75-1.7,1.6,0,2.89.85,2.89,2.35,0,.83-.4,1.5-1.05,1.94v.02c.82.39,1.33,1.07,1.33,2.07Z"/>
        <path d="M694.4,338.27h-3.35v-1.33l3.82-6h1.78v5.44h1.07v1.89h-1.07v1.31h-2.24v-1.31ZM694.65,336.56v-2.11l-1.32,2.11h1.32Z"/>
        <path d="M673.41,321.13c0,1.77-1.36,2.99-3.16,2.99-1.18,0-2.26-.36-3.1-1.28l1.66-1.35c.31.31.71.55,1.22.55.58,0,1.04-.42,1.04-.95,0-.71-.62-.98-1-.98-.31,0-.6.09-1.04.41l-1.21-.48.28-4.69h4.84v2.09h-2.99l-.07,1.07c.35-.1.69-.16.95-.16,1.41,0,2.58,1.1,2.58,2.77Z"/>
        <path d="M688.73,293.55c0,1.8-1.34,2.94-3.21,2.94s-3.14-1.43-3.14-3.58c0-2.5,1.63-4.9,4.72-5.5l.6,1.78c-1.48.43-2.32,1-2.76,1.82h.04c.38-.16.8-.25,1.2-.25,1.29,0,2.55.96,2.55,2.79ZM686.54,293.47c0-.57-.38-.98-1-.98-.31,0-.71.19-1,.53v.1c0,.86.47,1.36,1,1.36.63,0,1-.44,1-1.02Z"/>
        <path d="M724.01,293.23v1.49l-2.6,7.37-2.3-.41,2.39-6.38h-2.91v-2.07h5.41Z"/>
        <path d="M758.6,324.83c0,1.59-1.43,2.52-3.24,2.52s-3.21-.94-3.21-2.52c0-1.19.68-1.96,1.53-2.29h0c-.57-.26-1.05-.95-1.05-1.77,0-1.55,1.22-2.32,2.72-2.32s2.74.78,2.74,2.32c0,.81-.47,1.51-1.04,1.76v.02c.88.32,1.54,1.1,1.54,2.28ZM756.24,324.5c0-.52-.37-.92-.88-.92s-.88.4-.88.92c0,.55.39.97.88.97s.88-.44.88-.97ZM754.71,320.98c0,.41.28.71.66.71s.66-.31.66-.71c0-.43-.29-.75-.66-.75s-.66.33-.66.75Z"/>
        <path d="M771.56,357.77c0,2.5-1.65,4.91-4.75,5.5l-.61-1.78c1.5-.42,2.35-1.01,2.78-1.85-.4.18-.84.28-1.26.28-1.29,0-2.54-.96-2.54-2.79s1.39-2.97,3.15-2.97c2,0,3.23,1.46,3.23,3.61ZM768.36,358.2c.32,0,.72-.19,1.01-.53v-.1c0-.86-.48-1.37-1.01-1.37-.63,0-.99.46-.99,1.03s.37.98,1,.98Z"/>
      </g>
    </g>
  </g>
</svg>