<?xml version="1.0" encoding="UTF-8"?>
<svg xmlns="http://www.w3.org/2000/svg" width="800" height="800" version="1.1" viewBox="0 0 800 800">
  <defs>
    <style>
      .cls-1, .cls-2 {
        fill: #fff;
      }

      .cls-1, .cls-3 {
        stroke: #221f20;
        stroke-linecap: round;
        stroke-linejoin: round;
        stroke-width: 2px;
      }

      .cls-4 {
        fill: #1c1c1b;
        font-family: Averta-Black, Averta;
        font-size: 9.06px;
        font-weight: 800;
      }

      .cls-5 {
        fill: #fcc700;
      }

      .cls-6 {
        fill: #221f20;
      }

      .cls-3 {
        fill: none;
      }

      .cls-7 {
        fill: #e8504c;
      }

      .cls-8 {
        fill: #009a93;
      }
    </style>
  </defs>
  <!-- Generator: Adobe Illustrator 28.7.3, SVG Export Plug-In . SVG Version: 1.2.0 Build 164)  -->
  <g>
    <g id="Camada_1">
      <g>
        <path class="cls-2" d="M577.67,382.76s4.85,93.46-9.69,115.62c-14.54,22.15-23.54,24.23-60.92,23.54-37.39-.69-4.85-151.62-4.85-151.62l75.46,12.46Z"/>
        <path class="cls-3" d="M575.84,469.33c-1.58,12.59-4.06,23.26-7.86,29.05-14.54,22.15-23.54,24.23-60.92,23.54-37.39-.69-4.85-151.62-4.85-151.62l75.46,12.46"/>
        <path class="cls-2" d="M512.59,274.07c1.38-2.08,49.85-11.08,71.31,24.23,21.46,35.31,13.85,71.31.69,85.85-13.15,14.54-73.39,1.38-73.39,1.38l-8.31-100.39,12.46-13.15"/>
        <path class="cls-3" d="M575.7,389c-21.19,5.98-64.49-3.47-64.49-3.47l-8.31-100.39,12.46-13.15"/>
        <path class="cls-3" d="M512.59,274.07"/>
        <path class="cls-1" d="M552.06,571.42s15.92-11.08,31.15-6.23c15.23,4.85,28.39,35.31,26.31,47.08-2.08,11.77-28.39,20.77-30.46,21.46-2.08.69-27-62.31-27-62.31Z"/>
        <path class="cls-2" d="M267.51,684.62c2.08-.69,184.85,0,184.85,0,0,0,116.31-6.92,119.08-8.31,2.77-1.38,22.15,0,29.08-9.69,6.92-9.69-4.85-92.77-54-109.39-49.16-16.62-132.23,1.38-135,1.38s-48.46,85.85-48.46,85.85c0,0-74.08,1.38-93.46-2.08-19.39-3.46-2.08,42.23-2.08,42.23Z"/>
        <path class="cls-3" d="M546.52,557.23c-49.16-16.62-132.23,1.38-135,1.38s-48.46,85.85-48.46,85.85c0,0-74.08,1.38-93.46-2.08-19.39-3.46-2.08,42.23-2.08,42.23"/>
        <path class="cls-3" d="M571.44,676.31"/>
        <path class="cls-2" d="M411.52,567.61c3.46,0,110.77,3.46,130.16-1.38,19.39-4.85,13.15-37.39-2.77-41.54-15.92-4.15-82.39,1.38-84.46,1.38s-42.92,41.54-42.92,41.54Z"/>
        <path class="cls-3" d="M506.71,522.61c-24.46.44-50.9,3.46-52.27,3.46-2.08,0-42.92,41.54-42.92,41.54,3.46,0,110.77,3.46,130.16-1.38,4.01-1,6.93-3.19,8.89-6.08"/>
        <path class="cls-1" d="M318.23,303.17s-13.25,51.47-63.7,79.14c-33.41,18.33-61.84,23.31-64,30.64-2.16,7.33,8.11,10.45,8.11,10.45,0,0-4.26,5.78-2.25,12.94,2.01,7.17,12.12,6.11,12.12,6.11,0,0-5.25,5.46,2.31,12.25,7.56,6.8,44.99,10.5,97.65-17.97,52.66-28.47,74.01-78.82,74.01-78.82"/>
        <path class="cls-2" d="M492.75,226.76s22.62,62.77,29.54,169.39c6.92,106.62-12.69,143.08-50.54,154.16-37.85,11.08-51.15,22.76-68.54,47.08-15.2,21.26-28.15,49.39-40.15,53.08-12,3.69-45.23-1.85-52.62-6.92-7.38-5.08,1.31-54.25,4.85-64.85,3.12-9.35-2.38-15.61-12.46-10.38-18.69,9.69-26.08,45.23-30.23,56.77-4.15,11.54-49.08-40.86-46.62-51.23,13.15-55.39,26.52-56.14,38.08-80.31,15.23-31.85,33-238.62,40.39-280.62,7.38-42,49.85-94.16,54.92-96,5.08-1.85,56.31-12,60.92-9.69,4.62,2.31,30.92,18.46,33.69,22.62,2.77,4.15,19.85,55.85,18,57.69-1.85,1.85,20.77,39.23,20.77,39.23Z"/>
        <path class="cls-3" d="M502.55,261.3c7,28.86,15.85,74.93,19.74,134.84,6.92,106.62-12.69,143.08-50.54,154.16-37.85,11.08-51.15,22.76-68.54,47.08-15.2,21.26-28.15,49.39-40.15,53.08-12,3.69-45.23-1.85-52.62-6.92-7.38-5.08,1.31-54.25,4.85-64.85,3.12-9.35-2.38-15.61-12.46-10.38-18.69,9.69-26.08,45.23-30.23,56.77-4.15,11.54-49.08-40.86-46.62-51.23,13.15-55.39,26.52-56.14,38.08-80.31,4.46-9.32,9.13-33.63,13.7-64.41"/>
        <path class="cls-3" d="M304.43,212.91c7.38-42,49.85-94.16,54.92-96,5.08-1.85,56.31-12,60.92-9.69,4.62,2.31,30.92,18.46,33.69,22.62,2.77,4.15,19.85,55.85,18,57.69-1.85,1.85,20.77,39.23,20.77,39.23,0,0,1.79,4.96,4.51,14.45"/>
        <path class="cls-1" d="M358.9,280.99c-68.54,0-103.16,235.39-25.62,235.39,97.62,0,148.85-235.39,25.62-235.39Z"/>
        <circle class="cls-1" cx="194.12" cy="687.39" r="61.85" transform="translate(-515.48 768.9) rotate(-80.78)"/>
        <circle class="cls-1" cx="194.12" cy="687.39" r="28.15" transform="translate(-429.2 338.6) rotate(-45)"/>
        <circle class="cls-1" cx="493.21" cy="687.39" r="61.85" transform="translate(-341.6 550.08) rotate(-45)"/>
        <circle class="cls-1" cx="493.21" cy="687.39" r="28.15" transform="translate(-341.6 550.08) rotate(-45)"/>
        <path class="cls-1" d="M171.05,615.38s-7.27-51.77,33.23-57.69c0,0,10.62,30.46,11.08,32.31.46,1.85,3.69,25.39-1.38,26.77-5.08,1.38-18.46,3.69-22.15,3.23-3.69-.46-20.77-4.62-20.77-4.62Z"/>
        <path class="cls-2" d="M201.97,607.54c-54.59-6.42-83.54,36-83.08,62.31.46,26.31,36.92-11.08,80.77-2.31,43.85,8.77,48,31.39,65.54,27.69,17.54-3.69-8.31-81.23-63.23-87.69Z"/>
        <path class="cls-2" d="M246.74,470.92s-21.23,62.31-2.77,108c18.46,45.69,50.31,56.31,38.31,77.08-12,20.77-56.77-4.62-74.77-34.15-18-29.54,0-129.23,12.92-156.47,12.92-27.23,26.31,5.54,26.31,5.54Z"/>
        <path class="cls-3" d="M220.43,465.38c12.92-27.23,26.31,5.54,26.31,5.54,0,0-21.23,62.31-2.77,108,18.46,45.69,50.31,56.31,38.31,77.08-12,20.77-56.77-4.62-74.77-34.15-2.23-3.66-3.91-8.39-5.11-13.93"/>
        <path class="cls-2" d="M224.59,421.07s-21.69-4.62-24.92,19.85c-3.23,24.46,18.45,28.58,18.45,28.58,0,0,14.78-21.2,13.86-23.97s-.46-16.15-1.38-17.54c-.92-1.38-6-6.92-6-6.92Z"/>
        <path class="cls-3" d="M218.11,469.5s14.78-21.2,13.86-23.97-.46-16.15-1.38-17.54c-.92-1.38-6-6.92-6-6.92,0,0-21.69-4.62-24.92,19.85"/>
        <path class="cls-1" d="M276.26,444.72s6.5-9.28-5.51-19.11c-12.01-9.83-32.7-10.33-44.32-5.46-11.62,4.86-10.43,42.65-8.32,49.35,2.11,6.71,60.8,22.8,58.15-24.78Z"/>
        <path class="cls-1" d="M306.28,444.61s-36-7.85-45.69-6.46c-9.69,1.38-9.69,21.69-1.38,23.54,12.02,2.67,54.92,2.31,54.92,2.31l-7.85-19.39Z"/>
        <path class="cls-2" d="M456.29,111.37c1.38-1.85,23.54-36.46,48-17.54,24.46,18.92-.92,56.31-12,59.54-11.08,3.23-36-42-36-42Z"/>
        <path class="cls-1" d="M469.55,115.69c.75-1.01,12.83-19.87,26.15-9.56,13.33,10.31-.5,30.68-6.54,32.44-6.04,1.76-19.62-22.89-19.62-22.89Z"/>
        <path class="cls-2" d="M346.11,111.37c-1.38-1.85-23.54-36.46-48-17.54-24.46,18.92.92,56.31,12,59.54,11.08,3.23,36-42,36-42Z"/>
        <path class="cls-1" d="M332.85,115.69c-.75-1.01-12.83-19.87-26.15-9.56-13.33,10.31.5,30.68,6.54,32.44,6.04,1.76,19.62-22.89,19.62-22.89Z"/>
        <path class="cls-1" d="M386.07,182.33c-28.21,0-39.46,36.52-35.48,56.94,3.98,20.42,55.21,30.81,68.37,7.96,13.15-22.85-2.6-64.91-32.89-64.91Z"/>
        <path class="cls-2" d="M387.51,145.52c-52.65,0-57.69,33.23-66,61.39-8.31,28.15-18.46,19.39-21.23,12-2.77-7.38-15.23-127.85,96.93-127.85s110.77,108.46,103.39,139.39c-7.38,30.92-40.62,19.39-42.92,6.92-2.31-12.46,3.69-91.85-70.16-91.85Z"/>
        <path class="cls-3" d="M496.72,240.14c-11.34,18.34-37.04,8.14-39.05-2.76-2.31-12.46,3.69-91.85-70.16-91.85-52.65,0-57.69,33.23-66,61.39-6.87,23.28-15,21.32-19.17,15.76"/>
        <path class="cls-3" d="M460.33,107.56c17.25,11.34,28.03,27.38,34.49,44.36"/>
        <path class="cls-3" d="M306.11,150.89c6.2-17.53,17.08-34.64,35.66-46.04"/>
        <path class="cls-1" d="M335.38,167.45c-9.64,8.65-11.25,43.62,10,43.62s30-18,43.13-15.92c13.13,2.08,20,20.08,39.38,19.39,19.38-.69,20.63-33.23,13.75-45-6.88-11.77-93.13-13.85-106.26-2.08Z"/>
        <path class="cls-1" d="M342.31,172.4c-8.35,6.46-11.27,30.82,7.12,30.82,12,0,27.18-17.71,38.54-16.15,11.36,1.55,22.35,18.92,36,18.92,16.78,0,16.8-22.59,10.85-31.39-5.95-8.8-81.15-11-92.51-2.2Z"/>
        <path class="cls-6" d="M358.6,180.15c-.2-.48-.41-.96-.61-1.44-.38-.71-.9-1.27-1.56-1.7-.38-.37-.82-.63-1.33-.78-.72-.38-1.5-.55-2.33-.52-.54.07-1.07.14-1.61.22-.48.2-.96.41-1.45.61-.7.38-1.27.9-1.7,1.56-.53.58-.9,1.27-1.08,2.06-.31,1.37-.5,2.77-.58,4.17-.03.44-.03.88-.02,1.33.03.93.1,1.96.31,2.84.28,1,.78,1.86,1.51,2.6l1.19.92c.92.53,1.91.8,2.97.8.81.03,1.57-.14,2.27-.51.73-.24,1.36-.64,1.89-1.22.57-.53.98-1.16,1.22-1.89.24-.45.36-.94.43-1.44.1-.24.19-.49.26-.75.27-1.11.42-2.27.5-3.41.08-1.16-.12-2.28-.29-3.43Z"/>
        <path class="cls-6" d="M427.49,181.36c-.2-.48-.41-.96-.61-1.44-.38-.7-.9-1.27-1.56-1.7-.38-.37-.82-.63-1.33-.78-.72-.38-1.5-.55-2.33-.52-.54.07-1.07.14-1.61.22-.48.2-.96.41-1.45.61-.7.38-1.27.9-1.7,1.56-.53.58-.9,1.27-1.08,2.06-.31,1.37-.5,2.77-.58,4.17-.03.44-.03.88-.02,1.33.03.93.1,1.96.31,2.84.28,1,.78,1.86,1.51,2.6l1.19.92c.92.53,1.91.8,2.97.8.81.03,1.57-.14,2.27-.51.73-.24,1.36-.64,1.89-1.22.57-.53.98-1.16,1.22-1.89.24-.45.36-.94.43-1.44.1-.24.19-.49.26-.75.27-1.11.42-2.27.5-3.41.08-1.16-.12-2.28-.29-3.43Z"/>
        <path class="cls-2" d="M425.94,180.71c-.07-.18-.15-.35-.22-.53-.14-.26-.33-.46-.57-.62-.14-.14-.3-.23-.49-.28-.26-.14-.55-.2-.85-.19,0,0,0,0,0,0-.3-.01-.59.05-.85.19-.27.09-.51.24-.71.46-.11.15-.23.3-.34.45-.2.34-.3.71-.3,1.11,0,0,0,0,0,0,.03.2.05.39.08.59.07.18.15.35.22.53.14.26.33.46.57.62.14.14.3.23.49.28.17.1.36.15.56.15.2.05.39.05.59,0,.2,0,.38-.05.56-.15.27-.09.51-.24.71-.46.12-.15.23-.3.35-.45.07-.18.15-.35.22-.53.03-.2.05-.39.08-.59-.03-.2-.05-.39-.08-.59Z"/>
        <path class="cls-2" d="M357.26,179.5l-.22-.53c-.14-.26-.33-.46-.57-.62-.14-.14-.3-.23-.49-.28-.26-.14-.55-.2-.85-.19,0,0,0,0,0,0-.3-.01-.59.05-.85.19-.27.09-.51.24-.71.46-.11.15-.23.3-.34.45-.2.34-.3.71-.3,1.11,0,0,0,0,0,0,.03.2.05.39.08.59.07.18.15.35.22.53.14.26.33.46.57.62.14.14.3.23.49.28.17.1.36.15.56.15.2.05.39.05.59,0,.2,0,.38-.05.56-.15.27-.09.51-.24.71-.46.12-.15.23-.3.35-.45.07-.18.15-.35.22-.53.03-.2.05-.39.08-.59-.03-.2-.05-.39-.08-.59Z"/>
        <path class="cls-6" d="M374.13,198.95c3.02-4.23,20.42-4.15,25.1,1.56,4.67,5.71-3.04,15.23-13.85,14.71-7.27-.35-15.58-10.21-11.25-16.27Z"/>
        <line class="cls-1" x1="387.11" y1="213.31" x2="387.11" y2="229.76"/>
        <path class="cls-3" d="M375.17,224.39s11.08,13.67,26.31,0"/>
        <ellipse class="cls-1" cx="482.13" cy="194.91" rx="13.38" ry="20.31"/>
        <path class="cls-2" d="M405.05,685.08c2.98,11.38,151.85,10.62,167.54,0,15.69-10.62,0-105.7-83.08-105.7s-89.54,86.31-84.46,105.7Z"/>
        <path class="cls-3" d="M577.75,672.83c3.05-28.55-19.59-93.45-88.23-93.45-83.08,0-89.54,86.31-84.46,105.7"/>
        <path class="cls-2" d="M445.44,358.53s7.49-61.86,60.92-68.54c11.08-1.38,15.92-28.39-4.15-27.69-20.08.69-88.62,54.69-69.93,112.85,18.69,58.16,13.15-16.62,13.15-16.62Z"/>
        <path class="cls-3" d="M502.21,262.3c-20.08.69-88.62,54.69-69.93,112.85,18.69,58.16,13.15-16.62,13.15-16.62,0,0,7.49-61.86,60.92-68.54,6.21-.78,10.46-9.6,9.46-17.08"/>
        <path class="cls-1" d="M451.67,342.61s-30.92,54-84.93,73.85c-35.77,13.15-64.62,13.85-67.85,20.77s6.46,11.54,6.46,11.54c0,0-5.08,5.08-4.15,12.46.92,7.38,11.08,7.85,11.08,7.85,0,0-6,4.62.46,12.46,6.46,7.85,42.92,17.08,99.23-3.23,56.31-20.31,84.93-66.93,84.93-66.93"/>
        <path class="cls-3" d="M573.52,740.69h144.7c26.31,0,55.39-43.62,22.85-56.08-8.42-3.23-17.54-3.16-26.43-1.29"/>
        <path class="cls-6" d="M324.04,633.66c-.04-.16-.12-.32-.18-.47-.18-.5-.32-1.03-.41-1.56-.03-.3-.07-.6-.15-.89-.05-.2-.09-.4-.12-.6,0,.06.02.12.02.18-.03-.16-.05-.32-.1-.47-.12-.38-.23-.81-.45-1.14l-.56-.73c-.33-.35-.71-.6-1.16-.74-.28-.16-.58-.24-.91-.25-.48-.11-.95-.09-1.43.06-.22.03-.74.27-.93.38-.04.02-.08.05-.12.08-.34.22-.73.47-1,.76-.37.4-.69.85-1,1.29-.27.39-.45.85-.6,1.29-.04.11-.07.23-.1.35-.15.6-.21,1.27-.28,1.87-.05.44.04.86.09,1.3.06.45.11.9.22,1.34.03.12.07.24.1.35.12.36.31.88.5,1.21.24.32.49.63.73.95.32.24.63.49.95.73.49.28,1.04.48,1.57.69.56.18,1.12.2,1.68.08.56-.03,1.09-.19,1.57-.5.87-.56,1.77-1.46,1.94-2.53.03-.16.06-.31.1-.47.21-.83.25-1.73.02-2.56Z"/>
        <path class="cls-6" d="M343.29,637.26c-.02-.09-.04-.17-.06-.26-.04-.19-.12-.37-.18-.56-.12-.38-.2-.76-.26-1.15,0,.06.02.13.03.19-.03-.17-.05-.34-.1-.5-.04-.13-.08-.27-.12-.4-.04-.15-.06-.3-.09-.45-.04-.37-.09-.73-.19-1.08-.16-.6-.42-1.15-.8-1.64-.33-.43-.44-.52-.87-.85-.6-.46-1.5-.9-2.28-.81-.41.05-.82.1-1.23.16-.7.2-1.32.55-1.83,1.07-.06.07-.12.14-.18.21-.3.36-.62.71-.85,1.12-.19.33-.37.85-.53,1.26-.18.47-.3.96-.38,1.46-.08.52-.21,1.03-.17,1.55.04.52.13,1.04.21,1.56.04.25.08.49.14.74.15.61.39,1.23.68,1.78.06.11.12.22.19.32.56.9,1.01,1.25,1.86,1.87.74.43,1.54.65,2.4.65.86,0,1.66-.22,2.4-.65.72-.42,1.29-.99,1.71-1.71.43-.74.65-1.54.65-2.4.04-.43-.1-1.06-.19-1.48Z"/>
        <path class="cls-6" d="M360.72,636.37c-.09-.75-.15-1.42-.43-2.08-.19-.62-.51-1.25-.97-1.67-.25-.23-.56-.46-.85-.63-.84-.5-1.68-.48-2.61-.34-.96.14-1.63.76-2.19,1.47-.31.3-.59.64-.81,1.05-.14.25-.27.5-.39.76-.38.83-.69,1.69-1.01,2.54-.2.54-.26,1.13-.36,1.69-.17.96-.38,1.92-.31,2.9.08,1.05.34,1.95.99,2.8.59.76,1.43,1.44,2.4,1.66.81.19,1.64.19,2.46,0,1.01-.23,2.3-1.17,2.76-2.12.27-.56.62-1.24.75-1.79.07-.29.12-.59.18-.89.19-.93.41-1.87.45-2.81.02-.56.03-1.14.02-1.7,0-.27-.05-.54-.08-.81Z"/>
        <path class="cls-6" d="M204.22,684.94c-.15-.85-.54-1.64-.89-2.43-.35-.8-.93-1.47-1.48-2.14-.54-.66-1.27-1.18-1.96-1.66-.69-.48-1.55-.79-2.33-1.07-.18-.07-.37-.12-.56-.16-.67-.13-1.37-.22-2.06-.28-.86-.07-1.76.11-2.6.24-.38.06-.75.15-1.1.28-.79.3-1.65.61-2.37,1.09-.54.36-1.05.77-1.54,1.18-.15.12-.29.25-.42.4-.44.47-.82,1-1.2,1.52-.12.17-.23.34-.33.53-.29.58-.54,1.19-.77,1.8-.07.19-.12.39-.16.6-.12.66-.24,1.37-.26,2.05-.01.46.08.92.14,1.37.06.46.1.92.24,1.36.2.65.49,1.29.78,1.9.38.79.98,1.5,1.53,2.16.57.68,1.31,1.2,2.02,1.71.22.16.48.28.72.41.91.79,1.76,1.24,2.91,1.66.1.04.21.07.31.09.59.12,1.27.23,1.87.25.11,0,.23,0,.34,0,.62-.04,1.27-.14,1.88-.26.47-.09.89-.3,1.33-.49.44-.18.89-.35,1.29-.61.55-.36,1.08-.79,1.58-1.21.15-.13.3-.27.43-.42.45-.51.86-1.05,1.25-1.61.11-.16.22-.34.31-.51.39-.76.76-1.58.98-2.42.05-.18.08-.36.11-.55.11-.7.24-1.42.27-2.14.04-.88-.13-1.8-.28-2.65Z"/>
        <path class="cls-6" d="M518.65,627.02c-3.75-.04-7.49-.06-11.24-.08-13.79-.22-27.58-.05-41.37-.05-2.49,0-3.74,2.56-3.74,5.12,0,2.56,1.24,5.12,3.74,5.12,13.79,0,27.58.17,41.37-.05,3.74-.02,7.49-.04,11.23-.08,4.85-.05,4.86-9.91,0-9.97Z"/>
        <path class="cls-6" d="M525.91,647.79c-4.78-.04-9.55-.06-14.33-.08-17.58-.22-35.18-.05-52.76-.05-3.18,0-4.77,2.56-4.77,5.12,0,2.56,1.59,5.12,4.77,5.12,17.58,0,35.18.17,52.76-.05,4.77-.02,9.55-.04,14.32-.08,6.19-.05,6.2-9.91,0-9.97Z"/>
        <path class="cls-6" d="M533.85,668.56c-5.91-.04-11.81-.06-17.72-.08-21.74-.22-43.5-.05-65.24-.05-3.93,0-5.89,2.56-5.89,5.12,0,2.56,1.96,5.12,5.89,5.12,21.74,0,43.5.17,65.24-.05,5.9-.02,11.81-.04,17.71-.08,7.65-.05,7.66-9.91,0-9.97Z"/>
        <path class="cls-8" d="M595.45,713.58s-.03-.08-.04-.11c-.15-.38-.25-.79-.48-1.13-.38-.65-.9-1.16-1.54-1.54-.67-.39-1.39-.58-2.17-.59-.78,0-1.5.2-2.17.59-.65.38-1.16.9-1.54,1.54-.21.35-.33.74-.47,1.13-.01.04-.03.08-.04.11-.07.39-.12.79-.16,1.18.05.39.1.78.16,1.17.1.42.27.74.47,1.09.02.03.04.06.05.1.38.65.9,1.16,1.54,1.54.67.39,1.4.59,2.17.59.78,0,1.5-.2,2.17-.59.65-.38,1.16-.9,1.54-1.54.02-.03.03-.06.05-.1.1-.18.15-.34.24-.57.28-.52.4-1.09.38-1.69-.03-.4-.08-.79-.16-1.18Z"/>
        <path class="cls-7" d="M125.59,675.56s-.03-.08-.04-.11c-.15-.38-.25-.79-.48-1.13-.38-.65-.9-1.16-1.54-1.54-.67-.39-1.39-.58-2.17-.59-.78,0-1.5.2-2.17.59-.65.38-1.16.9-1.54,1.54-.21.35-.33.74-.47,1.13-.01.04-.03.08-.04.11-.07.39-.12.79-.16,1.18.05.39.1.78.16,1.17.1.42.27.74.47,1.09.02.03.04.06.05.1.38.65.9,1.16,1.54,1.54.67.39,1.4.59,2.17.59.78,0,1.5-.2,2.17-.59.65-.38,1.16-.9,1.54-1.54.02-.03.03-.06.05-.1.1-.18.15-.34.24-.57.27-.52.4-1.09.38-1.69-.03-.4-.08-.79-.16-1.18Z"/>
        <path class="cls-7" d="M193.9,665.86s-.03-.08-.04-.11c-.15-.38-.25-.79-.48-1.13-.38-.65-.9-1.16-1.54-1.54-.67-.39-1.39-.58-2.17-.59-.78,0-1.5.2-2.17.59-.65.38-1.16.9-1.54,1.54-.21.35-.33.74-.47,1.13-.01.04-.03.08-.04.11-.07.39-.12.79-.16,1.18.05.39.1.78.16,1.17.1.42.27.74.47,1.09.02.03.04.06.05.1.38.65.9,1.16,1.54,1.54.67.39,1.4.59,2.17.59.78,0,1.5-.2,2.17-.59.65-.38,1.16-.9,1.54-1.54.02-.03.03-.06.05-.1.1-.18.15-.34.24-.57.27-.52.4-1.09.38-1.69-.03-.4-.08-.79-.16-1.18Z"/>
        <path class="cls-7" d="M240.2,681.99s-.03-.08-.04-.11c-.15-.38-.25-.79-.48-1.13-.38-.65-.9-1.16-1.54-1.54-.67-.39-1.39-.58-2.17-.59-.78,0-1.5.2-2.17.59-.65.38-1.16.9-1.54,1.54-.21.35-.33.74-.47,1.13-.01.04-.03.08-.04.11-.07.39-.12.79-.16,1.18.05.39.1.78.16,1.17.1.42.27.74.47,1.09.02.03.04.06.05.1.38.65.9,1.16,1.54,1.54.67.39,1.4.59,2.17.59.78,0,1.5-.2,2.17-.59.65-.38,1.16-.9,1.54-1.54.02-.03.03-.06.05-.1.1-.18.15-.34.24-.57.28-.52.4-1.09.38-1.69-.03-.4-.08-.79-.16-1.18Z"/>
        <path class="cls-7" d="M274.67,685.71s-.03-.08-.04-.11c-.15-.38-.25-.79-.48-1.13-.38-.65-.9-1.16-1.54-1.54-.67-.39-1.39-.58-2.17-.59-.78,0-1.5.2-2.17.59-.65.38-1.16.9-1.54,1.54-.21.35-.33.74-.47,1.13-.01.04-.03.08-.04.11-.07.39-.12.79-.16,1.18.05.39.1.78.16,1.17.1.42.27.74.47,1.09.02.03.04.06.05.1.38.65.9,1.16,1.54,1.54.67.39,1.4.59,2.17.59.78,0,1.5-.2,2.17-.59.65-.38,1.16-.9,1.54-1.54.02-.03.03-.06.05-.1.1-.18.15-.34.24-.57.28-.52.4-1.09.38-1.69-.03-.4-.08-.79-.16-1.18Z"/>
        <path class="cls-7" d="M337.04,684.35s-.03-.08-.04-.11c-.15-.38-.25-.79-.48-1.13-.38-.65-.9-1.16-1.54-1.54-.67-.39-1.39-.58-2.17-.59-.78,0-1.5.2-2.17.59-.65.38-1.16.9-1.54,1.54-.21.35-.33.74-.47,1.13-.01.04-.03.08-.04.11-.07.39-.12.79-.16,1.18.05.39.1.78.16,1.17.1.42.27.74.47,1.09.02.03.04.06.05.1.38.65.9,1.16,1.54,1.54.67.39,1.4.59,2.17.59.78,0,1.5-.2,2.17-.59.65-.38,1.16-.9,1.54-1.54.02-.03.03-.06.05-.1.1-.18.15-.34.24-.57.27-.52.4-1.09.38-1.69-.03-.4-.08-.79-.16-1.18Z"/>
        <path class="cls-7" d="M408.59,683.89s-.03-.08-.04-.11c-.15-.38-.25-.79-.48-1.13-.38-.65-.9-1.16-1.54-1.54-.67-.39-1.39-.58-2.17-.59-.78,0-1.5.2-2.17.59-.65.38-1.16.9-1.54,1.54-.21.35-.33.74-.47,1.13-.01.04-.03.08-.04.11-.07.39-.12.79-.16,1.18.05.39.1.78.16,1.17.1.42.27.74.47,1.09.02.03.04.06.05.1.38.65.9,1.16,1.54,1.54.67.39,1.4.59,2.17.59.78,0,1.5-.2,2.17-.59.65-.38,1.16-.9,1.54-1.54.02-.03.03-.06.05-.1.1-.18.15-.34.24-.57.27-.52.4-1.09.38-1.69-.03-.4-.08-.79-.16-1.18Z"/>
        <path class="cls-7" d="M458.89,691.28s-.03-.08-.04-.11c-.15-.38-.25-.79-.48-1.13-.38-.65-.9-1.16-1.54-1.54-.67-.39-1.39-.58-2.17-.59-.78,0-1.5.2-2.17.59-.65.38-1.16.9-1.54,1.54-.21.35-.33.74-.47,1.13-.01.04-.03.08-.04.11-.07.39-.12.79-.16,1.18.05.39.1.78.16,1.17.1.42.27.74.47,1.09.02.03.04.06.05.1.38.65.9,1.16,1.54,1.54.67.39,1.4.59,2.17.59.78,0,1.5-.2,2.17-.59.65-.38,1.16-.9,1.54-1.54.02-.03.03-.06.05-.1.1-.18.15-.34.24-.57.27-.52.4-1.09.38-1.69-.03-.4-.08-.79-.16-1.18Z"/>
        <path class="cls-7" d="M510.59,693.12s-.03-.08-.04-.11c-.15-.38-.25-.79-.48-1.13-.38-.65-.9-1.16-1.54-1.54-.67-.39-1.39-.58-2.17-.59-.78,0-1.5.2-2.17.59-.65.38-1.16.9-1.54,1.54-.21.35-.33.74-.47,1.13-.01.04-.03.08-.04.11-.07.39-.12.79-.16,1.18.05.39.1.78.16,1.17.1.42.27.74.47,1.09.02.03.04.06.05.1.38.65.9,1.16,1.54,1.54.67.39,1.4.59,2.17.59.78,0,1.5-.2,2.17-.59.65-.38,1.16-.9,1.54-1.54.02-.03.03-.06.05-.1.1-.18.15-.34.24-.57.27-.52.4-1.09.38-1.69-.03-.4-.08-.79-.16-1.18Z"/>
        <path class="cls-7" d="M555.36,688.51s-.03-.08-.04-.11c-.15-.38-.25-.79-.48-1.13-.38-.65-.9-1.16-1.54-1.54-.67-.39-1.39-.58-2.17-.59-.78,0-1.5.2-2.17.59-.65.38-1.16.9-1.54,1.54-.21.35-.33.74-.47,1.13-.01.04-.03.08-.04.11-.07.39-.12.79-.16,1.18.05.39.1.78.16,1.17.1.42.27.74.47,1.09.02.03.04.06.05.1.38.65.9,1.16,1.54,1.54.67.39,1.4.59,2.17.59.78,0,1.5-.2,2.17-.59.65-.38,1.16-.9,1.54-1.54.02-.03.03-.06.05-.1.1-.18.15-.34.24-.57.28-.52.4-1.09.38-1.69-.03-.4-.08-.79-.16-1.18Z"/>
        <path class="cls-7" d="M583.51,672.35s-.03-.08-.04-.11c-.15-.38-.25-.79-.48-1.13-.38-.65-.9-1.16-1.54-1.54-.67-.39-1.39-.58-2.17-.59-.78,0-1.5.2-2.17.59-.65.38-1.16.9-1.54,1.54-.21.35-.33.74-.47,1.13-.01.04-.03.08-.04.11-.07.39-.12.79-.16,1.18.05.39.1.78.16,1.17.1.42.27.74.47,1.09.02.03.04.06.05.1.38.65.9,1.16,1.54,1.54.67.39,1.4.59,2.17.59.78,0,1.5-.2,2.17-.59.65-.38,1.16-.9,1.54-1.54.02-.03.03-.06.05-.1.1-.18.15-.34.24-.57.27-.52.4-1.09.38-1.69-.03-.4-.08-.79-.16-1.18Z"/>
        <path class="cls-7" d="M606.13,657.58s-.03-.08-.04-.11c-.15-.38-.25-.79-.48-1.13-.38-.65-.9-1.16-1.54-1.54-.67-.39-1.39-.58-2.17-.59-.78,0-1.5.2-2.17.59-.65.38-1.16.9-1.54,1.54-.21.35-.33.74-.47,1.13-.01.04-.03.08-.04.11-.07.39-.12.79-.16,1.18.05.39.1.78.16,1.17.1.42.27.74.47,1.09.02.03.04.06.05.1.38.65.9,1.16,1.54,1.54.67.39,1.4.59,2.17.59.78,0,1.5-.2,2.17-.59.65-.38,1.16-.9,1.54-1.54.02-.03.03-.06.05-.1.1-.18.15-.34.24-.57.27-.52.4-1.09.38-1.69-.03-.4-.08-.79-.16-1.18Z"/>
        <path class="cls-7" d="M590.66,594.93s-.03-.08-.04-.11c-.15-.38-.25-.79-.48-1.13-.38-.65-.9-1.16-1.54-1.54-.67-.39-1.39-.58-2.17-.59-.78,0-1.5.2-2.17.59-.65.38-1.16.9-1.54,1.54-.21.35-.33.74-.47,1.13-.01.04-.03.08-.04.11-.07.39-.12.79-.16,1.18.05.39.1.78.16,1.17.1.42.27.74.47,1.09.02.03.04.06.05.1.38.65.9,1.16,1.54,1.54.67.39,1.4.59,2.17.59.78,0,1.5-.2,2.17-.59.65-.38,1.16-.9,1.54-1.54.02-.03.03-.06.05-.1.1-.18.15-.34.24-.57.27-.52.4-1.09.38-1.69-.03-.4-.08-.79-.16-1.18Z"/>
        <path class="cls-7" d="M555.58,558.93s-.03-.08-.04-.11c-.15-.38-.25-.79-.48-1.13-.38-.65-.9-1.16-1.54-1.54-.67-.39-1.39-.58-2.17-.59-.78,0-1.5.2-2.17.59-.65.38-1.16.9-1.54,1.54-.21.35-.33.74-.47,1.13-.01.04-.03.08-.04.11-.07.39-.12.79-.16,1.18.05.39.1.78.16,1.17.1.42.27.74.47,1.09.02.03.04.06.05.1.38.65.9,1.16,1.54,1.54.67.39,1.4.59,2.17.59.78,0,1.5-.2,2.17-.59.65-.38,1.16-.9,1.54-1.54.02-.03.03-.06.05-.1.1-.18.15-.34.24-.57.28-.52.4-1.09.38-1.69-.03-.4-.08-.79-.16-1.18Z"/>
        <path class="cls-7" d="M543.14,522.29s-.03-.08-.04-.11c-.15-.38-.25-.79-.48-1.13-.38-.65-.9-1.16-1.54-1.54-.67-.39-1.39-.58-2.17-.59-.78,0-1.5.2-2.17.59-.65.38-1.16.9-1.54,1.54-.21.35-.33.74-.47,1.13-.01.04-.03.08-.04.11-.07.39-.12.79-.16,1.18.05.39.1.78.16,1.17.1.42.27.74.47,1.09.02.03.04.06.05.1.38.65.9,1.16,1.54,1.54.67.39,1.4.59,2.17.59.78,0,1.5-.2,2.17-.59.65-.38,1.16-.9,1.54-1.54.02-.03.03-.06.05-.1.1-.18.15-.34.24-.57.28-.52.4-1.09.38-1.69-.03-.4-.08-.79-.16-1.18Z"/>
        <path class="cls-7" d="M148.78,620.69s-.03-.08-.04-.11c-.15-.38-.25-.79-.48-1.13-.38-.65-.9-1.16-1.54-1.54-.67-.39-1.39-.58-2.17-.59-.78,0-1.5.2-2.17.59-.65.38-1.16.9-1.54,1.54-.21.35-.33.74-.47,1.13-.01.04-.03.08-.04.11-.07.39-.12.79-.16,1.18.05.39.1.78.16,1.17.1.42.27.74.47,1.09.02.03.04.06.05.1.38.65.9,1.16,1.54,1.54.67.39,1.4.59,2.17.59.78,0,1.5-.2,2.17-.59.65-.38,1.16-.9,1.54-1.54.02-.03.03-.06.05-.1.1-.18.15-.34.24-.57.27-.52.4-1.09.38-1.69-.03-.4-.08-.79-.16-1.18Z"/>
        <path class="cls-7" d="M206.59,605.8s-.03-.08-.04-.11c-.15-.38-.25-.79-.48-1.13-.38-.65-.9-1.16-1.54-1.54-.67-.39-1.39-.58-2.17-.59-.78,0-1.5.2-2.17.59-.65.38-1.16.9-1.54,1.54-.21.35-.33.74-.47,1.13-.01.04-.03.08-.04.11-.07.39-.12.79-.16,1.18.05.39.1.78.16,1.17.1.42.27.74.47,1.09.02.03.04.06.05.1.38.65.9,1.16,1.54,1.54.67.39,1.4.59,2.17.59.78,0,1.5-.2,2.17-.59.65-.38,1.16-.9,1.54-1.54.02-.03.03-.06.05-.1.1-.18.15-.34.24-.57.28-.52.4-1.09.38-1.69-.03-.4-.08-.79-.16-1.18Z"/>
        <path class="cls-7" d="M204.86,558.03s-.03-.08-.04-.11c-.15-.38-.25-.79-.48-1.13-.38-.65-.9-1.16-1.54-1.54-.67-.39-1.39-.58-2.17-.59-.78,0-1.5.2-2.17.59-.65.38-1.16.9-1.54,1.54-.21.35-.33.74-.47,1.13-.01.04-.03.08-.04.11-.07.39-.12.79-.16,1.18.05.39.1.78.16,1.17.1.42.27.74.47,1.09.02.03.04.06.05.1.38.65.9,1.16,1.54,1.54.67.39,1.4.59,2.17.59.78,0,1.5-.2,2.17-.59.65-.38,1.16-.9,1.54-1.54.02-.03.03-.06.05-.1.1-.18.15-.34.24-.57.28-.52.4-1.09.38-1.69-.03-.4-.08-.79-.16-1.18Z"/>
        <path class="cls-7" d="M211.09,510.95s-.03-.08-.04-.11c-.15-.38-.25-.79-.48-1.13-.38-.65-.9-1.16-1.54-1.54-.67-.39-1.39-.58-2.17-.59-.78,0-1.5.2-2.17.59-.65.38-1.16.9-1.54,1.54-.21.35-.33.74-.47,1.13-.01.04-.03.08-.04.11-.07.39-.12.79-.16,1.18.05.39.1.78.16,1.17.1.42.27.74.47,1.09.02.03.04.06.05.1.38.65.9,1.16,1.54,1.54.67.39,1.4.59,2.17.59.78,0,1.5-.2,2.17-.59.65-.38,1.16-.9,1.54-1.54.02-.03.03-.06.05-.1.1-.18.15-.34.24-.57.27-.52.4-1.09.38-1.69-.03-.4-.08-.79-.16-1.18Z"/>
        <path class="cls-7" d="M222.17,469.76s-.03-.08-.04-.11c-.15-.38-.25-.79-.48-1.13-.38-.65-.9-1.16-1.54-1.54-.67-.39-1.39-.58-2.17-.59-.78,0-1.5.2-2.17.59-.65.38-1.16.9-1.54,1.54-.21.35-.33.74-.47,1.13-.01.04-.03.08-.04.11-.07.39-.12.79-.16,1.18.05.39.1.78.16,1.17.1.42.27.74.47,1.09.02.03.04.06.05.1.38.65.9,1.16,1.54,1.54.67.39,1.4.59,2.17.59.78,0,1.5-.2,2.17-.59.65-.38,1.16-.9,1.54-1.54.02-.03.03-.06.05-.1.1-.18.15-.34.24-.57.28-.52.4-1.09.38-1.69-.03-.4-.08-.79-.16-1.18Z"/>
        <path class="cls-7" d="M203.7,441.14s-.03-.08-.04-.11c-.15-.38-.25-.79-.48-1.13-.38-.65-.9-1.16-1.54-1.54-.67-.39-1.39-.58-2.17-.59-.78,0-1.5.2-2.17.59-.65.38-1.16.9-1.54,1.54-.21.35-.33.74-.47,1.13-.01.04-.03.08-.04.11-.07.39-.12.79-.16,1.18.05.39.1.78.16,1.17.1.42.27.74.47,1.09.02.03.04.06.05.1.38.65.9,1.16,1.54,1.54.67.39,1.4.59,2.17.59.78,0,1.5-.2,2.17-.59.65-.38,1.16-.9,1.54-1.54.02-.03.03-.06.05-.1.1-.18.15-.34.24-.57.28-.52.4-1.09.38-1.69-.03-.4-.08-.79-.16-1.18Z"/>
        <path class="cls-5" d="M291.74,354.95s-.03-.08-.04-.11c-.15-.38-.25-.79-.48-1.13-.38-.65-.9-1.16-1.54-1.54-.67-.39-1.39-.58-2.17-.59-.78,0-1.5.2-2.17.59-.65.38-1.16.9-1.54,1.54-.21.35-.33.74-.47,1.13-.01.04-.03.08-.04.11-.07.39-.12.79-.16,1.18.05.39.1.78.16,1.17.1.42.27.74.47,1.09.02.03.04.06.05.1.38.65.9,1.16,1.54,1.54.67.39,1.4.59,2.17.59.78,0,1.5-.2,2.17-.59.65-.38,1.16-.9,1.54-1.54.02-.03.03-.06.05-.1.1-.18.15-.34.24-.57.28-.52.4-1.09.38-1.69-.03-.4-.08-.79-.16-1.18Z"/>
        <path class="cls-5" d="M282.17,427.07s-.03-.08-.04-.11c-.15-.38-.25-.79-.48-1.13-.38-.65-.9-1.16-1.54-1.54-.67-.39-1.39-.58-2.17-.59-.78,0-1.5.2-2.17.59-.65.38-1.16.9-1.54,1.54-.21.35-.33.74-.47,1.13-.01.04-.03.08-.04.11-.07.39-.12.79-.16,1.18.05.39.1.78.16,1.17.1.42.27.74.47,1.09.02.03.04.06.05.1.38.65.9,1.16,1.54,1.54.67.39,1.4.59,2.17.59.78,0,1.5-.2,2.17-.59.65-.38,1.16-.9,1.54-1.54.02-.03.03-.06.05-.1.1-.18.15-.34.24-.57.28-.52.4-1.09.38-1.69-.03-.4-.08-.79-.16-1.18Z"/>
        <path class="cls-5" d="M299.13,284.33s-.03-.08-.04-.11c-.15-.38-.25-.79-.48-1.13-.38-.65-.9-1.16-1.54-1.54-.67-.39-1.39-.58-2.17-.59-.78,0-1.5.2-2.17.59-.65.38-1.16.9-1.54,1.54-.21.35-.33.74-.47,1.13-.01.04-.03.08-.04.11-.07.39-.12.79-.16,1.18.05.39.1.78.16,1.17.1.42.27.74.47,1.09.02.03.04.06.05.1.38.65.9,1.16,1.54,1.54.67.39,1.4.59,2.17.59.78,0,1.5-.2,2.17-.59.65-.38,1.16-.9,1.54-1.54.02-.03.03-.06.05-.1.1-.18.15-.34.24-.57.27-.52.4-1.09.38-1.69-.03-.4-.08-.79-.16-1.18Z"/>
        <path class="cls-5" d="M307.21,221.56s-.03-.08-.04-.11c-.15-.38-.25-.79-.48-1.13-.38-.65-.9-1.16-1.54-1.54-.67-.39-1.39-.58-2.17-.59-.78,0-1.5.2-2.17.59-.65.38-1.16.9-1.54,1.54-.21.35-.33.74-.47,1.13-.01.04-.03.08-.04.11-.07.39-.12.79-.16,1.18.05.39.1.78.16,1.17.1.42.27.74.47,1.09.02.03.04.06.05.1.38.65.9,1.16,1.54,1.54.67.39,1.4.59,2.17.59.78,0,1.5-.2,2.17-.59.65-.38,1.16-.9,1.54-1.54.02-.03.03-.06.05-.1.1-.18.15-.34.24-.57.27-.52.4-1.09.38-1.69-.03-.4-.08-.79-.16-1.18Z"/>
        <path class="cls-5" d="M303.05,182.1s-.03-.08-.04-.11c-.15-.38-.25-.79-.48-1.13-.38-.65-.9-1.16-1.54-1.54-.67-.39-1.39-.58-2.17-.59-.78,0-1.5.2-2.17.59-.65.38-1.16.9-1.54,1.54-.21.35-.33.74-.47,1.13-.01.04-.03.08-.04.11-.07.39-.12.79-.16,1.18.05.39.1.78.16,1.17.1.42.27.74.47,1.09.02.03.04.06.05.1.38.65.9,1.16,1.54,1.54.67.39,1.4.59,2.17.59.78,0,1.5-.2,2.17-.59.65-.38,1.16-.9,1.54-1.54.02-.03.03-.06.05-.1.1-.18.15-.34.24-.57.28-.52.4-1.09.38-1.69-.03-.4-.08-.79-.16-1.18Z"/>
        <path class="cls-5" d="M310.67,149.1s-.03-.08-.04-.11c-.15-.38-.25-.79-.48-1.13-.38-.65-.9-1.16-1.54-1.54-.67-.39-1.39-.58-2.17-.59-.78,0-1.5.2-2.17.59-.65.38-1.16.9-1.54,1.54-.21.35-.33.74-.47,1.13-.01.04-.03.08-.04.11-.07.39-.12.79-.16,1.18.05.39.1.78.16,1.17.1.42.27.74.47,1.09.02.03.04.06.05.1.38.65.9,1.16,1.54,1.54.67.39,1.4.59,2.17.59.78,0,1.5-.2,2.17-.59.65-.38,1.16-.9,1.54-1.54.02-.03.03-.06.05-.1.1-.18.15-.34.24-.57.28-.52.4-1.09.38-1.69-.03-.4-.08-.79-.16-1.18Z"/>
        <path class="cls-5" d="M293.01,104.1s-.03-.08-.04-.11c-.15-.38-.25-.79-.48-1.13-.38-.65-.9-1.16-1.54-1.54-.67-.39-1.39-.58-2.17-.59-.78,0-1.5.2-2.17.59-.65.38-1.16.9-1.54,1.54-.21.35-.33.74-.47,1.13-.01.04-.03.08-.04.11-.07.39-.12.79-.16,1.18.05.39.1.78.16,1.17.1.42.27.74.47,1.09.02.03.04.06.05.1.38.65.9,1.16,1.54,1.54.67.39,1.4.59,2.17.59.78,0,1.5-.2,2.17-.59.65-.38,1.16-.9,1.54-1.54.02-.03.03-.06.05-.1.1-.18.15-.34.24-.57.28-.52.4-1.09.38-1.69-.03-.4-.08-.79-.16-1.18Z"/>
        <path class="cls-5" d="M325.21,87.48s-.03-.08-.04-.11c-.15-.38-.25-.79-.48-1.13-.38-.65-.9-1.16-1.54-1.54-.67-.39-1.39-.58-2.17-.59-.78,0-1.5.2-2.17.59-.65.38-1.16.9-1.54,1.54-.21.35-.33.74-.47,1.13-.01.04-.03.08-.04.11-.07.39-.12.79-.16,1.18.05.39.1.78.16,1.17.1.42.27.74.47,1.09.02.03.04.06.05.1.38.65.9,1.16,1.54,1.54.67.39,1.4.59,2.17.59.78,0,1.5-.2,2.17-.59.65-.38,1.16-.9,1.54-1.54.02-.03.03-.06.05-.1.1-.18.15-.34.24-.57.28-.52.4-1.09.38-1.69-.03-.4-.08-.79-.16-1.18Z"/>
        <path class="cls-5" d="M344.94,102.37s-.03-.08-.04-.11c-.15-.38-.25-.79-.48-1.13-.38-.65-.9-1.16-1.54-1.54-.67-.39-1.39-.58-2.17-.59-.78,0-1.5.2-2.17.59-.65.38-1.16.9-1.54,1.54-.21.35-.33.74-.47,1.13-.01.04-.03.08-.04.11-.07.39-.12.79-.16,1.18.05.39.1.78.16,1.17.1.42.27.74.47,1.09.02.03.04.06.05.1.38.65.9,1.16,1.54,1.54.67.39,1.4.59,2.17.59.78,0,1.5-.2,2.17-.59.65-.38,1.16-.9,1.54-1.54.02-.03.03-.06.05-.1.1-.18.15-.34.24-.57.28-.52.4-1.09.38-1.69-.03-.4-.08-.79-.16-1.18Z"/>
        <path class="cls-5" d="M402.29,90.02s-.03-.08-.04-.11c-.15-.38-.25-.79-.48-1.13-.38-.65-.9-1.16-1.54-1.54-.67-.39-1.39-.58-2.17-.59-.78,0-1.5.2-2.17.59-.65.38-1.16.9-1.54,1.54-.21.35-.33.74-.47,1.13-.01.04-.03.08-.04.11-.07.39-.12.79-.16,1.18.05.39.1.78.16,1.17.1.42.27.74.47,1.09.02.03.04.06.05.1.38.65.9,1.16,1.54,1.54.67.39,1.4.59,2.17.59.78,0,1.5-.2,2.17-.59.65-.38,1.16-.9,1.54-1.54.02-.03.03-.06.05-.1.1-.18.15-.34.24-.57.27-.52.4-1.09.38-1.69-.03-.4-.08-.79-.16-1.18Z"/>
        <path class="cls-5" d="M464.36,105.83s-.03-.08-.04-.11c-.15-.38-.25-.79-.48-1.13-.38-.65-.9-1.16-1.54-1.54-.67-.39-1.39-.58-2.17-.59-.78,0-1.5.2-2.17.59-.65.38-1.16.9-1.54,1.54-.21.35-.33.74-.47,1.13-.01.04-.03.08-.04.11-.07.39-.12.79-.16,1.18.05.39.1.78.16,1.17.1.42.27.74.47,1.09.02.03.04.06.05.1.38.65.9,1.16,1.54,1.54.67.39,1.4.59,2.17.59.78,0,1.5-.2,2.17-.59.65-.38,1.16-.9,1.54-1.54.02-.03.03-.06.05-.1.1-.18.15-.34.24-.57.28-.52.4-1.09.38-1.69-.03-.4-.08-.79-.16-1.18Z"/>
        <path class="cls-5" d="M498.98,87.37s-.03-.08-.04-.11c-.15-.38-.25-.79-.48-1.13-.38-.65-.9-1.16-1.54-1.54-.67-.39-1.39-.58-2.17-.59-.78,0-1.5.2-2.17.59-.65.38-1.16.9-1.54,1.54-.21.35-.33.74-.47,1.13-.01.04-.03.08-.04.11-.07.39-.12.79-.16,1.18.05.39.1.78.16,1.17.1.42.27.74.47,1.09.02.03.04.06.05.1.38.65.9,1.16,1.54,1.54.67.39,1.4.59,2.17.59.78,0,1.5-.2,2.17-.59.65-.38,1.16-.9,1.54-1.54.02-.03.03-.06.05-.1.1-.18.15-.34.24-.57.27-.52.4-1.09.38-1.69-.03-.4-.08-.79-.16-1.18Z"/>
        <path class="cls-5" d="M519.4,115.06s-.03-.08-.04-.11c-.15-.38-.25-.79-.48-1.13-.38-.65-.9-1.16-1.54-1.54-.67-.39-1.39-.58-2.17-.59-.78,0-1.5.2-2.17.59-.65.38-1.16.9-1.54,1.54-.21.35-.33.74-.47,1.13-.01.04-.03.08-.04.11-.07.39-.12.79-.16,1.18.05.39.1.78.16,1.17.1.42.27.74.47,1.09.02.03.04.06.05.1.38.65.9,1.16,1.54,1.54.67.39,1.4.59,2.17.59.78,0,1.5-.2,2.17-.59.65-.38,1.16-.9,1.54-1.54.02-.03.03-.06.05-.1.1-.18.15-.34.24-.57.27-.52.4-1.09.38-1.69-.03-.4-.08-.79-.16-1.18Z"/>
        <path class="cls-5" d="M500.37,149.67s-.03-.08-.04-.11c-.15-.38-.25-.79-.48-1.13-.38-.65-.9-1.16-1.54-1.54-.67-.39-1.39-.58-2.17-.59-.78,0-1.5.2-2.17.59-.65.38-1.16.9-1.54,1.54-.21.35-.33.74-.47,1.13-.01.04-.03.08-.04.11-.07.39-.12.79-.16,1.18.05.39.1.78.16,1.17.1.42.27.74.47,1.09.02.03.04.06.05.1.38.65.9,1.16,1.54,1.54.67.39,1.4.59,2.17.59.78,0,1.5-.2,2.17-.59.65-.38,1.16-.9,1.54-1.54.02-.03.03-.06.05-.1.1-.18.15-.34.24-.57.28-.52.4-1.09.38-1.69-.03-.4-.08-.79-.16-1.18Z"/>
        <path class="cls-5" d="M507.29,198.14s-.03-.08-.04-.11c-.15-.38-.25-.79-.48-1.13-.38-.65-.9-1.16-1.54-1.54-.67-.39-1.39-.58-2.17-.59-.78,0-1.5.2-2.17.59-.65.38-1.16.9-1.54,1.54-.21.35-.33.74-.47,1.13-.01.04-.03.08-.04.11-.07.39-.12.79-.16,1.18.05.39.1.78.16,1.17.1.42.27.74.47,1.09.02.03.04.06.05.1.38.65.9,1.16,1.54,1.54.67.39,1.4.59,2.17.59.78,0,1.5-.2,2.17-.59.65-.38,1.16-.9,1.54-1.54.02-.03.03-.06.05-.1.1-.18.15-.34.24-.57.28-.52.4-1.09.38-1.69-.03-.4-.08-.79-.16-1.18Z"/>
        <path class="cls-5" d="M500.71,239.33s-.03-.08-.04-.11c-.15-.38-.25-.79-.48-1.13-.38-.65-.9-1.16-1.54-1.54-.67-.39-1.39-.58-2.17-.59-.78,0-1.5.2-2.17.59-.65.38-1.16.9-1.54,1.54-.21.35-.33.74-.47,1.13-.01.04-.03.08-.04.11-.07.39-.12.79-.16,1.18.05.39.1.78.16,1.17.1.42.27.74.47,1.09.02.03.04.06.05.1.38.65.9,1.16,1.54,1.54.67.39,1.4.59,2.17.59.78,0,1.5-.2,2.17-.59.65-.38,1.16-.9,1.54-1.54.02-.03.03-.06.05-.1.1-.18.15-.34.24-.57.28-.52.4-1.09.38-1.69-.03-.4-.08-.79-.16-1.18Z"/>
        <path class="cls-5" d="M506.6,261.14s-.03-.08-.04-.11c-.15-.38-.25-.79-.48-1.13-.38-.65-.9-1.16-1.54-1.54-.67-.39-1.39-.58-2.17-.59-.78,0-1.5.2-2.17.59-.65.38-1.16.9-1.54,1.54-.21.35-.33.74-.47,1.13-.01.04-.03.08-.04.11-.07.39-.12.79-.16,1.18.05.39.1.78.16,1.17.1.42.27.74.47,1.09.02.03.04.06.05.1.38.65.9,1.16,1.54,1.54.67.39,1.4.59,2.17.59.78,0,1.5-.2,2.17-.59.65-.38,1.16-.9,1.54-1.54.02-.03.03-.06.05-.1.1-.18.15-.34.24-.57.28-.52.4-1.09.38-1.69-.03-.4-.08-.79-.16-1.18Z"/>
        <path class="cls-5" d="M519.75,270.83s-.03-.08-.04-.11c-.15-.38-.25-.79-.48-1.13-.38-.65-.9-1.16-1.54-1.54-.67-.39-1.39-.58-2.17-.59-.78,0-1.5.2-2.17.59-.65.38-1.16.9-1.54,1.54-.21.35-.33.74-.47,1.13-.01.04-.03.08-.04.11-.07.39-.12.79-.16,1.18.05.39.1.78.16,1.17.1.42.27.74.47,1.09.02.03.04.06.05.1.38.65.9,1.16,1.54,1.54.67.39,1.4.59,2.17.59.78,0,1.5-.2,2.17-.59.65-.38,1.16-.9,1.54-1.54.02-.03.03-.06.05-.1.1-.18.15-.34.24-.57.28-.52.4-1.09.38-1.69-.03-.4-.08-.79-.16-1.18Z"/>
        <path class="cls-5" d="M573.06,281.91s-.03-.08-.04-.11c-.15-.38-.25-.79-.48-1.13-.38-.65-.9-1.16-1.54-1.54-.67-.39-1.39-.58-2.17-.59-.78,0-1.5.2-2.17.59-.65.38-1.16.9-1.54,1.54-.21.35-.33.74-.47,1.13-.01.04-.03.08-.04.11-.07.39-.12.79-.16,1.18.05.39.1.78.16,1.17.1.42.27.74.47,1.09.02.03.04.06.05.1.38.65.9,1.16,1.54,1.54.67.39,1.4.59,2.17.59.78,0,1.5-.2,2.17-.59.65-.38,1.16-.9,1.54-1.54.02-.03.03-.06.05-.1.1-.18.15-.34.24-.57.27-.52.4-1.09.38-1.69-.03-.4-.08-.79-.16-1.18Z"/>
        <path class="cls-5" d="M600.41,329.68s-.03-.08-.04-.11c-.15-.38-.25-.79-.48-1.13-.38-.65-.9-1.16-1.54-1.54-.67-.39-1.39-.58-2.17-.59-.78,0-1.5.2-2.17.59-.65.38-1.16.9-1.54,1.54-.21.35-.33.74-.47,1.13-.01.04-.03.08-.04.11-.07.39-.12.79-.16,1.18.05.39.1.78.16,1.17.1.42.27.74.47,1.09.02.03.04.06.05.1.38.65.9,1.16,1.54,1.54.67.39,1.4.59,2.17.59.78,0,1.5-.2,2.17-.59.65-.38,1.16-.9,1.54-1.54.02-.03.03-.06.05-.1.1-.18.15-.34.24-.57.27-.52.4-1.09.38-1.69-.03-.4-.08-.79-.16-1.18Z"/>
        <path class="cls-5" d="M579.98,387.84s-.03-.08-.04-.11c-.15-.38-.25-.79-.48-1.13-.38-.65-.9-1.16-1.54-1.54-.67-.39-1.39-.58-2.17-.59-.78,0-1.5.2-2.17.59-.65.38-1.16.9-1.54,1.54-.21.35-.33.74-.47,1.13-.01.04-.03.08-.04.11-.07.39-.12.79-.16,1.18.05.39.1.78.16,1.17.1.42.27.74.47,1.09.02.03.04.06.05.1.38.65.9,1.16,1.54,1.54.67.39,1.4.59,2.17.59.78,0,1.5-.2,2.17-.59.65-.38,1.16-.9,1.54-1.54.02-.03.03-.06.05-.1.1-.18.15-.34.24-.57.27-.52.4-1.09.38-1.69-.03-.4-.08-.79-.16-1.18Z"/>
        <path class="cls-5" d="M579.64,468.49s-.03-.08-.04-.11c-.15-.38-.25-.79-.48-1.13-.38-.65-.9-1.16-1.54-1.54-.67-.39-1.39-.58-2.17-.59-.78,0-1.5.2-2.17.59-.65.38-1.16.9-1.54,1.54-.21.35-.33.74-.47,1.13-.01.04-.03.08-.04.11-.07.39-.12.79-.16,1.18.05.39.1.78.16,1.17.1.42.27.74.47,1.09.02.03.04.06.05.1.38.65.9,1.16,1.54,1.54.67.39,1.4.59,2.17.59.78,0,1.5-.2,2.17-.59.65-.38,1.16-.9,1.54-1.54.02-.03.03-.06.05-.1.1-.18.15-.34.24-.57.28-.52.4-1.09.38-1.69-.03-.4-.08-.79-.16-1.18Z"/>
        <path class="cls-8" d="M624.06,715.42s-.03-.08-.04-.11c-.15-.38-.25-.79-.48-1.13-.38-.65-.9-1.16-1.54-1.54-.67-.39-1.39-.58-2.17-.59-.78,0-1.5.2-2.17.59-.65.38-1.16.9-1.54,1.54-.21.35-.33.74-.47,1.13-.01.04-.03.08-.04.11-.07.39-.12.79-.16,1.18.05.39.1.78.16,1.17.1.42.27.74.47,1.09.02.03.04.06.05.1.38.65.9,1.16,1.54,1.54.67.39,1.4.59,2.17.59.78,0,1.5-.2,2.17-.59.65-.38,1.16-.9,1.54-1.54.02-.03.03-.06.05-.1.1-.18.15-.34.24-.57.27-.52.4-1.09.38-1.69-.03-.4-.08-.79-.16-1.18Z"/>
        <path class="cls-8" d="M652.45,691.19s-.03-.08-.04-.11c-.15-.38-.25-.79-.48-1.13-.38-.65-.9-1.16-1.54-1.54-.67-.39-1.39-.58-2.17-.59-.78,0-1.5.2-2.17.59-.65.38-1.16.9-1.54,1.54-.21.35-.33.74-.47,1.13-.01.04-.03.08-.04.11-.07.39-.12.79-.16,1.18.05.39.1.78.16,1.17.1.42.27.74.47,1.09.02.03.04.06.05.1.38.65.9,1.16,1.54,1.54.67.39,1.4.59,2.17.59.78,0,1.5-.2,2.17-.59.65-.38,1.16-.9,1.54-1.54.02-.03.03-.06.05-.1.1-.18.15-.34.24-.57.27-.52.4-1.09.38-1.69-.03-.4-.08-.79-.16-1.18Z"/>
        <path class="cls-8" d="M669.75,708.04s-.03-.08-.04-.11c-.15-.38-.25-.79-.48-1.13-.38-.65-.9-1.16-1.54-1.54-.67-.39-1.39-.58-2.17-.59-.78,0-1.5.2-2.17.59-.65.38-1.16.9-1.54,1.54-.21.35-.33.74-.47,1.13-.01.04-.03.08-.04.11-.07.39-.12.79-.16,1.18.05.39.1.78.16,1.17.1.42.27.74.47,1.09.02.03.04.06.05.1.38.65.9,1.16,1.54,1.54.67.39,1.4.59,2.17.59.78,0,1.5-.2,2.17-.59.65-.38,1.16-.9,1.54-1.54.02-.03.03-.06.05-.1.1-.18.15-.34.24-.57.27-.52.4-1.09.38-1.69-.03-.4-.08-.79-.16-1.18Z"/>
        <path class="cls-8" d="M718.68,681.73s-.03-.08-.04-.11c-.15-.38-.25-.79-.48-1.13-.38-.65-.9-1.16-1.54-1.54-.67-.39-1.39-.58-2.17-.59-.78,0-1.5.2-2.17.59-.65.38-1.16.9-1.54,1.54-.21.35-.33.74-.47,1.13-.01.04-.03.08-.04.11-.07.39-.12.79-.16,1.18.05.39.1.78.16,1.17.1.42.27.74.47,1.09.02.03.04.06.05.1.38.65.9,1.16,1.54,1.54.67.39,1.4.59,2.17.59.78,0,1.5-.2,2.17-.59.65-.38,1.16-.9,1.54-1.54.02-.03.03-.06.05-.1.1-.18.15-.34.24-.57.27-.52.4-1.09.38-1.69-.03-.4-.08-.79-.16-1.18Z"/>
        <text class="cls-4" transform="translate(590.02 707.82)"><tspan x="0" y="0">1</tspan></text>
        <text class="cls-4" transform="translate(187.95 445.83)"><tspan x="0" y="0">1</tspan></text>
        <text class="cls-4" transform="translate(270.65 420.7)"><tspan x="0" y="0">1</tspan></text>
        <text class="cls-4" transform="translate(205.2 473)"><tspan x="0" y="0">2</tspan></text>
        <text class="cls-4" transform="translate(275.36 356.23)"><tspan x="0" y="0">2</tspan></text>
        <text class="cls-4" transform="translate(192.39 513.45)"><tspan x="0" y="0">3</tspan></text>
        <text class="cls-4" transform="translate(280.83 287.23)"><tspan x="0" y="0">3</tspan></text>
        <text class="cls-4" transform="translate(194.64 549.79)"><tspan x="0" y="0">4</tspan></text>
        <text class="cls-4" transform="translate(288.6 225.71)"><tspan x="0" y="0">4</tspan></text>
        <text class="cls-4" transform="translate(192.13 603.09)"><tspan x="0" y="0">5</tspan></text>
        <text class="cls-4" transform="translate(286.4 186.43)"><tspan x="0" y="0">5</tspan></text>
        <text class="cls-4" transform="translate(137.49 614.63)"><tspan x="0" y="0">6</tspan></text>
        <text class="cls-4" transform="translate(293.82 152)"><tspan x="0" y="0">6</tspan></text>
        <text class="cls-4" transform="translate(106.34 680.64)"><tspan x="0" y="0">7</tspan></text>
        <text class="cls-4" transform="translate(277.2 105.14)"><tspan x="0" y="0">7</tspan></text>
        <text class="cls-4" transform="translate(178.79 677.31)"><tspan x="0" y="0">8</tspan></text>
        <text class="cls-4" transform="translate(314 79.82)"><tspan x="0" y="0">8</tspan></text>
        <text class="cls-4" transform="translate(231.41 697.62)"><tspan x="0" y="0">9</tspan></text>
        <text class="cls-4" transform="translate(341.91 94.76)"><tspan x="0" y="0">9</tspan></text>
        <text class="cls-4" transform="translate(266.72 702.23)"><tspan x="0" y="0">10</tspan></text>
        <text class="cls-4" transform="translate(393.97 83.38)"><tspan x="0" y="0">10</tspan></text>
        <text class="cls-4" transform="translate(329.12 700.24)"><tspan x="0" y="0">11</tspan></text>
        <text class="cls-4" transform="translate(458.59 100.29)"><tspan x="0" y="0">11</tspan></text>
        <text class="cls-4" transform="translate(401.12 699.78)"><tspan x="0" y="0">12</tspan></text>
        <text class="cls-4" transform="translate(491.75 79.31)"><tspan x="0" y="0">12</tspan></text>
        <text class="cls-4" transform="translate(449.58 706.48)"><tspan x="0" y="0">13</tspan></text>
        <text class="cls-4" transform="translate(523.23 117.61)"><tspan x="0" y="0">13</tspan></text>
        <text class="cls-4" transform="translate(499.77 707.28)"><tspan x="0" y="0">14</tspan></text>
        <text class="cls-4" transform="translate(508.21 152.71)"><tspan x="0" y="0">14</tspan></text>
        <text class="cls-4" transform="translate(541.43 702.78)"><tspan x="0" y="0">15</tspan></text>
        <text class="cls-4" transform="translate(511.58 202.06)"><tspan x="0" y="0">15</tspan></text>
        <text class="cls-4" transform="translate(580.55 686.46)"><tspan x="0" y="0">16</tspan></text>
        <text class="cls-4" transform="translate(504.7 237.37)"><tspan x="0" y="0">16</tspan></text>
        <text class="cls-4" transform="translate(606.74 669.27)"><tspan x="0" y="0">17</tspan></text>
        <text class="cls-4" transform="translate(509.82 255.26)"><tspan x="0" y="0">17</tspan></text>
        <text class="cls-4" transform="translate(576.28 609.61)"><tspan x="0" y="0">18</tspan></text>
        <text class="cls-4" transform="translate(521.23 267.22)"><tspan x="0" y="0">18</tspan></text>
        <text class="cls-4" transform="translate(557.42 557.3)"><tspan x="0" y="0">19</tspan></text>
        <text class="cls-4" transform="translate(577.97 278.02)"><tspan x="0" y="0">19</tspan></text>
        <text class="cls-4" transform="translate(548.53 527.99)"><tspan x="0" y="0">20</tspan></text>
        <text class="cls-4" transform="translate(585.19 391.06)"><tspan x="0" y="0">21</tspan></text>
        <text class="cls-4" transform="translate(583.28 473.85)"><tspan x="0" y="0">22</tspan></text>
        <text class="cls-4" transform="translate(605.67 331.93)"><tspan x="0" y="0">20</tspan></text>
        <text class="cls-4" transform="translate(617.25 708.97)"><tspan x="0" y="0">2</tspan></text>
        <text class="cls-4" transform="translate(645.92 685.43)"><tspan x="0" y="0">3</tspan></text>
        <text class="cls-4" transform="translate(661.68 702.05)"><tspan x="0" y="0">4</tspan></text>
        <text class="cls-4" transform="translate(711.08 676.38)"><tspan x="0" y="0">5</tspan></text>
      </g>
    </g>
  </g>
</svg>