<?xml version="1.0" encoding="UTF-8"?>
<svg xmlns="http://www.w3.org/2000/svg" width="800" height="800" version="1.1" viewBox="0 0 800 800">
  <!-- Generator: Adobe Illustrator 28.7.3, SVG Export Plug-In . SVG Version: 1.2.0 Build 164)  -->
  <g>
    <g id="Camada_1">
      <path d="M288.64,528.72c82.65,0,168.12,0,253.59,0,9.56,0,19.12-.23,28.66.11,17.46.62,30.04,13.1,29.96,29.29-.08,16.69-11.92,28.59-30.28,28.7-56.32.35-112.65.16-168.98.2-22.63.02-45.28-.44-67.88.53-5.23.22-10.24,5.4-15.35,8.29,5.11,3.47,10.17,9.85,15.35,9.95,41.73.81,83.47.43,125.22.43,3.51,0,7.72-1.08,10.38.45,3.8,2.2,7.96,5.94,9.02,9.83.53,1.96-4.98,7.05-8.59,8.25-4.55,1.52-9.94.58-14.96.58-41.74,0-83.48,0-125.23-.04-13.5-.01-23.18-6.01-27.98-18.79-4.41-11.74-1.54-22.98,8.17-29.69,6.86-4.74,16.7-7.13,25.23-7.18,68.39-.44,136.78-.06,205.17.05,9.05.01,18.37,1.25,27.04-.56,5.59-1.16,10.23-6.85,15.3-10.51-5.06-3.67-9.85-9.94-15.23-10.49-14.43-1.49-29.11-.56-43.69-.56-101.59,0-203.18.07-304.77,0-20.69-.01-22.45-2.31-17.08-21.72,6.96-25.16,13.7-50.39,21.6-75.26,2.3-7.24,7.23-14.35,12.69-19.77,58.46-58.1,117.38-115.74,175.76-173.92,3.72-3.71,6.15-11.01,5.62-16.27-1.85-18.35,11.04-31.28,29.23-28.55,5.44.82,11.72.65,16.76-1.29,24.49-9.41,48.72-5.5,65.3,12.45,17.13,18.55,19.34,39.83,10.08,63.02-1.82,4.56-2.1,10.28-1.37,15.22,2.73,18.5-8.28,31.86-26.41,28.68-9.23-1.62-13.87,1.78-19.38,7.23-55.75,55.13-111.37,110.39-167.64,165-10.71,10.39-24.07,18.06-35.33,26.34ZM307.49,491.03c58.46-60.59,116.45-120.7,174.91-181.3-2.93-2.76-9.06-8.52-19.29-18.15-49.87,51.61-98.96,102.59-148.28,153.34-18.72,19.26-18.98,19.01-7.33,46.11ZM433.34,261.24c-59.34,60.83-117.39,120.34-174.96,179.36,16.18,8.8,30.09,6.97,44.44-9.12,22.36-25.07,47.58-47.58,71.31-71.45,26.11-26.26,51.91-52.84,78.37-79.81-5.61-5.56-11.53-11.42-19.16-18.98ZM289.13,505.24c-2.57-10.84-4.47-19.6-6.74-28.26-2.34-8.97-31.98-21.99-39.91-17.52-1.54.87-2.91,2.87-3.41,4.62-5.49,19-10.8,38.06-16.93,59.86,23.68-6.61,44.62-12.46,67-18.71ZM519.51,278.46c8.87-16.59,6.98-31.19-4.92-42.94-12.29-12.14-27.5-14.22-41.48-6.89,15.13,16.24,30.66,32.92,46.4,49.83ZM438.8,232.19c-.99.89-1.99,1.78-2.98,2.68,26.54,26.01,53.08,52.02,79.62,78.04.54-.53,1.09-1.07,1.63-1.6-26.09-26.37-52.18-52.74-78.27-79.11Z"/>
    </g>
  </g>
</svg>