<?xml version="1.0" encoding="UTF-8"?>
<svg xmlns="http://www.w3.org/2000/svg" width="800" height="800" version="1.1" viewBox="0 0 800 800">
  <defs>
    <style>
      .cls-1 {
        stroke: #89c06f;
        stroke-width: 3px;
      }

      .cls-1, .cls-2 {
        fill: none;
        stroke-linecap: round;
        stroke-linejoin: round;
      }

      .cls-3 {
        font-family: Averta-Black, Averta;
        font-size: 19.12px;
        font-weight: 800;
      }

      .cls-4 {
        fill: #fff;
      }

      .cls-5 {
        fill: #f0f158;
      }

      .cls-6, .cls-7 {
        fill: #f95909;
      }

      .cls-6, .cls-8 {
        mix-blend-mode: multiply;
      }

      .cls-9 {
        isolation: isolate;
      }

      .cls-2 {
        stroke: #fff;
      }

      .cls-10 {
        fill: #00010f;
      }

      .cls-11 {
        letter-spacing: 0em;
      }

      .cls-8 {
        fill: #f6a300;
        opacity: .28;
      }
    </style>
  </defs>
  <!-- Generator: Adobe Illustrator 28.7.3, SVG Export Plug-In . SVG Version: 1.2.0 Build 164)  -->
  <g class="cls-9">
    <g id="Camada_1">
      <g>
        <g>
          <g>
            <g>
              <path class="cls-8" d="M256.67,358.05c-16.31-43.12-46.58-89.19-95.47-96.38,61.88-23.26,139.39,115.01,95.47,96.38Z"/>
              <path class="cls-8" d="M186.24,383.61c-21.95,1-43.43,10.18-59.33,25.34,40.52-16.11,83.67-10.31,118.78,12.58,25.98-17.98-44.14-43.1-59.44-37.92Z"/>
              <path class="cls-8" d="M235.77,519.76c-13.51,18.33-20.2,41.56-18.51,64.26,23.36-53.84,38.21-53.2,82.44-78.04,12.08-48.88-53.76-4.51-63.93,13.78Z"/>
              <path class="cls-8" d="M434.73,633.29c-7.66-25.63-10.22-53.07-4.12-79.08,1.92-8.19,1.63-16.8-1.45-24.63-14.89-37.84-48.48,42.66,5.57,103.71Z"/>
              <path class="cls-8" d="M597.59,590.11c-4.29-31.86-47.34-100.05-82.57-81.96,30.45,20.95,62.6,50.88,82.57,81.96Z"/>
              <path class="cls-8" d="M629.94,452.12c23.21,3.37,45.21,12.5,66.03,23.29-20.7-31.2-117.75-65.09-130.79-17.98,3.68,4.83,13.48-1.74,18.11-3,15.13-4.11,31.17-4.56,46.64-2.31Z"/>
              <path class="cls-8" d="M625.22,326.09c17.45-11.27,39.61-16.59,59.44-10.38-42.6,2.22-63.07,44.85-88.27,72.68-42.63,1.86,15.64-56.89,28.84-62.3Z"/>
              <path class="cls-8" d="M553.93,231.81c5.97-8.53,13.41-16.94,23.49-19.56-20.15,28.8-32.62,62.38-40.83,96.56-1.24,5.15-7.62,16.43-12.41,7.58-.02-28.99,13.81-60.4,29.75-84.59Z"/>
              <path class="cls-8" d="M439.06,242.68c1.61-19.27,7.17-38.67,18.97-53.98-9.38,22.65,5.65,111.75-7.72,111.96-18.38,3.43-9.76-45.59-11.25-57.97Z"/>
              <path class="cls-8" d="M319.63,188.23c3.03,34.34,10.27,68.31,21.5,100.91,1.71,38.47-19.17-20.59-18.17-30.47-5.38-23.14-3.46-47.08-3.33-70.44Z"/>
            </g>
            <g>
              <ellipse class="cls-5" cx="424.25" cy="411.3" rx="183.94" ry="126.42"/>
              <path class="cls-8" d="M255.41,361.08c-9.71,15.39-15.1,32.37-15.1,50.22,0,69.82,82.35,126.42,183.94,126.42,12.28,0,24.28-.83,35.89-2.41h0c-43.83,1.17-104.62-6.41-141.19-30.59-24.68-16.32-46.39-38.48-57.37-65.95-3.53-8.84-5.92-18.09-7.71-27.44-2.34-12.19-3.7-24.73-1.94-37.02.67-4.66,1.88-9,3.48-13.23Z"/>
              <path class="cls-8" d="M529,348.43c-40.3-25.48-90.74-18.98-135.6-11.83-33.76,7.52-79.05,2.15-98.24,36.99-17.9,26.4-14.96,68.73,14.69,84.93,13.27-1.54,22.59,8.03,30.71,16.89,16.92,5.9,37.78,1.62,52.76,14.8,5.79,4.87,12.69,8.12,20.14,5.23,16.6-2.25,22.44-17.14,29.2-30.39,1.34-1.74,2.76-3.36,4.25-4.87,18.13,9.48,44.22,7.32,62.26,1.9,6.92-2.08,13.75-4.84,19.49-9.24,9.35-7.17,15.25-18.66,15.62-30.44-.44-.01-.88-.02-1.32-.03,7.84-5.19,14.51-12.25,19.27-22.37,3.71-22.9-16.19-39.57-33.23-51.58Z"/>
            </g>
          </g>
          <g>
            <g>
              <path class="cls-10" d="M297.8,396.9c5.02,14.4,14.25,26.98,21.41,40.38-2.59-.03-5.17.35-7.65,1.11-2.4.73-2,4.26.52,4.36.51.02,1.02.04,1.53.05,5.64.16,9.3-5.92,6.63-10.89-9.43-17.51-15.78-35.99-8.67-55.94.27-6.46-6.81-22.04-12.46-10.48-4.53,9.27-4.29,21.77-1.31,31.41Z"/>
              <path class="cls-10" d="M345.09,424.19c.3,11.32,3.55,22.41,8.09,32.79-1.95.61-3.79,1.57-5.4,2.82-1.57,1.22-.57,3.79,1.4,3.55,3.3-.39,6.49-1.62,9.18-3.56-5.14-8.56-7.44-18.79-6.46-28.72.56-5.65,2.32-11.47,6.44-15.38,1.7-1.61,3.77-2.89,5.04-4.86,1.31-2.03,1.6-4.55,1.75-6.97.49-7.69-6.19-18.41-12.74-8.97-5.69,8.2-7.56,19.53-7.3,29.3Z"/>
              <path class="cls-10" d="M404.67,439.15c.2,11.17,3.87,22.06,9.05,31.95.37.7.75,1.53.43,2.25-.28.64-1,.93-1.62,1.25-1.35.68-2.48,1.74-3.3,3.01-1.49,2.29,1.16,5.08,3.59,3.82,3.76-1.95,7.01-4.9,9.25-8.5-7.72-11.96-8.63-28.01-2.32-40.77,2.18-4.41,5.16-8.45,5.65-13.61.2-2.09-.23-4.16-1.24-5.99-4.63-8.43-11.48-1.3-14.31,4.02-3.66,6.89-5.3,14.8-5.17,22.57Z"/>
            </g>
            <g>
              <path class="cls-7" d="M469.83,417.58c-91.31,58.31-255.79-41.27-182.55-148.92,9.69-14.06,18.76-22.94,37.58-33.68,23.67-13.51,48.63-20.23,75.83-13.14,63.94,9.18,147.49,68.65,108.57,140.46-8.66,19.06-21.43,44.59-39.43,55.28Z"/>
              <path class="cls-6" d="M393.48,272.21c-11.93-5.63-29.63-11.73-42.34-15.28-14.56-4.07-29.91-5.29-44.93-3.58-3.33.38-5.9.93-8.84,2.49-1.85,1.88-2.46,2.71-3.46,3.97,19.93-4.98,40.92-3.19,60.81,2.09,20.97,5.57,40.67,15.09,59.87,25.2,15.95,8.4,31.72,17.28,46.13,28.11-14.55-14.48-26.73-23.98-45.29-32.74-6.95-3.28-15-6.98-21.95-10.26Z"/>
              <path class="cls-6" d="M437.42,333.38c-18.64,10.09-21.34,30.31-20.1,49.74.93,14.57-11.14,26.61-25.73,26.06-17.39-.66-37.48-5.99-47.32-9.77-42.84-16.7-71.42-61.7-69.37-107.32-37.18,97.93,110.3,179.52,194.92,125.48,4.81-2.86,9.25-6.79,13.34-11.36-1.52-12.12-5.93-23.63-13.04-33.73-10.06-12.92-15.61-34.51-32.7-39.1Z"/>
              <g>
                <path class="cls-10" d="M305.05,295.24c6.99,23.38,40.21,15.4,30.56-9.11-8.51-23.37-39.56-17-30.56,9.11Z"/>
                <path class="cls-10" d="M385.64,331.71c20.33,13.49,40.76-13.9,17.66-26.56-21.49-12.51-41.27,12.25-17.66,26.56Z"/>
                <path class="cls-10" d="M380.88,253.54c24.05,4.12,31.66-29.19,5.41-31.43-24.72-2.75-32.79,27.89-5.41,31.43Z"/>
                <path class="cls-10" d="M335.82,372.42c11.76,8.1,24-8.47,10.39-15.63-12.65-7.37-24.29,7.21-10.39,15.63Z"/>
                <path class="cls-10" d="M428.84,269.42c12.76,1.68,10.03-16.8-.91-17.18-17.89-2.08-11.53,14.8.91,17.18Z"/>
                <path class="cls-10" d="M472.55,250.79c-7.8-5.45-16.18-10.27-24.81-14.37,1.07,3.81,3.94,8,6.16,10.34,4.1,4.3,10.45,6.81,16.16,5.16.88-.25,1.73-.63,2.49-1.13Z"/>
              </g>
            </g>
            <g>
              <path class="cls-10" d="M468.83,273.4c-11.17-11.76-34.46-7.53-29.21,11.17.17,1.3.9,1.86,1.84,2.01,2.34.37,3.62-2.6,1.98-4.31-9.81-10.22,11.78-19.35,26.22-2.75,8.73,9.53,12.7,22.09,16.23,34.34.85,2.75,5.01,1.61,4.3-1.18-1.33-5.19-3.76-10.58-4.96-13.79-3.57-9.55-8.62-18.72-16.39-25.5Z"/>
              <path class="cls-10" d="M521.92,266.4c9.13-13.4,32.81-12.96,30.62,6.34.04,1.31-.59,1.98-1.5,2.28-2.25.74-3.99-1.99-2.65-3.94,8.05-11.66-14.73-17.21-26.32,1.49-7.09,10.81-8.99,23.84-10.51,36.5-.4,2.85-4.69,2.39-4.43-.47.48-5.34,2.02-11.04,2.69-14.41,1.99-10,5.51-19.86,12.09-27.8Z"/>
            </g>
            <g>
              <path class="cls-10" d="M433.56,342.5c-23.88,49.32,6.68,85.73,31.01,92.32,34.76,9.42,82.34.89,103.39-27.61,56.49-85.91-96.62-142.75-134.41-64.71Z"/>
              <g>
                <g>
                  <circle class="cls-4" cx="538.32" cy="357.32" r="20.07"/>
                  <path class="cls-10" d="M546.78,352.3l4.09-4.8c-3.14-4.6-8.42-7.63-14.42-7.63-9.63,0-17.44,7.81-17.44,17.44s7.81,17.44,17.44,17.44,17.44-7.81,17.44-17.44c0-1.3-.15-2.55-.42-3.77l-6.69-1.25Z"/>
                </g>
                <g>
                  <circle class="cls-4" cx="480.79" cy="362.57" r="20.07"/>
                  <path class="cls-10" d="M489.25,357.56l4.09-4.8c-3.14-4.6-8.42-7.63-14.42-7.63-9.63,0-17.44,7.81-17.44,17.44s7.81,17.44,17.44,17.44,17.44-7.81,17.44-17.44c0-1.3-.15-2.55-.42-3.77l-6.69-1.25Z"/>
                </g>
                <path class="cls-7" d="M536.64,389.63c.93,5.51,7.59,8.97,14.88,7.74,7.29-1.23,12.45-6.69,11.52-12.2-.93-5.51-7.59-8.97-14.88-7.74-7.29,1.23-12.45,6.69-11.52,12.2Z"/>
                <path class="cls-7" d="M465.83,395.93c.5,5.56,7.6,9.47,15.86,8.73s14.55-5.85,14.06-11.41c-.5-5.56-7.6-9.47-15.86-8.73-8.26.74-14.55,5.85-14.06,11.41Z"/>
                <path class="cls-2" d="M523.66,381.73c-2.46,3.2-6.38,5.23-10.42,5.39-4.03.16-8.1-1.56-10.8-4.57"/>
                <path class="cls-2" d="M541.79,327.66c-4.42-4.48-12.82-3.94-16.62,1.08"/>
                <path class="cls-2" d="M484.05,330.4c-5.1-3.69-13.3-1.75-16.2,3.84"/>
              </g>
            </g>
          </g>
          <path class="cls-1" d="M347.37,565.69c-14.55,38.15-20.79,78.87-26.94,119.23-1.2,7.88-2.4,15.96-.88,23.78"/>
        </g>
        <g>
          <g>
            <text class="cls-3" transform="translate(378.93 189.77)"><tspan x="0" y="0">1</tspan></text>
            <path d="M383.1,202.3c0,2.3-1.87,4.17-4.17,4.17s-4.17-1.87-4.17-4.17,1.87-4.17,4.17-4.17,4.17,1.87,4.17,4.17Z"/>
          </g>
          <g>
            <text class="cls-3" transform="translate(316.97 147.38)"><tspan x="0" y="0">2</tspan></text>
            <path d="M321.13,159.9c0,2.3-1.87,4.17-4.17,4.17s-4.17-1.87-4.17-4.17,1.87-4.17,4.17-4.17,4.17,1.87,4.17,4.17Z"/>
          </g>
          <g>
            <text class="cls-3" transform="translate(252.31 195.13)"><tspan x="0" y="0">3</tspan></text>
            <circle cx="269.56" cy="203.85" r="4.17"/>
          </g>
          <g>
            <text class="cls-3" transform="translate(270.87 265.43)"><tspan x="0" y="0">4</tspan></text>
            <path d="M275.04,277.96c0,2.3-1.87,4.17-4.17,4.17s-4.17-1.87-4.17-4.17,1.87-4.17,4.17-4.17,4.17,1.87,4.17,4.17Z"/>
          </g>
          <g>
            <text class="cls-3" transform="translate(211.21 214.25)"><tspan x="0" y="0">5</tspan></text>
            <path d="M215.38,226.78c0,2.3-1.87,4.17-4.17,4.17s-4.17-1.87-4.17-4.17,1.87-4.17,4.17-4.17,4.17,1.87,4.17,4.17Z"/>
          </g>
          <g>
            <text class="cls-3" transform="translate(128.27 219.69)"><tspan x="0" y="0">6</tspan></text>
            <path d="M132.44,232.22c0,2.3-1.87,4.17-4.17,4.17s-4.17-1.87-4.17-4.17,1.87-4.17,4.17-4.17,4.17,1.87,4.17,4.17Z"/>
          </g>
          <g>
            <text class="cls-3" transform="translate(98.34 299.6)"><tspan x="0" y="0">7</tspan></text>
            <path d="M126.6,302.12c0,2.3-1.87,4.17-4.17,4.17s-4.17-1.87-4.17-4.17,1.87-4.17,4.17-4.17,4.17,1.87,4.17,4.17Z"/>
          </g>
          <g>
            <text class="cls-3" transform="translate(173.14 335.36)"><tspan x="0" y="0">8</tspan></text>
            <path d="M181.47,347.79c0,2.3-1.87,4.17-4.17,4.17s-4.17-1.87-4.17-4.17,1.87-4.17,4.17-4.17,4.17,1.87,4.17,4.17Z"/>
          </g>
          <g>
            <text class="cls-3" transform="translate(90 353.04)"><tspan x="0" y="0">9</tspan></text>
            <path d="M98.34,365.46c0,2.3-1.87,4.17-4.17,4.17s-4.17-1.87-4.17-4.17,1.87-4.17,4.17-4.17,4.17,1.87,4.17,4.17Z"/>
          </g>
          <g>
            <text class="cls-3" transform="translate(72.72 448.09)"><tspan x="0" y="0">10</tspan></text>
            <path d="M106.67,438.95c0,2.3-1.87,4.17-4.17,4.17s-4.17-1.87-4.17-4.17,1.87-4.17,4.17-4.17,4.17,1.87,4.17,4.17Z"/>
          </g>
          <g>
            <text class="cls-3" transform="translate(187.12 457.22)"><tspan x="0" y="0">11</tspan></text>
            <circle cx="197.37" cy="469.14" r="4.17"/>
          </g>
          <g>
            <text class="cls-3" transform="translate(142.73 550.56)"><tspan x="0" y="0">12</tspan></text>
            <circle cx="167.44" cy="539.4" r="4.17"/>
          </g>
          <g>
            <text class="cls-3" transform="translate(178.76 640.96)"><tspan x="0" y="0">13</tspan></text>
            <path d="M207.64,616.86c0,2.3-1.87,4.17-4.17,4.17s-4.17-1.87-4.17-4.17,1.87-4.17,4.17-4.17,4.17,1.87,4.17,4.17Z"/>
          </g>
          <g>
            <text class="cls-3" transform="translate(262.44 624.3)"><tspan x="0" y="0">14</tspan></text>
            <circle cx="287.16" cy="600.21" r="4.17"/>
          </g>
          <g>
            <text class="cls-3" transform="translate(318.83 562.44)"><tspan x="0" y="0">15</tspan></text>
            <circle cx="346.06" cy="566.6" r="4.17"/>
          </g>
          <g>
            <text class="cls-3" transform="translate(354.91 660.35)"><tspan x="0" y="0">16</tspan></text>
            <path d="M373.37,630.99c0,2.3-1.87,4.17-4.17,4.17s-4.17-1.87-4.17-4.17,1.87-4.17,4.17-4.17,4.17,1.87,4.17,4.17Z"/>
          </g>
          <g>
            <text class="cls-3" transform="translate(456.22 675.71)"><tspan x="0" y="0">17</tspan></text>
            <path d="M456.22,651.93c0,2.3-1.87,4.17-4.17,4.17s-4.17-1.87-4.17-4.17,1.87-4.17,4.17-4.17,4.17,1.87,4.17,4.17Z"/>
          </g>
          <g>
            <text class="cls-3" transform="translate(492.78 560.05)"><tspan x="0" y="0">18</tspan></text>
            <path d="M490.25,555.89c0,2.3-1.87,4.17-4.17,4.17s-4.17-1.87-4.17-4.17,1.87-4.17,4.17-4.17,4.17,1.87,4.17,4.17Z"/>
          </g>
          <g>
            <text class="cls-3" transform="translate(537.19 635.52)"><tspan x="0" y="0">19</tspan></text>
            <path d="M536.28,606.75c0,2.3-1.87,4.17-4.17,4.17s-4.17-1.87-4.17-4.17,1.87-4.17,4.17-4.17,4.17,1.87,4.17,4.17Z"/>
          </g>
          <g>
            <text class="cls-3" transform="translate(633.8 635.16)"><tspan x="0" y="0">20</tspan></text>
            <path d="M633.8,610.91c0,2.3-1.87,4.17-4.17,4.17s-4.17-1.87-4.17-4.17,1.87-4.17,4.17-4.17,4.17,1.87,4.17,4.17Z"/>
          </g>
          <g>
            <text class="cls-3" transform="translate(639.42 544.36)"><tspan x="0" y="0">21</tspan></text>
            <path d="M624.55,522.95c0,2.3-1.87,4.17-4.17,4.17s-4.17-1.87-4.17-4.17,1.87-4.17,4.17-4.17,4.17,1.87,4.17,4.17Z"/>
          </g>
          <g>
            <text class="cls-3" transform="translate(716.65 519.85)"><tspan x="0" y="0">22</tspan></text>
            <circle cx="723.11" cy="489.47" r="4.17"/>
          </g>
          <g>
            <text class="cls-3" transform="translate(711.25 416.46)"><tspan x="0" y="0">23</tspan></text>
            <path d="M711.25,425.8c0,2.3-1.87,4.17-4.17,4.17s-4.17-1.87-4.17-4.17,1.87-4.17,4.17-4.17,4.17,1.87,4.17,4.17Z"/>
          </g>
          <g>
            <text class="cls-3" transform="translate(633.8 392.87)"><tspan x="0" y="0">24</tspan></text>
            <path d="M659.72,402.21c0,2.3-1.87,4.17-4.17,4.17s-4.17-1.87-4.17-4.17,1.87-4.17,4.17-4.17,4.17,1.87,4.17,4.17Z"/>
          </g>
          <g>
            <text class="cls-3" transform="translate(680.42 345.13)"><tspan x="0" y="0">25</tspan></text>
            <path d="M720.04,336.82c0,2.3-1.87,4.17-4.17,4.17s-4.17-1.87-4.17-4.17,1.87-4.17,4.17-4.17,4.17,1.87,4.17,4.17Z"/>
          </g>
          <g>
            <text class="cls-3" transform="translate(694.49 269.53)"><tspan x="0" y="0">26</tspan></text>
            <path d="M684.65,273.7c0,2.3-1.87,4.17-4.17,4.17s-4.17-1.87-4.17-4.17,1.87-4.17,4.17-4.17,4.17,1.87,4.17,4.17Z"/>
          </g>
          <g>
            <text class="cls-3" transform="translate(586.05 308.69)"><tspan x="0" y="0">27</tspan></text>
            <path d="M601.39,284.88c0,2.3-1.87,4.17-4.17,4.17s-4.17-1.87-4.17-4.17,1.87-4.17,4.17-4.17,4.17,1.87,4.17,4.17Z"/>
          </g>
          <g>
            <text class="cls-3" transform="translate(480.79 247.24)"><tspan x="0" y="0">30</tspan></text>
            <path d="M508.53,261.87c0,2.3-1.87,4.17-4.17,4.17s-4.17-1.87-4.17-4.17,1.87-4.17,4.17-4.17,4.17,1.87,4.17,4.17Z"/>
          </g>
          <g>
            <text class="cls-3" transform="translate(443.87 144.97)"><tspan class="cls-11" x="0" y="0">3</tspan><tspan x="9.9" y="0">1</tspan></text>
            <path d="M470.09,152.6c0,2.3-1.87,4.17-4.17,4.17s-4.17-1.87-4.17-4.17,1.87-4.17,4.17-4.17,4.17,1.87,4.17,4.17Z"/>
          </g>
          <g>
            <text class="cls-3" transform="translate(407.82 208.08)"><tspan x="0" y="0">32</tspan></text>
            <path d="M399.42,212.21c0,2.3-1.87,4.17-4.17,4.17s-4.17-1.87-4.17-4.17,1.87-4.17,4.17-4.17,4.17,1.87,4.17,4.17Z"/>
          </g>
          <g>
            <text class="cls-3" transform="translate(614.66 202.43)"><tspan x="0" y="0">28</tspan></text>
            <circle cx="600.73" cy="202.43" r="4.17"/>
          </g>
          <g>
            <text class="cls-3" transform="translate(525.17 198.13)"><tspan x="0" y="0">29</tspan></text>
            <path d="M537.6,212.25c0,2.3-1.87,4.17-4.17,4.17s-4.17-1.87-4.17-4.17,1.87-4.17,4.17-4.17,4.17,1.87,4.17,4.17Z"/>
          </g>
        </g>
      </g>
    </g>
  </g>
</svg>