<?xml version="1.0" encoding="UTF-8"?>
<svg xmlns="http://www.w3.org/2000/svg" width="800" height="800" version="1.1" xmlns:xlink="http://www.w3.org/1999/xlink" viewBox="0 0 800 800">
  <defs>
    <style>
      .cls-1, .cls-2, .cls-3 {
        fill: #fff;
      }

      .cls-1, .cls-4, .cls-5, .cls-3 {
        stroke: #331020;
        stroke-width: 1.93px;
      }

      .cls-1, .cls-5 {
        stroke-linecap: round;
        stroke-linejoin: round;
      }

      .cls-6 {
        font-family: Averta-Black, Averta;
        font-size: 11.17px;
        font-weight: 800;
      }

      .cls-6, .cls-7 {
        fill: #331020;
      }

      .cls-8 {
        letter-spacing: -.03em;
      }

      .cls-9 {
        letter-spacing: 0em;
      }

      .cls-10, .cls-4, .cls-5 {
        fill: none;
      }

      .cls-11 {
        letter-spacing: -.02em;
      }

      .cls-12 {
        clip-path: url(#clippath-1);
      }

      .cls-13 {
        letter-spacing: 0em;
      }

      .cls-14 {
        letter-spacing: -.04em;
      }

      .cls-15 {
        letter-spacing: 0em;
      }

      .cls-16 {
        fill: #a0bffe;
        opacity: .2;
      }

      .cls-4, .cls-3 {
        stroke-miterlimit: 10;
      }

      .cls-17 {
        clip-path: url(#clippath);
      }
    </style>
    <clipPath id="clippath">
      <path class="cls-10" d="M423.58,688.72c.85-3.35,4.37-5.4,7.86-4.59l25.2,5.85c-1.71-45.03-20.28-99.43-20.48-99.99-.72-2.09.46-4.34,2.64-5.03,2.18-.69,4.53.44,5.25,2.53.8,2.31,18.95,55.45,20.86,101.4.66-.22,1.31-.45,1.97-.65,2.76-.87,5.54-1.63,8.35-2.33,1.4-.37,2.82-.65,4.24-.97,1.41-.34,2.85-.57,4.28-.84,1.43-.28,2.87-.52,4.32-.71,1.45-.19,2.89-.46,4.36-.57l4.4-.43,4.44-.22c1.48-.1,2.98-.07,4.47-.05,1.5.05,2.99-.03,4.5.12l4.52.34c1.51.13,3.02.42,4.53.62l2.27.34c.76.13,1.5.33,2.25.5l4.52,1.07c.21.05.43.11.64.18,3.81,1.26,5.83,5.24,4.51,8.89-1.32,3.65-5.47,5.58-9.28,4.32l-.56-.19-3.54-1.17c-.6-.19-1.18-.42-1.79-.58l-1.84-.44c-1.24-.28-2.45-.65-3.71-.86l-3.81-.63c-1.26-.26-2.58-.29-3.87-.45-1.3-.13-2.59-.29-3.91-.31l-3.95-.16-3.98.03c-1.33-.02-2.66.11-3.99.17-1.33.05-2.65.15-3.98.29l3.44.82c1.34.33,2.66.77,3.99,1.15,1.33.38,2.66.79,3.97,1.3,1.31.49,2.64.92,3.93,1.47l3.89,1.68,3.82,1.93c1.24.72,2.5,1.43,3.73,2.19,1.21.82,2.45,1.57,3.63,2.5,1.2.87,2.36,1.84,3.51,2.86,1.16,1.11,2.24,2.08,3.49,3.73l.51.67c.27.36.5.74.71,1.15,1.73,3.56.13,7.78-3.58,9.44-3.71,1.66-8.13.12-9.86-3.43-.21-.44-.93-1.3-1.55-2.03-.7-.75-1.43-1.52-2.25-2.25-.76-.76-1.69-1.44-2.54-2.16-.9-.69-1.84-1.35-2.77-2.03l-2.96-1.89-3.12-1.73c-1.04-.58-2.16-1.06-3.24-1.59-1.07-.55-2.2-1.02-3.34-1.47-1.14-.45-2.25-.96-3.41-1.37l-3.51-1.21c-2.33-.84-4.79-1.4-7.18-2.12-.23-.06-.47-.11-.71-.17,1.41,1.39,2.81,2.78,4.17,4.23.8.82,1.55,1.68,2.32,2.53.77.84,1.53,1.7,2.27,2.58,1.51,1.73,2.93,3.53,4.35,5.35.72.9,1.37,1.86,2.06,2.78.68.93,1.37,1.87,1.99,2.85l1.92,2.91,1.8,3.01c.61,1,1.19,2.02,1.71,3.08l1.63,3.14c.12.24.25.53.35.79,1.38,3.72-.66,7.8-4.54,9.12-3.88,1.32-8.14-.63-9.52-4.35l-.12-.32-1.04-2.8c-.32-.94-.7-1.87-1.12-2.79l-1.21-2.78-1.36-2.74c-.43-.92-.94-1.82-1.44-2.72-.51-.9-.97-1.82-1.52-2.7-1.07-1.78-2.14-3.56-3.32-5.3-.56-.88-1.16-1.75-1.77-2.6-.61-.86-1.19-1.73-1.84-2.57-1.25-1.7-2.55-3.37-3.88-5.03-1.35-1.64-2.71-3.27-4.13-4.86-.71-.79-1.42-1.58-2.15-2.35-.43-.46-.88-.93-1.32-1.38l-28.82-2.29c-.32-.03-.68-.08-1-.15-3.49-.81-5.64-4.18-4.79-7.53Z"/>
    </clipPath>
    <clipPath id="clippath-1">
      <path class="cls-10" d="M392.45,688.72c-.85-3.35-4.37-5.4-7.86-4.59l-25.2,5.85c1.71-45.03,20.28-99.43,20.48-99.99.72-2.09-.46-4.34-2.64-5.03-2.18-.69-4.53.44-5.25,2.53-.8,2.31-18.95,55.45-20.86,101.4-.66-.22-1.31-.45-1.97-.65-2.76-.87-5.54-1.63-8.35-2.33-1.4-.37-2.82-.65-4.24-.97-1.41-.34-2.85-.57-4.28-.84-1.43-.28-2.87-.52-4.32-.71-1.45-.19-2.89-.46-4.36-.57l-4.4-.43-4.44-.22c-1.48-.1-2.98-.07-4.47-.05-1.5.05-2.99-.03-4.5.12l-4.52.34c-1.51.13-3.02.42-4.53.62l-2.27.34c-.76.13-1.5.33-2.25.5l-4.52,1.07c-.21.05-.43.11-.64.18-3.81,1.26-5.83,5.24-4.51,8.89,1.32,3.65,5.47,5.58,9.28,4.32l.56-.19,3.54-1.17c.6-.19,1.18-.42,1.79-.58l1.84-.44c1.24-.28,2.45-.65,3.71-.86l3.81-.63c1.26-.26,2.58-.29,3.87-.45,1.3-.13,2.59-.29,3.91-.31l3.95-.16,3.98.03c1.33-.02,2.66.11,3.99.17,1.33.05,2.65.15,3.98.29l-3.44.82c-1.34.33-2.66.77-3.99,1.15-1.33.38-2.66.79-3.97,1.3-1.31.49-2.64.92-3.93,1.47l-3.89,1.68-3.82,1.93c-1.24.72-2.5,1.43-3.73,2.19-1.21.82-2.45,1.57-3.63,2.5-1.2.87-2.36,1.84-3.51,2.86-1.16,1.11-2.24,2.08-3.49,3.73l-.51.67c-.27.36-.5.74-.71,1.15-1.73,3.56-.13,7.78,3.58,9.44,3.71,1.66,8.13.12,9.86-3.43.21-.44.93-1.3,1.55-2.03.7-.75,1.43-1.52,2.25-2.25.76-.76,1.69-1.44,2.54-2.16.9-.69,1.84-1.35,2.77-2.03l2.96-1.89,3.12-1.73c1.04-.58,2.16-1.06,3.24-1.59,1.07-.55,2.2-1.02,3.34-1.47,1.14-.45,2.25-.96,3.41-1.37l3.51-1.21c2.33-.84,4.79-1.4,7.18-2.12.23-.06.47-.11.71-.17-1.41,1.39-2.81,2.78-4.17,4.23-.8.82-1.55,1.68-2.32,2.53-.77.84-1.53,1.7-2.27,2.58-1.51,1.73-2.93,3.53-4.35,5.35-.72.9-1.37,1.86-2.06,2.78-.68.93-1.37,1.87-1.99,2.85l-1.92,2.91-1.8,3.01c-.61,1-1.19,2.02-1.71,3.08l-1.63,3.14c-.12.24-.25.53-.35.79-1.38,3.72.66,7.8,4.54,9.12,3.88,1.32,8.14-.63,9.52-4.35l.12-.32,1.04-2.8c.32-.94.7-1.87,1.12-2.79l1.21-2.78,1.36-2.74c.43-.92.94-1.82,1.44-2.72.51-.9.97-1.82,1.52-2.7,1.07-1.78,2.14-3.56,3.32-5.3.56-.88,1.16-1.75,1.77-2.6.61-.86,1.19-1.73,1.84-2.57,1.25-1.7,2.55-3.37,3.88-5.03,1.35-1.64,2.71-3.27,4.13-4.86.71-.79,1.42-1.58,2.15-2.35.43-.46.88-.93,1.32-1.38l28.82-2.29c.32-.03.68-.08,1-.15,3.49-.81,5.64-4.18,4.79-7.53Z"/>
    </clipPath>
  </defs>
  <!-- Generator: Adobe Illustrator 28.7.3, SVG Export Plug-In . SVG Version: 1.2.0 Build 164)  -->
  <g>
    <g id="Camada_1">
      <g>
        <ellipse class="cls-16" cx="400.73" cy="712.02" rx="194.06" ry="48.52"/>
        <g>
          <g>
            <g>
              <g>
                <path class="cls-3" d="M423.58,688.72c.85-3.35,4.37-5.4,7.86-4.59l25.2,5.85c-1.71-45.03-20.28-99.43-20.48-99.99-.72-2.09.46-4.34,2.64-5.03,2.18-.69,4.53.44,5.25,2.53.8,2.31,18.95,55.45,20.86,101.4.66-.22,1.31-.45,1.97-.65,2.76-.87,5.54-1.63,8.35-2.33,1.4-.37,2.82-.65,4.24-.97,1.41-.34,2.85-.57,4.28-.84,1.43-.28,2.87-.52,4.32-.71,1.45-.19,2.89-.46,4.36-.57l4.4-.43,4.44-.22c1.48-.1,2.98-.07,4.47-.05,1.5.05,2.99-.03,4.5.12l4.52.34c1.51.13,3.02.42,4.53.62l2.27.34c.76.13,1.5.33,2.25.5l4.52,1.07c.21.05.43.11.64.18,3.81,1.26,5.83,5.24,4.51,8.89-1.32,3.65-5.47,5.58-9.28,4.32l-.56-.19-3.54-1.17c-.6-.19-1.18-.42-1.79-.58l-1.84-.44c-1.24-.28-2.45-.65-3.71-.86l-3.81-.63c-1.26-.26-2.58-.29-3.87-.45-1.3-.13-2.59-.29-3.91-.31l-3.95-.16-3.98.03c-1.33-.02-2.66.11-3.99.17-1.33.05-2.65.15-3.98.29l3.44.82c1.34.33,2.66.77,3.99,1.15,1.33.38,2.66.79,3.97,1.3,1.31.49,2.64.92,3.93,1.47l3.89,1.68,3.82,1.93c1.24.72,2.5,1.43,3.73,2.19,1.21.82,2.45,1.57,3.63,2.5,1.2.87,2.36,1.84,3.51,2.86,1.16,1.11,2.24,2.08,3.49,3.73l.51.67c.27.36.5.74.71,1.15,1.73,3.56.13,7.78-3.58,9.44-3.71,1.66-8.13.12-9.86-3.43-.21-.44-.93-1.3-1.55-2.03-.7-.75-1.43-1.52-2.25-2.25-.76-.76-1.69-1.44-2.54-2.16-.9-.69-1.84-1.35-2.77-2.03l-2.96-1.89-3.12-1.73c-1.04-.58-2.16-1.06-3.24-1.59-1.07-.55-2.2-1.02-3.34-1.47-1.14-.45-2.25-.96-3.41-1.37l-3.51-1.21c-2.33-.84-4.79-1.4-7.18-2.12-.23-.06-.47-.11-.71-.17,1.41,1.39,2.81,2.78,4.17,4.23.8.82,1.55,1.68,2.32,2.53.77.84,1.53,1.7,2.27,2.58,1.51,1.73,2.93,3.53,4.35,5.35.72.9,1.37,1.86,2.06,2.78.68.93,1.37,1.87,1.99,2.85l1.92,2.91,1.8,3.01c.61,1,1.19,2.02,1.71,3.08l1.63,3.14c.12.24.25.53.35.79,1.38,3.72-.66,7.8-4.54,9.12-3.88,1.32-8.14-.63-9.52-4.35l-.12-.32-1.04-2.8c-.32-.94-.7-1.87-1.12-2.79l-1.21-2.78-1.36-2.74c-.43-.92-.94-1.82-1.44-2.72-.51-.9-.97-1.82-1.52-2.7-1.07-1.78-2.14-3.56-3.32-5.3-.56-.88-1.16-1.75-1.77-2.6-.61-.86-1.19-1.73-1.84-2.57-1.25-1.7-2.55-3.37-3.88-5.03-1.35-1.64-2.71-3.27-4.13-4.86-.71-.79-1.42-1.58-2.15-2.35-.43-.46-.88-.93-1.32-1.38l-28.82-2.29c-.32-.03-.68-.08-1-.15-3.49-.81-5.64-4.18-4.79-7.53Z"/>
                <g class="cls-17">
                  <g>
                    <path class="cls-4" d="M437.38,610.87s17.83-8.61,33.38.69c15.55,9.3,1.4,6.58,1.4,6.58,0,0-26.82-8.47-37.35,4.19-10.54,12.67,1.94,6.64,1.94,6.64,0,0,18.31-8.02,33.93.75,15.62,8.77-2.12,3.49-2.12,3.49,0,0-27.62-2.15-31.37,5.42-3.75,7.58,22.31-4.34,37.04,7,14.74,11.34-19.17-2.77-29.79,6.14-10.62,8.92,18.61-1.57,31.68,5.3,13.07,6.87-25-.78-32.19,7.47-7.18,8.25,36.87-4.78,35.6,5.22-1.27,10.01-30.72-4.12-32.6,6.35-1.89,10.47,31.33,3.66,31.33,3.66"/>
                    <path class="cls-4" d="M526.55,677.39s-10.19,14.31-6.24,22.79l-10.93-1.81s-2.04-14.67,6.18-22.26l-12.09-1.41s-8.07,10.82-2.68,21.07"/>
                    <path class="cls-4" d="M524.66,709.77s-18.06,1.63-21.11,12.5l-6.61-5.05s6.34-14.76,18.08-14.99l-11.69-4.57s-13.31,3.79-14.52,13.27"/>
                    <path class="cls-4" d="M503.44,731.88s-15.62-8.77-24.51,4.09l-5.31-6.5s4.85-12.98,20.85-10.39l-7.86-8.4s-16.02-5.61-18.45,9.07"/>
                    <path class="cls-4" d="M449.44,704.73s4.76-15.48-4.53-21.37l-6.53-1.3s6.09,13.54,1.52,23.16c-4.57,9.62-10.51-.69-10.51-.69,0,0,10.33-11.09,2.8-26.4"/>
                  </g>
                </g>
              </g>
              <path class="cls-1" d="M372.77,578.44s11.1,49.3,62.56,48.33c51.46-.97,55.49-52.2,55.49-52.2l-118.05,3.87Z"/>
            </g>
            <g>
              <path class="cls-3" d="M392.45,688.72c-.85-3.35-4.37-5.4-7.86-4.59l-25.2,5.85c1.71-45.03,20.28-99.43,20.48-99.99.72-2.09-.46-4.34-2.64-5.03-2.18-.69-4.53.44-5.25,2.53-.8,2.31-18.95,55.45-20.86,101.4-.66-.22-1.31-.45-1.97-.65-2.76-.87-5.54-1.63-8.35-2.33-1.4-.37-2.82-.65-4.24-.97-1.41-.34-2.85-.57-4.28-.84-1.43-.28-2.87-.52-4.32-.71-1.45-.19-2.89-.46-4.36-.57l-4.4-.43-4.44-.22c-1.48-.1-2.98-.07-4.47-.05-1.5.05-2.99-.03-4.5.12l-4.52.34c-1.51.13-3.02.42-4.53.62l-2.27.34c-.76.13-1.5.33-2.25.5l-4.52,1.07c-.21.05-.43.11-.64.18-3.81,1.26-5.83,5.24-4.51,8.89,1.32,3.65,5.47,5.58,9.28,4.32l.56-.19,3.54-1.17c.6-.19,1.18-.42,1.79-.58l1.84-.44c1.24-.28,2.45-.65,3.71-.86l3.81-.63c1.26-.26,2.58-.29,3.87-.45,1.3-.13,2.59-.29,3.91-.31l3.95-.16,3.98.03c1.33-.02,2.66.11,3.99.17,1.33.05,2.65.15,3.98.29l-3.44.82c-1.34.33-2.66.77-3.99,1.15-1.33.38-2.66.79-3.97,1.3-1.31.49-2.64.92-3.93,1.47l-3.89,1.68-3.82,1.93c-1.24.72-2.5,1.43-3.73,2.19-1.21.82-2.45,1.57-3.63,2.5-1.2.87-2.36,1.84-3.51,2.86-1.16,1.11-2.24,2.08-3.49,3.73l-.51.67c-.27.36-.5.74-.71,1.15-1.73,3.56-.13,7.78,3.58,9.44,3.71,1.66,8.13.12,9.86-3.43.21-.44.93-1.3,1.55-2.03.7-.75,1.43-1.52,2.25-2.25.76-.76,1.69-1.44,2.54-2.16.9-.69,1.84-1.35,2.77-2.03l2.96-1.89,3.12-1.73c1.04-.58,2.16-1.06,3.24-1.59,1.07-.55,2.2-1.02,3.34-1.47,1.14-.45,2.25-.96,3.41-1.37l3.51-1.21c2.33-.84,4.79-1.4,7.18-2.12.23-.06.47-.11.71-.17-1.41,1.39-2.81,2.78-4.17,4.23-.8.82-1.55,1.68-2.32,2.53-.77.84-1.53,1.7-2.27,2.58-1.51,1.73-2.93,3.53-4.35,5.35-.72.9-1.37,1.86-2.06,2.78-.68.93-1.37,1.87-1.99,2.85l-1.92,2.91-1.8,3.01c-.61,1-1.19,2.02-1.71,3.08l-1.63,3.14c-.12.24-.25.53-.35.79-1.38,3.72.66,7.8,4.54,9.12,3.88,1.32,8.14-.63,9.52-4.35l.12-.32,1.04-2.8c.32-.94.7-1.87,1.12-2.79l1.21-2.78,1.36-2.74c.43-.92.94-1.82,1.44-2.72.51-.9.97-1.82,1.52-2.7,1.07-1.78,2.14-3.56,3.32-5.3.56-.88,1.16-1.75,1.77-2.6.61-.86,1.19-1.73,1.84-2.57,1.25-1.7,2.55-3.37,3.88-5.03,1.35-1.64,2.71-3.27,4.13-4.86.71-.79,1.42-1.58,2.15-2.35.43-.46.88-.93,1.32-1.38l28.82-2.29c.32-.03.68-.08,1-.15,3.49-.81,5.64-4.18,4.79-7.53Z"/>
              <g class="cls-12">
                <g>
                  <path class="cls-4" d="M378.65,610.87s-17.83-8.61-33.38.69c-15.55,9.3-1.4,6.58-1.4,6.58,0,0,26.81-8.47,37.35,4.19,10.54,12.67-1.94,6.64-1.94,6.64,0,0-18.31-8.02-33.93.75-15.62,8.77,2.12,3.49,2.12,3.49,0,0,27.62-2.15,31.37,5.42,3.75,7.58-22.31-4.34-37.04,7-14.74,11.34,19.17-2.77,29.79,6.14,10.62,8.92-18.61-1.57-31.68,5.3-13.07,6.87,25-.78,32.19,7.47,7.19,8.25-36.87-4.78-35.6,5.22,1.27,10.01,30.72-4.12,32.6,6.35,1.89,10.47-31.33,3.66-31.33,3.66"/>
                  <path class="cls-4" d="M289.48,677.39s10.19,14.31,6.24,22.79l10.93-1.81s2.04-14.67-6.18-22.26l12.09-1.41s8.07,10.82,2.68,21.07"/>
                  <path class="cls-4" d="M291.37,709.77s18.06,1.63,21.11,12.5l6.61-5.05s-6.34-14.76-18.08-14.99l11.69-4.57s13.31,3.79,14.52,13.27"/>
                  <path class="cls-4" d="M312.59,731.88s15.62-8.77,24.51,4.09l5.31-6.5s-4.85-12.98-20.85-10.39l7.86-8.4s16.02-5.61,18.45,9.07"/>
                  <path class="cls-4" d="M366.6,704.73s-4.76-15.48,4.53-21.37l6.53-1.3s-6.09,13.54-1.52,23.16c4.57,9.62,10.51-.69,10.51-.69,0,0-10.34-11.09-2.8-26.4"/>
                </g>
              </g>
            </g>
            <g>
              <path class="cls-2" d="M527.42,372.33l-323.1,123.27c9.76,58.25,52.42,93.39,104.85,108.51,8.07,14.16,24.42,31.94,55.53,31.36,25.03-.47,38.82-12.84,46.41-25.41,46.13-6.84,89.27-26.11,116.32-56.11,12.03-13.34,19.54-28.06,23.82-43.18,18.53-65.51-23.82-138.43-23.82-138.43Z"/>
              <path class="cls-1" d="M551.24,510.76c18.53-65.51-23.82-138.43-23.82-138.43h0s2.25,22.69-22.73,25.59c-24.97,2.9-40.86-25.37-40.86-25.37l-38.59,30.45s-32.54,5.8-24.97-29.72c0,0-7.57,34.8-27.24,27.55-19.67-7.25-7.57-34.8-7.57-34.8,0,0-11.35,18.85-27.24,14.5-15.89-4.35,6.81-25.37,6.81-25.37,0,0-16.76,2.21-28.85-1.22"/>
              <path class="cls-1" d="M166.77,451.95c10.53-17.59,41.62-62.94,90.03-78.04,16.14-5.03,34.2-6.71,54.06-2.87,86.77,16.75,65.3,161.54-42.54,174.72-87.95,10.75,13.57-42.63,13.57-42.63,0,0-35.69,17.73-69,27.47"/>
            </g>
          </g>
          <g>
            <g>
              <g>
                <path class="cls-1" d="M470.78,267.31c1.75,16.49,17.12,28.51,34.33,26.84,17.22-1.67,29.76-16.4,28.01-32.89-1.75-16.49-17.12-28.51-34.33-26.84-17.22,1.67-29.76,16.4-28.01,32.89Z"/>
                <ellipse class="cls-7" cx="497.01" cy="267.76" rx="23.06" ry="22.1"/>
                <path class="cls-2" d="M497.31,253.98c.7,6.59,6.84,11.39,13.72,10.72,6.88-.67,11.89-6.55,11.19-13.14-.7-6.59-6.84-11.39-13.71-10.72-6.88.67-11.89,6.55-11.19,13.14Z"/>
              </g>
              <path class="cls-7" d="M475.69,234.8c5.94-14.28,20.8-20.66,35.25-15.03,4.44,1.58,8.49,4.01,12.18,6.82-4.09-2.17-8.29-4.1-12.65-5.39-14.22-4.57-27.07,1.06-34.77,13.6h0Z"/>
            </g>
            <g>
              <g>
                <ellipse class="cls-1" cx="409.09" cy="268.89" rx="31.33" ry="30.02"/>
                <path class="cls-7" d="M381.2,274.59c1.28,12.14,12.6,20.99,25.27,19.75,12.67-1.23,21.9-12.07,20.62-24.21-1.28-12.14-12.6-20.99-25.27-19.75-12.67,1.23-21.9,12.07-20.62,24.21Z"/>
                <path class="cls-2" d="M404.45,258.59c.7,6.59,6.84,11.39,13.71,10.72,6.88-.67,11.89-6.55,11.19-13.14-.7-6.59-6.84-11.39-13.71-10.72-6.88.67-11.89,6.55-11.19,13.14Z"/>
              </g>
              <path class="cls-7" d="M441.38,235.28c-4.13-4.57-9.57-7.7-15.19-10.03-11.17-4.74-24.2-5.23-35.25.06-5.5,2.59-10.4,6.43-14.64,10.94,3.69-4.96,8.4-9.31,13.99-12.24,11.18-6.04,25.2-5.6,36.55-.24,5.61,2.64,11.05,6.31,14.55,11.51h0Z"/>
            </g>
            <path class="cls-5" d="M347.3,205.8s6.05-15.95,24.22-26.82c0,0,40.86-28.27,67.35-.72,13.2,13.73,37.3,16.48,57.97,7.52"/>
            <g>
              <path class="cls-1" d="M424.48,332.67s.76,26.82-16.65,44.95c-19.06,19.85-11.35,56.55,22.7,57.27,34.05.73,31.78-42.05,31.78-42.05,0,0,0,28.27,21.95,23.92,21.95-4.35,30.27-29.72,5.3-40.6-17.87-7.78-19.67-36.25-19.67-36.25l-45.4-7.25Z"/>
              <g>
                <path class="cls-1" d="M474.68,359.01s-51.42,1.87-52.47-37.22c-1.01-37.7,49.44-50.27,82.23-23.2,31.91,26.34,13.62,59.45,13.62,59.45,0,0-18.16,9.67-43.39.97Z"/>
                <g>
                  <path class="cls-7" d="M440.86,322.96c1.02.15,1.18.6,1.34,1.06.54,1.35,1.18,2.65,1.83,3.95,10.01,18.74,29.68,32.61,51.09,34.02,7.77.51,15.68-.85,22.94-3.94-7.04,3.65-15.05,5.38-22.99,5.19-20.03-.6-39.18-12.33-49.82-29.17-1.83-2.99-3.43-6.13-4.66-9.42-.2-.46-.4-.93.26-1.69h0Z"/>
                  <path class="cls-7" d="M428.27,319.86c5.64,6.76,19.44,3.58,17.22-6.56,1.13,1.95,1.44,4.58.38,6.85-3.02,6.79-15.04,6.9-17.61-.29h0Z"/>
                </g>
              </g>
            </g>
          </g>
        </g>
      </g>
      <g>
        <circle class="cls-7" cx="513.43" cy="72.46" r="4.79"/>
        <path class="cls-7" d="M477.04,63.85c0,2.65,2.15,4.79,4.79,4.79s4.79-2.15,4.79-4.79-2.15-4.79-4.79-4.79-4.79,2.15-4.79,4.79Z"/>
        <circle class="cls-7" cx="453.53" cy="78.22" r="4.79"/>
        <circle class="cls-7" cx="438.93" cy="102.03" r="4.79"/>
        <circle class="cls-7" cx="408.38" cy="103.16" r="4.79"/>
        <path class="cls-7" d="M377.31,114.16c0,2.65,2.15,4.79,4.79,4.79s4.79-2.15,4.79-4.79-2.15-4.79-4.79-4.79-4.79,2.15-4.79,4.79Z"/>
        <circle class="cls-7" cx="374.69" cy="153.02" r="4.79"/>
        <circle class="cls-7" cx="343.69" cy="169.42" r="4.79"/>
        <path class="cls-7" d="M341.37,206.26c0,2.65,2.15,4.79,4.79,4.79s4.79-2.15,4.79-4.79-2.15-4.79-4.79-4.79-4.79,2.15-4.79,4.79Z"/>
        <circle class="cls-7" cx="336.73" cy="240.18" r="4.79"/>
        <circle class="cls-7" cx="337.85" cy="276.78" r="4.79"/>
        <path class="cls-7" d="M320.71,308.91c0,2.65,2.15,4.79,4.79,4.79s4.79-2.15,4.79-4.79-2.15-4.79-4.79-4.79-4.79,2.15-4.79,4.79Z"/>
        <circle class="cls-7" cx="304.16" cy="331.14" r="4.79"/>
        <path class="cls-7" d="M311.27,354.28c0,2.65,2.15,4.79,4.79,4.79s4.79-2.15,4.79-4.79-2.15-4.79-4.79-4.79-4.79,2.15-4.79,4.79Z"/>
        <circle class="cls-7" cx="290.68" cy="361.02" r="4.79"/>
        <path class="cls-7" d="M255.12,372.25c0,2.65,2.15,4.79,4.79,4.79s4.79-2.15,4.79-4.79-2.15-4.79-4.79-4.79-4.79,2.15-4.79,4.79Z"/>
        <circle class="cls-7" cx="245.53" cy="343.72" r="4.79"/>
        <path class="cls-7" d="M216.93,389.55c0,2.65,2.15,4.79,4.79,4.79s4.79-2.15,4.79-4.79-2.15-4.79-4.79-4.79-4.79,2.15-4.79,4.79Z"/>
        <circle class="cls-7" cx="219.93" cy="341.25" r="4.79"/>
        <path class="cls-7" d="M196.72,303.29c0,2.65,2.15,4.79,4.79,4.79s4.79-2.15,4.79-4.79-2.15-4.79-4.79-4.79-4.79,2.15-4.79,4.79Z"/>
        <path class="cls-7" d="M178.52,327.1c0,2.65,2.15,4.79,4.79,4.79s4.79-2.15,4.79-4.79-2.15-4.79-4.79-4.79-4.79,2.15-4.79,4.79Z"/>
        <path class="cls-7" d="M176.73,364.84c0,2.65,2.15,4.79,4.79,4.79s4.79-2.15,4.79-4.79-2.15-4.79-4.79-4.79-4.79,2.15-4.79,4.79Z"/>
        <circle class="cls-7" cx="190.73" cy="420.32" r="4.79"/>
        <circle class="cls-7" cx="169.84" cy="390" r="4.79"/>
        <path class="cls-7" d="M156.51,420.77c0,2.65,2.15,4.79,4.79,4.79s4.79-2.15,4.79-4.79-2.15-4.79-4.79-4.79-4.79,2.15-4.79,4.79Z"/>
        <circle class="cls-7" cx="167.59" cy="450.87" r="4.79"/>
        <path class="cls-7" d="M151.79,477.37c0,2.65,2.15,4.79,4.79,4.79s4.79-2.15,4.79-4.79-2.15-4.79-4.79-4.79-4.79,2.15-4.79,4.79Z"/>
        <circle class="cls-7" cx="183.99" cy="479.39" r="4.79"/>
        <path class="cls-7" d="M149.77,513.76c0,2.65,2.15,4.79,4.79,4.79s4.79-2.15,4.79-4.79-2.15-4.79-4.79-4.79-4.79,2.15-4.79,4.79Z"/>
        <circle class="cls-7" cx="179.72" cy="536.22" r="4.79"/>
        <circle class="cls-7" cx="214.54" cy="529.48" r="4.79"/>
        <circle class="cls-7" cx="254.52" cy="578" r="4.79"/>
        <circle class="cls-7" cx="307.98" cy="603.61" r="4.79"/>
        <path class="cls-7" d="M332.39,629.22c0,2.65,2.15,4.79,4.79,4.79s4.79-2.15,4.79-4.79-2.15-4.79-4.79-4.79-4.79,2.15-4.79,4.79Z"/>
        <path class="cls-7" d="M380.01,631.91c0,2.65,2.15,4.79,4.79,4.79s4.79-2.15,4.79-4.79-2.15-4.79-4.79-4.79-4.79,2.15-4.79,4.79Z"/>
        <circle class="cls-7" cx="411.75" cy="610.35" r="4.79"/>
        <path class="cls-7" d="M446.49,600.02c0,2.65,2.15,4.79,4.79,4.79s4.79-2.15,4.79-4.79-2.15-4.79-4.79-4.79-4.79,2.15-4.79,4.79Z"/>
        <path class="cls-7" d="M484.68,584.74c0,2.65,2.15,4.79,4.79,4.79s4.79-2.15,4.79-4.79-2.15-4.79-4.79-4.79-4.79,2.15-4.79,4.79Z"/>
        <path class="cls-7" d="M523.31,553.74c0,2.65,2.15,4.79,4.79,4.79s4.79-2.15,4.79-4.79-2.15-4.79-4.79-4.79-4.79,2.15-4.79,4.79Z"/>
        <path class="cls-7" d="M546.23,511.07c0,2.65,2.15,4.79,4.79,4.79s4.79-2.15,4.79-4.79-2.15-4.79-4.79-4.79-4.79,2.15-4.79,4.79Z"/>
        <path class="cls-7" d="M568.69,472.88c0,2.65,2.15,4.79,4.79,4.79s4.79-2.15,4.79-4.79-2.15-4.79-4.79-4.79-4.79,2.15-4.79,4.79Z"/>
        <path class="cls-7" d="M570.04,429.45c0,2.65,2.15,4.79,4.79,4.79s4.79-2.15,4.79-4.79-2.15-4.79-4.79-4.79-4.79,2.15-4.79,4.79Z"/>
        <path class="cls-7" d="M545.78,389.62c0,2.65,2.15,4.79,4.79,4.79s4.79-2.15,4.79-4.79-2.15-4.79-4.79-4.79-4.79,2.15-4.79,4.79Z"/>
        <path class="cls-7" d="M558.35,371.5c0,2.65,2.15,4.79,4.79,4.79s4.79-2.15,4.79-4.79-2.15-4.79-4.79-4.79-4.79,2.15-4.79,4.79Z"/>
        <path class="cls-7" d="M546.23,350.69c0,2.65,2.15,4.79,4.79,4.79s4.79-2.15,4.79-4.79-2.15-4.79-4.79-4.79-4.79,2.15-4.79,4.79Z"/>
        <path class="cls-7" d="M568.69,339.46c0,2.65,2.15,4.79,4.79,4.79s4.79-2.15,4.79-4.79-2.15-4.79-4.79-4.79-4.79,2.15-4.79,4.79Z"/>
        <path class="cls-7" d="M546.23,319.24c0,2.65,2.15,4.79,4.79,4.79s4.79-2.15,4.79-4.79-2.15-4.79-4.79-4.79-4.79,2.15-4.79,4.79Z"/>
        <circle class="cls-7" cx="532.6" cy="293.63" r="4.79"/>
        <path class="cls-7" d="M519.27,236.58c0,2.65,2.15,4.79,4.79,4.79s4.79-2.15,4.79-4.79-2.15-4.79-4.79-4.79-4.79,2.15-4.79,4.79Z"/>
        <circle class="cls-7" cx="512.83" cy="206.48" r="4.79"/>
        <path class="cls-7" d="M521.52,163.35c0,2.65,2.15,4.79,4.79,4.79s4.79-2.15,4.79-4.79-2.15-4.79-4.79-4.79-4.79,2.15-4.79,4.79Z"/>
        <path class="cls-7" d="M529.6,122.47c0,2.65,2.15,4.79,4.79,4.79s4.79-2.15,4.79-4.79-2.15-4.79-4.79-4.79-4.79,2.15-4.79,4.79Z"/>
        <circle class="cls-7" cx="494.86" cy="187.61" r="4.79"/>
      </g>
      <g>
        <text class="cls-6" transform="translate(509.16 61.21)"><tspan x="0" y="0">6</tspan></text>
        <text class="cls-6" transform="translate(478.57 53.05)"><tspan x="0" y="0">7</tspan></text>
        <text class="cls-6" transform="translate(450.44 66.3)"><tspan x="0" y="0">8</tspan></text>
        <text class="cls-6" transform="translate(435.78 90.34)"><tspan x="0" y="0">9</tspan></text>
        <text class="cls-6" transform="translate(402.98 92.58)"><tspan x="0" y="0">10</tspan></text>
        <text class="cls-6" transform="translate(377.3 103.81)"><tspan x="0" y="0">11</tspan></text>
        <text class="cls-6" transform="translate(369.83 143.12)"><tspan x="0" y="0">12</tspan></text>
        <text class="cls-6" transform="translate(338.82 158.84)"><tspan x="0" y="0">13</tspan></text>
        <text class="cls-6" transform="translate(341.1 195.01)"><tspan x="0" y="0">14</tspan></text>
        <text class="cls-6" transform="translate(331.41 229.6)"><tspan x="0" y="0">15</tspan></text>
        <text class="cls-6" transform="translate(332.53 266.66)"><tspan x="0" y="0">16</tspan></text>
        <text class="cls-6" transform="translate(320.73 298.33)"><tspan x="0" y="0">17</tspan></text>
        <text class="cls-6" transform="translate(299.11 320.57)"><tspan x="0" y="0">18</tspan></text>
        <text class="cls-6" transform="translate(310.51 344.15)"><tspan x="0" y="0">19</tspan></text>
        <text class="cls-6" transform="translate(284.33 350.22)"><tspan x="0" y="0">20</tspan></text>
        <text class="cls-6" transform="translate(254.61 362.12)"><tspan x="0" y="0">21</tspan></text>
        <text class="cls-6" transform="translate(239.73 333.6)"><tspan x="0" y="0">22</tspan></text>
        <text class="cls-6" transform="translate(215.91 379.42)"><tspan x="0" y="0">23</tspan></text>
        <text class="cls-6" transform="translate(213.92 331.13)"><tspan x="0" y="0">24</tspan></text>
        <text class="cls-6" transform="translate(195.69 293.17)"><tspan x="0" y="0">25</tspan></text>
        <text class="cls-6" transform="translate(177.27 316.98)"><tspan x="0" y="0">26</tspan></text>
        <text class="cls-6" transform="translate(176.03 354.71)"><tspan x="0" y="0">27</tspan></text>
        <text class="cls-6" transform="translate(184.73 410.19)"><tspan x="0" y="0">28</tspan></text>
        <text class="cls-6" transform="translate(163.78 379.87)"><tspan x="0" y="0">29</tspan></text>
        <text class="cls-6" transform="translate(154.94 410.64)"><tspan x="0" y="0">30</tspan></text>
        <text class="cls-6" transform="translate(162.3 440.74)"><tspan class="cls-9" x="0" y="0">3</tspan><tspan x="5.78" y="0">1</tspan></text>
        <text class="cls-6" transform="translate(150.77 467.25)"><tspan x="0" y="0">32</tspan></text>
        <text class="cls-6" transform="translate(178.16 469.27)"><tspan x="0" y="0">33</tspan></text>
        <text class="cls-6" transform="translate(148.54 503.63)"><tspan x="0" y="0">34</tspan></text>
        <text class="cls-6" transform="translate(173.89 526.1)"><tspan x="0" y="0">35</tspan></text>
        <text class="cls-6" transform="translate(208.5 519.36)"><tspan class="cls-9" x="0" y="0">3</tspan><tspan x="5.78" y="0">6</tspan></text>
        <text class="cls-6" transform="translate(249.01 567.88)"><tspan x="0" y="0">37</tspan></text>
        <text class="cls-6" transform="translate(301.97 593.48)"><tspan x="0" y="0">38</tspan></text>
        <text class="cls-6" transform="translate(331.13 619.09)"><tspan class="cls-9" x="0" y="0">3</tspan><tspan x="5.78" y="0">9</tspan></text>
        <text class="cls-6" transform="translate(378.26 621.79)"><tspan class="cls-9" x="0" y="0">4</tspan><tspan x="6.17" y="0">0</tspan></text>
        <text class="cls-6" transform="translate(406.47 600.22)"><tspan class="cls-14" x="0" y="0">4</tspan><tspan x="5.76" y="0">1</tspan></text>
        <text class="cls-6" transform="translate(445.27 589.89)"><tspan x="0" y="0">42</tspan></text>
        <text class="cls-6" transform="translate(483.45 574.61)"><tspan x="0" y="0">43</tspan></text>
        <text class="cls-6" transform="translate(521.89 543.62)"><tspan x="0" y="0">44</tspan></text>
        <text class="cls-6" transform="translate(558.67 515.22)"><tspan class="cls-15" x="0" y="0">4</tspan><tspan x="6.17" y="0">5</tspan></text>
        <text class="cls-6" transform="translate(567.28 462.75)"><tspan class="cls-13" x="0" y="0">4</tspan><tspan x="6.12" y="0">6</tspan></text>
        <text class="cls-6" transform="translate(569.13 419.33)"><tspan x="0" y="0">47</tspan></text>
        <text class="cls-6" transform="translate(544.36 379.5)"><tspan x="0" y="0">48</tspan></text>
        <text class="cls-6" transform="translate(557.03 361.38)"><tspan class="cls-8" x="0" y="0">4</tspan><tspan x="5.91" y="0">9</tspan></text>
        <text class="cls-6" transform="translate(544.67 340.56)"><tspan class="cls-15" x="0" y="0">5</tspan><tspan x="5.79" y="0">0</tspan></text>
        <text class="cls-6" transform="translate(568.29 329.33)"><tspan class="cls-11" x="0" y="0">5</tspan><tspan x="5.58" y="0">1</tspan></text>
        <text class="cls-6" transform="translate(545.22 309.11)"><tspan class="cls-15" x="0" y="0">5</tspan><tspan x="5.79" y="0">2</tspan></text>
        <text class="cls-6" transform="translate(533.59 283.51)"><tspan x="0" y="0">53</tspan></text>
        <text class="cls-6" transform="translate(521.66 226.46)"><tspan x="0" y="0">1</tspan></text>
        <text class="cls-6" transform="translate(509.93 196.36)"><tspan x="0" y="0">2</tspan></text>
        <text class="cls-6" transform="translate(523.2 153.23)"><tspan x="0" y="0">4</tspan></text>
        <text class="cls-6" transform="translate(531.48 112.35)"><tspan x="0" y="0">5</tspan></text>
        <text class="cls-6" transform="translate(491.95 177.49)"><tspan x="0" y="0">3</tspan></text>
      </g>
    </g>
  </g>
</svg>