<?xml version="1.0" encoding="UTF-8"?>
<svg xmlns="http://www.w3.org/2000/svg" width="800" height="800" version="1.1" viewBox="0 0 800 800">
  <defs>
    <style>
      .cls-1, .cls-2 {
        fill: #acd7dd;
      }

      .cls-3, .cls-4 {
        fill: #fff;
      }

      .cls-5 {
        letter-spacing: -.04em;
      }

      .cls-6 {
        fill: #e0a22f;
      }

      .cls-7 {
        fill: #595959;
      }

      .cls-4, .cls-8 {
        stroke: #595959;
        stroke-linecap: round;
        stroke-linejoin: round;
      }

      .cls-9 {
        font-family: Averta-Black, Averta;
        font-size: 10.45px;
        font-weight: 800;
      }

      .cls-2 {
        opacity: .33;
      }

      .cls-10 {
        fill: #ce902c;
      }

      .cls-11 {
        fill: #ffbb5c;
      }

      .cls-8 {
        fill: none;
      }

      .cls-12 {
        letter-spacing: 0em;
      }

      .cls-13 {
        fill: #ffde5c;
      }
    </style>
  </defs>
  <!-- Generator: Adobe Illustrator 28.7.3, SVG Export Plug-In . SVG Version: 1.2.0 Build 164)  -->
  <g>
    <g id="Camada_1">
      <g>
        <path class="cls-4" d="M512.79,197.76c-4.41,3.21-7.23,8.38-7.93,13.79-.31,2.39-.22,4.85.54,7.13,1.71,5.1,6.78,8.65,12.11,9.34,5.33.69,10.78-1.18,15.14-4.32,0,7.81,3.99,15.19,11.54,17.2,12.55,3.35,23.38-6.62,23.88-10.62,2.35,11.06,15.85,11.29,20.9,9.47,6.66-2.41,10.02-9.4,9.2-13.67,3.78,2.61,9.25,1.97,12.82-.92,3.57-2.89,5.35-7.61,5.37-12.21,0-1.49-.19-2.98-.69-4.38-4.57-12.78-21.58-10.02-21.58-10.02,0,0,2.55-9-5.57-17.66-6.88-7.33-31.63-9.55-35.76,6.83-1.48-4.8-5.76-7.94-10.13-8.74-9.95-1.84-18.34,7.39-16.33,15.72-5.03-.08-9.21-.09-13.52,3.05Z"/>
        <path class="cls-4" d="M541.94,187.48c-1.58.16-3.01.94-4.29,1.82-1.49,1.01-2.86,2.17-4.09,3.45-.96,1-1.84,2.12-2.19,3.41-.35,1.3-.07,2.82,1.02,3.69.9.72,2.16.9,3.35.87,3.76-.09,7.33-1.97,9.75-4.65.57-.63,1.09-1.31,1.47-2.06.71-1.39,1.32-4.42.15-5.8-1.06-1.24-3.51-.91-5.16-.74Z"/>
      </g>
      <g>
        <path class="cls-1" d="M144.76,369.18c0,1.81-1.46,3.27-3.27,3.27s-3.27-1.46-3.27-3.27,1.46-3.27,3.27-3.27,3.27,1.46,3.27,3.27Z"/>
        <path class="cls-1" d="M152.75,383.69c0,1.81-1.46,3.27-3.27,3.27s-3.27-1.46-3.27-3.27,1.46-3.27,3.27-3.27,3.27,1.46,3.27,3.27Z"/>
        <path class="cls-1" d="M170.23,384.95c0,1.81-1.46,3.27-3.27,3.27s-3.27-1.46-3.27-3.27,1.46-3.27,3.27-3.27,3.27,1.46,3.27,3.27Z"/>
        <path class="cls-1" d="M181.47,373.79c0,1.81-1.46,3.27-3.27,3.27s-3.27-1.46-3.27-3.27,1.46-3.27,3.27-3.27,3.27,1.46,3.27,3.27Z"/>
        <path class="cls-1" d="M200.82,383.69c0,1.81-1.46,3.27-3.27,3.27s-3.27-1.46-3.27-3.27,1.46-3.27,3.27-3.27,3.27,1.46,3.27,3.27Z"/>
        <path class="cls-1" d="M211.43,369.18c0,1.81-1.46,3.27-3.27,3.27s-3.27-1.46-3.27-3.27,1.46-3.27,3.27-3.27,3.27,1.46,3.27,3.27Z"/>
        <path class="cls-1" d="M226.07,349.18c0,1.81-1.46,3.27-3.27,3.27s-3.27-1.46-3.27-3.27,1.46-3.27,3.27-3.27,3.27,1.46,3.27,3.27Z"/>
        <path class="cls-1" d="M226.74,366.56c0,1.81-1.46,3.27-3.27,3.27s-3.27-1.46-3.27-3.27,1.46-3.27,3.27-3.27,3.27,1.46,3.27,3.27Z"/>
        <path class="cls-1" d="M208.16,342.65c0,1.81-1.46,3.27-3.27,3.27s-3.27-1.46-3.27-3.27,1.46-3.27,3.27-3.27,3.27,1.46,3.27,3.27Z"/>
        <path class="cls-1" d="M180.59,320.48c0,1.81-1.46,3.27-3.27,3.27s-3.27-1.46-3.27-3.27,1.46-3.27,3.27-3.27,3.27,1.46,3.27,3.27Z"/>
        <path class="cls-1" d="M198.62,323.74c0,1.81-1.46,3.27-3.27,3.27s-3.27-1.46-3.27-3.27,1.46-3.27,3.27-3.27,3.27,1.46,3.27,3.27Z"/>
        <path class="cls-1" d="M165.23,330.28c0,1.81-1.46,3.27-3.27,3.27s-3.27-1.46-3.27-3.27,1.46-3.27,3.27-3.27,3.27,1.46,3.27,3.27Z"/>
        <path class="cls-1" d="M147.04,323.74c0,1.81-1.46,3.27-3.27,3.27s-3.27-1.46-3.27-3.27,1.46-3.27,3.27-3.27,3.27,1.46,3.27,3.27Z"/>
        <path class="cls-1" d="M139.05,337.61c0,1.81-1.46,3.27-3.27,3.27s-3.27-1.46-3.27-3.27,1.46-3.27,3.27-3.27,3.27,1.46,3.27,3.27Z"/>
        <path class="cls-1" d="M119.97,349.18c0,1.81-1.46,3.27-3.27,3.27s-3.27-1.46-3.27-3.27,1.46-3.27,3.27-3.27,3.27,1.46,3.27,3.27Z"/>
        <path class="cls-1" d="M120.94,368.21c0,1.81-1.46,3.27-3.27,3.27s-3.27-1.46-3.27-3.27,1.46-3.27,3.27-3.27,3.27,1.46,3.27,3.27Z"/>
        <text class="cls-9" transform="translate(98.33 351.92)"><tspan x="0" y="0">1</tspan></text>
        <text class="cls-9" transform="translate(104.8 377.06)"><tspan x="0" y="0">2</tspan></text>
        <text class="cls-9" transform="translate(129.58 383.69)"><tspan x="0" y="0">3</tspan></text>
        <text class="cls-9" transform="translate(143.77 399.31)"><tspan x="0" y="0">4</tspan></text>
        <text class="cls-9" transform="translate(163.69 404.08)"><tspan x="0" y="0">5</tspan></text>
        <text class="cls-9" transform="translate(178.2 389.1)"><tspan x="0" y="0">6</tspan></text>
        <text class="cls-9" transform="translate(197.55 400.19)"><tspan x="0" y="0">7</tspan></text>
        <text class="cls-9" transform="translate(211.43 381.68)"><tspan x="0" y="0">8</tspan></text>
        <text class="cls-9" transform="translate(232.31 372.45)"><tspan x="0" y="0">9</tspan></text>
        <text class="cls-9" transform="translate(229.15 352.45)"><tspan x="0" y="0">10</tspan></text>
        <text class="cls-9" transform="translate(209.6 336.61)"><tspan x="0" y="0">11</tspan></text>
        <text class="cls-9" transform="translate(194.61 317.21)"><tspan x="0" y="0">12</tspan></text>
        <text class="cls-9" transform="translate(172.72 314.56)"><tspan x="0" y="0">13</tspan></text>
        <text class="cls-9" transform="translate(152.75 321.59)"><tspan x="0" y="0">14</tspan></text>
        <text class="cls-9" transform="translate(132.51 317.2)"><tspan x="0" y="0">15</tspan></text>
        <text class="cls-9" transform="translate(118.3 331.46)"><tspan x="0" y="0">16</tspan></text>
      </g>
      <g>
        <path class="cls-4" d="M449.19,98.9c-1.95.22-3.71,1.25-5.29,2.41-1.84,1.34-3.53,2.88-5.04,4.58-1.18,1.33-2.27,2.81-2.71,4.53-.43,1.72-.08,3.74,1.26,4.9,1.1.96,2.66,1.19,4.13,1.15,4.64-.12,9.03-2.61,12.02-6.17.71-.84,1.34-1.74,1.81-2.73.88-1.84,1.63-5.87.18-7.7-1.3-1.64-4.33-1.21-6.36-.98Z"/>
        <path class="cls-1" d="M430.16,121.53c0,1.81-1.46,3.27-3.27,3.27s-3.27-1.46-3.27-3.27,1.46-3.27,3.27-3.27,3.27,1.46,3.27,3.27Z"/>
        <path class="cls-1" d="M413.03,128.3c0,1.81-1.46,3.27-3.27,3.27s-3.27-1.46-3.27-3.27,1.46-3.27,3.27-3.27,3.27,1.46,3.27,3.27Z"/>
        <path class="cls-1" d="M411.02,145.4c0,1.81-1.46,3.27-3.27,3.27s-3.27-1.46-3.27-3.27,1.46-3.27,3.27-3.27,3.27,1.46,3.27,3.27Z"/>
        <path class="cls-1" d="M423.74,154.69c0,1.81-1.46,3.27-3.27,3.27s-3.27-1.46-3.27-3.27,1.46-3.27,3.27-3.27,3.27,1.46,3.27,3.27Z"/>
        <path class="cls-1" d="M440.42,150.57c0,1.81-1.46,3.27-3.27,3.27s-3.27-1.46-3.27-3.27,1.46-3.27,3.27-3.27,3.27,1.46,3.27,3.27Z"/>
        <path class="cls-1" d="M445.24,166.95c0,1.81-1.46,3.27-3.27,3.27s-3.27-1.46-3.27-3.27,1.46-3.27,3.27-3.27,3.27,1.46,3.27,3.27Z"/>
        <path class="cls-1" d="M460.33,175.88c0,1.81-1.46,3.27-3.27,3.27s-3.27-1.46-3.27-3.27,1.46-3.27,3.27-3.27,3.27,1.46,3.27,3.27Z"/>
        <path class="cls-1" d="M477.07,172.27c0,1.81-1.46,3.27-3.27,3.27s-3.27-1.46-3.27-3.27,1.46-3.27,3.27-3.27,3.27,1.46,3.27,3.27Z"/>
        <path class="cls-1" d="M490.79,159.5c0,1.81-1.46,3.27-3.27,3.27s-3.27-1.46-3.27-3.27,1.46-3.27,3.27-3.27,3.27,1.46,3.27,3.27Z"/>
        <path class="cls-1" d="M501.8,172.61c0,1.81-1.46,3.27-3.27,3.27s-3.27-1.46-3.27-3.27,1.46-3.27,3.27-3.27,3.27,1.46,3.27,3.27Z"/>
        <path class="cls-1" d="M521.56,172.27c0,1.81-1.46,3.27-3.27,3.27s-3.27-1.46-3.27-3.27,1.46-3.27,3.27-3.27,3.27,1.46,3.27,3.27Z"/>
        <path class="cls-1" d="M532.81,154.39c0,1.81-1.46,3.27-3.27,3.27s-3.27-1.46-3.27-3.27,1.46-3.27,3.27-3.27,3.27,1.46,3.27,3.27Z"/>
        <path class="cls-1" d="M555.35,146.75c0,1.81-1.46,3.27-3.27,3.27s-3.27-1.46-3.27-3.27,1.46-3.27,3.27-3.27,3.27,1.46,3.27,3.27Z"/>
        <path class="cls-1" d="M551.4,120.81c0,1.81-1.46,3.27-3.27,3.27s-3.27-1.46-3.27-3.27,1.46-3.27,3.27-3.27,3.27,1.46,3.27,3.27Z"/>
        <path class="cls-1" d="M526.87,114.27c0,1.81-1.46,3.27-3.27,3.27s-3.27-1.46-3.27-3.27,1.46-3.27,3.27-3.27,3.27,1.46,3.27,3.27Z"/>
        <path class="cls-1" d="M518.59,93.09c0,1.81-1.46,3.27-3.27,3.27s-3.27-1.46-3.27-3.27,1.46-3.27,3.27-3.27,3.27,1.46,3.27,3.27Z"/>
        <path class="cls-1" d="M497.33,90.84c0,1.81-1.46,3.27-3.27,3.27s-3.27-1.46-3.27-3.27,1.46-3.27,3.27-3.27,3.27,1.46,3.27,3.27Z"/>
        <path class="cls-1" d="M482.4,105.85c0,1.81-1.46,3.27-3.27,3.27s-3.27-1.46-3.27-3.27,1.46-3.27,3.27-3.27,3.27,1.46,3.27,3.27Z"/>
        <path class="cls-1" d="M463.6,90.84c0,1.81-1.46,3.27-3.27,3.27s-3.27-1.46-3.27-3.27,1.46-3.27,3.27-3.27,3.27,1.46,3.27,3.27Z"/>
        <path class="cls-1" d="M435.12,96.36c0,1.81-1.46,3.27-3.27,3.27s-3.27-1.46-3.27-3.27,1.46-3.27,3.27-3.27,3.27,1.46,3.27,3.27Z"/>
        <text class="cls-9" transform="translate(396.63 130.58)"><tspan x="0" y="0">1</tspan></text>
        <text class="cls-9" transform="translate(394.29 151.12)"><tspan x="0" y="0">2</tspan></text>
        <text class="cls-9" transform="translate(409.76 164.16)"><tspan x="0" y="0">3</tspan></text>
        <text class="cls-9" transform="translate(428.58 164.16)"><tspan x="0" y="0">4</tspan></text>
        <text class="cls-9" transform="translate(430.16 180.98)"><tspan x="0" y="0">5</tspan></text>
        <text class="cls-9" transform="translate(448.79 189.42)"><tspan x="0" y="0">6</tspan></text>
        <text class="cls-9" transform="translate(469.14 187.9)"><tspan x="0" y="0">7</tspan></text>
        <text class="cls-9" transform="translate(482.4 174.72)"><tspan x="0" y="0">8</tspan></text>
        <text class="cls-9" transform="translate(490.79 189.43)"><tspan x="0" y="0">9</tspan></text>
        <text class="cls-9" transform="translate(508.12 187.31)"><tspan x="0" y="0">10</tspan></text>
        <text class="cls-9" transform="translate(531.23 169)"><tspan x="0" y="0">11</tspan></text>
        <text class="cls-9" transform="translate(558.31 153.47)"><tspan x="0" y="0">12</tspan></text>
        <text class="cls-9" transform="translate(555.35 118.26)"><tspan x="0" y="0">13</tspan></text>
        <text class="cls-9" transform="translate(529.54 112.78)"><tspan x="0" y="0">14</tspan></text>
        <text class="cls-9" transform="translate(519.28 87.57)"><tspan x="0" y="0">15</tspan></text>
        <text class="cls-9" transform="translate(487.8 81.94)"><tspan x="0" y="0">16</tspan></text>
        <text class="cls-9" transform="translate(472.79 98.67)"><tspan x="0" y="0">17</tspan></text>
        <text class="cls-9" transform="translate(455.65 83.6)"><tspan x="0" y="0">18</tspan></text>
        <text class="cls-9" transform="translate(425.69 90.79)"><tspan x="0" y="0">19</tspan></text>
        <text class="cls-9" transform="translate(414.45 114.27)"><tspan x="0" y="0">20</tspan></text>
      </g>
      <g>
        <ellipse class="cls-2" cx="457.93" cy="701.22" rx="191.76" ry="27.78"/>
        <g>
          <path class="cls-4" d="M305.71,136.55c2.26-7.89,4.28-15.89,6.03-23.98,1.45-6.67,3.01-13.94,7.49-18.13,1.44-1.35,3.26-2.32,5.05-1.95,2.74.57,4.45,3.99,5.12,7.28,1.22,5.92.29,12.15-.76,18.12-1.34,7.65-2.85,15.26-4.55,22.8"/>
          <path class="cls-4" d="M271.97,149.08c-1.36-10.37-3.16-20.73-5.39-31.05-1.45-6.67-3.04-13.93-.7-19.61.75-1.83,2-3.46,3.79-3.87,2.72-.62,5.7,1.79,7.68,4.5,3.57,4.88,5.3,10.94,6.83,16.81,1.67,6.44,3.22,12.9,4.62,19.38"/>
          <path class="cls-4" d="M322.98,81.96c-5.85-.38-11.2,2.99-14.4,7.02-1.16,1.45-2.13,3.02-2.63,4.71-.97,3.28-.05,6.86,2.23,9.68,2.28,2.82,5.84,4.88,9.76,5.94,7.24,1.95,16.31-.04,19.97-5.51,2.29-3.42,2.22-7.66.62-11.33-2.48-5.71-9.26-10.1-15.55-10.5Z"/>
          <path class="cls-4" d="M267.29,85.66c-5.76,1.08-10.14,5.59-12.28,10.18-.77,1.66-1.34,3.38-1.42,5.1-.16,3.35,1.6,6.51,4.48,8.62,2.88,2.11,6.83,3.18,10.89,3.22,7.49.06,15.8-4.05,18.04-10.12,1.4-3.8.31-7.79-2.12-10.87-3.77-4.79-11.4-7.28-17.6-6.11Z"/>
          <path class="cls-4" d="M333.14,144.29c.36-1.67.61-3.37.98-5.04.65-2.89,1.76-5.82,4.07-7.58,1.5-1.14,3.86-1.62,5.36-.26,1.27,1.15,1.35,3.05,1.27,4.69-.11,2.3-.35,4.59-.71,6.85,1.93-2.16,4.01-4.42,6.87-5.13,2.86-.72,6.67.86,7.28,3.85.47,2.27-.99,4.3-2.37,6.02-2.35,2.92-4.53,5.64-6.88,8.57"/>
          <path class="cls-8" d="M359.21,200.87c8.17-.37,16.23-3.37,22.45-8.63,6.71-5.67,11.16-13.82,12.5-22.45.72-4.63-1.63-9.22-5.9-11.25-3.72-1.77-7.54-3.27-11.58-4.05-8.66-1.68-17.8.52-25.11,5.36-2.11-3.28-4.65-6.06-7.64-8.82-14.81-13.66-86.43-36.77-125.69,26.48"/>
          <path class="cls-8" d="M411.42,446.77"/>
          <path class="cls-4" d="M312.69,675.61c.05.72.11,1.45.19,2.19.24,2.65-.29,5.43.86,7.95,3.24,7.15,14.67,9.13,24.25,10.04,5.81.56,12.34.96,16.83-1.98,4.18-2.76,5.09-7.44,5.7-11.7.43-2.92.83-5.7,1.23-8.4,2.68-18.17,5.03-32.01,7.49-47.48,1.95.19,3.88.35,5.78.48,1.18.08,2.38.16,3.56.21,2.84,16.41,4.87,31.55,5.89,47.77.16,2.76.32,5.57.43,8.4.11,2.68.21,5.43,1.58,7.84,3.93,6.8,15.47,7.71,25.1,7.71,5.83,0,12.39-.24,16.57-3.59,3.91-3.13,4.36-7.9,4.58-12.18.16-3.26.29-6.4.43-9.39.78-17.18,1.23-30.59,1.79-45.2,8-.13,16-.43,23.98-.86.91,16.41,1.18,31.66.48,47.99-.08,1.9-.19,3.8-.29,5.73-.16,2.68-.32,5.43.83,7.95,3.27,7.15,14.69,9.15,24.27,10.06,5.81.54,12.34.94,16.81-2.01,4.2-2.76,5.09-7.44,5.7-11.7.59-4.15,1.18-8.06,1.77-11.78,2.92-19.56,5.46-34.26,8.3-52.16,1.26-.19,2.49-.4,3.75-.59.78,25.08,1.12,36.93,1.77,53.93.13,3.56.27,7.39.43,11.59.11,2.68.21,5.43,1.58,7.84,3.93,6.8,15.47,7.71,25.1,7.71,5.83,0,12.39-.21,16.57-3.59,3.16-2.52,5.59-10.49,7.95-24.6"/>
          <path class="cls-4" d="M358.36,198.74c13.23-5.57,28.01-1.4,30.41,15.16.94,6.52-2.46,15.26-6.11,20.75,5.79,3.27,9.77,9.54,10.26,16.18.49,6.63-2.52,13.42-7.77,17.51,5.96,1.58,10.12,7.68,10.29,13.85.17,6.16-3.2,12.1-8.05,15.91,6.04.8,10.61,6.63,11.21,12.69.6,6.06-2.15,12.07-6.13,16.68,6.67.98,11.95,7.13,12.81,13.82.85,6.69-2.28,13.53-7.29,18.04,6.04.77,11.44,5.32,13.22,11.15,1.78,5.83-.14,12.62-4.72,16.64,5.71-.31,11.41,3.41,13.44,8.76,2.02,5.35.21,11.91-4.27,15.46,8.72.18,16.57,8.06,16.72,16.78.15,8.72-9.44,18.2-18.15,18.67"/>
          <path class="cls-7" d="M261.15,199.74c-10.82,1.74-14.6,21.09-2.5,23.65,20.72,3.4,16.86-24.82,2.5-23.65Z"/>
          <path class="cls-6" d="M202.77,236.42c-1.55,1.18-2.07,2.96-2.41,4.65-.42,2.11-.64,4.34.37,6.32,1.03,2.04,3.38,3.62,6.09,4.11,2.71.49,5.69-.14,7.74-1.62,2.8-2.03,3.1-5.33,2.71-8.32-1.14-8.8-12.2-6.89-14.5-5.14Z"/>
          <path class="cls-11" d="M246.83,252.78c-3.54,5.19-8.35,9.11-14.6,10.23-6.33,1.14-13.04-1.06-17.7-5.48-2.29-2.17-5.73,1.29-3.45,3.5,5.84,5.68,13.97,8.33,21.97,7.03,7.24-1.17,14.6-6.07,17.82-12.89,1.3-2.76-2.32-4.92-4.04-2.4Z"/>
          <path class="cls-11" d="M296.64,212.1c-4.67-.96-9.69-.28-14,1.75-4.31,2.03-7.87,6-8.58,10.71-.76,5.09,2,10.33,6.22,13.27,4.23,2.94,9.68,3.76,14.78,3.03,2.01-.29,3.96-.94,5.67-2.04,14.55-9.43,5.23-24.8-4.1-26.71Z"/>
          <path class="cls-4" d="M307.42,288.67c.25,8.49.93,16.97,2.03,25.39.41,3.11.94,6.38,2.9,8.83,3.29,4.13,9.39,4.58,14.61,3.79,3.33-.5,6.74-1.42,9.31-3.6,3.39-2.85,4.83-7.5,4.81-11.93-.02-4.43-1.32-8.74-2.62-12.97-.84-2.74-1.67-5.49-2.51-8.23-1.28-4.18-2.79-8.7-6.43-11.12-3.84-2.57-8.99-2.03-13.35-.5-2.54.89-5.05,2.14-6.82,4.17s-2.68,4.97-1.95,6.16Z"/>
          <path class="cls-4" d="M313.99,335.97c8.1.9,16.51,2.42,23.16,7.14.97.69,1.91,1.48,2.4,2.57.46,1.03.45,2.2.36,3.32-.43,5.75-2.56,11.35-6.05,15.94-.74.97-1.57,1.92-2.65,2.49-1.04.54-2.24.69-3.42.76-4.1.22-8.25-.49-12.03-2.07-1.71-.71-3.4-1.64-4.54-3.1-1.6-2.04-1.88-4.79-2.07-7.38-.4-5.25-.68-10.51-.84-15.78-.03-.88-.04-1.81.38-2.58,1.08-2,3.61-1.79,5.31-1.29Z"/>
          <path class="cls-4" d="M346.23,366.32c-1.71,3.98-3.05,8.11-4,12.34-.43,1.92-.78,3.89-.55,5.83.49,3.98,3.41,7.32,6.88,9.33,3.46,2.01,7.45,2.91,11.36,3.78,2.81.62,6.2,1.09,8.17-1.01,1.61-1.71,1.5-4.37,1.23-6.7-.77-6.73-2.03-13.4-3.76-19.95-.64-2.43-1.36-4.88-2.7-7-1.34-2.12-3.4-3.91-5.87-4.39-2.62-.51-5.39.54-7.38,2.33-1.99,1.79-2.91,4.33-3.38,5.44Z"/>
          <path class="cls-4" d="M350.11,405.75c-5.15-3.62-10.77-6.57-16.69-8.72-1.36-.5-2.77-.96-4.22-.99-3.07-.06-5.85,1.84-7.92,4.11-2.07,2.26-3.64,4.95-5.72,7.21-1.05,1.15-2.26,2.22-2.85,3.66-.59,1.42-.49,3.02-.39,4.56l1.32,19.76c.29,4.27.85,9.1,4.27,11.68,1.9,1.43,4.34,1.88,6.68,2.24,4.41.69,8.84,1.24,13.29,1.65,4.86.45,10.16.63,14.15-2.18,2.35-1.65,3.93-4.15,5.46-6.58,3.51-5.59,7.14-11.59,7.03-18.19-.15-8.83-8.41-13.97-14.41-18.2Z"/>
          <path class="cls-4" d="M377.86,429.65c-1.38,5.38-5.65,9.83-6.2,15.35-.64,6.39,3.82,12.04,8.01,16.9,2.33,2.71,4.76,5.48,7.97,7.04,6.59,3.2,15.58-.42,18.11-7.29.55-1.51.83-3.15.5-4.72-.28-1.33-.98-2.53-1.68-3.69-4.92-8.23-10.29-16.33-17.38-22.79-1.6-1.46-3.44-2.89-5.6-3.02-2.16-.13-3.14.89-3.73,2.22Z"/>
          <path class="cls-4" d="M353.51,457.95c-4.81,2.22-9.97,4.77-12.53,9.87-1.94,3.85-2.04,8.5-1.88,12.92.24,6.81.99,13.6,2.22,20.28.65,3.53,1.51,7.18,3.62,9.89,4.59,5.87,12.77,4.99,19.61,3.62,5.21-1.05,10.83-2.34,14.32-6.81,3.14-4.01,3.85-9.94,2.62-15.1-2.31-9.67-13.6-23.21-14.68-25.71-2.51-5.82-8.79-11.03-13.28-8.95Z"/>
          <path class="cls-4" d="M335.09,521.5c-5.35.15-10.37,4.1-11.77,9.26-1.52,5.6.94,11.43,3.35,16.71.69,1.51,1.41,3.07,2.69,4.12,1.82,1.5,4.47,1.68,6.71.94,2.24-.74,4.13-2.26,5.83-3.9,2.36-2.28,4.51-4.99,5.17-8.2.63-3.08-.18-6.27-1.23-9.23-.87-2.46-1.96-4.92-3.81-6.75-1.86-1.83-4.63-2.92-6.94-2.95Z"/>
          <path class="cls-4" d="M316.65,562.86c-1.18,5.72-1.05,11.71.37,17.37.34,1.35.81,2.77,1.91,3.62,2.05,1.58,5.09.38,7.01-1.35,5.31-4.78,6.54-13.48,2.76-19.55-1.58-2.55-4.24-4.73-7.24-4.6-3,.13-4.44,2.87-4.81,4.5Z"/>
          <path class="cls-4" d="M328.79,474.64c-.55-2.12-2.19-3.81-4.3-4.4-2.16-.61-4.38-1.03-6.61-1.27-1.14-.12-2.37-.17-3.34.43-1.25.77-1.69,2.36-1.9,3.82-.74,5.23.24,10.57.87,15.77.23,1.9.93,3.75,2.21,5.18,3.6,4.04,8.43,1.78,12.26-.42.71-.41,1.46-.85,1.85-1.56.32-.58.37-1.26.41-1.91.28-5.32-.16-10.68-1.45-15.64Z"/>
          <path class="cls-4" d="M420.52,469.81c-5.74,5.89-11.15,12.1-16.21,18.59-3.36,4.31-6.73,9.7-4.98,14.87,1.83,5.4,8.27,7.62,11.77,12.12,1.8,2.31,2.78,5.19,4.67,7.43,3.64,4.31,10.06,5.4,15.54,4.05,5.48-1.35,10.22-4.71,14.69-8.14,9.3-7.13,18.13-14.88,26.41-23.18,2.81-2.82,5.63-5.81,7.1-9.52,1.47-3.71,1.3-8.33-1.42-11.24-2.54-2.71-6.54-3.33-10.22-3.79-9.02-1.13-18.04-2.26-27.07-3.39-8.17-1.02-16.67-1.51-20.28,2.2Z"/>
          <path class="cls-4" d="M376.95,530.18c-.5,1.34-.93,2.75-.89,4.18.04,1.53.6,2.99,1.19,4.4,2.32,5.53,5.28,10.79,8.79,15.64.89,1.23,1.84,2.45,3.11,3.27,2.25,1.44,5.25,1.37,7.68.27,2.43-1.1,4.36-3.11,5.85-5.33,4.44-6.61,5.29-15.5,2.16-22.82-1.88-4.41-5.03-8.15-8.24-11.71-1.5-1.66-3.13-3.38-5.28-4.01-2.15-.63-12.25,10.41-14.37,16.09Z"/>
          <path class="cls-4" d="M536.74,472.81c-4.32-5.63-21.04-6.23-29.47-.48-1.31.89-2.53,2.02-3.14,3.49-1.56,3.69,1.18,7.76,4.19,10.4,5.2,4.55,11.74,7.55,18.58,8.52,3.09.43,6.43.41,9.09-1.21,3.28-2,4.83-6.12,4.62-9.96-.21-3.84-1.91-7.44-3.86-10.75Z"/>
          <path class="cls-4" d="M487.38,496.76c-7.79,5.78-15.13,12.15-21.96,19.03-3.7,3.74-7.49,8.24-7.24,13.5.34,7.14,7.67,11.58,14.09,14.72,6.28,3.07,13.13,6.22,20,4.92,3.24-.61,6.2-2.18,9.28-3.35,6.7-2.56,14.09-3.3,20.4-6.72,6.31-3.42,11.36-11.06,8.5-17.64-.85-1.95-2.28-3.57-3.76-5.09-8.06-8.33-17.95-14.88-28.76-19.06-4.36-1.69-7.39-2.1-10.55-.31Z"/>
          <path class="cls-4" d="M554.57,500.39c-3.32-.48-6.78-.94-9.98.07-3.2,1.01-6.06,3.96-5.79,7.31.1,1.21.59,2.37,1.27,3.37,2.9,4.27,9.62,5.26,13.63,2.01s4.44-10.02.87-12.75Z"/>
          <path class="cls-4" d="M530.62,558.13c-1.51,9.46-.82,20.7,7.17,25.97,3.49,2.3,7.72,3.1,11.85,3.76,6.05.98,13.5,1.23,16.92-3.86,1.13-1.69,1.61-3.72,2.06-5.7,2.73-11.97,5.46-23.94,8.19-35.91.37-1.62.74-3.28.5-4.93-.92-6.24-9.53-7.86-15.48-5.76-5.95,2.1-29.2,13.8-31.21,26.42Z"/>
          <path class="cls-4" d="M511.89,558.45c-8.93-.34-17.91.68-26.53,3.02-4.08,1.11-8.39,2.74-10.69,6.29-2,3.08-2.08,7.01-1.66,10.65.35,3.03,1.18,6.3,3.65,8.1,2.08,1.52,4.83,1.64,7.41,1.64,9.2.01,18.4-.66,27.5-2.02.87-.13,1.77-.27,2.54-.71,1.7-.96,2.36-3.06,2.77-4.97.77-3.56,1.22-7.18,1.34-10.82.08-2.39,0-4.88-1.11-6.99-1.11-2.12-3.45-4.12-5.21-4.19Z"/>
          <path class="cls-3" d="M256.42,208c0-1.6,1.3-2.9,2.9-2.9s2.9,1.3,2.9,2.9-1.3,2.9-2.9,2.9-2.9-1.3-2.9-2.9Z"/>
          <path class="cls-4" d="M694.9,576.05c-.4.01-.79.1-1.19.15-.65-.34-16.58-.41-28.3-2.21-7.64-1.17-16.35-.69-21.57,5.87-4.75,5.97-3.95,15.24,3.19,18.94,7.64,3.96,15.86.89,23.22-2.17,4.55-1.89,9.03-3.9,13.41-6.15,4.5-2.31,8.65-5.17,13.09-7.54,3.09-1.65,8.84-7.29-1.87-6.9Z"/>
        </g>
        <path class="cls-4" d="M361.75,673.71c-.4,2.7-.8,5.49-1.23,8.4-.62,4.26-1.53,8.94-5.7,11.7-4.5,2.94-11.03,2.54-16.83,1.98-9.58-.91-21.01-2.89-24.25-10.04-1.15-2.52-.62-5.3-.86-7.95-.08-.75-.13-1.47-.19-2.19,1.07-.64,2.38-.86,3.59-.99,15.09-1.55,30.35.13,45.47-.91Z"/>
        <path class="cls-4" d="M433.16,673.5c-.13,3-.27,6.13-.43,9.39-.21,4.28-.67,9.05-4.58,12.18-4.18,3.35-10.73,3.59-16.57,3.59-9.64,0-21.17-.91-25.1-7.71-1.36-2.41-1.47-5.17-1.58-7.84-.11-2.84-.27-5.65-.43-8.4.24-.03.48-.05.72-.08,15.95-1.63,32.04.35,47.96-1.12Z"/>
        <path class="cls-4" d="M508.49,673.69c-.59,3.72-1.18,7.63-1.77,11.78-.62,4.26-1.5,8.94-5.7,11.7-4.47,2.94-11,2.54-16.81,2.01-9.58-.91-21.01-2.92-24.27-10.06-1.15-2.52-.99-5.27-.83-7.95.11-1.93.21-3.83.29-5.73.99-.51,2.17-.7,3.27-.8,15.2-1.55,30.59.16,45.82-.94Z"/>
        <path class="cls-4" d="M573.93,673.82c-2.36,14.1-4.79,22.08-7.95,24.6-4.18,3.37-10.73,3.59-16.57,3.59-9.63,0-21.17-.91-25.1-7.71-1.36-2.41-1.47-5.17-1.58-7.84-.16-4.2-.29-8.03-.43-11.59.54-.11,1.07-.19,1.58-.24,16.17-1.66,32.52.4,48.68-1.18.51-.05.99.08,1.36.37Z"/>
        <g>
          <path class="cls-3" d="M388.31,572.3c-3.25-4.95-6.37-9.99-9.36-15.09-2.25-3.84-4.74-10.06-8.71-12.45-1.68-1.01-3.73-1.21-5.69-1.15-7.14.21-15.38,4.7-18.95,11.09-1.92,3.44-2.19,7.53-2.2,11.46-.01,5.51.41,11.02,1.27,16.46.62,3.96,1.55,8.05,4.03,11.2,3.93,4.99,10.72,6.48,16.25,9.59,2.61,1.47,5.39,3.42,8.3,2.76,2.18-.49,3.75-2.34,5.14-4.09,3.59-4.55,7.01-9.25,10.24-14.06,1.49-2.21,2.99-4.61,3.07-7.27.1-3.08-1.69-5.86-3.38-8.44Z"/>
          <path class="cls-7" d="M388.74,572.05c-1.87-2.85-3.69-5.73-5.48-8.63-1.6-2.61-3.24-5.22-4.69-7.91-1.18-2.18-2.27-4.41-3.63-6.48-1.28-1.95-2.86-3.97-5.01-5-2.38-1.14-5.21-1.08-7.76-.71s-4.94,1.18-7.21,2.29c-4.48,2.19-8.67,5.78-10.59,10.49-1.13,2.77-1.41,5.81-1.47,8.77-.07,3.35.06,6.7.33,10.04s.65,6.49,1.25,9.69c.53,2.82,1.31,5.65,2.82,8.11,2.79,4.55,7.76,6.68,12.44,8.74,1.21.53,2.42,1.08,3.61,1.68,1.24.63,2.42,1.36,3.64,2.03,2.4,1.32,5.11,2.29,7.73.98s4.19-3.93,5.84-6.08c1.99-2.58,3.91-5.21,5.79-7.87s3.82-5.12,5.03-8.01c.57-1.36.9-2.82.79-4.3s-.56-2.74-1.16-4c-.64-1.34-1.46-2.59-2.27-3.84-.35-.54-1.22-.04-.86.5,1.54,2.36,3.29,4.94,3.31,7.86s-1.81,5.57-3.41,7.93c-1.74,2.57-3.52,5.1-5.36,7.59s-3.53,4.88-5.52,7.12c-.86.97-1.85,1.92-3.08,2.4-1.33.52-2.73.37-4.05-.09s-2.49-1.18-3.68-1.87c-1.12-.65-2.26-1.26-3.43-1.81-4.37-2.06-9.3-3.61-12.73-7.18-3.97-4.13-4.69-10.37-5.33-15.8-.38-3.18-.61-6.38-.69-9.59-.08-2.97-.13-6.01.37-8.96.45-2.66,1.44-5.12,3.09-7.27,1.47-1.91,3.32-3.53,5.33-4.85,4.01-2.62,9.01-4.33,13.84-3.89,1.37.13,2.69.51,3.83,1.29.92.63,1.71,1.45,2.42,2.31,1.5,1.84,2.63,3.96,3.74,6.04,2.7,5.1,5.74,10.01,8.84,14.87.83,1.3,1.66,2.59,2.51,3.88.35.54,1.22.04.86-.5Z"/>
        </g>
        <path class="cls-4" d="M417.53,544.92c-3.08,2.9-5.85,6.39-6.7,10.54-.44,2.16-.27,4.6,1.15,6.29.98,1.16,2.42,1.83,3.88,2.27,4.22,1.28,8.91.92,12.88-1,3.97-1.92,7.17-5.38,8.78-9.48,2.14-5.45,1.4-14.45-5.15-16.68-4.88-1.66-11.65,5.05-14.84,8.05Z"/>
        <path class="cls-4" d="M448.27,543.88c-2.36,1.53-3.81,4.15-4.79,6.79-.86,2.3-1.35,5.12.22,7,.56.67,1.33,1.14,2.1,1.56,4.04,2.23,8.53,3.64,13.12,4.14,1.93.21,3.98.23,5.67-.71,2.13-1.17,3.26-3.7,3.29-6.12s-.89-4.77-2.05-6.91c-1.49-2.73-3.44-6.32-6.58-7.07-3.35-.8-8.04-.58-10.97,1.33Z"/>
        <path class="cls-4" d="M428.05,573.58c-3.56.08-7.18.24-10.56,1.37-3.02,1.01-5.76,2.75-8.25,4.73-5.55,4.39-10.06,9.95-14.33,15.6-1.66,2.2-3.32,4.46-4.19,7.07-.87,2.61-.85,5.67.71,7.94,1.2,1.74,3.14,2.82,5.11,3.61,6.61,2.63,60.87-.17,69.85-2.44,1.82-.46,3.63-1.1,5.11-2.25,3.13-2.43,4.25-6.79,3.79-10.73-.45-3.94-2.23-7.59-3.98-11.14-.85-1.73-1.7-3.46-2.55-5.19-1.52-3.09-3.37-6.36-6.65-7.89-2.29-1.07-4.63-.53-7.05-.42-8.96.4-18.02-.45-27.01-.25Z"/>
        <path class="cls-4" d="M496.67,595.05c-3.04,1.05-6.31,2.6-7.44,5.61-.28.75-.41,1.55-.48,2.34-.1,1.11-.08,2.27.31,3.31.91,2.42,3.58,3.68,6.09,4.32,1.62.41,3.3.67,4.97.6,3.37-.14,6.67-1.64,8.98-4.1,2.31-2.46,3.62-5.84,3.55-9.22-.05-2.59-1.5-6.27-4.59-5.84-3.85.54-7.72,1.69-11.39,2.96Z"/>
        <path class="cls-4" d="M521.95,590.38c-1.63,2.38-2.17,5.35-2.15,8.23.01,1.94.32,4.03,1.66,5.45,1.11,1.17,2.74,1.68,4.33,1.95,1.02.17,2.09.26,3.08-.06.94-.31,1.73-.97,2.41-1.7,1.98-2.16,3.14-5.05,3.19-7.98.06-3.21-1.4-8.02-4.63-9.43-2.76-1.21-6.38,1.36-7.87,3.55Z"/>
        <path class="cls-4" d="M278.75,148.72c-.64-1.92-1.31-3.85-2.31-5.61-1.34-2.33-3.27-4.31-5.58-5.69-1.01-.61-2.14-1.08-3.29-1.15-1.82-.15-4.14.31-6.56.57-16.13,1.72-31.67,8.58-43.81,19.34-4.31,3.82-8.5,9.48-6.45,14.86,1.42,3.71,5.56,5.85,9.53,5.95,3.97.1,7.79-1.48,11.3-3.33,5.16-2.72,9.96-6.11,14.26-10.04-2.37,3.39-3.74,8.31-1.06,11.47,1.49,1.76,3.93,2.49,6.23,2.42,4.9-.16,9.21-3.56,11.9-7.66,1.2-1.82,2.14-3.79,2.96-5.81.72,2.45,1.71,4.85,3.46,6.69,1.98,2.07,5.12,3.26,7.8,2.25,1.77-.67,3.12-2.2,3.88-3.93.76-1.73.97-3.66.95-5.55-.04-5.06-1.6-9.97-3.21-14.77Z"/>
        <g>
          <path class="cls-10" d="M366.87,236.23c3.2-.09,6.4-.29,9.58-.6.54-.05,1-.42,1-1,0-.5-.46-1.05-1-1-3.19.31-6.38.51-9.58.6-1.28.04-1.29,2.04,0,2h0Z"/>
          <path class="cls-10" d="M372.14,270.61c2.97-.3,5.94-.49,8.92-.56,1.28-.03,1.29-2.03,0-2-2.98.07-5.96.26-8.92.56-.54.06-1,.42-1,1,0,.5.46,1.06,1,1h0Z"/>
          <path class="cls-10" d="M372.65,301.11c3.22-.75,6.49-1.24,9.79-1.45,1.28-.08,1.29-2.08,0-2-3.48.22-6.93.73-10.33,1.52-1.25.29-.72,2.22.53,1.93h0Z"/>
          <path class="cls-10" d="M377.2,331.91c3.74-1.1,7.53-2.02,11.36-2.75.53-.1.83-.74.7-1.23-.15-.56-.7-.8-1.23-.7-3.83.73-7.62,1.65-11.36,2.75-1.23.36-.71,2.29.53,1.93h0Z"/>
          <path class="cls-10" d="M383.95,365.9c3.76-1.2,7.52-2.39,11.28-3.59,1.22-.39.7-2.32-.53-1.93-3.76,1.2-7.52,2.39-11.28,3.59-1.22.39-.7,2.32.53,1.93h0Z"/>
          <path class="cls-10" d="M393.3,393.31c3.16-.72,6.22-1.85,9.1-3.34,1.14-.59.13-2.32-1.01-1.73-2.73,1.41-5.63,2.46-8.62,3.14-1.25.29-.72,2.21.53,1.93h0Z"/>
          <path class="cls-10" d="M402.75,418.8c3.28-1.72,6.33-3.82,9.13-6.23.41-.35.36-1.05,0-1.41-.41-.41-1-.35-1.41,0-2.67,2.3-5.61,4.28-8.73,5.92-1.14.6-.13,2.32,1.01,1.73h0Z"/>
        </g>
        <path class="cls-13" d="M221.34,177.71c0,1.81-1.46,3.27-3.27,3.27s-3.27-1.46-3.27-3.27,1.46-3.27,3.27-3.27,3.27,1.46,3.27,3.27Z"/>
        <path class="cls-13" d="M209.6,202.97c0,1.81-1.46,3.27-3.27,3.27s-3.27-1.46-3.27-3.27,1.46-3.27,3.27-3.27,3.27,1.46,3.27,3.27Z"/>
        <path class="cls-13" d="M201.83,231.66c0,1.81-1.46,3.27-3.27,3.27s-3.27-1.46-3.27-3.27,1.46-3.27,3.27-3.27,3.27,1.46,3.27,3.27Z"/>
        <path class="cls-13" d="M208.37,264.77c0,1.81-1.46,3.27-3.27,3.27s-3.27-1.46-3.27-3.27,1.46-3.27,3.27-3.27,3.27,1.46,3.27,3.27Z"/>
        <path class="cls-13" d="M235.58,281.57c0,1.81-1.46,3.27-3.27,3.27s-3.27-1.46-3.27-3.27,1.46-3.27,3.27-3.27,3.27,1.46,3.27,3.27Z"/>
        <path class="cls-13" d="M264.88,282.25c0,1.81-1.46,3.27-3.27,3.27s-3.27-1.46-3.27-3.27,1.46-3.27,3.27-3.27,3.27,1.46,3.27,3.27Z"/>
        <path class="cls-13" d="M292.41,274.22c0,1.81-1.46,3.27-3.27,3.27s-3.27-1.46-3.27-3.27,1.46-3.27,3.27-3.27,3.27,1.46,3.27,3.27Z"/>
        <path class="cls-13" d="M296.2,301c0,1.81-1.46,3.27-3.27,3.27s-3.27-1.46-3.27-3.27,1.46-3.27,3.27-3.27,3.27,1.46,3.27,3.27Z"/>
        <circle class="cls-13" cx="297.04" cy="339.88" r="3.27"/>
        <path class="cls-13" d="M302.16,371.95c0,1.81-1.46,3.27-3.27,3.27s-3.27-1.46-3.27-3.27,1.46-3.27,3.27-3.27,3.27,1.46,3.27,3.27Z"/>
        <path class="cls-13" d="M303.81,407.35c0,1.81-1.46,3.27-3.27,3.27s-3.27-1.46-3.27-3.27,1.46-3.27,3.27-3.27,3.27,1.46,3.27,3.27Z"/>
        <path class="cls-13" d="M305.34,445.16c0,1.81-1.46,3.27-3.27,3.27s-3.27-1.46-3.27-3.27,1.46-3.27,3.27-3.27,3.27,1.46,3.27,3.27Z"/>
        <path class="cls-13" d="M306.57,481.62c0,1.81-1.46,3.27-3.27,3.27s-3.27-1.46-3.27-3.27,1.46-3.27,3.27-3.27,3.27,1.46,3.27,3.27Z"/>
        <path class="cls-13" d="M414.45,446.77c0,1.81-1.46,3.27-3.27,3.27s-3.27-1.46-3.27-3.27,1.46-3.27,3.27-3.27,3.27,1.46,3.27,3.27Z"/>
        <path class="cls-13" d="M395.53,422.85c0,1.81-1.46,3.27-3.27,3.27s-3.27-1.46-3.27-3.27,1.46-3.27,3.27-3.27,3.27,1.46,3.27,3.27Z"/>
        <path class="cls-13" d="M384.4,396.04c0,1.81-1.46,3.27-3.27,3.27s-3.27-1.46-3.27-3.27,1.46-3.27,3.27-3.27,3.27,1.46,3.27,3.27Z"/>
        <path class="cls-13" d="M376.94,369.4c0,1.81-1.46,3.27-3.27,3.27s-3.27-1.46-3.27-3.27,1.46-3.27,3.27-3.27,3.27,1.46,3.27,3.27Z"/>
        <path class="cls-13" d="M370.4,334.73c0,1.81-1.46,3.27-3.27,3.27s-3.27-1.46-3.27-3.27,1.46-3.27,3.27-3.27,3.27,1.46,3.27,3.27Z"/>
        <path class="cls-13" d="M366.26,304.27c0,1.81-1.46,3.27-3.27,3.27s-3.27-1.46-3.27-3.27,1.46-3.27,3.27-3.27,3.27,1.46,3.27,3.27Z"/>
        <path class="cls-13" d="M363.98,271.59c0,1.81-1.46,3.27-3.27,3.27s-3.27-1.46-3.27-3.27,1.46-3.27,3.27-3.27,3.27,1.46,3.27,3.27Z"/>
        <path class="cls-13" d="M361.63,236.89c0,1.81-1.46,3.27-3.27,3.27s-3.27-1.46-3.27-3.27,1.46-3.27,3.27-3.27,3.27,1.46,3.27,3.27Z"/>
        <path class="cls-13" d="M361.63,198.23c0,1.81-1.46,3.27-3.27,3.27s-3.27-1.46-3.27-3.27,1.46-3.27,3.27-3.27,3.27,1.46,3.27,3.27Z"/>
        <path class="cls-13" d="M354.62,160.89c0,1.81-1.46,3.27-3.27,3.27s-3.27-1.46-3.27-3.27,1.46-3.27,3.27-3.27,3.27,1.46,3.27,3.27Z"/>
        <path class="cls-13" d="M448.79,451.17c0,1.81-1.46,3.27-3.27,3.27s-3.27-1.46-3.27-3.27,1.46-3.27,3.27-3.27,3.27,1.46,3.27,3.27Z"/>
        <path class="cls-13" d="M489.96,450.52c0,1.81-1.46,3.27-3.27,3.27s-3.27-1.46-3.27-3.27,1.46-3.27,3.27-3.27,3.27,1.46,3.27,3.27Z"/>
        <path class="cls-13" d="M523.65,450.52c0,1.81-1.46,3.27-3.27,3.27s-3.27-1.46-3.27-3.27,1.46-3.27,3.27-3.27,3.27,1.46,3.27,3.27Z"/>
        <path class="cls-13" d="M558.88,459.35c0,1.81-1.46,3.27-3.27,3.27s-3.27-1.46-3.27-3.27,1.46-3.27,3.27-3.27,3.27,1.46,3.27,3.27Z"/>
        <circle class="cls-13" cx="578.7" cy="476.61" r="3.27"/>
        <path class="cls-13" d="M595.91,501.67c0,1.81-1.46,3.27-3.27,3.27s-3.27-1.46-3.27-3.27,1.46-3.27,3.27-3.27,3.27,1.46,3.27,3.27Z"/>
        <path class="cls-13" d="M602.45,531.65c0,1.81-1.46,3.27-3.27,3.27s-3.27-1.46-3.27-3.27,1.46-3.27,3.27-3.27,3.27,1.46,3.27,3.27Z"/>
        <path class="cls-13" d="M614.56,564.3c0,1.81-1.46,3.27-3.27,3.27s-3.27-1.46-3.27-3.27,1.46-3.27,3.27-3.27,3.27,1.46,3.27,3.27Z"/>
        <path class="cls-13" d="M645.35,593.12c0,1.81-1.46,3.27-3.27,3.27s-3.27-1.46-3.27-3.27,1.46-3.27,3.27-3.27,3.27,1.46,3.27,3.27Z"/>
        <path class="cls-13" d="M611.97,582.14c0,1.81-1.46,3.27-3.27,3.27s-3.27-1.46-3.27-3.27,1.46-3.27,3.27-3.27,3.27,1.46,3.27,3.27Z"/>
        <path class="cls-13" d="M590.65,557.76c0,1.81-1.46,3.27-3.27,3.27s-3.27-1.46-3.27-3.27,1.46-3.27,3.27-3.27,3.27,1.46,3.27,3.27Z"/>
        <path class="cls-13" d="M587.79,584.49c0,1.81-1.46,3.27-3.27,3.27s-3.27-1.46-3.27-3.27,1.46-3.27,3.27-3.27,3.27,1.46,3.27,3.27Z"/>
        <path class="cls-13" d="M584.52,613.44c0,1.81-1.46,3.27-3.27,3.27s-3.27-1.46-3.27-3.27,1.46-3.27,3.27-3.27,3.27,1.46,3.27,3.27Z"/>
        <path class="cls-13" d="M581.25,643.32c0,1.81-1.46,3.27-3.27,3.27s-3.27-1.46-3.27-3.27,1.46-3.27,3.27-3.27,3.27,1.46,3.27,3.27Z"/>
        <path class="cls-13" d="M576.79,673.43c0,1.81-1.46,3.27-3.27,3.27s-3.27-1.46-3.27-3.27,1.46-3.27,3.27-3.27,3.27,1.46,3.27,3.27Z"/>
        <path class="cls-13" d="M646.21,578.87c0,1.81-1.46,3.27-3.27,3.27s-3.27-1.46-3.27-3.27,1.46-3.27,3.27-3.27,3.27,1.46,3.27,3.27Z"/>
        <path class="cls-13" d="M307.22,552.96c0,1.81-1.46,3.27-3.27,3.27s-3.27-1.46-3.27-3.27,1.46-3.27,3.27-3.27,3.27,1.46,3.27,3.27Z"/>
        <path class="cls-13" d="M309.08,588.49c0,1.81-1.46,3.27-3.27,3.27s-3.27-1.46-3.27-3.27,1.46-3.27,3.27-3.27,3.27,1.46,3.27,3.27Z"/>
        <path class="cls-13" d="M311.1,617.22c0,1.81-1.46,3.27-3.27,3.27s-3.27-1.46-3.27-3.27,1.46-3.27,3.27-3.27,3.27,1.46,3.27,3.27Z"/>
        <path class="cls-13" d="M312.91,645.95c0,1.81-1.46,3.27-3.27,3.27s-3.27-1.46-3.27-3.27,1.46-3.27,3.27-3.27,3.27,1.46,3.27,3.27Z"/>
        <path class="cls-13" d="M315.96,675.2c0,1.81-1.46,3.27-3.27,3.27s-3.27-1.46-3.27-3.27,1.46-3.27,3.27-3.27,3.27,1.46,3.27,3.27Z"/>
        <path class="cls-13" d="M307.59,516.5c0,1.81-1.46,3.27-3.27,3.27s-3.27-1.46-3.27-3.27,1.46-3.27,3.27-3.27,3.27,1.46,3.27,3.27Z"/>
        <text class="cls-9" transform="translate(200.01 182.6)"><tspan x="0" y="0">1</tspan></text>
        <text class="cls-9" transform="translate(189.39 204.2)"><tspan x="0" y="0">2</tspan></text>
        <text class="cls-9" transform="translate(182.28 234.93)"><tspan x="0" y="0">3</tspan></text>
        <text class="cls-9" transform="translate(190.28 271.34)"><tspan x="0" y="0">4</tspan></text>
        <text class="cls-9" transform="translate(223.9 293.88)"><tspan x="0" y="0">5</tspan></text>
        <text class="cls-9" transform="translate(257.15 297.74)"><tspan x="0" y="0">6</tspan></text>
        <text class="cls-9" transform="translate(280.28 288.66)"><tspan x="0" y="0">7</tspan></text>
        <text class="cls-9" transform="translate(280.75 308.22)"><tspan x="0" y="0">8</tspan></text>
        <text class="cls-9" transform="translate(281.4 343.15)"><tspan x="0" y="0">9</tspan></text>
        <text class="cls-9" transform="translate(280.28 377.06)"><tspan x="0" y="0">10</tspan></text>
        <text class="cls-9" transform="translate(280.28 408.07)"><tspan x="0" y="0">11</tspan></text>
        <text class="cls-9" transform="translate(283.68 446.77)"><tspan x="0" y="0">12</tspan></text>
        <text class="cls-9" transform="translate(283.68 483.81)"><tspan x="0" y="0">13</tspan></text>
        <text class="cls-9" transform="translate(285.08 520.27)"><tspan x="0" y="0">14</tspan></text>
        <text class="cls-9" transform="translate(284.78 557.1)"><tspan x="0" y="0">15</tspan></text>
        <text class="cls-9" transform="translate(284.25 591.76)"><tspan x="0" y="0">16</tspan></text>
        <text class="cls-9" transform="translate(287.76 620.94)"><tspan x="0" y="0">17</tspan></text>
        <text class="cls-9" transform="translate(290.04 650.26)"><tspan x="0" y="0">18</tspan></text>
        <text class="cls-9" transform="translate(295.17 678.47)"><tspan x="0" y="0">19</tspan></text>
        <text class="cls-9" transform="translate(580.34 676.7)"><tspan x="0" y="0">20</tspan></text>
        <text class="cls-9" transform="translate(585.84 649.3)"><tspan x="0" y="0">21</tspan></text>
        <text class="cls-9" transform="translate(587.79 619.39)"><tspan x="0" y="0">22</tspan></text>
        <text class="cls-9" transform="translate(587.38 597.61)"><tspan x="0" y="0">23</tspan></text>
        <text class="cls-9" transform="translate(606.26 599.34)"><tspan x="0" y="0">24</tspan></text>
        <text class="cls-9" transform="translate(630.32 606.17)"><tspan x="0" y="0">25</tspan></text>
        <text class="cls-9" transform="translate(638.82 568.75)"><tspan x="0" y="0">26</tspan></text>
        <text class="cls-9" transform="translate(617.48 560.87)"><tspan x="0" y="0">27</tspan></text>
        <text class="cls-9" transform="translate(593.52 556)"><tspan x="0" y="0">28</tspan></text>
        <text class="cls-9" transform="translate(605.43 534.92)"><tspan x="0" y="0">29</tspan></text>
        <text class="cls-9" transform="translate(599.18 506)"><tspan x="0" y="0">30</tspan></text>
        <text class="cls-9" transform="translate(584.57 476.61)"><tspan class="cls-12" x="0" y="0">3</tspan><tspan x="5.41" y="0">1</tspan></text>
        <text class="cls-9" transform="translate(560.06 456.7)"><tspan x="0" y="0">32</tspan></text>
        <text class="cls-9" transform="translate(522.15 445.29)"><tspan x="0" y="0">33</tspan></text>
        <text class="cls-9" transform="translate(487.1 444.33)"><tspan x="0" y="0">34</tspan></text>
        <text class="cls-9" transform="translate(448.79 445.26)"><tspan x="0" y="0">35</tspan></text>
        <text class="cls-9" transform="translate(412.14 438.43)"><tspan class="cls-12" x="0" y="0">3</tspan><tspan x="5.41" y="0">6</tspan></text>
        <text class="cls-9" transform="translate(393.8 413.26)"><tspan x="0" y="0">37</tspan></text>
        <text class="cls-9" transform="translate(382.56 389.4)"><tspan x="0" y="0">38</tspan></text>
        <text class="cls-9" transform="translate(374.33 361.35)"><tspan class="cls-12" x="0" y="0">3</tspan><tspan x="5.41" y="0">9</tspan></text>
        <text class="cls-9" transform="translate(367.95 327.42)"><tspan class="cls-12" x="0" y="0">4</tspan><tspan x="5.77" y="0">0</tspan></text>
        <text class="cls-9" transform="translate(362.99 297.42)"><tspan class="cls-5" x="0" y="0">4</tspan><tspan x="5.39" y="0">1</tspan></text>
        <text class="cls-9" transform="translate(363.98 265.13)"><tspan x="0" y="0">42</tspan></text>
        <text class="cls-9" transform="translate(361.22 231.92)"><tspan x="0" y="0">43</tspan></text>
        <text class="cls-9" transform="translate(361.07 192.82)"><tspan x="0" y="0">44</tspan></text>
        <text class="cls-9" transform="translate(358.36 166.95)"><tspan class="cls-12" x="0" y="0">4</tspan><tspan x="5.77" y="0">5</tspan></text>
      </g>
    </g>
  </g>
</svg>