<?xml version="1.0" encoding="UTF-8"?>
<svg xmlns="http://www.w3.org/2000/svg" width="800" height="800" version="1.1" viewBox="0 0 800 800">
  <!-- Generator: Adobe Illustrator 28.7.3, SVG Export Plug-In . SVG Version: 1.2.0 Build 164)  -->
  <g>
    <g id="Camada_2">
      <path d="M578.89,212.61c-48.79-48.79-113.65-75.65-182.65-75.65s-133.86,26.86-182.65,75.65c-48.79,48.79-75.66,113.66-75.66,182.65s26.87,133.87,75.66,182.66c48.79,48.78,113.65,75.65,182.65,75.65s133.86-26.87,182.65-75.66c48.79-48.78,75.66-113.65,75.66-182.65s-26.87-133.86-75.66-182.65ZM225.32,226.5c11.75,14.38,37.83,50.08,52.41,98.84,6.12,20.45,9.62,40.76,10.51,60.92h-132.14c2.3-62.14,28.31-118.32,69.22-159.76ZM156.1,404.26h132.24c-1.79,54.66-22.93,108.06-63.26,159.53-40.78-41.42-66.69-97.5-68.98-159.53ZM387.24,635.4c-56.92-2.1-108.84-24.1-149-59.22,34.5-43.72,56.12-89.65,64.31-136.62,2.04-11.71,3.25-23.49,3.63-35.3h81.06v231.14ZM387.24,386.26h-81.12c-.87-22.26-4.66-44.59-11.36-66.8-15.96-52.84-43.88-90.44-56.26-105.34,40.13-34.99,91.95-56.89,148.74-58.99v231.13ZM636.38,386.26h-124.04c.89-20.16,4.39-40.47,10.51-60.92,13.21-44.18,35.86-77.64,48.74-94.23,38.36,40.95,62.58,95.28,64.79,155.15ZM405.24,155.13c59.03,2.18,112.69,25.76,153.43,63.19-13.54,17.07-38.22,52.71-52.85,101.14-6.7,22.21-10.49,44.54-11.36,66.8h-89.22v-231.13ZM405.24,635.4v-231.14h89.16c.38,11.81,1.59,23.59,3.63,35.3,7.92,45.44,28.41,89.91,60.98,132.34-40.78,37.61-94.57,61.31-153.77,63.5ZM571.89,559.1c-37.99-50.02-57.91-101.84-59.65-154.84h124.14c-2.2,59.72-26.31,113.93-64.49,154.84Z"/>
    </g>
  </g>
</svg>