<?xml version="1.0" encoding="UTF-8"?>
<svg xmlns="http://www.w3.org/2000/svg" width="800" height="800" version="1.1" viewBox="0 0 800 800">
  <!-- Generator: Adobe Illustrator 28.7.3, SVG Export Plug-In . SVG Version: 1.2.0 Build 164)  -->
  <g>
    <g id="Camada_1">
      <g>
        <path d="M408.63,499.72c-.59.02-1.18.02-1.77.02v-.04c.59,0,1.18.02,1.77.02Z"/>
        <path d="M658.08,245.03l-.66-6.28h-94.25c.35-28.09-1.2-46.99-1.3-48.19l-.54-6.42H255.93l-.54,6.42c-.1,1.21-1.64,20.11-1.29,48.19h-93.99l-.65,6.28c-.4,3.79-9.04,93.3,40.46,148.2,23.63,26.21,56.47,39.9,97.65,40.74,5.75,9.4,12.06,17.83,18.93,25.3,16.56,18.01,36.23,30.07,58.75,36.05l-.39.17c.3.7,28.97,69.17-6.32,93.63-11.58,2.12-82.79,16.33-112.47,50.35l-10.12,11.61h325.01l-10.12-11.61c-29.68-34.02-100.89-48.23-112.47-50.35-35.29-24.46-6.61-92.93-6.32-93.63l-.26-.11c22.61-5.96,42.36-18.04,58.98-36.11,6.87-7.47,13.18-15.9,18.93-25.3,41.31-.78,74.24-14.48,97.92-40.74,49.49-54.9,40.85-144.41,40.46-148.2ZM210.35,383.9c-38.19-42.32-38.33-110.29-37.38-131.15h81.46c.41,12.37,1.22,26,2.63,40.34,5.07,51.41,15.96,93.74,32.51,126.51-33.26-2.29-59.87-14.27-79.22-35.7ZM441.92,601.65l1.21.77,1.4.24c.68.11,58.95,10.27,92.7,34.42h-257.54c33.75-24.15,92.02-34.31,92.69-34.42l1.41-.24,1.2-.77c38.42-24.69,23.43-81.56,15.95-103.2,5.18.71,10.48,1.12,15.92,1.25.59,0,1.18.02,1.77.02s1.18-.01,1.77-.02c5.31-.12,10.5-.52,15.56-1.21-7.49,21.67-22.44,78.49,15.96,103.16ZM490.46,449.79c-21.54,23.44-49.06,35.52-81.83,35.93-32.75-.41-60.28-12.49-81.81-35.91-37.21-40.45-50.88-108.17-55.8-157.85-4.21-42.5-2.9-79.43-2.09-93.82h279.4c1.79,32.73,6.09,182.08-57.87,251.65ZM607.18,383.9c-19.4,21.49-46.1,33.48-79.49,35.72,16.55-32.77,27.44-75.11,32.51-126.53,1.41-14.34,2.22-27.97,2.64-40.34h81.72c.95,20.86.81,88.84-37.38,131.15Z"/>
      </g>
      <path d="M410.4,499.7v.04c-.59,0-1.18,0-1.77-.02.59,0,1.18-.01,1.77-.02Z"/>
    </g>
  </g>
</svg>