<?xml version="1.0" encoding="UTF-8"?>
<svg xmlns="http://www.w3.org/2000/svg" width="800" height="800" version="1.1" viewBox="0 0 800 800">
  <defs>
    <style>
      .cls-1 {
        fill: #fff;
      }

      .cls-2, .cls-3 {
        fill: none;
      }

      .cls-3 {
        stroke: #000;
        stroke-miterlimit: 10;
        stroke-width: .73px;
      }

      .cls-4 {
        letter-spacing: 0em;
      }

      .cls-5 {
        font-size: 13.15px;
      }

      .cls-5, .cls-6 {
        font-family: Averta-Black, Averta;
        font-weight: 800;
      }

      .cls-7 {
        letter-spacing: 0em;
      }

      .cls-6 {
        font-size: 13.15px;
      }

      .cls-8 {
        fill: #242424;
        fill-rule: evenodd;
      }
    </style>
  </defs>
  <!-- Generator: Adobe Illustrator 28.7.3, SVG Export Plug-In . SVG Version: 1.2.0 Build 164)  -->
  <g>
    <g id="Camada_1">
      <g>
        <g>
          <path d="M300.62,231.38c-.56-3.78-1.12-7.66-1.58-11.46,0,0-.12-1.16-.12-1.16-.02-.19-.03-.39-.04-.59.04-.37.31-.47.47-.57,1.31-.52,3.14-.88,4.52-1.16,6.04-1.19,12.08-2.58,17.7-5.1,2.77-1.27,5.51-2.77,7.76-4.84,6.45-6.62,9.11-16.06,11.3-24.83,0,0,.04-.19.04-.19h.2c4.86,0,10.42-1.52,13.07-5.91,3.64-6.7,2.87-20.88-2.06-26.78-1.67-2.06-5.07-3.5-7.24-1.39-2.07,1.95-2.96,4.89-3.7,7.58-.96,3.67-1.36,7.64-1.63,11.43-.7-5.74-1.57-11.54-2.69-17.21,0,0,.34.25.34.25-11.35.93-22.97-.65-33.51-5.03-10.52-4.35-20-12.06-24.82-22.56,0,0,.66.03.66.03-8.66,15-19.1,30.63-35.54,37.8-5.4,2.36-11.22,3.66-17.09,4.02,0,0,.29-.35.29-.35.33,3.73,1.43,7.38,1.67,11.14-.55,1.04-1.23-.87-1.48-1.29,0,0-1.11-2.34-1.11-2.34-1.63-3.04-4.74-10.38-8.81-9.68-3.77.82-5.96,4.77-6.99,8.23-2.54,8.78.49,23.06,10.1,26.27,3.19,1.13,6.79,1.1,10.05.27,0,0,.2-.05.2-.05l.09.17c2.94,5.54,6.27,10.95,10.3,15.76,2,2.4,4.23,4.66,7.28,5.65,8.99,3.02,18.7,2.32,28.06,2.1.73,0,1.75-.12,2.41.22,4.07,2.34,4.04,11.39,4.19,15.64,0,0-.35,0-.35,0-.13-4.61-.2-9.6-2.39-13.75-.4-.65-.92-1.23-1.59-1.54-.65-.33-1.46-.17-2.25-.19-9.39.24-19.16.95-28.23-2.08-3.08-.99-5.45-3.33-7.47-5.77-4.08-4.85-7.42-10.25-10.39-15.84,0,0,.29.12.29.12-3.39.87-7.03.9-10.35-.26-9.93-3.3-13.06-17.83-10.47-26.9,1.07-3.66,3.4-7.77,7.42-8.64,4.93-.96,8.72,8.75,10.57,12.32.18.42.48.96.69,1.28-.02-.01-.01,0-.06-.02-.06-.02-.15,0-.19.03-.12.09-.09.1-.1.11.03-.2-.02-.45-.04-.69-.59-3.47-1.31-7-1.71-10.54,5.91-.34,11.77-1.64,17.19-4.01,16.28-7.14,26.57-22.68,35.15-37.57,0,0,.36-.63.36-.63l.3.66c4.74,10.33,14.04,17.93,24.41,22.23,10.51,4.4,22.14,5.97,33.48,5.02.94,4.86,1.75,9.75,2.36,14.67,0,0-.6.01-.6.01.25-2.92.7-5.81,1.42-8.65,1.01-3.36,2.14-7.79,5.91-8.96,5.76-.74,8.6,5.93,9.59,10.56,1.2,6.06,1.33,12.6-.95,18.43-2.5,5.21-8.65,7.16-14.08,7.1,0,0,.25-.19.25-.19-2.23,8.87-4.92,18.34-11.47,25.05-7.12,6.13-16.72,8.17-25.67,10.01-1.3.31-3.24.57-4.43,1.11-.43.2-.23.44-.24.8.43,4.19,1.08,8.44,1.67,12.6,0,0-.35.05-.35.05h0Z"/>
          <path d="M255.28,185.78c8.26,5.3,8.35,18.11-.23,23.16-9.41,6.28-18.04-.87-21.42-10-3.93-12.94,11.9-19.72,21.65-13.16h0ZM255.08,186.06c-9.37-6.21-24.74.23-20.85,12.68,1.12,3.36,3.4,6.3,5.95,8.73,4.04,3.91,9.98,4.09,14.55.96,8.34-4.8,8.3-17.18.36-22.38h0Z"/>
          <path d="M312.15,194.89c-2.47-8.4,4.97-17.11,13.71-15.49,9.99,1.22,11.7,11.2,8.6,19.29-4.9,11.02-19.62,6.32-22.31-3.81h0ZM312.49,194.8c2.64,9.61,16.76,14.25,21.37,3.64,2.78-7.65,1.42-17.19-8.09-18.44-8.35-1.68-15.6,6.73-13.28,14.8h0Z"/>
          <path d="M276.57,173.99c0,5.87-4.76,10.62-10.62,10.62s-10.62-4.76-10.62-10.62,4.75-10.62,10.62-10.62,10.62,4.76,10.62,10.62Z"/>
          <path class="cls-1" d="M263.91,173.99c0,2.93-2.38,5.31-5.31,5.31s-5.31-2.38-5.31-5.31,2.38-5.31,5.31-5.31,5.31,2.38,5.31,5.31Z"/>
          <path d="M211.57,172.53c4.5-10.51,11.02-1.74,12.85,5.06-8.14,3.09-5.52,7.85,2.05,7.96,0,0,0,.35,0,.35-2.67-.02-5.96-.22-7.48-2.84-.71-1.46.16-2.98,1.26-3.95,1.08-.93,2.33-1.53,3.59-2.08l-.22.45c-1.04-3.25-4.48-11.4-8.89-8.62-1.26.91-2.12,2.36-2.84,3.8,0,0-.32-.15-.32-.15h0Z"/>
          <path d="M341.58,177.01c4.42-3.16,9.74-9.72,1.14-11.39-.18-2.06-.03-4.17.56-6.17.54-1.91,1.52-3.7,2.82-5.19,0,0,.27.23.27.23-2.4,3.04-3.28,7.02-2.95,10.81l-.28-.32c2.02.42,4.72,1.51,4.91,3.97-.03,3.76-3.45,6.41-6.26,8.35,0,0-.2-.29-.2-.29h0Z"/>
          <path d="M250.95,155.01c1.52,1.42,3.79,1.53,5.78,1.6,2.08.04,4.16-.13,6.26-.27,4.13-.4,8.41.35,12.41-.89.94-.32,1.82-.84,2.21-1.67.63-1.75-.23-4.08-1.01-5.74-1.35-2.82-4.3-4.45-7.4-4.46-2.05-.07-4.11.36-6.11.96l-.11-.34c3.91-1.34,8.86-2.06,12.21.98,2.21,1.99,3.41,5.1,3.32,8.05-1.17,5.28-11.56,3.11-15.48,3.72-4.04.05-8.97,1.15-12.33-1.7,0,0,.25-.25.25-.25h0Z"/>
          <path d="M297.03,169.89c.8,5.81,6.17,9.87,11.98,9.06,5.81-.8,9.87-6.17,9.06-11.98-.8-5.81-6.16-9.87-11.98-9.06-5.81.8-9.87,6.17-9.06,11.98Z"/>
          <path d="M319.12,148.53c-.93,1.44-2.66,2.01-4.25,2.27-3.17.47-6.4.09-9.51.72-6.69,1.53-16.09,3.43-12.2-7.04.67-1.5,1.73-2.82,3.05-3.77,0,0,.21.28.21.28-2.49,1.94-3.72,5.19-3.44,8.25.65,4.87,9.04,2.02,12.24,1.57,3.17-.64,6.41-.18,9.58-.56,1.53-.18,3.14-.64,4.04-1.92l.3.19h0Z"/>
          <path d="M264.7,191.31c.06-.23.25-.33.39-.39.94-.3,1.94-.15,2.89-.1,3.23.3,6.41.9,9.6,1.44,3.18.54,6.35,1.18,9.55,1.49,1.1.16,1.98-.03,2.87-.7,3.26-1.88,11.7-11.34,15.32-7.44,1.8,2.37.7,5.65-.45,8.05-2.04,3.91-5.39,7.04-9.3,8.99-8.81,4.99-33.72,2.85-30.88-11.34h0ZM265.04,191.4c-2.65,13.75,21.81,15.57,30.24,10.68,4.65-2.4,8.67-6.57,10.03-11.69.46-1.75.42-4.54-1.68-5.02-.93-.17-1.97.2-2.9.64-3.79,1.91-6.85,5.05-10.43,7.52-.88.69-2.13.97-3.22.77-3.23-.34-6.4-1.01-9.59-1.57-3.7-.63-7.39-1.47-11.15-1.6-.4.01-1.11,0-1.31.28h0Z"/>
          <path d="M280.68,185.04c1.92.84,3.71,1.92,5.36,3.22,0,0-.18.3-.18.3-1.92-.85-3.71-1.91-5.36-3.22,0,0,.18-.3.18-.3h0Z"/>
          <path d="M289.31,188.55c1.56-2.01,3.15-3.94,4.8-5.87,0,0,.29.2.29.2-.59,1.14-1.36,2.18-2.15,3.18-.83.98-1.69,1.93-2.69,2.74,0,0-.25-.25-.25-.25h0Z"/>
          <path d="M246.87,105.09c1.56-8.71-1.29-19.05-9.76-23.1-4.01-2.04-8.56-2.71-13.06-2.87-9.95-.39-20.84,2.67-26.93,11.01-1.01,1.5-1.7,2.75-2.39,4.4-.76,2.13-1.2,4.26-1.16,6.53.12,3.09,1.54,8.52,2.09,11.64.92,5.57,2.64,11.26,1.9,16.97-.65,2.84-3.43,2.01-3.78-.54-.78-4.51.34-9.1.08-13.62-.1-.59-.07-1.62-.69-1.72-.74.1-1.49.55-2.16.93-3.78,2.35-7.06,5.62-9.33,9.46-3.72,6.08-2.77,13.26,2.16,18.36,1.48,1.65,3.27,3.06,5.26,4.05,0,0,1.51.73,1.51.73l1.58.55c11.96,3.61,25.1-.6,35.13-7.47,1.72-9.57,8.18-19.92,17.98-24.26,0,0,.15.32.15.32-10.02,4.66-15.43,14.01-17.82,24.39-10.74,7.64-28.28,12.74-40.32,5.45-7.78-4.96-11.26-14.22-6.23-22.46,2.34-3.97,5.65-7.31,9.56-9.74.8-.44,1.55-.93,2.51-1.04,3.49.02-.49,14.57,1.93,17.29,4.35,2.9.19-15.73-.1-17.52-.56-3.2-1.96-8.56-2.07-11.76-.03-2.35.42-4.57,1.22-6.78.71-1.7,1.44-3,2.48-4.54,6.23-8.51,17.33-11.63,27.47-11.21,4.53.17,9.18.85,13.28,2.98,8.63,4.2,11.53,14.75,9.87,23.64,0,0-.35-.07-.35-.07h0Z"/>
          <path d="M308.18,107.27c4.87.93,9.9,2.4,13.75,5.69,6.36,5.52,10.31,13.28,12.32,21.36,0,0-.18-.21-.18-.21,2.85,1.26,5.81,2.26,8.84,2.97,3.03.7,6.13,1.16,9.25,1.22,0,0,0,.35,0,.35-3.15,0-6.3-.33-9.37-1.02-3.08-.69-6.08-1.67-8.98-2.92-.18-.07-.14-.04-.18-.22-2.57-9.28-7.37-19.04-16.17-23.75-2.94-1.46-6.11-2.43-9.34-3.12,0,0,.07-.35.07-.35h0Z"/>
          <path d="M358.07,119.23c-3.78.57-1.23-11.17-1.09-13.42.69-4.7,1.56-9.39,2.08-14.08.9-9.78-7.1-17.73-15.91-20.53-9.86-3.22-25.84-2.45-33.08,5.8-4.68,5.4-5.42,13.24-3.89,20.01,0,0-.34.09-.34.09-3.16-13.11,2.53-24.57,16.24-27.29,7.01-1.43,14.43-1.59,21.31.68,9.08,2.9,17.28,11.22,16.29,21.3-.82,8.26-3.19,16.36-3.19,24.67.09.96.23,2.61,1.51,2.42,0,0,.07.35.07.35h0Z"/>
          <path d="M240.07,119.31c-1.95-5.87-9.79-7.61-13.8-2.75-4.03,4.67-1.07,12.34,5.09,13,0,0-.32.17-.32.17,2.19-4.07,5.19-7.79,9.02-10.42h0ZM240.4,119.42c-3.69,2.91-6.77,6.59-8.9,10.79-3.16-.26-6.08-2.4-7.24-5.38-1.19-2.89-.54-6.38,1.48-8.71,4.25-5.17,13.12-3.3,14.65,3.3h0Z"/>
          <path d="M247.03,115.37l8.14-3.02s-.16.25-.16.25c-1.16-8.91-13.61-9.56-15.75-.87-.59,2.44.11,5.14,1.79,7.04,0,0-.29-.03-.29-.03,1.95-1.36,4.06-2.46,6.26-3.36h0ZM247.16,115.69c-2.22.94-4.36,2.07-6.3,3.5,0,0-.13-.14-.13-.14-3.96-4.07-2.42-11.35,2.82-13.55,5.25-2.47,11.69,1.48,11.95,7.23,0,0-.18.06-.18.06l-8.15,2.9h0Z"/>
          <path d="M327,118.89c3.67-3.41,3.73-9.36-.33-12.48-3.81-3.13-10.03-1.63-12.06,2.85,0,0-.19-.46-.19-.46,3.92,1.33,7.53,3.68,10.16,6.91.66.75,1.33,1.61,1.93,2.42.14.19.42.53.48.77h0ZM326.96,119.24c-.46-.44-.96-1.19-1.39-1.67-2.98-3.72-6.77-6.7-11.37-8.14,0,0-.35-.12-.35-.12l.16-.34c2.96-6.52,12.39-6.54,15.46-.1,1.74,3.47.74,8.17-2.51,10.37h0Z"/>
          <path d="M313.87,108.82c3.41-8.12-6.19-15.19-12.77-9.22-1.78,1.67-2.77,4.22-2.42,6.66l-.31-.29c5.22.34,10.62.95,15.51,2.85h0ZM314,109.15c-5.2-1.54-10.53-2.32-15.94-2.53-1.11-5.63,4.34-10.93,9.94-9.77,5.5.82,8.94,7.48,6.01,12.3h0Z"/>
          <path d="M333.76,134.45c-2.52-9.28-7.4-18.99-16.15-23.71-14.39-6.54-33.34-4.56-48.49-1.58-6.43,1.38-12.78,3.16-18.91,5.56-6.23,1.97-11.96,5.63-15.85,10.95-7.82,10.7-8.78,24.87-7.34,37.67,0,0-.39-.32-.39-.32,11.66-.58,22.83-5.53,31.31-13.53,8.59-7.92,14.98-17.87,20.79-27.94,0,0,.27-.47.27-.47l.23.49c2.37,5.12,5.87,9.69,10.1,13.42,12.88,11.22,30.84,15.21,47.59,13.94,0,0-.18.23-.18.23-.94-4.92-1.71-9.88-2.99-14.71h0ZM334.11,134.36c1.3,4.85,2.08,9.82,3.04,14.73,0,0,.04.21.04.21,0,0-.22.02-.22.02-16.87,1.33-34.95-2.66-47.97-13.94-4.29-3.76-7.85-8.39-10.27-13.57l.5.02c-8.63,15.02-19.03,30.66-35.45,37.87-5.39,2.37-11.22,3.68-17.09,4.06l-.35.02-.04-.35c-2.25-17.42,1.38-39.46,19.08-47.48,19.48-7.96,42.08-12.37,63.01-8.69,4.82,1.03,9.78,2.55,13.57,5.85,6.2,5.56,10.11,13.27,12.15,21.25h0Z"/>
          <path d="M264.87,270.51c19.48,10.82,41.07,21.95,60.55,32.69,0,0-.17.31-.17.31-16.99-8.89-36.48-18.99-53.11-28.38,0,0-7.45-4.31-7.45-4.31l.18-.31h0Z"/>
          <path d="M296.28,281.79c8.88-8.96,19.16-17.02,25.15-28.35,0,0,.32.16.32.16-5.44,11.51-16.05,19.98-25.22,28.45,0,0-.25-.25-.25-.25h0Z"/>
          <path d="M269.83,241.65c13.54,8.33,30.24,9.99,39.14-5.56,0,0,.31.17.31.17l-1.48,2.44c-6.26,9.68-17.48,11.94-27.95,8.26-3.62-1.18-7.04-2.92-10.21-5.01l.19-.3h0Z"/>
          <path d="M379.55,86.64c7.87-2.32,16.73.15,22.7,5.67,0,0-.23.27-.23.27-6.21-4.99-14.54-7.32-22.38-5.6,0,0-.09-.34-.09-.34h0Z"/>
          <path d="M152.5,115.05c-8.48-.84-16.96,2.67-22.85,8.72,0,0-.26-.24-.26-.24,5.59-6.55,14.58-10.26,23.15-8.83,0,0-.04.35-.04.35h0Z"/>
          <path d="M296.54,546.8c1.76.87,5.02,1.72,6.94,2.35,21.36,6.22,42.91,12.07,64.55,17.18,2.08.49,4.69,1.02,6.52,1.25,2.68-3.95,6.73-12.77,4.8-17.39-3.13-5.27-7.08-10.11-10.7-15.06,0,0,.28.14.28.14-5.81-.09-11.51-.79-17.24-1.4-5.72-.65-11.42-1.41-17.12-2.21-11.39-1.67-22.79-3.32-33.98-6.1,0,0,.27-.15.27-.15-.98,3.56-1.92,7.12-2.78,10.71-.7,3.13-1.52,6.27-1.72,9.48,0,.43,0,.96.18,1.21h0ZM296.29,547.05c-.36-.53-.26-1-.28-1.47.05-1.4.3-2.77.54-4.14,1.06-5.52,2.5-10.94,3.95-16.36,11.22,2.76,22.72,4.38,34.16,6.01,11.42,1.47,22.94,3.18,34.45,3.48,3.03,3.99,6.05,7.98,8.92,12.1,1.48,2,2.97,4.41,2.55,7-.52,5.04-2.59,9.69-5.22,13.97,0,0-.33.4-.33.4-.19.15-.48.18-.7.15-16.74-3.14-33.09-8.16-49.54-12.51-8.13-2.26-16.89-4.73-24.96-7.28-.94-.36-2.65-.79-3.53-1.36h0Z"/>
          <path d="M400.26,113.63c10.89-10.8,18.42-25.32,19.67-40.7.92-17.83-8.56-4.07-10.26-6.87-.51-2.53.29-5.08.34-7.57.16-3.77.8-9.89-3.97-10.87-4-.92-5.14,2.49-6.4,5.51-.64,1.44-2.07,2.14-3.01.43-1.55-2.95-2.17-6.26-4.09-9-1.13-1.75-3.11-3.03-5.22-2.45-4.16,1.58-5.47,10.25-6.44,14.23-.88,4.31-1.49,8.68-2.24,13.04-.32,1.66-.52,3.32-1.2,4.9-.12.24-.36.67-.85.7-1.46-.24-2.28-2.02-3.12-3.01-2.4-3.12-7.37-12.42-12.02-10.43-1.68.82-3.07,2.18-3.83,3.91-2.46,6.09.89,13.18,2.42,19.13,0,0,3.71,12.72,3.71,12.72,0,0-.32-.05-.32-.05l.21-.31s.29.21.29.21c-.1.14-.32.46-.42.6,0,0-.11-.36-.11-.36l-3.79-12.68c-.98-3.81-3.06-8.93-3.33-12.85-.57-4.44,1.03-9.75,5.76-11.12,4.42-.62,7.73,5.13,10.05,8.16,1.13,1.5,2.56,3.98,3.94,5.19.41.28.59.46.84-.09.62-1.47.83-3.15,1.13-4.72,1.33-6.18,2.77-25.81,9.15-27.86,2.36-.69,4.77.78,6,2.73,1.93,2.71,2.65,6.2,4.11,9.04,1.35,2.35,2.41-2.49,3.09-3.4.99-2.24,3.44-3.48,5.84-2.85,7.52,1.61,3.48,13.73,4.08,18.85.02.03.03.04.04.07.02,0-.02-.01,0,0,.07,0,.17-.01.28-.04,2.45-.93,4.98-3.75,7.81-2.48,1.12.66,1.54,1.87,1.82,2.95.51,2.23.4,4.47.32,6.68-.47,6.65-2.35,13.13-4.96,19.24-3.45,8.19-8.77,15.44-15.06,21.68,0,0-.25-.25-.25-.25h0Z"/>
          <path d="M169.42,128.03l.11.21-.25-.07.73-.44c.74-6.38,2.18-14.33,3.32-21.21,1.12-6.09,2.93-13.65-1.77-18.66-2.42-2.11-5.02-2.98-7.53-.42-1.69,1.62-2.94,3.7-4.12,5.76-1.18,2.08-2.21,4.24-3.41,6.35-.6.99-2.06,3.7-3.26,1.9-2.5-5.32-3.44-11.27-5.36-16.79-1.48-4.5-2.95-9.16-5.61-13.09-3.47-5.3-8.22-2.34-9.68,2.74-1.64,4.21-2.03,14.58-6.85,5.19-.61-.99-1.34-1.93-2.33-2.43-1.94-.94-4.76-.21-6.05,1.52-.65.91-.94,2.06-1.06,3.22-.43,4.8,1.4,9.43,2,14.16.24,2.3-1.85,1.25-3.05.71-1.93-.77-4.58-2.4-6.39-.85-.75.76-1,1.98-1.08,3.13-.17,2.34.24,4.73.66,7.07,1.42,7.03,4.35,13.7,8.02,19.84,2.46,4.1,5.26,8.02,8.55,11.49,3.33,3.43,6.86,6.72,10.71,9.55l-.21.29c-3.91-2.83-7.45-6.1-10.83-9.53-8.16-8.8-14.29-19.75-16.83-31.52-.43-2.37-.85-4.77-.69-7.23.1-1.2.31-2.53,1.26-3.52,2.06-1.85,4.98-.16,7.09.71.66.27,1.3.63,1.97.66.13-.02.06.02.11-.04.07-.13.08-.45.06-.71-.65-4.63-2.43-9.32-2.03-14.26.12-1.22.42-2.49,1.17-3.55,1.52-2.02,4.62-2.84,6.93-1.75,1.18.6,1.97,1.65,2.62,2.68.98,1.48,2.57,5.64,3.64,1.9,1.04-3.38,1.45-7.21,3.49-10.28,1.21-1.9,3.54-3.12,5.79-2.55,1.56.42,2.72,1.74,3.59,2.97,1.4,2.02,2.4,4.24,3.29,6.48,2.66,6.71,4.3,13.79,6.46,20.63.36.98.72,2.35,1.38,3.08.17.23.68-.2,1-.64.35-.46.66-.96.96-1.47,2.63-4.2,5.64-12.95,10.96-13.97,2.5-.13,4.87,1.63,6.23,3.61,4.49,7.47.32,16.85-.56,24.82-.8,4.76-1.57,9.53-2.31,14.3,0,0-.07.04-.07.04-.12.08-.78.46-.89.53-.04-.08-.14-.27-.19-.36,0,0,.31-.18.31-.18h0Z"/>
          <g>
            <g>
              <g>
                <polygon class="cls-2" points="339.4 184.6 338.38 188.37 342.15 189.4 343.18 185.62 339.4 184.6"/>
                <path class="cls-8" d="M340.27,188.88c-1.04-.28-1.66-1.36-1.37-2.4.28-1.04,1.36-1.66,2.4-1.37,1.04.28,1.66,1.36,1.38,2.4-.28,1.04-1.36,1.66-2.4,1.37Z"/>
              </g>
              <g>
                <polygon class="cls-2" points="330.45 216.29 329.31 220 333.03 221.19 334.19 217.42 330.45 216.29"/>
                <path class="cls-8" d="M331.17,220.6c-1.03-.33-1.6-1.41-1.29-2.44.32-1.02,1.4-1.61,2.44-1.3,1.03.31,1.62,1.4,1.3,2.45-.32,1.04-1.42,1.62-2.45,1.29Z"/>
              </g>
              <g>
                <path class="cls-2" d="M304.03,226.63l-.65.37-.48.34c-.34.23-.58.44-.87.67-.54.44-1.05.88-1.55,1.31l2.57,2.95c.49-.42.97-.84,1.44-1.22.23-.17.47-.39.68-.52l.32-.22c.09-.05.16-.09.2-.12l-1.66-3.55Z"/>
                <path class="cls-8" d="M301.76,230.78c-.71-.81-.63-2.05.26-2.79.23-.18.48-.31.75-.39.28-.08.57-.1.83-.07.57.06,1.04.38,1.25.87.4,1.01.41,1.97-.37,2.64-.78.64-2.01.56-2.72-.26Z"/>
              </g>
              <g>
                <path class="cls-2" d="M275.71,230.72c-1.45.16-2.71.4-4.03.64l.72,3.85c1.25-.22,2.55-.47,3.7-.59l-.39-3.89Z"/>
                <path class="cls-8" d="M272.04,233.28c-.2-1.06.51-2.09,1.61-2.27,1.1-.19,2.17.58,2.25,1.65.09,1.08-.59,2.03-1.62,2.21-1.03.17-2.04-.53-2.24-1.59Z"/>
              </g>
              <g>
                <polygon class="cls-2" points="247.63 229.47 245.08 226.54 242.11 229.09 244.7 232.06 247.63 229.47"/>
                <path class="cls-8" d="M243.6,227.81c.82-.7,2.05-.61,2.75.2.7.81.62,2.04-.19,2.75-.81.72-2.05.64-2.77-.19-.72-.82-.62-2.06.2-2.76Z"/>
              </g>
              <g>
                <polygon class="cls-2" points="226.74 204.07 224.32 201 221.25 203.42 223.68 206.5 226.74 204.07"/>
                <path class="cls-8" d="M222.79,202.21c.85-.67,2.08-.52,2.75.32.67.85.52,2.08-.32,2.75-.85.67-2.08.53-2.75-.32-.67-.85-.52-2.08.32-2.75Z"/>
              </g>
              <g>
                <polygon class="cls-2" points="206.55 178.03 204.19 174.92 201.07 177.27 203.43 180.4 206.55 178.03"/>
                <path class="cls-8" d="M202.63,176.09c.86-.65,2.09-.48,2.74.38.65.86.48,2.09-.38,2.74-.86.65-2.09.49-2.74-.38-.65-.86-.48-2.09.38-2.74Z"/>
              </g>
              <g>
                <polygon class="cls-2" points="187.15 151.44 184.93 148.23 181.71 150.46 183.95 153.68 187.15 151.44"/>
                <path class="cls-8" d="M183.32,149.34c.89-.61,2.11-.39,2.72.49.61.89.39,2.1-.49,2.72-.89.62-2.1.4-2.72-.49-.62-.89-.4-2.11.49-2.72Z"/>
              </g>
              <g>
                <polygon class="cls-2" points="165.16 128.41 161.87 130.58 164.05 133.83 167.28 131.69 165.16 128.41"/>
                <path class="cls-8" d="M162.96,132.21c-.6-.89-.36-2.11.55-2.71.91-.6,2.12-.36,2.71.56.58.9.34,2.12-.55,2.71-.89.59-2.1.34-2.71-.55Z"/>
              </g>
              <g>
                <polygon class="cls-2" points="138.34 147.92 135.27 150.36 137.71 153.42 140.76 151 138.34 147.92"/>
                <path class="cls-8" d="M136.49,151.89c-.68-.84-.54-2.08.31-2.75.85-.68,2.08-.53,2.75.32.67.85.52,2.07-.32,2.75-.84.67-2.07.53-2.75-.31Z"/>
              </g>
              <g>
                <path class="cls-2" d="M129.47,178.72c.11.66.19,1.32.32,1.98l.41,1.96,3.83-.8-.39-1.87c-.12-.62-.2-1.25-.3-1.88l-3.86.61Z"/>
                <path class="cls-8" d="M132.11,182.26c-1.06.23-2.1-.47-2.32-1.56-.2-1.09.55-2.12,1.61-2.28,1.07-.16,2.05.55,2.24,1.58.21,1.03-.47,2.04-1.53,2.27Z"/>
              </g>
              <g>
                <path class="cls-2" d="M142.09,209.89c.86,1.02,1.69,2.09,2.59,3.06l2.93-2.6c-.88-.93-1.64-1.94-2.46-2.91l-3.06,2.44Z"/>
                <path class="cls-8" d="M146.15,211.66c-.8.71-2.08.66-2.78-.21-.71-.86-.6-2.1.25-2.77.85-.67,2.08-.56,2.74.24.65.82.6,2.01-.21,2.74Z"/>
              </g>
              <g>
                <polygon class="cls-2" points="166.43 232.74 169.53 235.15 171.92 232.05 168.85 229.67 166.43 232.74"/>
                <path class="cls-8" d="M170.72,233.6c-.66.86-1.89,1.01-2.75.35-.86-.67-1.01-1.9-.34-2.75.67-.84,1.9-1,2.74-.34.85.66,1,1.89.34,2.74Z"/>
              </g>
              <g>
                <polygon class="cls-2" points="193.29 252.13 196.56 254.31 198.72 251.05 195.48 248.88 193.29 252.13"/>
                <path class="cls-8" d="M197.64,252.68c-.6.9-1.81,1.15-2.71.54-.9-.6-1.14-1.82-.54-2.71.6-.9,1.82-1.14,2.71-.54.89.6,1.14,1.81.54,2.71Z"/>
              </g>
              <g>
                <path class="cls-2" d="M218.3,271.31c.55,1.12,1.06,2.27,1.53,3.44l3.62-1.47c-.5-1.25-1.05-2.48-1.65-3.7l-3.51,1.73Z"/>
                <path class="cls-8" d="M221.65,274.02c-1.01.4-2.13-.06-2.55-1.01-.43-.94,0-2.09.96-2.57.98-.49,2.15-.05,2.61.98.46,1.03-.03,2.2-1.03,2.6Z"/>
              </g>
              <g>
                <polygon class="cls-2" points="226.88 302.46 227.54 306.34 231.4 305.67 230.74 301.83 226.88 302.46"/>
                <path class="cls-8" d="M229.47,306c-1.06.19-2.07-.53-2.26-1.6-.18-1.07.53-2.08,1.6-2.25,1.07-.17,2.08.54,2.26,1.6.18,1.06-.54,2.07-1.6,2.25Z"/>
              </g>
              <g>
                <polygon class="cls-2" points="233.41 334.92 234.28 338.74 238.09 337.87 237.23 334.06 233.41 334.92"/>
                <path class="cls-8" d="M236.19,338.3c-1.05.24-2.1-.42-2.34-1.47-.24-1.06.42-2.1,1.47-2.34,1.05-.24,2.1.42,2.34,1.47.24,1.05-.42,2.1-1.47,2.34Z"/>
              </g>
              <g>
                <polygon class="cls-2" points="269.8 365.21 273.51 364.83 273.11 360.94 269.41 361.31 269.8 365.21"/>
                <path class="cls-8" d="M273.31,362.89c.11,1.07-.63,2.03-1.66,2.14-1.02.1-1.94-.69-2.05-1.76-.11-1.08.64-2.03,1.66-2.13,1.02-.1,1.94.68,2.05,1.76Z"/>
              </g>
              <g>
                <polygon class="cls-2" points="301.06 361.61 304.76 361.08 304.19 357.21 300.53 357.74 301.06 361.61"/>
                <path class="cls-8" d="M304.48,359.15c.16,1.07-.54,2.05-1.57,2.2-1.02.15-1.97-.6-2.12-1.67-.15-1.07.55-2.06,1.57-2.2,1.01-.15,1.96.6,2.12,1.67Z"/>
              </g>
              <g>
                <path class="cls-2" d="M332.08,355.45c1.21-.32,2.41-.66,3.61-1.01l-1.08-3.76c-1.18.34-2.37.67-3.56.99l1.02,3.78Z"/>
                <path class="cls-8" d="M335.15,352.56c.3,1.04-.27,2.11-1.26,2.39-1,.27-2.04-.35-2.32-1.39-.28-1.04.29-2.11,1.27-2.37.98-.28,2.02.34,2.32,1.37Z"/>
              </g>
              <g>
                <polygon class="cls-2" points="357.5 316.25 356.91 312.45 353.04 313.02 353.63 316.87 357.5 316.25"/>
                <path class="cls-8" d="M354.98,312.73c1.07-.15,2.06.57,2.22,1.62.16,1.05-.57,2.04-1.63,2.21-1.07.17-2.07-.55-2.23-1.62-.17-1.06.58-2.06,1.65-2.21Z"/>
              </g>
              <g>
                <polygon class="cls-2" points="356.4 284.02 356.46 280.15 352.54 280.09 352.49 283.97 356.4 284.02"/>
                <path class="cls-8" d="M354.5,280.12c1.08.02,1.94.89,1.93,1.96-.01,1.07-.9,1.92-1.98,1.91-1.08-.01-1.95-.89-1.93-1.96.01-1.07.9-1.93,1.98-1.91Z"/>
              </g>
              <g>
                <path class="cls-2" d="M357.52,251.54c.13-1.24.27-2.51.5-3.61l-3.82-.83c-.29,1.43-.43,2.73-.57,4.06l3.89.38Z"/>
                <path class="cls-8" d="M356.11,247.52c1.05.25,1.75,1.16,1.62,2.17-.14,1-1.08,1.77-2.16,1.66-1.07-.1-1.87-1.06-1.72-2.18.14-1.12,1.2-1.9,2.25-1.65Z"/>
              </g>
              <g>
                <polygon class="cls-2" points="373.16 224.36 375.3 221.12 372.04 218.97 369.9 222.19 373.16 224.36"/>
                <path class="cls-8" d="M373.67,220.05c.9.59,1.16,1.8.56,2.7-.59.89-1.8,1.13-2.7.53-.9-.6-1.15-1.8-.56-2.69.59-.89,1.79-1.13,2.7-.54Z"/>
              </g>
              <g>
                <polygon class="cls-2" points="390.76 196.73 392.76 193.38 389.38 191.41 387.4 194.72 390.76 196.73"/>
                <path class="cls-8" d="M391.07,192.4c.93.54,1.24,1.73.69,2.66-.55.92-1.75,1.22-2.68.67-.93-.55-1.24-1.75-.69-2.66.54-.91,1.74-1.21,2.68-.67Z"/>
              </g>
              <g>
                <polygon class="cls-2" points="405.43 167.06 406.37 163.14 402.54 162.36 401.67 165.98 405.43 167.06"/>
                <path class="cls-8" d="M404.45,162.75c1.06.21,1.71,1.26,1.45,2.35-.26,1.09-1.31,1.72-2.35,1.42-1.04-.31-1.69-1.36-1.45-2.35.24-.99,1.29-1.63,2.35-1.42Z"/>
              </g>
              <g>
                <path class="cls-2" d="M404.66,133.74c-.38-1.26-.75-2.54-1.19-3.78l-3.7,1.26c.43,1.19.77,2.4,1.14,3.61l3.76-1.08Z"/>
                <path class="cls-8" d="M401.61,130.59c1.01-.35,2.16.2,2.47,1.25.32,1.05-.27,2.15-1.31,2.44-1.04.29-2.13-.27-2.43-1.27-.3-1,.23-2.07,1.26-2.43Z"/>
              </g>
              <g>
                <polygon class="cls-2" points="393.73 107.35 390.16 105.83 388.64 109.44 392.19 110.95 393.73 107.35"/>
                <path class="cls-8" d="M389.4,107.63c.42-1,1.56-1.46,2.55-1.04.99.42,1.44,1.57,1.02,2.56-.43.99-1.56,1.46-2.55,1.04-.98-.42-1.44-1.56-1.02-2.56Z"/>
              </g>
              <g>
                <rect class="cls-2" x="354.39" y="121.51" width="3.57" height="3.91" transform="translate(143.16 434.49) rotate(-74.71)"/>
                <path class="cls-8" d="M355.71,125.19c-1.04-.28-1.68-1.29-1.42-2.24.26-.95,1.32-1.49,2.36-1.21,1.04.29,1.68,1.29,1.42,2.24-.26.95-1.32,1.49-2.36,1.21Z"/>
              </g>
              <g>
                <rect class="cls-2" x="346.55" y="150.58" width="3.57" height="3.91" transform="translate(111.35 449.93) rotate(-75.1)"/>
                <path class="cls-8" d="M347.88,154.26c-1.04-.28-1.69-1.27-1.43-2.23.25-.95,1.31-1.5,2.35-1.22,1.04.28,1.68,1.28,1.43,2.23-.25.95-1.31,1.5-2.35,1.22Z"/>
              </g>
              <g>
                <polygon class="cls-2" points="240.51 364.54 244.29 363.57 244.6 367.47 241.33 367.73 240.51 364.54"/>
                <polygon class="cls-8" points="244.45 365.52 244.42 365.32 244.38 365.13 244.33 364.95 244.26 364.77 244.18 364.61 244.08 364.45 243.98 364.31 243.86 364.18 243.7 364.12 243.54 364.06 243.36 364.02 243.18 364 242.99 363.99 242.8 364 242.6 364.02 242.41 364.06 242.21 364.12 242.03 364.19 241.86 364.27 241.7 364.37 241.55 364.48 241.42 364.6 241.29 364.73 241.18 364.87 241.09 365.01 241.05 365.09 241.01 365.16 240.98 365.24 240.95 365.32 240.93 365.4 240.91 365.48 240.89 365.56 240.88 365.64 240.87 365.72 240.87 365.81 240.88 365.89 240.89 365.97 240.9 366.06 240.92 366.14 240.94 366.22 240.97 366.3 241 366.38 241.04 366.45 241.08 366.52 241.12 366.59 241.17 366.66 241.23 366.72 241.28 366.78 241.34 366.84 241.4 366.89 241.47 366.95 241.54 366.99 241.61 367.04 241.76 367.12 241.89 367.24 241.95 367.29 242.02 367.34 242.09 367.39 242.17 367.43 242.24 367.46 242.32 367.5 242.39 367.53 242.47 367.55 242.55 367.57 242.63 367.59 242.71 367.6 242.8 367.6 242.88 367.61 242.96 367.6 243.05 367.59 243.13 367.58 243.21 367.56 243.29 367.54 243.37 367.51 243.45 367.47 243.52 367.44 243.59 367.4 243.66 367.35 243.73 367.3 243.79 367.25 243.86 367.2 243.92 367.14 243.97 367.07 244.08 366.94 244.17 366.79 244.26 366.63 244.33 366.47 244.38 366.29 244.42 366.11 244.45 365.92 244.46 365.72 244.45 365.52"/>
              </g>
              <g>
                <path class="cls-2" d="M359.78,346.36l-.71-1.82-.36-.91-.18-.46-.09-.23-.04-.11-.02-.06v-.03s-.02-.01-.02-.01h0s0-.01,0-.01h0s0,0,0,0c-.01.02-.01.02-.02.02l3.84-.76.62,3.16-1.49.61-1.53.61Z"/>
                <path class="cls-8" d="M360.26,342.37l-.19.05-.19.06-.18.08-.17.09-.15.1-.14.11-.13.12-.12.13s0,0,0-.01h0s0,0,0,0h0s0,0,0,0h0s0,.03,0,.03v.04s-.03.08-.03.08l-.03.17-.02.18v.18s.01.19.01.19l.03.19.05.19.07.19.08.18.09.17.11.16.12.15.13.13.13.12.14.11.15.09.15.07.08.03.08.03.08.02.08.02h.08s.08.02.08.02h.08s.08,0,.08,0h.08s.08-.01.08-.01h.08s.08-.03.08-.03l.08-.03.08-.03.08-.03.07-.04.07-.04.07-.05.06-.05.06-.05.06-.06.05-.06.05-.06.05-.07.04-.07.04-.07.04-.07.03-.08.06-.16.1-.14.04-.07.04-.07.04-.07.03-.08.03-.08.02-.08.02-.08.02-.08v-.08s.02-.08.02-.08v-.08s0-.08,0-.08v-.08s-.02-.08-.02-.08l-.02-.08-.02-.08-.03-.08-.03-.07-.04-.07-.04-.07-.04-.07-.05-.06-.05-.06-.06-.06-.06-.06-.06-.05-.07-.05-.07-.05-.15-.09-.16-.07-.17-.06-.17-.05-.18-.03-.19-.02h-.19s-.2.01-.2.01l-.2.03Z"/>
              </g>
              <g>
                <path class="cls-2" d="M365.94,95.82l-.74,1.81-.37.91-.18.45-.09.23-.05.11-.02.06v.03s-.02.01-.02.01h0s0,.01,0,.01h0s0,0,0,0c.4-.27.38-.26.6-.4l-3.73-1.17.07-.22.1-.28.21-.55.23-.54v-.02s.02-.02.02-.02l.02-.02.03-.05.06-.09.13-.19.9-1.24,2.84,1.16Z"/>
                <path class="cls-8" d="M363.2,98.45l.19.05.19.04.19.02h.19s.35,0,.35,0h.31c-.23.11-.23.1-.35.17h0s0,0,0,0h0s0,0,0,0h0s.02-.02.02-.02l.04-.02.07-.05.14-.11.13-.12.12-.13.12-.15.11-.16.09-.17.08-.18.07-.19.05-.19.04-.19.02-.19v-.18s0-.18,0-.18l-.02-.17-.04-.17-.05-.16-.03-.08-.04-.07-.04-.07-.04-.07-.04-.06-.05-.06-.05-.06-.05-.06-.06-.05-.06-.05-.06-.04-.07-.04-.07-.04-.07-.03-.07-.03-.07-.02-.08-.02h-.08s-.08-.02-.08-.02h-.08s-.08,0-.08,0h-.08s-.08.02-.08.02l-.08.02-.08.02-.08.02-.08.03-.08.03-.15.08h-.17s-.08.03-.08.03l-.08.02-.08.02-.08.02-.07.03-.07.03-.07.04-.07.04-.06.04-.06.05-.06.05-.06.05-.05.06-.05.06-.05.08-.05.08-.04.08-.04.08-.02.04v.02s-.01,0-.01,0h0s0,.01,0,.01h0s-.02.13-.02.13l-.02.11v.11s-.02.11-.02.11v.11s0,.11,0,.11v.11s.03.1.03.1l.02.1.03.1.03.09.04.09.04.09.05.08.05.08.06.07.06.07.07.07.03.03.04.03.16.1.17.09.18.08.19.07Z"/>
              </g>
            </g>
            <g>
              <text class="cls-6" transform="translate(226.47 372.66)"><tspan x="0" y="0">1</tspan></text>
              <text class="cls-6" transform="translate(213.24 326.35)"><tspan x="0" y="0">2</tspan></text>
              <text class="cls-6" transform="translate(199.04 280.02)"><tspan x="0" y="0">3</tspan></text>
              <text class="cls-6" transform="translate(159.58 249.72)"><tspan x="0" y="0">4</tspan></text>
              <text class="cls-6" transform="translate(122.3 211.01)"><tspan x="0" y="0">5</tspan></text>
              <text class="cls-6" transform="translate(113.73 163.37)"><tspan x="0" y="0">6</tspan></text>
              <text class="cls-6" transform="translate(163.24 150.09)"><tspan x="0" y="0">7</tspan></text>
              <text class="cls-6" transform="translate(180.61 179.3)"><tspan x="0" y="0">8</tspan></text>
              <text class="cls-6" transform="translate(216.4 226.8)"><tspan x="0" y="0">9</tspan></text>
              <text class="cls-6" transform="translate(249.96 256.94)"><tspan x="0" y="0">10</tspan></text>
              <text class="cls-6" transform="translate(318.97 246.61)"><tspan x="0" y="0">11</tspan></text>
              <text class="cls-6" transform="translate(344.69 204.84)"><tspan x="0" y="0">12</tspan></text>
              <text class="cls-6" transform="translate(359.22 146.61)"><tspan x="0" y="0">13</tspan></text>
              <text class="cls-6" transform="translate(372.18 112.83)"><tspan x="0" y="0">14</tspan></text>
              <text class="cls-6" transform="translate(412.64 138.12)"><tspan x="0" y="0">15</tspan></text>
              <text class="cls-6" transform="translate(405.5 192.19)"><tspan x="0" y="0">16</tspan></text>
              <text class="cls-6" transform="translate(372.2 244.39)"><tspan x="0" y="0">17</tspan></text>
              <text class="cls-6" transform="translate(365.55 296.58)"><tspan x="0" y="0">18</tspan></text>
              <text class="cls-5" transform="translate(368.98 350.05) rotate(-1.41)"><tspan x="0" y="0">19</tspan></text>
              <text class="cls-5" transform="translate(296.18 382.07) rotate(-1.41)"><tspan x="0" y="0">20</tspan></text>
            </g>
          </g>
          <path d="M330.27,353.75c27.17,2.28,54.02,7.71,80.36,14.65,15.3,7.45,12.18,28.02,8.89,41.68-1.24,4.94-2.81,9.79-4.54,14.58l-.05-.19s-.22.27-.22.27c0,0-.09-.08-.1-.08,0,0,.04-.12.04-.12,1.68-4.79,3.19-9.65,4.37-14.58,3.16-13.44,6.15-33.63-8.59-40.89-19.74-5.2-39.74-9.52-59.94-12.52-6.73-.99-13.49-1.86-20.27-2.46,0,0,.03-.34.03-.34h0Z"/>
          <path d="M409.51,328.74c-16.89,1.91-33.62,5-50.23,8.52,0,0,.21-.31.21-.31,0,0,1.26,6.97,1.26,6.97l-.35.07-1.45-6.93-.05-.26.26-.06c8.3-1.86,16.63-3.62,25.01-5.04,8.39-1.39,16.82-2.64,25.3-3.31l.03.35h0Z"/>
          <path d="M245.77,365.44c-.6,12.63-.03,25.34,1.62,37.87.92,6.21,1.98,12.56,4.59,18.29,1.32,2.86,3.57,5.16,5.66,7.49,6.41,6.78,14.53,12.7,23.9,14.22,6.33,1.19,12.44-1.06,18.39-2.98,12.06-3.9,23.92-8.39,36.2-11.6,0,0,.77-.2.77-.2-.94,1.73-2.19,3.84-3.15,5.53-6.35,11.32-11.46,23.29-16.45,35.25-5.58,13.73-10.8,27.66-14.89,41.91-.99,3.96-2.42,8.02-2.32,12.12.05.21.08.44.21.51,0,0,.15.07.15.07l.31.13c9.67,3.16,19.89,4.37,29.9,6.06,7.34,1.11,14.69,2.1,22.06,2.98,5.52.64,11.06,1.26,16.6,1.58,1.52.05,3.19.26,4.65-.08,1.11-1.63,1.49-3.76,2.13-5.66.52-1.78,1.01-3.57,1.5-5.36,6.77-24.96,13.15-50.63,25.79-73.39,9.14-18.21,25.22-54.71,15.01-73.93-1.72-3.2-4.77-5.88-7.92-7.32-6.61-1.61-13.25-3.11-19.9-4.57-19.95-4.28-40.01-8.37-60.35-10.27,0,0,.03-.35.03-.35,20.36,1.89,40.43,5.96,60.4,10.23,6.65,1.45,13.29,2.96,19.92,4.56,1.72.79,3.32,1.84,4.71,3.12,17.23,16.65-2.36,60.7-11.47,78.77-12.6,22.74-18.95,48.37-25.69,73.31-1.04,3.6-1.81,7.22-3.34,10.67-.12.22-.22.43-.48.65-1.48.57-3.44.18-5.02.19-5.57-.32-11.11-.94-16.64-1.57-14.75-1.79-29.47-3.79-44.03-6.83-2.84-.65-5.72-1.23-8.43-2.34,0,0-.16-.07-.16-.07-.09-.04-.17-.11-.24-.17-.52-.68-.35-1.52-.35-2.26.36-3.74,1.39-7.33,2.36-10.93,4.1-14.29,9.3-28.23,14.88-41.99,5.69-13.71,11.6-27.42,19.24-40.17,0,0,.38.5.38.5-12.24,3.18-24.13,7.66-36.17,11.55-6,1.94-12.29,4.2-18.69,2.97-9.55-1.58-17.7-7.56-24.19-14.46-2.12-2.37-4.38-4.71-5.72-7.63-2.64-5.82-3.67-12.18-4.59-18.45-.85-6.29-1.33-12.61-1.59-18.95-.24-6.33-.3-12.68.07-19.01,0,0,.35.02.35.02h0Z"/>
          <path class="cls-1" d="M303.57,169.9c0,2.93-2.38,5.31-5.31,5.31s-5.31-2.38-5.31-5.31,2.38-5.31,5.31-5.31,5.31,2.38,5.31,5.31Z"/>
          <path d="M262.06,160.37c9.95-2.64,19.92,6.33,17.76,16.54-.84,6.1-5.31,10.78-11.56,11.24-5.63.33-12.12-.6-15.91-5.22-6.6-8.17.39-20.43,9.71-22.56h0ZM262.14,160.72c-11.44,2.86-17.32,19.32-4.92,25.13,3.4,1.51,7.28,1.82,10.97,1.57,5.93-.39,10.2-4.8,11.04-10.59,2.18-9.86-7.45-18.58-17.08-16.1h0Z"/>
          <path d="M309.5,154.76c-9.89-1.13-18.22,8.82-14.71,18.29,1.62,5.62,6.45,9.41,12.38,8.98,3.69-.26,7.49-1.1,10.65-3.06,11.48-7.44,3.4-22.95-8.32-24.21h0ZM309.54,154.41c12.25,1.24,20.47,17.31,8.63,25.11-8.84,5.09-20.58,5.08-23.96-6.29-3.53-9.82,5.11-20.07,15.33-18.82h0Z"/>
        </g>
        <g>
          <g>
            <g>
              <g>
                <path class="cls-2" d="M332.23,428.44c-1.22.47-2.44.92-3.65,1.41l1.43,3.64c1.19-.48,2.39-.92,3.59-1.38l-1.38-3.66Z"/>
                <path class="cls-8" d="M329.3,431.67c-.4-1,.09-2.15,1.11-2.53,1.01-.39,2.14.12,2.51,1.13.38,1.01-.12,2.14-1.11,2.52-.99.37-2.11-.12-2.51-1.12Z"/>
              </g>
              <g>
                <path class="cls-2" d="M302.37,442.67c-1.11.71-2.22,1.42-3.31,2.18l2.22,3.22c1.03-.73,2.1-1.41,3.17-2.09l-2.08-3.31Z"/>
                <path class="cls-8" d="M300.18,446.46c-.61-.88-.39-2.12.53-2.72.92-.59,2.13-.33,2.71.58.57.92.32,2.12-.56,2.68-.87.57-2.06.34-2.68-.55Z"/>
              </g>
              <g>
                <path class="cls-2" d="M278.33,465.67c-.76,1.08-1.58,2.13-2.22,3.29l3.31,2.09c.61-1.11,1.39-2.11,2.12-3.14l-3.2-2.24Z"/>
                <path class="cls-8" d="M277.77,470c-.9-.56-1.24-1.83-.59-2.72.64-.9,1.88-1.12,2.76-.49.88.62,1.11,1.81.5,2.66-.62.84-1.73,1.14-2.67.55Z"/>
              </g>
              <g>
                <polygon class="cls-2" points="264.53 495.89 263.53 499.7 267.33 500.61 268.31 496.92 264.53 495.89"/>
                <path class="cls-8" d="M265.43,500.15c-1.05-.25-1.68-1.3-1.4-2.36.28-1.06,1.35-1.68,2.39-1.39,1.04.29,1.67,1.34,1.4,2.36-.27,1.02-1.34,1.64-2.39,1.39Z"/>
              </g>
              <g>
                <path class="cls-2" d="M259.52,528.58c-.09,1.3-.12,2.6-.18,3.91l3.91.17c.06-1.28.08-2.57.17-3.84l-3.91-.23Z"/>
                <path class="cls-8" d="M261.3,532.57c-1.08-.04-1.92-.96-1.88-2.04.03-1.08.97-1.9,2.05-1.84,1.07.06,1.89.97,1.86,2.04-.04,1.06-.95,1.88-2.03,1.84Z"/>
              </g>
              <g>
                <polygon class="cls-2" points="259.45 561.49 259.62 565.37 263.52 565.2 263.36 561.33 259.45 561.49"/>
                <path class="cls-8" d="M261.57,565.29c-1.08.05-1.99-.78-2.04-1.86-.05-1.07.79-1.98,1.87-2.02,1.08-.04,1.99.79,2.04,1.86s-.79,1.97-1.87,2.02Z"/>
              </g>
              <g>
                <polygon class="cls-2" points="260.89 594.21 261.05 598.09 264.96 597.88 264.8 594 260.89 594.21"/>
                <path class="cls-8" d="M263,597.98c-1.08.06-1.99-.77-2.03-1.84-.04-1.07.8-1.98,1.87-2.04,1.08-.06,1.99.76,2.03,1.84s-.8,1.98-1.87,2.04Z"/>
              </g>
              <g>
                <path class="cls-2" d="M262.53,626.94c.09,1.3.18,2.59.31,3.89l3.9-.34c-.13-1.28-.22-2.56-.31-3.85l-3.9.3Z"/>
                <path class="cls-8" d="M264.79,630.66c-1.07.09-2.04-.7-2.12-1.77-.08-1.07.73-2.01,1.81-2.09,1.08-.08,2.01.71,2.09,1.78.08,1.06-.7,2-1.78,2.09Z"/>
              </g>
              <g>
                <polygon class="cls-2" points="266.99 659.61 267.87 663.44 271.67 662.51 270.81 658.77 266.99 659.61"/>
                <path class="cls-8" d="M269.77,662.97c-1.05.26-2.1-.39-2.34-1.45-.25-1.06.41-2.11,1.47-2.33,1.06-.23,2.1.42,2.34,1.45.24,1.03-.42,2.07-1.47,2.33Z"/>
              </g>
              <g>
                <polygon class="cls-2" points="278.39 690.77 280.38 694.21 283.7 692.13 281.8 688.85 278.39 690.77"/>
                <path class="cls-8" d="M282.04,693.17c-.91.58-2.1.27-2.65-.68-.55-.95-.23-2.15.71-2.68.94-.53,2.13-.22,2.65.68.52.9.2,2.1-.71,2.68Z"/>
              </g>
              <g>
                <path class="cls-2" d="M300.55,715.92c.62.36,1.28.62,1.92.93.65.29,1.32.49,1.98.73l1.2-3.72c-.55-.21-1.12-.37-1.66-.61-.52-.26-1.07-.47-1.57-.76l-1.87,3.43Z"/>
                <path class="cls-8" d="M305.05,715.71c-.31,1.02-1.48,1.58-2.58,1.13-1.09-.5-1.53-1.68-.99-2.64.52-.91,1.65-1.36,2.51-.96.88.36,1.38,1.43,1.06,2.48Z"/>
              </g>
              <g>
                <path class="cls-2" d="M334.15,716.77c1.32-.4,2.62-.87,3.88-1.46l-1.63-3.56c-1.08.51-2.22.91-3.37,1.27l1.12,3.75Z"/>
                <path class="cls-8" d="M337.22,713.53c.46.96-.01,2.2-1.11,2.58-1.09.4-2.22-.16-2.52-1.21-.29-1.02.23-2.11,1.15-2.45.93-.32,2,.1,2.47,1.09Z"/>
              </g>
              <g>
                <path class="cls-2" d="M355.01,691.19c.32-1.29.59-2.59.84-3.88l-3.84-.74c-.24,1.24-.5,2.48-.8,3.7l3.8.92Z"/>
                <path class="cls-8" d="M353.93,686.94c1.06.2,1.75,1.24,1.53,2.31-.24,1.08-1.31,1.74-2.35,1.48-1.05-.26-1.7-1.29-1.47-2.3.21-1.02,1.23-1.69,2.3-1.49Z"/>
              </g>
              <g>
                <polygon class="cls-2" points="358.55 658.31 358.68 654.42 354.77 654.31 354.64 658.17 358.55 658.31"/>
                <path class="cls-8" d="M356.72,654.37c1.08.03,1.93.93,1.9,2-.03,1.08-.94,1.92-2.02,1.88-1.08-.04-1.92-.93-1.89-2,.03-1.07.93-1.91,2.01-1.88Z"/>
              </g>
              <g>
                <path class="cls-2" d="M359.65,625.66c.07-1.28.15-2.57.27-3.85l-3.9-.3c-.12,1.3-.2,2.6-.27,3.9l3.9.25Z"/>
                <path class="cls-8" d="M357.97,621.66c1.08.08,1.87,1.01,1.8,2.07-.06,1.06-.99,1.87-2.07,1.8-1.08-.07-1.9-1-1.84-2.07.08-1.08,1.03-1.88,2.11-1.8Z"/>
              </g>
              <g>
                <polygon class="cls-2" points="364.22 593.7 364.71 591.87 365.29 590.08 361.57 588.86 360.96 590.76 360.44 592.68 364.22 593.7"/>
                <path class="cls-8" d="M363.43,589.47c1.02.34,1.6,1.42,1.28,2.4-.28,1-1.33,1.6-2.38,1.32-1.04-.28-1.67-1.37-1.37-2.43.34-1.05,1.45-1.63,2.48-1.29Z"/>
              </g>
              <g>
                <path class="cls-2" d="M381.55,569.34c.53-.28,1.12-.47,1.68-.68.58-.2,1.13-.45,1.72-.6l-1.16-3.74c-.66.17-1.29.45-1.94.68-.64.24-1.29.45-1.91.77l1.6,3.57Z"/>
                <path class="cls-8" d="M384.38,566.18c.3,1.02-.21,2.12-1.14,2.47-.47.18-.98.12-1.43-.07-.44-.18-.83-.54-1.05-1.03-.22-.49-.22-1.03-.03-1.52.2-.47.6-.84,1.14-1.04,1.07-.41,2.2.14,2.52,1.19Z"/>
              </g>
              <g>
                <polygon class="cls-2" points="412.95 566.1 416.81 566.26 416.98 562.35 413.09 562.19 412.95 566.1"/>
                <path class="cls-8" d="M416.9,564.31c-.05,1.08-.95,1.92-2.02,1.87-1.07-.05-1.9-.95-1.86-2.03.04-1.08.95-1.93,2.02-1.88,1.07.05,1.9.96,1.86,2.04Z"/>
              </g>
              <g>
                <path class="cls-2" d="M445.15,568.89c.61.14,1.23.27,1.83.42l1.8.51,1.1-3.75-1.93-.55c-.65-.17-1.3-.3-1.95-.45l-.86,3.82Z"/>
                <path class="cls-8" d="M449.33,567.95c-.31,1.03-1.36,1.65-2.35,1.37-1-.25-1.64-1.27-1.4-2.33.23-1.05,1.3-1.72,2.38-1.46,1.07.3,1.69,1.39,1.38,2.42Z"/>
              </g>
              <g>
                <path class="cls-2" d="M469.12,586.31c.26.55.49,1.12.69,1.7.2.58.45,1.14.61,1.74l3.72-1.2c-.18-.65-.45-1.28-.68-1.92-.22-.64-.47-1.27-.77-1.89l-3.58,1.57Z"/>
                <path class="cls-8" d="M472.29,589.16c-1.02.32-2.12-.2-2.48-1.14-.32-.96.11-2.04,1.1-2.49.98-.44,2.19.03,2.56,1.11.4,1.06-.14,2.19-1.19,2.52Z"/>
              </g>
              <g>
                <polygon class="cls-2" points="473.43 617.73 473.41 621.59 477.32 621.62 477.34 617.72 473.43 617.73"/>
                <path class="cls-8" d="M475.36,621.61c-1.08-.01-1.95-.88-1.94-1.95,0-1.06.88-1.93,1.96-1.93,1.08,0,1.96.87,1.96,1.95-.01,1.08-.9,1.94-1.98,1.93Z"/>
              </g>
              <g>
                <polygon class="cls-2" points="472.85 650.42 472.81 654.31 476.72 654.35 476.76 650.48 472.85 650.42"/>
                <path class="cls-8" d="M474.76,654.33c-1.08-.01-1.95-.89-1.93-1.96.01-1.07.9-1.93,1.98-1.92,1.08.02,1.95.89,1.93,1.96-.01,1.07-.9,1.93-1.98,1.92Z"/>
              </g>
              <g>
                <polygon class="cls-2" points="473.23 683.28 473.48 687.17 477.38 686.91 477.14 683.06 473.23 683.28"/>
                <path class="cls-8" d="M475.43,687.04c-1.08.07-2.01-.74-2.08-1.81-.06-1.08.75-2,1.84-2.06,1.08-.06,2,.75,2.07,1.81.07,1.06-.75,1.99-1.83,2.06Z"/>
              </g>
              <g>
                <path class="cls-2" d="M484.11,714.37c1.12.8,2.23,1.62,3.42,2.28l1.99-3.37c-1.07-.59-2.04-1.32-3.03-2.02l-2.38,3.1Z"/>
                <path class="cls-8" d="M488.53,714.97c-.53.92-1.79,1.25-2.74.59-.94-.67-1.16-1.9-.49-2.75.67-.85,1.87-1.07,2.67-.5.81.57,1.1,1.7.55,2.65Z"/>
              </g>
              <g>
                <path class="cls-2" d="M516.57,722.48c1.33-.2,2.68-.32,4-.63l-.76-3.84c-1.2.29-2.44.39-3.66.58l.42,3.89Z"/>
                <path class="cls-8" d="M520.19,719.93c.22,1.05-.49,2.14-1.61,2.27-1.12.16-2.11-.58-2.22-1.67-.11-1.06.62-2.06,1.63-2.2,1.01-.12,1.98.53,2.2,1.6Z"/>
              </g>
              <g>
                <path class="cls-2" d="M543.44,703.51c.45-1.27.82-2.52,1.19-3.77l-3.74-1.14c-.37,1.23-.73,2.46-1.15,3.63l3.7,1.27Z"/>
                <path class="cls-8" d="M542.76,699.18c1.03.31,1.62,1.41,1.3,2.44-.32,1.04-1.46,1.61-2.48,1.25-1.02-.36-1.57-1.43-1.26-2.43.31-1.01,1.39-1.58,2.43-1.27Z"/>
              </g>
              <g>
                <polygon class="cls-2" points="552.13 671.78 553.05 668 549.24 667.08 548.33 670.85 552.13 671.78"/>
                <path class="cls-8" d="M551.14,667.54c1.05.25,1.7,1.31,1.44,2.35s-1.31,1.68-2.36,1.42c-1.05-.26-1.7-1.31-1.44-2.35s1.31-1.68,2.36-1.42Z"/>
              </g>
              <g>
                <polygon class="cls-2" points="559.48 639.83 560.28 636.02 556.45 635.22 555.65 639.01 559.48 639.83"/>
                <path class="cls-8" d="M558.36,635.62c1.06.22,1.74,1.25,1.52,2.31-.22,1.05-1.27,1.72-2.32,1.49-1.06-.23-1.72-1.26-1.51-2.3.22-1.05,1.25-1.72,2.31-1.49Z"/>
              </g>
              <g>
                <polygon class="cls-2" points="565.84 607.66 566.53 603.84 562.67 603.15 561.99 606.96 565.84 607.66"/>
                <path class="cls-8" d="M564.6,603.49c1.06.19,1.77,1.2,1.58,2.26s-1.2,1.76-2.27,1.56c-1.06-.19-1.77-1.2-1.58-2.26.19-1.05,1.2-1.75,2.27-1.56Z"/>
              </g>
              <g>
                <polygon class="cls-2" points="571.13 575.29 571.69 571.44 567.82 570.91 567.26 574.74 571.13 575.29"/>
                <path class="cls-8" d="M569.75,571.17c1.07.15,1.81,1.13,1.66,2.19-.15,1.06-1.15,1.8-2.21,1.65-1.07-.15-1.81-1.14-1.66-2.19.15-1.06,1.14-1.79,2.21-1.65Z"/>
              </g>
              <g>
                <path class="cls-2" d="M575.06,542.71c.12-1.29.28-2.58.38-3.88l-3.9-.34c-.1,1.28-.25,2.57-.37,3.85l3.9.36Z"/>
                <path class="cls-8" d="M573.49,538.66c1.08.09,1.88,1.04,1.77,2.11-.11,1.07-1.07,1.86-2.14,1.75-1.08-.1-1.86-1.04-1.75-2.11.11-1.06,1.06-1.85,2.13-1.76Z"/>
              </g>
              <g>
                <polygon class="cls-2" points="577.07 509.92 577.17 506.02 573.25 505.95 573.16 509.81 577.07 509.92"/>
                <path class="cls-8" d="M575.21,505.99c1.08.02,1.93.91,1.91,1.98-.03,1.08-.92,1.92-2,1.89-1.08-.03-1.93-.92-1.91-1.98.03-1.07.92-1.91,2-1.89Z"/>
              </g>
              <g>
                <polygon class="cls-2" points="576.98 477.08 576.86 473.2 572.95 473.32 573.07 477.19 576.98 477.08"/>
                <path class="cls-8" d="M574.91,473.26c1.08-.04,1.98.81,2.02,1.88.04,1.07-.82,1.97-1.9,2-1.08.03-1.97-.81-2.01-1.88-.03-1.07.81-1.96,1.89-2Z"/>
              </g>
              <g>
                <polygon class="cls-2" points="575.84 444.39 575.78 440.53 571.87 440.57 571.93 444.47 575.84 444.39"/>
                <path class="cls-8" d="M573.82,440.55c1.08,0,1.97.85,1.98,1.91.01,1.06-.84,1.95-1.92,1.97-1.08.02-1.98-.83-1.99-1.91-.01-1.08.85-1.96,1.93-1.97Z"/>
              </g>
              <g>
                <polygon class="cls-2" points="579.27 412.93 580.04 411.31 580.95 409.78 577.67 407.66 576.59 409.47 575.69 411.35 579.27 412.93"/>
                <path class="cls-8" d="M579.31,408.72c.9.6,1.22,1.75.73,2.59-.42.88-1.57,1.25-2.56.83-.99-.42-1.4-1.62-.89-2.67.59-1.02,1.82-1.34,2.72-.75Z"/>
              </g>
              <g>
                <path class="cls-2" d="M604.57,397.88c1.24-.2,2.49-.37,3.75-.52l-.45-3.89c-1.31.16-2.62.34-3.93.55l.63,3.86Z"/>
                <path class="cls-8" d="M608.1,395.41c.12,1.07-.62,2.05-1.66,2.18-1.03.15-2.01-.58-2.19-1.65-.18-1.06.56-2.07,1.65-2.23,1.09-.14,2.07.62,2.19,1.69Z"/>
              </g>
              <g>
                <path class="cls-2" d="M637.3,393.14c.64-.28,1.27-.56,1.88-.9l.92-.49.89-.55-2.07-3.32-.76.47-.79.42c-.52.29-1.07.53-1.62.77l1.55,3.59Z"/>
                <path class="cls-8" d="M639.96,389.55c.58.9.27,2.18-.78,2.7-1.02.57-2.25.08-2.66-.9-.42-1.01,0-2.09.85-2.57.88-.43,2-.14,2.59.77Z"/>
              </g>
              <g>
                <path class="cls-2" d="M658.06,367c.5-1.23.87-2.5,1.32-3.75l-3.72-1.2c-.42,1.19-.77,2.41-1.25,3.57l3.66,1.38Z"/>
                <path class="cls-8" d="M657.51,362.65c1.03.33,1.58,1.44,1.22,2.48-.34,1.05-1.5,1.56-2.51,1.18-1.01-.39-1.5-1.48-1.19-2.47.33-.99,1.44-1.52,2.47-1.19Z"/>
              </g>
              <g>
                <path class="cls-2" d="M663.45,334.14c-.1-1.33-.15-2.66-.3-3.98l-3.89.4c.14,1.25.18,2.51.28,3.76l3.91-.17Z"/>
                <path class="cls-8" d="M661.2,330.36c1.09-.12,2.05.68,2.11,1.79.07,1.11-.74,2.04-1.82,2.08-1.08.04-2.01-.76-2.08-1.79-.05-1.04.73-1.96,1.79-2.08Z"/>
              </g>
              <g>
                <path class="cls-2" d="M652.54,302.58c-.81-1.09-1.77-2.05-2.7-3.04l-2.8,2.74c.84.9,1.72,1.77,2.45,2.76l3.05-2.46Z"/>
                <path class="cls-8" d="M648.45,300.9c.77-.76,2.02-.71,2.79.11.77.83.61,2.13-.22,2.79-.86.68-2.01.54-2.7-.19-.69-.73-.63-1.95.13-2.71Z"/>
              </g>
              <g>
                <polygon class="cls-2" points="623.59 286.16 619.83 285.18 618.86 288.97 622.6 289.95 623.59 286.16"/>
                <path class="cls-8" d="M619.34,287.08c.27-1.05,1.33-1.69,2.37-1.41,1.04.27,1.66,1.34,1.39,2.39-.27,1.05-1.33,1.67-2.36,1.4-1.03-.27-1.66-1.33-1.39-2.38Z"/>
              </g>
              <g>
                <polygon class="cls-2" points="591.63 278.67 587.81 277.89 587.05 281.73 590.84 282.5 591.63 278.67"/>
                <path class="cls-8" d="M587.43,279.81c.21-1.06,1.23-1.75,2.29-1.53s1.73,1.25,1.52,2.3c-.22,1.06-1.24,1.74-2.29,1.53-1.05-.21-1.72-1.24-1.52-2.3Z"/>
              </g>
              <g>
                <path class="cls-2" d="M543.58,292.34c-.95.08-1.88-.02-2.89-.29l-1.04,3.77c1.32.36,2.82.55,4.27.42l-.34-3.9Z"/>
                <path class="cls-8" d="M540.17,293.94c.14-.52.46-.95.83-1.23.18-.14.38-.24.57-.3.19-.08.39-.11.58-.08.75.09,1.46.9,1.6,1.97.14,1.08-.78,2.06-2.01,1.92-.3-.04-.58-.13-.81-.26-.22-.15-.41-.34-.55-.55-.28-.43-.35-.94-.21-1.47Z"/>
              </g>
              <g>
                <path class="cls-2" d="M532.5,270.6c-.08-.21-.22-.47-.37-.68-.18-.22-.39-.45-.62-.6-.24-.16-.49-.28-.7-.35-.24-.08-.43-.11-.61-.13-.73-.07-1.19.05-1.62.15-.81.23-1.44.51-2.05.81l1.74,3.5c.47-.24.95-.44,1.31-.53.15-.04.3-.04.17-.05-.03,0-.07-.01-.17-.04-.06-.03-.18-.07-.29-.15-.09-.08-.22-.17-.29-.29-.07-.08-.13-.21-.16-.28l3.67-1.37Z"/>
                <path class="cls-8" d="M527.41,271.55c-.47-.95-.17-2.17,1.18-2.57.66-.17,1.68-.11,2.41.68.33.38.4.84.27,1.1-.11.28-.34.42-.59.51-.25.09-.52.14-.72.26-.21.1-.32.34-.28.56.15.45.21.59-.09.67-.58.15-1.7-.24-2.18-1.22Z"/>
              </g>
              <g>
                <polygon class="cls-2" points="504.79 286.44 502.07 288.86 504.68 291.77 507.38 289.38 504.79 286.44"/>
                <path class="cls-8" d="M503.38,290.32c-.72-.8-.7-2,.05-2.67.75-.67,1.94-.55,2.66.26.71.81.69,2-.06,2.66-.74.66-1.93.55-2.65-.26Z"/>
              </g>
              <g>
                <path class="cls-2" d="M466.32,296.09c-1.19-.39-2.4-.69-3.63-.87l-.58,3.87c1.01.15,2.01.39,2.97.71l1.25-3.71Z"/>
                <path class="cls-8" d="M462.4,297.15c.08-.53.35-.99.73-1.3.38-.28.89-.4,1.39-.29,1.02.24,1.54,1.36,1.18,2.37-.37,1.03-1.28,1.62-2.09,1.44-.41-.09-.74-.38-.96-.79-.22-.39-.33-.89-.25-1.43Z"/>
              </g>
              <g>
                <path class="cls-2" d="M441.66,309.29c-.31,1.17-.52,2.36-.7,3.55l3.87.54c.16-1.05.34-2.1.61-3.12l-3.79-.96Z"/>
                <path class="cls-8" d="M442.9,313.11c-1.06-.14-1.84-1.06-1.64-2.05.18-.99,1.25-1.56,2.29-1.28,1.05.28,1.7,1.18,1.55,2.03-.18.85-1.12,1.44-2.2,1.3Z"/>
              </g>
              <g>
                <path class="cls-2" d="M449.47,337.51l.8.53.84.46c.56.32,1.15.56,1.74.8l1.44-3.64c-.46-.19-.92-.37-1.35-.62l-.65-.35-.61-.41-2.2,3.23Z"/>
                <path class="cls-8" d="M453.57,337.48c-.2.5-.56.88-1.01,1.08-.45.21-.98.2-1.45-.06-.97-.48-1.16-1.74-.54-2.6.63-.89,1.65-1.2,2.37-.86.35.2.59.56.72.98.12.43.11.96-.09,1.46Z"/>
              </g>
              <g>
                <path class="cls-2" d="M481.98,369.68c.24,1.41.5,2.81.8,4.21l3.83-.8c-.3-1.35-.55-2.72-.78-4.09l-3.85.67Z"/>
                <path class="cls-8" d="M484.7,373.5c-1.05.22-2.12-.54-2.35-1.7-.21-1.17.49-2.26,1.55-2.45,1.06-.18,2.09.58,2.29,1.72.22,1.13-.44,2.21-1.5,2.44Z"/>
              </g>
              <g>
                <path class="cls-2" d="M489.06,404.44c.14,1.37.22,2.74.29,4.11l3.91-.16c-.07-1.45-.16-2.89-.3-4.32l-3.89.37Z"/>
                <path class="cls-8" d="M491.3,408.47c-1.07.04-2-.85-2.07-1.98-.07-1.13.69-2.13,1.78-2.24,1.07-.11,2.05.77,2.13,1.97.07,1.2-.74,2.21-1.83,2.24Z"/>
              </g>
              <g>
                <path class="cls-2" d="M478.84,434.2c-.58.28-1.13.61-1.73.87l-1.81.72,1.28,3.7,2.12-.84c.7-.31,1.37-.69,2.05-1.03l-1.91-3.41Z"/>
                <path class="cls-8" d="M475.94,437.63c-.34-1.02.18-2.18,1.17-2.57.95-.45,2.13-.1,2.68.84.54.92.07,2.19-1.09,2.73-1.18.48-2.42.02-2.76-1.01Z"/>
              </g>
              <g>
                <polygon class="cls-2" points="447.47 430.7 445.88 429.45 444.35 428.12 441.73 431.02 443.39 432.46 445.12 433.83 447.47 430.7"/>
                <path class="cls-8" d="M443.04,429.57c.73-.8,2.01-.85,2.84-.12.87.69,1.05,1.94.41,2.81-.64.87-1.95.96-2.91.2-.92-.8-1.08-2.1-.35-2.89Z"/>
              </g>
              <g>
                <path class="cls-2" d="M561.76,273.65l-.22,1.94-.11.97-.05.49-.03.24v.12s-.02.06-.02.06v.03s0,.02,0,.02h0s0,.01,0,.01h0s0,0,0,0c-.02.04-.02.04-.03.06l-3.64-1.43.26-.69.24-.67.49-1.47,1.54.14,1.58.17Z"/>
                <polygon class="cls-8" points="559.47 276.88 559.66 276.94 559.85 276.99 560.04 277.02 560.23 277.04 560.41 277.04 560.59 277.02 560.76 276.99 560.93 276.95 560.95 276.91 560.95 276.91 560.95 276.91 560.95 276.91 560.96 276.9 560.98 276.88 561 276.85 561.06 276.79 561.16 276.65 561.26 276.49 561.34 276.33 561.41 276.16 561.47 275.98 561.52 275.79 561.55 275.59 561.56 275.39 561.56 275.19 561.54 275 561.51 274.82 561.46 274.64 561.4 274.47 561.33 274.31 561.29 274.24 561.25 274.16 561.15 274.03 561.1 273.96 561.04 273.9 560.98 273.84 560.92 273.79 560.86 273.74 560.79 273.69 560.72 273.65 560.65 273.61 560.58 273.58 560.51 273.55 560.43 273.52 560.35 273.5 560.27 273.49 560.18 273.48 560.1 273.47 560.02 273.47 559.95 273.48 559.87 273.49 559.79 273.51 559.72 273.53 559.64 273.55 559.57 273.58 559.5 273.61 559.43 273.65 559.36 273.69 559.29 273.73 559.23 273.78 559.16 273.84 559.04 273.95 558.89 274.02 558.81 274.05 558.74 274.09 558.68 274.14 558.61 274.18 558.55 274.23 558.49 274.29 558.43 274.34 558.38 274.4 558.33 274.46 558.29 274.53 558.25 274.59 558.21 274.66 558.18 274.73 558.15 274.81 558.14 274.87 558.12 274.94 558.11 275.01 558.1 275.08 558.1 275.15 558.1 275.23 558.11 275.37 558.13 275.45 558.15 275.52 558.17 275.6 558.2 275.67 558.26 275.82 558.34 275.96 558.44 276.1 558.55 276.24 558.67 276.37 558.81 276.49 558.96 276.6 559.12 276.7 559.29 276.8 559.47 276.88"/>
              </g>
              <g>
                <path class="cls-2" d="M489.68,310.12l-1.81-.74-.9-.37-.45-.19-.23-.09-.11-.05-.06-.02h-.03s-.01-.02-.01-.02h0s0,0,0,0h0s0,0,0,0c-.03.05-.03.05-.05.08l-1.62,3.56.98.44,1,.43,1.93.79.66-1.98.33-.9.37-.93Z"/>
                <path class="cls-8" d="M485.21,310.5l.04-.09.05-.09.05-.08.06-.08.06-.08.06-.07.07-.07.07-.07.07-.06.08-.06.08-.05.08-.05.08-.05.09-.04.09-.04.09-.03s.02-.03.03-.04h0s0,0,0,0h0s0,0,0,0h.01s.02-.02.02-.02l.05-.02.09-.04.09-.03.09-.03.09-.02.1-.02h.1s.1-.02.1-.02h.1s.1,0,.1,0h.1s.1.02.1.02l.1.02.1.02.09.03.09.04.09.04.09.05.09.05.08.05.08.06.08.06.07.06.07.07.06.07.06.07.06.08.05.08.05.08.05.08.04.09.04.09.07.18.03.09.02.09.02.09v.1s.02.1.02.1v.1s0,.1,0,.1v.1s-.01.1-.01.1v.1s-.05.19-.05.19l-.05.17-.04.1-.04.1-.04.1-.05.09-.05.09-.06.09-.06.08-.06.08-.07.08-.07.07-.07.07-.08.06-.08.06-.08.06-.08.05-.08.05-.09.03-.09.03-.1.02-.1.02h-.1s-.1.03-.1.03h-.1s-.1,0-.1,0h-.1s-.1-.01-.1-.01h-.1s-.1-.03-.1-.03l-.1-.02-.1-.03-.1-.03-.1-.04-.11-.05-.1-.05-.1-.05-.09-.06-.09-.06-.08-.06-.08-.07-.08-.07-.07-.07-.07-.08-.06-.08-.06-.08-.05-.08-.05-.09-.05-.09-.04-.09-.04-.09-.03-.09-.03-.09-.02-.09-.02-.09v-.1s-.02-.1-.02-.1v-.1s0-.1,0-.1v-.1s.02-.1.02-.1l.02-.1.02-.1.03-.09.03-.09.04-.09Z"/>
              </g>
              <g>
                <path class="cls-2" d="M476.9,335.54l.75,1.81.37.9.19.45.09.23.05.11.02.06v.03s.02.01.02.01h0s0,.01,0,.01h0s0,0,0,0c.59.26.57.25.89.39l3.91-.05-.02-2.01v-1.99s.11-4.07.11-4.07l-3.24,2.48-.29.2-.37.23-.79.44-.83.41-.86.37Z"/>
                <path class="cls-8" d="M481.24,339.52h-.1s-.1-.02-.1-.02l-.1-.02-.1-.03-.1-.04-.09-.05-.09-.06-.09-.07-.09-.08-.09-.09-.08-.1-.08-.11-.08-.11-.07-.12-.07-.13-.07-.14c-.34-.14-.33-.14-.52-.21h0s0,0,0,0h0s-.01,0-.01,0h-.02s-.04,0-.04,0h-.08s-.15-.01-.15-.01l-.15-.02-.14-.02-.13-.03-.13-.03-.12-.04-.11-.05-.1-.05-.1-.06-.09-.06-.08-.07-.07-.07-.06-.08-.05-.09-.04-.09-.03-.1-.02-.1v-.1s-.02-.1-.02-.1v-.11s.02-.11.02-.11l.02-.11.03-.11.04-.11.05-.11.05-.11.06-.11.07-.11.07-.11.17-.23.19-.23.21-.23.47-.45.26-.22.27-.22c.16-.12.33-.25.5-.37l.34-.24.34-.22.34-.2.34-.18.33-.15.33-.13.32-.1.31-.08.06.14.06.15.11.32.09.34.07.36.06.38.04.39.02.41v.42s-.02.4-.02.4l-.03.4-.05.38-.07.37-.08.35-.1.33-.11.31-.12.29-.07.13-.07.13-.07.12-.08.11-.08.11-.08.1-.08.09-.09.08-.09.07-.09.06-.09.06-.09.05-.1.04-.1.03-.1.02h-.1Z"/>
              </g>
            </g>
            <g>
              <text class="cls-6" transform="translate(575.1 270.6)"><tspan x="0" y="0">1</tspan></text>
              <text class="cls-6" transform="translate(627.02 280.02)"><tspan x="0" y="0">2</tspan></text>
              <text class="cls-6" transform="translate(670.14 304.36)"><tspan x="0" y="0">3</tspan></text>
              <text class="cls-6" transform="translate(670.14 372.66)"><tspan x="0" y="0">4</tspan></text>
              <text class="cls-6" transform="translate(630.39 413.64)"><tspan x="0" y="0">5</tspan></text>
              <text class="cls-6" transform="translate(589.77 438.62)"><tspan x="0" y="0">6</tspan></text>
              <text class="cls-6" transform="translate(592.61 478.93)"><tspan x="0" y="0">7</tspan></text>
              <text class="cls-6" transform="translate(596.74 531.71)"><tspan x="0" y="0">8</tspan></text>
              <text class="cls-6" transform="translate(589.77 589.23)"><tspan x="0" y="0">9</tspan></text>
              <text class="cls-6" transform="translate(582.5 646.05)"><tspan x="0" y="0">10</tspan></text>
              <text class="cls-6" transform="translate(562.6 705.53)"><tspan x="0" y="0">11</tspan></text>
              <text class="cls-6" transform="translate(499.21 745.18)"><tspan x="0" y="0">12</tspan></text>
              <text class="cls-6" transform="translate(450.98 707.67)"><tspan x="0" y="0">13</tspan></text>
              <text class="cls-6" transform="translate(447.76 640.15)"><tspan x="0" y="0">14</tspan></text>
              <text class="cls-6" transform="translate(435.8 598.89)"><tspan x="0" y="0">15</tspan></text>
              <text class="cls-6" transform="translate(400.61 596.21)"><tspan x="0" y="0">16</tspan></text>
              <text class="cls-6" transform="translate(372.2 613.7)"><tspan x="0" y="0">17</tspan></text>
              <text class="cls-6" transform="translate(377.79 655.16)"><tspan x="0" y="0">18</tspan></text>
              <text class="cls-5" transform="translate(372.18 705.6) rotate(-1.41)"><tspan x="0" y="0">19</tspan></text>
              <text class="cls-5" transform="translate(303.05 745.26) rotate(-1.41)"><tspan x="0" y="0">20</tspan></text>
              <text class="cls-5" transform="translate(248.1 700.33) rotate(-1.41)"><tspan x="0" y="0">21</tspan></text>
              <text class="cls-5" transform="translate(241.96 651.12) rotate(-1.41)"><tspan x="0" y="0">22</tspan></text>
              <text class="cls-5" transform="translate(236.07 569.69) rotate(-1.41)"><tspan x="0" y="0">23</tspan></text>
              <text class="cls-5" transform="translate(236.07 515.57) rotate(-1.41)"><tspan x="0" y="0">24</tspan></text>
              <text class="cls-5" transform="translate(258.57 463.59) rotate(-1.41)"><tspan x="0" y="0">25</tspan></text>
              <text class="cls-5" transform="translate(315.91 420.18) rotate(-1.41)"><tspan x="0" y="0">26</tspan></text>
              <text class="cls-5" transform="translate(447.45 460.45) rotate(-1.41)"><tspan x="0" y="0">27</tspan></text>
              <text class="cls-5" transform="translate(492.4 420.18) rotate(-1.41)"><tspan x="0" y="0">28</tspan></text>
              <text class="cls-5" transform="translate(492.4 350.06) rotate(-1.41)"><tspan x="0" y="0">29</tspan></text>
              <text class="cls-5" transform="translate(417.6 312.76) rotate(-1.41)"><tspan x="0" y="0">30</tspan></text>
              <text class="cls-5" transform="translate(499.19 317.04) rotate(-1.41)"><tspan class="cls-7" x="0" y="0">3</tspan><tspan class="cls-4" x="6.81" y="0">1</tspan></text>
              <text class="cls-5" transform="translate(518.22 296.65) rotate(-1.41)"><tspan x="0" y="0">32</tspan></text>
            </g>
          </g>
          <g>
            <path d="M282.34,463.19c-16.05-19.87-36.83-40.47-61.33-50.19-12.34-4.86-26.76-5.74-38.74.58-11.71,6.39-22.03,15.3-30.23,25.82-16.21,20.79-25.1,49.25-17.29,75.11,8.04,26.45,34.38,40.84,58.37,50.72,9.24,3.92,18.87,7,27.79,11.68,4.22,2.25,9.86,6.28,7.82,11.78-2.72,7.57-9.06,16.39-18.11,15.21-7.08-1.22-10.9-8.28-12.83-14.54-2.88-8.85-2.22-21.96-13.25-24.82-6.31-1.66-13.47-1.58-19.36,1.46-9.13,4.67-12.9,15.6-12.34,25.36,1,27.7,34.73,56.15,61.96,54.7,18.27-.6,36.87-19.93,48.72-32.7,0,0,.26.23.26.23-11.93,12.89-30.53,32.25-48.95,32.88-27.52,1.48-61.46-27.13-62.51-55.1-.37-7.53,1.52-15.48,6.62-21.22,3.95-4.46,9.81-7.01,15.74-7.2,6.55-.28,14.44.8,18.11,6.95,1.81,2.92,2.58,6.28,3.3,9.54,1.35,6.46,2.58,13.25,6.64,18.61,7.65,10,18.52,4.5,23.36-5.05,1.37-2.78,3.37-6.07,1.82-9.15-1.48-2.93-4.52-4.75-7.31-6.33-2.92-1.59-5.99-2.91-9.07-4.19-6.18-2.53-12.46-4.86-18.65-7.42-24.12-9.93-50.67-24.57-58.71-51.21-7.84-26.06,1.12-54.71,17.47-75.63,8.27-10.57,18.63-19.5,30.44-25.92,12.1-6.36,26.69-5.48,39.12-.55,18.81,7.38,34.48,20.89,48.35,35.27,4.62,4.88,9.06,9.92,13.17,15.25,0,0,0,.06,0,.06,0,0,0,.03,0,.03,0,0-.35,0-.35,0h0Z"/>
            <path d="M507.33,286.73c-5.49-17.86-19.25-38.29-40.22-36.68-19.51,2.22-37.08,15.39-46.74,32.2-9.67,17.09-12.65,37.69-9.28,56.96,2.14,13.34,9.32,24.38,20.07,32.44,5.16,4.03,10.82,7.36,16.34,10.94,3.34,2.32,7.18,4.63,8.91,8.49,1.4,3.98,1.73,16.75-2.08,19.22-2.59,1.2-4.41-2.58-5.77-4.19-1.91-2.68-3.7-5.43-5.81-7.92-6.25-8.18-15.84-7.27-15.84,4.16-.04,1.57.16,3.43.4,4.81,1.2,2.67,2.62,5.27,4.14,7.78,4.6,7.49,10.42,14.41,17.87,19.2,0,0-.18.29-.18.29-7.51-4.8-13.39-11.75-18.03-19.28-1.55-2.53-2.97-5.13-4.2-7.84-.31-1.64-.45-3.3-.44-4.96,0-11.89,10.15-12.94,16.65-4.47,2.14,2.52,3.94,5.28,5.85,7.94,1.2,1.39,2.98,4.98,5.1,4.03,3.48-2.42,3.14-14.78,1.81-18.55-1.7-3.72-5.46-5.95-8.71-8.21-5.5-3.56-11.19-6.88-16.4-10.93-10.89-8.13-18.2-19.33-20.4-32.82-3.4-19.43-.31-40.18,9.46-57.4,9.82-16.97,27.52-30.17,47.24-32.37,13.64-1.22,25.59,8.02,32.37,19.17,3.52,5.57,6.29,11.59,8.22,17.89,0,0-.33.09-.33.09h0Z"/>
            <path d="M559.84,275.38c1.46-6,18.66-73.14,10.62-70.62-3.25,2.14-5.3,5.76-7.56,8.91-1.76,2.65-3.44,5.36-5.07,8.09-9.7,16.39-18.5,33.75-26.96,50.59,0,0-.7,3.11-.7,3.11,0,0-.33-.09-.33-.09l.66-3.1c8.35-17.23,17.07-34.33,26.75-50.86,3.35-5.46,6.51-11.06,10.92-15.78,10.67-10.48,1.39,29.24.88,32.59-2.6,12.5-5.61,24.9-8.87,37.24l-.33-.09h0Z"/>
            <path d="M614.93,344.02s-5.36-14.74-9.65-12.06c-4.29,2.68,9.65,12.06,9.65,12.06Z"/>
            <path d="M623.51,344.02s-2.68-16.08,1.87-16.34c4.56-.27-1.87,16.34-1.87,16.34Z"/>
            <path d="M529.92,313.42c8.12-10.7,22.25-9.24,27.8,3.11,6.07,12.36.19,23.61-13.55,25.37-4.56.67-9.48-.48-12.91-3.65-3.3-3.18-5.59-7.54-5.9-12.14-.21-4.65,1.9-9.02,4.56-12.69h0ZM530.2,313.62c-2.59,3.63-4.64,7.92-4.4,12.47.32,4.44,2.62,8.74,5.82,11.76,3.34,3.04,8.06,4.09,12.47,3.42,13.16-1.75,18.9-12.58,13.11-24.49-5.31-12.07-19.01-13.52-26.99-3.16h0Z"/>
            <path d="M555.57,321.49c1.44,7.56-3.52,14.86-11.09,16.3-7.57,1.44-14.86-3.52-16.3-11.09-1.44-7.56,3.53-14.86,11.09-16.3,7.56-1.44,14.86,3.53,16.3,11.09Z"/>
            <path d="M589.52,293.98c1.44,7.56-3.52,14.86-11.09,16.3-7.57,1.44-14.86-3.53-16.31-11.09-1.44-7.56,3.53-14.86,11.09-16.3,7.57-1.44,14.86,3.53,16.3,11.09Z"/>
            <path class="cls-3" d="M585.6,399.62c-23.52-32.87-18.99-78.78,17.33-102.02,5.65-3.62,11.83-6.07,18.44-7.3"/>
            <path d="M523.54,306.33c1-5.54,5.46-9.31,11.07-6.95,0,0-.11.33-.11.33-5.58-1.65-9.03,1.59-10.63,6.71,0,0-.33-.09-.33-.09h0Z"/>
            <path d="M558.5,283.42c.61-4.38,4.21-6.69,8.27-4.54,0,0-.13.32-.13.32-4.06-1.41-6.59.37-7.81,4.3,0,0-.34-.08-.34-.08h0Z"/>
            <path d="M535.12,268.54c2.59,7.16,11,11.72,18.26,8.74,0,0,.14.32.14.32-5.39,2.66-12.22.76-15.95-3.84-1.26-1.5-2.21-3.25-2.77-5.11l.33-.11h0Z"/>
            <path d="M542.34,257.66c2.7,4.93,8.15,8.45,13.87,7.15,0,0,.08.34.08.34-5.83,1.92-11.97-1.92-14.26-7.32,0,0,.31-.16.31-.16h0Z"/>
            <path d="M548.34,256.82c1.75,1.34,3.68,2.21,5.9,2.36,0,0,.02.35.02.35-2.27.41-4.76-.66-6.16-2.46,0,0,.24-.25.24-.25h0Z"/>
            <path d="M549.17,239.17c3.23,5.17,9.39,8.36,15.48,6.76,0,0,.09.33.09.33-6.13,2.22-13.03-1.24-15.87-6.91,0,0,.3-.18.3-.18h0Z"/>
            <path d="M555.96,237.11c1.68.94,3.35,1.71,5.16,2.38,0,0-.07.34-.07.34-.99-.05-1.95-.37-2.86-.76-.89-.43-1.75-.96-2.44-1.68l.21-.27h0Z"/>
            <path d="M559.57,223.84c1.67.84,3.23,1.77,4.8,2.8,0,0-.15.31-.15.31-1.8-.57-3.47-1.54-4.85-2.83,0,0,.2-.28.2-.28h0Z"/>
            <path d="M563.58,215.8c1.21.44,2.29,1.13,3.22,2.01,0,0-.19.29-.19.29-.62-.2-1.16-.52-1.71-.84-.52-.35-1.05-.69-1.5-1.17l.18-.3h0Z"/>
            <path d="M564.48,363.4s-17.14-14.47-20.03-5.63c-2.88,8.84,20.03,5.63,20.03,5.63Z"/>
            <path d="M568.56,364.01c23.94,9.03,54.79,19.99,74.32-3.1,5.87-6.72,9.99-14.76,13.48-22.92,0,0,.32.13.32.13-3.37,8.25-7.42,16.39-13.34,23.19-12.98,15.4-31.2,16.33-49.49,11.58-8.69-2.16-17.11-5.25-25.41-8.55,0,0,.13-.32.13-.32h0Z"/>
            <path d="M482.56,319.85c-4.81-1.77-9.58-3.51-14.29-5.3-1.69-.59-3.53-1.54-5.34-1.54-4.61.16-6.77,5.7-5.58,9.68.85,4.06,4.2,5.91,8.09,6.35,5.01.65,10.17.03,15.12-.94,0,0-.2.2-.2.2l2.21-8.44h0ZM482.86,319.69s-2,8.73-2,8.73c0,0-.04.16-.04.16l-.16.04c-7.21,1.34-21.88,3.96-24.03-5.75-1.26-4.37,1.19-10.35,6.28-10.49,1.94.01,3.84,1,5.62,1.65,4.82,1.86,9.6,3.78,14.33,5.66h0Z"/>
            <path d="M444.4,407.16c4.02,5.69,9.48,11.15,16.55,12.43,12.67,1.87,18.17-11.28,12.65-21.41-1.58-3.12-3.79-6.05-6.44-8.32-5.65-4.34-12.87-6.06-19.73-7.63,0,0,.07-.34.07-.34,11.19,2.27,21.24,4.94,26.69,15.98,5.89,10.61-.14,24.34-13.35,22.31-7.27-1.35-12.76-6.95-16.74-12.84,0,0,.29-.19.29-.19h0Z"/>
            <path d="M482.21,370.42c-12.97-8.97-28.86-11.2-43.64-15.78-17.67-5.4-26.47-15.26-26.1-34.19,0,0,.35,0,.35,0-.01,18.7,8.45,28.24,25.97,33.5,11.09,3.54,22.75,5.6,33.45,10.41,3.56,1.61,6.99,3.52,10.17,5.79,0,0-.2.28-.2.28h0Z"/>
            <path d="M434.03,266.15c24.01-6.81,53.21-2.48,53.16,28.11-.02,3.41-.4,6.79-.97,10.14,0,0-.34-.06-.34-.06.51-3.34.81-6.71.77-10.07.12-19.81-13.61-30.13-32.51-30.29-6.75-.1-13.48.9-20.03,2.51,0,0-.09-.33-.09-.33h0Z"/>
            <path d="M495.33,270.54c2.72,6.21,3.66,13.2,2.69,19.91,0,0-.34-.04-.34-.04.31-5.01-.07-10.05-1.26-14.93-.39-1.62-.86-3.23-1.4-4.82,0,0,.32-.13.32-.13h0Z"/>
            <path d="M260.86,501.68c-5.48-6.01-11.81-12.14-19.85-14.27-9.33-2.45-15.52,4.92-15.51,13.78-.13,8.29,4.14,16.21,10.35,21.56,6.27,5.42,14.33,8.43,22.49,9.73l-.05.34c-16.6-1.99-33.43-13.52-33.52-31.64,0-9.27,6.66-16.97,16.38-14.36,8.22,2.21,14.51,8.44,19.97,14.64,0,0-.26.23-.26.23h0Z"/>
            <path d="M269.43,476.49c-16.81-20.75-43.33-50.21-72-32.46-23.9,15.05-39.17,57.21-32.1,84.31,3.3,13.76,15.2,21.11,27.31,26.57,9.58,4.5,19.77,8.09,28.26,14.58,0,0-.21.27-.21.27-8.48-6.44-18.66-9.99-28.23-14.45-12.25-5.48-24.28-12.9-27.67-26.82-7.2-27.56,7.94-69.69,32.32-84.99,9.55-5.85,20.22-7.12,30.78-3.25,7.52,2.77,14.19,7.42,20.19,12.66,8,7.03,14.95,15.12,21.62,23.36,0,0-.27.22-.27.22h0Z"/>
            <path d="M192.8,635.11c-6.75-8.31-34.14-38.1-17.41-46.03,5.71-2.48,12.08-1.94,18.1-1.41,0,0-.03.34-.03.34-3.02-.21-6.05-.42-9.06-.22-23.93.93-10.76,21.35-2.54,32.76,3.58,4.89,7.39,9.61,11.21,14.33,0,0-.27.22-.27.22h0Z"/>
            <path d="M233.2,476c-15.72,8.25-20.26,20.33-12.98,36.65,1.99,4.51,4.48,8.79,7.15,12.93,0,0-.29.19-.29.19-2.8-4.08-5.39-8.34-7.41-12.88-4.28-9.16-5.57-20.13,1.5-28.3,3.2-3.88,7.46-6.66,11.87-8.9l.16.31h0Z"/>
            <path d="M175.08,488.67c1.48-9.12,5.53-17.68,10.74-25.25,0,0,.29.19.29.19-3.55,5.87-6.7,12-8.85,18.52-.72,2.17-1.34,4.37-1.84,6.6,0,0-.34-.07-.34-.07h0Z"/>
            <path d="M244.77,625.8c8.98-14,13.76-30.06,9.09-46.48,0,0,.33-.09.33-.09,3.76,11.85,2.33,24.94-3.06,36.06-1.72,3.74-3.79,7.3-6.08,10.7,0,0-.29-.19-.29-.19h0Z"/>
            <path d="M377.65,543.01c11.97-15.55,41.59-62.91,64.58-46.33,19.25,15.18,23.78,56.95,28.17,80.16,0,0-.34.06-.34.06-4.6-22.89-9.2-64.7-28.25-79.63-18.48-13.21-40.39,15.86-50.89,28.72-4.45,5.65-8.72,11.43-12.99,17.23,0,0-.28-.2-.28-.2h0Z"/>
            <path class="cls-1" d="M538.93,331.66c0,2.93-2.38,5.31-5.31,5.31s-5.31-2.38-5.31-5.31,2.38-5.31,5.31-5.31,5.31,2.38,5.31,5.31Z"/>
            <path class="cls-1" d="M573.81,304.36c0,2.93-2.38,5.31-5.31,5.31s-5.31-2.38-5.31-5.31,2.38-5.31,5.31-5.31,5.31,2.38,5.31,5.31Z"/>
            <path d="M576.67,280.22c-12.57-.32-19.81,10.87-13.98,22.12,3.51,8.14,12.65,13.32,20.98,8.71,3.77-1.98,7.29-4.89,9.07-8.84,2.76-5.91.48-13.34-4.07-17.73-3.26-2.93-7.71-4-12-4.26h0ZM576.69,279.87c4.37.23,8.92,1.3,12.27,4.28,4.75,4.51,7.12,12.15,4.31,18.3-1.82,4.1-5.41,7.12-9.29,9.2-8.64,4.9-18.23-.56-21.83-9.06-5.88-11.64,1.6-23.12,14.54-22.72h0Z"/>
          </g>
        </g>
      </g>
    </g>
  </g>
</svg>