<?xml version="1.0" encoding="UTF-8"?>
<svg xmlns="http://www.w3.org/2000/svg" width="800" height="800" version="1.1" viewBox="0 0 800 800">
  <!-- Generator: Adobe Illustrator 28.7.3, SVG Export Plug-In . SVG Version: 1.2.0 Build 164)  -->
  <g>
    <g id="Camada_1">
      <path d="M345.97,125.96c14.45-35.51,35.03-52.27,61.05-49.7,28.99,2.86,46.73,20.49,51.98,51.68,27.69-18.23,51.9-18.22,73.36.03,22.41,19.06,24.64,37.32,8.95,73.34,33.18,13.18,48.95,32.81,48.57,61.35-.46,34.58-20.87,51.45-53.17,57.01,25.92,37.45,13.16,64.11-3.55,83.3-20.82,23.9-46.77,21.17-72.91,3.37-5.33,27.01-19.78,44.88-44.49,54.29-2.5.95-4.78,6-4.85,9.2-.44,20.33-.22,40.67-.22,60.93,5.11-6.74,10.7-14.71,16.9-22.18,31.17-37.54,70.17-59.36,120.02-58.5,22.36.39,27.46,6.59,24.79,28.67-8.58,70.77-72.55,129.94-146.81,135.8-4.26.34-8.5.77-14.51,1.32,0,21.89.08,43.14-.04,64.39-.05,9.23.48,18.63-1.21,27.58-.67,3.54-6.8,8.53-10.21,8.36-3.16-.16-8.45-6.25-8.6-9.89-.99-25.27-.83-50.58-1.17-75.88-.05-3.82-.79-7.64-1.24-11.72-33.19-5.17-65.75-10.93-93.66-30.48-36.75-25.74-61.4-59.3-65.88-105.16-2.41-24.7,5.39-32.93,30.35-32.34,56.67,1.35,95.63,30.45,121.95,78.89,2.17,4,4.36,7.98,9.39,11.27,0-24.1.17-48.21-.21-72.31-.05-3.15-2.29-8.24-4.68-9.07-24.09-8.39-34.03-27.48-38.74-51.94-27.04,16.33-54.03,20.97-76.19-3.51-22.23-24.56-26.59-53.38-7.55-83-31.51-9.06-51.27-29.83-53.11-55.68-2.53-35.6,18.94-52.79,45.91-61.43-.9-17.14-4.97-33.35-1.52-47.76,2.9-12.12,12.95-23.93,22.69-32.7,17.44-15.71,42.18-13.73,68.58,2.48ZM303.42,265.26c-.64,52.4,43.07,97.02,95.6,97.57,56.85.6,100.77-39.13,101.72-92,.94-52.51-44.34-97.64-98.46-98.12-53.4-.47-98.24,41.51-98.87,92.54ZM552.65,471.06c-6.49,0-11.76-.26-17,.04-32.52,1.89-59.85,15.84-83.39,37.39-25.31,23.17-25.24,58.12-42.03,86.87,84.18-3,134.76-57.76,142.43-124.3ZM389.96,593.57c-38.88-89.61-85.95-130.63-137.9-120.88-1.78,69.17,66.84,126.79,137.9,120.88ZM368.62,384.4c-.32,3.53-1.02,8.73-1.22,13.95-.61,16.62,4.44,30.28,19.97,38.8,12.76,7,24.39,5.04,34.8-4.09,13.21-11.61,20.23-26.04,15.25-43.87-.9-3.23-5.87-7.62-8.91-7.58-19.1.27-38.19,1.64-59.9,2.79ZM369.27,153.5h67.03c5.12-27.7.6-41.93-16.03-51.84-12.13-7.23-29.22-4.58-43.12,6.68-12.9,10.46-15.21,24.73-7.89,45.16ZM506.07,208c20.53-12.75,28.85-28.12,24.58-45.82-2.76-11.43-19.58-25.44-31.85-26.52-18.24-1.61-36.16,9.1-43.26,25.17,16.69,15.58,33.15,30.95,50.53,47.18ZM286.11,299.13c-1.46-11.57-3.89-22.1-3.79-32.59.1-10.55,2.06-21.23,4.46-31.55,1.78-7.67-.31-10.52-7.77-11.83-17.13-3-34.27,4-42.76,18.18-7.19,12.01-4.65,32.15,5.66,44.97,11.22,13.94,27.1,18.68,44.2,12.82ZM294.66,319.33c-16.75,10.45-23.95,28.15-19.92,45.99,4,17.69,17.96,31.98,32.48,33.26,16.26,1.43,37.17-10.76,44.19-27.19-24.94-9.82-44.12-26.84-56.76-52.06ZM295.96,206.67c19.19-16.28,36.99-31.38,55.91-47.43-14.72-12.35-26.76-28.98-49.93-23.47-14.15,3.37-25.78,15.09-27.82,28.6-3.03,20.04,6.46,33.45,21.84,42.3ZM456.01,373.69c6.15,14.74,24.43,26.27,41.61,24.92,14.24-1.12,26.79-14.51,30.67-32.76,4.14-19.45-1.24-32.21-14.97-40.04-19.49,16.28-38.19,31.9-57.31,47.88ZM517.5,225.9c1.75,26.19,3.36,50.45,5,75.08,17.56,2.69,32.2-3.46,40.26-17.96,8.4-15.1,6.44-32.91-5.06-46.07-12.4-14.18-24.44-17.05-40.21-11.05Z"/>
      <path d="M370.73,282.99c4.7,5.62,8.83,9.37,11.49,13.98,5.21,9.02,12.14,12.7,22.7,11.64,10.59-1.06,16.32-6.5,20.4-15.8,1.76-4.02,6.29-6.82,9.56-10.17,2.65,5.14,7.94,10.52,7.48,15.36-1.72,18.33-26.64,31.45-49.21,27.21-14.4-2.71-32.82-19.11-22.42-42.21Z"/>
      <circle cx="442.39" cy="249.51" r="18.26"/>
      <circle cx="365.14" cy="249.51" r="18.26"/>
    </g>
  </g>
</svg>