<?xml version="1.0" encoding="UTF-8"?>
<svg xmlns="http://www.w3.org/2000/svg" width="800" height="800" version="1.1" xmlns:xlink="http://www.w3.org/1999/xlink" viewBox="0 0 800 800">
  <defs>
    <style>
      .cls-1 {
        fill: url(#Degradado_sin_nombre_2-26);
      }

      .cls-2 {
        fill: url(#Degradado_sin_nombre_2-22);
      }

      .cls-3 {
        fill: url(#Degradado_sin_nombre_2-23);
      }

      .cls-4 {
        fill: url(#Degradado_sin_nombre_3-25);
      }

      .cls-5 {
        fill: url(#Degradado_sin_nombre_2-11);
      }

      .cls-6 {
        fill: #450500;
      }

      .cls-7 {
        fill: url(#Degradado_sin_nombre_3-16);
      }

      .cls-8 {
        fill: url(#Degradado_sin_nombre_2-14);
      }

      .cls-9 {
        fill: url(#Degradado_sin_nombre_2-24);
      }

      .cls-10 {
        fill: url(#Degradado_sin_nombre_3-3);
      }

      .cls-11 {
        fill: url(#Degradado_sin_nombre_3-12);
      }

      .cls-12 {
        fill: url(#Degradado_sin_nombre_2-21);
      }

      .cls-13 {
        fill: url(#Degradado_sin_nombre_2-4);
      }

      .cls-14 {
        fill: url(#Degradado_sin_nombre_2-20);
      }

      .cls-15 {
        fill: url(#Degradado_sin_nombre_2-12);
      }

      .cls-16 {
        fill: url(#Degradado_sin_nombre_2-8);
      }

      .cls-17 {
        fill: url(#Degradado_sin_nombre_2-7);
      }

      .cls-18 {
        fill: url(#Degradado_sin_nombre_2-15);
      }

      .cls-19 {
        fill: url(#Degradado_sin_nombre_3-22);
      }

      .cls-20 {
        fill: url(#Degradado_sin_nombre_3-5);
      }

      .cls-21 {
        fill: url(#Degradado_sin_nombre_3-17);
      }

      .cls-22 {
        fill: url(#Degradado_sin_nombre_3-26);
      }

      .cls-23 {
        fill: url(#Degradado_sin_nombre_2-6);
      }

      .cls-24 {
        fill: url(#Degradado_sin_nombre_3-2);
      }

      .cls-25 {
        fill: url(#Degradado_sin_nombre_2-9);
      }

      .cls-26 {
        fill: url(#Degradado_sin_nombre_3-24);
      }

      .cls-27 {
        fill: url(#Degradado_sin_nombre_2);
      }

      .cls-28 {
        fill: url(#Degradado_sin_nombre_2-10);
      }

      .cls-29 {
        fill: url(#Degradado_sin_nombre_3-9);
      }

      .cls-30 {
        fill: none;
        stroke: #450500;
        stroke-miterlimit: 10;
      }

      .cls-31 {
        fill: url(#Degradado_sin_nombre_3-28);
      }

      .cls-32 {
        fill: url(#Degradado_sin_nombre_2-19);
      }

      .cls-33 {
        fill: url(#Degradado_sin_nombre_2-13);
      }

      .cls-34 {
        fill: url(#Degradado_sin_nombre_3-11);
      }

      .cls-35 {
        fill: url(#Degradado_sin_nombre_3-13);
      }

      .cls-36 {
        fill: url(#Degradado_sin_nombre_3-18);
      }

      .cls-37 {
        fill: url(#Degradado_sin_nombre_2-27);
      }

      .cls-38 {
        fill: url(#Degradado_sin_nombre_3-6);
      }

      .cls-39 {
        fill: url(#Degradado_sin_nombre_2-5);
      }

      .cls-40 {
        fill: url(#Degradado_sin_nombre_3);
      }

      .cls-41 {
        fill: url(#Degradado_sin_nombre_3-14);
      }

      .cls-42 {
        fill: url(#Degradado_sin_nombre_3-23);
      }

      .cls-43 {
        fill: url(#Degradado_sin_nombre_3-7);
      }

      .cls-44 {
        fill: url(#Degradado_sin_nombre_2-3);
      }

      .cls-45 {
        fill: url(#Degradado_sin_nombre_3-10);
      }

      .cls-46 {
        fill: url(#Degradado_sin_nombre_3-29);
      }

      .cls-47 {
        fill: url(#Degradado_sin_nombre_2-17);
      }

      .cls-48 {
        fill: url(#Degradado_sin_nombre_3-19);
      }

      .cls-49 {
        fill: url(#Degradado_sin_nombre_3-21);
      }

      .cls-50 {
        fill: url(#Degradado_sin_nombre_2-18);
      }

      .cls-51 {
        fill: #592000;
        font-family: Gaegu-Regular, 'Gaegu Regular';
        font-size: 15.53px;
      }

      .cls-52 {
        fill: url(#Degradado_sin_nombre_2-16);
      }

      .cls-53 {
        fill: url(#Degradado_sin_nombre_3-30);
      }

      .cls-54 {
        fill: url(#Degradado_sin_nombre_3-27);
      }

      .cls-55 {
        fill: url(#Degradado_sin_nombre_3-20);
      }

      .cls-56 {
        fill: url(#Degradado_sin_nombre_3-4);
      }

      .cls-57 {
        fill: url(#Degradado_sin_nombre_2-25);
      }

      .cls-58 {
        fill: url(#Degradado_sin_nombre_2-2);
      }

      .cls-59 {
        fill: url(#Degradado_sin_nombre_3-15);
      }

      .cls-60 {
        fill: url(#Degradado_sin_nombre_3-8);
      }
    </style>
    <linearGradient id="Degradado_sin_nombre_2" data-name="Degradado sin nombre 2" x1="308.19" y1="445.87" x2="315.27" y2="445.87" gradientUnits="userSpaceOnUse">
      <stop offset=".16" stop-color="#b43e88"/>
      <stop offset=".39" stop-color="#c35499"/>
      <stop offset="1" stop-color="#ff7bae"/>
    </linearGradient>
    <linearGradient id="Degradado_sin_nombre_2-2" data-name="Degradado sin nombre 2" x1="305.85" y1="460.55" x2="312.93" y2="460.55" xlink:href="#Degradado_sin_nombre_2"/>
    <linearGradient id="Degradado_sin_nombre_2-3" data-name="Degradado sin nombre 2" x1="366.71" y1="439.87" x2="373.79" y2="439.87" xlink:href="#Degradado_sin_nombre_2"/>
    <linearGradient id="Degradado_sin_nombre_2-4" data-name="Degradado sin nombre 2" x1="281.8" y1="482.15" x2="288.87" y2="482.15" xlink:href="#Degradado_sin_nombre_2"/>
    <linearGradient id="Degradado_sin_nombre_2-5" data-name="Degradado sin nombre 2" x1="256.54" y1="507.4" x2="263.62" y2="507.4" xlink:href="#Degradado_sin_nombre_2"/>
    <linearGradient id="Degradado_sin_nombre_2-6" data-name="Degradado sin nombre 2" x1="229.59" y1="532.6" x2="236.67" y2="532.6" xlink:href="#Degradado_sin_nombre_2"/>
    <linearGradient id="Degradado_sin_nombre_2-7" data-name="Degradado sin nombre 2" x1="200.35" y1="557.7" x2="207.42" y2="557.7" xlink:href="#Degradado_sin_nombre_2"/>
    <linearGradient id="Degradado_sin_nombre_2-8" data-name="Degradado sin nombre 2" x1="212.69" y1="580.66" x2="219.77" y2="580.66" xlink:href="#Degradado_sin_nombre_2"/>
    <linearGradient id="Degradado_sin_nombre_2-9" data-name="Degradado sin nombre 2" x1="239.94" y1="593.46" x2="247.02" y2="593.46" xlink:href="#Degradado_sin_nombre_2"/>
    <linearGradient id="Degradado_sin_nombre_2-10" data-name="Degradado sin nombre 2" x1="341.59" y1="600.54" x2="348.67" y2="600.54" xlink:href="#Degradado_sin_nombre_2"/>
    <linearGradient id="Degradado_sin_nombre_2-11" data-name="Degradado sin nombre 2" x1="371.23" y1="582.1" x2="378.31" y2="582.1" xlink:href="#Degradado_sin_nombre_2"/>
    <linearGradient id="Degradado_sin_nombre_2-12" data-name="Degradado sin nombre 2" x1="305.85" y1="598.95" x2="312.93" y2="598.95" xlink:href="#Degradado_sin_nombre_2"/>
    <linearGradient id="Degradado_sin_nombre_2-13" data-name="Degradado sin nombre 2" x1="280.74" y1="582.1" x2="287.82" y2="582.1" xlink:href="#Degradado_sin_nombre_2"/>
    <linearGradient id="Degradado_sin_nombre_2-14" data-name="Degradado sin nombre 2" x1="390.54" y1="561.97" x2="397.62" y2="561.97" xlink:href="#Degradado_sin_nombre_2"/>
    <linearGradient id="Degradado_sin_nombre_2-15" data-name="Degradado sin nombre 2" x1="516.95" y1="530.37" x2="524.02" y2="530.37" xlink:href="#Degradado_sin_nombre_2"/>
    <linearGradient id="Degradado_sin_nombre_2-16" data-name="Degradado sin nombre 2" x1="557.61" y1="509.66" x2="564.69" y2="509.66" xlink:href="#Degradado_sin_nombre_2"/>
    <linearGradient id="Degradado_sin_nombre_2-17" data-name="Degradado sin nombre 2" x1="426.51" y1="567.57" x2="433.59" y2="567.57" xlink:href="#Degradado_sin_nombre_2"/>
    <linearGradient id="Degradado_sin_nombre_2-18" data-name="Degradado sin nombre 2" x1="462.16" y1="551.01" x2="469.24" y2="551.01" xlink:href="#Degradado_sin_nombre_2"/>
    <linearGradient id="Degradado_sin_nombre_2-19" data-name="Degradado sin nombre 2" x1="570.75" y1="482.15" x2="577.83" y2="482.15" xlink:href="#Degradado_sin_nombre_2"/>
    <linearGradient id="Degradado_sin_nombre_2-20" data-name="Degradado sin nombre 2" x1="493.06" y1="439.87" x2="500.14" y2="439.87" xlink:href="#Degradado_sin_nombre_2"/>
    <linearGradient id="Degradado_sin_nombre_2-21" data-name="Degradado sin nombre 2" x1="455.69" y1="422.85" x2="462.77" y2="422.85" xlink:href="#Degradado_sin_nombre_2"/>
    <linearGradient id="Degradado_sin_nombre_2-22" data-name="Degradado sin nombre 2" x1="336.37" y1="443.47" x2="343.45" y2="443.47" xlink:href="#Degradado_sin_nombre_2"/>
    <linearGradient id="Degradado_sin_nombre_2-23" data-name="Degradado sin nombre 2" x1="478.63" y1="525.22" x2="485.71" y2="525.22" xlink:href="#Degradado_sin_nombre_2"/>
    <linearGradient id="Degradado_sin_nombre_2-24" data-name="Degradado sin nombre 2" x1="402.72" y1="432.61" x2="409.8" y2="432.61" xlink:href="#Degradado_sin_nombre_2"/>
    <linearGradient id="Degradado_sin_nombre_2-25" data-name="Degradado sin nombre 2" x1="439.79" y1="417.23" x2="446.87" y2="417.23" xlink:href="#Degradado_sin_nombre_2"/>
    <linearGradient id="Degradado_sin_nombre_2-26" data-name="Degradado sin nombre 2" x1="551.53" y1="468.37" x2="558.61" y2="468.37" xlink:href="#Degradado_sin_nombre_2"/>
    <linearGradient id="Degradado_sin_nombre_2-27" data-name="Degradado sin nombre 2" x1="523.22" y1="455.09" x2="530.3" y2="455.09" xlink:href="#Degradado_sin_nombre_2"/>
    <linearGradient id="Degradado_sin_nombre_3" data-name="Degradado sin nombre 3" x1="228.55" y1="250.11" x2="235.63" y2="250.11" gradientUnits="userSpaceOnUse">
      <stop offset=".09" stop-color="#bf4500"/>
      <stop offset=".81" stop-color="#871102"/>
    </linearGradient>
    <linearGradient id="Degradado_sin_nombre_3-2" data-name="Degradado sin nombre 3" x1="211.72" y1="216.55" x2="218.8" y2="216.55" xlink:href="#Degradado_sin_nombre_3"/>
    <linearGradient id="Degradado_sin_nombre_3-3" data-name="Degradado sin nombre 3" x1="205.47" y1="242.53" x2="212.55" y2="242.53" xlink:href="#Degradado_sin_nombre_3"/>
    <linearGradient id="Degradado_sin_nombre_3-4" data-name="Degradado sin nombre 3" x1="234.46" y1="193.81" x2="241.53" y2="193.81" xlink:href="#Degradado_sin_nombre_3"/>
    <linearGradient id="Degradado_sin_nombre_3-5" data-name="Degradado sin nombre 3" x1="234.46" y1="146.48" x2="241.53" y2="146.48" xlink:href="#Degradado_sin_nombre_3"/>
    <linearGradient id="Degradado_sin_nombre_3-6" data-name="Degradado sin nombre 3" x1="249.06" y1="100.78" x2="256.13" y2="100.78" xlink:href="#Degradado_sin_nombre_3"/>
    <linearGradient id="Degradado_sin_nombre_3-7" data-name="Degradado sin nombre 3" x1="298.43" y1="54.3" x2="305.51" y2="54.3" xlink:href="#Degradado_sin_nombre_3"/>
    <linearGradient id="Degradado_sin_nombre_3-8" data-name="Degradado sin nombre 3" x1="358.17" y1="42.03" x2="365.25" y2="42.03" xlink:href="#Degradado_sin_nombre_3"/>
    <linearGradient id="Degradado_sin_nombre_3-9" data-name="Degradado sin nombre 3" x1="398.07" y1="47.83" x2="405.15" y2="47.83" xlink:href="#Degradado_sin_nombre_3"/>
    <linearGradient id="Degradado_sin_nombre_3-10" data-name="Degradado sin nombre 3" x1="431.21" y1="63.89" x2="438.29" y2="63.89" xlink:href="#Degradado_sin_nombre_3"/>
    <linearGradient id="Degradado_sin_nombre_3-11" data-name="Degradado sin nombre 3" x1="452.46" y1="87.82" x2="459.54" y2="87.82" xlink:href="#Degradado_sin_nombre_3"/>
    <linearGradient id="Degradado_sin_nombre_3-12" data-name="Degradado sin nombre 3" x1="465.77" y1="117.07" x2="472.85" y2="117.07" xlink:href="#Degradado_sin_nombre_3"/>
    <linearGradient id="Degradado_sin_nombre_3-13" data-name="Degradado sin nombre 3" x1="472" y1="155.12" x2="479.08" y2="155.12" xlink:href="#Degradado_sin_nombre_3"/>
    <linearGradient id="Degradado_sin_nombre_3-14" data-name="Degradado sin nombre 3" x1="460.16" y1="250.93" x2="467.24" y2="250.93" xlink:href="#Degradado_sin_nombre_3"/>
    <linearGradient id="Degradado_sin_nombre_3-15" data-name="Degradado sin nombre 3" x1="462.74" y1="282.09" x2="469.82" y2="282.09" xlink:href="#Degradado_sin_nombre_3"/>
    <linearGradient id="Degradado_sin_nombre_3-16" data-name="Degradado sin nombre 3" x1="448.19" y1="307.95" x2="455.27" y2="307.95" xlink:href="#Degradado_sin_nombre_3"/>
    <linearGradient id="Degradado_sin_nombre_3-17" data-name="Degradado sin nombre 3" x1="453.88" y1="330.69" x2="460.96" y2="330.69" xlink:href="#Degradado_sin_nombre_3"/>
    <linearGradient id="Degradado_sin_nombre_3-18" data-name="Degradado sin nombre 3" x1="442.73" y1="348.52" x2="449.81" y2="348.52" xlink:href="#Degradado_sin_nombre_3"/>
    <linearGradient id="Degradado_sin_nombre_3-19" data-name="Degradado sin nombre 3" x1="439.79" y1="369.78" x2="446.87" y2="369.78" xlink:href="#Degradado_sin_nombre_3"/>
    <linearGradient id="Degradado_sin_nombre_3-20" data-name="Degradado sin nombre 3" x1="399.92" y1="364.93" x2="407" y2="364.93" xlink:href="#Degradado_sin_nombre_3"/>
    <linearGradient id="Degradado_sin_nombre_3-21" data-name="Degradado sin nombre 3" x1="393.91" y1="326.81" x2="400.99" y2="326.81" xlink:href="#Degradado_sin_nombre_3"/>
    <linearGradient id="Degradado_sin_nombre_3-22" data-name="Degradado sin nombre 3" x1="323.82" y1="318.06" x2="330.9" y2="318.06" xlink:href="#Degradado_sin_nombre_3"/>
    <linearGradient id="Degradado_sin_nombre_3-23" data-name="Degradado sin nombre 3" x1="332.71" y1="335.78" x2="339.79" y2="335.78" xlink:href="#Degradado_sin_nombre_3"/>
    <linearGradient id="Degradado_sin_nombre_3-24" data-name="Degradado sin nombre 3" x1="323.82" y1="359.22" x2="330.9" y2="359.22" xlink:href="#Degradado_sin_nombre_3"/>
    <linearGradient id="Degradado_sin_nombre_3-25" data-name="Degradado sin nombre 3" x1="317.38" y1="372.75" x2="324.46" y2="372.75" xlink:href="#Degradado_sin_nombre_3"/>
    <linearGradient id="Degradado_sin_nombre_3-26" data-name="Degradado sin nombre 3" x1="279.67" y1="347.9" x2="286.75" y2="347.9" xlink:href="#Degradado_sin_nombre_3"/>
    <linearGradient id="Degradado_sin_nombre_3-27" data-name="Degradado sin nombre 3" x1="268.45" y1="309.13" x2="275.53" y2="309.13" xlink:href="#Degradado_sin_nombre_3"/>
    <linearGradient id="Degradado_sin_nombre_3-28" data-name="Degradado sin nombre 3" x1="265.41" y1="330.23" x2="272.48" y2="330.23" xlink:href="#Degradado_sin_nombre_3"/>
    <linearGradient id="Degradado_sin_nombre_3-29" data-name="Degradado sin nombre 3" x1="248" y1="275.02" x2="255.08" y2="275.02" xlink:href="#Degradado_sin_nombre_3"/>
    <linearGradient id="Degradado_sin_nombre_3-30" data-name="Degradado sin nombre 3" x1="389.97" y1="347.54" x2="397.05" y2="347.54" xlink:href="#Degradado_sin_nombre_3"/>
  </defs>
  <!-- Generator: Adobe Illustrator 28.7.3, SVG Export Plug-In . SVG Version: 1.2.0 Build 164)  -->
  <g>
    <g id="Camada_1">
      <g>
        <g>
          <g>
            <path class="cls-30" d="M191.12,496.28h0c0-5.85-4.74-10.59-10.59-10.59h0c5.85,0,10.59-4.74,10.59-10.59h0c0,5.85,4.74,10.59,10.59,10.59h0c-5.85,0-10.59,4.74-10.59,10.59Z"/>
            <path class="cls-30" d="M202.4,468.88h0c0-2.42-1.96-4.38-4.38-4.38h0c2.42,0,4.38-1.96,4.38-4.38h0c0,2.42,1.96,4.38,4.38,4.38h0c-2.42,0-4.38,1.96-4.38,4.38Z"/>
            <path class="cls-30" d="M180.53,204.4h0c0-5.85-4.74-10.59-10.59-10.59h0c5.85,0,10.59-4.74,10.59-10.59h0c0,5.85,4.74,10.59,10.59,10.59h0c-5.85,0-10.59,4.74-10.59,10.59Z"/>
            <path class="cls-30" d="M525.25,269.2h0c0-7.37-5.98-13.35-13.35-13.35h0c7.37,0,13.35-5.98,13.35-13.35h0c0,7.37,5.98,13.35,13.35,13.35h0c-7.37,0-13.35,5.98-13.35,13.35Z"/>
            <path class="cls-30" d="M539.46,234.67h0c0-3.05-2.47-5.52-5.52-5.52h0c3.05,0,5.52-2.47,5.52-5.52h0c0,3.05,2.47,5.52,5.52,5.52h0c-3.05,0-5.52,2.47-5.52,5.52Z"/>
          </g>
          <g>
            <path class="cls-30" d="M457.9,324.61c26.46,11.44,135.91,87.71,135.91,87.71,0,0,29.28,16.27,27.45,17.73s-12.81,0-12.81,0c0,0,15.74,9.88,15.37,11.71-.37,1.83-6.59,1.83-6.59,1.83,0,0,9.15,9.52,6.59,11.35-2.56,1.83-22.33-10.98-22.33-10.98,0,0,13.91,13.91,12.44,14.64-1.46.73-27.45-12.81-27.45-12.81,0,0,1.83,11.77.37,12.84-1.46,1.07-20.5-22.72-20.5-22.72l-121.63-62.57"/>
            <path class="cls-6" d="M604.06,436.15c2.47.75,4.73,1.88,6.94,3.1,2.19,1.26,4.32,2.61,6.24,4.34-2.47-.75-4.73-1.87-6.94-3.1-2.18-1.26-4.32-2.61-6.24-4.34Z"/>
          </g>
          <g>
            <path class="cls-30" d="M270.93,334.56c-39.86,20.18-126.56,73.87-126.56,73.87,0,0-30.12,14.66-28.37,16.22,1.75,1.56,12.79.69,12.79.69,0,0-16.25,9.02-15.98,10.87.27,1.85,6.48,2.18,6.48,2.18,0,0-9.65,9.01-7.19,10.97,2.46,1.97,22.89-9.76,22.89-9.76,0,0-14.64,13.14-13.22,13.95,1.42.81,28.1-11.31,28.1-11.31,0,0-2.46,11.65-1.06,12.8,1.4,1.15,21.69-21.58,21.69-21.58l120.32-53.89"/>
            <path class="cls-6" d="M119.29,438.39c2.19-1.8,4.58-3.21,7.02-4.53,2.46-1.28,4.97-2.47,7.69-3.26-2.18,1.8-4.57,3.21-7.02,4.53-2.46,1.28-4.97,2.46-7.69,3.26Z"/>
          </g>
          <g>
            <line class="cls-30" x1="397.05" y1="323.71" x2="390.76" y2="324.29"/>
            <line class="cls-30" x1="449.23" y1="412.36" x2="446.87" y2="406.51"/>
            <path class="cls-30" d="M300.39,406.26l13.05,37.34s.09.03.28.07"/>
            <g>
              <path class="cls-30" d="M334.85,346.84c5.02,2.93,32.78,17.26,55.33-9.27l.9-20.54"/>
              <line class="cls-30" x1="331.51" y1="314.34" x2="332.39" y2="325.43"/>
              <path class="cls-30" d="M388.17,308.26c-14.28,8.46-32.55,14.18-55.93,15.35l-.75-9.47"/>
              <path class="cls-30" d="M331.21,310.55c5.42.32,11.18.37,17.32.17,15.58-.52,28.95-3.02,40.42-6.99"/>
            </g>
          </g>
          <g>
            <path class="cls-30" d="M429.35,723.42c1.39-44.35.38-115.74-.39-155.88"/>
            <path class="cls-30" d="M374.38,732.66c-2.03,2.82-9,7.46-15.62,12.56"/>
            <path class="cls-30" d="M352.74,597c8.37,44.2,20.92,112.63,22.03,130.91"/>
            <path class="cls-30" d="M430.04,730.43l-.69-7.02-19.68-10.9,20.14-14.98.16-10.23-28.2,20.84-32.23-17.85,1.59,9.87,23.3,13.41-20.85,15.4-.06,2.93c9.27,4.88,12.99,16.84,1.53,21.23-11.47,4.39-17.08-9.52-17.08-9.52-7.23,5.27-12.21,9.96-14.11,13.13-1.98,3.3-.58,7.56,2.95,9.08,21.42,9.18,61.48,2.31,75.74-.58,3.66-.74,6.47-3.69,7.01-7.39,1.49-10.24.49-27.41.49-27.41ZM380.47,734.22l21.75-16.18,25.54,14.69c-17.59,16.71-37.18,8.1-47.29,1.48Z"/>
          </g>
          <g>
            <path class="cls-30" d="M594.46,613.42c-9.12-8.71-56.29-54.13-78.77-83.05"/>
            <path class="cls-30" d="M445.82,564.07c31.21,30.77,116.68,112.87,194.6,122.97"/>
            <path class="cls-30" d="M654.93,668.94c-4.88-5.86-24.65-21.47-25.13-25.13-.49-3.66-6.59-28.31-10-30.01-3.42-1.71-19.28-2.93-23.67-1.46l-13.39,8.75-.33-19.42-7.21-7.12-.54,31.82-30.34,19.65,9.89,6.43,20.25-14.28-.6,25.57,9.7,4.98-.63-36.28,13.32-9.01c1.48,1.21,16.92,14.15,16.22,25.76-.73,12.2-4.1,29.24-4.1,29.24l6.5,2.3s-6.3-18.12,5.65-18.37c11.96-.24,19.9,24.69,19.9,24.69,0,0,9.14,5.08,14.51-.05,5.37-5.12,4.88-12.2,0-18.06Z"/>
          </g>
          <g>
            <path class="cls-6" d="M438.74,453.48c3.33,5.22,6.52,10.52,9.69,15.83,3.17,5.31,6.23,10.68,9.36,16.02,3.02,5.4,6.1,10.76,9.07,16.19,2.97,5.43,5.92,10.86,8.73,16.38-3.33-5.22-6.52-10.52-9.69-15.83-3.17-5.31-6.24-10.68-9.35-16.02-3.02-5.4-6.1-10.76-9.07-16.19-2.97-5.43-5.92-10.86-8.74-16.38Z"/>
            <path class="cls-6" d="M377.12,476.54c1.27,6.27,2.38,12.56,3.47,18.86,1.09,6.3,2.06,12.61,3.09,18.92.92,6.32,1.9,12.64,2.77,18.97.86,6.33,1.7,12.67,2.38,19.03-1.27-6.27-2.38-12.56-3.47-18.86-1.09-6.3-2.06-12.61-3.09-18.92-.92-6.32-1.9-12.64-2.76-18.97-.86-6.33-1.7-12.67-2.39-19.03Z"/>
            <path class="cls-6" d="M324.05,485.69c-2.81,7.36-5.76,14.66-8.75,21.94-2.98,7.29-6.08,14.52-9.12,21.79-3.15,7.22-6.24,14.45-9.46,21.64-3.25,7.16-6.39,14.42-10.01,21.38,1.58-3.56,3.02-7.26,4.5-10.9l4.5-10.92,9.16-21.77,9.43-21.65c3.19-7.2,6.4-14.38,9.76-21.51Z"/>
            <path class="cls-6" d="M312.71,459.33c6.12.46,12.26.56,18.39.48,6.13-.04,12.25-.27,18.36-.71,12.22-.87,24.39-2.38,36.36-4.94,11.99-2.43,23.78-5.87,35.13-10.43,11.36-4.53,22.24-10.31,32.3-17.35-4.91,3.67-9.98,7.17-15.33,10.22-5.37,3-10.87,5.79-16.56,8.14-5.66,2.41-11.48,4.47-17.38,6.24-5.89,1.78-11.86,3.33-17.89,4.57-12.06,2.46-24.31,4-36.59,4.63-12.28.62-24.61.48-36.82-.87Z"/>
          </g>
          <path class="cls-30" d="M475.24,178.04c5.6.04,13.07,1.28,18.15,5.43,16.08,13.16,1.38,60.66-33.93,59.14-3.01-.14-6.17-.63-9.48-1.52-2.21,6.22-4.95,12.49-8.36,18.59-10.28,18.31-26.57,34.99-52.68,44.03-3.52,1.24-7.23,2.32-11.12,3.24-8.76,2.09-18.51,3.4-29.29,3.76-5.24.17-10.23.16-14.93-.05-14.97-.63-27.38-3.03-37.69-6.66-25.79-9.04-38.32-25.68-44.21-41.14-2.42-6.36-3.69-12.53-4.32-17.88-.7-5.98-.54-10.98-.19-14.06,1.41-12.37.65-29.51.23-36.78l10.31-12"/>
          <path class="cls-6" d="M450.69,230.69c2.75.22,5.48-.65,7.69-2.19,2.23-1.52,3.93-3.73,4.92-6.18.97-2.44,1.1-5.27-.02-7.56-1.1-2.29-3.38-4.03-5.81-4.16l-1.09-.06.45-1.01c2.6-5.84,5.99-11.73,11.42-15.67,2.66-1.96,5.75-3.36,9.02-4.04,3.26-.66,6.74-.53,9.9.67,3.12,1.2,5.95,3.3,7.74,6.16,1.85,2.82,2.48,6.39,1.84,9.64-.6,3.27-2.23,6.24-4.36,8.68-2.13,2.45-4.67,4.45-7.34,6.22,2.5-1.99,4.92-4.11,6.85-6.62,1.92-2.5,3.33-5.4,3.79-8.46.48-3.06-.21-6.2-1.96-8.69-1.73-2.49-4.26-4.43-7.12-5.46-2.85-1.05-6.01-1.13-9-.5-3,.65-5.83,2.02-8.35,3.79-5.09,3.59-8.43,9.16-11.06,14.89l-.64-1.06c3.14.22,5.68,2.48,6.87,5.14,1.22,2.74.91,5.87-.23,8.46-1.13,2.62-3.12,4.82-5.51,6.27-2.38,1.47-5.26,2.19-7.98,1.73Z"/>
          <g>
            <path class="cls-6" d="M321.03,213.01c-.61,1.87-1.59,3.63-2.76,5.26-1.21,1.59-2.69,2.96-3.86,4.43-.58.74-1.08,1.51-1.48,2.32-.38.82-.68,1.72-.91,2.62-.45,1.81-.64,3.69-.45,5.52.26,3.69,2.29,7.12,5.63,8.8,1.64.87,3.51,1.35,5.41,1.55,1.91.25,3.86.16,5.82-.05-3.74,1.15-7.97,1.37-11.82-.27-1.92-.8-3.6-2.21-4.79-3.96-1.16-1.78-1.8-3.84-2.01-5.9-.17-2.07.04-4.15.6-6.13.56-1.94,1.51-3.94,2.98-5.39,1.41-1.48,2.93-2.67,4.23-4.1,1.34-1.38,2.44-2.99,3.41-4.71Z"/>
            <path class="cls-6" d="M332.59,238.99c0-.98.37-1.58.84-2.09.51-.47,1.1-.85,2.09-.84,0,.98-.37,1.58-.84,2.09-.51.47-1.11.84-2.09.84Z"/>
          </g>
          <path class="cls-6" d="M336.25,257.01c5.23-.85,10.06-2.77,14.25-5.71,4.2-2.91,7.68-6.77,10.3-11.38-1.32,5.18-4.86,9.74-9.29,12.83-4.44,3.08-9.94,4.82-15.26,4.26Z"/>
          <g>
            <g>
              <path class="cls-6" d="M373.34,213.73c0,4.25-3.44,7.69-7.69,7.69s-7.69-3.44-7.69-7.69,3.44-7.69,7.69-7.69,7.69,3.44,7.69,7.69Z"/>
              <path class="cls-6" d="M352.44,204.64c3.56,2.55,8.31,3.04,11.98,1.56.99-.4,2.11.08,2.51,1.06.4.99-.08,2.11-1.06,2.51-.11.04-.22.08-.33.1h-.06c-5.21,1.07-10.54-.66-13.97-4.14-.28-.28-.28-.74,0-1.02.25-.25.65-.27.93-.07Z"/>
            </g>
            <g>
              <path class="cls-6" d="M289.52,216.17c0,4.25-3.44,7.69-7.69,7.69s-7.69-3.44-7.69-7.69,3.44-7.69,7.69-7.69,7.69,3.44,7.69,7.69Z"/>
              <path class="cls-6" d="M268.63,207.08c3.56,2.55,8.31,3.04,11.98,1.56.99-.4,2.11.08,2.51,1.06.4.99-.08,2.11-1.06,2.51-.11.04-.22.08-.33.1h-.06c-5.21,1.07-10.54-.66-13.97-4.14-.28-.28-.28-.74,0-1.02.25-.25.65-.27.93-.07Z"/>
            </g>
          </g>
          <g>
            <path class="cls-30" d="M441.61,259.69c-11.67,20.79-31.08,39.47-63.78,47.28-3.67-6.04-5.78-13.12-5.78-20.69,0-22.02,17.85-39.87,39.87-39.87,11.8,0,22.39,5.13,29.69,13.27Z"/>
            <path class="cls-30" d="M302.68,281.78c0,8.23-2.49,15.88-6.78,22.23-36.38-12.74-46.41-40.64-48.53-59.01,4.76-1.99,9.98-3.1,15.45-3.1,22.01,0,39.85,17.85,39.85,39.87Z"/>
          </g>
          <g>
            <path class="cls-30" d="M356.12,176.3c.89,2.18,2.91,3.68,5,4.78,3.34,1.76,7.08,2.77,10.86,2.92,1.7.07,3.63-.14,4.67-1.49.76-.98.83-2.37.43-3.54-.4-1.17-1.2-2.17-2.07-3.05-3.34-3.39-7.81-5.35-12.52-5.85-3.9-.41-8.49,1-6.36,6.23Z"/>
            <path class="cls-30" d="M278.48,176.3c-.89,2.18-2.91,3.68-5,4.78-3.34,1.76-7.08,2.77-10.86,2.92-1.7.07-3.63-.14-4.67-1.49-.76-.98-.83-2.37-.43-3.54.4-1.17,1.2-2.17,2.07-3.05,3.34-3.39,7.81-5.35,12.52-5.85,3.9-.41,8.49,1,6.36,6.23Z"/>
          </g>
          <g>
            <g>
              <g>
                <path class="cls-30" d="M358.22,170.71c-19.45-7.64-33.07-18.46-33.07-18.46l7.44,24.76c-34.78-19.34-31.09-56.39-30.88-58.36-.61,2.75-1.32,5.49-2.16,8.21-.09.28-.17.58-.26.85v.02c-4.85,15.5-13.18,30.03-23.93,42.46"/>
                <path class="cls-30" d="M475.4,178.02c-1.66.24-3.29.59-4.88.99-1.17.3-2.32.64-3.43,1.01-.1.03-.21.07-.31.1-.05.23-.1.44-.16.66-.58,2.54-1.32,5.04-2.23,7.49-4.88,13.4-14.2,25.21-26.31,32.78-4.58,2.86-10.16,6.13-10.33,11.52-.12,3.71,3,7.21,6.69,7.53,3.69.31,9.1-2.35,9.6-6.03.84,5.56-2.72,11.24-7.79,13.7-.51.24-1.01.45-1.55.63-5.87,1.95-12.67-.07-17.15-4.36-4.48-4.27-6.76-10.52-7-16.71-.23-6.19,1.43-12.32,3.92-18,2.54-5.77,5.96-11.22,7.49-17.34,1.53-6.13,2.79-14.79-2-18.89-15.14,6.27-30.81,5.97-44.96,2.81"/>
              </g>
              <g>
                <path class="cls-30" d="M265.49,103.56s61.86-46.48,134.7,0"/>
                <path class="cls-30" d="M308.95,85.38s2.42-53.55,25.35-54.04c22.94-.49,22.34,54.04,22.34,54.04"/>
                <path class="cls-30" d="M310.63,70.17s-24.5-36.56-26.4,23.06"/>
                <path class="cls-30" d="M285.11,80.61s-18.94-10.9-14.64,19.69"/>
                <path class="cls-30" d="M355.85,70.27s9.69-10.39,19.45-9.9c9.76.49,4.65,32.42,4.65,32.42"/>
                <path class="cls-30" d="M381.28,76.16s11.34-6.18,14.51,0c3.17,6.18,0,24.71,0,24.71"/>
              </g>
            </g>
            <g>
              <g>
                <path class="cls-30" d="M443.35,380.74c4.31,5.71,6.74,13.05,8.9,20.02.51,1.67.98,3.69-.16,5.04-1.6,1.88-4.58.75-7,.37-3.35-.54-6.94.82-9.1,3.43-1.08,1.32-1.81,2.93-2.91,4.23-1.12,1.31-2.82,2.32-4.5,1.9.05-3.35.21-7.07.26-10.44-1.73,2.93-3.99,5.65-7.02,7.21-3.01,1.55-6.92,1.74-9.71-.21-.7-.49-1.32-1.1-2.11-1.43-.59-.24-1.24-.33-1.79-.64-.58-.3-.33-2.14-.07-2.72,3.16-6.8,6.3-13.59,9.45-20.39"/>
                <path class="cls-30" d="M411.92,377.95s-.03,8.68,5.68,9.17c0,0,19.04.65,25.76-6.37,0,0,3.01-4.99.15-10.2,0,0-12.47,8.23-31.58,7.4Z"/>
              </g>
              <g>
                <path class="cls-6" d="M398.73,325.07c3.59,2.76,7.23,5.42,10.94,7.97,3.71,2.55,7.48,5.02,11.41,7.18,3.87,2.27,7.9,4.28,12.09,5.83l1.56.61,1.61.48c1.08.29,2.13.71,3.24.86,1.1.2,2.19.5,3.31.62,1.12.07,2.24.15,3.38.25-4.53.52-9.12-.41-13.46-1.78-4.37-1.37-8.46-3.43-12.44-5.63-3.93-2.29-7.74-4.78-11.35-7.54-3.6-2.75-7.1-5.65-10.3-8.86Z"/>
                <path class="cls-6" d="M418.52,287.76c2.63,1.97,5.24,3.94,7.88,5.88,2.64,1.92,5.29,3.82,8,5.63,2.69,1.84,5.46,3.53,8.3,5.1,1.41.81,2.89,1.47,4.38,2.11l2.28.87c.79.19,1.58.39,2.37.61-3.33-.05-6.52-1.26-9.52-2.6-3.02-1.36-5.88-3.06-8.61-4.89-2.72-1.86-5.38-3.81-7.88-5.95-2.51-2.12-4.96-4.33-7.2-6.74Z"/>
                <path class="cls-6" d="M440.75,304.47c-2.19,2.98-4.58,5.78-7.06,8.52-2.48,2.74-5.12,5.32-7.82,7.85-2.78,2.44-5.62,4.84-8.73,6.88-1.57,1-3.18,1.94-4.89,2.7-1.72.7-3.55,1.32-5.41,1.22,1.84-.23,3.52-.96,5.1-1.85,1.6-.86,3.11-1.89,4.57-2.97,2.92-2.18,5.72-4.53,8.4-7.03,2.75-2.42,5.36-5,7.99-7.55l7.85-7.76Z"/>
                <path class="cls-6" d="M432.49,346.43c-1.87,2.15-3.93,4.12-6.04,6.03-2.1,1.92-4.33,3.69-6.62,5.4-2.31,1.67-4.71,3.24-7.26,4.55-2.53,1.3-5.28,2.46-8.16,2.52.69-.22,1.37-.37,2.03-.6.65-.29,1.3-.53,1.92-.84l1.87-.96,1.8-1.08c2.37-1.5,4.69-3.07,6.96-4.75,2.28-1.65,4.51-3.38,6.76-5.08l6.74-5.19Z"/>
              </g>
            </g>
            <g>
              <g>
                <path class="cls-30" d="M317.08,382.75c3.9,6.21,7.81,12.44,11.71,18.65.33.54.8,2.33.28,2.7-.52.37-1.15.54-1.69.87-.75.42-1.29,1.12-1.92,1.69-2.53,2.27-6.41,2.6-9.6,1.43-3.21-1.17-5.8-3.59-7.89-6.27.49,3.33,1.12,7,1.59,10.33-1.59.63-3.42-.17-4.69-1.32-1.27-1.15-2.2-2.65-3.43-3.82-2.46-2.33-6.2-3.22-9.46-2.27-2.35.7-5.16,2.2-6.99.52-1.29-1.18-1.1-3.24-.78-4.97,1.25-7.19,2.73-14.78,6.28-20.99"/>
                <path class="cls-30" d="M321.3,372.54s1.13,8.6-4.47,9.81c0,0-18.81,3.06-26.36-3.05,0,0-3.62-4.57-1.44-10.1,0,0,13.41,6.58,32.26,3.33Z"/>
              </g>
              <g>
                <path class="cls-6" d="M285.44,357.37c3.02,1.05,5.98,2.21,8.93,3.37,2.97,1.14,5.89,2.37,8.83,3.56l8.79,3.64c1.47.6,2.93,1.2,4.42,1.75,1.47.61,2.97,1.1,4.5,1.56-3.19-.31-6.27-1.3-9.3-2.27-3.04-.99-6-2.16-8.95-3.35-2.94-1.23-5.86-2.5-8.73-3.88-2.87-1.37-5.72-2.79-8.5-4.37Z"/>
                <path class="cls-6" d="M296.11,362.08l8.18-10.7c2.72-3.56,5.48-7.09,8.11-10.72,2.73-3.55,5.32-7.2,7.86-10.88,1.3-1.82,2.5-3.7,3.71-5.59l1.77-2.86c.53-.98,1.07-1.96,1.63-2.94-1.55,4.24-3.83,8.16-6.18,12-2.37,3.83-4.99,7.5-7.64,11.13-2.74,3.57-5.49,7.13-8.4,10.55-2.91,3.43-5.88,6.8-9.03,10.01Z"/>
                <path class="cls-6" d="M269.76,322.56c3.6,1.84,7.18,3.66,10.8,5.41,3.62,1.75,7.24,3.47,10.95,4.99,3.66,1.64,7.43,2.98,11.25,4.15,1.9.62,3.85,1.03,5.81,1.42l2.97.39h3.01c-4,.86-8.15.18-12.08-.74-3.95-.96-7.78-2.34-11.52-3.89-3.7-1.64-7.37-3.36-10.9-5.33-3.53-1.97-7-4.04-10.29-6.39Z"/>
                <path class="cls-6" d="M272.92,308.17c2.4-.13,4.78-.18,7.16-.26,2.38-.09,4.75-.15,7.12-.28,2.37-.09,4.72-.28,7.07-.52,1.18-.1,2.34-.3,3.5-.51l1.74-.36c.56-.18,1.13-.35,1.71-.52-2.03,1.34-4.43,1.97-6.78,2.48-2.37.5-4.77.74-7.17.86-2.4.09-4.81.12-7.2-.05-2.39-.15-4.78-.38-7.15-.84Z"/>
              </g>
            </g>
          </g>
        </g>
        <g>
          <g>
            <path class="cls-27" d="M315.14,446.82c-.52,1.88-2.47,2.99-4.36,2.46-1.88-.52-2.98-2.47-2.46-4.36.52-1.88,2.47-2.98,4.36-2.46,1.88.52,2.99,2.47,2.46,4.36Z"/>
            <path class="cls-58" d="M312.8,461.5c-.52,1.88-2.47,2.99-4.36,2.46-1.88-.52-2.98-2.47-2.46-4.36.52-1.88,2.47-2.99,4.36-2.46,1.88.52,2.99,2.47,2.46,4.36Z"/>
            <path class="cls-44" d="M373.66,440.82c-.52,1.88-2.47,2.99-4.36,2.46-1.88-.52-2.99-2.47-2.46-4.36.52-1.88,2.47-2.99,4.36-2.46,1.88.52,2.98,2.47,2.46,4.36Z"/>
            <path class="cls-13" d="M288.74,483.09c-.52,1.88-2.47,2.98-4.36,2.46-1.88-.52-2.98-2.47-2.46-4.36.52-1.88,2.47-2.99,4.36-2.46,1.88.52,2.99,2.47,2.46,4.36Z"/>
            <path class="cls-39" d="M263.49,508.35c-.52,1.88-2.47,2.99-4.36,2.46-1.88-.52-2.98-2.47-2.46-4.36.52-1.88,2.47-2.98,4.36-2.46,1.88.52,2.99,2.47,2.46,4.36Z"/>
            <path class="cls-23" d="M236.54,533.55c-.52,1.88-2.47,2.98-4.36,2.46-1.88-.52-2.99-2.47-2.46-4.36.52-1.88,2.47-2.99,4.36-2.46,1.88.52,2.99,2.47,2.46,4.36Z"/>
            <path class="cls-17" d="M207.29,558.65c-.52,1.88-2.47,2.98-4.36,2.46-1.88-.52-2.99-2.47-2.46-4.36.52-1.88,2.47-2.99,4.36-2.46,1.88.52,2.99,2.47,2.46,4.36Z"/>
            <path class="cls-16" d="M219.64,581.61c-.52,1.88-2.47,2.99-4.36,2.46-1.88-.52-2.99-2.47-2.46-4.36.52-1.88,2.47-2.98,4.36-2.46,1.88.52,2.98,2.47,2.46,4.36Z"/>
            <path class="cls-25" d="M246.89,594.41c-.52,1.88-2.47,2.99-4.36,2.46-1.88-.52-2.98-2.47-2.46-4.36.52-1.88,2.47-2.99,4.36-2.46,1.88.52,2.99,2.47,2.46,4.36Z"/>
            <path class="cls-28" d="M348.54,601.49c-.52,1.88-2.47,2.99-4.36,2.46-1.88-.52-2.99-2.47-2.46-4.36.52-1.88,2.47-2.98,4.36-2.46,1.88.52,2.98,2.47,2.46,4.36Z"/>
            <path class="cls-5" d="M378.18,583.04c-.52,1.88-2.47,2.98-4.36,2.46-1.88-.52-2.99-2.47-2.46-4.36.52-1.88,2.47-2.99,4.36-2.46,1.88.52,2.98,2.47,2.46,4.36Z"/>
            <path class="cls-15" d="M312.8,599.89c-.52,1.88-2.47,2.99-4.36,2.46-1.88-.52-2.98-2.47-2.46-4.36.52-1.88,2.47-2.98,4.36-2.46,1.88.52,2.99,2.47,2.46,4.36Z"/>
            <path class="cls-33" d="M287.69,583.04c-.52,1.88-2.47,2.98-4.36,2.46-1.88-.52-2.98-2.47-2.46-4.36.52-1.88,2.47-2.99,4.36-2.46,1.88.52,2.99,2.47,2.46,4.36Z"/>
            <path class="cls-8" d="M397.49,562.91c-.52,1.88-2.47,2.99-4.36,2.46-1.88-.52-2.99-2.47-2.46-4.36.52-1.88,2.47-2.99,4.36-2.46,1.88.52,2.99,2.47,2.46,4.36Z"/>
            <path class="cls-18" d="M523.89,531.31c-.52,1.88-2.47,2.99-4.36,2.46-1.88-.52-2.98-2.47-2.46-4.36.52-1.88,2.47-2.99,4.36-2.46,1.88.52,2.99,2.47,2.46,4.36Z"/>
            <path class="cls-52" d="M564.56,510.6c-.52,1.88-2.47,2.99-4.36,2.46-1.88-.52-2.98-2.47-2.46-4.36.52-1.88,2.47-2.98,4.36-2.46,1.88.52,2.99,2.47,2.46,4.36Z"/>
            <path class="cls-47" d="M433.46,568.52c-.52,1.88-2.47,2.99-4.36,2.46-1.88-.52-2.99-2.47-2.46-4.36.52-1.88,2.47-2.99,4.36-2.46,1.88.52,2.98,2.47,2.46,4.36Z"/>
            <path class="cls-50" d="M469.11,551.95c-.52,1.88-2.47,2.98-4.36,2.46-1.88-.52-2.98-2.47-2.46-4.36.52-1.88,2.47-2.99,4.36-2.46,1.88.52,2.99,2.47,2.46,4.36Z"/>
            <path class="cls-32" d="M577.7,483.09c-.52,1.88-2.47,2.98-4.36,2.46-1.88-.52-2.98-2.47-2.46-4.36.52-1.88,2.47-2.99,4.36-2.46,1.88.52,2.99,2.47,2.46,4.36Z"/>
            <path class="cls-14" d="M500.01,440.82c-.52,1.88-2.47,2.99-4.36,2.46-1.88-.52-2.98-2.47-2.46-4.36.52-1.88,2.47-2.99,4.36-2.46,1.88.52,2.99,2.47,2.46,4.36Z"/>
            <path class="cls-12" d="M462.64,423.8c-.52,1.88-2.47,2.99-4.36,2.46-1.88-.52-2.99-2.47-2.46-4.36.52-1.88,2.47-2.98,4.36-2.46,1.88.52,2.99,2.47,2.46,4.36Z"/>
            <path class="cls-2" d="M343.32,444.42c-.52,1.88-2.47,2.99-4.36,2.46-1.88-.52-2.99-2.47-2.46-4.36.52-1.88,2.47-2.98,4.36-2.46,1.88.52,2.99,2.47,2.46,4.36Z"/>
            <path class="cls-3" d="M485.58,526.16c-.52,1.88-2.47,2.98-4.36,2.46-1.88-.52-2.99-2.47-2.46-4.36.52-1.88,2.47-2.99,4.36-2.46,1.88.52,2.99,2.47,2.46,4.36Z"/>
            <path class="cls-9" d="M409.67,433.56c-.52,1.88-2.47,2.99-4.36,2.46-1.88-.52-2.99-2.47-2.46-4.36.52-1.88,2.47-2.99,4.36-2.46,1.88.52,2.98,2.47,2.46,4.36Z"/>
            <path class="cls-57" d="M446.74,418.18c-.52,1.88-2.47,2.98-4.36,2.46-1.88-.52-2.99-2.47-2.46-4.36.52-1.88,2.47-2.99,4.36-2.46,1.88.52,2.99,2.47,2.46,4.36Z"/>
            <path class="cls-1" d="M558.48,469.32c-.52,1.88-2.47,2.99-4.36,2.46-1.88-.52-2.99-2.47-2.46-4.36.52-1.88,2.47-2.99,4.36-2.46,1.88.52,2.99,2.47,2.46,4.36Z"/>
            <path class="cls-37" d="M530.17,456.04c-.52,1.88-2.47,2.98-4.36,2.46-1.88-.52-2.99-2.47-2.46-4.36.52-1.88,2.47-2.99,4.36-2.46,1.88.52,2.98,2.47,2.46,4.36Z"/>
          </g>
          <g>
            <text class="cls-51" transform="translate(299.5 448.54)"><tspan x="0" y="0">1</tspan></text>
            <text class="cls-51" transform="translate(297.94 463.48)"><tspan x="0" y="0">2</tspan></text>
            <text class="cls-51" transform="translate(273.57 485.18)"><tspan x="0" y="0">3</tspan></text>
            <text class="cls-51" transform="translate(245.78 508.96)"><tspan x="0" y="0">4</tspan></text>
            <text class="cls-51" transform="translate(219.25 530.09)"><tspan x="0" y="0">5</tspan></text>
            <text class="cls-51" transform="translate(189.46 562.04)"><tspan x="0" y="0">6</tspan></text>
            <text class="cls-51" transform="translate(202.23 589.57)"><tspan x="0" y="0">7</tspan></text>
            <text class="cls-51" transform="translate(234.05 609.93)"><tspan x="0" y="0">8</tspan></text>
            <text class="cls-51" transform="translate(276.18 598.95)"><tspan x="0" y="0">9</tspan></text>
            <text class="cls-51" transform="translate(297.19 615.78)"><tspan x="0" y="0">10</tspan></text>
            <text class="cls-51" transform="translate(335.86 615.78)"><tspan x="0" y="0">11</tspan></text>
            <text class="cls-51" transform="translate(365.96 597)"><tspan x="0" y="0">12</tspan></text>
            <text class="cls-51" transform="translate(386.35 577.16)"><tspan x="0" y="0">13</tspan></text>
            <text class="cls-51" transform="translate(426.74 579.39)"><tspan x="0" y="0">14</tspan></text>
            <text class="cls-51" transform="translate(458.73 564.07)"><tspan x="0" y="0">15</tspan></text>
            <text class="cls-51" transform="translate(475.63 540.78)"><tspan x="0" y="0">16</tspan></text>
            <text class="cls-51" transform="translate(519.77 538.21)"><tspan x="0" y="0">17</tspan></text>
            <text class="cls-51" transform="translate(559.34 520.6)"><tspan x="0" y="0">18</tspan></text>
            <text class="cls-51" transform="translate(573.94 491.07)"><tspan x="0" y="0">19</tspan></text>
            <text class="cls-51" transform="translate(549.53 461.31)"><tspan x="0" y="0">20</tspan></text>
            <text class="cls-51" transform="translate(519.77 448.05)"><tspan x="0" y="0">21</tspan></text>
            <text class="cls-51" transform="translate(490.01 434.11)"><tspan x="0" y="0">22</tspan></text>
            <text class="cls-51" transform="translate(452.45 418.17)"><tspan x="0" y="0">23</tspan></text>
            <text class="cls-51" transform="translate(423.51 423.86)"><tspan x="0" y="0">24</tspan></text>
            <text class="cls-51" transform="translate(395.65 426.86)"><tspan x="0" y="0">25</tspan></text>
            <text class="cls-51" transform="translate(359.31 432.61)"><tspan x="0" y="0">26</tspan></text>
            <text class="cls-51" transform="translate(329 436.96)"><tspan x="0" y="0">27</tspan></text>
          </g>
        </g>
        <g>
          <g>
            <circle class="cls-40" cx="232.09" cy="250.11" r="3.54"/>
            <circle class="cls-24" cx="215.26" cy="216.55" r="3.54"/>
            <circle class="cls-10" cx="209.01" cy="242.53" r="3.54"/>
            <circle class="cls-56" cx="237.99" cy="193.81" r="3.54"/>
            <circle class="cls-20" cx="237.99" cy="146.48" r="3.54"/>
            <circle class="cls-38" cx="252.59" cy="100.78" r="3.54"/>
            <circle class="cls-43" cx="301.97" cy="54.3" r="3.54"/>
            <circle class="cls-60" cx="361.71" cy="42.03" r="3.54"/>
            <circle class="cls-29" cx="401.61" cy="47.83" r="3.54"/>
            <circle class="cls-45" cx="434.75" cy="63.89" r="3.54"/>
            <circle class="cls-34" cx="456" cy="87.82" r="3.54"/>
            <path class="cls-11" d="M472.85,117.07c0,1.95-1.58,3.54-3.54,3.54s-3.54-1.58-3.54-3.54,1.58-3.54,3.54-3.54,3.54,1.58,3.54,3.54Z"/>
            <circle class="cls-35" cx="475.54" cy="155.12" r="3.54"/>
            <circle class="cls-41" cx="463.7" cy="250.93" r="3.54"/>
            <path class="cls-59" d="M463.08,280.58c.83-1.77,2.94-2.53,4.71-1.7,1.77.83,2.53,2.94,1.7,4.71-.83,1.77-2.94,2.53-4.71,1.7-1.77-.83-2.53-2.94-1.7-4.71Z"/>
            <path class="cls-7" d="M448.53,306.45c.83-1.77,2.94-2.53,4.71-1.7,1.77.83,2.53,2.94,1.7,4.71-.83,1.77-2.94,2.53-4.71,1.7-1.77-.83-2.53-2.94-1.7-4.71Z"/>
            <path class="cls-21" d="M460.62,332.2c-.83,1.77-2.94,2.53-4.71,1.7-1.77-.83-2.53-2.94-1.7-4.71.83-1.77,2.94-2.53,4.71-1.7,1.77.83,2.53,2.94,1.7,4.71Z"/>
            <path class="cls-36" d="M449.47,350.03c-.83,1.77-2.94,2.53-4.71,1.7-1.77-.83-2.53-2.94-1.7-4.71.83-1.77,2.94-2.53,4.71-1.7,1.77.83,2.53,2.94,1.7,4.71Z"/>
            <path class="cls-48" d="M446.54,371.28c-.83,1.77-2.94,2.53-4.71,1.7-1.77-.83-2.53-2.94-1.7-4.71.83-1.77,2.94-2.53,4.71-1.7,1.77.83,2.53,2.94,1.7,4.71Z"/>
            <path class="cls-55" d="M406.87,365.88c-.52,1.88-2.47,2.99-4.36,2.46-1.88-.52-2.98-2.47-2.46-4.36.52-1.88,2.47-2.98,4.36-2.46,1.88.52,2.99,2.47,2.46,4.36Z"/>
            <path class="cls-49" d="M400.86,327.76c-.52,1.88-2.47,2.99-4.36,2.46-1.88-.52-2.98-2.47-2.46-4.36.52-1.88,2.47-2.98,4.36-2.46,1.88.52,2.99,2.47,2.46,4.36Z"/>
            <path class="cls-19" d="M330.77,319.01c-.52,1.88-2.47,2.99-4.36,2.46-1.88-.52-2.98-2.47-2.46-4.36.52-1.88,2.47-2.99,4.36-2.46,1.88.52,2.99,2.47,2.46,4.36Z"/>
            <path class="cls-42" d="M339.66,336.72c-.52,1.88-2.47,2.98-4.36,2.46-1.88-.52-2.99-2.47-2.46-4.36.52-1.88,2.47-2.99,4.36-2.46,1.88.52,2.99,2.47,2.46,4.36Z"/>
            <path class="cls-26" d="M330.77,360.17c-.52,1.88-2.47,2.98-4.36,2.46-1.88-.52-2.98-2.47-2.46-4.36.52-1.88,2.47-2.99,4.36-2.46,1.88.52,2.99,2.47,2.46,4.36Z"/>
            <path class="cls-4" d="M324.33,373.7c-.52,1.88-2.47,2.99-4.36,2.46-1.88-.52-2.98-2.47-2.46-4.36.52-1.88,2.47-2.98,4.36-2.46,1.88.52,2.99,2.47,2.46,4.36Z"/>
            <path class="cls-22" d="M286.62,348.85c-.52,1.88-2.47,2.99-4.36,2.46-1.88-.52-2.98-2.47-2.46-4.36.52-1.88,2.47-2.98,4.36-2.46,1.88.52,2.99,2.47,2.46,4.36Z"/>
            <path class="cls-54" d="M275.4,310.08c-.52,1.88-2.47,2.99-4.36,2.46-1.88-.52-2.99-2.47-2.46-4.36.52-1.88,2.47-2.99,4.36-2.46,1.88.52,2.99,2.47,2.46,4.36Z"/>
            <path class="cls-31" d="M272.35,331.18c-.52,1.88-2.47,2.99-4.36,2.46-1.88-.52-2.98-2.47-2.46-4.36.52-1.88,2.47-2.98,4.36-2.46,1.88.52,2.99,2.47,2.46,4.36Z"/>
            <path class="cls-46" d="M254.95,275.97c-.52,1.88-2.47,2.98-4.36,2.46-1.88-.52-2.99-2.47-2.46-4.36.52-1.88,2.47-2.99,4.36-2.46,1.88.52,2.99,2.47,2.46,4.36Z"/>
            <path class="cls-53" d="M396.92,348.49c-.52,1.88-2.47,2.98-4.36,2.46-1.88-.52-2.98-2.47-2.46-4.36.52-1.88,2.47-2.99,4.36-2.46,1.88.52,2.99,2.47,2.46,4.36Z"/>
          </g>
          <g>
            <text class="cls-51" transform="translate(219.77 262.41)"><tspan x="0" y="0">1</tspan></text>
            <text class="cls-51" transform="translate(194.21 247.85)"><tspan x="0" y="0">2</tspan></text>
            <text class="cls-51" transform="translate(202.23 218.72)"><tspan x="0" y="0">3</tspan></text>
            <text class="cls-51" transform="translate(223.69 194.8)"><tspan x="0" y="0">4</tspan></text>
            <text class="cls-51" transform="translate(224.73 150.81)"><tspan x="0" y="0">5</tspan></text>
            <text class="cls-51" transform="translate(239.89 103.56)"><tspan x="0" y="0">6</tspan></text>
            <text class="cls-51" transform="translate(358.04 35.67)"><tspan x="0" y="0">8</tspan></text>
            <text class="cls-51" transform="translate(426.74 60.35)"><tspan x="0" y="0">10</tspan></text>
            <text class="cls-51" transform="translate(467.16 113.54)"><tspan x="0" y="0">12</tspan></text>
            <text class="cls-51" transform="translate(475.63 152.89)"><tspan x="0" y="0">13</tspan></text>
            <text class="cls-51" transform="translate(464.13 257.12)"><tspan x="0" y="0">14</tspan></text>
            <text class="cls-51" transform="translate(467.16 286.99)"><tspan x="0" y="0">15</tspan></text>
            <text class="cls-51" transform="translate(452.45 312.73)"><tspan x="0" y="0">16</tspan></text>
            <text class="cls-51" transform="translate(455.39 343.5)"><tspan x="0" y="0">17</tspan></text>
            <text class="cls-51" transform="translate(445.99 356.52)"><tspan x="0" y="0">18</tspan></text>
            <text class="cls-51" transform="translate(443.38 373.5)"><tspan x="0" y="0">19</tspan></text>
            <text class="cls-51" transform="translate(387.51 383.35)"><tspan x="0" y="0">20</tspan></text>
            <text class="cls-51" transform="translate(322.69 384.69)"><tspan x="0" y="0">23</tspan></text>
            <text class="cls-51" transform="translate(334.23 366.18)"><tspan x="0" y="0">24</tspan></text>
            <text class="cls-51" transform="translate(341.59 338.87)"><tspan x="0" y="0">25</tspan></text>
            <text class="cls-51" transform="translate(299.24 321.54)"><tspan x="0" y="0">26</tspan></text>
            <text class="cls-51" transform="translate(261.55 352.44)"><tspan x="0" y="0">27</tspan></text>
            <text class="cls-51" transform="translate(247.21 333.27)"><tspan x="0" y="0">28</tspan></text>
            <text class="cls-51" transform="translate(250.37 311.15)"><tspan x="0" y="0">29</tspan></text>
            <text class="cls-51" transform="translate(230.24 281.13)"><tspan x="0" y="0">30</tspan></text>
            <text class="cls-51" transform="translate(372.01 362.66)"><tspan x="0" y="0">21</tspan></text>
            <text class="cls-51" transform="translate(386.88 315.94)"><tspan x="0" y="0">22</tspan></text>
            <text class="cls-51" transform="translate(287.6 54.3)"><tspan x="0" y="0">7</tspan></text>
            <text class="cls-51" transform="translate(397.86 42.03)"><tspan x="0" y="0">9</tspan></text>
            <text class="cls-51" transform="translate(451.26 83.65)"><tspan x="0" y="0">11</tspan></text>
          </g>
        </g>
      </g>
    </g>
  </g>
</svg>