<?xml version="1.0" encoding="UTF-8"?>
<svg xmlns="http://www.w3.org/2000/svg" width="800" height="800" version="1.1" viewBox="0 0 800 800">
  <!-- Generator: Adobe Illustrator 28.7.3, SVG Export Plug-In . SVG Version: 1.2.0 Build 164)  -->
  <g>
    <g id="Camada_2">
      <path d="M442.72,594.88c0,10.33.03,20-.02,29.68-.02,3.22.96,7.29-.6,9.54-12.65,18.3-31.47,6.02-47.32,8.69-10.46,1.76-13.75-5.97-13.6-15.43.17-10.74.04-21.48.04-34.52-15.84,0-30.74-.43-45.58.32-3.49.18-7.29,3.86-10.03,6.78-3.27,3.5-6.22,7.63-8.15,12-11.86,26.95-32.28,35.82-60.84,31.64-15.78-2.31-19.21-5.46-12.99-20.5,12.13-29.37,24.62-58.59,36.91-87.9,1.21-2.88,1.99-5.93,3.75-11.26-15.85,0-30.16-.74-44.37.2-15.46,1.02-22.24-4.9-20.68-20.49.58-5.77.09-11.65.09-16.57-2.31-1.45-3.14-2.41-4.04-2.47q-26.27-1.67-26.29-27.49c-.01-77.64-.03-155.28,0-232.92,0-20,1.1-21.04,20.92-21.12,22.65-.09,45.31-.12,67.96-.24,1.58,0,3.16-.56,4.65-.84q12.15-29.29,45.16-29.29c61.5,0,122.99.39,184.48-.29,13.62-.15,21.93,3.61,23.87,17.38,1.55,11,7.97,13.36,18.09,12.96,17.77-.7,35.59-.21,53.4-.2q26.27.02,26.3,25.52c.01,74.4.27,148.81-.12,223.21-.16,30.66,6.11,29.8-29.03,33.43-.29,4.52-.8,9.23-.88,13.95q-.43,24.63-25.8,24.7c-11.33.04-22.65.1-33.98.22-1.03.01-2.07.49-5.05,1.24,12.4,29.31,24.69,58.37,37,87.41,1.89,4.46,3.77,8.94,5.87,13.31,5.9,12.33.23,17.19-11.57,17.58-10.24.34-20.71,1.34-30.67-.34-6.54-1.11-12.76-5.93-18.35-10.12-3.26-2.45-5.77-6.62-7.32-10.52-13.36-33.73-40.21-33.22-71.22-27.26ZM210.06,223.6v182.28c9.39-5.67,17.34-8.23,21.96-13.64,24.86-29.1,48.83-58.95,73.22-88.46,11.52-13.94,15.61-13.82,27.46.46,11.22,13.52,22.34,27.11,34.48,41.85,17.93-21.88,34.6-42.27,51.32-62.62,14.98-18.21,17.17-18.16,32.64.54,8.93,10.81,17.8,21.66,26.7,32.49,17.28,21.03,34.55,42.06,54.09,65.85v-158.76H210.06ZM554.83,223.39v237.33h57.93v-237.33h-57.93ZM532.63,423.92H211.26v37.26h321.37v-37.26ZM435.45,296.18c-28.9,35.08-56.41,68.47-85.35,103.6h170.7c-29.09-35.31-56.39-68.45-85.35-103.6ZM240.44,501.64h342.15v-17.32H240.44v17.32ZM354.12,362.38c-11.95-14.36-23.37-28.07-35.48-42.62-22.77,27.88-43.86,53.69-67.31,82.4,23.73,0,43.03.32,62.3-.25,4.21-.13,9.48-2.4,12.28-5.48,9.67-10.67,18.47-22.13,28.21-34.04ZM264.31,624.71c10.68-2.8,19.24-2.39,21.91-6.16,21.69-30.52,42.29-61.83,65.28-95.96-15.44,0-27.1-.4-38.7.29-2.88.17-6.92,3.3-8.11,6.06-12.98,30.03-25.49,60.26-40.37,95.77ZM551.75,625.26c1.64-1.91,3.28-3.81,4.92-5.72-12.54-30.21-24.99-60.45-37.76-90.56-1.07-2.52-4.21-5.79-6.53-5.9-12.4-.58-24.85-.28-40.46-.28,21.57,32.18,40.29,61.05,60.22,89.07,4.3,6.05,12.96,9,19.6,13.38ZM305.75,198.14c.41,1.17.81,2.35,1.22,3.52h209.43c.33-1.4.66-2.8,1-4.2-4.16-1.4-8.3-4.01-12.47-4.03-62.42-.25-124.85-.25-187.28.05-3.97.02-7.94,3.04-11.9,4.66ZM421.09,621.53v-96.84h-17.35v98.14c6.63-.5,11.75-.88,17.35-1.3ZM479.69,572.32c-12.33-18.11-22.8-33.49-33.28-48.87-1.01.56-2.03,1.12-3.04,1.68v47.18h36.32ZM343.75,571.96h35.94v-47.25c-.96-.3-1.93-.6-2.89-.9-10.43,15.2-20.86,30.39-33.05,48.14Z"/>
      <path d="M391.67,268.55c-.36,14.16-12.39,25.17-26.62,24.37-14.01-.78-24.68-12.94-23.93-27.26.7-13.36,12.4-23.95,25.87-23.41,14.57.59,25.05,11.76,24.68,26.29Z"/>
      <path d="M387.69,393.55c-1.91-4.93-6.88-11.84-5.21-14.4,9.93-15.18,21.12-29.58,32.68-43.59,1.71-2.07,8.59-2.19,11.32-.46,2.72,1.73,5.58,8.56,4.34,10.36-10.61,15.35-22.07,30.12-33.53,44.86-1.07,1.38-3.91,1.4-9.6,3.23Z"/>
    </g>
  </g>
</svg>