<?xml version="1.0" encoding="UTF-8"?>
<svg xmlns="http://www.w3.org/2000/svg" width="800" height="800" version="1.1" viewBox="0 0 800 800">
  <defs>
    <style>
      .cls-1 {
        stroke-dasharray: 0 19.57;
      }

      .cls-1, .cls-2, .cls-3, .cls-4, .cls-5, .cls-6, .cls-7, .cls-8, .cls-9, .cls-10, .cls-11, .cls-12, .cls-13 {
        fill: none;
        stroke: #000;
        stroke-linecap: round;
        stroke-linejoin: round;
        stroke-width: 3px;
      }

      .cls-2 {
        stroke-dasharray: 0 14.89;
      }

      .cls-14 {
        font-family: Averta-Black, Averta;
        font-size: 18.1px;
        font-weight: 800;
      }

      .cls-3 {
        stroke-dasharray: 0 21.69;
      }

      .cls-4 {
        stroke-dasharray: 0 20.45;
      }

      .cls-5 {
        stroke-dasharray: 0 14.37;
      }

      .cls-6 {
        stroke-dasharray: 0 15.14;
      }

      .cls-7 {
        stroke-dasharray: 0 15.04;
      }

      .cls-9 {
        stroke-dasharray: 0 19.52;
      }

      .cls-10 {
        stroke-dasharray: 0 14.91;
      }

      .cls-11 {
        stroke-dasharray: 0 15.09;
      }

      .cls-12 {
        stroke-dasharray: 0 15.13;
      }

      .cls-13 {
        stroke-dasharray: 0 15.21;
      }
    </style>
  </defs>
  <!-- Generator: Adobe Illustrator 28.7.3, SVG Export Plug-In . SVG Version: 1.2.0 Build 164)  -->
  <g>
    <g id="Camada_1">
      <g>
        <path d="M307.74,422.28c-5.84-3.8-8.25-15.76-5.36-28.13.02-.1.06-.21.08-.31,1.96,2.06,4.02,4.12,6.13,6.15l.17.04c-1.2,7.05-1.61,14.56-1.03,22.24Z"/>
        <path class="cls-8" d="M402.24,502.54c-20.5,14.38-61.98,22.69-91.36-9.24h-.02c-20.79,3.4-38.32-12.13-43.34-32.78-1.22-5.01-1.71-10.33-1.32-15.76,16.11,18.83,34.69,2.72,50.6,11.37l.21-.1c1.61,3.16,3.44,6.27,5.51,9.3,16.46-5.4,29.7,2.87,35.6,7.67,11.9,9.67,24.79,32.47,44.12,29.54Z"/>
        <g>
          <path class="cls-8" d="M94.31,445.98c-3.71-.8-6.5-6.04-6.44-12.33.06-6.5,3.18-11.82,7.08-12.25"/>
          <path class="cls-8" d="M87.01,488.14c-.08,0-.14,0-.21-.02-4.1-.7-6.48-6.72-5.34-13.45,1.15-6.72,5.38-11.63,9.47-10.93.16.02.31.06.45.12"/>
          <path class="cls-8" d="M80.22,538.68c-.43.06-.85.06-1.28,0-4.74-.56-7.82-7.32-6.91-15.1.93-7.8,5.51-13.65,10.25-13.1.35.04.68.12,1.01.23"/>
          <path class="cls-8" d="M86.99,600.33c-.49.33-.99.56-1.55.7-4.6,1.2-9.96-3.96-11.94-11.55-2-7.59.14-14.71,4.76-15.92.68-.17,1.36-.21,2.06-.12"/>
          <path class="cls-8" d="M154.66,350.95c-1.53-.54-3.07-1.36-4.52-2.41-5.18-3.8-7.59-9.57-5.92-13.61"/>
          <path class="cls-8" d="M100.45,345.34c1.28,4.5-2.27,9.86-8.27,12.23-4.76,1.88-9.69,1.34-12.58-1.05"/>
          <path class="cls-8" d="M135.31,333.26c-.45,4.33-5.24,8.29-11.55,9.24-4.97.72-9.55-.58-12.11-3.14"/>
          <path class="cls-8" d="M34.68,327.89c-3.49.85-5.57,4.79-3.78,12.4,2.81,12.09,21.6,27.21,45.75,17.49.99-.39,1.96-.82,2.95-1.26,7.07-3.14,13.98-7.28,20.85-11.18,3.75-2.14,7.47-4.19,11.2-5.98,7.82-3.78,15.66-6.41,23.66-6.09,2.95.14,5.9.64,8.91,1.67,4.04,1.34,8.11,3.57,12.29,6.93"/>
          <g>
            <line class="cls-8" x1="184.2" y1="275.77" x2="184.2" y2="275.77"/>
            <path class="cls-11" d="M169.79,271.34c-25.77-5.83-52.09-.35-71.83,23.17-15.02,17.88-32.34,40.97-43.44,43.61-8.01,1.92-11.45-2.45-14.11-6.08"/>
            <line class="cls-8" x1="34.68" y1="327.89" x2="34.68" y2="327.89"/>
          </g>
          <path class="cls-8" d="M249.96,302.96c-5.18,5.45-11.3,7.82-14.71,5.34-4.02-2.91-2.76-11.47,2.8-19.1,2.31-3.18,5.01-5.69,7.67-7.34"/>
          <path class="cls-8" d="M245.09,239.86c-.83.25-1.69.33-2.52.17-4.89-.85-7.63-8.6-6.11-17.31,1.05-5.92,3.78-10.75,6.97-12.95"/>
          <path class="cls-8" d="M440.92,398.62s0-.02.02-.02c4.48-6.77,8.72-13.43,12.67-20.01,9.24-15.3,17.02-30.07,23.47-44.26,7.12-15.61,12.6-30.49,16.6-44.64"/>
          <path class="cls-8" d="M502.08,233.55c0,1.73-.02,3.49-.08,5.26"/>
          <path class="cls-8" d="M498.93,203.1c1.15,5.24,1.98,10.69,2.5,16.38"/>
          <path class="cls-8" d="M463.07,143.32c9.32,7.55,17.18,16.65,23.37,27.25,2.7,4.64,5.09,9.55,7.1,14.73"/>
          <g>
            <line class="cls-8" x1="348.08" y1="121.23" x2="348.08" y2="121.23"/>
            <path class="cls-12" d="M362.94,118.44c8.56-1.11,17.66-1.47,27.3-.96,25.89,1.38,48.66,8.67,66.78,21.28"/>
            <line class="cls-8" x1="463.07" y1="143.32" x2="463.07" y2="143.32"/>
          </g>
          <path class="cls-8" d="M250.96,215.79c-2.89,8.42-4.77,16.34-5.76,23.23-.04.27-.08.54-.12.83-1.34,9.96-1.88,24.59.62,42,.93,6.66,2.31,13.72,4.25,21.1,1.05,3.98,2.27,8.04,3.67,12.17,7.36,21.84,19.78,45.69,40.1,69.18,2.76,3.18,5.67,6.37,8.73,9.53,1.96,2.06,4.02,4.11,6.13,6.15"/>
          <path class="cls-8" d="M196.43,164.8c-3.36-3.73-6.5-11.39-8.87-19.57-1.3-4.43-2.35-9.01-3.11-13.18,0,0,12.79,14.97,34.78,12.85"/>
          <path class="cls-8" d="M236.74,116.47c-.5-4.83-1.42-10.44-2.95-16.71,0,0,16.85,18.48,36.92,8.56,15.62-7.74,6.48-33.31,4.08-40.92,0,0,6.83,5.14,17.2,10.35"/>
          <path class="cls-8" d="M255.09,218.34c-.21-.08-.43-.19-.68-.31-.91-.47-2.06-1.22-3.44-2.23-2.1-1.49-4.66-3.57-7.55-6.02-14.6-12.38-37.34-34.59-46.99-44.97,0,0,.02.02.06.04"/>
          <path class="cls-8" d="M196.49,164.84c1.11.83,17.1,12.54,22.21-8.29.78-3.16.89-7.18.54-11.65-1.24-15.96-8.48-37.73-13.1-47.83-19.97-6.62-19.41-19.35-14.38-24.17,6.09-5.84,16.42-1.69,19.31,21.23,8.09,8.09,16.89,15.84,25.68,22.32,18.05,13.32,36.12,21.37,48.29,16.46,14.44-5.84,12.4-33.93,6.95-55.18-1.77-6.95-3.9-13.16-5.94-17.62,0,0,16.56,13.33,42.2,19.02,0,0,11.01,22.9,19.84,42.08,2.8,6.09,5.38,11.82,7.32,16.3,8.04,18.63,6.74,25.31-1.88,37.31-8.64,12-34.3,32.53-57.53,38.68-23.23,6.15-32.9,8.06-40.9,4.81"/>
          <path class="cls-8" d="M293.73,384.31c-2.14,4.85-3.53,10.25-4.06,15.68-1.57,15.49,3.92,31.23,19.7,34.9"/>
          <path class="cls-8" d="M322.53,465.33c-2.08-3.03-3.9-6.13-5.51-9.3-3.51-6.89-5.96-14.03-7.49-21.18-.89-4.21-1.49-8.42-1.79-12.58-.58-7.69-.17-15.2,1.03-22.24,1.34-7.9,3.69-15.2,6.74-21.45"/>
          <path class="cls-8" d="M425.37,379.91c-32.4-5.16-43.44,70.61-14.21,70.44,22.07-.12,33.52-30.86,29.77-51.75-1.75-9.71-6.77-17.29-15.57-18.69Z"/>
          <path class="cls-8" d="M667.3,173.32c-3.88-3.42-9.76-5.71-18.59-6.17"/>
          <g>
            <line class="cls-8" x1="453.61" y1="378.59" x2="453.61" y2="378.59"/>
            <path class="cls-13" d="M466.78,386.13c14.16,6.26,31.67,9.05,47,5.63,6.27-1.38,12.15-3.8,17.31-7.45,22.13-15.62,28.42-40.74,24.11-69.16-1.9-12.54-4.23-28.07-6.04-45.67-1.55-15.16-2.74-31.89-2.87-49.59-.19-22.92,5.67-42.33,16.27-57.47,7.05-10.09,16.19-18.26,27.02-24.34,27.08-15.2,54.5-15.53,77.31-3.63,20.36,10.63,28.06,28.9,28.53,49.87"/>
            <line class="cls-8" x1="695.29" y1="191.92" x2="695.29" y2="191.92"/>
          </g>
          <path class="cls-8" d="M695.29,191.92c-1.32,24.13-12.54,35.69-19.16,24.79-5.09-8.39,4.11-32.03-8.83-43.38"/>
          <path class="cls-8" d="M627.22,453.55c-1.44,1.79-2.95,3.55-4.52,5.34"/>
          <path class="cls-8" d="M582.32,493.57c13.3-8.95,24.32-18.13,33.46-27.33"/>
          <path class="cls-8" d="M626.75,194.5c-1.15,2.54-2.1,5.32-2.81,8.33-1.67,7.05-1.86,13.86-1.07,20.63.56,4.81,1.63,9.65,3.01,14.54,2.64,9.41,6.44,19.14,10.19,29.78.82,2.31,1.61,4.68,2.41,7.08,1.09,3.3,2.12,6.5,3.11,9.65,3.82,12.09,7.03,23.14,9.61,33.46,3.2,12.81,5.47,24.55,6.77,35.85,1.34,11.57,2.52,33.46-7.14,59.28"/>
          <path class="cls-8" d="M667.3,173.32c-1.2-.25-2.45-.45-3.69-.56-7.38-.72-15.2.89-22.03,4.95-6.09,3.61-11.37,9.18-14.81,16.79"/>
          <path class="cls-8" d="M663.61,172.76c2.52,6.85-20.01,16.77-22.03,4.95"/>
          <path class="cls-8" d="M626.75,194.5h.02c12.62,2,8.11,27.97-3.88,28.96"/>
          <path class="cls-8" d="M625.88,238c11.51-2.87,20.5,20.3,10.19,29.78"/>
          <path class="cls-8" d="M641.58,284.51c11.1-3.53,22.22,25.95,9.61,33.46"/>
          <path class="cls-8" d="M615.78,466.24c2.43-.95,4.89-3.55,6.91-7.36,1.3-2.39,2.39-5.26,3.18-8.52,10.77-44.43-13.51-63.84-38.3-66.05-2.35-.21-4.66-.21-6.93-.04-.68.06-1.36.12-2.02.19-20.71,2.62-37.23,20.89-41.6,45.67-4.95,28.24,11.9,69.88,13.88,109.03,1.96,38.82-14.87,84.74-56,81.77-27.17-1.96-39.85-28.36-42.33-54.06-1.28-13.22.14-26.22,3.67-35.66"/>
          <g>
            <line class="cls-8" x1="328.4" y1="588.22" x2="328.4" y2="588.22"/>
            <path class="cls-7" d="M336.44,600.75c7.1,16.78,13.35,45.19,32.6,72.21,17.47,24.53,60.97,60.97,105.07,59.98,87.21-1.98,126.36-59.47,133.79-111.88.13-.9.25-1.79.36-2.67"/>
            <line class="cls-8" x1="609.05" y1="610.91" x2="609.05" y2="610.91"/>
          </g>
          <path class="cls-8" d="M609.05,610.91c2.48-30.69-4.1-57.08-17.2-92.55-2.87-7.76-6.06-15.99-9.53-24.79-.37-.99-.78-1.98-1.16-2.97-9.98-25.16-19.24-60.79-2.23-70.38,15.35-8.68,28.28,6.29,27.37,24.11-.93,18.26,4.13,24.09,9.49,21.91"/>
          <path class="cls-8" d="M503.61,461.43c1.13-12.13,4.06-22.44,8.66-32.94.47-1.07.97-2.14,1.51-3.18"/>
          <path class="cls-8" d="M506.37,509.53c-1.38-8.72-2.31-16.52-2.81-23.66"/>
          <path class="cls-8" d="M514.52,558.61c-.72-7.47-1.84-14.97-3.2-22.09"/>
          <path class="cls-8" d="M494.92,620.94c8.09-3.96,13.3-11.03,16.4-19.9,1.57-4.44,2.62-9.34,3.22-14.52"/>
          <path class="cls-8" d="M523.55,411.02c13.26-15.12,33.56-26.18,55.09-26.84.66-.02,1.34-.04,2.02-.04"/>
          <path class="cls-8" d="M311.3,471.02c3.88-2.68,7.63-4.5,11.24-5.69,16.46-5.4,29.7,2.87,35.6,7.67,11.9,9.67,24.79,32.47,44.12,29.54-20.5,14.38-61.98,22.69-91.36-9.24-1.9-2.06-3.75-4.27-5.53-6.68"/>
          <path class="cls-8" d="M316.81,456.13c-15.92-8.66-34.49,7.45-50.6-11.37-.39,5.43.1,10.75,1.32,15.76,5.03,20.65,22.55,36.18,43.34,32.78"/>
          <path class="cls-8" d="M173.52,587.28c14.97-.87,26.55-17.8,37.09-44.16,6.64-16.6,14.87-34.41,24.13-49.36,6.5-10.52,13.49-19.62,20.81-25.87,3.92-3.34,7.92-5.88,11.98-7.38"/>
          <path class="cls-8" d="M148.66,407.99c1.46,3.73,2.72,7.78,3.8,12.23,6.95,28.42,7.69,72.83,8.6,104.08.52,17.95,3.67,44.12,12.46,62.99,7.96,17.1,20.57,28.18,40.06,21.58"/>
          <path class="cls-8" d="M80.47,401.1c-4.48,4.31-8.79,10.04-12.75,17.14-13.04,23.47-23.18,10.52-17.26-7.34"/>
          <g>
            <line class="cls-8" x1="132.32" y1="595.65" x2="132.32" y2="595.65"/>
            <path class="cls-10" d="M129.51,581.01c-4.27-29-1.25-57.31,1.16-80.51.04-.42.09-.85.13-1.27"/>
            <line class="cls-8" x1="131.52" y1="491.81" x2="131.52" y2="491.81"/>
          </g>
          <path class="cls-8" d="M131.52,491.81c3.37-36.2,4.36-76.76-10.78-91.81-12.21-12.13-27.04-11.65-40.28,1.11"/>
          <g>
            <line class="cls-8" x1="203.63" y1="677.95" x2="203.63" y2="677.95"/>
            <path class="cls-5" d="M189.93,673.67c-15.12-6.31-29.47-17.95-40.92-36.88-6.75-11.15-11.54-22.64-14.86-34.2"/>
            <line class="cls-8" x1="132.32" y1="595.65" x2="132.32" y2="595.65"/>
          </g>
          <path class="cls-8" d="M50.46,410.9c8.5-25.7,32.96-42.22,56.76-37.27,20.07,4.17,33.54,14.25,41.44,34.36"/>
          <path class="cls-8" d="M353.81,595.65c-7.67-15.1-16.61-21.56-25.64-7.59"/>
          <g>
            <line class="cls-8" x1="328.16" y1="588.06" x2="328.16" y2="588.06"/>
            <path class="cls-6" d="M321.34,601.56c-15.11,30.37-42.71,62.62-68.75,72.4-12.39,4.64-26.78,6.93-41.36,5.23"/>
            <line class="cls-8" x1="203.75" y1="677.97" x2="203.75" y2="677.97"/>
          </g>
          <path class="cls-8" d="M80.47,401.1c8.21,2.33,12.93,9.2,14.48,20.3.93,6.68.7,14.89-.64,24.57-.17,1.44-.39,2.89-.64,4.39-.76,4.62-1.53,9.1-2.29,13.49-1.49,8.4-2.97,16.42-4.37,24.28-1.36,7.61-2.64,15.06-3.73,22.57-1.34,9.12-2.43,18.32-3.07,27.97-.47,6.41-.72,12.99-.76,19.88-.02,5.16.27,10.11.85,14.89,1.18,9.82,3.53,18.79,6.68,26.88,7.59,19.55,19.8,33.83,31.11,41.91,28.69,20.46,68.38,33.72,85.52,35.71.04.02.08.02.12.02"/>
          <path class="cls-8" d="M113.66,202.83c2.56-7.57,6.13-16.36,14.69-24.44,17.18-16.19,53.69-22.83,81.93,9.57,11.24,12.89,17.41,36.35,6.95,58.15-12.6,26.22-37.27,49.5-52.5,76.13-2.04,3.51-3.9,7.1-5.53,10.75-.37.8-.72,1.61-1.05,2.43-.02.06-.06.12-.08.17"/>
          <path class="cls-8" d="M153.51,381.13c-.17-2.1-.29-4.15-.39-6.17-.37-7.88.17-15.88,1.53-24.01.5-3.01,1.11-6.04,1.84-9.08.49-2.14,1.05-4.29,1.65-6.44.23-.85.49-1.73.76-2.6,5.4-18.13,14.21-37.05,25.29-57.05.64-1.18,1.32-2.37,1.98-3.55,19.9-35.37,19.88-60.11-1.73-78.3-17.26-14.54-43.87-8.6-55.09,8.33-10.33,15.57-7.96,21.74-18.52,28.34-10.58,6.6-15.84-4.11-5.96-10.69,4.64-3.09,6.21-9.41,8.77-17"/>
          <path class="cls-8" d="M175.23,445.74c-6.81-9.7-11.53-19.58-14.81-29.23"/>
          <path class="cls-8" d="M234.74,493.77c-15.99-7.8-28.86-16.44-39.19-25.5"/>
          <path class="cls-8" d="M243.96,328.1c2.93-4.37,6.13-8.7,9.67-12.97"/>
          <path class="cls-8" d="M255.55,467.89c-39.25-32.03-45.63-88.82-11.59-139.77"/>
          <path class="cls-8" d="M243.96,328.1v.02c-9.22,26.2-2.45,59.59,45.69,71.88"/>
          <path class="cls-8" d="M113.66,202.89v-.06c3.82-33.56,31.04-61.03,73.89-57.59"/>
          <path class="cls-8" d="M153.51,381.13c.83-.87,1.81-1.44,2.89-1.59,4.91-.74,10.13,6.97,11.63,17.18,1.51,10.21-1.24,19.08-6.17,19.82-.47.08-.95.06-1.44-.02-3.13-.54-6.21-4.25-8.25-9.59-.85-2.27-1.53-4.83-1.94-7.59-1.18-7.96.25-15.1,3.28-18.21Z"/>
          <path class="cls-8" d="M175.23,445.74c3.57-1.81,10.15,1.82,15.18,8.52,3.75,5.01,5.59,10.38,5.14,13.99-.17,1.49-.74,2.68-1.73,3.42-3.4,2.54-10.44-1.13-15.74-8.19-5.28-7.07-6.81-14.85-3.42-17.39.17-.14.37-.25.56-.35Z"/>
          <path class="cls-8" d="M218.17,440c5.9,7.88,6.97,17.06,2.37,20.5-4.58,3.44-13.08-.16-18.98-8.04-5.9-7.88-6.97-17.06-2.39-20.5,4.6-3.44,13.1.16,19,8.04Z"/>
          <path class="cls-8" d="M188.3,333.17c-4.21,10.13-11.72,16.63-16.79,14.54-5.07-2.12-5.76-12.03-1.55-22.17,4.19-10.13,11.72-16.63,16.79-14.54,5.07,2.1,5.76,12.01,1.55,22.17Z"/>
          <path class="cls-8" d="M219.57,323.09c5.49,3.16,5.51,13.45.02,22.94-5.47,9.51-14.38,14.64-19.88,11.47-5.49-3.18-5.51-13.45-.02-22.96,5.47-9.49,14.38-14.64,19.88-11.45Z"/>
          <path class="cls-8" d="M193.19,375.27c6.35,0,11.49,8.89,11.49,19.88s-5.14,19.86-11.49,19.86-11.49-8.89-11.49-19.86,5.14-19.88,11.49-19.88Z"/>
          <path class="cls-8" d="M231.93,261.95c4.02,2.93,2.76,11.49-2.8,19.12-5.57,7.63-13.33,11.43-17.33,8.5-4.02-2.93-2.78-11.49,2.8-19.12,5.55-7.63,13.32-11.43,17.33-8.5Z"/>
          <path class="cls-8" d="M117.82,418.49c4.68.04,8.4,6.31,8.33,13.98-.08,7.69-3.92,13.88-8.58,13.84-4.68-.06-8.4-6.31-8.33-13.99.06-7.69,3.9-13.86,8.58-13.82Z"/>
          <path class="cls-8" d="M111.35,491.77c-4.64-.58-7.61-7.24-6.64-14.87.95-7.61,5.49-13.32,10.13-12.73,4.62.6,7.61,7.24,6.64,14.87-.97,7.61-5.49,13.32-10.13,12.73Z"/>
          <path class="cls-8" d="M105.07,541.48c-5.03-.64-8.25-7.84-7.2-16.09,1.05-8.25,5.96-14.42,10.99-13.8,5.01.64,8.23,7.84,7.18,16.11-1.05,8.25-5.96,14.42-10.97,13.78Z"/>
          <path class="cls-8" d="M108.97,597.96c-5.36.72-10.64-5.82-11.82-14.62-1.18-8.77,2.19-16.48,7.53-17.2,5.34-.72,10.64,5.82,11.82,14.6,1.18,8.79-2.19,16.5-7.53,17.22Z"/>
          <g>
            <line class="cls-8" x1="272.92" y1="159.47" x2="272.92" y2="159.47"/>
            <path class="cls-3" d="M253.35,150.12c-3.31-1.63-6.66-3.3-9.69-4.86"/>
            <line class="cls-8" x1="234.18" y1="140" x2="234.18" y2="140"/>
            <path class="cls-4" d="M236.37,160.32c.26,3.21.5,6.64.7,10.2"/>
            <line class="cls-8" x1="237.44" y1="180.74" x2="237.44" y2="180.74"/>
            <path class="cls-9" d="M254.43,190.33c1.94,1.01,4,2.05,6.13,3.08.86.41,1.74.83,2.62,1.24"/>
            <line class="cls-8" x1="272.11" y1="198.6" x2="272.11" y2="198.6"/>
            <path class="cls-1" d="M272.9,179.04c.05-1.92.09-3.88.12-5.85.02-1.32.04-2.63.04-3.94"/>
          </g>
          <path class="cls-8" d="M650.82,413.1c-8.56,10.33-16.75,23.35-23.6,40.45-2.39,5.96-4.62,12.42-6.64,19.45-6.64,23.08-16.01,37.89-28.73,45.36"/>
          <g>
            <line class="cls-8" x1="767.24" y1="368.03" x2="767.24" y2="368.03"/>
            <path class="cls-2" d="M764.27,353.5c-6.53-18.6-24.06-42.22-62.7-45.61-25.52-2.23-27.35,12.36-7.73,14.77,23.58,2.91,29.52,24.46,9.2,45.52-10.41,10.8-29.24,19.71-47.33,39.31"/>
            <line class="cls-8" x1="650.82" y1="413.1" x2="650.82" y2="413.1"/>
          </g>
          <path class="cls-8" d="M609.05,610.91c27.99-4.17,46.99-13.14,58.62-25.37,9.22-9.7,13.82-21.45,14.58-34.47,2.48-42.29-3.47-76.32,34.2-111.51,29.68-27.72,50.45-53.07,50.8-71.49"/>
          <path class="cls-8" d="M704.76,523.27c-3.69,24.48-15.18,42.84-37.09,62.27-.06.06-.14.12-.19.17"/>
          <path class="cls-8" d="M726.09,453.68c-8.42,10.6-13,20.44-15.82,31.41"/>
          <path class="cls-8" d="M757.34,413.16c-3.3,5.76-7.28,11.35-11.76,17.06v.02"/>
          <path class="cls-8" d="M767.24,368.03v.04c.72,8.68.17,16.4-1.38,23.49"/>
          <path class="cls-8" d="M710.27,485.09c.31.04.62.12.91.23,5.42,1.84,8.04,11.8,5.82,22.19-1.98,9.43-7.26,15.99-12.25,15.76.31-2.04.58-4.11.78-6.25,1.16-12.27,2.31-22.52,4.74-31.93Z"/>
          <path class="cls-8" d="M503.55,485.87c-.66.29-1.34.37-2.04.25-3.69-.64-6.39-6.74-6.06-13.65.33-6.87,3.57-11.98,7.24-11.34.31.06.62.14.91.29-.7,7.32-.72,15.31-.06,24.44Z"/>
          <path class="cls-8" d="M511.32,536.53c-.62.37-1.32.58-2.06.58-4.15.04-8.35-6.11-9.36-13.76-1.01-7.63,1.53-13.86,5.71-13.9.25,0,.5.02.76.08,1.11,7.14,2.52,14.89,4.23,23.35.25,1.2.49,2.43.72,3.65Z"/>
          <path class="cls-8" d="M514.54,586.53c-.19,0-.39-.02-.58-.04-4.12-.58-7.36-7.28-7.2-15,.14-7.69,3.59-13.47,7.71-12.89.02,0,.04,0,.06.02.89,9.59,1.07,19.16.02,27.91Z"/>
          <path class="cls-8" d="M529.45,586.27c-4.29-.8-7.36-7.94-6.85-15.97.49-8.04,4.35-13.92,8.62-13.12,4.27.78,7.36,7.94,6.85,15.96-.49,8.06-4.35,13.92-8.62,13.14Z"/>
          <path class="cls-8" d="M517.34,518.77c-.37-9.03,3.28-16.07,8.15-15.66,4.87.39,9.14,8.06,9.49,17.1.37,9.05-3.28,16.07-8.15,15.68-4.87-.41-9.12-8.06-9.49-17.12Z"/>
          <path class="cls-8" d="M517.49,483.21c-4.52-.97-7.57-8.66-6.83-17.2.76-8.5,5.03-14.65,9.55-13.68,4.52.95,7.57,8.64,6.81,17.16-.74,8.54-5.03,14.67-9.53,13.72Z"/>
          <path class="cls-8" d="M523.55,411.02c.17.04.33.1.49.17,3.11,1.44,4.06,7.53,2.08,13.59-1.96,6.08-6.09,9.8-9.22,8.37-2.12-.99-3.22-4.08-3.11-7.84.04-1.82.39-3.78,1.03-5.76,1.86-5.75,5.69-9.41,8.73-8.52Z"/>
          <path class="cls-8" d="M745.58,430.24c3.32,3.2,1.82,11.3-3.32,18.07-5.12,6.81-11.98,9.72-15.3,6.52-.35-.33-.64-.72-.87-1.15.72-.91,1.48-1.82,2.25-2.74,6.23-7.36,12.07-14.11,17.24-20.71Z"/>
          <path class="cls-8" d="M765.86,391.55c1.44-.8,2.68-.72,3.47.37,1.82,2.48.68,9.34-2.58,15.3-3.24,5.96-7.36,8.77-9.18,6.31-.08-.12-.16-.23-.23-.37,3.86-6.79,6.81-13.82,8.52-21.6Z"/>
          <path class="cls-8" d="M463.07,143.32c26.9-10.04,72.01-8.77,99.5,19.1"/>
          <path class="cls-8" d="M549.7,274.47c-8.02,7.26-25.05,5.9-47.6,12.61-2.87.85-5.69,1.71-8.42,2.6-18.75,6.06-34.14,13.51-42.86,31.93-6.62,13.98-15.53,9.55-12.89-8.93,4.6-32.08,37.81-55.09,64.07-73.87,6.83-4.87,13.2-9.47,18.46-13.86,25.54-21.33,2.21-61.94-34.03-54.39"/>
          <path class="cls-8" d="M493.54,185.3c8.56.25,15.39,4.43,15.31,9.43-.04,3.82-4.13,7.07-9.92,8.37-1.38-6.25-3.16-12.19-5.4-17.8Z"/>
          <path class="cls-8" d="M502.08,233.55c0-4.81-.21-9.51-.64-14.07,4.21.64,7.32,2.66,7.8,5.51.54,3.24-2.45,6.62-7.16,8.56Z"/>
          <path class="cls-8" d="M452.58,566.88s9.22,21.72,58.73,34.16"/>
        </g>
        <path d="M419.25,381.32c-6.99-2.58-15.18,6.23-18.34,19.6-3.12,13.41-.04,26.36,6.93,28.94,6.97,2.54,15.2-6.23,18.32-19.66,3.16-13.39.08-26.34-6.91-28.88ZM422.84,399.51c-1.09,4.72-3.98,7.8-6.42,6.91-2.47-.91-3.55-5.45-2.45-10.17,1.11-4.7,4-7.8,6.44-6.89,2.45.89,3.53,5.45,2.43,10.15Z"/>
      </g>
      <text class="cls-14" transform="translate(443.41 369.74)"><tspan x="0" y="0">1</tspan></text>
      <text class="cls-14" transform="translate(229.74 133.73)"><tspan x="0" y="0">1</tspan></text>
      <text class="cls-14" transform="translate(30.25 321.62)"><tspan x="0" y="0">1</tspan></text>
      <text class="cls-14" transform="translate(348.08 114.31)"><tspan x="0" y="0">1</tspan></text>
      <text class="cls-14" transform="translate(374.26 110.31) scale(.86 1)"><tspan x="0" y="0">2</tspan></text>
      <text class="cls-14" transform="translate(404.08 110.31)"><tspan x="0" y="0">3</tspan></text>
      <text class="cls-14" transform="translate(434.26 121.23)"><tspan x="0" y="0">4</tspan></text>
      <text class="cls-14" transform="translate(460.08 133.73)"><tspan x="0" y="0">5</tspan></text>
      <text class="cls-14" transform="translate(143.69 260.96)"><tspan x="0" y="0">5</tspan></text>
      <text class="cls-14" transform="translate(176.81 269.19)"><tspan x="0" y="0">6</tspan></text>
      <text class="cls-14" transform="translate(270.83 152.51)"><tspan x="0" y="0">2</tspan></text>
      <text class="cls-14" transform="translate(58.18 322.15)"><tspan x="0" y="0">2</tspan></text>
      <text class="cls-14" transform="translate(279.19 203.1)"><tspan x="0" y="0">3</tspan></text>
      <text class="cls-14" transform="translate(83.7 295.58)"><tspan x="0" y="0">3</tspan></text>
      <text class="cls-14" transform="translate(243.95 188.56)"><tspan x="0" y="0">4</tspan></text>
      <text class="cls-14" transform="translate(109.44 269.19)"><tspan x="0" y="0">4</tspan></text>
      <text class="cls-14" transform="translate(656.79 430.24)"><tspan x="0" y="0">1</tspan></text>
      <text class="cls-14" transform="translate(594.19 616.25)"><tspan x="0" y="0">1</tspan></text>
      <text class="cls-14" transform="translate(681.29 406.57)"><tspan x="0" y="0">2</tspan></text>
      <text class="cls-14" transform="translate(582.32 651.49)"><tspan x="0" y="0">2</tspan></text>
      <text class="cls-14" transform="translate(709.04 381.13)"><tspan x="0" y="0">3</tspan></text>
      <text class="cls-14" transform="translate(569.61 677.95)"><tspan x="0" y="0">3</tspan></text>
      <text class="cls-14" transform="translate(722.99 350.95)"><tspan x="0" y="0">4</tspan></text>
      <text class="cls-14" transform="translate(547.01 699.55)"><tspan x="0" y="0">4</tspan></text>
      <text class="cls-14" transform="translate(520.46 714.01)"><tspan x="0" y="0">5</tspan></text>
      <text class="cls-14" transform="translate(493.68 722.85)"><tspan x="0" y="0">6</tspan></text>
      <text class="cls-14" transform="translate(460.05 723.03)"><tspan x="0" y="0">7</tspan></text>
      <text class="cls-14" transform="translate(427.32 716.19)"><tspan x="0" y="0">8</tspan></text>
      <text class="cls-14" transform="translate(398.58 697.37)"><tspan x="0" y="0">9</tspan></text>
      <text class="cls-14" transform="translate(374.22 673.44)"><tspan x="0" y="0">10</tspan></text>
      <text class="cls-14" transform="translate(356.4 644.84)"><tspan x="0" y="0">11</tspan></text>
      <text class="cls-14" transform="translate(342.58 611.92)"><tspan x="0" y="0">12</tspan></text>
      <text class="cls-14" transform="translate(323.15 577.41)"><tspan x="0" y="0">14</tspan></text>
      <text class="cls-14" transform="translate(301.13 610.8)"><tspan x="0" y="0">15</tspan></text>
      <text class="cls-14" transform="translate(281.85 636.8)"><tspan x="0" y="0">16</tspan></text>
      <text class="cls-14" transform="translate(260.04 654.07)"><tspan x="0" y="0">17</tspan></text>
      <text class="cls-14" transform="translate(229.5 668.69)"><tspan x="0" y="0">18</tspan></text>
      <text class="cls-14" transform="translate(196.32 668.69)"><tspan x="0" y="0">18</tspan></text>
      <text class="cls-14" transform="translate(165.29 652.64)"><tspan x="0" y="0">19</tspan></text>
      <text class="cls-14" transform="translate(146.6 623.93)"><tspan x="0" y="0">20</tspan></text>
      <text class="cls-14" transform="translate(137.51 595.65)"><tspan x="0" y="0">21</tspan></text>
      <text class="cls-14" transform="translate(133.6 564.99)"><tspan x="0" y="0">22</tspan></text>
      <text class="cls-14" transform="translate(133.6 531.27)"><tspan x="0" y="0">23</tspan></text>
      <text class="cls-14" transform="translate(135.22 499.27)"><tspan x="0" y="0">24</tspan></text>
      <text class="cls-14" transform="translate(695.83 300.48)"><tspan x="0" y="0">6</tspan></text>
      <text class="cls-14" transform="translate(736.72 309.29)"><tspan x="0" y="0">7</tspan></text>
      <text class="cls-14" transform="translate(763.77 337.98)"><tspan x="0" y="0">9</tspan></text>
      <text class="cls-14" transform="translate(478.3 379.79)"><tspan x="0" y="0">2</tspan></text>
      <text class="cls-14" transform="translate(511.01 379.79)"><tspan x="0" y="0">3</tspan></text>
      <text class="cls-14" transform="translate(556.6 376.5)"><tspan x="0" y="0">4</tspan></text>
      <text class="cls-14" transform="translate(569.67 345.45)"><tspan x="0" y="0">5</tspan></text>
      <text class="cls-14" transform="translate(567.43 313.35)"><tspan x="0" y="0">6</tspan></text>
      <text class="cls-14" transform="translate(563.71 283.41)"><tspan x="0" y="0">7</tspan></text>
      <text class="cls-14" transform="translate(562.81 249.74)"><tspan x="0" y="0">8</tspan></text>
      <text class="cls-14" transform="translate(564.8 219.9)"><tspan x="0" y="0">9</tspan></text>
      <text class="cls-14" transform="translate(562.81 189.81)"><tspan x="0" y="0">10</tspan></text>
      <text class="cls-14" transform="translate(581.99 164.94)"><tspan x="0" y="0">11</tspan></text>
      <text class="cls-14" transform="translate(590.38 121.23)"><tspan x="0" y="0">12</tspan></text>
      <text class="cls-14" transform="translate(624.96 114.31)"><tspan x="0" y="0">13</tspan></text>
      <text class="cls-14" transform="translate(658 123.83)"><tspan x="0" y="0">14</tspan></text>
      <text class="cls-14" transform="translate(695.85 153.04)"><tspan x="0" y="0">15</tspan></text>
      <text class="cls-14" transform="translate(700.57 196.66)"><tspan x="0" y="0">16</tspan></text>
    </g>
  </g>
</svg>