<?xml version="1.0" encoding="UTF-8"?>
<svg xmlns="http://www.w3.org/2000/svg" width="800" height="800" version="1.1" viewBox="0 0 800 800">
  <defs>
    <style>
      .cls-1 {
        fill: #d674a0;
      }

      .cls-2 {
        fill: none;
        stroke: #d674a0;
        stroke-miterlimit: 10;
        stroke-width: 1.72px;
      }
    </style>
  </defs>
  <!-- Generator: Adobe Illustrator 28.7.3, SVG Export Plug-In . SVG Version: 1.2.0 Build 164)  -->
  <g>
    <g id="Camada_1">
      <g>
        <path class="cls-1" d="M487.99,721.09h-.09c-1.82-.05-3.26-1.56-3.21-3.38v-.35c.07-1.82,1.58-3.27,3.42-3.18,1.82.06,3.25,1.59,3.18,3.41v.29c-.06,1.79-1.52,3.21-3.3,3.21ZM510.21,718.49c-.68,0-1.37-.21-1.96-.64-1.47-1.08-1.78-3.15-.69-4.61l.19-.26c1.08-1.47,3.15-1.78,4.61-.69,1.47,1.08,1.78,3.15.69,4.61l-.19.26c-.65.88-1.64,1.34-2.66,1.34ZM507.83,676.14c-.51,0-1.03-.12-1.52-.37-1.62-.84-2.25-2.83-1.41-4.45l.14-.26c.83-1.62,2.81-2.27,4.44-1.44,1.62.83,2.27,2.81,1.44,4.44l-.16.31c-.59,1.13-1.74,1.78-2.93,1.78ZM535.54,675.71c-.45,0-.92-.1-1.36-.29-1.66-.75-2.4-2.71-1.65-4.37l.14-.32c.76-1.65,2.73-2.37,4.38-1.61,1.66.76,2.38,2.73,1.61,4.38l-.12.27c-.55,1.22-1.75,1.94-3.01,1.94ZM523.94,629.28c-.11,0-.23,0-.35-.02-1.81-.19-3.13-1.81-2.94-3.63l.03-.32c.19-1.81,1.79-3.14,3.63-2.93,1.81.19,3.13,1.81,2.94,3.63l-.03.32c-.18,1.69-1.61,2.95-3.28,2.95ZM549.79,628.22c-.11,0-.21,0-.32-.01-1.81-.18-3.14-1.79-2.97-3.6l.03-.29c.16-1.81,1.74-3.18,3.58-3,1.81.16,3.16,1.76,3,3.57l-.03.35c-.16,1.7-1.6,2.98-3.28,2.98ZM509.71,582.74c-1.08,0-2.14-.53-2.77-1.51l-.17-.27c-.99-1.53-.55-3.57.98-4.56,1.53-.99,3.57-.55,4.56.98l.17.27c.99,1.53.55,3.57-.98,4.56-.55.36-1.17.53-1.79.53ZM539.4,580.32c-1.17,0-2.31-.63-2.91-1.73l-.14-.26c-.88-1.6-.3-3.6,1.3-4.48,1.6-.87,3.6-.29,4.48,1.3l.17.31c.87,1.6.27,3.61-1.34,4.47-.5.27-1.03.4-1.56.4ZM484.28,540.02c-1.31,0-2.56-.79-3.07-2.09l-.11-.27c-.69-1.69.13-3.61,1.82-4.3,1.69-.68,3.61.13,4.3,1.82l.13.32c.67,1.69-.16,3.61-1.85,4.28-.4.16-.81.23-1.21.23ZM512.86,538.2c-1.17,0-2.31-.63-2.91-1.73l-.15-.28c-.87-1.6-.27-3.61,1.34-4.47,1.6-.86,3.61-.27,4.47,1.33l.15.28c.87,1.6.27,3.61-1.34,4.47-.5.27-1.03.4-1.56.4ZM478.12,491.07c-.11,0-.21,0-.32-.01-1.81-.18-3.14-1.79-2.97-3.6l.03-.29c.16-1.81,1.75-3.16,3.58-3,1.81.16,3.16,1.76,3,3.57l-.03.35c-.16,1.7-1.6,2.98-3.28,2.98ZM507.29,486.89l-3.3-.19-3.28-.34s.03-.33.03-.33c.19-1.81,1.8-3.15,3.63-2.93,1.81.19,3.13,1.81,2.94,3.63l-3.28-.35,3.26.51ZM489.54,442.71c-.36,0-.73-.06-1.1-.19-1.72-.6-2.62-2.49-2.02-4.21l.12-.33c.62-1.71,2.51-2.61,4.22-1.98,1.71.62,2.6,2.51,1.98,4.22l-.1.28c-.48,1.36-1.75,2.21-3.11,2.21ZM516.42,441.91c-.39,0-.78-.07-1.16-.21-1.71-.64-2.57-2.55-1.92-4.25l.12-.31c.65-1.7,2.55-2.57,4.26-1.91,1.7.65,2.56,2.55,1.91,4.25l-.11.3c-.5,1.32-1.75,2.14-3.09,2.14ZM508.25,396.55c-.4,0-.82-.07-1.21-.23-1.69-.67-2.52-2.59-1.85-4.28l.11-.28c.66-1.7,2.57-2.54,4.27-1.88,1.7.66,2.54,2.57,1.88,4.27l-.13.32c-.51,1.3-1.76,2.09-3.07,2.09ZM536.73,396.47c-.51,0-1.03-.12-1.52-.37-1.62-.84-2.25-2.83-1.41-4.45l.15-.29c.84-1.62,2.83-2.25,4.45-1.41,1.62.84,2.25,2.83,1.41,4.45l-.15.29c-.59,1.13-1.74,1.78-2.93,1.78ZM527.3,353.47c-1.74,0-3.2-1.36-3.3-3.13-.1-1.82,1.3-3.37,3.12-3.47h.27c1.82-.13,3.39,1.23,3.52,3.05.13,1.82-1.24,3.39-3.06,3.52l-.37.02c-.06,0-.12,0-.18,0ZM559.34,352.07c-.48,0-.97-.1-1.43-.33-1.64-.79-2.33-2.76-1.54-4.4l.11-.24c.76-1.65,2.72-2.37,4.38-1.61,1.66.76,2.38,2.73,1.61,4.38l-.16.33c-.57,1.18-1.75,1.87-2.98,1.87Z"/>
        <path class="cls-1" d="M347.88,717.93c-1.39,0-2.68-.9-3.13-2.3-.56-1.73.41-3.59,2.13-4.15l.05-.02c1.69-.69,3.61.12,4.3,1.81.69,1.69-.12,3.61-1.81,4.3-.19.07-.37.14-.56.2-.33.1-.66.15-.99.15ZM382.74,674.41c-.27,0-.53-.03-.8-.1-1.77-.44-2.84-2.23-2.4-4l3.2.8-3.17-.92.05-.21c.45-1.77,2.24-2.83,4.01-2.38,1.77.45,2.83,2.25,2.38,4.01,0,0-.07.3-.07.3-.37,1.5-1.72,2.5-3.2,2.5ZM351.05,665.47c-.28,0-.57-.04-.86-.11-1.76-.47-2.81-2.28-2.33-4.04l.07-.28c.46-1.77,2.26-2.82,4.02-2.37,1.76.46,2.82,2.26,2.37,4.02l-.09.34c-.39,1.47-1.73,2.45-3.18,2.45ZM388.57,616.73c-.09,0-.17,0-.26,0-1.82-.14-3.17-1.73-3.03-3.55l.03-.35c.16-1.81,1.77-3.14,3.57-3,1.82.16,3.16,1.76,3,3.57l-.02.3c-.14,1.73-1.58,3.04-3.28,3.04ZM356.27,607.7c-.12,0-.25,0-.38-.02-1.81-.21-3.11-1.84-2.9-3.65l.03-.29c.19-1.81,1.8-3.14,3.63-2.93,1.81.19,3.13,1.81,2.94,3.63l-.04.35c-.19,1.68-1.62,2.93-3.27,2.93ZM415.17,568.34c-1.01,0-2.01-.46-2.66-1.34-1.08-1.47-.77-3.53.69-4.61,0,0,.13-.1.14-.1,1.47-1.08,3.6-.81,4.67.65,1.08,1.47.83,3.48-.63,4.56l-.26.19c-.59.44-1.28.64-1.96.64ZM378.87,555.71c-.86,0-1.71-.33-2.36-.99-1.27-1.3-1.25-3.39.06-4.67l.23-.22c1.3-1.27,3.39-1.25,4.67.06,1.27,1.3,1.25,3.39-.06,4.67l-.23.22c-.64.63-1.47.94-2.3.94ZM454.64,526.7c-.5,0-1.02-.12-1.5-.36-1.62-.83-2.27-2.81-1.44-4.44l.15-.29c.83-1.62,2.81-2.27,4.44-1.44,1.62.83,2.27,2.81,1.44,4.44l-.15.29c-.58,1.14-1.74,1.8-2.94,1.8ZM422.09,517.41c-.61,0-1.23-.17-1.78-.52-1.53-.99-1.98-3.03-.99-4.56l.18-.28c.99-1.53,3.03-1.97,4.56-.98,1.53.99,1.97,3.03.98,4.56l-.17.27c-.63.98-1.69,1.51-2.78,1.51ZM467.56,470.59s-.08,0-.12,0c-1.82-.06-3.25-1.59-3.18-3.41v-.35c.09-1.82,1.66-3.22,3.45-3.16,1.82.08,3.23,1.62,3.15,3.44v.3c-.07,1.78-1.54,3.18-3.31,3.18ZM435,461.57h-.03c-1.82-.01-3.29-1.5-3.27-3.33v-.35c.04-1.8,1.51-3.24,3.3-3.24h.06c1.82.03,3.27,1.53,3.24,3.36v.29c-.02,1.81-1.49,3.27-3.3,3.27ZM466.64,412.55h-.03c-1.82-.01-3.29-1.51-3.27-3.33v-.29c0-1.82,1.48-3.3,3.3-3.3s3.3,1.48,3.3,3.3v.35c-.02,1.81-1.49,3.27-3.3,3.27ZM433.9,403.54s-.1,0-.14,0c-1.82-.08-3.23-1.62-3.15-3.44v-.3c.08-1.82,1.64-3.25,3.42-3.18,1.82.06,3.25,1.59,3.18,3.41v.35c-.09,1.77-1.55,3.16-3.31,3.16ZM478.57,356.43c-.58,0-1.17-.15-1.7-.47-1.56-.94-2.06-2.97-1.13-4.53l.19-.32c.96-1.54,3-2.01,4.54-1.06,1.55.96,2.02,3,1.06,4.55l-.14.23c-.62,1.03-1.71,1.6-2.83,1.6ZM446.23,347.23c-.49,0-.98-.11-1.45-.34-1.64-.8-2.31-2.78-1.51-4.41l.13-.27c.79-1.64,2.76-2.33,4.4-1.54,1.64.79,2.33,2.76,1.54,4.4l-.15.31c-.57,1.17-1.75,1.85-2.97,1.85Z"/>
        <g>
          <g>
            <path class="cls-1" d="M460.92,265.97c-1.41,0-2.84-.19-4.25-.57-5.61-1.51-9.86-5.77-11.35-11.39l-1.04-3.91c-.23-.88.29-1.78,1.17-2.02.88-.23,1.78.29,2.02,1.17l1.04,3.91c1.18,4.46,4.56,7.85,9.02,9.05,4.46,1.2,9.08-.03,12.34-3.3l2.6-2.6c.64-.64,1.69-.65,2.33,0,.64.64.64,1.69,0,2.33l-2.6,2.6c-3.08,3.07-7.1,4.72-11.28,4.72Z"/>
            <path class="cls-1" d="M398.49,278.12c-3.61,0-7.52-.54-11.44-1.61-6.12-1.67-11.57-4.43-15.36-7.77-4.1-3.62-5.82-7.56-4.86-11.09.96-3.54,4.45-6.06,9.82-7.1,4.96-.96,11.06-.57,17.18,1.09,13.24,3.61,22.12,11.9,20.22,18.87h0c-.96,3.53-4.45,6.06-9.82,7.1-1.78.35-3.71.52-5.74.52ZM382.4,253.32c-1.81,0-3.54.15-5.12.46-4.01.78-6.65,2.5-7.26,4.73s.8,5.05,3.86,7.75c3.41,3.02,8.4,5.53,14.04,7.06,5.64,1.54,11.21,1.91,15.68,1.04,4.01-.78,6.65-2.5,7.26-4.73,1.22-4.47-5.68-11.49-17.9-14.82-3.64-.99-7.26-1.5-10.56-1.5ZM412.45,270.08h.02-.02Z"/>
            <path class="cls-1" d="M517.84,309.93c-3.61,0-7.52-.54-11.44-1.61-13.24-3.61-22.11-11.9-20.21-18.87,1.9-6.97,13.76-9.61,26.99-6,6.12,1.67,11.57,4.43,15.36,7.78,4.1,3.62,5.82,7.56,4.86,11.09-.96,3.54-4.45,6.06-9.82,7.1-1.78.35-3.71.52-5.74.52ZM501.69,285.11c-6.79,0-11.48,2.16-12.32,5.21-1.22,4.47,5.68,11.49,17.9,14.82,5.64,1.54,11.21,1.91,15.68,1.04,4.01-.78,6.65-2.5,7.26-4.73h0c.61-2.23-.8-5.05-3.86-7.75-3.41-3.02-8.4-5.53-14.04-7.06-3.87-1.06-7.48-1.52-10.63-1.52Z"/>
            <g>
              <path class="cls-1" d="M406.61,249.79c-15.94,0-30.09-11.47-32.92-27.7-1.53-8.8.46-17.66,5.59-24.97,5.14-7.3,12.81-12.17,21.61-13.7,8.8-1.53,17.67.46,24.97,5.59,7.3,5.14,12.17,12.81,13.7,21.61h0c3.16,18.16-9.04,35.51-27.2,38.67-1.93.33-3.85.5-5.75.5ZM406.69,186.21c-1.74,0-3.49.15-5.23.45-7.93,1.38-14.85,5.77-19.48,12.35s-6.42,14.58-5.04,22.5c2.85,16.37,18.48,27.38,34.85,24.52,16.37-2.85,27.37-18.49,24.52-34.85h0c-1.38-7.93-5.77-14.84-12.35-19.48-5.13-3.61-11.12-5.5-17.27-5.5Z"/>
              <path class="cls-1" d="M406.58,238.14c-4.45,0-8.78-1.36-12.49-3.97-4.76-3.35-7.93-8.35-8.93-14.08s.3-11.51,3.64-16.27c3.35-4.76,8.35-7.93,14.08-8.93,5.73-1,11.51.3,16.27,3.64,4.76,3.35,7.93,8.35,8.93,14.08h0c1,5.73-.3,11.51-3.64,16.27-3.35,4.76-8.35,7.93-14.08,8.93-1.26.22-2.53.33-3.78.33ZM406.66,197.54c-1.08,0-2.17.1-3.26.28-4.95.86-9.27,3.6-12.16,7.71-2.89,4.11-4.01,9.1-3.15,14.04.86,4.95,3.6,9.27,7.71,12.16,4.11,2.89,9.09,4.01,14.05,3.15,4.95-.86,9.27-3.6,12.16-7.71,2.89-4.11,4.01-9.1,3.15-14.04h0c-.86-4.95-3.6-9.27-7.71-12.16-3.2-2.25-6.94-3.43-10.78-3.43Z"/>
              <path class="cls-1" d="M520.13,280.13c-6.82,0-13.47-2.09-19.16-6.1-7.3-5.14-12.17-12.81-13.7-21.61-3.16-18.16,9.04-35.51,27.2-38.67,18.16-3.15,35.51,9.05,38.67,27.2h0c1.53,8.8-.46,17.66-5.59,24.97-5.14,7.3-12.81,12.17-21.61,13.7-1.94.34-3.88.5-5.81.5ZM520.21,216.56c-1.71,0-3.44.15-5.18.45-16.37,2.85-27.37,18.48-24.52,34.85,1.38,7.93,5.77,14.84,12.35,19.48,6.58,4.63,14.58,6.42,22.5,5.04,7.93-1.38,14.85-5.76,19.48-12.35,4.63-6.58,6.42-14.58,5.04-22.5h0c-2.55-14.63-15.3-24.97-29.67-24.97Z"/>
              <path class="cls-1" d="M520.19,268.48c-10.39,0-19.61-7.47-21.45-18.05-2.06-11.83,5.89-23.14,17.73-25.2,11.83-2.06,23.14,5.89,25.2,17.73,2.06,11.83-5.89,23.14-17.73,25.2-1.26.22-2.51.33-3.75.33ZM520.21,227.89c-1.07,0-2.15.09-3.23.28-10.22,1.78-17.08,11.54-15.3,21.75,1.78,10.21,11.53,17.08,21.75,15.3,10.22-1.78,17.08-11.54,15.3-21.75h0c-1.59-9.13-9.55-15.58-18.52-15.58Z"/>
            </g>
          </g>
          <g>
            <path class="cls-1" d="M129.44,631.02l-.89-15.6c-1.43-24.98,1.12-49.84,7.58-73.86,6.21-23.09,15.18-40.31,27.44-52.64,14.91-15,33.54-22.05,51.55-28.86,12.4-4.69,24.11-9.12,33.94-15.86,27.06-18.54,39.52-54.51,47.35-83.78,1.62-6.04,3.18-12.25,4.69-18.25,4.29-17.05,7.45-40.26,9.65-70.97l.26-3.6,2.55,2.55c7.07,7.06,17,16,29.53,26.56l.9.76-.43,1.1c-6.27,15.99-10.58,33.09-15.13,51.19-1.54,6.11-3.13,12.42-4.8,18.68-9.12,34.1-24.05,76.29-58.8,100.09-12.58,8.62-26.4,13.85-39.77,18.9-15.96,6.04-31.04,11.75-41.69,22.46-8.64,8.69-15.19,21.68-20.04,39.71-3.56,13.23-5.77,26.89-6.59,40.58-.96,16.11-10.3,30.87-24.99,39.48l-2.33,1.36ZM313.8,274.98c-2.2,29.15-5.31,51.42-9.48,67.98-1.51,6.01-3.08,12.23-4.7,18.3-7.98,29.81-20.72,66.49-48.68,85.64-10.16,6.96-22.05,11.46-34.64,16.22-17.69,6.69-35.97,13.61-50.38,28.1-11.85,11.91-20.55,28.65-26.6,51.17-6.37,23.69-8.88,48.19-7.48,72.82l.58,10.13c12.39-8.19,20.2-21.24,21.04-35.38.83-13.91,3.08-27.79,6.69-41.24,5-18.61,11.83-32.08,20.88-41.18,11.16-11.22,26.56-17.05,42.87-23.21,13.19-4.99,26.82-10.15,39.07-18.54,33.86-23.19,48.5-64.68,57.48-98.23,1.67-6.23,3.25-12.54,4.79-18.63,4.48-17.79,8.72-34.62,14.83-50.48-10.75-9.09-19.57-16.97-26.28-23.48Z"/>
            <path class="cls-1" d="M181.83,652.8c-1.31,0-2.58-.5-3.58-1.42-1.26-1.17-1.88-2.88-1.68-4.58l.3-2.51c.5-4.31,1.03-8.77,1.85-13.24-.02.06,0-.05,0-.15l.35-1.62c1.21-5.62,4.11-10.91,8.39-15.33l.34-.68h.26c3.53-4.21,6.76-8.95,9.59-14.11,4.96-10.15,8.45-21.27,11.83-32.01l.12-.4c6.96-22.16,14.85-47.28,35.42-61.5,9.52-6.58,19.5-10.84,28.01-14.13l.63-.24c7.67-2.97,15.6-6.04,22.72-10.3,3.87-2.7,7.63-5.94,11.08-9.56,4.03-4.74,7.82-10.3,11.2-16.45,5.11-10.24,9.2-21.8,12.84-36.32,1.64-6.53,3.11-13.22,4.54-19.7,1.57-7.11,3.19-14.46,5.03-21.65,3.79-14.75,8.67-27.74,14.92-39.7,3.91-7.47,8.68-14.53,14.19-20.99l.89-1.04,1.19.68c9.86,5.69,20.58,10.07,30.95,14.3l3.02,1.23-2.01,1.76c-1.73,1.51-3.47,3.19-5.32,5.14-4.25,4.98-8.19,10.72-11.65,16.97-7.71,15.45-11.87,32.41-15.46,48.45l-.81,3.61c-6.4,28.65-13.01,58.28-31.76,82.07-10.12,12.85-22.65,22.64-37.23,29.11-3.96,1.76-8.06,3.35-12.02,4.88-7.55,2.93-15.36,5.96-22.35,10.21-2.16,1.56-4.27,3.33-6.16,5.21-2.25,2.73-4.38,5.88-6.39,9.51-4.2,8.64-7.32,18.1-10.15,27.04l-.64,2.04c-5.48,17.35-11.16,35.29-21.82,50.68-2.41,3.47-5.09,6.83-7.98,9.97l-.2.19c-9.41,7.29-20.27,12.29-31.41,14.47-.34.07-.69.1-1.03.1ZM181.99,631.38c0,.08-.01.16-.03.25-.8,4.38-1.32,8.78-1.82,13.04l-.3,2.52c-.08.67.16,1.31.65,1.77.47.44,1.1.62,1.72.5,10.59-2.08,20.93-6.83,29.92-13.76,2.75-3,5.3-6.2,7.6-9.51,10.38-14.98,15.97-32.68,21.39-49.8l.64-2.04c2.87-9.06,6.03-18.65,10.37-27.57,2.15-3.88,4.39-7.2,6.88-10.21,2.12-2.11,4.36-4,6.78-5.73,7.34-4.46,15.29-7.55,22.98-10.53,3.93-1.52,7.99-3.1,11.88-4.82,14.09-6.25,26.2-15.71,35.98-28.13,18.28-23.2,24.81-52.45,31.13-80.75l.81-3.61c3.64-16.24,7.85-33.42,15.76-49.26,3.59-6.51,7.66-12.43,12.12-17.65,1.27-1.33,2.47-2.53,3.64-3.63-9.46-3.87-19.16-7.92-28.27-13.05-4.98,5.98-9.32,12.48-12.9,19.33-6.13,11.73-10.93,24.49-14.65,38.99-1.83,7.13-3.45,14.46-5.01,21.54-1.43,6.5-2.91,13.22-4.56,19.79-3.7,14.76-7.87,26.53-13.12,37.05-3.51,6.4-7.43,12.14-11.67,17.12-3.67,3.85-7.6,7.23-11.74,10.12-7.45,4.47-15.52,7.59-23.32,10.61l-.63.24c-8.33,3.23-18.08,7.38-27.32,13.77-19.63,13.57-27.34,38.12-34.15,59.77l-.12.4c-3.41,10.86-6.94,22.1-12.05,32.54-3.07,5.6-6.55,10.68-10.37,15.16l-.16.19-.51.53c-3.68,3.91-6.18,8.53-7.23,13.41l-.3,1.4Z"/>
            <path class="cls-1" d="M94.86,487.93c-2.74,0-5.35-1.23-6.64-3.16-1.11-1.67-1.18-3.68-.2-5.67,10.21-20.59,24.34-39.48,42-56.15,15.94-15.04,34.08-27.9,53.93-38.23,10.73-5.58,22.29-10.21,32.48-14.3,10.46-4.19,22.31-8.93,32.35-15.74,16.86-11.43,27.43-28.88,28.27-46.67.2-4.13-.18-8.36-.55-12.46-.58-6.52-1.19-13.27.4-20.08,1.53-6.58,6.11-18.48,19.53-24.32l1.14-.5.79.95c1.13,1.36,2.17,2.79,3.18,4.18.97,1.34,1.98,2.72,3.03,3.99l1.2,1.45-1.59,1c-.39.24-.81.47-1.29.68-10.68,4.48-12.04,16.52-11.89,23.3.06,3.02.26,6.06.45,9.01.54,8.41,1.09,17.1-1.34,26-5.38,19.68-19.37,36.78-39.38,48.13-10.28,5.83-21.52,10.33-32.38,14.67l-1.64.65c-12.41,4.97-22.2,9.48-30.81,14.2-37.05,20.29-66.86,50.43-83.94,84.87-1.22,2.46-3.59,3.97-6.52,4.15-.19.01-.39.02-.58.02ZM296.62,254.71c-11.22,5.43-15.15,15.74-16.5,21.52-1.47,6.29-.91,12.48-.33,19.03.38,4.21.77,8.56.56,12.91-.89,18.83-12,37.24-29.71,49.25-10.33,7-22.36,11.82-32.97,16.07-10.12,4.06-21.6,8.65-32.18,14.16-19.58,10.19-37.48,22.88-53.19,37.7-17.37,16.39-31.27,34.97-41.31,55.21-.46.93-.46,1.7-.01,2.38.72,1.08,2.53,1.81,4.26,1.67,1.01-.06,2.84-.45,3.77-2.33,17.37-35.05,47.67-65.69,85.31-86.3,8.73-4.78,18.63-9.34,31.17-14.36l1.64-.66c10.76-4.31,21.89-8.76,31.98-14.48,19.25-10.92,32.68-27.3,37.83-46.13,2.29-8.37,1.78-16.41,1.23-24.92-.19-2.98-.39-6.06-.45-9.15-.16-7.44,1.36-20.54,13.04-26.03-.64-.84-1.26-1.69-1.86-2.52-.73-1.01-1.49-2.04-2.26-3.04Z"/>
            <path class="cls-1" d="M305.9,624.65c-1.26,0-2.5-.43-3.53-1.16-2.33-1.65-3.58-4.9-1.44-7.91l50.7-71.47c2.37-3.32,4.74-6.64,7.06-10,2.61-3.76,5.55-8.18,7.51-13.02,3.05-7.54,2.67-15.42,2.26-23.77-.08-1.7-.16-3.39-.21-5.08-.36-11.94,2.05-21.12,7.6-28.9,3.09-4.34,6.86-8.12,10.5-11.77,2.97-2.98,6.04-6.06,8.66-9.38,5.68-7.19,9.67-15.6,11.55-24.33,2.17-10.08,1.23-19.75-.85-31.17l-.05-.26c-1.87-10.27-3.81-20.89-1.61-31.46,1.66-7.98,5.02-14.48,10.01-19.32l.74-.71.97.34c3.27,1.16,6.29,2.13,9.24,2.96l3.05.86-2.45,2.01c-.27.22-.56.42-.86.61-8.59,5.17-9.95,17.15-10.13,22.07-.26,6.92,1.07,13.94,2.35,20.73,1,5.29,2.04,10.77,2.35,16.26.59,10.36-.96,20.41-4.59,29.87-3.44,8.96-8.75,17.13-16.24,24.97-1.25,1.3-2.54,2.6-3.85,3.9-4.92,4.89-10,9.95-12.63,16.23-2.89,6.91-2.45,14.75-2.03,22.33.11,1.94.21,3.86.27,5.75.17,6.07-.26,11-1.36,15.54-1.14,4.73-3.25,9.53-6.62,15.11-4.26,7.06-9.22,13.86-14.01,20.43-1.9,2.6-3.8,5.2-5.65,7.82l-42.22,59.53c-1.21,1.7-2.85,2.42-4.47,2.42ZM415.62,338.73c-4.11,4.29-6.92,9.97-8.36,16.9-2.06,9.94-.18,20.24,1.63,30.19l.05.26c1.86,10.21,3.25,21.22.83,32.45-1.99,9.22-6.2,18.1-12.19,25.68-2.74,3.47-5.88,6.62-8.91,9.67-3.54,3.56-7.21,7.24-10.15,11.36-5.11,7.16-7.32,15.71-6.98,26.89.05,1.67.13,3.35.21,5.02.4,8.34.82,16.96-2.5,25.17-2.08,5.15-5.15,9.75-7.86,13.66-2.33,3.36-4.71,6.7-7.08,10.03l-2.99,4.2-47.71,67.27c-1.31,1.84.46,3.17.66,3.31.21.15,2.07,1.39,3.39-.48l42.22-59.53c1.86-2.63,3.77-5.24,5.68-7.85,4.75-6.51,9.66-13.25,13.85-20.19,3.19-5.29,5.17-9.79,6.23-14.18,1.03-4.24,1.43-8.91,1.27-14.67-.05-1.87-.16-3.76-.27-5.67-.44-7.95-.9-16.17,2.28-23.78,2.88-6.89,8.2-12.18,13.35-17.3,1.29-1.28,2.57-2.55,3.79-3.84,7.18-7.52,12.27-15.33,15.55-23.87,3.46-9.02,4.93-18.61,4.38-28.5-.3-5.27-1.31-10.64-2.3-15.83-1.32-6.97-2.68-14.18-2.41-21.47.24-6.21,1.83-17,9.5-23.21-1.68-.52-3.39-1.08-5.17-1.71Z"/>
            <path class="cls-1" d="M581.7,633.6c-2.42,0-4.9-1.36-5.67-4.35-6.85-26.78,2.24-54.02,12.15-79.62l.96-2.48c1.83-4.73,3.73-9.62,5.47-14.46,1.77-4.91,3.47-10.19,3.93-15.59.47-5.48-.49-9.88-2.87-13.09-2.23-3.01-5.57-5.28-8.51-7.28l-.65-.44c-7.2-4.88-15.35-10.42-16.75-20.18-.87-6.09.6-12.29,2.31-18.64,1.26-4.65,2.91-9.49,5.2-15.23,1.77-4.42,3.7-8.84,5.58-13.11,2.43-5.55,4.95-11.29,7.09-17.04,3.44-9.22,6.89-19.87,4.29-29.74-1.07-4.06-3.57-7.37-7.87-10.42-.95-.67-1.92-1.32-2.9-1.98-3.37-2.24-6.85-4.57-9.45-7.86-3.07-3.88-4.75-9.29-4.38-14.12l.1-1.33,1.32-.18c2.67-.37,5.39-.84,8.01-1.29l4.44-.77-2.11,3.19c-.12.18-.2.39-.25.65-.23,1.21-.08,2.71.4,4,1.28,3.44,4.75,5.74,8.12,7.97.5.33,1,.66,1.49.99,4.37,2.96,9.75,7.19,12.6,13.62,2.41,5.43,3.32,11.75,2.72,18.79-.94,10.94-5.09,21.49-9.27,31.36-1.15,2.72-2.34,5.43-3.53,8.14-3.03,6.92-6.17,14.07-8.61,21.33-1.47,4.37-3.07,9.56-3.78,14.95-.59,4.51.17,7.58,2.56,10.24,2.6,2.91,5.87,5.09,9.33,7.39,3.41,2.27,6.93,4.62,9.82,7.75,7.03,7.63,8.88,18.46,5.49,32.2-2.03,8.23-5.25,16.24-8.36,24-1.2,2.98-2.39,5.96-3.52,8.94-7.61,20.14-15.23,43.58-9.29,66.82.89,3.46-1.35,5.97-4.02,6.65-.51.13-1.05.2-1.59.2ZM572.87,349.54c.05,3.68,1.42,7.6,3.72,10.51,2.28,2.89,5.55,5.06,8.7,7.16,1.01.67,2.01,1.34,2.98,2.03,4.9,3.47,7.89,7.49,9.15,12.27,2.84,10.8-.78,22.04-4.39,31.73-2.18,5.84-4.71,11.62-7.16,17.21-1.86,4.25-3.79,8.64-5.53,13.01-2.25,5.62-3.86,10.34-5.08,14.87-1.62,6-3.01,11.84-2.23,17.32,1.19,8.32,8.38,13.2,15.34,17.92l.65.44c3.16,2.15,6.74,4.58,9.31,8.04,2.87,3.87,4.05,9.03,3.51,15.34-.5,5.77-2.27,11.3-4.12,16.42-1.76,4.88-3.66,9.79-5.5,14.53l-.96,2.47c-10.11,26.14-18.64,51.75-12.03,77.61.49,1.93,2.33,2.01,3.24,1.78.51-.13,2.13-.7,1.64-2.63-5.89-23.03,1.03-46.68,9.4-68.81,1.13-3,2.34-6,3.54-9,3.07-7.65,6.25-15.55,8.22-23.56,3.11-12.6,1.53-22.41-4.71-29.17-2.62-2.84-5.83-4.98-9.22-7.24-3.48-2.32-7.08-4.72-9.96-7.94-3.05-3.41-4.09-7.38-3.37-12.87.75-5.7,2.49-11.32,3.92-15.58,2.49-7.39,5.66-14.61,8.72-21.6,1.18-2.7,2.36-5.39,3.51-8.1,4.07-9.63,8.13-19.91,9.02-30.36.56-6.48-.27-12.26-2.45-17.17-2.5-5.64-7.19-9.35-11.44-12.23h0c-.48-.32-.97-.65-1.46-.97-3.62-2.4-7.73-5.12-9.39-9.57-.55-1.49-.79-3.13-.69-4.65-1.61.27-3.24.55-4.88.79Z"/>
            <g>
              <path class="cls-1" d="M603.09,345.72c-.16,0-.32-.01-.48-.04-1.8-.26-3.05-1.94-2.79-3.74l.04-.3c.25-1.81,1.91-3.07,3.73-2.81,1.8.25,3.06,1.92,2.81,3.73l-.05.34c-.24,1.64-1.65,2.82-3.26,2.82ZM606.81,296.05h-.09c-1.82-.05-3.26-1.56-3.21-3.38v-.32c.06-1.82,1.57-3.25,3.39-3.21,1.82.05,3.26,1.56,3.21,3.38v.32c-.06,1.79-1.52,3.21-3.3,3.21ZM605.8,246.23c-1.72,0-3.17-1.33-3.29-3.07l-.02-.33c-.13-1.82,1.25-3.39,3.06-3.52,1.82-.13,3.39,1.25,3.52,3.07l.02.32c.13,1.82-1.24,3.4-3.06,3.52-.08,0-.16,0-.23,0ZM291.49,227.16c-.56,0-1.13-.14-1.65-.44-1.58-.91-2.11-2.93-1.2-4.51l.19-.32c.94-1.56,2.97-2.07,4.53-1.13,1.56.94,2.06,2.97,1.13,4.53l-.14.23c-.61,1.05-1.72,1.64-2.86,1.64ZM599.28,196.86c-1.53,0-2.91-1.08-3.23-2.64l-.07-.36c-.35-1.79.83-3.52,2.61-3.86,1.78-.35,3.52.82,3.86,2.61l.06.28c.37,1.78-.78,3.53-2.57,3.9-.22.05-.45.07-.67.07ZM318.53,185.37c-.66,0-1.32-.19-1.89-.6-1.49-1.05-1.85-3.1-.8-4.6l.19-.26c1.05-1.49,3.11-1.85,4.6-.81,1.49,1.05,1.85,3.1.8,4.6l-.19.26c-.64.92-1.66,1.4-2.7,1.4ZM585.17,149.15c-1.29,0-2.52-.77-3.05-2.04l-.13-.32c-.69-1.69.13-3.61,1.82-4.3,1.69-.68,3.61.13,4.3,1.82l.11.27c.7,1.68-.1,3.61-1.78,4.31-.41.17-.84.25-1.26.25ZM349.17,146.06c-.76,0-1.53-.26-2.13-.79-1.37-1.2-1.56-3.22-.37-4.59l.21-.24c1.2-1.37,3.28-1.52,4.65-.32,1.37,1.2,1.52,3.28.32,4.65,0,0-.11.13-.11.13-.67.76-1.62,1.16-2.57,1.16ZM384.42,111.07c-.93,0-1.86-.39-2.51-1.16-1.18-1.39-1.01-3.47.38-4.65l.26-.22c1.4-1.17,3.48-.99,4.65.4,1.17,1.39.99,3.48-.4,4.65l-.23.2c-.62.53-1.38.79-2.14.79ZM560.13,106.31c-.95,0-1.89-.41-2.54-1.19l-.23-.28c-1.15-1.41-.93-3.49.48-4.64,1.42-1.15,3.49-.93,4.64.48l.18.22c1.16,1.4.97,3.48-.43,4.65-.62.51-1.36.76-2.1.76ZM425.53,83.19c-1.2,0-2.36-.66-2.94-1.8-.83-1.62-.18-3.61,1.44-4.44l.29-.15c1.62-.83,3.61-.18,4.44,1.44.83,1.62.18,3.61-1.44,4.44l-.29.15c-.48.24-.99.36-1.5.36ZM521.73,75.22c-.5,0-1.02-.12-1.5-.36l-.28-.14c-1.63-.82-2.28-2.81-1.46-4.43.82-1.63,2.8-2.28,4.43-1.46l.3.15c1.62.83,2.27,2.81,1.44,4.44-.58,1.14-1.74,1.8-2.94,1.8ZM472.74,68.28c-1.66,0-3.08-1.24-3.27-2.93-.21-1.81,1.09-3.45,2.9-3.65l.32-.04c1.82-.21,3.45,1.1,3.65,2.9.21,1.81-1.09,3.45-2.9,3.65l-.32.04c-.13.01-.25.02-.38.02Z"/>
              <path class="cls-1" d="M559.47,351.78c-1.69,0-3.13-1.29-3.28-3.01-.16-1.81,1.18-3.41,3-3.57l.26-.02c1.83-.2,3.44,1.12,3.63,2.93.19,1.81-1.12,3.44-2.94,3.63l-.38.04c-.1,0-.2.01-.29.01Z"/>
              <path class="cls-2" d="M559.48,348.48"/>
              <path class="cls-1" d="M479.23,355.92c-.11,0-.23,0-.35-.02l-.32-.03c-1.81-.19-3.13-1.81-2.94-3.63.19-1.81,1.8-3.14,3.63-2.93l.32.03c1.81.19,3.13,1.81,2.94,3.63-.18,1.69-1.61,2.95-3.28,2.95Z"/>
              <path class="cls-1" d="M444.79,344.73c-44.29-9.13-83-27.74-118.33-56.9-16.52-16-32.97-33.45-42.03-53.23l3-1.38c8.84,19.29,25.04,36.46,41.23,52.15,34.81,28.72,73.05,47.1,116.8,56.13l-.67,3.23Z"/>
              <g>
                <path class="cls-1" d="M424.46,119.27c-4.8,0-9.07-3.46-9.92-8.34-.95-5.47,2.72-10.7,8.19-11.65,5.48-.97,10.7,2.72,11.65,8.19h0c.95,5.47-2.72,10.7-8.19,11.65-.58.1-1.16.15-1.73.15ZM424.47,101.04c-.46,0-.93.04-1.4.12-4.43.77-7.41,5.01-6.64,9.44.77,4.43,5,7.41,9.43,6.64,4.43-.77,7.41-5.01,6.64-9.44-.69-3.96-4.14-6.76-8.03-6.76Z"/>
                <path class="cls-1" d="M408.76,127.33c-2.7,0-5.09-1.94-5.57-4.68-.26-1.49.08-2.99.95-4.22.87-1.24,2.17-2.06,3.65-2.31,1.48-.26,2.98.07,4.22.94s2.06,2.17,2.32,3.65-.08,2.99-.95,4.22c-.87,1.24-2.17,2.06-3.65,2.32-.33.06-.65.09-.97.09ZM408.77,117.94c-.21,0-.43.02-.65.06-.99.17-1.84.72-2.42,1.53-.57.82-.8,1.81-.63,2.79.35,2.03,2.29,3.4,4.32,3.04.98-.17,1.84-.72,2.42-1.53s.8-1.81.63-2.79h0c-.17-.99-.71-1.84-1.53-2.42-.64-.45-1.38-.68-2.14-.68Z"/>
                <path class="cls-1" d="M575.61,219.88c-1.15,0-2.28-.35-3.24-1.03-1.23-.87-2.06-2.17-2.32-3.65s.08-2.99.95-4.22c.87-1.24,2.17-2.06,3.65-2.32,1.49-.27,2.99.08,4.22.95,1.23.87,2.06,2.17,2.32,3.65s-.08,2.99-.95,4.22c-.87,1.24-2.17,2.06-3.65,2.32-.33.06-.66.09-.98.09ZM575.63,210.49c-.22,0-.43.02-.65.06-.98.17-1.84.72-2.42,1.53s-.8,1.81-.63,2.79c.17.99.72,1.84,1.53,2.42.82.58,1.82.8,2.79.63.98-.17,1.84-.72,2.42-1.53s.8-1.81.63-2.79c-.17-.99-.72-1.84-1.53-2.42-.64-.45-1.38-.68-2.14-.68Z"/>
                <path class="cls-1" d="M575.03,200.46c-1.58,0-2.97-1.13-3.25-2.74-.31-1.8.89-3.51,2.69-3.82,1.8-.31,3.51.89,3.82,2.69h0c.31,1.8-.89,3.51-2.69,3.82-.19.03-.38.05-.57.05ZM575.03,195.76c-.08,0-.16,0-.24.02-.76.13-1.26.85-1.13,1.61.13.76.86,1.25,1.61,1.13.76-.13,1.26-.85,1.13-1.61h0c-.12-.67-.71-1.15-1.37-1.15Z"/>
              </g>
            </g>
          </g>
        </g>
        <g>
          <path class="cls-1" d="M208.86,281.57c-4.71,0-9.29-1.44-13.22-4.21-5.04-3.55-8.4-8.84-9.45-14.91-1.06-6.07.31-12.19,3.86-17.23s8.84-8.4,14.91-9.45c12.53-2.18,24.5,6.24,26.68,18.77h0c2.18,12.53-6.24,24.5-18.77,26.68-1.34.23-2.68.35-4,.35ZM208.92,238.73c-1.12,0-2.26.1-3.4.3-5.2.9-9.74,3.78-12.78,8.1-3.04,4.32-4.21,9.56-3.31,14.76.91,5.2,3.78,9.74,8.1,12.78,4.32,3.04,9.57,4.22,14.76,3.31,5.2-.9,9.74-3.78,12.78-8.1,3.04-4.32,4.21-9.56,3.31-14.76h0c-1.67-9.59-10.04-16.38-19.46-16.38Z"/>
          <path class="cls-1" d="M674,297.42c-5.13,0-9.69-3.69-10.6-8.92-1.02-5.85,2.91-11.43,8.76-12.45,2.83-.5,5.69.15,8.04,1.8,2.35,1.65,3.92,4.13,4.41,6.96,1.02,5.85-2.91,11.43-8.76,12.45-.62.11-1.24.16-1.85.16ZM674.02,279.19c-.43,0-.86.04-1.3.11-4.05.71-6.78,4.58-6.07,8.64.71,4.05,4.58,6.78,8.63,6.07,4.05-.71,6.78-4.58,6.07-8.64h0c-.34-1.96-1.43-3.68-3.06-4.82-1.27-.89-2.76-1.36-4.28-1.36Z"/>
          <path class="cls-1" d="M653.03,479.32c-11.64,0-21.97-8.38-24.03-20.22-1.12-6.42.33-12.9,4.08-18.23,3.75-5.33,9.35-8.88,15.78-10,6.42-1.11,12.9.33,18.23,4.08,5.33,3.75,8.88,9.35,10,15.78h0c2.31,13.26-6.6,25.92-19.86,28.23-1.41.25-2.81.36-4.2.36ZM653.08,433.8c-1.22,0-2.44.11-3.66.32-5.55.97-10.4,4.04-13.64,8.65-3.24,4.61-4.5,10.21-3.53,15.77,2,11.46,12.95,19.17,24.41,17.17,11.47-2,19.17-12.95,17.17-24.41h0c-.97-5.55-4.04-10.4-8.65-13.64-3.6-2.53-7.79-3.85-12.1-3.85Z"/>
          <path class="cls-1" d="M263.42,707.44c-2.2,0-4.34-.67-6.17-1.96-2.35-1.65-3.92-4.13-4.41-6.96-.49-2.83.15-5.69,1.8-8.04s4.13-3.92,6.96-4.41c2.83-.49,5.69.15,8.04,1.8,2.35,1.65,3.92,4.13,4.41,6.96,1.02,5.85-2.91,11.43-8.76,12.45-.62.11-1.25.16-1.87.16ZM263.46,689.21c-.43,0-.86.04-1.3.11-1.96.34-3.68,1.43-4.83,3.06-1.15,1.63-1.59,3.61-1.25,5.57s1.43,3.68,3.06,4.82c1.63,1.15,3.61,1.59,5.57,1.25,4.05-.71,6.78-4.58,6.07-8.64h0c-.34-1.96-1.43-3.68-3.06-4.82-1.27-.89-2.76-1.36-4.28-1.36Z"/>
          <path class="cls-1" d="M149.76,344.76c-5.13,0-9.69-3.69-10.6-8.92-1.02-5.84,2.91-11.43,8.76-12.45,2.84-.49,5.69.15,8.04,1.8,2.35,1.65,3.92,4.13,4.41,6.96,1.02,5.85-2.91,11.43-8.76,12.45-.62.11-1.24.16-1.85.16ZM149.78,326.53c-.43,0-.86.04-1.3.11-4.05.71-6.78,4.58-6.07,8.63.34,1.96,1.43,3.68,3.06,4.82,1.63,1.15,3.61,1.59,5.57,1.25,4.05-.71,6.78-4.58,6.07-8.64h0c-.34-1.96-1.43-3.68-3.06-4.82-1.27-.89-2.76-1.36-4.28-1.36Z"/>
          <path class="cls-1" d="M201.12,741.92c-10.56,0-19.94-7.6-21.81-18.36-2.09-12.03,5.99-23.53,18.02-25.62,5.83-1.01,11.71.3,16.54,3.71,4.84,3.4,8.06,8.49,9.08,14.32h0c2.09,12.03-5.99,23.53-18.02,25.62-1.28.22-2.55.33-3.81.33ZM201.13,700.91c-1.07,0-2.15.09-3.24.28-10.24,1.78-17.12,11.56-15.34,21.8,1.78,10.24,11.56,17.13,21.81,15.34,10.24-1.78,17.12-11.57,15.34-21.81h0c-1.59-9.15-9.58-15.62-18.56-15.62Z"/>
          <path class="cls-1" d="M670.11,235.76c-3.64,0-7.18-1.11-10.22-3.25-3.89-2.74-6.49-6.83-7.31-11.52-.82-4.69.24-9.42,2.98-13.31,2.74-3.89,6.83-6.49,11.52-7.3,4.69-.82,9.42.24,13.31,2.98,3.89,2.74,6.49,6.83,7.3,11.52h0c1.68,9.68-4.82,18.93-14.5,20.62-1.03.18-2.07.27-3.1.27ZM670.17,203.41c-.84,0-1.68.07-2.52.22-3.82.66-7.16,2.78-9.39,5.95-2.23,3.17-3.1,7.03-2.43,10.85s2.78,7.16,5.95,9.39c3.17,2.23,7.02,3.09,10.85,2.43,7.89-1.38,13.19-8.91,11.82-16.8-.67-3.82-2.78-7.15-5.95-9.39-2.47-1.74-5.36-2.65-8.33-2.65Z"/>
          <path class="cls-1" d="M351.47,88.33c-5.13,0-9.69-3.69-10.6-8.92-1.02-5.85,2.91-11.43,8.76-12.45,2.84-.49,5.69.15,8.04,1.8,2.35,1.65,3.92,4.13,4.41,6.96h0c1.02,5.85-2.91,11.43-8.76,12.45-.62.11-1.24.16-1.85.16ZM351.49,70.1c-.43,0-.86.04-1.3.11-4.05.71-6.78,4.58-6.07,8.63s4.58,6.78,8.63,6.07c4.05-.71,6.78-4.58,6.07-8.63h0c-.34-1.96-1.43-3.68-3.06-4.82-1.27-.89-2.76-1.36-4.28-1.36Z"/>
        </g>
        <g>
          <path class="cls-1" d="M288.27,211.08l-.92.99-1.28-1.39,2.22-2.2,1.67-.29,1.35,7.77-2.13.37-.91-5.24Z"/>
          <path class="cls-1" d="M318.73,173.12l.33,1.89-5.25.92-.26-1.35,1.8-2.76c.5-.75.69-1.21.61-1.72-.07-.39-.38-.61-.74-.55-.37.06-.69.3-.94.8l-1.68-.82c.33-.87,1.08-1.7,2.46-1.94,1.36-.24,2.72.43,2.97,1.9.16.91.06,1.54-.81,2.83l-.81,1.19v.02s2.33-.41,2.33-.41Z"/>
          <path class="cls-1" d="M351.81,131.94c.24,1.4-.76,2.46-2.34,2.73-1.44.25-2.67-.36-3.23-1.35l1.71-1.03c.23.47.56.67,1.05.59.35-.06.66-.34.58-.85-.07-.42-.42-.68-.99-.58l-.47.08-.28-1.6.6-.1c.41-.07.63-.37.56-.75-.07-.41-.39-.61-.78-.54-.38.07-.56.29-.64.71l-1.84-.6c.16-.93,1.04-1.75,2.21-1.96,1.44-.25,2.73.31,2.96,1.66.13.75-.12,1.42-.64,1.91v.02c.8.22,1.37.76,1.53,1.65Z"/>
          <path class="cls-1" d="M383.65,98.93l-3.02.53-.21-1.2,2.5-5.99,1.6-.28.85,4.9.97-.17.3,1.7-.97.17.21,1.18-2.02.35-.2-1.18ZM383.6,97.35l-.33-1.9-.86,2.1,1.19-.21Z"/>
          <path class="cls-1" d="M426.4,69.95c.28,1.59-.75,2.9-2.38,3.18-1.06.19-2.09.03-2.99-.67l1.28-1.48c.33.23.73.39,1.18.31.52-.09.87-.54.79-1.01-.11-.64-.71-.79-1.05-.73-.28.05-.53.17-.87.53l-1.16-.24-.48-4.26,4.35-.76.33,1.88-2.68.47.11.98c.3-.14.59-.25.83-.29,1.26-.22,2.49.59,2.75,2.09Z"/>
          <path class="cls-1" d="M474.49,54.93c.28,1.62-.74,2.85-2.43,3.14-1.68.29-3.05-.79-3.38-2.72-.39-2.25.7-4.66,3.39-5.68l.82,1.5c-1.27.61-1.93,1.26-2.19,2.07h.03c.32-.21.68-.35,1.04-.41,1.16-.2,2.44.46,2.73,2.11ZM472.51,55.2c-.09-.51-.5-.82-1.05-.72-.28.05-.6.28-.82.63v.09c.15.77.65,1.15,1.13,1.06.57-.1.83-.55.74-1.07Z"/>
          <path class="cls-1" d="M522.19,56.3l.23,1.34-1.18,7.04h-2.13s1.15-6.12,1.15-6.12l-2.61.46-.32-1.86,4.87-.85Z"/>
          <path class="cls-1" d="M561.3,92.11c.25,1.42-.89,2.49-2.52,2.78-1.61.28-3.03-.35-3.28-1.77-.19-1.07.3-1.87,1.02-2.3h0c-.55-.14-1.09-.69-1.22-1.43-.24-1.4.73-2.27,2.08-2.51,1.36-.24,2.58.27,2.82,1.65.13.73-.18,1.43-.66,1.74h0c.84.17,1.56.76,1.74,1.82ZM557.2,89.26c.06.36.37.6.7.54.34-.06.55-.38.48-.75-.07-.39-.38-.63-.71-.57-.33.06-.54.4-.47.78ZM559.13,92.19c-.08-.47-.48-.77-.93-.69-.45.08-.73.5-.64.97.09.49.5.81.94.73.46-.08.72-.53.64-1.01Z"/>
          <path class="cls-1" d="M587.18,134.16c.39,2.25-.72,4.67-3.41,5.69l-.82-1.5c1.29-.62,1.95-1.27,2.21-2.1-.33.23-.71.39-1.09.45-1.16.2-2.44-.46-2.72-2.11-.28-1.62.79-2.89,2.37-3.16,1.8-.31,3.13.81,3.47,2.74ZM584.37,135.05c.29-.05.62-.28.82-.63v-.09c-.15-.77-.66-1.16-1.14-1.07-.56.1-.82.56-.73,1.08.09.52.49.82,1.05.72Z"/>
          <g>
            <path class="cls-1" d="M594.99,181.37l-.92.99-1.28-1.39,2.22-2.2,1.67-.29,1.35,7.77-2.13.37-.91-5.24Z"/>
            <path class="cls-1" d="M598.39,182.17c-.42-2.44.53-4.21,2.44-4.54,1.9-.33,3.41.98,3.84,3.44.43,2.46-.54,4.22-2.45,4.55-1.91.33-3.4-.97-3.84-3.46ZM602.5,181.46c-.2-1.17-.63-1.98-1.33-1.86-.56.1-.86.76-.61,2.19.2,1.18.63,1.99,1.32,1.87.56-.1.87-.76.62-2.21Z"/>
          </g>
          <g>
            <path class="cls-1" d="M601.28,228.7l-.92.99-1.28-1.39,2.22-2.2,1.67-.29,1.35,7.77-2.13.37-.91-5.24Z"/>
            <path class="cls-1" d="M606.14,227.86l-.92.99-1.28-1.39,2.22-2.2,1.67-.29,1.35,7.77-2.13.37-.91-5.24Z"/>
          </g>
          <g>
            <path class="cls-1" d="M602.57,278.98l-.92.99-1.28-1.39,2.22-2.2,1.67-.29,1.35,7.77-2.13.37-.91-5.24Z"/>
            <path class="cls-1" d="M611.52,280.87l.33,1.89-5.25.92-.26-1.35,1.79-2.76c.5-.75.7-1.21.61-1.72-.07-.39-.38-.61-.74-.55-.37.06-.69.3-.94.8l-1.68-.82c.33-.87,1.08-1.7,2.46-1.94,1.36-.24,2.72.43,2.97,1.9.16.91.06,1.54-.82,2.83l-.81,1.19v.02s2.33-.41,2.33-.41Z"/>
          </g>
          <g>
            <path class="cls-1" d="M598.79,329.16l-.92.99-1.28-1.39,2.22-2.2,1.67-.29,1.35,7.77-2.13.37-.91-5.24Z"/>
            <path class="cls-1" d="M607.77,330.79c.24,1.4-.76,2.46-2.34,2.73-1.44.25-2.67-.36-3.23-1.35l1.71-1.03c.23.47.56.67,1.05.59.35-.06.66-.34.58-.84-.07-.42-.42-.68-.99-.58l-.47.08-.28-1.6.6-.1c.41-.07.63-.37.56-.75-.07-.41-.39-.61-.78-.54-.38.07-.56.29-.64.71l-1.84-.6c.16-.93,1.04-1.75,2.21-1.96,1.44-.25,2.73.31,2.96,1.66.13.75-.12,1.42-.64,1.91v.02c.8.22,1.37.76,1.53,1.65Z"/>
          </g>
          <g>
            <path class="cls-1" d="M553.32,358.81l-.92.99-1.28-1.39,2.22-2.2,1.67-.29,1.35,7.77-2.13.37-.91-5.24Z"/>
            <path class="cls-1" d="M559.94,361.85l-3.02.53-.21-1.2,2.5-5.99,1.6-.28.85,4.9.97-.17.3,1.7-.97.17.21,1.18-2.02.35-.2-1.18ZM559.9,360.27l-.33-1.9-.86,2.1,1.19-.21Z"/>
          </g>
          <g>
            <path class="cls-1" d="M531.27,404.89l-.92.99-1.28-1.39,2.22-2.2,1.67-.29,1.35,7.77-2.13.37-.91-5.24Z"/>
            <path class="cls-1" d="M540.15,406.09c.28,1.59-.75,2.9-2.38,3.18-1.06.19-2.09.03-2.99-.67l1.28-1.47c.33.23.73.39,1.18.31.52-.09.87-.54.79-1.01-.11-.64-.71-.79-1.05-.73-.28.05-.53.17-.87.53l-1.16-.24-.48-4.26,4.35-.76.33,1.88-2.69.47.11.98c.3-.14.59-.25.83-.29,1.27-.22,2.49.59,2.75,2.09Z"/>
          </g>
          <g>
            <path class="cls-1" d="M513.63,447.74l-.92.99-1.28-1.39,2.22-2.19,1.67-.29,1.35,7.77-2.13.37-.91-5.24Z"/>
            <path class="cls-1" d="M522.99,448.91c.28,1.62-.75,2.85-2.43,3.15-1.68.29-3.05-.79-3.38-2.73-.39-2.25.7-4.66,3.39-5.68l.82,1.5c-1.27.61-1.93,1.26-2.2,2.07h.04c.32-.21.68-.35,1.04-.41,1.16-.2,2.44.46,2.73,2.11ZM521,449.18c-.09-.51-.5-.82-1.05-.72-.28.05-.61.28-.82.63v.09c.15.77.65,1.15,1.13,1.06.57-.1.83-.55.74-1.07Z"/>
          </g>
          <g>
            <path class="cls-1" d="M503.3,497.26l-.92.99-1.28-1.39,2.22-2.2,1.67-.29,1.35,7.77-2.13.37-.91-5.24Z"/>
            <path class="cls-1" d="M510.69,493.37l.23,1.34-1.18,7.04h-2.13s1.15-6.12,1.15-6.12l-2.61.45-.32-1.86,4.87-.85Z"/>
          </g>
          <g>
            <path class="cls-1" d="M513.87,545.32l-.92.99-1.28-1.39,2.22-2.19,1.67-.29,1.35,7.77-2.13.37-.91-5.24Z"/>
            <path class="cls-1" d="M523.26,546.86c.25,1.42-.89,2.49-2.52,2.78-1.61.28-3.03-.35-3.28-1.77-.19-1.07.3-1.87,1.02-2.3h0c-.55-.14-1.09-.69-1.22-1.43-.24-1.4.73-2.27,2.09-2.51,1.36-.24,2.58.27,2.82,1.65.13.73-.18,1.43-.66,1.74v.02c.84.15,1.56.75,1.75,1.81ZM519.16,544.02c.06.36.37.6.7.54.34-.06.55-.38.48-.75-.07-.39-.38-.63-.71-.57-.33.06-.54.4-.47.78ZM521.09,546.94c-.08-.47-.47-.77-.93-.69-.45.08-.73.5-.65.97.09.49.5.81.94.73.46-.08.72-.53.64-1.01Z"/>
          </g>
          <g>
            <path class="cls-1" d="M537.95,587.46l-.92.99-1.28-1.39,2.22-2.2,1.67-.29,1.35,7.77-2.13.37-.91-5.24Z"/>
            <path class="cls-1" d="M546.89,586.52c.39,2.25-.72,4.67-3.41,5.69l-.83-1.5c1.29-.62,1.95-1.27,2.21-2.1-.33.23-.71.39-1.09.45-1.16.2-2.44-.46-2.72-2.11-.28-1.62.79-2.89,2.37-3.16,1.8-.31,3.13.81,3.47,2.74ZM544.09,587.4c.29-.05.62-.28.82-.63l-.02-.1c-.13-.77-.64-1.16-1.13-1.07-.56.1-.82.56-.73,1.08.09.52.49.82,1.05.72Z"/>
          </g>
          <g>
            <path class="cls-1" d="M549.92,635.46l.33,1.89-5.25.92-.26-1.35,1.8-2.76c.5-.75.69-1.21.61-1.72-.07-.39-.38-.61-.74-.55-.37.06-.69.3-.94.8l-1.68-.82c.33-.87,1.08-1.7,2.46-1.94,1.36-.24,2.72.43,2.97,1.9.16.91.06,1.54-.82,2.83l-.81,1.19v.02s2.34-.41,2.34-.41Z"/>
            <path class="cls-1" d="M550.25,633.35c-.42-2.44.53-4.21,2.44-4.54,1.9-.33,3.41.98,3.84,3.44.43,2.46-.54,4.22-2.45,4.55-1.91.33-3.4-.97-3.84-3.46ZM554.36,632.63c-.2-1.17-.63-1.98-1.33-1.86-.56.1-.86.76-.61,2.2.2,1.18.63,1.99,1.32,1.87.56-.1.87-.76.62-2.21Z"/>
          </g>
          <g>
            <path class="cls-1" d="M537.01,684.44l.33,1.89-5.26.91-.26-1.35,1.8-2.76c.5-.75.69-1.21.61-1.72-.07-.39-.38-.61-.75-.55-.37.06-.69.3-.94.8l-1.68-.82c.33-.87,1.08-1.7,2.46-1.94,1.36-.24,2.72.43,2.97,1.9.16.91.06,1.54-.82,2.83l-.81,1.19v.02s2.34-.41,2.34-.41Z"/>
            <path class="cls-1" d="M538.79,680.68l-.92.99-1.28-1.4,2.22-2.2,1.67-.29,1.35,7.77-2.13.37-.91-5.24Z"/>
          </g>
          <g>
            <path class="cls-1" d="M513.96,727.03l.33,1.89-5.25.92-.26-1.35,1.8-2.76c.5-.75.69-1.21.61-1.72-.07-.39-.38-.61-.74-.55-.37.06-.69.3-.94.8l-1.68-.82c.33-.87,1.08-1.7,2.46-1.94,1.36-.24,2.72.43,2.97,1.9.16.91.06,1.54-.82,2.83l-.81,1.2v.02s2.33-.41,2.33-.41Z"/>
            <path class="cls-1" d="M519.84,726.01l.33,1.89-5.25.91-.26-1.35,1.8-2.76c.5-.75.69-1.21.61-1.72-.07-.39-.38-.61-.74-.55-.37.07-.69.3-.94.8l-1.68-.82c.33-.87,1.08-1.7,2.46-1.94,1.36-.24,2.72.43,2.97,1.9.16.91.06,1.54-.82,2.83l-.81,1.19v.02s2.34-.41,2.34-.41Z"/>
          </g>
          <g>
            <path class="cls-1" d="M487.6,706.51l.33,1.89-5.25.91-.26-1.35,1.8-2.76c.5-.75.69-1.21.61-1.72-.07-.39-.38-.61-.74-.55-.37.07-.69.3-.94.8l-1.68-.82c.33-.87,1.08-1.7,2.46-1.94,1.36-.24,2.72.43,2.97,1.9.16.91.06,1.54-.82,2.83l-.81,1.19v.02s2.33-.41,2.33-.41Z"/>
            <path class="cls-1" d="M493.5,705.22c.24,1.4-.76,2.46-2.33,2.74-1.44.25-2.68-.36-3.24-1.35l1.71-1.03c.23.47.56.67,1.05.59.35-.06.66-.34.58-.84-.07-.42-.42-.68-.99-.58l-.47.08-.28-1.6.6-.1c.41-.07.63-.37.56-.75-.07-.41-.39-.61-.78-.54-.38.07-.56.29-.64.71l-1.84-.6c.16-.93,1.04-1.75,2.21-1.96,1.44-.25,2.73.31,2.96,1.66.13.75-.12,1.42-.64,1.91v.02c.8.22,1.37.76,1.53,1.65Z"/>
          </g>
          <g>
            <path class="cls-1" d="M508.16,661.07l.33,1.89-5.25.91-.26-1.35,1.79-2.76c.5-.75.7-1.21.61-1.72-.07-.39-.38-.61-.74-.55-.37.07-.69.3-.94.8l-1.68-.82c.33-.87,1.08-1.7,2.46-1.94,1.36-.24,2.72.43,2.97,1.9.16.91.06,1.55-.82,2.83l-.81,1.19v.02s2.33-.41,2.33-.41Z"/>
            <path class="cls-1" d="M511.69,661.19l-3.02.53-.21-1.2,2.5-5.99,1.6-.28.85,4.89.97-.17.3,1.7-.97.17.21,1.18-2.01.35-.21-1.18ZM511.65,659.61l-.33-1.9-.86,2.1,1.19-.21Z"/>
          </g>
          <g>
            <path class="cls-1" d="M523.55,614.85l.33,1.89-5.25.91-.26-1.35,1.8-2.76c.5-.75.69-1.21.61-1.72-.07-.39-.38-.61-.74-.55-.37.07-.69.3-.94.8l-1.68-.82c.33-.87,1.08-1.7,2.46-1.94,1.36-.24,2.72.43,2.97,1.9.16.91.06,1.54-.82,2.83l-.81,1.19v.02s2.33-.41,2.33-.41Z"/>
            <path class="cls-1" d="M529.36,613.14c.28,1.59-.75,2.9-2.38,3.18-1.06.19-2.09.03-2.99-.67l1.28-1.47c.33.23.73.39,1.18.31.52-.09.87-.54.79-1.01-.11-.64-.71-.79-1.05-.73-.28.05-.53.17-.87.53l-1.16-.24-.48-4.26,4.35-.76.33,1.88-2.69.47.11.98c.3-.14.59-.25.83-.29,1.26-.22,2.49.59,2.75,2.09Z"/>
          </g>
          <g>
            <path class="cls-1" d="M509.13,570.48l.33,1.89-5.25.91-.26-1.35,1.8-2.76c.5-.75.69-1.21.6-1.72-.07-.39-.38-.61-.74-.55-.37.06-.69.3-.93.8l-1.68-.82c.33-.87,1.08-1.7,2.46-1.94,1.36-.24,2.72.43,2.97,1.9.16.91.06,1.54-.82,2.83l-.81,1.19v.02s2.33-.41,2.33-.41Z"/>
            <path class="cls-1" d="M515.41,568.73c.28,1.62-.74,2.85-2.43,3.14-1.68.29-3.05-.79-3.38-2.72-.39-2.25.7-4.66,3.39-5.68l.82,1.5c-1.27.61-1.93,1.26-2.2,2.07h.04c.32-.21.68-.35,1.04-.41,1.16-.2,2.44.46,2.73,2.11ZM513.42,569c-.09-.51-.5-.82-1.05-.72-.28.05-.61.28-.82.63v.09c.15.77.65,1.15,1.13,1.06.57-.1.83-.55.74-1.07Z"/>
          </g>
          <g>
            <path class="cls-1" d="M486.73,524.23l.33,1.89-5.25.91-.26-1.35,1.8-2.76c.5-.75.69-1.21.6-1.72-.07-.39-.38-.61-.74-.55-.37.07-.69.3-.94.8l-1.68-.82c.33-.87,1.08-1.7,2.46-1.94,1.36-.24,2.72.43,2.97,1.9.16.91.06,1.54-.81,2.83l-.81,1.19v.02s2.33-.41,2.33-.41Z"/>
            <path class="cls-1" d="M491.04,517.42l.23,1.34-1.18,7.04h-2.13s1.15-6.12,1.15-6.12l-2.61.46-.32-1.86,4.87-.85Z"/>
          </g>
          <g>
            <path class="cls-1" d="M486.15,477.79l.33,1.89-5.25.92-.26-1.35,1.8-2.76c.5-.75.69-1.21.61-1.72-.07-.39-.38-.61-.74-.55-.37.06-.69.3-.94.8l-1.68-.82c.33-.87,1.08-1.7,2.46-1.94,1.36-.24,2.72.43,2.97,1.9.16.91.06,1.54-.81,2.83l-.81,1.19v.02s2.33-.41,2.33-.41Z"/>
            <path class="cls-1" d="M492.46,476.42c.25,1.43-.89,2.49-2.52,2.78-1.61.28-3.03-.35-3.28-1.77-.19-1.07.3-1.87,1.02-2.29h0c-.55-.14-1.09-.69-1.22-1.43-.24-1.4.73-2.27,2.08-2.51,1.36-.24,2.58.27,2.82,1.65.13.73-.18,1.43-.66,1.74h0c.84.17,1.56.76,1.74,1.82ZM488.36,473.57c.06.36.37.6.7.54.34-.06.55-.38.49-.75-.07-.39-.38-.63-.71-.57-.33.06-.54.4-.47.78ZM490.29,476.5c-.08-.47-.48-.77-.93-.69-.45.08-.73.5-.65.97.09.49.5.81.94.73.46-.08.72-.53.64-1.01Z"/>
          </g>
          <g>
            <path class="cls-1" d="M500.37,429.57l.33,1.89-5.25.91-.26-1.35,1.8-2.76c.5-.75.69-1.21.61-1.72-.07-.39-.38-.61-.74-.55-.37.07-.69.3-.94.8l-1.68-.82c.33-.87,1.08-1.7,2.46-1.94,1.36-.24,2.72.43,2.97,1.9.16.91.06,1.54-.82,2.83l-.81,1.19v.02s2.33-.41,2.33-.41Z"/>
            <path class="cls-1" d="M506.23,425.72c.39,2.25-.72,4.67-3.41,5.69l-.83-1.5c1.29-.62,1.95-1.27,2.21-2.1-.33.23-.71.39-1.09.45-1.16.2-2.44-.46-2.73-2.11-.28-1.62.79-2.89,2.37-3.16,1.8-.31,3.13.81,3.47,2.74ZM503.42,426.6c.29-.05.62-.28.82-.63l-.02-.1c-.13-.77-.64-1.16-1.13-1.07-.56.1-.82.56-.73,1.08.09.52.49.82,1.05.72Z"/>
          </g>
          <g>
            <path class="cls-1" d="M512.26,382.03c.24,1.4-.76,2.46-2.34,2.74-1.44.25-2.67-.36-3.23-1.35l1.71-1.03c.23.47.56.67,1.05.59.35-.06.66-.34.58-.85-.07-.42-.42-.68-.99-.58l-.47.08-.28-1.6.6-.1c.41-.07.63-.37.56-.75-.07-.41-.39-.61-.78-.54-.38.07-.56.29-.64.71l-1.84-.6c.16-.93,1.04-1.75,2.21-1.96,1.44-.25,2.73.31,2.96,1.67.13.75-.12,1.41-.64,1.91h0c.8.24,1.37.77,1.52,1.67Z"/>
            <path class="cls-1" d="M512.59,380.17c-.42-2.44.53-4.21,2.44-4.54,1.91-.33,3.41.98,3.84,3.44.43,2.46-.54,4.22-2.45,4.55-1.9.33-3.4-.97-3.84-3.46ZM516.7,379.46c-.2-1.17-.63-1.98-1.33-1.86-.56.1-.86.76-.61,2.19.2,1.18.63,1.99,1.32,1.87.56-.1.87-.76.62-2.21Z"/>
          </g>
          <g>
            <path class="cls-1" d="M517.2,352.71c.24,1.4-.76,2.46-2.33,2.73-1.44.25-2.67-.36-3.24-1.35l1.71-1.03c.23.47.56.67,1.05.59.35-.06.66-.34.58-.84-.07-.42-.42-.68-.99-.58l-.47.08-.28-1.6.6-.1c.41-.07.63-.37.56-.75-.07-.41-.39-.61-.78-.54-.38.07-.56.29-.64.71l-1.84-.6c.16-.93,1.04-1.75,2.21-1.96,1.44-.25,2.73.31,2.96,1.67.13.75-.12,1.41-.64,1.91v.02c.8.22,1.37.76,1.53,1.65Z"/>
            <path class="cls-1" d="M518.94,349.21l-.92.99-1.28-1.39,2.22-2.2,1.67-.29,1.35,7.77-2.13.37-.91-5.24Z"/>
          </g>
          <g>
            <path class="cls-1" d="M491.75,351.23c.24,1.4-.76,2.46-2.34,2.73-1.44.25-2.67-.36-3.23-1.35l1.71-1.03c.23.47.56.67,1.05.59.35-.06.66-.34.58-.84-.07-.42-.42-.68-.99-.58l-.47.08-.28-1.6.6-.1c.41-.07.63-.37.56-.75-.07-.41-.39-.61-.78-.54-.38.07-.56.29-.64.71l-1.84-.6c.16-.93,1.04-1.75,2.21-1.96,1.44-.25,2.73.31,2.96,1.66.13.75-.12,1.41-.64,1.91v.02c.8.22,1.37.76,1.53,1.65Z"/>
            <path class="cls-1" d="M497.63,350.47l.33,1.89-5.25.91-.26-1.35,1.8-2.76c.5-.75.69-1.21.61-1.72-.07-.39-.38-.61-.74-.55-.37.07-.69.3-.94.8l-1.68-.82c.33-.87,1.08-1.7,2.46-1.94,1.36-.24,2.72.43,2.97,1.9.16.91.06,1.54-.82,2.83l-.81,1.19v.02s2.33-.41,2.33-.41Z"/>
          </g>
          <g>
            <path class="cls-1" d="M469.72,398.82c.24,1.4-.76,2.46-2.33,2.73-1.44.25-2.67-.36-3.24-1.35l1.71-1.02c.23.47.55.67,1.05.59.36-.06.67-.34.58-.85-.07-.42-.42-.68-.99-.58l-.47.08-.28-1.6.6-.1c.41-.07.63-.37.56-.75-.07-.41-.39-.61-.78-.54-.38.07-.56.29-.64.71l-1.84-.6c.16-.93,1.04-1.75,2.21-1.96,1.44-.25,2.73.31,2.96,1.66.13.75-.12,1.42-.64,1.91v.02c.8.22,1.37.76,1.53,1.65Z"/>
            <path class="cls-1" d="M475.63,397.79c.24,1.4-.76,2.46-2.34,2.73-1.44.25-2.67-.36-3.23-1.35l1.71-1.02c.23.47.56.67,1.05.59.36-.06.66-.34.58-.85-.07-.42-.42-.68-.99-.58l-.47.08-.28-1.6.6-.1c.41-.07.63-.37.56-.75-.07-.41-.39-.61-.78-.54-.38.07-.56.29-.64.71l-1.84-.6c.16-.93,1.04-1.75,2.21-1.96,1.44-.25,2.73.31,2.96,1.66.13.75-.12,1.42-.64,1.91v.02c.8.22,1.37.76,1.53,1.65Z"/>
          </g>
          <g>
            <path class="cls-1" d="M467.36,458.99c.24,1.4-.76,2.46-2.33,2.73-1.44.25-2.67-.36-3.24-1.35l1.71-1.03c.23.47.56.67,1.05.59.35-.06.66-.34.58-.84-.07-.42-.42-.68-.99-.58l-.47.08-.28-1.6.6-.11c.41-.07.63-.37.56-.75-.07-.41-.39-.61-.78-.54-.37.07-.56.29-.64.71l-1.83-.6c.16-.93,1.04-1.75,2.21-1.96,1.44-.25,2.73.31,2.96,1.66.13.75-.12,1.42-.64,1.91v.02c.8.22,1.37.76,1.53,1.65Z"/>
            <path class="cls-1" d="M470.91,459.37l-3.01.53-.21-1.2,2.5-5.99,1.6-.28.85,4.89.97-.17.3,1.7-.97.17.21,1.18-2.02.35-.21-1.18ZM470.87,457.79l-.33-1.89-.86,2.1,1.19-.21Z"/>
          </g>
          <g>
            <path class="cls-1" d="M455.01,513.05c.24,1.4-.76,2.46-2.34,2.74-1.44.25-2.67-.36-3.23-1.35l1.71-1.03c.23.47.56.67,1.05.59.35-.06.66-.34.58-.84-.07-.42-.42-.68-.99-.58l-.47.08-.28-1.6.6-.1c.41-.07.63-.37.56-.75-.07-.41-.39-.61-.78-.54-.38.07-.56.29-.64.71l-1.84-.6c.16-.93,1.04-1.75,2.21-1.96,1.44-.25,2.73.31,2.96,1.66.13.75-.12,1.42-.64,1.91v.02c.8.22,1.37.76,1.53,1.65Z"/>
            <path class="cls-1" d="M460.82,511.59c.28,1.59-.75,2.9-2.38,3.18-1.06.19-2.09.03-2.99-.67l1.28-1.47c.33.23.73.39,1.18.31.52-.09.87-.54.79-1.01-.11-.64-.71-.79-1.05-.73-.28.05-.53.17-.87.53l-1.16-.24-.48-4.26,4.35-.76.33,1.88-2.68.47.11.98c.3-.14.59-.25.83-.29,1.27-.22,2.49.59,2.75,2.09Z"/>
          </g>
          <g>
            <path class="cls-1" d="M415.16,553.47c.24,1.4-.76,2.46-2.34,2.73-1.44.25-2.67-.36-3.23-1.35l1.71-1.03c.23.47.56.67,1.05.59.35-.06.66-.34.58-.85-.07-.42-.42-.68-.99-.58l-.47.08-.28-1.6.6-.1c.41-.07.63-.37.56-.75-.07-.41-.39-.61-.78-.54-.38.07-.56.29-.64.71l-1.84-.6c.16-.93,1.04-1.75,2.21-1.96,1.44-.25,2.73.31,2.96,1.66.13.75-.12,1.41-.64,1.91v.02c.8.22,1.37.76,1.53,1.65Z"/>
            <path class="cls-1" d="M421.39,551.99c.28,1.62-.75,2.85-2.43,3.14-1.68.29-3.05-.79-3.38-2.73-.39-2.25.7-4.66,3.39-5.68l.82,1.5c-1.27.61-1.93,1.26-2.2,2.07h.04c.31-.21.68-.35,1.04-.41,1.16-.2,2.44.46,2.73,2.11ZM419.41,552.26c-.09-.51-.5-.82-1.05-.72-.28.05-.61.28-.82.63l.02.09c.13.77.64,1.15,1.11,1.07.57-.1.83-.55.74-1.07Z"/>
          </g>
          <g>
            <path class="cls-1" d="M390.32,602.99c.24,1.4-.76,2.46-2.33,2.73-1.44.25-2.68-.36-3.24-1.35l1.71-1.03c.23.47.56.67,1.05.59.35-.06.66-.34.58-.85-.07-.42-.42-.68-.99-.58l-.47.08-.28-1.6.6-.1c.41-.07.63-.37.56-.75-.07-.41-.39-.61-.78-.54-.38.07-.56.29-.64.71l-1.84-.6c.16-.93,1.04-1.75,2.21-1.96,1.44-.25,2.73.31,2.96,1.66.13.75-.12,1.42-.64,1.91v.02c.8.22,1.37.76,1.53,1.65Z"/>
            <path class="cls-1" d="M394.63,596.45l.23,1.34-1.18,7.04h-2.13s1.15-6.12,1.15-6.12l-2.61.46-.32-1.86,4.87-.85Z"/>
          </g>
          <g>
            <path class="cls-1" d="M383.14,659.9c.24,1.4-.76,2.46-2.34,2.73-1.44.25-2.67-.36-3.24-1.35l1.71-1.03c.23.47.56.67,1.05.59.35-.06.66-.34.58-.84-.07-.42-.42-.68-.99-.58l-.47.08-.28-1.6.6-.11c.41-.07.63-.37.56-.75-.07-.41-.39-.61-.79-.54-.37.07-.56.29-.64.71l-1.84-.6c.16-.93,1.04-1.75,2.21-1.96,1.44-.25,2.73.31,2.96,1.66.13.75-.12,1.42-.64,1.91v.02c.8.22,1.37.76,1.53,1.65Z"/>
            <path class="cls-1" d="M389.46,658.79c.25,1.43-.89,2.5-2.52,2.78-1.61.28-3.03-.35-3.28-1.77-.19-1.07.3-1.87,1.02-2.3h0c-.55-.14-1.09-.69-1.22-1.43-.24-1.4.73-2.27,2.09-2.51,1.36-.24,2.58.27,2.82,1.65.13.73-.19,1.43-.66,1.74v.02c.84.15,1.56.75,1.75,1.81ZM385.35,655.95c.06.36.36.6.7.54.34-.06.55-.38.48-.74-.07-.39-.38-.63-.71-.57-.33.06-.54.39-.47.78ZM387.28,658.87c-.08-.47-.48-.77-.93-.69-.45.08-.73.5-.65.97.09.49.5.81.94.74.46-.08.72-.53.64-1.01Z"/>
          </g>
          <g>
            <path class="cls-1" d="M350.42,704.53c.24,1.4-.76,2.46-2.33,2.73-1.44.25-2.67-.36-3.24-1.35l1.71-1.03c.23.47.56.67,1.05.59.35-.06.66-.34.58-.85-.07-.42-.42-.68-.99-.58l-.47.08-.28-1.6.6-.1c.41-.07.63-.37.56-.75-.07-.41-.39-.61-.78-.54-.38.07-.56.29-.64.71l-1.84-.6c.16-.93,1.04-1.75,2.21-1.96,1.44-.25,2.73.31,2.96,1.66.13.75-.12,1.41-.64,1.91v.02c.8.22,1.37.76,1.53,1.65Z"/>
            <path class="cls-1" d="M356.24,700.95c.39,2.25-.72,4.67-3.42,5.69l-.82-1.5c1.29-.62,1.95-1.27,2.21-2.1-.33.23-.71.39-1.09.45-1.16.2-2.44-.46-2.72-2.11-.28-1.62.79-2.89,2.37-3.16,1.79-.31,3.13.81,3.47,2.74ZM353.43,701.83c.29-.05.62-.28.82-.63v-.09c-.15-.77-.66-1.16-1.14-1.08-.56.1-.82.56-.73,1.08.09.52.49.82,1.05.72Z"/>
          </g>
          <g>
            <path class="cls-1" d="M349.38,653.35l-3.02.53-.21-1.2,2.5-5.99,1.6-.28.85,4.9.97-.17.3,1.7-.97.17.2,1.18-2.02.35-.2-1.18ZM349.34,651.78l-.33-1.9-.86,2.1,1.19-.21Z"/>
            <path class="cls-1" d="M352.42,650.03c-.42-2.44.53-4.21,2.44-4.54,1.91-.33,3.41.98,3.84,3.45.43,2.46-.54,4.22-2.45,4.55-1.9.33-3.4-.97-3.83-3.46ZM356.53,649.31c-.2-1.17-.63-1.98-1.33-1.86-.56.1-.86.76-.61,2.19.21,1.18.63,1.99,1.32,1.87.56-.1.87-.76.62-2.21Z"/>
          </g>
          <g>
            <path class="cls-1" d="M356.28,595.62l-3.01.53-.21-1.2,2.5-5.99,1.6-.28.85,4.89.97-.17.3,1.7-.97.17.21,1.18-2.02.35-.21-1.18ZM356.24,594.04l-.33-1.9-.86,2.1,1.19-.21Z"/>
            <path class="cls-1" d="M360.36,590.72l-.92.99-1.28-1.39,2.22-2.2,1.67-.29,1.35,7.77-2.13.37-.91-5.24Z"/>
          </g>
          <g>
            <path class="cls-1" d="M380.65,543.43l-3.02.53-.21-1.2,2.5-5.99,1.6-.28.85,4.9.97-.17.3,1.7-.97.17.21,1.18-2.02.35-.2-1.18ZM380.61,541.85l-.33-1.89-.86,2.1,1.19-.21Z"/>
            <path class="cls-1" d="M389.29,541.19l.33,1.89-5.25.91-.26-1.35,1.8-2.76c.5-.75.69-1.21.61-1.72-.07-.39-.38-.61-.74-.55-.37.07-.69.3-.94.8l-1.68-.82c.33-.87,1.08-1.7,2.46-1.94,1.36-.24,2.72.43,2.97,1.9.16.91.06,1.54-.82,2.83l-.81,1.19v.02s2.34-.41,2.34-.41Z"/>
          </g>
          <g>
            <path class="cls-1" d="M419.9,504.39l-3.01.53-.21-1.2,2.5-5.99,1.6-.28.85,4.9.97-.17.29,1.7-.96.17.2,1.18-2.02.35-.21-1.18ZM419.86,502.82l-.33-1.9-.86,2.1,1.19-.21Z"/>
            <path class="cls-1" d="M428.56,501.89c.24,1.4-.76,2.46-2.34,2.73-1.44.25-2.67-.36-3.23-1.35l1.71-1.03c.23.47.56.67,1.05.59.35-.06.66-.34.58-.85-.07-.42-.42-.68-.99-.58l-.47.08-.28-1.6.6-.1c.41-.07.63-.37.56-.75-.07-.41-.39-.61-.78-.54-.38.07-.56.29-.64.71l-1.84-.6c.16-.93,1.04-1.75,2.21-1.96,1.44-.25,2.73.31,2.96,1.66.13.75-.12,1.41-.64,1.91h0c.8.24,1.37.77,1.52,1.67Z"/>
          </g>
          <g>
            <path class="cls-1" d="M432.52,448.99l-3.02.53-.21-1.2,2.5-5.99,1.6-.28.85,4.9.97-.17.3,1.7-.97.17.2,1.18-2.02.35-.2-1.18ZM432.48,447.42l-.33-1.9-.86,2.1,1.19-.21Z"/>
            <path class="cls-1" d="M438.82,447.89l-3.01.53-.21-1.2,2.5-5.99,1.6-.28.85,4.89.97-.17.3,1.7-.97.17.21,1.18-2.02.35-.21-1.18ZM438.78,446.32l-.33-1.9-.86,2.1,1.19-.21Z"/>
          </g>
          <g>
            <path class="cls-1" d="M433.34,390.72l-3.02.53-.21-1.2,2.5-5.99,1.6-.28.85,4.9.97-.17.3,1.7-.97.17.2,1.18-2.01.35-.21-1.18ZM433.29,389.14l-.33-1.9-.86,2.1,1.19-.21Z"/>
            <path class="cls-1" d="M441.85,387.8c.28,1.59-.75,2.9-2.38,3.18-1.06.18-2.09.03-2.99-.67l1.28-1.47c.33.23.73.39,1.18.31.52-.09.87-.54.79-1.01-.11-.64-.71-.79-1.05-.73-.28.05-.53.17-.87.53l-1.16-.24-.48-4.26,4.35-.76.33,1.88-2.68.47.11.98c.3-.14.59-.25.83-.29,1.27-.22,2.49.59,2.75,2.09Z"/>
          </g>
          <g>
            <path class="cls-1" d="M444.44,357.23l-3.02.53-.21-1.2,2.5-5.99,1.6-.28.85,4.9.97-.17.3,1.7-.97.17.2,1.18-2.02.35-.2-1.18ZM444.4,355.66l-.33-1.9-.86,2.1,1.19-.21Z"/>
            <path class="cls-1" d="M453.37,354.29c.28,1.62-.74,2.85-2.43,3.14-1.68.29-3.05-.79-3.38-2.72-.39-2.25.7-4.67,3.39-5.68l.82,1.5c-1.27.61-1.93,1.26-2.2,2.07h.04c.31-.21.68-.35,1.04-.41,1.16-.2,2.44.46,2.73,2.11ZM451.38,354.55c-.09-.51-.5-.82-1.05-.72-.28.05-.61.28-.82.63l.02.09c.13.77.64,1.15,1.11,1.06.57-.1.83-.55.74-1.07Z"/>
          </g>
        </g>
      </g>
    </g>
  </g>
</svg>