<?xml version="1.0" encoding="UTF-8"?>
<svg xmlns="http://www.w3.org/2000/svg" width="800" height="800" version="1.1" viewBox="0 0 800 800">
  <!-- Generator: Adobe Illustrator 28.7.3, SVG Export Plug-In . SVG Version: 1.2.0 Build 164)  -->
  <g>
    <g id="Camada_1">
      <path d="M484.25,523.17c-26.02,0-52.42,0-78.83,0s-51.89,0-78.88,0c-6.06,29.46-20.34,52.36-46.53,67.08-17.6,9.89-36.27,11.73-55.82,10.3-37.48-2.75-64.56-28.68-79.18-76.1-7.41.02-14.81.03-22.22.01-26.2-.06-49.23-16.07-51.34-41.88-2.26-27.62-1.92-56.4,3.42-83.46,7.4-37.51,41.63-61.61,80.16-61.17,10.26.12,14.06-3.84,18.73-12.05,15.48-27.21,29.99-55.47,49.16-79.98,29.74-38.01,73.05-54.28,119.5-59.66,39.96-4.63,80.47-4.11,119.97,5.49,67.7,16.45,111.16,61.33,138,123.2,6.92,15.96,13.73,22.87,32,22.45,24.88-.57,49.04,6.22,69.53,21.64,6.26,4.71,12.27,10.5,16.47,17.04,6.61,10.28,11.63,19.29,25.59,23.83,14.44,4.69,20.3,20.5,18.77,36.48-1.44,14.98-9.23,25.73-23.87,30.82-1.94.67-3.9,1.28-6.1,2.01-.48,6.56-.21,12.9-1.5,18.91-5.03,23.33-20.92,36.35-47.4,36.12-13.44-.12-18.72,3.87-23.04,16.81-11.88,35.51-38.48,55.13-75.23,59.45-39.4,4.63-69.4-11.89-89.47-45.57-5.42-9.09-7.63-20.08-11.89-31.78ZM398.35,506.3h86.33c5.04-43.44,39.01-77.02,81.06-80.23,21.74-1.66,42.44,1.71,60.98,14.58,23.1,16.04,35.29,38.31,38.24,66.55,5.84,0,10.81.08,15.78-.01,26.1-.46,32.32-7.02,31.49-33.54-.61-19.68-2.06-39.35-1.97-59.02.11-23.46-12.17-38.17-31.31-49.01-17.46-9.89-36.64-11.22-55.95-11.13-67.86.33-135.73.99-203.59,1.5-6.97.05-13.93,0-21.06,0v150.3ZM379.29,355.14c-2.04-.3-3.62-.74-5.2-.73-74.15.45-148.31.5-222.45,1.65-28.8.45-49.05,15.81-59.18,42.67-10.01,26.53-9.48,54.28-4.74,81.73,2.6,15.01,13.98,25.41,26.66,26.41,9.43.74,18.97.15,28.02.15,16.35-56.35,48.71-82.33,97.64-81.09,35.79.91,78.89,28.66,86.13,80.52h53.12v-151.31ZM398.32,203.9c0,42.11.17,83.54-.13,124.97-.06,8.89,5.01,9.01,11.35,9,31.42-.04,62.84.07,94.27.09,28.77.02,57.53,0,87.3,0-29.06-81.88-100.56-141.85-192.79-134.07ZM379.78,203.9c-95.78-9.8-162.34,51.73-190.11,132.38h190.11v-132.38ZM162.96,512.72c.01,38.88,32.2,71.51,70.92,71.9,38.42.39,74.25-33.45,74.68-70.54.45-38.14-35.32-71.54-76.38-71.31-37.63.21-69.24,32.15-69.22,69.95ZM503.06,510.87c-.01,39.76,33.65,74.31,71.92,73.82,39.5-.51,74.05-33.71,73.79-70.92-.27-39.45-35.33-71.92-77.22-71.53-35,.33-68.48,33.87-68.49,68.62ZM730.52,450.74c13.13-.54,15.51-9.99,15.74-18.96.24-9.26-4.9-16.11-15.74-17.55v36.52Z"/>
      <path d="M409.26,381.25c21.31,0,37.48-.34,53.6.34,2.7.11,7.13,4.51,7.31,7.17.2,2.93-3.45,8.7-5.63,8.81-15.73.74-31.55.94-47.22-.28-2.49-.19-4.37-8.36-8.06-16.03Z"/>
      <path d="M274.48,514.67c.17,22.36-17.18,40.61-38.63,40.63-23.19.03-41.39-18.06-41.46-41.23-.07-20.93,18.76-40.75,39.3-41.37,22.18-.67,40.61,18.29,40.79,41.96ZM256.93,514.88c-.16-12.66-12.04-25.23-23.53-24.89-11.51.34-21.43,12.3-21.05,25.41.37,12.78,10.2,22.96,21.98,22.76,13.08-.22,22.76-10.19,22.6-23.28Z"/>
      <path d="M535.33,512.63c.45-22.16,20.03-40.94,42.3-40.58,21.48.35,38.89,20.35,38.46,44.17-.39,21.02-19.85,39.44-41.06,38.88-23.5-.63-40.19-18.49-39.7-42.48ZM553.46,515.24c.2,13.87,9.6,23.53,22.53,23.16,12.97-.38,22.74-10.57,22.61-23.58-.14-13.97-10.66-25.52-22.76-25.01-12.88.54-22.58,11.57-22.37,25.43Z"/>
    </g>
  </g>
</svg>