<?xml version="1.0" encoding="UTF-8"?>
<svg xmlns="http://www.w3.org/2000/svg" width="800" height="800" version="1.1" viewBox="0 0 800 800">
  <defs>
    <style>
      .cls-1 {
        font-size: 10.58px;
      }

      .cls-1, .cls-2 {
        font-family: Averta-Black, Averta;
        font-weight: 800;
      }

      .cls-3, .cls-4, .cls-5 {
        fill: none;
        stroke: #000;
        stroke-miterlimit: 10;
      }

      .cls-4 {
        stroke-width: .75px;
      }

      .cls-6 {
        fill: #2faa4f;
      }

      .cls-7 {
        fill: #f6f9ff;
      }

      .cls-8 {
        letter-spacing: 0em;
      }

      .cls-9 {
        letter-spacing: 0em;
      }

      .cls-2 {
        font-size: 14px;
      }

      .cls-10 {
        letter-spacing: -.04em;
      }

      .cls-5 {
        stroke-width: 4px;
      }
    </style>
  </defs>
  <!-- Generator: Adobe Illustrator 28.7.3, SVG Export Plug-In . SVG Version: 1.2.0 Build 164)  -->
  <g>
    <g id="Camada_1">
      <g>
        <path class="cls-3" d="M683.94,439.09s-12.77-45.77,8.53-55.28"/>
        <path class="cls-3" d="M407.57,594.5s5.37-38.56,16-39.98c10.63-1.42,14.98,25.41,14.98,25.41,0,0,6.24-23.54,16.86-23.88,10.62-.33,11.28,24.34,11.28,24.34,0,0,4.67-27.61,12.98-23.11,8.31,4.5,12.75,18.53,11.85,37.21"/>
        <path class="cls-3" d="M228.48,484.73c-1.22,1.39-3.1,2.05-4.95,2.2-3.19.25-6.54-.99-8.57-3.47-2.05-2.49-2.57-6.19-1.06-9.03.04-.07.09-.14.12-.21,4.14.83,8.82,1.3,14.07,1.34.34.46.63.95.88,1.45,1.23,2.43,1.3,5.66-.49,7.72Z"/>
        <path class="cls-3" d="M233.51,503.26c-4.81,1.17-8.83,5.98-1.77,11.37,3.09,2.35,8.19.16,9.18-3.6,1.83-6.96-3.11-8.82-7.41-7.77Z"/>
        <path class="cls-3" d="M213.37,497.7c-2.25-.26-4.34.59-4.85,3.11-1.08,5.24,6.64,11.6,10.15,5.75,2.54-4.23-1.32-8.4-5.3-8.86Z"/>
        <path class="cls-3" d="M248.26,592.33s-3.58-34.45-14.11-36.4c-10.53-1.95-16.42,24.63-16.42,24.63,0,0-4.87-23.83-15.45-24.69s-12.66,23.74-12.66,23.74c0,0-3.07-27.81-11.62-23.74-8.55,4.08-13.8,17.86-13.98,36.57"/>
        <path class="cls-3" d="M610.13,442.96c.26-.75,1.41-17.09-10.7-16.37-12.1.72-30.02,8.7-41.75,21.69-17.99,19.93-30.22,51.21-2.1,49.1"/>
        <path class="cls-3" d="M253.17,502.43c-3.71-2.52-6.88-5.01-9.58-7.38-.48-.41-.93-.83-1.38-1.23-.48-.44-.93-.86-1.38-1.29-.44-.42-.86-.85-1.27-1.25-.49-.49-.97-.99-1.39-1.45-.32-.33-.62-.65-.9-.99-.35-.39-.71-.78-1.02-1.16-.67-.76-1.27-1.5-1.82-2.2-1.11-1.41-2.03-2.72-2.75-3.88-.18-.28-.35-.56-.53-.85-.51-.83-.92-1.55-1.23-2.2-.16-.3-.3-.58-.42-.85-.65-1.36-.88-2.13-.88-2.13"/>
        <path class="cls-4" d="M287.07,519.33"/>
        <path class="cls-3" d="M249.18,474.22s16.89,11.16,46.25,21.41"/>
        <path class="cls-3" d="M515.89,535.59c-1.2.15-2.41.3-3.63.45-2.12.25-4.27.49-6.44.7-1.94.21-3.9.41-5.87.58-6.17.56-12.52,1.04-19.08,1.41-2.05.11-4.11.21-6.21.32-.21,0-.44.02-.67.04-2.1.09-4.21.18-6.37.25-12.71.44-24.74.62-36.15.55-2.57-.02-5.11-.04-7.62-.07-1.66-.04-3.3-.05-4.9-.09-2.33-.05-4.6-.12-6.86-.19"/>
        <path class="cls-3" d="M649.4,471.66c25.43-16.38,34.16-30.9,34.82-32.04-.04.09-.07.18-.11.26"/>
        <path class="cls-3" d="M385.12,515.89c31.42,3.72,67.94,4.88,109.13,1.13,25.82-2.35,48.31-6.08,67.86-10.65"/>
        <path class="cls-5" d="M635.88,399.2c7.08,13.03,21.64,43.17,24.94,75.72"/>
        <path class="cls-5" d="M396.3,413.21c1.86,49.31-4.29,79.61-10.68,98.54"/>
        <path class="cls-5" d="M519.7,535.1c4.76-12.6,14.44-46.92-2.36-120.29"/>
        <path class="cls-3" d="M190.55,462.62c4.88,4.76,12.31,9.4,23.47,11.6,4.14.83,8.82,1.3,14.07,1.34h.53c44.9,0,77.61-17.12,77.66-75.52"/>
        <path class="cls-3" d="M693.51,385.33s-189.3,62.56-409.88,9.66c-.48-.11-.97-.23-1.48-.37-8.61-2.27-22.13-8.25-37.75-22.38.71-2.29,1.53-4.9,2.49-7.78,15.99-47.65,69.19-168.51,197.62-168.47,131.53.04,241.46,94.22,249.04,172.23.56,5.8.56,11.51-.04,17.1Z"/>
        <path class="cls-3" d="M191.91,316.46c0,13.3-8.36,24.62-20.08,29.01-4.06-3.02-9.29-6.28-15.61-8.92-1.8-.42-3.49-1.08-5.06-1.92t-.04-.02c-5.22-1.75-11.06-3-17.4-3.35-2.4-4.39-3.76-9.43-3.76-14.79,0-17.1,13.88-30.96,30.98-30.96s30.96,13.86,30.96,30.96Z"/>
        <path d="M181.57,316.46c0,11.41-9.24,20.63-20.63,20.63-1.62,0-3.21-.19-4.73-.55-1.8-.42-3.49-1.08-5.06-1.92t-.04-.02c-6.44-3.49-10.81-10.3-10.81-18.15,0-11.39,9.24-20.63,20.63-20.63s20.63,9.24,20.63,20.63Z"/>
        <path class="cls-3" d="M124.09,316.46c0,5.59-1.48,10.83-4.06,15.34-18.48,2.22-31.26,8.36-38.88,13.24-11.18-4.67-19.03-15.69-19.03-28.58,0-17.1,13.88-30.96,30.98-30.96s30.98,13.86,30.98,30.96Z"/>
        <circle cx="93.1" cy="316.46" r="20.63" transform="translate(-69.92 29.69) rotate(-13.22)"/>
        <path class="cls-3" d="M384.95,537.27c1.84-45.73-5.27-98.68-33.1-98.76-29.55-.08-52.69,39.97-64.71,80.64"/>
        <path class="cls-3" d="M280.04,592.6s5.47-34.43,16.11-36.35c10.63-1.92,15.06,24.68,15.06,24.68,0,0,6.18-23.8,16.81-24.63,10.63-.83,11.36,23.78,11.36,23.78,0,0,4.6-27.79,12.93-23.69,8.33,4.1,12.82,17.9,11.97,36.6"/>
        <path class="cls-6" d="M156.21,336.54c-1.8-.42-3.49-1.08-5.06-1.92,1.76.58,3.44,1.22,5.06,1.92Z"/>
        <path d="M72.47,351.86c13.86-15.1,35.22-21.6,55.25-22.63,10.28-.38,20.72,1.88,30,6.27,9.23,4.42,17.61,10.69,23.84,18.64-15.6-14.17-36.3-22.49-57.38-20.79-18.34,1.69-37.11,6.85-51.72,18.52h0Z"/>
        <path d="M281.4,548.29c12.03-11.98,30.58-16.88,47.15-17.82,7.1-.12,14.35.78,21.08,3.08,7.69,2.53,14.99,6.49,20.74,12.07-14.19-8.83-30.98-12.56-47.47-10.78-14.46,1.81-29.23,5.29-41.51,13.45h0Z"/>
        <path d="M168.06,546.04c13.13-10.76,32.08-13.84,48.66-13.17,7.08.57,14.21,2.17,20.68,5.11,7.41,3.27,14.29,7.91,19.47,14.02-13.26-10.17-29.62-15.5-46.2-15.33-14.56.4-29.6,2.43-42.62,9.37h0Z"/>
        <path d="M116.67,342.73c-3.46,1.15-.57,9.31,3.1,7.84s.82-9.14-3.1-7.84Z"/>
        <path d="M131.49,342.73c3.46,1.15.57,9.31-3.1,7.84-3.67-1.47-.82-9.14,3.1-7.84Z"/>
        <path d="M194.67,369.05c-2.25,9.95-12.54,16.13-22.26,17.1-7.17,1-14.93-.41-21.96-1.7-21.03-3.33-43.02-5.71-64-.96,19.51-8.08,44.22-6.48,64.68-2.91,4.08.73,9.95,2,14.03,2.3,11.44,1.16,24.53-2.41,29.51-13.83h0Z"/>
        <path d="M185.62,359.2c5.97,9.64,7.55,12.19,19.46,10.61,1.25-.17,2.47-.49,3.81-.76-3.74,4.15-10.02,5.83-15.46,4.3-5.67-2.07-8.08-8.63-7.82-14.16h0Z"/>
        <path d="M148.17,272.55s4.47-11.76,21.28-12.14c16.81-.38,18.18,15.56,18.18,15.56,0,0-19-9.87-39.46-3.42Z"/>
        <path d="M106.18,272.55s-4.47-11.76-21.28-12.14c-16.81-.38-18.18,15.56-18.18,15.56,0,0,19-9.87,39.46-3.42Z"/>
        <circle class="cls-7" cx="157.09" cy="309.93" r="5.5"/>
        <path class="cls-7" d="M170.27,324.07c0,2.17-1.76,3.93-3.93,3.93s-3.93-1.76-3.93-3.93,1.76-3.93,3.93-3.93,3.93,1.76,3.93,3.93Z"/>
        <path class="cls-7" d="M88.85,309.93c0,3.04,2.46,5.5,5.5,5.5s5.5-2.46,5.5-5.5-2.46-5.5-5.5-5.5-5.5,2.46-5.5,5.5Z"/>
        <path class="cls-7" d="M81.17,324.07c0,2.17,1.76,3.93,3.93,3.93s3.93-1.76,3.93-3.93-1.76-3.93-3.93-3.93-3.93,1.76-3.93,3.93Z"/>
        <path class="cls-3" d="M320.42,471.18c-2.44,1.1-4.65,3.19-5.83,5.5-1.24,2.44-1.32,5.66.48,7.73,1.22,1.39,3.09,2.07,4.94,2.22,3.2.27,6.55-.96,8.6-3.44,2.04-2.48,2.58-6.18,1.08-9.02-2.18-4.13-5.94-4.48-9.26-2.99Z"/>
        <path class="cls-3" d="M309.37,504.23c4.86.95,9.1,5.56,2.3,11.27-2.97,2.5-8.17.54-9.34-3.16-2.15-6.86,2.69-8.95,7.04-8.11Z"/>
        <path class="cls-4" d="M260.56,389.42c2.74,1.88,4.25,5.19-1.24,5.68-2.4.21-5.11-2.22-4.95-4.2.29-3.68,3.74-3.15,6.19-1.47Z"/>
        <path class="cls-3" d="M330.13,497.43c2.25-.25,4.34.61,4.84,3.12,1.06,5.24-6.68,11.58-10.17,5.72-2.53-4.24,1.35-8.39,5.33-8.84Z"/>
        <path class="cls-4" d="M243.95,375.51c-1.54-1.5-3.5-2.58-5.17-2.84-1.76-.28-3.47.5-3.82,2.35-.24,1.25.16,2.8.81,4.19,1.13,2.41,3.1,4.54,5.2,5.39,2.1.85,4.24.29,5.11-1.54,1.28-2.67-.03-5.51-2.13-7.55Z"/>
        <path class="cls-4" d="M249.59,398.27c1.02,1.58,1.41,3.33.3,4.35-2.3,2.13-8.67-1.88-7.01-5.96,1.2-2.95,4.9-1.19,6.71,1.61Z"/>
        <path class="cls-4" d="M704.86,390.22c-2.74,1.88-4.25,5.19,1.24,5.68,2.4.21,5.11-2.22,4.95-4.2-.29-3.68-3.74-3.15-6.19-1.47Z"/>
        <path class="cls-4" d="M721.47,376.3c1.54-1.5,3.5-2.58,5.17-2.84,1.76-.28,3.47.5,3.82,2.35.24,1.25-.16,2.8-.81,4.19-1.13,2.41-3.1,4.54-5.2,5.39-2.1.85-4.24.29-5.11-1.54-1.28-2.67.03-5.51,2.13-7.55Z"/>
        <path class="cls-4" d="M715.84,399.06c-1.02,1.58-1.41,3.33-.3,4.35,2.3,2.13,8.67-1.88,7.01-5.96-1.2-2.95-4.9-1.19-6.71,1.6Z"/>
        <path class="cls-5" d="M302.18,263.94s82.99,43.52,114.65,45.99c25.41,1.98,129.78,4.74,145.72-5.5,15.94-10.25,47.57-55.44,47.57-55.44"/>
        <path class="cls-5" d="M416.84,309.93s-36.43,38.7-42.23,77.41"/>
        <path class="cls-5" d="M562.55,304.43s49.84,31.75,56.79,77.78"/>
        <line class="cls-5" x1="308.88" y1="378.24" x2="302.18" y2="399.18"/>
        <line class="cls-5" x1="494.25" y1="392.4" x2="498.08" y2="415.7"/>
        <line class="cls-5" x1="657.28" y1="375.84" x2="660.81" y2="394.2"/>
        <path d="M124.08,413.15c16.85,2.23,34.31,4.1,50.66-1.49,2.31-.79,4.54-1.81,6.83-2.88-1.77,1.79-3.82,3.32-6,4.66-15.28,8.73-35.99,7.05-51.49-.29h0Z"/>
        <g>
          <path class="cls-3" d="M654.54,478.19c-7.08-11.73-37.97-36.19-55.11-38.63-18.98-2.7-45.48,39.19-47.5,46.71-2.02,7.52,12.59,22.52,19.23,29.53,0,0-.14,3.61-.35,9.05"/>
          <path class="cls-3" d="M674.02,594.5s-5.37-38.56-16-39.98c-10.63-1.42-14.98,25.41-14.98,25.41,0,0-6.24-23.54-16.86-23.88-10.62-.33-11.28,24.34-11.28,24.34,0,0-4.67-27.61-12.98-23.11-8.31,4.5-12.75,18.53-11.85,37.21"/>
          <path d="M587.59,545.96c11.36-11.26,28.89-15.47,44.5-15.59,1.61.12,4.16.17,5.74.45,4.68.57,9.47,1.87,13.83,3.7,7.02,2.94,13.51,7.23,18.39,12.94-11.82-8.65-26.12-13.59-40.72-13.06,0,0-2.69.07-2.69.07l-2.72.25c-12.65,1.27-25.52,4.29-36.33,11.25h0Z"/>
          <path class="cls-3" d="M636.15,470.77c2.49.98,4.8,2.96,6.08,5.22,1.36,2.38,1.59,5.59-.12,7.74-1.15,1.45-2.99,2.21-4.83,2.45-3.18.42-6.59-.66-8.75-3.03-2.16-2.38-2.87-6.05-1.51-8.96,1.99-4.23,5.72-4.75,9.11-3.42Z"/>
          <path class="cls-3" d="M648.74,503.26c-4.81,1.17-8.83,5.98-1.77,11.37,3.09,2.35,8.19.16,9.18-3.6,1.83-6.96-3.11-8.82-7.41-7.77Z"/>
          <path class="cls-3" d="M627.68,497.44c-2.26-.15-4.3.81-4.69,3.35-.81,5.28,7.21,11.26,10.43,5.23,2.32-4.35-1.74-8.32-5.74-8.58Z"/>
        </g>
        <circle cx="57.77" cy="386.29" r="3.95"/>
        <circle cx="54.76" cy="346.58" r="3.95"/>
        <circle cx="126.69" cy="291.88" r="3.95"/>
        <circle cx="203.49" cy="313.88" r="3.95"/>
        <circle cx="222.32" cy="347.32" r="3.95"/>
        <circle cx="244.4" cy="372.03" r="3.95"/>
        <circle cx="95.74" cy="394.18" r="3.95"/>
        <circle cx="124.08" cy="413.05" r="3.95"/>
        <circle cx="151.92" cy="433.05" r="3.95"/>
        <circle cx="181.57" cy="448.16" r="3.95"/>
        <circle cx="189.56" cy="462.61" r="3.95"/>
        <circle cx="174.51" cy="494.37" r="3.95"/>
        <circle cx="160.93" cy="534.68" r="3.95"/>
        <circle cx="153.68" cy="566.59" r="3.95"/>
        <circle cx="164.02" cy="592.32" r="3.95"/>
        <circle cx="206.14" cy="592.32" r="3.95"/>
        <circle cx="248.26" cy="592.32" r="3.95"/>
        <circle cx="258.69" cy="551.52" r="3.95"/>
        <path d="M257.07,502.42c0,2.18-1.77,3.95-3.95,3.95s-3.95-1.77-3.95-3.95,1.77-3.95,3.95-3.95,3.95,1.77,3.95,3.95Z"/>
        <circle cx="287.09" cy="519.15" r="3.95"/>
        <circle cx="280.04" cy="592.32" r="3.95"/>
        <circle cx="382.06" cy="570.1" r="3.95"/>
        <circle cx="364.38" cy="592.99" r="3.95"/>
        <circle cx="384.85" cy="538.19" r="3.95"/>
        <circle cx="413.1" cy="539.35" r="3.95"/>
        <circle cx="407.57" cy="594.5" r="3.95"/>
        <circle cx="449.6" cy="594.5" r="3.95"/>
        <circle cx="491.62" cy="594.5" r="3.95"/>
        <circle cx="512.28" cy="569.16" r="3.95"/>
        <path d="M515.18,536.22c0,2.18-1.77,3.95-3.95,3.95s-3.95-1.77-3.95-3.95,1.77-3.95,3.95-3.95,3.95,1.77,3.95,3.95Z"/>
        <circle cx="570.66" cy="525.18" r="3.95"/>
        <circle cx="569.65" cy="563.39" r="3.95"/>
        <path d="M593.91,594.5c0,2.18-1.77,3.95-3.95,3.95s-3.95-1.77-3.95-3.95,1.77-3.95,3.95-3.95,3.95,1.77,3.95,3.95Z"/>
        <circle cx="631.99" cy="594.5" r="3.95"/>
        <path d="M677.96,594.5c0,2.18-1.77,3.95-3.95,3.95s-3.95-1.77-3.95-3.95,1.77-3.95,3.95-3.95,3.95,1.77,3.95,3.95Z"/>
        <circle cx="670.04" cy="547.46" r="3.95"/>
        <circle cx="663.3" cy="509.29" r="3.95"/>
        <circle cx="655.41" cy="480.23" r="3.95"/>
        <path d="M688.17,439.63c0,2.18-1.77,3.95-3.95,3.95s-3.95-1.77-3.95-3.95,1.77-3.95,3.95-3.95,3.95,1.77,3.95,3.95Z"/>
        <path d="M738.43,423.28c0,2.18-1.77,3.95-3.95,3.95s-3.95-1.77-3.95-3.95,1.77-3.95,3.95-3.95,3.95,1.77,3.95,3.95Z"/>
        <circle cx="762.2" cy="388.92" r="3.95"/>
        <circle cx="769.52" cy="350.55" r="3.95"/>
        <circle cx="756.61" cy="320.59" r="3.95"/>
        <path d="M734.49,361.88c0,2.18-1.77,3.95-3.95,3.95s-3.95-1.77-3.95-3.95,1.77-3.95,3.95-3.95,3.95,1.77,3.95,3.95Z"/>
        <circle cx="319.16" cy="592.32" r="3.95"/>
        <path class="cls-3" d="M283.64,395s28.97,75.49-90.69,55.77c-3.9-.64-7.69-1.57-11.38-2.72"/>
        <path class="cls-3" d="M693.55,368.23c-246.34,56.84-446.67-3.76-446.67-3.76-.96,2.88-1.79,5.48-2.49,7.78,15.62,14.11,29.15,20.09,37.76,22.37,221.21,53.53,411.36-9.3,411.36-9.3.59-5.58.59-11.3.04-17.09Z"/>
        <circle cx="693.87" cy="383.4" r="3.95"/>
        <text class="cls-2" transform="translate(237.95 362.73)"><tspan x="0" y="0">1</tspan></text>
        <text class="cls-2" transform="translate(220.16 337.09)"><tspan x="0" y="0">2</tspan></text>
        <text class="cls-2" transform="translate(207.43 306.12)"><tspan x="0" y="0">3</tspan></text>
        <text class="cls-2" transform="translate(122.74 282.05)"><tspan x="0" y="0">4</tspan></text>
        <text class="cls-2" transform="translate(40.07 362.73)"><tspan x="0" y="0">5</tspan></text>
        <text class="cls-2" transform="translate(57.77 405.63)"><tspan x="0" y="0">6</tspan></text>
        <text class="cls-2" transform="translate(89.04 411.56)"><tspan x="0" y="0">7</tspan></text>
        <text class="cls-2" transform="translate(113.73 429.11)"><tspan x="0" y="0">8</tspan></text>
        <text class="cls-2" transform="translate(141.98 450.38)"><tspan x="0" y="0">9</tspan></text>
        <text class="cls-2" transform="translate(164.34 460.67)"><tspan x="0" y="0">10</tspan></text>
        <text class="cls-2" transform="translate(181.57 480.59)"><tspan x="0" y="0">11</tspan></text>
        <text class="cls-2" transform="translate(153.68 504.05)"><tspan x="0" y="0">12</tspan></text>
        <text class="cls-2" transform="translate(137.75 538.63)"><tspan x="0" y="0">13</tspan></text>
        <text class="cls-2" transform="translate(133.75 575.48)"><tspan x="0" y="0">14</tspan></text>
        <text class="cls-2" transform="translate(152.82 611.18)"><tspan x="0" y="0">15</tspan></text>
        <text class="cls-2" transform="translate(193.51 611.62)"><tspan x="0" y="0">16</tspan></text>
        <text class="cls-2" transform="translate(237.95 611.62)"><tspan x="0" y="0">17</tspan></text>
        <text class="cls-1" transform="translate(260.44 565.46)"><tspan x="0" y="0">18</tspan></text>
        <text class="cls-2" transform="translate(256.88 516.62)"><tspan x="0" y="0">19</tspan></text>
        <text class="cls-2" transform="translate(276.09 533.74)"><tspan x="0" y="0">20</tspan></text>
        <text class="cls-2" transform="translate(272.31 611.62)"><tspan x="0" y="0">21</tspan></text>
        <text class="cls-2" transform="translate(308.87 611.62)"><tspan x="0" y="0">22</tspan></text>
        <text class="cls-2" transform="translate(352.59 611.62)"><tspan x="0" y="0">23</tspan></text>
        <text class="cls-2" transform="translate(396.63 611.62)"><tspan x="0" y="0">27</tspan></text>
        <text class="cls-2" transform="translate(438.49 611.62)"><tspan x="0" y="0">28</tspan></text>
        <text class="cls-2" transform="translate(478.95 611.62)"><tspan x="0" y="0">29</tspan></text>
        <text class="cls-2" transform="translate(579.87 610.62)"><tspan x="0" y="0">34</tspan></text>
        <text class="cls-2" transform="translate(622.93 610.62)"><tspan x="0" y="0">35</tspan></text>
        <text class="cls-2" transform="translate(662.57 610.62)"><tspan class="cls-8" x="0" y="0">3</tspan><tspan x="7.25" y="0">6</tspan></text>
        <text class="cls-1" transform="translate(674.02 559.45)"><tspan x="0" y="0">37</tspan></text>
        <text class="cls-2" transform="translate(670.05 521.23)"><tspan x="0" y="0">38</tspan></text>
        <text class="cls-2" transform="translate(660.81 490.54)"><tspan class="cls-8" x="0" y="0">3</tspan><tspan x="7.25" y="0">9</tspan></text>
        <text class="cls-2" transform="translate(684.22 453.33)"><tspan class="cls-8" x="0" y="0">4</tspan><tspan x="7.73" y="0">0</tspan></text>
        <text class="cls-2" transform="translate(728.86 439.63)"><tspan class="cls-10" x="0" y="0">4</tspan><tspan x="7.22" y="0">1</tspan></text>
        <text class="cls-2" transform="translate(762.2 405.63)"><tspan x="0" y="0">42</tspan></text>
        <text class="cls-2" transform="translate(769.52 365.82)"><tspan x="0" y="0">43</tspan></text>
        <text class="cls-2" transform="translate(765.57 327.68)"><tspan x="0" y="0">44</tspan></text>
        <text class="cls-2" transform="translate(714.87 355.84)"><tspan class="cls-8" x="0" y="0">4</tspan><tspan x="7.73" y="0">5</tspan></text>
        <text class="cls-2" transform="translate(696.29 375.84)"><tspan class="cls-9" x="0" y="0">4</tspan><tspan x="7.66" y="0">6</tspan></text>
        <text class="cls-2" transform="translate(511.23 585.76)"><tspan x="0" y="0">30</tspan></text>
        <text class="cls-2" transform="translate(515.18 551.52)"><tspan class="cls-8" x="0" y="0">3</tspan><tspan x="7.25" y="0">1</tspan></text>
        <text class="cls-2" transform="translate(555.64 539.35)"><tspan x="0" y="0">32</tspan></text>
        <text class="cls-2" transform="translate(559.36 577.95)"><tspan x="0" y="0">33</tspan></text>
        <text class="cls-1" transform="translate(378.11 588.37)"><tspan x="0" y="0">24</tspan></text>
        <text class="cls-2" transform="translate(380.9 555.98)"><tspan x="0" y="0">25</tspan></text>
        <text class="cls-2" transform="translate(401.83 554.52)"><tspan x="0" y="0">26</tspan></text>
      </g>
    </g>
  </g>
</svg>