<?xml version="1.0" encoding="UTF-8"?>
<svg xmlns="http://www.w3.org/2000/svg" width="800" height="800" version="1.1" viewBox="0 0 800 800">
  <defs>
    <style>
      .cls-1 {
        fill: #fff;
      }
    </style>
  </defs>
  <!-- Generator: Adobe Illustrator 28.7.3, SVG Export Plug-In . SVG Version: 1.2.0 Build 164)  -->
  <g>
    <g id="Camada_1">
      <g>
        <path d="M515.58,150.27c2.1,2.48,4.26,4.9,6.29,7.43,15.92,19.91,26.23,42.67,32.77,67.09,2.95,11,4.3,22.44,6.15,33.72.36,2.21.84,2.72,3.15,2.79,4.93.15,10.18-.02,14.68,1.62,11.54,4.21,14.04,16.32,5.72,25.33-2.02,2.18-4.34,4.08-6.5,6.09,2.26,2.15,4.57,4.21,6.72,6.43,5.66,5.82,8.19,12.77,5.34,20.55-2.8,7.66-8.89,11.75-16.9,12.62-.78,18.85-9.55,34.05-21.7,47.58-12.8,14.26-28.5,24.47-46.04,31.97-3.42,1.46-6.82,2.95-10.25,4.43,13.98,11.73,27.87,23.39,42.11,35.35,2.53-2.33,5.39-5.05,8.36-7.66,11.85-10.45,25.9-13.99,41.33-12.82,5.59.42,11.19,1.04,16.7,2.04,19.22,3.51,34.91,12.64,44.46,30.18,2.71,4.98,3.52,11.04,4.94,16.66.56,2.22.82,4.11,3.74,4.05,21.07-.42,36.76,20.44,39.7,36.7,2.31,12.75.39,24.87-5.9,36.19-1.78,3.21-2.08,5.64.04,9.08,8.83,14.37,4.21,34.86-9.69,44.74-.5.35-1.01.68-1.78,1.2,2.96,6.74,1.71,13.43-.17,20.11-4.12,14.67-14.63,22.65-28.41,27.22-1.42.47-3.04.56-4.27,1.3-1.3.78-2.88,1.96-3.27,3.28-3.67,12.38-12.32,19.38-24.33,22.51-12.77,3.33-25.22,2.95-36.75-4.98-2.55,3.12-4.77,6.26-7.41,9-14.89,15.46-32.28,26.93-52.94,33.26-21.48,6.58-43.24,10.88-65.87,9.26-22.18-1.59-42.41-8.56-60.4-21.73-1.8-1.32-3.47-2.86-5-4.49-3.34-3.55-4.29-3.4-8.66-1.51-8.43,3.64-16.82,7.81-25.67,9.88-15.34,3.6-30.23,1.47-43.7-7.54-.78-.52-2.3-.57-3.21-.19-12.48,5.21-24.89,5.26-37.46.2-2.24-.9-5.06-1.23-7.43-.8-15.84,2.88-30.79-.25-45.28-6.44-20.86-8.91-37.09-23.17-48.54-42.77-4.67-7.99-6.49-16.68-5.45-25.93.83-7.37,4.54-13.21,10.03-17.84,10.02-8.47,21.5-11.11,34.27-7.82.6.16,1.21.31,1.82.42.22.04.47-.06.82-.11,0-3.21.12-6.43-.02-9.64-.87-20.1,6.34-37.6,17.24-53.91,1.03-1.54,2.27-3.13,3.79-4.1,3.89-2.46,4.62-5.93,4.68-10.22.05-4.19,1.07-8.37,1.66-12.55.09-.61.24-1.22.24-1.84.02-8.58.01-17.15.01-25.65-9.39-3.13-12.75-14.42-11.53-22.98,1.08-7.56,3.44-14.55,8.49-20.42-11.4-7.78-13.26-18.27-5.76-33.09-1.46-.78-2.91-1.62-4.42-2.35-17.12-8.31-32.57-18.83-44.99-33.5-9.85-11.63-16.31-24.45-15.13-40.03-2.96-1.14-6.02-1.88-8.63-3.4-8.26-4.79-11.15-15.06-6.49-23.84,2.25-4.24,5.44-7.97,8.2-11.93-1.92-1.58-4.59-3.21-6.53-5.47-6.85-8-5.04-18.15,3.92-23.66,6.02-3.7,12.62-4.4,19.76-3.74,3.63-48.43,23.09-89.92,54.75-126.8-1.14.22-1.64.2-2.02.4-21.76,11.92-42.85,24.9-58.7,44.44-9.32,11.5-17.62,23.85-25.95,36.11-7.29,10.73-13.88,21.92-20.97,32.79-4.94,7.58-10.76,14.28-18.83,18.91-4.07,2.34-7.48,5.82-11.36,8.54-2.64,1.86-5.43,3.61-8.38,4.88-10.99,4.7-20.17,1.98-27.24-7.66-5.75-7.85-7.74-17.01-8.87-26.32-2.58-21.21-.18-42.13,5.32-62.65,10.36-38.63,29.74-72.11,59.26-99.18,20.24-18.56,44.26-30.26,71.64-33.75,19.77-2.52,39.27-.08,58.28,6.15,20.58,6.73,39.69,16.13,56.33,30.18,2,1.69,3.87,1.75,5.47-.34,3.7-4.83,8.82-7.48,14.53-8.48,6.2-1.09,12.57-1.23,19.01-1.79-.34-.65-.84-1.6-1.33-2.56-6.74-13.18.59-25.8,15.41-26.47,9.51-.43,17.93,2.78,25.35,8.49,4.23,3.26,8.04,7.06,12.74,11.23.16-.36.42-1.08.81-1.72,4.23-6.88,13.82-5.73,17.79.05,2.76,4.01,4.57,8.78,6.18,13.43.93,2.68,1.97,4.01,4.84,4.58,3.89.76,7.71,2.07,11.43,3.48,2.34.88,3.85.76,5.92-.99,28.31-23.94,61-37.64,97.97-40.01,44.23-2.84,84.02,10.44,120.56,34.9,30.84,20.64,55.84,46.63,73.49,79.36,6.99,12.96,12.75,26.49,15.05,41.26,2.14,13.68-.81,26.13-9.11,37.07-6.82,8.99-16.77,12.69-27.57,14.11-21.29,2.8-40.26-3.74-57.49-15.62-9.01-6.22-17.25-13.55-25.87-20.34-1.76-1.38-3.56-2.81-5.55-3.8-11.72-5.83-21.93-13.82-31.88-22.17-19.41-16.3-40.93-29.32-63.12-41.35-2.66-1.44-5.26-2.99-7.89-4.5-.23.27-.46.53-.69.8ZM180.37,658.01c1.9,2.7,3.67,5.51,5.73,8.09,14.6,18.27,33.72,28.89,56.59,32.75,4.65.79,9.55.11,14.53.11-.21-.57-.23-1-.45-1.19-7.26-6.13-9.95-14.83-12.58-23.36-3.98-12.9-6.09-26.2-7.09-39.67-.14-1.93-.67-4.57-2.01-5.56-7.53-5.63-15.76-9.93-24.93-12.43-9.3-2.53-18.05-.55-26.64,2.71-1.99.75-3.75,2.47-5.25,4.09-4.96,5.34-4.13,9.58,2.37,13.02,0,0-.1-.1-.1-.1,1.59,2.77,3.19,5.55,4.78,8.33l-.85,1.08c-2.1-.81-4.35-1.37-6.25-2.51-1.89-1.14-3.44-2.85-5.14-4.31-.28.11-.57.22-.85.34,2.27,5.52,4.55,11.04,6.82,16.56.45.69.9,1.39,1.36,2.08ZM672.4,609.38c10.8-9.99,15.82-31.25,9.28-39.25-10.06,9.65-11.6,10.52-16.59,8.72.99-1.25,1.73-2.43,2.7-3.37,12.98-12.56,19.53-27.66,18.82-45.92-.7-17.77-15.43-31.16-28.36-34.25-5.63-1.35-7.37-.4-9.14,4.96-.58,1.77-1.03,3.63-1.9,5.27-1.63,3.07-3.52,5.99-5.3,8.98-.41-.19-.82-.39-1.23-.58.15-1.3.26-2.61.45-3.9.96-6.41,1.87-12.83,2.93-19.23.96-5.76-.25-11.17-2.41-16.43-7.46-18.14-22.6-26.44-40.36-31.29-1.44-.39-3.03-.28-5.41-.47,2.02,1.88,3.29,3.02,4.52,4.22,3.64,3.53,6.4,8.54,12.72,7.59.15.31.3.61.46.92-8.23,4.15-16.46,8.3-24.69,12.44-.49-.57-.98-1.15-1.46-1.72,1.78-1.28,3.59-2.53,5.35-3.84,1.4-1.04,3.09-1.93,4-3.31.8-1.21,1.5-3.66.86-4.46-4.43-5.61-9.34-10.93-17.12-11.37-10.66-.61-19.69,3.77-27.85,10.1-3.18,2.46-5.93,5.47-8.83,8.19,3.53,3.9,6.68,7.11,9.52,10.56,26.73,32.48,46.28,68.18,50.35,111.02,1.94,20.41,1.68,40.58-3.72,60.48-3.04,11.2-7.26,21.93-13.64,31.89.86.55,1.52,1.17,2.29,1.45,11.14,4.04,22.26,4.13,33.12-.78,2.76-1.24,5.38-3.25,7.43-5.49,3.99-4.37,3.57-5.91-1.36-8.88-.85-.51-1.84-.95-2.46-1.68-1.33-1.54-2.46-3.26-3.67-4.9.29-.32.59-.64.88-.95,1.07.1,2.14.27,3.21.27,4.45.02,9.02.63,13.34-.13,19.86-3.45,30.27-14.76,32.22-34.34.35-3.55.78-7.09,1.18-10.64l-.13.13ZM412.96,431.86c-.11-.52-.22-1.04-.33-1.56,2.64-.74,5.25-1.6,7.93-2.19,20.08-4.4,40.31-7.99,59.89-14.58,22.16-7.46,42.41-18,59.75-33.85,11.93-10.9,20.41-23.77,23.26-39.97.61-3.48.18-6.28-2.83-8.62-1.84-1.43-3.39-3.35-4.72-5.28-.82-1.19-.99-2.83-1.45-4.27,1.46.26,3.12.17,4.34.85,4.79,2.67,9.77,3.68,15.12,2.32,7.74-1.97,10.16-9.03,5.24-15.3-3.91-4.99-9.29-7.81-15.06-10.05-2.32-.9-4.75-1.7-6.79-3.04-1.12-.74-1.55-2.53-2.29-3.84,1.24-.47,2.47-1.29,3.73-1.35,7.73-.35,14.43-2.97,19.24-9.16,3.08-3.96,2.17-7.53-2.32-9.84-5.09-2.61-10.59-2.79-16.03-1.29-5.3,1.47-5.09,1.61-5.83-3.9-2.68-19.99-7.31-39.53-14.87-58.24-13.5-33.42-33.78-61.85-62.81-83.66-17.13-12.87-35.7-23.22-56.64-27.81-7.46-1.64-9.59-4.76-11.06-11.21-.94-4.14-3.72-7.96-6.09-11.66-1.68-2.63-4.02-1.68-4.66.8-.71,2.75-.58,5.78-.46,8.68.14,3.15,1.11,6.36-2.04,9.28-1.12-1.48-2.1-2.71-3.01-3.99-2.9-4.06-5.49-8.37-8.71-12.15-7.3-8.54-16.58-13.86-27.75-15.57-4.13-.63-8.15-.1-10.59,3.83-2.27,3.66-1.25,7.59,1.11,10.51,3.88,4.8,8.42,9.05,12.74,13.49,1.29,1.33,2.9,2.36,4.07,3.78.46.56.42,1.92.06,2.65-.23.47-1.51.77-2.2.61-2.05-.46-4.11-1.02-6.05-1.82-8.09-3.32-16.54-5.24-25.19-4.09-5.18.69-10.21,2.82-15.15,4.72-2.56.99-2.71,3.18-1.15,5.55,2.83,4.31,6.86,7.29,11.7,8.05,6.46,1.02,13.09,1.01,19.66,1.29,2.16.09,4.35-.27,6.63-.43.47,4.17-2.26,5.47-4.59,7.04-4.95,3.34-10.02,6.52-14.77,10.12-1.22.92-2.13,3.26-1.89,4.74.15.93,2.64,1.91,4.17,2.12,7.98,1.08,14.54-2.24,20.6-7.03.93-.74,2.23-1.01,3.36-1.5.38,1.24,1.3,2.64,1.01,3.69-.52,1.84-1.49,3.75-2.79,5.15-5.78,6.21-13.22,8.65-21.52,8.76-5.15.07-9.9-1.29-12.27-6.25-2.52-5.27-.98-10.22,2.68-14.57.91-1.09,1.82-2.18,2.65-3.16-10.46-3.28-20.54-6.23-24.64-17.8-1.13.41-2.06.71-2.97,1.08-24.15,9.91-44.95,24.34-62.39,44-27.24,30.7-43.93,66.3-51.57,106.39-1.53,8.01-2.8,16.08-4.22,24.28-2.13-.91-4-2.35-5.92-2.41-5.96-.19-11.67.96-16.4,5.06-3.25,2.83-3.55,4.96-.83,8.33,3.7,4.59,8.48,6.73,14.44,6.39,1.25-.07,2.56.82,3.85,1.27-.67,1.35-1.03,3.05-2.08,3.98-2.31,2.07-5.22,3.5-7.41,5.67-3.06,3.03-6.19,6.19-8.39,9.84-2.8,4.65-1.92,8.67,1.39,11.52,3.21,2.77,7.81,2.6,12.18-.11,1.29-.8,3.05-.86,4.59-1.26-.1,1.66-.12,3.33-.35,4.97-.1.7-.79,1.3-.98,2-.92,3.43-2.76,7-2.39,10.3.6,5.34,1.97,10.85,4.28,15.69,6.24,13.08,16.99,22.35,28.29,30.9,21.59,16.34,46.34,25.58,72.45,31.63,8.98,2.08,17.98,4.08,26.91,6.37,1.32.34,2.27,2.09,3.39,3.19-1.27.65-2.5,1.39-3.81,1.93-.53.22-1.23.02-1.86.02-13.6.04-26.7-3.21-39.78-6.36-8.32-2-16.47-4.68-25.52-7.29-1.04,3.71-2.59,7.3-2.96,11-.61,6.22,3.56,10.6,9.75,9.91,4.18-.47,8.17-2.59,12.28-3.85,2.22-.68,4.53-1.09,6.8-1.62-.7,2.09-1.02,4.41-2.16,6.23-3.29,5.26-6.14,10.58-5.92,17.02.25,7.35,5.24,11.09,12.32,9.38,4.26-1.03,7.92-2.89,10.73-6.35,1.17-1.45,2.43-2.95,3.97-3.93.92-.59,2.46-.2,3.72-.25.02,1,.21,2.03.04,3-.9,5.24-2.46,10.43-2.72,15.69-.46,9.03,5.6,18.12,12.66,20.22,8.62,2.56,17.23-1,22.59-9.67,1.62-2.62,2.46-5.7,3.86-8.47.53-1.06,1.63-1.83,2.47-2.73.69.9,1.72,1.69,2.03,2.7,2.77,9.23,11.34,14.36,20.84,12.58,13.22-2.48,21.67-9.99,25.1-23.1.32-1.21,1.31-2.23,1.99-3.34.88.92,1.98,1.72,2.62,2.79,3.61,6.07,9.04,9.26,15.92,9.72,15.64,1.06,27.34-10.53,26.86-26.24-.07-2.42.39-4.85.7-8.4,12.29,9.31,23.68,11.33,34.87,1.01,3.72-3.43,5.43-7.78,4.68-13.16-16.19,4.41-32.09,6.81-48.32,3.43ZM315.1,616.15c.43-.85.65-1.16.75-1.5,6.52-22.24,12.94-44.5,19.63-66.69,1.65-5.47,4.07-10.72,6.37-15.96.4-.92,2.21-1.99,3.01-1.75.88.26,1.93,1.96,1.88,2.99-.12,2.59-.6,5.21-1.31,7.71-10.39,36.66-20.8,73.33-31.32,109.95-3.22,11.2-5.76,22.46-4.92,34.22.31,4.44,1.2,8.7,4.55,13.34-.66-7.78.6-14.04,4.42-19.6.9-1.31,1.74-3.71,3.87-2.04.72.57.56,2.75.24,4.06-.79,3.25-2.55,6.38-2.75,9.64-.31,4.88-.64,10.41,3.88,13.74,4.61,3.39,10.23,4.1,14.58,4.04,3.1-6.14,5.81-11.37,8.4-16.67,1.04-2.13,2.74-2.8,4.49-1.64.61.4.39,2.8-.11,4-1.63,3.9-3.68,7.63-5.35,11.52-.71,1.64-.59,3.43,1.98,3.19,10.57-.95,20.64-3.41,29.48-9.72,2.41-1.72,1.78-2.83.35-5.04-4.03-6.24-8.46-12.47-11.05-19.34-7.1-18.87,3.69-38.35,21.16-42.92,6.32-1.65,12.86-2.51,18.99-3.67,1.05-7.36,1.69-15.07,3.28-22.57,9.3-43.62,45.42-69.46,86.88-65.68,7.72.7,15.38,2.11,21.93,6.67,1.08.75,1.26,2.81,1.85,4.27-1.32.18-2.65.57-3.94.48-1.34-.09-2.65-.63-3.97-1-20.8-5.85-40.57-3.07-59.12,7.68-19.87,11.51-30.35,29.78-35.37,51.52-1.49,6.47-1.85,13.2-2.75,19.97,11.03,1.53,20.4,5.1,29.4,9.82,11.56,6.06,21.72,13.73,28.53,25.15,1.13,1.9,1.76,4.1,2.63,6.17-.42.32-.84.64-1.26.96-1.83-1.51-3.74-2.94-5.49-4.54-15.08-13.75-31.96-24.13-52.17-28.63-11.34-2.53-22.11-1.47-32.2,4.24-5.72,3.24-10.33,8.03-10.7,14.89-.28,5.25.18,10.85,1.75,15.83,4.41,13.93,14.85,23.52,25.87,32.16,18.25,14.32,39.75,19,62.46,19.33,17.48.25,34.56-2.61,51.22-7.61,38.4-11.53,64.05-36.36,74.91-75.14,9.29-33.18,5.83-66.09-5.72-98.16-9.77-27.13-25.57-50.69-44.63-72.15-16.24-18.28-35.45-33.26-54.21-48.73-.66-.54-1.93-.92-2.69-.67-3.88,1.26-7.68,2.74-11.48,4.14,2.05,19.28-20.5,37.47-41.89,28.83-2.31,25.73-33.92,37.91-51.37,22.94-4.25,10.31-12.43,16.02-22.65,19.04-10.57,3.12-20.24,1.45-28.54-6.67-8.47,11.4-19.41,17.05-32.99,12.32-13.59-4.74-17.96-16.49-18.36-30.28-8.36,3.77-16.01,4.3-22.57-2.35-6.39-6.48-5.69-14.41-3.35-23.39-2.36,1.11-4.27,1.43-5.25,2.55-6.64,7.59-9.01,16.59-7.53,26.46.87,5.79,5.26,7.69,10.29,5.28,1.2-.58,2.96,0,4.46.06-.16,1.24-.02,2.63-.54,3.71-3.7,7.72-4.73,15.9-2.81,24.06.94,4.01,3.46,7.96,6.19,11.15,2.66,3.1,6.68,2.49,9.56-.54,1.45-1.53,2.54-3.4,3.96-4.97.66-.73,2.12-1.76,2.5-1.52.9.57,1.81,1.77,1.93,2.81.21,1.7-.17,3.47-.36,5.21-1.39,12.92,5.73,25.95,17.05,31.03,1.34.6,2.91,1.37,4.26,1.19,6.93-.91,10.89,4.61,17.4,7.15-2.07.8-3.1,1.58-4.05,1.5-7.14-.58-14.27-1.33-21.65-2.04,6.12,20.59,15.57,39.54,30.08,56.24ZM444.05,95.82c5.6,2.87,10.85,5.68,16.24,8.21.97.46,2.6-.01,3.75-.48,19.47-7.9,39.37-11.16,59.89-4.77,21.41,6.67,37.9,20.53,51.08,38.05,13.04,17.33,24.74,35.65,37.27,53.36,12.43,17.57,27.33,32.75,45.39,44.59,14.02,9.19,29.48,13.99,46.32,13.41,16.44-.56,28.21-11.1,30.82-27.27,1.46-9.08-.1-17.92-2.84-26.55-7.83-24.58-21.53-45.73-38.61-64.75-15.02-16.72-32.47-30.51-51.8-42.03-22.88-13.63-47.12-23.29-73.72-26.32-13.27-1.51-26.59-2.41-39.94-.74-30.14,3.79-57.1,15.39-81.48,33.29-.77.56-1.45,1.23-2.34,2ZM292.51,96.24c-1.51-1.26-2.7-2.5-4.11-3.39-22.58-14.2-46.38-25.06-73.26-28.45-34.08-4.3-63.81,5.43-90.17,26.68-19.45,15.67-33.64,35.57-45.72,57.23-15.57,27.92-22.57,57.91-22.25,89.68.11,10.99,1.19,21.98,6.34,32.02,4.71,9.17,12.44,10.58,20.17,3.73,8.6-7.63,14.08-17.42,18.32-27.91,6.21-15.36,8.66-31.69,11.95-47.81,3.4-16.68,5.72-33.6,13.31-49.26,5.51-11.36,11.88-22.1,20.93-30.76,18.95-18.12,42.3-26.25,68.11-27.75,20.87-1.21,40.49,4.33,59.69,11.83,1.16.45,2.77.81,3.81.37,4.2-1.8,8.26-3.94,12.87-6.2ZM304.3,700.4c-5.77-13.52-5.36-27.23-2.01-40.91,2.37-9.67,5.28-19.23,8.52-28.64,1.31-3.82.88-6.27-1.76-9.22-3.81-4.26-7.26-8.89-10.5-13.61-11.26-16.41-19.96-33.95-23.14-53.86-.19-1.17-.73-2.47-1.53-3.31-5.39-5.61-9.52-11.82-9.94-20.26-6.42,1.32-11.88-.01-16.67-4.85-.39,2.4-.77,3.86-.84,5.34-.54,11.95-1.41,23.9-1.45,35.85-.1,28.9-.79,57.85,4.32,86.5,1.97,11.03,4.05,22.03,9.11,32.19,2.22,4.46,5.16,8.26,9.99,11.7-1.14-2.76-2.17-4.63-2.69-6.62-.91-3.46-1.64-6.99-2.13-10.54-.11-.82,1.04-1.82,1.62-2.73.73.75,1.77,1.37,2.13,2.27,2.01,5.06,3.7,10.25,5.79,15.28,2.71,6.54,8.44,8.18,15.49,8.77-1.28-1.6-2.15-2.77-3.11-3.86-6.18-7.03-6.86-15.51-6.27-24.26.06-.84,1.12-1.61,1.72-2.41.7.75,1.73,1.4,2.02,2.29.5,1.52.32,3.25.8,4.78,1.71,5.53,2.8,11.45,5.56,16.43,4.23,7.62,6.7,7.83,14.98,3.69ZM106.2,259.7c.32.15.64.3.96.46,3.41-4.87,7.04-9.61,10.19-14.64,9.32-14.9,18.15-30.12,27.72-44.86,16.58-25.54,37.99-46.15,64.56-61.2,10.53-5.97,21.08-12.23,33.07-14.55,7.74-1.5,11.35-7.75,17.1-11.6-2.99-.74-5.81-1.36-8.61-1.28-6.85.18-13.82-.04-20.51,1.17-42.84,7.78-72.95,31.52-89.35,72.2-1.34,3.33-3.52,6.33-5.31,9.49-.49-.31-.98-.63-1.48-.94,4.98-30.65,22.13-53.59,47.98-69.73,25.44-15.89,53.15-23.98,83.68-16.57-1-.87-2-1.27-2.99-1.66-9.61-3.76-19.66-5.28-29.85-6.59-22.17-2.85-43.13.61-62.34,11.98-20.31,12.02-33.36,30.3-40.64,52.39-4,12.15-6.4,24.88-8.99,37.45-3.19,15.52-5.29,31.28-10.79,46.25-1.49,4.07-2.92,8.15-4.38,12.23ZM484.46,119.6c4.62,3.85,8.62,7.4,12.87,10.63,2.54,1.93,5.33,3.62,8.23,4.97,10.02,4.66,20.42,8.59,30.16,13.76,21.08,11.18,40.38,25.13,59.17,39.78,2.72,2.12,5.71,3.88,8.57,5.81.19-.26.39-.52.58-.78-9.04-12.96-18.05-25.95-27.16-38.86-.91-1.29-2.29-2.29-3.6-3.23-13.38-9.66-27.58-17.86-42.84-24.22-14.61-6.08-29.88-8.06-45.99-7.86ZM471.35,109.45c2.66,3.42,6.02,4.58,10.39,4.3,24.55-1.58,47.6,3.48,68.87,16.07,4.37,2.59,8.74,5.17,13.77,8.14-19.08-28.76-62.72-41.88-93.03-28.51ZM235.82,551.38c-.3-.03-.59-.07-.89-.1-.27.4-.58.78-.8,1.21-1.4,2.77-2.76,5.57-4.18,8.34-7.6,14.8-10.34,30.55-9.05,47.05.1,1.22.72,2.93,1.64,3.46,4.38,2.52,8.94,4.7,13.27,6.92v-66.88Z"/>
        <path d="M68.11,516.55c-1.4-5.13-3.16-9.72-3.81-14.46-.62-4.48-.64-9.22.08-13.68,1.49-9.27,11.35-13.06,18.4-6.86,3.59,3.16,5.83,7.88,8.57,11.97.87,1.3,1.41,2.82,2.24,4.53,1.43-2.45,2.48-4.55,3.81-6.46,2.72-3.91,6.52-5.91,11.28-4.94,4.58.94,7.52,3.97,8.18,8.63.54,3.8.53,7.67.76,11.45,1.1.88,2.32,1.84,3.53,2.81-1.19,1.39-2.38,2.78-3.58,4.15-.32.37-.82.62-1.04,1.04-3.09,5.77-6.15,11.57-9.18,17.29.32.32.47.62.67.66,18.74,3.42,26.8,17.02,31.67,33.49,4.6,15.58,5.9,31.54,4.75,47.7-.24,3.34-.73,6.71-1.6,9.94-1.78,6.61-7.29,9.11-12.95,5.25-5.82-3.97-11.55-8.44-16.22-13.66-11.24-12.56-21.44-25.96-27.63-41.92-3.31-8.54-4.11-17.18-1.09-25.95.82-2.37.05-2.99-2.2-3.42-5.61-1.06-11.24-2.14-16.7-3.73-5.05-1.47-9.04-4.72-11.7-9.35-1.94-3.39-2.95-7-.54-10.58,2.54-3.77,6.27-5.14,10.72-4.57,1.08.14,2.14.41,3.57.68ZM126.64,555.14c-3.25-3.48-5.94-7.04-9.3-9.79-5.28-4.31-13.87-4.62-18.94-1.31-5.96,3.88-8.67,10.98-6.77,18.36.93,3.6,2.09,7.18,3.49,10.62,6.29,15.49,16.32,28.5,27.55,40.62,3.21,3.46,7.31,6.1,11.65,9.64,2.07-8.3,3.24-15.4,1.72-23.19-3.34,1.87-6.24,3.82-9.4,5.14-1.52.63-4.62.76-5.13-.06-1.56-2.49.61-4.08,2.71-5.1,3.35-1.63,6.83-3.01,10.15-4.7.86-.44,1.94-1.69,1.87-2.48-.36-4.01-1.05-7.99-1.73-12.67-3.38,2.04-5.99,3.97-8.9,5.19-1.25.53-3.12-.39-4.7-.65.54-1.32.71-3.17,1.7-3.87,3.22-2.27,6.73-4.11,10.61-6.41-1.46-4.65-3-9.55-4.53-14.42-5.47,1.01-8.63,6.53-14.88,3.81,3.96-2.7,7.92-5.4,12.84-8.75ZM86.03,531.12c-.3.35-.6.7-.9,1.05-2.84-1.44-5.6-3.09-8.54-4.28-3.77-1.53-7.64-2.91-11.58-3.87-1.17-.29-2.72,1.04-4.1,1.63.6,1.34.84,3.23,1.87,3.91,6.65,4.38,14.16,6.17,22,5.48,5-.43,6.91-3.13,6.98-8.08.12-8.7-1.18-17.25-4.47-25.27-1.86-4.54-4.57-8.87-7.61-12.75-2.69-3.42-6.57-2.26-7.95,1.91-.38,1.16-.57,2.43-.62,3.65-.4,9.76,3.16,18.24,8.47,26.18,2.27,3.39,4.31,6.95,6.45,10.43ZM98.89,528.61c.33.21.67.41,1,.62.34-.65.63-1.32,1.03-1.93,4.43-6.9,7.5-14.31,8.48-22.5.23-1.96.42-4.05-.03-5.93-.4-1.64-1.72-3.06-2.64-4.58-1.4.9-3.19,1.51-4.12,2.76-1.45,1.96-2.73,4.23-3.37,6.57-2.27,8.29-1.38,16.65-.36,24.98Z"/>
        <path d="M580.47,728.85c.89.61,3.17,1.31,3.6,2.63.86,2.62-1.52,3.65-3.68,4.04-4.14.75-8.31,1.61-12.48,1.72-1.49.04-3.03-1.96-4.55-3.04,1.18-1.07,2.21-2.77,3.57-3.1,4.08-.98,8.29-1.43,13.53-2.25Z"/>
        <path d="M568.57,724.87c-.62,0-1.38.23-1.84-.04-1.3-.76-2.49-1.73-3.72-2.61.88-1.11,1.56-2.85,2.67-3.2,3.17-.99,6.49-1.69,9.8-1.92,1.21-.08,3.36,1.29,3.59,2.33.24,1.06-1.07,3.21-2.21,3.68-2.57,1.08-5.46,1.44-8.21,2.09-.03-.11-.05-.22-.08-.33Z"/>
        <path d="M160.35,716.05c-3.63-.62-6.08-1.38-6.02-4.35.06-2.78,2.42-3.58,4.81-3.65,2.7-.08,4.5,1.76,4.3,4.06-.13,1.53-2.22,2.9-3.09,3.94Z"/>
        <path class="cls-1" d="M412.96,431.86c16.24,3.38,32.13.98,48.32-3.43.76,5.37-.95,9.73-4.68,13.16-11.19,10.32-22.58,8.3-34.87-1.01-.31,3.55-.77,5.98-.7,8.4.48,15.71-11.22,27.3-26.86,26.24-6.87-.47-12.31-3.65-15.92-9.72-.64-1.07-1.73-1.87-2.62-2.79-.68,1.11-1.67,2.14-1.99,3.34-3.43,13.11-11.88,20.62-25.1,23.1-9.5,1.78-18.07-3.35-20.84-12.58-.3-1.01-1.33-1.81-2.03-2.7-.84.9-1.94,1.68-2.47,2.73-1.4,2.77-2.24,5.85-3.86,8.47-5.36,8.67-13.97,12.23-22.59,9.67-7.05-2.1-13.12-11.19-12.66-20.22.27-5.26,1.82-10.45,2.72-15.69.17-.97-.02-2-.04-3-1.26.05-2.8-.34-3.72.25-1.54.98-2.79,2.49-3.97,3.93-2.81,3.46-6.47,5.32-10.73,6.35-7.08,1.71-12.07-2.03-12.32-9.38-.22-6.44,2.63-11.77,5.92-17.02,1.14-1.82,1.46-4.14,2.16-6.23-2.27.53-4.58.94-6.8,1.62-4.11,1.25-8.1,3.38-12.28,3.85-6.18.69-10.35-3.69-9.75-9.91.36-3.71,1.92-7.3,2.96-11,9.05,2.61,17.2,5.28,25.52,7.29,13.08,3.15,26.17,6.4,39.78,6.36.62,0,1.33.2,1.86-.02,1.31-.54,2.55-1.27,3.81-1.93-1.12-1.1-2.07-2.85-3.39-3.19-8.93-2.29-17.93-4.29-26.91-6.37-26.11-6.05-50.85-15.3-72.45-31.63-11.3-8.55-22.05-17.82-28.29-30.9-2.31-4.83-3.67-10.35-4.28-15.69-.37-3.3,1.47-6.87,2.39-10.3.19-.71.88-1.3.98-2,.23-1.64.25-3.31.35-4.97-1.54.4-3.3.46-4.59,1.26-4.36,2.72-8.97,2.88-12.18.11-3.3-2.85-4.19-6.87-1.39-11.52,2.2-3.65,5.32-6.81,8.39-9.84,2.2-2.17,5.1-3.6,7.41-5.67,1.04-.94,1.41-2.63,2.08-3.98-1.28-.45-2.59-1.34-3.85-1.27-5.96.34-10.75-1.8-14.44-6.39-2.72-3.37-2.42-5.51.83-8.33,4.73-4.11,10.44-5.26,16.4-5.06,1.92.06,3.79,1.5,5.92,2.41,1.42-8.2,2.7-16.27,4.22-24.28,7.63-40.09,24.33-75.69,51.57-106.39,17.44-19.66,38.24-34.09,62.39-44,.9-.37,1.84-.67,2.97-1.08,4.1,11.57,14.18,14.52,24.64,17.8-.83.99-1.74,2.08-2.65,3.16-3.67,4.35-5.2,9.29-2.68,14.57,2.37,4.96,7.12,6.32,12.27,6.25,8.3-.11,15.74-2.55,21.52-8.76,1.3-1.4,2.27-3.31,2.79-5.15.3-1.05-.63-2.45-1.01-3.69-1.13.49-2.42.77-3.36,1.5-6.06,4.79-12.62,8.11-20.6,7.03-1.54-.21-4.02-1.19-4.17-2.12-.24-1.48.67-3.81,1.89-4.74,4.76-3.6,9.82-6.78,14.77-10.12,2.33-1.57,5.06-2.87,4.59-7.04-2.28.16-4.47.52-6.63.43-6.56-.29-13.2-.27-19.66-1.29-4.84-.77-8.88-3.74-11.7-8.05-1.56-2.37-1.41-4.57,1.15-5.55,4.94-1.9,9.98-4.03,15.15-4.72,8.65-1.15,17.09.77,25.19,4.09,1.94.8,4,1.36,6.05,1.82.69.15,1.97-.14,2.2-.61.36-.73.41-2.09-.06-2.65-1.17-1.41-2.78-2.45-4.07-3.78-4.32-4.43-8.86-8.69-12.74-13.49-2.36-2.93-3.38-6.86-1.11-10.51,2.44-3.93,6.46-4.47,10.59-3.83,11.17,1.7,20.45,7.03,27.75,15.57,3.23,3.77,5.82,8.09,8.71,12.15.91,1.28,1.89,2.51,3.01,3.99,3.15-2.92,2.18-6.13,2.04-9.28-.13-2.89-.26-5.93.46-8.68.64-2.48,2.98-3.43,4.66-.8,2.37,3.7,5.15,7.52,6.09,11.66,1.47,6.44,3.6,9.57,11.06,11.21,20.94,4.6,39.51,14.94,56.64,27.81,29.03,21.81,49.31,50.24,62.81,83.66,7.56,18.71,12.18,38.25,14.87,58.24.74,5.51.52,5.37,5.83,3.9,5.44-1.5,10.94-1.32,16.03,1.29,4.5,2.31,5.41,5.88,2.32,9.84-4.82,6.19-11.51,8.81-19.24,9.16-1.26.06-2.49.88-3.73,1.35.74,1.31,1.17,3.1,2.29,3.84,2.05,1.35,4.47,2.14,6.79,3.04,5.77,2.24,11.15,5.07,15.06,10.05,4.92,6.27,2.49,13.33-5.24,15.3-5.35,1.36-10.33.35-15.12-2.32-1.23-.68-2.88-.59-4.34-.85.46,1.44.63,3.08,1.45,4.27,1.33,1.94,2.88,3.85,4.72,5.28,3.01,2.33,3.44,5.14,2.83,8.62-2.85,16.2-11.33,29.07-23.26,39.97-17.34,15.85-37.59,26.39-59.75,33.85-19.58,6.59-39.82,10.18-59.89,14.58-2.67.59-5.29,1.45-7.93,2.19.11.52.22,1.04.33,1.56ZM442.34,278.67c-.27,6.31,2.59,13.56,7.76,20.04,10.41,13.06,31.59,12.02,40.91,1.85,11.87-12.95,12.42-34.55.37-47.4-12.5-13.32-31.73-12.46-42.5,2.01-4.71,6.32-6.53,13.63-6.53,23.5ZM249.94,307.6c10.66.11,17.35-2.47,22.85-7.89,13.95-13.74,10.59-40.76-6.38-51.63-10.46-6.7-22.51-5.42-31.54,3.09-6.37,6.01-8.88,13.64-10.04,21.97-2.67,19.14,9.71,34.37,25.11,34.46ZM360.37,312.76c.8.73,1.44,1.32,2.08,1.91,7.89,7.42,17.49,8.42,26.64,2.7,4.34-2.71,6.99-6.71,8.03-11.67.7-3.34-1.81-7.46-4.73-7.89-4.31-.62-3.08,3.11-3.56,5.12-1.35,5.68-5.65,9.53-11.58,9.87-6.34.36-10.05-2.51-12.23-9.22-.71-2.2-.51-3.71,1.59-5.06,1.98-1.27,3.77-2.88,5.47-4.52,5-4.8,3.86-10.84-2.82-12.53-4.2-1.06-8.86-1-13.22-.54-3.99.42-7.92,2.23-8.89,6.8-.9,4.2,2.2,6.72,5.02,8.93,5.25,4.13,6.18,3.84,1.13,11.01-.64.91-1.44,1.72-2.23,2.52-4.1,4.11-10.09,4.46-13.94.22-1.79-1.97-2.58-4.97-3.48-7.62-.64-1.9-.68-4.14-3.42-3.96-2.78.18-4.67,2.07-4.4,4.61.34,3.19.94,6.86,2.77,9.31,6.93,9.27,21.67,13.97,31.79.01ZM496.63,345.07c8.28-.64,14.67-2.27,20.27-5.97,7.33-4.85,8.46-12.99,3.15-20.17-8.39-11.33-29.31-13.22-39.62-3.58-9.09,8.49-7.47,20.76,3.79,26.05,4.31,2.02,9.22,2.75,12.42,3.66ZM229.99,308.98c-4.2,1.02-8.58,1.57-12.54,3.15-6.87,2.74-10.6,8.17-10.63,15.67-.03,6.44,3.52,10.88,9.16,13.38,11.15,4.94,22.3,4.95,32.83-1.69,7.19-4.53,8.51-12.44,3.69-19.49-5.38-7.87-13.24-10.48-22.5-11.02ZM468,221.56c5.61,0,9.05-2.87,9.12-7.61.08-5.17-4.74-9.76-10.26-9.76-4.85,0-9.5,4.31-9.43,8.74.08,5.17,4.3,8.62,10.57,8.63ZM256.19,204.73c-5.58,0-9.84,3.74-9.82,8.61.02,4.92,3.68,8.56,8.53,8.49,6.56-.1,11.06-3.68,10.99-8.75-.06-4.65-4.36-8.35-9.71-8.34ZM506.7,291.6c-.02,4.08,2.78,7.1,6.55,7.06,3.33-.04,5.08-2.13,5.03-6-.05-3.87-3.22-7.73-6.26-7.63-2.89.1-5.31,3.09-5.33,6.57ZM217.86,292.75c.02-3.94-2.36-6.9-5.64-7-3.29-.1-6.15,2.68-6.21,6.07-.08,3.97,2.63,7.03,6.15,6.97,3.27-.06,5.69-2.61,5.71-6.03ZM351.84,272.97c5.83.54,10.88,1.05,15.94,1.41.65.05,1.36-.71,2.04-1.09-.55-.86-.91-2.15-1.69-2.52-4.52-2.13-9.24-1.6-13.87-.4-.9.24-1.52,1.59-2.41,2.59Z"/>
        <path class="cls-1" d="M315.1,616.15c-14.51-16.71-23.96-35.65-30.08-56.24,7.37.72,14.5,1.47,21.65,2.04.96.08,1.98-.7,4.05-1.5-6.52-2.54-10.47-8.06-17.4-7.15-1.35.18-2.91-.59-4.26-1.19-11.32-5.08-18.44-18.11-17.05-31.03.19-1.74.56-3.51.36-5.21-.13-1.04-1.03-2.24-1.93-2.81-.38-.24-1.84.79-2.5,1.52-1.42,1.57-2.51,3.44-3.96,4.97-2.87,3.03-6.9,3.65-9.56.54-2.73-3.19-5.24-7.14-6.19-11.15-1.92-8.16-.89-16.34,2.81-24.06.51-1.08.37-2.47.54-3.71-1.5-.05-3.26-.63-4.46-.06-5.04,2.41-9.43.51-10.29-5.28-1.48-9.86.9-18.87,7.53-26.46.98-1.12,2.89-1.44,5.25-2.55-2.34,8.98-3.04,16.91,3.35,23.39,6.57,6.66,14.22,6.13,22.57,2.35.4,13.78,4.77,25.54,18.36,30.28,13.58,4.73,24.52-.92,32.99-12.32,8.3,8.12,17.97,9.79,28.54,6.67,10.22-3.02,18.4-8.73,22.65-19.04,17.45,14.96,49.06,2.78,51.37-22.94,21.38,8.64,43.94-9.55,41.89-28.83,3.79-1.39,7.6-2.88,11.48-4.14.76-.25,2.03.13,2.69.67,18.76,15.48,37.98,30.45,54.21,48.73,19.06,21.45,34.86,45.02,44.63,72.15,11.55,32.08,15.01,64.98,5.72,98.16-10.86,38.78-36.5,63.61-74.91,75.14-16.66,5-33.74,7.86-51.22,7.61-22.71-.32-44.21-5-62.46-19.33-11.02-8.64-21.46-18.23-25.87-32.16-1.58-4.98-2.03-10.58-1.75-15.83.37-6.86,4.98-11.65,10.7-14.89,10.08-5.7,20.85-6.77,32.2-4.24,20.2,4.5,37.08,14.88,52.17,28.63,1.75,1.6,3.66,3.03,5.49,4.54.42-.32.84-.64,1.26-.96-.86-2.06-1.49-4.27-2.63-6.17-6.81-11.42-16.96-19.09-28.53-25.15-8.99-4.72-18.37-8.29-29.4-9.82.9-6.76,1.26-13.5,2.75-19.97,5.02-21.74,15.51-40.02,35.37-51.52,18.55-10.75,38.32-13.53,59.12-7.68,1.32.37,2.63.91,3.97,1,1.3.09,2.63-.3,3.94-.48-.6-1.46-.77-3.51-1.85-4.27-6.54-4.56-14.21-5.97-21.93-6.67-41.45-3.78-77.58,22.05-86.88,65.68-1.6,7.5-2.24,15.21-3.28,22.57-6.14,1.16-12.67,2.02-18.99,3.67-17.48,4.56-28.26,24.05-21.16,42.92,2.58,6.87,7.02,13.1,11.05,19.34,1.43,2.22,2.05,3.33-.35,5.04-8.84,6.31-18.91,8.76-29.48,9.72-2.56.23-2.68-1.55-1.98-3.19,1.68-3.89,3.72-7.62,5.35-11.52.5-1.21.72-3.6.11-4-1.75-1.16-3.45-.48-4.49,1.64-2.59,5.29-5.29,10.53-8.4,16.67-4.34.06-9.97-.65-14.58-4.04-4.52-3.33-4.19-8.86-3.88-13.74.21-3.25,1.96-6.39,2.75-9.64.32-1.31.48-3.5-.24-4.06-2.13-1.67-2.97.73-3.87,2.04-3.82,5.56-5.08,11.82-4.42,19.6-3.34-4.64-4.23-8.9-4.55-13.34-.83-11.76,1.71-23.01,4.92-34.22,10.52-36.63,20.92-73.29,31.32-109.95.71-2.5,1.19-5.12,1.31-7.71.05-1.03-1-2.73-1.88-2.99-.8-.24-2.61.83-3.01,1.75-2.31,5.24-4.72,10.49-6.37,15.96-6.68,22.19-13.1,44.45-19.63,66.69-.1.34-.32.65-.75,1.5ZM384.8,644.3c-4.27,1.77-5.28,4.73-4.27,8.33.87,3.12.2,5.54-1.93,7.86-1.82,1.97-2.49,4.13-.79,6.77.82,1.28.77,3.1,1.17,4.66.46,1.8.66,3.76,1.54,5.34,1.74,3.13,4.69,5.22,8.22,4.88,1.66-.16,3.12-2.44,4.66-3.76,1.98-1.1,5.06-2.11,5.52-3.83,1.52-5.64-4.44-10.55-9.99-8.67-2.99,1.02-5.93,2.19-8.84,3.27,3.77-10.58,18.93-9.86,27.25-4.65-4.6.61-5.4,1.77-4.59,6.38.66,3.79,3.46,6.01,6.53,7.08,2.56.89,5.97.88,8.4-.16,1-.43.39-4.61.5-7.08.01-.29,0-.58,0-1.38,8.94,8.11,18.2,15.34,22.59,26.71-4.12-2.51-7.85-5.43-11.75-8.09-6.84-4.66-14.25-7.69-22.75-6.76-6,.65-8.79,3.93-7.94,9.86.35,2.47,1.35,5.26,2.97,7.06,8.75,9.69,19.41,16.51,32.42,18.63,9.38,1.53,18.35-4.18,14.61-16.78-6.14-20.72-20.75-33.45-39.48-42.31-4.31-2.04-4.81-3.19-2.11-7.18.98-1.45,1.98-2.89,3.1-4.53-6.45-1.46-9.59,1.16-11.32,9.17-3.6,0-7.33.19-11.02-.13-.97-.08-2.41-1.64-2.57-2.68-.38-2.51-.12-5.12-.12-8.02ZM525.62,489.93c0-4.36-5.71-12.81-9.69-14.36-3.23-1.26-6.24.97-5.61,4.51,1.03,5.8,4.26,10.35,9.23,13.44,3.14,1.95,6.09.05,6.08-3.59ZM509.29,499.03c-2.07-3.47-3.71-6.77-5.91-9.66-.82-1.08-3.62-2.07-4.3-1.54-1.31,1.02-2.75,3.47-2.34,4.76,1.04,3.34,2.82,6.54,4.81,9.44.75,1.08,3.25,2,4.34,1.55,1.35-.57,2.07-2.64,3.41-4.55ZM535.65,513.59c0-3.28-5.2-10.41-8.29-11.36-2.79-.85-5.42,1.5-4.02,4.13,1.98,3.71,4.68,7.21,7.75,10.1,2.09,1.97,4.56.17,4.56-2.87ZM521.96,519.83c-1.17-4.02-3.4-8.41-7.32-11.63-1.95-1.6-4.27-.08-3.98,2.56.58,5.17,3.1,9.38,7.33,12.39,2.34,1.66,3.92.59,3.96-3.32ZM471.23,567.01c-.52-.42-1.58-1.99-2.82-2.14-2.94-.36-7.14,3.42-7.07,6,.08,2.61,1.81,3.72,4.2,3.7,2.73-.01,5.75-3.47,5.68-7.57Z"/>
        <path class="cls-1" d="M444.05,95.82c.89-.77,1.58-1.44,2.34-2,24.38-17.9,51.34-29.5,81.48-33.29,13.35-1.68,26.66-.77,39.94.74,26.6,3.03,50.84,12.69,73.72,26.32,19.33,11.52,36.78,25.31,51.8,42.03,17.08,19.02,30.79,40.18,38.61,64.75,2.75,8.62,4.31,17.47,2.84,26.55-2.6,16.17-14.37,26.71-30.82,27.27-16.84.58-32.3-4.22-46.32-13.41-18.06-11.84-32.96-27.02-45.39-44.59-12.53-17.71-24.23-36.04-37.27-53.36-13.18-17.52-29.67-31.38-51.08-38.05-20.52-6.39-40.42-3.14-59.89,4.77-1.15.47-2.78.94-3.75.48-5.39-2.53-10.64-5.34-16.24-8.21ZM640.89,96.75c-2.01-.94-3.97-2.02-6.06-2.75-.7-.25-2.16.1-2.46.63-.36.65-.1,1.94.36,2.65.58.89,1.65,1.47,2.48,2.2,3.32,2.94,6.59,5.92,9.95,8.81,1.78,1.52,3.7,2.87,5.56,4.3.46-.43.92-.87,1.38-1.3-1.2-1.61-2.38-3.24-3.61-4.83-2.55-3.29-5.12-6.55-7.67-9.81,4.45,4.04,8.65,8.64,16.22,7.44-3.56-5.63-8.24-8.16-13.67-9.63-2.1-.57-2.77.32-2.48,2.29ZM587.66,148.59c-14.19-21.11-30.09-40.33-55.4-49,23.72,10.46,39.31,29.99,55.4,49ZM673.72,157.75c.72,2.15,1.34,3.36,1.51,4.64.83,6.24,4.95,10.06,9.78,13.25.9.59,3.15.64,3.62.04.73-.95,1.08-2.99.54-3.99-3.35-6.16-8.99-9.84-15.45-13.94ZM678.39,180.5c-.08-3.69-5.82-12.37-8.67-13.64-2.13-.94-4,.34-4.02,2.77-.03,3.33,6.13,11.85,9.26,12.99,2.66.97,3.41-.3,3.44-2.11ZM678.39,146.69c-.35,1.22-1.3,2.92-.88,3.38,3.53,3.92,7.23,7.7,11.09,11.29.57.53,2.71.25,3.32-.4.55-.59.49-2.66-.12-3.3-3.3-3.48-6.83-6.74-10.35-10-.49-.45-1.38-.46-3.06-.96ZM631.93,105.14c-2.65-.08-4.1,1.72-2.52,3.71,2.42,3.05,5.45,5.66,8.45,8.19.6.51,2.6.19,3.28-.45.72-.68,1.04-2.28.84-3.36-.53-2.98-7.01-8-10.06-8.09Z"/>
        <path class="cls-1" d="M672.53,609.25c-.39,3.55-.82,7.09-1.18,10.64-1.95,19.58-12.36,30.89-32.22,34.34-4.32.75-8.89.15-13.34.13-1.07,0-2.14-.18-3.21-.27-.29.32-.59.64-.88.95,1.21,1.64,2.34,3.36,3.67,4.9.63.73,1.61,1.17,2.46,1.68,4.93,2.97,5.35,4.51,1.36,8.88-2.05,2.24-4.67,4.24-7.43,5.49-10.86,4.91-21.99,4.82-33.12.78-.78-.28-1.44-.9-2.29-1.45,6.38-9.96,10.6-20.69,13.64-31.89,5.39-19.89,5.65-40.07,3.72-60.48-4.07-42.85-23.62-78.54-50.35-111.02-2.84-3.46-5.99-6.66-9.52-10.56,2.9-2.72,5.65-5.73,8.83-8.19,8.17-6.33,17.2-10.71,27.85-10.1,7.78.44,12.7,5.76,17.12,11.37.64.81-.06,3.25-.86,4.46-.91,1.38-2.61,2.27-4,3.31-1.76,1.31-3.56,2.56-5.35,3.84.49.57.98,1.15,1.46,1.72,8.23-4.15,16.46-8.3,24.69-12.44-.15-.31-.3-.61-.46-.92-6.32.95-9.08-4.06-12.72-7.59-1.23-1.19-2.51-2.34-4.52-4.22,2.38.19,3.96.07,5.41.47,17.76,4.85,32.89,13.15,40.36,31.29,2.16,5.26,3.37,10.66,2.41,16.43-1.07,6.39-1.97,12.82-2.93,19.23-.19,1.29-.3,2.6-.45,3.9.41.19.82.39,1.23.58,1.78-2.98,3.67-5.91,5.3-8.98.87-1.63,1.31-3.49,1.9-5.27,1.76-5.36,3.51-6.31,9.14-4.96,12.93,3.09,27.66,16.48,28.36,34.25.72,18.27-5.84,33.36-18.82,45.92-.97.94-1.71,2.12-2.7,3.37,4.99,1.8,6.52.94,16.59-8.72,6.55,8,1.52,29.26-9.28,39.25,2.14-8.14,1.75-15.78-4.33-22.34-3.24-3.5-7.34-5.08-11.97-5.23-.99-.03-2.02,1.07-3.03,1.65.54.86.92,1.92,1.66,2.54,1.42,1.19,3.15,2.02,4.58,3.21,7.87,6.57,7.84,16.91-.46,22.94-3.64,2.65-8.08,4.19-12.14,6.28-1.03.53-1.97,1.23-2.96,1.85,1.02.76,2.11,2.23,3.05,2.14,4.25-.4,8.66-.64,12.62-2.06,5.58-2.01,9.66-6.32,13.11-11.13Z"/>
        <path class="cls-1" d="M292.51,96.24c-4.61,2.26-8.67,4.4-12.87,6.2-1.04.45-2.64.09-3.81-.37-19.2-7.49-38.82-13.04-59.69-11.83-25.8,1.5-49.16,9.63-68.11,27.75-9.06,8.66-15.42,19.4-20.93,30.76-7.59,15.65-9.91,32.57-13.31,49.26-3.29,16.12-5.74,32.45-11.95,47.81-4.24,10.49-9.72,20.28-18.32,27.91-7.72,6.85-15.46,5.44-20.17-3.73-5.15-10.03-6.23-21.02-6.34-32.02-.32-31.77,6.68-61.75,22.25-89.68,12.08-21.66,26.27-41.55,45.72-57.23,26.36-21.25,56.09-30.98,90.17-26.68,26.88,3.39,50.68,14.24,73.26,28.45,1.41.88,2.59,2.12,4.11,3.39ZM66.69,186.47c.35.57.83,2.19,1.58,2.33,1.28.23,3.27-.02,3.99-.88,1.46-1.77,2.37-4.03,3.34-6.16,2.2-4.83,1.1-10.85,5.55-14.96.8-.73.34-2.82.47-4.28-1.53.46-3.42.52-4.48,1.49-1.29,1.18-1.91,3.12-2.76,4.77-.45.87-.54,2.09-1.21,2.66-4.49,3.79-5.05,9.23-6.47,15.05ZM71.85,202.51c1.3,1.35,2.42,3.12,4.02,3.87.58.27,2.89-1.64,3.39-2.95,1.63-4.27,3.01-8.67,4-13.14.27-1.2-1.01-3.78-1.92-3.96-1.41-.28-4.06.56-4.53,1.64-1.9,4.4-3.17,9.08-4.96,14.53ZM159.18,76.53c-.16-.23-.33-.47-.49-.7-2.91.89-5.94,1.53-8.71,2.75-3.04,1.34-5.94,3.07-8.71,4.93-.74.5-.76,2.08-1.1,3.17,1.09.27,2.47,1.1,3.24.71,4.42-2.24,8.76-4.65,12.96-7.26,1.21-.75,1.89-2.37,2.81-3.6ZM157.34,87.47c-6.48.41-10.15,3.15-10.09,7.53,3.35-2.5,6.35-4.74,10.09-7.53Z"/>
        <path class="cls-1" d="M304.3,700.4c-8.28,4.15-10.75,3.94-14.98-3.69-2.76-4.98-3.85-10.89-5.56-16.43-.47-1.53-.3-3.26-.8-4.78-.29-.89-1.32-1.53-2.02-2.29-.6.8-1.66,1.57-1.72,2.41-.59,8.76.09,17.23,6.27,24.26.96,1.09,1.83,2.26,3.11,3.86-7.05-.59-12.77-2.24-15.49-8.77-2.09-5.03-3.78-10.22-5.79-15.28-.36-.9-1.4-1.52-2.13-2.27-.57.91-1.73,1.91-1.62,2.73.49,3.54,1.22,7.07,2.13,10.54.52,2,1.55,3.86,2.69,6.62-4.83-3.44-7.77-7.24-9.99-11.7-5.07-10.16-7.14-21.16-9.11-32.19-5.11-28.65-4.42-57.6-4.32-86.5.04-11.95.91-23.9,1.45-35.85.07-1.48.45-2.94.84-5.34,4.79,4.83,10.25,6.16,16.67,4.85.41,8.44,4.54,14.66,9.94,20.26.8.83,1.34,2.14,1.53,3.31,3.18,19.91,11.88,37.45,23.14,53.86,3.24,4.72,6.69,9.35,10.5,13.61,2.64,2.95,3.08,5.4,1.76,9.22-3.24,9.41-6.15,18.98-8.52,28.64-3.36,13.68-3.77,27.39,2.01,40.91Z"/>
        <path class="cls-1" d="M106.2,259.7c1.46-4.08,2.89-8.17,4.38-12.23,5.5-14.98,7.6-30.73,10.79-46.25,2.59-12.58,4.98-25.3,8.99-37.45,7.28-22.09,20.33-40.37,40.64-52.39,19.22-11.37,40.17-14.83,62.34-11.98,10.19,1.31,20.24,2.82,29.85,6.59,1,.39,1.99.79,2.99,1.66-30.53-7.41-58.24.68-83.68,16.57-25.85,16.15-42.99,39.09-47.98,69.73.49.31.98.63,1.48.94,1.79-3.16,3.96-6.16,5.31-9.49,16.41-40.69,46.52-64.43,89.35-72.2,6.69-1.21,13.66-.99,20.51-1.17,2.8-.07,5.62.54,8.61,1.28-5.75,3.85-9.36,10.1-17.1,11.6-11.99,2.32-22.54,8.59-33.07,14.55-26.57,15.05-47.98,35.66-64.56,61.2-9.57,14.74-18.4,29.95-27.72,44.86-3.15,5.04-6.78,9.77-10.19,14.64-.32-.15-.64-.3-.96-.46Z"/>
        <path class="cls-1" d="M180.61,636.56c-6.49-3.44-7.33-7.68-2.37-13.02,1.5-1.62,3.26-3.33,5.25-4.09,8.6-3.26,17.35-5.24,26.64-2.71,9.17,2.5,17.41,6.8,24.93,12.43,1.33,1,1.86,3.63,2.01,5.56,1,13.48,3.12,26.78,7.09,39.67,2.63,8.53,5.32,17.23,12.58,23.36.23.19.25.62.45,1.19-4.97,0-9.87.67-14.53-.11-22.87-3.86-41.99-14.48-56.59-32.75-2.06-2.58-3.83-5.39-5.73-8.09,2.16,1.37,4.15,3.22,6.5,4.02,3.9,1.33,6.65-1.13,5.54-5.04-.74-2.59-2.47-5.04-4.24-7.14-2.08-2.48-5.06-2.46-7.85-1.18-2.93,1.35-1.95,3.86-1.44,6.15.08.36.09.74.13,1.11-2.27-5.52-4.55-11.04-6.82-16.56.28-.11.57-.22.85-.34,1.7,1.46,3.25,3.18,5.14,4.31,1.9,1.14,4.15,1.7,6.25,2.51l.85-1.08c-1.59-2.77-3.19-5.55-4.79-8.33,5.03-.99,9.92-.73,15.07,1.37-6.23,2.98-7.21,6.95-2.37,10.68,2.64,2.04,6.43,2.85,9.83,3.52,2.46.49,4.17-1.51,3.69-3.96-.51-2.64-1.83-5.12-2.96-8.12,9.45,7.16,17.89,15.05,24.31,24.98-5.26-4.76-11.51-7.57-18.16-9.39-7.02-1.93-12.73.8-13.37,6.75-.35,3.2.45,7.22,2.25,9.83,6.33,9.18,15.45,14.88,26.23,17.35,9.53,2.18,16.08-3.55,15.07-12.61-.3-2.69-.84-5.54-2.06-7.92-9.15-17.87-22.77-31.04-41.6-38.44-4.91-1.93-6.16-4.33-4.21-9.3.26-.65.57-1.28.92-2.05-6.75.79-8.53,2.98-7.92,9.1.08.82-.79,1.75-1.28,2.6-1.1,1.91-2.23,3.81-3.35,5.71Z"/>
        <path class="cls-1" d="M484.46,119.6c16.12-.21,31.39,1.77,45.99,7.86,15.26,6.36,29.46,14.56,42.84,24.22,1.3.94,2.69,1.95,3.6,3.23,9.11,12.92,18.12,25.9,27.16,38.86-.19.26-.39.52-.58.78-2.86-1.93-5.85-3.69-8.57-5.81-18.79-14.66-38.09-28.61-59.17-39.78-9.75-5.17-20.14-9.1-30.16-13.76-2.89-1.34-5.69-3.04-8.23-4.97-4.24-3.23-8.24-6.78-12.87-10.63Z"/>
        <path class="cls-1" d="M471.35,109.45c30.31-13.37,73.94-.25,93.03,28.51-5.03-2.97-9.4-5.55-13.77-8.14-21.27-12.59-44.33-17.66-68.87-16.07-4.37.28-7.73-.87-10.39-4.3Z"/>
        <path class="cls-1" d="M235.82,551.38v66.88c-4.33-2.22-8.9-4.41-13.27-6.92-.92-.53-1.55-2.24-1.64-3.46-1.29-16.5,1.45-32.25,9.05-47.05,1.42-2.77,2.78-5.56,4.18-8.34.22-.43.53-.81.8-1.21.3.03.59.07.89.1Z"/>
        <path d="M179.01,655.93c-.04-.37-.05-.75-.13-1.11-.51-2.29-1.49-4.8,1.44-6.15,2.78-1.28,5.77-1.3,7.85,1.18,1.77,2.1,3.5,4.55,4.24,7.14,1.11,3.91-1.63,6.36-5.54,5.04-2.35-.8-4.35-2.64-6.5-4.02-.45-.69-.9-1.39-1.36-2.08ZM184.87,651.26c-.56.57-1.13,1.15-1.69,1.72.21,2.6,1.8,3.66,3.96,4.07.54-.56,1.07-1.12,1.61-1.68-1.29-1.37-2.59-2.75-3.88-4.12Z"/>
        <path class="cls-1" d="M126.64,555.14c-4.92,3.35-8.88,6.05-12.84,8.75,6.25,2.72,9.41-2.8,14.88-3.81,1.53,4.87,3.07,9.77,4.53,14.42-3.88,2.29-7.4,4.14-10.61,6.41-.98.69-1.15,2.55-1.7,3.87,1.59.26,3.45,1.18,4.7.65,2.91-1.23,5.52-3.16,8.9-5.19.68,4.68,1.38,8.66,1.73,12.67.07.79-1.01,2.04-1.87,2.48-3.32,1.69-6.8,3.07-10.15,4.7-2.11,1.02-4.27,2.61-2.71,5.1.51.82,3.61.69,5.13.06,3.16-1.32,6.07-3.27,9.4-5.14,1.52,7.79.35,14.89-1.72,23.19-4.34-3.54-8.44-6.18-11.65-9.64-11.23-12.12-21.26-25.13-27.55-40.62-1.4-3.45-2.56-7.02-3.49-10.62-1.9-7.39.82-14.48,6.77-18.36,5.08-3.31,13.67-3,18.94,1.31,3.36,2.75,6.05,6.31,9.3,9.79Z"/>
        <path class="cls-1" d="M86.03,531.12c-2.14-3.48-4.17-7.04-6.45-10.43-5.32-7.94-8.87-16.42-8.47-26.18.05-1.23.23-2.49.62-3.65,1.38-4.17,5.27-5.34,7.95-1.91,3.04,3.87,5.75,8.21,7.61,12.75,3.29,8.02,4.59,16.57,4.47,25.27-.07,4.95-1.98,7.65-6.98,8.08-7.85.68-15.35-1.1-22-5.48-1.03-.68-1.27-2.58-1.87-3.91,1.38-.59,2.94-1.92,4.1-1.63,3.94.97,7.81,2.35,11.58,3.87,2.94,1.19,5.7,2.84,8.54,4.28.3-.35.6-.7.9-1.05Z"/>
        <path class="cls-1" d="M98.89,528.61c-1.02-8.33-1.92-16.69.36-24.98.64-2.34,1.92-4.61,3.37-6.57.93-1.25,2.71-1.86,4.12-2.76.91,1.52,2.24,2.94,2.64,4.58.45,1.87.27,3.97.03,5.93-.98,8.18-4.06,15.6-8.48,22.5-.39.61-.69,1.29-1.03,1.93-.33-.21-.67-.41-1-.62Z"/>
        <path d="M442.34,278.67c0-9.87,1.83-17.18,6.53-23.5,10.77-14.47,30-15.33,42.5-2.01,12.05,12.85,11.5,34.45-.37,47.4-9.32,10.17-30.5,11.21-40.91-1.85-5.17-6.48-8.03-13.73-7.76-20.04ZM464.75,262.28c-.2,4.77,2.64,8.27,6.88,8.48,4.19.21,7.36-3.09,7.56-7.86.2-4.91-2.9-9.12-6.77-9.19-3.87-.07-7.48,3.95-7.67,8.57Z"/>
        <path d="M249.94,307.6c-15.4-.09-27.78-15.32-25.11-34.46,1.16-8.32,3.67-15.96,10.04-21.97,9.03-8.51,21.08-9.79,31.54-3.09,16.97,10.87,20.33,37.89,6.38,51.63-5.51,5.42-12.2,8-22.85,7.89ZM258.12,271.52c4.03.16,7.87-3.99,8.01-8.65.12-4.22-4.04-8.71-8.09-8.74-3.4-.02-7.03,3.69-7.15,7.31-.18,5.54,2.96,9.91,7.24,10.08Z"/>
        <path d="M360.37,312.76c-10.12,13.95-24.86,9.25-31.79-.01-1.83-2.45-2.43-6.11-2.77-9.31-.27-2.54,1.62-4.43,4.4-4.61,2.74-.18,2.78,2.06,3.42,3.96.9,2.65,1.68,5.64,3.48,7.62,3.85,4.23,9.84,3.88,13.94-.22.79-.79,1.59-1.61,2.23-2.52,5.04-7.16,4.12-6.88-1.13-11.01-2.81-2.21-5.92-4.73-5.02-8.93.98-4.58,4.9-6.38,8.89-6.8,4.36-.46,9.02-.52,13.22.54,6.68,1.68,7.82,7.73,2.82,12.53-1.7,1.64-3.49,3.24-5.47,4.52-2.1,1.35-2.3,2.85-1.59,5.06,2.18,6.71,5.88,9.58,12.23,9.22,5.93-.33,10.23-4.19,11.58-9.87.48-2.01-.75-5.74,3.56-5.12,2.92.42,5.43,4.55,4.73,7.89-1.04,4.96-3.69,8.96-8.03,11.67-9.14,5.72-18.75,4.72-26.64-2.7-.63-.6-1.28-1.18-2.08-1.91Z"/>
        <path d="M496.63,345.07c-3.2-.91-8.11-1.64-12.42-3.66-11.27-5.29-12.88-17.56-3.79-26.05,10.32-9.64,31.24-7.75,39.62,3.58,5.31,7.18,4.18,15.32-3.15,20.17-5.59,3.7-11.98,5.33-20.27,5.97ZM497.92,313.44c-5.08-.34-9.56,1.18-13.69,4.03-4.42,3.05-6.39,7.27-5.76,12.52.58,4.76,4.12,7.33,8.15,8.91,9.56,3.75,18.89,2.52,27.57-2.6,6.03-3.55,6.6-10.84,1.65-15.92-4.9-5.02-11.12-6.79-17.92-6.94Z"/>
        <path d="M229.99,308.98c9.26.54,17.12,3.15,22.5,11.02,4.82,7.05,3.5,14.96-3.69,19.49-10.53,6.64-21.68,6.63-32.83,1.69-5.64-2.5-9.18-6.94-9.16-13.38.03-7.5,3.76-12.93,10.63-15.67,3.97-1.58,8.35-2.14,12.54-3.15ZM231.72,341.96c4.86-1.52,9.87-2.57,14.43-4.64,5.62-2.55,7.38-9.03,3.96-14.22-1.71-2.59-4.22-5.23-6.99-6.41-8.55-3.66-17.36-3.92-25.92.38-4.26,2.14-6.56,5.76-6.51,10.51.05,4.76,2.37,8.58,6.77,10.31,4.44,1.75,9.21,2.67,14.25,4.07Z"/>
        <path d="M468,221.56c-6.26,0-10.49-3.45-10.57-8.63-.07-4.43,4.59-8.74,9.43-8.74,5.51,0,10.33,4.59,10.26,9.76-.07,4.74-3.51,7.61-9.12,7.61Z"/>
        <path d="M256.19,204.73c5.34,0,9.65,3.7,9.71,8.34.06,5.07-4.43,8.65-10.99,8.75-4.85.07-8.51-3.57-8.53-8.49-.02-4.87,4.24-8.6,9.82-8.61Z"/>
        <path d="M506.7,291.6c.02-3.48,2.44-6.47,5.33-6.57,3.04-.1,6.21,3.76,6.26,7.63.05,3.87-1.71,5.96-5.03,6-3.77.04-6.57-2.98-6.55-7.06Z"/>
        <path d="M217.86,292.75c-.02,3.42-2.43,5.98-5.71,6.03-3.52.06-6.23-3-6.15-6.97.07-3.38,2.92-6.17,6.21-6.07,3.28.1,5.66,3.06,5.64,7Z"/>
        <path d="M351.84,272.97c.9-1,1.51-2.36,2.41-2.59,4.63-1.21,9.35-1.73,13.87.4.79.37,1.14,1.66,1.69,2.52-.68.38-1.39,1.13-2.04,1.09-5.06-.36-10.1-.87-15.94-1.41Z"/>
        <path d="M384.8,644.3c0,2.9-.25,5.51.12,8.02.16,1.04,1.6,2.6,2.57,2.68,3.69.32,7.42.13,11.02.13,1.74-8.01,4.87-10.63,11.32-9.17-1.13,1.64-2.12,3.08-3.1,4.53-2.7,4-2.19,5.15,2.11,7.18,18.74,8.86,33.34,21.59,39.48,42.31,3.73,12.6-5.23,18.31-14.61,16.78-13.01-2.12-23.67-8.94-32.42-18.63-1.63-1.8-2.62-4.59-2.97-7.06-.85-5.93,1.94-9.2,7.94-9.86,8.5-.93,15.91,2.1,22.75,6.76,3.9,2.66,7.63,5.58,11.75,8.09-4.39-11.37-13.65-18.6-22.59-26.71,0,.79.01,1.09,0,1.38-.12,2.47.49,6.65-.5,7.08-2.42,1.04-5.84,1.05-8.4.16-3.07-1.07-5.87-3.29-6.53-7.08-.8-4.62,0-5.78,4.59-6.38-8.33-5.2-23.49-5.93-27.25,4.65,2.92-1.09,5.85-2.26,8.84-3.27,5.55-1.89,11.51,3.02,9.99,8.67-.46,1.72-3.54,2.73-5.52,3.83-1.55,1.32-3,3.61-4.66,3.76-3.54.34-6.48-1.74-8.22-4.88-.88-1.58-1.08-3.54-1.54-5.34-.4-1.56-.35-3.39-1.17-4.66-1.7-2.64-1.02-4.8.79-6.77,2.14-2.32,2.81-4.74,1.93-7.86-1.01-3.6,0-6.55,4.27-8.33ZM411.48,687.54c-1.63.8-4.37,1.39-4.53,2.39-.32,1.97.13,4.82,1.43,6.17,7.38,7.65,16.29,12.72,27.07,13.53,1.59.12,3.76-1.58,4.91-3.04,1.58-2,.47-4.26-1.44-5.48-5.74-3.68-11.51-7.37-17.53-10.57-2.88-1.53-6.34-1.97-9.9-3.01ZM385.1,671.2c-1.18,1.36-1.83,2.1-2.47,2.84,1.35,1.13,2.64,2.38,4.12,3.29.25.15,1.39-1.15,2.11-1.77-1.12-1.3-2.25-2.6-3.76-4.36ZM407.95,669c.83,2.95,2.04,4.85,4.86,4.6.38-.03,1.11-2.01.81-2.72-1.03-2.44-3.11-2.58-5.67-1.88Z"/>
        <path d="M525.62,489.93c0,3.64-2.93,5.55-6.08,3.59-4.96-3.09-8.2-7.64-9.23-13.44-.63-3.54,2.38-5.78,5.61-4.51,3.98,1.55,9.69,10,9.69,14.36Z"/>
        <path d="M509.29,499.03c-1.33,1.91-2.05,3.98-3.41,4.55-1.09.46-3.59-.46-4.34-1.55-1.99-2.9-3.77-6.1-4.81-9.44-.4-1.3,1.04-3.75,2.34-4.76.68-.53,3.48.46,4.3,1.54,2.2,2.88,3.85,6.19,5.91,9.66Z"/>
        <path d="M535.65,513.59c0,3.05-2.47,4.84-4.56,2.87-3.06-2.89-5.77-6.39-7.75-10.1-1.4-2.64,1.23-4.98,4.02-4.13,3.09.95,8.3,8.08,8.29,11.36Z"/>
        <path d="M521.96,519.83c-.04,3.91-1.61,4.98-3.96,3.32-4.23-3-6.76-7.22-7.33-12.39-.3-2.64,2.03-4.16,3.98-2.56,3.92,3.22,6.15,7.61,7.32,11.63Z"/>
        <path d="M471.23,567.01c.06,4.1-2.95,7.55-5.68,7.57-2.39.01-4.13-1.09-4.2-3.7-.07-2.58,4.13-6.36,7.07-6,1.24.15,2.3,1.72,2.82,2.14Z"/>
        <path d="M587.66,148.59c-16.09-19.01-31.68-38.54-55.4-49,25.31,8.67,41.21,27.89,55.4,49Z"/>
        <path d="M673.72,157.75c6.46,4.1,12.1,7.78,15.45,13.94.55,1,.19,3.04-.54,3.99-.46.6-2.72.55-3.62-.04-4.83-3.19-8.95-7.02-9.78-13.25-.17-1.28-.8-2.49-1.51-4.64Z"/>
        <path d="M678.39,180.5c-.03,1.81-.78,3.08-3.44,2.11-3.13-1.14-9.29-9.66-9.26-12.99.02-2.42,1.9-3.71,4.02-2.77,2.86,1.27,8.59,9.95,8.67,13.64Z"/>
        <path d="M678.39,146.69c1.67.5,2.57.51,3.06.96,3.52,3.26,7.05,6.53,10.35,10,.61.64.68,2.71.12,3.3-.61.65-2.75.93-3.32.4-3.86-3.59-7.56-7.37-11.09-11.29-.42-.46.54-2.16.88-3.38Z"/>
        <path d="M640.82,96.63c2.56,3.27,5.13,6.54,7.68,9.82,1.23,1.59,2.41,3.22,3.61,4.83-.46.43-.92.87-1.38,1.3-1.86-1.43-3.78-2.78-5.56-4.3-3.36-2.88-6.64-5.87-9.95-8.81-.83-.74-1.9-1.31-2.48-2.2-.46-.71-.71-2-.36-2.65.29-.53,1.75-.88,2.46-.63,2.08.74,4.05,1.81,6.06,2.75l-.07-.11Z"/>
        <path d="M631.93,105.14c3.05.09,9.52,5.11,10.06,8.09.19,1.08-.12,2.68-.84,3.36-.68.64-2.67.96-3.28.45-3-2.53-6.03-5.13-8.45-8.19-1.58-2-.14-3.79,2.52-3.71Z"/>
        <path d="M640.89,96.75c-.29-1.97.38-2.86,2.48-2.29,5.43,1.48,10.12,4.01,13.67,9.63-7.57,1.2-11.78-3.4-16.23-7.45,0,0,.07.11.07.11Z"/>
        <path d="M672.53,609.25c-3.44,4.81-7.53,9.13-13.11,11.13-3.95,1.42-8.37,1.66-12.62,2.06-.94.09-2.03-1.39-3.05-2.14.98-.62,1.93-1.32,2.96-1.85,4.06-2.09,8.5-3.63,12.14-6.28,8.29-6.03,8.33-16.37.46-22.94-1.42-1.19-3.16-2.01-4.58-3.21-.74-.62-1.12-1.68-1.66-2.54,1.01-.58,2.04-1.68,3.03-1.65,4.63.15,8.72,1.73,11.97,5.23,6.08,6.56,6.47,14.2,4.33,22.34,0,0,.14-.14.14-.14Z"/>
        <path d="M66.69,186.47c1.42-5.83,1.98-11.26,6.47-15.05.67-.57.76-1.79,1.21-2.66.85-1.64,1.47-3.58,2.76-4.77,1.06-.97,2.96-1.03,4.48-1.49-.12,1.46.33,3.55-.47,4.28-4.46,4.12-3.36,10.13-5.55,14.96-.97,2.13-1.88,4.4-3.34,6.16-.71.86-2.71,1.11-3.99.88-.75-.13-1.23-1.76-1.58-2.33Z"/>
        <path d="M71.85,202.51c1.79-5.46,3.06-10.13,4.96-14.53.47-1.08,3.12-1.92,4.53-1.64.92.18,2.19,2.76,1.92,3.96-.99,4.46-2.37,8.86-4,13.14-.5,1.31-2.81,3.22-3.39,2.95-1.6-.75-2.72-2.52-4.02-3.87Z"/>
        <path d="M159.18,76.53c-.92,1.22-1.6,2.84-2.81,3.6-4.2,2.61-8.55,5.02-12.96,7.26-.76.39-2.14-.44-3.24-.71.35-1.09.36-2.67,1.1-3.17,2.76-1.86,5.66-3.59,8.71-4.93,2.77-1.22,5.8-1.85,8.71-2.75.16.23.33.47.49.7Z"/>
        <path d="M157.34,87.47c-3.74,2.8-6.74,5.03-10.09,7.53-.06-4.38,3.62-7.12,10.09-7.53Z"/>
        <path d="M180.61,636.56c1.12-1.9,2.25-3.8,3.35-5.71.49-.85,1.36-1.78,1.28-2.6-.61-6.12,1.16-8.3,7.92-9.1-.35.77-.66,1.4-.92,2.05-1.95,4.97-.7,7.37,4.21,9.3,18.83,7.4,32.45,20.57,41.6,38.44,1.22,2.38,1.76,5.23,2.06,7.92,1.01,9.06-5.54,14.79-15.07,12.61-10.78-2.47-19.9-8.17-26.23-17.35-1.8-2.6-2.59-6.63-2.25-9.83.64-5.95,6.35-8.68,13.37-6.75,6.65,1.82,12.89,4.63,18.16,9.39-6.42-9.93-14.87-17.82-24.31-24.98,1.14,3,2.45,5.48,2.96,8.12.47,2.45-1.23,4.45-3.69,3.96-3.41-.67-7.2-1.49-9.83-3.52-4.84-3.73-3.86-7.71,2.37-10.68-5.15-2.1-10.04-2.36-15.07-1.37,0,0,.11.1.11.1ZM209.04,662.38c-4.52-.25-5.97,1.28-4.91,4.65.61,1.94,1.57,4.26,3.12,5.31,5.19,3.53,10.6,6.77,16.15,9.7,2.9,1.53,6.51,1.52,8.27-1.75,1.72-3.19.21-6.36-2.39-8.69-6.03-5.41-13.38-7.89-20.24-9.23ZM194.96,645.11c2.53.65,4.65,1.2,6.76,1.74-.67-1.45-1.02-3.19-2.07-4.27-1.96-2.02-3.17-.44-4.7,2.53Z"/>
        <path class="cls-1" d="M184.87,651.26c1.29,1.37,2.59,2.75,3.88,4.12-.54.56-1.07,1.12-1.61,1.68-2.16-.42-3.75-1.47-3.96-4.07.56-.57,1.13-1.15,1.69-1.72Z"/>
        <path class="cls-1" d="M464.75,262.28c.2-4.62,3.8-8.64,7.67-8.57,3.87.07,6.97,4.29,6.77,9.19-.2,4.77-3.37,8.07-7.56,7.86-4.24-.21-7.08-3.72-6.88-8.48Z"/>
        <path class="cls-1" d="M258.12,271.52c-4.28-.17-7.42-4.54-7.24-10.08.12-3.62,3.75-7.34,7.15-7.31,4.06.03,8.22,4.52,8.09,8.74-.14,4.66-3.98,8.8-8.01,8.65Z"/>
        <path class="cls-1" d="M497.92,313.44c6.79.15,13.01,1.92,17.92,6.94,4.96,5.08,4.39,12.37-1.65,15.92-8.68,5.11-18.01,6.35-27.57,2.6-4.03-1.58-7.57-4.15-8.15-8.91-.64-5.24,1.34-9.46,5.76-12.52,4.13-2.86,8.61-4.38,13.69-4.03Z"/>
        <path class="cls-1" d="M231.72,341.96c-5.04-1.4-9.81-2.32-14.25-4.07-4.4-1.73-6.72-5.55-6.77-10.31-.05-4.75,2.25-8.37,6.51-10.51,8.55-4.3,17.36-4.04,25.92-.38,2.76,1.18,5.28,3.83,6.99,6.41,3.42,5.19,1.66,11.67-3.96,14.22-4.56,2.06-9.57,3.12-14.43,4.64Z"/>
        <path class="cls-1" d="M411.48,687.54c3.56,1.04,7.02,1.47,9.9,3.01,6.02,3.2,11.79,6.88,17.53,10.57,1.91,1.22,3.02,3.49,1.44,5.48-1.15,1.46-3.32,3.16-4.91,3.04-10.78-.81-19.69-5.89-27.07-13.53-1.3-1.35-1.75-4.2-1.43-6.17.16-1,2.9-1.59,4.53-2.39Z"/>
        <path class="cls-1" d="M385.1,671.2c1.52,1.75,2.64,3.06,3.76,4.36-.73.63-1.86,1.93-2.11,1.77-1.49-.91-2.77-2.16-4.12-3.29.64-.74,1.29-1.48,2.47-2.84Z"/>
        <path class="cls-1" d="M407.95,669c2.56-.7,4.64-.56,5.67,1.88.3.71-.43,2.68-.81,2.72-2.82.25-4.02-1.65-4.86-4.6Z"/>
        <path class="cls-1" d="M209.04,662.38c6.86,1.34,14.22,3.82,20.24,9.23,2.6,2.33,4.11,5.5,2.39,8.69-1.76,3.27-5.37,3.28-8.27,1.75-5.55-2.93-10.96-6.17-16.15-9.7-1.55-1.05-2.5-3.37-3.12-5.31-1.07-3.37.38-4.9,4.91-4.65Z"/>
        <path class="cls-1" d="M194.96,645.11c1.53-2.97,2.74-4.55,4.7-2.53,1.04,1.08,1.4,2.83,2.07,4.27-2.12-.55-4.23-1.09-6.76-1.74Z"/>
      </g>
    </g>
  </g>
</svg>