<?xml version="1.0" encoding="UTF-8"?>
<svg xmlns="http://www.w3.org/2000/svg" width="800" height="800" version="1.1" viewBox="0 0 800 800">
  <defs>
    <style>
      .cls-1 {
        letter-spacing: 0em;
      }

      .cls-2 {
        fill: #eb2da4;
      }

      .cls-3 {
        letter-spacing: 0em;
      }

      .cls-4 {
        letter-spacing: -.03em;
      }

      .cls-5 {
        letter-spacing: 0em;
      }

      .cls-6 {
        fill: #dba24f;
      }

      .cls-7 {
        letter-spacing: -.02em;
      }

      .cls-8 {
        letter-spacing: 0em;
      }

      .cls-9 {
        letter-spacing: -.04em;
      }

      .cls-10 {
        letter-spacing: -.02em;
      }

      .cls-11 {
        letter-spacing: -.03em;
      }

      .cls-12 {
        letter-spacing: -.05em;
      }

      .cls-13, .cls-14 {
        fill: #3a3a3a;
      }

      .cls-15 {
        letter-spacing: 0em;
      }

      .cls-14 {
        font-family: Averta-Black, Averta;
        font-size: 15.42px;
        font-weight: 800;
      }

      .cls-16 {
        letter-spacing: -.02em;
      }

      .cls-17 {
        letter-spacing: -.01em;
      }

      .cls-18 {
        letter-spacing: -.03em;
      }

      .cls-19 {
        letter-spacing: 0em;
      }

      .cls-20 {
        letter-spacing: 0em;
      }
    </style>
  </defs>
  <!-- Generator: Adobe Illustrator 28.7.3, SVG Export Plug-In . SVG Version: 1.2.0 Build 164)  -->
  <g>
    <g id="Camada_1">
      <g>
        <g>
          <path class="cls-13" d="M488.36,675.6c-15.38,10.61-36.08,12.62-53.12,4.82-2.24-1.02-4.19,2.29-1.94,3.32,18.26,8.36,40.43,6.62,57.01-4.82,2.03-1.4.1-4.73-1.94-3.32Z"/>
          <g>
            <path class="cls-13" d="M691.99,425.39c-21.01,0-38.1-17.09-38.1-38.1s17.09-38.1,38.1-38.1,38.1,17.09,38.1,38.1-17.09,38.1-38.1,38.1ZM691.99,353.04c-18.89,0-34.25,15.36-34.25,34.25s15.36,34.25,34.25,34.25,34.25-15.36,34.25-34.25-15.36-34.25-34.25-34.25Z"/>
            <path class="cls-13" d="M245.19,640.13c-21.01,0-38.1-17.09-38.1-38.1s17.09-38.1,38.1-38.1,38.1,17.09,38.1,38.1-17.09,38.1-38.1,38.1ZM245.19,567.78c-18.89,0-34.25,15.36-34.25,34.25s15.36,34.25,34.25,34.25,34.25-15.36,34.25-34.25-15.36-34.25-34.25-34.25Z"/>
            <path class="cls-13" d="M164.75,584.71c-10.4,0-18.86-8.46-18.86-18.86s8.46-18.86,18.86-18.86,18.86,8.46,18.86,18.86-8.46,18.86-18.86,18.86ZM164.75,550.84c-8.28,0-15.01,6.73-15.01,15.01s6.73,15.01,15.01,15.01,15.01-6.73,15.01-15.01-6.73-15.01-15.01-15.01Z"/>
            <path class="cls-13" d="M583.08,340.34c-9.76,0-17.7-7.94-17.7-17.7s7.94-17.7,17.7-17.7,17.7,7.94,17.7,17.7-7.94,17.7-17.7,17.7ZM583.08,308.78c-7.64,0-13.85,6.21-13.85,13.85s6.21,13.85,13.85,13.85,13.85-6.21,13.85-13.85-6.21-13.85-13.85-13.85Z"/>
            <path class="cls-13" d="M586.54,252.98c-12.94,0-23.48-10.53-23.48-23.48s10.53-23.48,23.48-23.48,23.48,10.53,23.48,23.48-10.53,23.48-23.48,23.48ZM586.54,209.87c-10.82,0-19.63,8.8-19.63,19.63s8.8,19.63,19.63,19.63,19.63-8.8,19.63-19.63-8.8-19.63-19.63-19.63Z"/>
            <path class="cls-13" d="M514.19,341.49c-7.85,0-14.24-6.39-14.24-14.24s6.39-14.24,14.24-14.24,14.24,6.39,14.24,14.24-6.39,14.24-14.24,14.24ZM514.19,316.86c-5.73,0-10.39,4.66-10.39,10.39s4.66,10.39,10.39,10.39,10.39-4.66,10.39-10.39-4.66-10.39-10.39-10.39Z"/>
            <path class="cls-13" d="M467.42,571.21c-6.61-4.92-14.69-7.47-22.87-7.74-1.28-14.12,7.08-27.46,20.66-32.01,2.34-.78,1.33-4.5-1.02-3.71-15.1,5.05-24.97,19.89-23.48,35.76-2.99.16-5.95.62-8.84,1.38-11.94,3.16-22.07,11.06-29.24,20.97-1.45,2.01,1.88,3.93,3.32,1.94,6.58-9.09,16.01-16.31,26.94-19.2,11.12-2.94,23.31-.97,32.59,5.92,1.99,1.48,3.91-1.86,1.94-3.32Z"/>
            <path class="cls-13" d="M780.32,651.58c-4.59-9.43-15.06-15.1-25.37-14.26-.98-5.51-2.82-10.86-6.27-15.34-1.44-1.88-3.16-3.56-5.08-4.95.29-.15.55-.4.75-.76,5.97-10.81,4.47-25.06-.76-35.87-5.06-10.47-15.21-18.35-27.07-18.75-2.48-.08-2.47,3.76,0,3.85,10.55.36,19.28,7.62,23.74,16.85,4.61,9.53,6.02,22.46.76,31.99-.18.32-.25.64-.25.94-3.16-1.67-6.7-2.57-10.36-2.35-2.46.14-2.48,3.99,0,3.85,6.24-.37,12.04,3.07,15.62,8.08,3.91,5.47,5.35,12.24,5.86,18.83.19,2.45,4.04,2.47,3.85,0-.07-.86-.15-1.72-.25-2.58,8.31-.71,16.76,3.97,20.86,11.2,4.53,7.99,3.41,18.48-1.89,25.82-5.45,7.54-14.69,11.1-23.52,12.75-10.08,1.89-20.7,1.77-30.85.5-12.22-1.52-24.2-5.1-35.28-10.47-2.22-1.08-4.17,2.24-1.94,3.32,21.02,10.19,45.96,14.69,69.09,10.35,9.89-1.85,19.8-6.11,25.82-14.52,5.82-8.13,6.93-19.46,2.54-28.47Z"/>
            <path class="cls-13" d="M710.1,368.74c-2.04-4.34-7.12-5.11-11.4-4.81-.51.04-.91.23-1.2.51-.16.03-.31.08-.47.15-4.34,1.93-3.73,7.49-1.25,10.66,2.45,3.12,6.92,4.83,10.64,2.95,3.37-1.7,5.36-5.89,3.69-9.45ZM705.37,374.33c-4.14,3.31-10.58-4.56-6.42-6.41.11-.05.21-.11.3-.17,2.21-.13,4.65-.11,6.4,1.41,1.73,1.5,1.43,3.79-.29,5.17Z"/>
            <path class="cls-13" d="M593.63,318.24c-.39-3.91-4.13-4.91-7.46-4.9-.53-.46-1.28-.6-2.05-.07-2.49,1.72-3.52,4.9-2.45,7.76,1.1,2.93,4.17,4.28,7.14,3.61,2.93-.66,5.12-3.36,4.82-6.4ZM587.79,320.93c-2.22.41-3.48-2.22-2.28-3.8.16.04.33.06.51.06,1.18-.01,3.44-.21,3.78,1.31.28,1.26-.89,2.22-2.01,2.43Z"/>
            <path class="cls-13" d="M519.26,323.2c-.22-1.6-1.64-3-3.31-2.91-.15,0-.3.03-.44.07-.66-.2-1.4-.09-1.92.45-1.09,1.14-1.37,2.88-.62,4.28.73,1.37,2.41,2.04,3.89,1.61,1.55-.45,2.62-1.87,2.4-3.51Z"/>
            <path class="cls-13" d="M237.1,485.81c-7.85,0-14.24-6.39-14.24-14.24s6.39-14.24,14.24-14.24,14.24,6.39,14.24,14.24-6.39,14.24-14.24,14.24ZM237.1,461.18c-5.73,0-10.39,4.66-10.39,10.39s4.66,10.39,10.39,10.39,10.39-4.66,10.39-10.39-4.66-10.39-10.39-10.39Z"/>
            <path class="cls-13" d="M242.17,467.51c-.22-1.6-1.64-3-3.31-2.91-.15,0-.3.03-.44.07-.66-.2-1.4-.09-1.92.45-1.09,1.14-1.37,2.88-.62,4.28.73,1.37,2.41,2.04,3.89,1.61,1.55-.45,2.62-1.87,2.4-3.51Z"/>
            <path class="cls-13" d="M588.85,214.5c-.25-.03-.51-.02-.8.06-3.62,1.02-4.38,5.27-2.41,8.14,1.82,2.65,5.57,4.32,8.59,2.64,5.97-3.33.78-13.97-5.37-10.84ZM592.53,221.86c-2.07,1.77-5.64-2.97-3.46-3.58.11-.03.2-.07.3-.11.38.06.79,0,1.21-.24,1.72-.96,3.28,2.8,1.95,3.93Z"/>
            <path class="cls-13" d="M732.95,583.38c-.84-4.96-5.82-7.24-10.29-7.89-.3-.04-.57-.02-.83.04-.36-.16-.79-.2-1.28-.05-4.02,1.25-5.89,5.8-4.4,9.66,1.46,3.78,5.89,7.2,10.07,6.83,4.11-.37,7.43-4.48,6.73-8.58ZM726.24,588.09c-2.2.44-4.8-1.5-5.95-3.24-1.21-1.83-1.17-4.89,1.29-5.65,0,0,0,0,0,0,.02,0,.04,0,.06.01,2.57.37,5.51,1.02,6.97,3.4,1.29,2.1.12,4.98-2.37,5.48Z"/>
            <path class="cls-13" d="M736.49,625.78c-.15-.05-.3-.08-.44-.09-.3-.46-.81-.77-1.54-.75-4.23.15-5.95,4.36-5.01,8.07.92,3.6,3.8,6.86,7.71,6.97,3.67.1,6.34-2.91,6.25-6.48-.1-3.99-3.44-6.63-6.97-7.72ZM737.76,636.1c-3.73.62-6.41-7.13-3.29-7.3.22.3.55.55,1,.69,1.59.49,3.33,1.4,3.94,3.06.54,1.46.06,3.26-1.64,3.55Z"/>
            <path class="cls-13" d="M451.81,574.22c-.69-.2-1.26-.03-1.67.33-.09,0-.18,0-.28,0-4.49.41-9.6,1.16-12.26,5.28-2.32,3.59-1.4,8.49,1.28,11.61,6.02,7.03,21.3,4.3,21.96-5.83.37-5.59-3.95-9.94-9.04-11.39ZM456.78,586.72c-1.22,4.08-6.96,5.34-10.65,4.59-3.55-.72-6.63-3.91-5.92-7.74.79-4.27,6.15-4.84,9.65-5.16.44-.04.8-.2,1.08-.43,3.72,1.13,7.09,4.57,5.84,8.74Z"/>
            <path class="cls-13" d="M462.19,537.32c-3.07-.46-6.26,1.56-6.92,4.65-.11.5-.03.94.16,1.3-.83,3.5,2.59,6.13,5.84,5.98,3.14-.14,5.66-2.56,5.75-5.73.08-2.92-1.84-5.76-4.83-6.21ZM461.8,545.29c-.59.19-2.92.08-2.66-1,.12-.52.05-.97-.15-1.34.52-2.27,3.84-2.56,4.17,0,.13,1.05-.32,1.99-1.36,2.33Z"/>
            <path class="cls-13" d="M240.79,585.6c-.77-4.4-4.96-7.12-9.17-7.44-.8-.06-1.34.3-1.62.83-3.55.79-5.76,4.67-4.96,8.31.91,4.11,5.32,8.1,9.72,7.23,3.97-.78,6.71-4.99,6.02-8.94ZM234.69,590.55c-4.91,2.11-8.62-8.07-3.09-7.86.57.02,1-.16,1.31-.46,1.72.48,3.3,1.65,3.92,3.35.68,1.87-.29,4.18-2.14,4.97Z"/>
            <path class="cls-13" d="M168.43,557.56c-1.22-1.79-3.29-2.54-5.2-2.1-.38-.23-.86-.31-1.41-.18-3.18.8-4.66,4.51-2.98,7.31,1.61,2.68,5.04,3.46,7.72,1.93,2.45-1.4,3.52-4.54,1.87-6.96ZM164.62,561.19c-1.47.86-3.04-.79-2.52-1.72.59.18,1.26.12,1.86-.35.26-.21,1.05.24,1.25.51.45.62-.01,1.22-.59,1.56Z"/>
          </g>
          <g>
            <path class="cls-13" d="M531.08,528.9c-.56-6.34-5.19-11.56-11.59-12.41-6.11-.81-11.67,3.19-13.29,8.84-1.65,3.95-1.38,8.46.96,12.16,1.18,1.85,2.84,3.6,4.82,4.6.25.13.49.23.74.33,2.5,1.48,5.67,1.86,8.47,1.15,6.36-1.61,10.46-8.29,9.9-14.67Z"/>
            <path class="cls-13" d="M656.93,528.9c-.56-6.34-5.19-11.56-11.59-12.41-6.11-.81-11.67,3.19-13.29,8.84-1.65,3.95-1.38,8.46.96,12.16,1.18,1.85,2.84,3.6,4.82,4.6.25.13.49.23.74.33,2.5,1.48,5.67,1.86,8.47,1.15,6.36-1.61,10.46-8.29,9.9-14.67Z"/>
            <circle class="cls-2" cx="518.04" cy="565.85" r="12.31" transform="translate(-248.39 532.04) rotate(-45)"/>
            <circle class="cls-2" cx="643.88" cy="562.39" r="12.31"/>
            <path class="cls-13" d="M612.58,539.85c-.56,1.06-3.49-1.38-3.94-1.85-1.32-1.36-2.07-3.02-2.4-4.86-.44-2.43-4.15-1.4-3.71,1.02.39,2.16,1.35,4.16,2.74,5.82-.16.15-.31.35-.43.6-4.26,9.3-13.15,16.17-23.69,15.72-10.78-.46-17.77-9.02-22.41-17.87,1.71-1.4,3.04-3.29,3.75-5.51.76-2.36-2.96-3.38-3.71-1.02-1.01,3.15-3.96,5.27-7.24,5.31-2.47.03-2.48,3.88,0,3.85,1.35-.02,2.65-.27,3.86-.71,5.32,10.15,13.54,19.3,25.75,19.81,11.79.49,22.22-7.15,27.02-17.62,2.39,1.5,6.16,2.24,7.74-.74,1.16-2.19-2.16-4.13-3.32-1.94Z"/>
            <g>
              <path class="cls-13" d="M656.43,476.04c-2.48,0-2.48,3.85,0,3.85s2.48-3.85,0-3.85Z"/>
              <path class="cls-13" d="M663.38,477.59c-2.48,0-2.48,3.85,0,3.85s2.48-3.85,0-3.85Z"/>
              <path class="cls-13" d="M529.35,625.14c-2.48,0-2.48,3.85,0,3.85s2.48-3.85,0-3.85Z"/>
              <path class="cls-13" d="M535.92,628.62c-2.48,0-2.48,3.85,0,3.85s2.48-3.85,0-3.85Z"/>
              <path class="cls-13" d="M663.98,629.03c-.08-.24-.21-.44-.4-.62-.17-.19-.38-.32-.62-.4-.23-.12-.48-.18-.74-.17-.17.02-.34.05-.51.07-.33.09-.61.26-.85.49-.1.13-.2.26-.3.39-.17.3-.26.62-.26.97v.39c0,.26.05.51.17.74.08.24.21.45.4.62.17.19.38.32.62.4.23.12.48.18.74.17.17-.02.34-.05.51-.07.33-.09.61-.26.85-.49.1-.13.2-.26.3-.39.17-.3.26-.62.26-.97v-.39c.01-.26-.05-.51-.17-.74Z"/>
              <path class="cls-13" d="M502.13,490.51c-.33-.33-.88-.58-1.36-.56-.5.02-1.01.19-1.36.56-.35.38-.56.84-.56,1.36v.77c0,.49.21,1.01.56,1.36.33.33.88.59,1.36.56.5-.02,1.01-.19,1.36-.56.35-.38.56-.84.56-1.36v-.77c0-.49-.21-1.01-.56-1.36Z"/>
            </g>
          </g>
          <g>
            <path class="cls-2" d="M471.73,267.29c-4.3-3.87-10.46-1.58-13.48,2.68-1.82,2.57-2.93,5.72-3.58,8.97-.94,2.55-1.54,5.22-1.79,7.96-.46.68-.55,1.63.14,2.42,1.97,2.25,3.95,4.51,5.92,6.76.7.8,2,.67,2.72,0,4.18-3.85,8.52-7.91,11.06-13.09,2.39-4.87,3.53-11.63-.99-15.69Z"/>
            <path class="cls-13" d="M203.9,236.88c-3-5.91-6.59-11.44-10.68-16.65-1.53-1.95-4.24.79-2.72,2.72,3.88,4.94,7.24,10.27,10.08,15.87,1.12,2.21,4.44.26,3.32-1.94Z"/>
            <path class="cls-13" d="M460.8,292.3c-1.49-1.62-2.97-3.23-4.46-4.85-.16-.18-.34-.31-.52-.41-.41-.44-1.03-.67-1.8-.41-28.79,9.6-57.58,19.2-86.37,28.8-8.14,2.71-16.28,5.43-24.42,8.14-2.34.78-1.34,4.5,1.02,3.71,28.79-9.6,57.58-19.2,86.37-28.8,7.82-2.61,15.63-5.21,23.45-7.82,1.34,1.45,2.67,2.9,4.01,4.36,1.68,1.83,4.4-.9,2.72-2.72Z"/>
            <path class="cls-13" d="M352.47,480.71c-4.74-4.39-9.72-8.63-15.01-12.36-5.34-3.76-11.04-5.7-17.35-7.16-2.41-.56-3.44,3.15-1.02,3.71,4.68,1.08,9.21,2.27,13.37,4.76,4.08,2.45,7.8,5.52,11.43,8.58,3.63,3.06,7.13,6.28,10.48,9.63,1.53,1.53,3.56,3.3,3.74,5.61.1,1.35-1.6,3.77-2.56,1.76-.58-1.21-1.82-1.19-2.67-.56-.25-.15-.52-.28-.8-.4-2.3-.91-3.3,2.81-1.02,3.71.71.28.92,1.33.79,2-.24,1.2-1.39,1.63-2.52,1.54-2.51-.21-3.39-3.15-6.1-3.13-2.48.02-2.48,3.86,0,3.85.14,0,.32.09.51.22-.04.62.22,1.25.93,1.66,1.71.98-.6,2.95-1.68,3.16-2.29.45-4.98-.72-7.08-1.5-4.63-1.73-8.96-4.21-13.12-6.86-8.98-5.74-17.61-12.09-26.36-18.18-2.04-1.42-3.96,1.92-1.94,3.32,5.84,4.06,11.67,8.13,17.51,12.19,5.16,3.59,10.33,7.22,15.92,10.13,2.66,1.38,5.41,2.6,8.24,3.58,2.66.91,5.64,1.73,8.43.89,2.43-.73,4.17-3.12,4.38-5.5,1.92.17,3.9-.4,5.25-1.84,1.03-1.1,1.5-2.47,1.49-3.82.63.1,1.29.09,1.93-.04,2.38-.5,3.9-2.53,4.23-4.86.84-5.92-5.6-10.57-9.4-14.1Z"/>
            <path class="cls-13" d="M434.22,452.82c-3.05-8.36-10.21-14.7-19.09-16.14-4.16-.68-9.11-.57-12.89,1.53-3.03,1.68-4.88,5.12-3.9,8.39-.77.44-1.46,1-2.03,1.69-2.19,2.66-2.25,6.65-.25,9.42-.29.47-.53.98-.71,1.52-.96,2.88.04,5.82,1.94,8.06,4.53,5.34,12.51,6.49,19.02,7.48,2.42.37,3.47-3.34,1.02-3.71-4.82-.73-9.89-1.44-14.18-3.93-1.77-1.02-3.7-2.54-4.22-4.63-.42-1.65.42-4.01,2.38-4.09,2.47-.1,2.48-3.95,0-3.85-.84.03-1.62.22-2.33.54-1.67-3.32,1.43-6.83,5.17-5.3,2.29.94,3.29-2.78,1.02-3.71-1-.41-2.07-.58-3.14-.54-1.19-2.99,3.23-4.68,5.48-5.09,3.22-.59,6.59-.32,9.71.64,6.16,1.88,11.09,6.71,13.29,12.74.84,2.31,4.56,1.31,3.71-1.02Z"/>
            <path class="cls-13" d="M372.15,589.49c-1.08,1.01-2.84,1.31-4.22,1.69-1.37.38-2.76.72-4.15,1.02-3.08.67-6.2,1.14-9.35,1.4-6.23.51-12.5.27-18.66-.77-2.42-.41-3.46,3.3-1.02,3.71,6.98,1.17,14.06,1.49,21.1.77,3.48-.35,6.94-.92,10.34-1.72,2.94-.7,6.41-1.27,8.68-3.39,1.81-1.69-.91-4.41-2.72-2.72Z"/>
            <path class="cls-13" d="M310.4,682.07c-.91-2.27-4.63-1.28-3.71,1.02,1.31,3.26,1.92,6.57,1.83,10.09-.06,2.48,3.79,2.48,3.85,0,.1-3.82-.55-7.57-1.97-11.11Z"/>
            <path class="cls-13" d="M322.56,689.99c-.63-2.95-1.27-5.89-1.9-8.84-.52-2.42-4.23-1.4-3.71,1.02.63,2.95,1.27,5.89,1.9,8.84.52,2.42,4.23,1.4,3.71-1.02Z"/>
            <path class="cls-13" d="M412.7,686.01c-1.59-3.45-3.97-6.46-6.95-8.8-1.93-1.51-4.67,1.2-2.72,2.72,2.77,2.17,4.88,4.83,6.35,8.02,1.04,2.25,4.35.29,3.32-1.94Z"/>
            <path class="cls-13" d="M420.75,683.02c-.42-4.64-3.93-7.5-7.55-9.95-2.06-1.39-3.98,1.94-1.94,3.32,2.29,1.55,5.37,3.59,5.64,6.62.22,2.45,4.07,2.47,3.85,0Z"/>
            <path class="cls-13" d="M295.95,317.23c-.56-6.34-5.19-11.56-11.59-12.41-6.11-.81-11.67,3.19-13.29,8.84-1.65,3.95-1.38,8.46.96,12.16,1.18,1.85,2.84,3.6,4.82,4.6.25.13.49.23.74.33,2.5,1.48,5.67,1.86,8.47,1.15,6.36-1.61,10.46-8.29,9.9-14.67Z"/>
            <path class="cls-13" d="M409.86,280.29c-.56-6.34-5.19-11.56-11.59-12.41-6.11-.81-11.67,3.19-13.29,8.84-1.65,3.95-1.38,8.46.96,12.16,1.18,1.85,2.84,3.6,4.82,4.6.25.13.49.23.74.33,2.5,1.48,5.67,1.86,8.47,1.15,6.36-1.62,10.46-8.29,9.9-14.67Z"/>
            <path class="cls-13" d="M425.95,382.14c-5.92,6.63-16.63,7.21-24.61,4.61-8.03-2.62-14.45-9.1-17.27-17.02-.02-.04-.03-.08-.05-.12,1.99-2.36,3.28-5.3,4.05-8.3.61-2.4-3.1-3.43-3.71-1.02-1.39,5.45-6.38,12.7-12.99,9.63-2.23-1.03-4.19,2.28-1.94,3.32,3.77,1.75,8.08,1.35,11.55-.92,3.53,8.5,10.52,15.26,19.35,18.14,9.21,3,21.55,2.01,28.35-5.6,1.65-1.84-1.07-4.57-2.72-2.72Z"/>
            <path class="cls-13" d="M200.73,258.83c-10.71-17.24-24.6-33.79-44.46-40.46-17.22-5.78-35.62-1.3-49.27,10.4-13.67,11.72-20.43,29.39-18.53,47.25,1.9,17.92,11.39,34.47,25.9,45.14,16.99,12.5,39.38,16.42,59.88,12.33,2.43-.48,1.4-4.19-1.02-3.71-17.19,3.42-35.68.81-50.91-8.01-14.88-8.63-25.48-23.2-29.07-40.03-3.5-16.42.52-33.62,12.05-46,11.07-11.89,27.64-18.59,43.83-15.31,21.84,4.43,37.07,22.29,48.28,40.34,1.3,2.1,4.63.17,3.32-1.94Z"/>
            <path class="cls-13" d="M178.22,299.13l-16.52-5.19c-2.37-.74-3.38,2.97-1.02,3.71l16.52,5.19c2.37.74,3.38-2.97,1.02-3.71Z"/>
            <path class="cls-13" d="M182.75,290.6c-4.82-2.9-9.88-5.34-15.13-7.37-2.31-.89-3.31,2.83-1.02,3.71,4.94,1.9,9.68,4.25,14.21,6.98,2.13,1.28,4.06-2.05,1.94-3.32Z"/>
            <path class="cls-13" d="M418.42,143.27c-6.56-12.01-18.11-20.55-31.87-21.92-14.14-1.41-28.72,4.62-38.49,14.76-11.89,12.34-17.15,29.75-17.03,46.62.02,2.48,3.87,2.48,3.85,0-.1-13.94,3.58-28.16,12.05-39.41,8.05-10.68,20.74-17.82,34.2-18.3,12.97-.46,24.71,5.96,31.87,16.7,7.03,10.56,9.32,23.64,6.55,35.99-3.37,15.03-13.09,28.13-25.22,37.35-1.95,1.48-.03,4.82,1.94,3.32,11.64-8.85,21.16-20.76,25.67-34.8,4.3-13.37,3.24-27.94-3.52-40.32Z"/>
            <path class="cls-13" d="M361.8,174.53c-1.95,5.3-3.9,10.61-5.86,15.91-.86,2.33,2.86,3.33,3.71,1.02,1.95-5.3,3.9-10.61,5.86-15.91.86-2.33-2.86-3.33-3.71-1.02Z"/>
            <path class="cls-13" d="M369.92,182.45c-2.5,4.24-4.58,8.68-6.29,13.29-.86,2.32,2.86,3.33,3.71,1.02,1.6-4.3,3.58-8.42,5.91-12.37,1.26-2.14-2.07-4.08-3.32-1.94Z"/>
            <path class="cls-13" d="M408.9,233.03c-16.3-21.78-39.07-38.31-64.78-47.2-7.31-2.53-14.84-4.4-22.48-5.61-2.42-.38-3.47,3.32-1.02,3.71,26.13,4.14,50.75,16.26,70.03,34.37,5.44,5.12,10.46,10.69,14.93,16.67,1.47,1.96,4.81.04,3.32-1.94Z"/>
            <circle class="cls-2" cx="295.98" cy="362.27" r="22.71" transform="translate(-124.6 567.11) rotate(-76.72)"/>
            <path class="cls-13" d="M531.67,461.61c-5.72-14.62-11.44-29.24-17.15-43.87-.89-2.28-4.61-1.29-3.71,1.02,5.72,14.62,11.44,29.24,17.15,43.87.89,2.28,4.61,1.29,3.71-1.02Z"/>
            <path class="cls-13" d="M547.45,456.22c-5.72-14.62-11.44-29.24-17.15-43.87-.89-2.28-4.61-1.29-3.71,1.02,5.72,14.62,11.44,29.24,17.15,43.87.89,2.28,4.61,1.29,3.71-1.02Z"/>
            <path class="cls-13" d="M563.61,450.83c-5.72-14.62-11.44-29.24-17.15-43.87-.89-2.28-4.61-1.29-3.71,1.02,5.72,14.62,11.44,29.24,17.15,43.87.89,2.28,4.61,1.29,3.71-1.02Z"/>
            <path class="cls-13" d="M578.23,445.06c-5.72-14.62-11.44-29.24-17.15-43.87-.89-2.28-4.61-1.29-3.71,1.02,5.72,14.62,11.44,29.24,17.15,43.87.89,2.28,4.61,1.29,3.71-1.02Z"/>
            <path class="cls-13" d="M591.7,439.29c-5.72-14.62-11.44-29.24-17.15-43.87-.89-2.28-4.61-1.29-3.71,1.02,5.72,14.62,11.44,29.24,17.15,43.87.89,2.28,4.61,1.29,3.71-1.02Z"/>
            <path class="cls-13" d="M607.48,432.36c-5.72-14.62-11.44-29.24-17.15-43.87-.89-2.28-4.61-1.29-3.71,1.02,5.72,14.62,11.44,29.24,17.15,43.87.89,2.28,4.61,1.29,3.71-1.02Z"/>
            <path class="cls-6" d="M320.18,503.16c-26.41,10.87-52.82,21.75-79.23,32.62-7.46,3.07-14.92,6.14-22.38,9.22-2.26.93-1.27,4.65,1.02,3.71,26.41-10.87,52.82-21.75,79.23-32.62,7.46-3.07,14.92-6.14,22.38-9.22,2.26-.93,1.27-4.65-1.02-3.71Z"/>
            <path class="cls-6" d="M396.06,470.55c-11.66,4.56-23.27,9.25-34.83,14.08-2.25.94-1.26,4.67,1.02,3.71"/>
          </g>
        </g>
        <g>
          <circle class="cls-13" cx="303.26" cy="570.76" r="3.16"/>
          <path class="cls-13" d="M305.52,593.3c0,1.74-1.41,3.16-3.16,3.16s-3.16-1.41-3.16-3.16,1.41-3.16,3.16-3.16,3.16,1.41,3.16,3.16Z"/>
          <path class="cls-13" d="M301.01,613.13c0,1.74-1.41,3.16-3.16,3.16s-3.16-1.41-3.16-3.16,1.41-3.16,3.16-3.16,3.16,1.41,3.16,3.16Z"/>
          <path class="cls-13" d="M299.2,636.12c0,1.74-1.41,3.16-3.16,3.16s-3.16-1.41-3.16-3.16,1.41-3.16,3.16-3.16,3.16,1.41,3.16,3.16Z"/>
          <path class="cls-13" d="M296.95,660.01c0,1.74-1.41,3.16-3.16,3.16s-3.16-1.41-3.16-3.16,1.41-3.16,3.16-3.16,3.16,1.41,3.16,3.16Z"/>
          <path class="cls-13" d="M301.01,683.9c0,1.74-1.41,3.16-3.16,3.16s-3.16-1.41-3.16-3.16,1.41-3.16,3.16-3.16,3.16,1.41,3.16,3.16Z"/>
          <circle class="cls-13" cx="312.73" cy="695.17" r="3.16"/>
          <path class="cls-13" d="M328.95,685.25c0,1.74-1.41,3.16-3.16,3.16s-3.16-1.41-3.16-3.16,1.41-3.16,3.16-3.16,3.16,1.41,3.16,3.16Z"/>
          <path class="cls-13" d="M333.46,668.57c0,1.74-1.41,3.16-3.16,3.16s-3.16-1.41-3.16-3.16,1.41-3.16,3.16-3.16,3.16,1.41,3.16,3.16Z"/>
          <path class="cls-13" d="M336.62,649.64c0,1.74-1.41,3.16-3.16,3.16s-3.16-1.41-3.16-3.16,1.41-3.16,3.16-3.16,3.16,1.41,3.16,3.16Z"/>
          <path class="cls-13" d="M344.28,622.6c0,1.74-1.41,3.16-3.16,3.16s-3.16-1.41-3.16-3.16,1.41-3.16,3.16-3.16,3.16,1.41,3.16,3.16Z"/>
          <path class="cls-13" d="M347.43,600.96c0,1.74-1.41,3.16-3.16,3.16s-3.16-1.41-3.16-3.16,1.41-3.16,3.16-3.16,3.16,1.41,3.16,3.16Z"/>
          <path class="cls-13" d="M360.51,597.81c0,1.74-1.41,3.16-3.16,3.16s-3.16-1.41-3.16-3.16,1.41-3.16,3.16-3.16,3.16,1.41,3.16,3.16Z"/>
          <path class="cls-13" d="M363.21,621.24c0,1.74-1.41,3.16-3.16,3.16s-3.16-1.41-3.16-3.16,1.41-3.16,3.16-3.16,3.16,1.41,3.16,3.16Z"/>
          <path class="cls-13" d="M365.01,646.49c0,1.74-1.41,3.16-3.16,3.16s-3.16-1.41-3.16-3.16,1.41-3.16,3.16-3.16,3.16,1.41,3.16,3.16Z"/>
          <path class="cls-13" d="M368.17,669.47c0,1.74-1.41,3.16-3.16,3.16s-3.16-1.41-3.16-3.16,1.41-3.16,3.16-3.16,3.16,1.41,3.16,3.16Z"/>
          <path class="cls-13" d="M383.04,682.1c0,1.74-1.41,3.16-3.16,3.16s-3.16-1.41-3.16-3.16,1.41-3.16,3.16-3.16,3.16,1.41,3.16,3.16Z"/>
          <path class="cls-13" d="M404.23,690.21c0,1.74-1.41,3.16-3.16,3.16s-3.16-1.41-3.16-3.16,1.41-3.16,3.16-3.16,3.16,1.41,3.16,3.16Z"/>
          <path class="cls-13" d="M421.81,684.8c0,1.74-1.41,3.16-3.16,3.16s-3.16-1.41-3.16-3.16,1.41-3.16,3.16-3.16,3.16,1.41,3.16,3.16Z"/>
          <path class="cls-13" d="M421.81,667.67c0,1.74-1.41,3.16-3.16,3.16s-3.16-1.41-3.16-3.16,1.41-3.16,3.16-3.16,3.16,1.41,3.16,3.16Z"/>
          <path class="cls-13" d="M407.38,656.85c0,1.74-1.41,3.16-3.16,3.16s-3.16-1.41-3.16-3.16,1.41-3.16,3.16-3.16,3.16,1.41,3.16,3.16Z"/>
          <path class="cls-13" d="M404.23,632.96c0,1.74-1.41,3.16-3.16,3.16s-3.16-1.41-3.16-3.16,1.41-3.16,3.16-3.16,3.16,1.41,3.16,3.16Z"/>
          <circle class="cls-13" cx="399.27" cy="609.98" r="3.16"/>
          <path class="cls-13" d="M401.52,584.73c0,1.74-1.41,3.16-3.16,3.16s-3.16-1.41-3.16-3.16,1.41-3.16,3.16-3.16,3.16,1.41,3.16,3.16Z"/>
          <path class="cls-13" d="M397.92,556.79c0,1.74-1.41,3.16-3.16,3.16s-3.16-1.41-3.16-3.16,1.41-3.16,3.16-3.16,3.16,1.41,3.16,3.16Z"/>
          <path class="cls-13" d="M396.11,536.96c0,1.74-1.41,3.16-3.16,3.16s-3.16-1.41-3.16-3.16,1.41-3.16,3.16-3.16,3.16,1.41,3.16,3.16Z"/>
          <path class="cls-13" d="M392.96,509.46c0,1.74-1.41,3.16-3.16,3.16s-3.16-1.41-3.16-3.16,1.41-3.16,3.16-3.16,3.16,1.41,3.16,3.16Z"/>
          <path class="cls-13" d="M410.54,497.74c0,1.74-1.41,3.16-3.16,3.16s-3.16-1.41-3.16-3.16,1.41-3.16,3.16-3.16,3.16,1.41,3.16,3.16Z"/>
          <path class="cls-13" d="M424.96,486.92c0,1.74-1.41,3.16-3.16,3.16s-3.16-1.41-3.16-3.16,1.41-3.16,3.16-3.16,3.16,1.41,3.16,3.16Z"/>
          <path class="cls-13" d="M432.17,473.85c0,1.74-1.41,3.16-3.16,3.16s-3.16-1.41-3.16-3.16,1.41-3.16,3.16-3.16,3.16,1.41,3.16,3.16Z"/>
          <circle class="cls-13" cx="432.17" cy="457.17" r="3.16"/>
          <circle class="cls-13" cx="299.2" cy="533.35" r="3.16"/>
          <path class="cls-13" d="M279.37,485.12c0,1.74-1.41,3.16-3.16,3.16s-3.16-1.41-3.16-3.16,1.41-3.16,3.16-3.16,3.16,1.41,3.16,3.16Z"/>
          <path class="cls-13" d="M289.74,468.44c0,1.74-1.41,3.16-3.16,3.16s-3.16-1.41-3.16-3.16,1.41-3.16,3.16-3.16,3.16,1.41,3.16,3.16Z"/>
          <path class="cls-13" d="M304.16,460.78c0,1.74-1.41,3.16-3.16,3.16s-3.16-1.41-3.16-3.16,1.41-3.16,3.16-3.16,3.16,1.41,3.16,3.16Z"/>
          <circle class="cls-13" cx="318.14" cy="456.27" r="3.16"/>
          <circle class="cls-13" cx="318.14" cy="447.26" r="3.16"/>
          <path class="cls-13" d="M299.2,447.26c0,1.74-1.41,3.16-3.16,3.16s-3.16-1.41-3.16-3.16,1.41-3.16,3.16-3.16,3.16,1.41,3.16,3.16Z"/>
          <path class="cls-13" d="M279.37,446.36c0,1.74-1.41,3.16-3.16,3.16s-3.16-1.41-3.16-3.16,1.41-3.16,3.16-3.16,3.16,1.41,3.16,3.16Z"/>
          <path class="cls-13" d="M259.09,440.95c0,1.74-1.41,3.16-3.16,3.16s-3.16-1.41-3.16-3.16,1.41-3.16,3.16-3.16,3.16,1.41,3.16,3.16Z"/>
          <path class="cls-13" d="M240.16,434.64c0,1.74-1.41,3.16-3.16,3.16s-3.16-1.41-3.16-3.16,1.41-3.16,3.16-3.16,3.16,1.41,3.16,3.16Z"/>
          <circle class="cls-13" cx="217.17" cy="424.27" r="3.16"/>
          <path class="cls-13" d="M200.94,408.04c0,1.74-1.41,3.16-3.16,3.16s-3.16-1.41-3.16-3.16,1.41-3.16,3.16-3.16,3.16,1.41,3.16,3.16Z"/>
          <circle class="cls-13" cx="183.81" cy="389.56" r="3.16"/>
          <path class="cls-13" d="M177.5,372.44c0,1.74-1.41,3.16-3.16,3.16s-3.16-1.41-3.16-3.16,1.41-3.16,3.16-3.16,3.16,1.41,3.16,3.16Z"/>
          <path class="cls-13" d="M172.55,355.76c0,1.74-1.41,3.16-3.16,3.16s-3.16-1.41-3.16-3.16,1.41-3.16,3.16-3.16,3.16,1.41,3.16,3.16Z"/>
          <path class="cls-13" d="M136.94,360.72c0,1.74-1.41,3.16-3.16,3.16s-3.16-1.41-3.16-3.16,1.41-3.16,3.16-3.16,3.16,1.41,3.16,3.16Z"/>
          <path class="cls-13" d="M107.64,355.76c0,1.74-1.41,3.16-3.16,3.16s-3.16-1.41-3.16-3.16,1.41-3.16,3.16-3.16,3.16,1.41,3.16,3.16Z"/>
          <path class="cls-13" d="M81.05,342.69c0,1.74-1.41,3.16-3.16,3.16s-3.16-1.41-3.16-3.16,1.41-3.16,3.16-3.16,3.16,1.41,3.16,3.16Z"/>
          <path class="cls-13" d="M61.21,324.21c0,1.74-1.41,3.16-3.16,3.16s-3.16-1.41-3.16-3.16,1.41-3.16,3.16-3.16,3.16,1.41,3.16,3.16Z"/>
          <path class="cls-13" d="M47.69,298.51c0,1.74-1.41,3.16-3.16,3.16s-3.16-1.41-3.16-3.16,1.41-3.16,3.16-3.16,3.16,1.41,3.16,3.16Z"/>
          <path class="cls-13" d="M43.18,270.12c0,1.74-1.41,3.16-3.16,3.16s-3.16-1.41-3.16-3.16,1.41-3.16,3.16-3.16,3.16,1.41,3.16,3.16Z"/>
          <circle class="cls-13" cx="46.34" cy="243.07" r="3.16"/>
          <path class="cls-13" d="M64.37,217.38c0,1.74-1.41,3.16-3.16,3.16s-3.16-1.41-3.16-3.16,1.41-3.16,3.16-3.16,3.16,1.41,3.16,3.16Z"/>
          <path class="cls-13" d="M85.1,198c0,1.74-1.41,3.16-3.16,3.16s-3.16-1.41-3.16-3.16,1.41-3.16,3.16-3.16,3.16,1.41,3.16,3.16Z"/>
          <path class="cls-13" d="M110.34,186.73c0,1.74-1.41,3.16-3.16,3.16s-3.16-1.41-3.16-3.16,1.41-3.16,3.16-3.16,3.16,1.41,3.16,3.16Z"/>
          <path class="cls-13" d="M139.64,186.73c0,1.74-1.41,3.16-3.16,3.16s-3.16-1.41-3.16-3.16,1.41-3.16,3.16-3.16,3.16,1.41,3.16,3.16Z"/>
          <path class="cls-13" d="M171.19,198c0,1.74-1.41,3.16-3.16,3.16s-3.16-1.41-3.16-3.16,1.41-3.16,3.16-3.16,3.16,1.41,3.16,3.16Z"/>
          <path class="cls-13" d="M193.28,217.38c0,1.74-1.41,3.16-3.16,3.16s-3.16-1.41-3.16-3.16,1.41-3.16,3.16-3.16,3.16,1.41,3.16,3.16Z"/>
          <path class="cls-13" d="M218.52,204.31c0,1.74-1.41,3.16-3.16,3.16s-3.16-1.41-3.16-3.16,1.41-3.16,3.16-3.16,3.16,1.41,3.16,3.16Z"/>
          <path class="cls-13" d="M241.06,192.59c0,1.74-1.41,3.16-3.16,3.16s-3.16-1.41-3.16-3.16,1.41-3.16,3.16-3.16,3.16,1.41,3.16,3.16Z"/>
          <path class="cls-13" d="M265.4,184.48c0,1.74-1.41,3.16-3.16,3.16s-3.16-1.41-3.16-3.16,1.41-3.16,3.16-3.16,3.16,1.41,3.16,3.16Z"/>
          <circle class="cls-13" cx="288.39" cy="179.97" r="3.16"/>
          <path class="cls-13" d="M319.04,179.97c0,1.74-1.41,3.16-3.16,3.16s-3.16-1.41-3.16-3.16,1.41-3.16,3.16-3.16,3.16,1.41,3.16,3.16Z"/>
          <path class="cls-13" d="M319.04,153.37c0,1.74-1.41,3.16-3.16,3.16s-3.16-1.41-3.16-3.16,1.41-3.16,3.16-3.16,3.16,1.41,3.16,3.16Z"/>
          <path class="cls-13" d="M326.7,130.84c0,1.74-1.41,3.16-3.16,3.16s-3.16-1.41-3.16-3.16,1.41-3.16,3.16-3.16,3.16,1.41,3.16,3.16Z"/>
          <path class="cls-13" d="M340.22,111.46c0,1.74-1.41,3.16-3.16,3.16s-3.16-1.41-3.16-3.16,1.41-3.16,3.16-3.16,3.16,1.41,3.16,3.16Z"/>
          <path class="cls-13" d="M362.31,98.38c0,1.74-1.41,3.16-3.16,3.16s-3.16-1.41-3.16-3.16,1.41-3.16,3.16-3.16,3.16,1.41,3.16,3.16Z"/>
          <circle class="cls-13" cx="388.9" cy="95.23" r="3.16"/>
          <circle class="cls-13" cx="416.85" cy="104.69" r="3.16"/>
          <circle class="cls-13" cx="442.09" cy="123.63" r="3.16"/>
          <path class="cls-13" d="M455.16,156.53c0,1.74-1.41,3.16-3.16,3.16s-3.16-1.41-3.16-3.16,1.41-3.16,3.16-3.16,3.16,1.41,3.16,3.16Z"/>
          <path class="cls-13" d="M452.91,181.32c0,1.74-1.41,3.16-3.16,3.16s-3.16-1.41-3.16-3.16,1.41-3.16,3.16-3.16,3.16,1.41,3.16,3.16Z"/>
          <circle class="cls-13" cx="442.09" cy="204.76" r="3.16"/>
          <path class="cls-13" d="M432.17,220.08c0,1.74-1.41,3.16-3.16,3.16s-3.16-1.41-3.16-3.16,1.41-3.16,3.16-3.16,3.16,1.41,3.16,3.16Z"/>
          <path class="cls-13" d="M413.24,234.06c0,1.74-1.41,3.16-3.16,3.16s-3.16-1.41-3.16-3.16,1.41-3.16,3.16-3.16,3.16,1.41,3.16,3.16Z"/>
          <path class="cls-13" d="M432.17,262c0,1.74-1.41,3.16-3.16,3.16s-3.16-1.41-3.16-3.16,1.41-3.16,3.16-3.16,3.16,1.41,3.16,3.16Z"/>
          <path class="cls-13" d="M456.06,286.34c0,1.74-1.41,3.16-3.16,3.16s-3.16-1.41-3.16-3.16,1.41-3.16,3.16-3.16,3.16,1.41,3.16,3.16Z"/>
          <path class="cls-13" d="M464.63,267.86c0,1.74-1.41,3.16-3.16,3.16s-3.16-1.41-3.16-3.16,1.41-3.16,3.16-3.16,3.16,1.41,3.16,3.16Z"/>
          <path class="cls-13" d="M476.8,274.17c0,1.74-1.41,3.16-3.16,3.16s-3.16-1.41-3.16-3.16,1.41-3.16,3.16-3.16,3.16,1.41,3.16,3.16Z"/>
          <path class="cls-13" d="M470.94,289.5c0,1.74-1.41,3.16-3.16,3.16s-3.16-1.41-3.16-3.16,1.41-3.16,3.16-3.16,3.16,1.41,3.16,3.16Z"/>
          <path class="cls-13" d="M461.47,311.59c0,1.74-1.41,3.16-3.16,3.16s-3.16-1.41-3.16-3.16,1.41-3.16,3.16-3.16,3.16,1.41,3.16,3.16Z"/>
          <path class="cls-13" d="M455.61,337.28c0,1.74-1.41,3.16-3.16,3.16s-3.16-1.41-3.16-3.16,1.41-3.16,3.16-3.16,3.16,1.41,3.16,3.16Z"/>
          <path class="cls-13" d="M445.25,359.36c0,1.74-1.41,3.16-3.16,3.16s-3.16-1.41-3.16-3.16,1.41-3.16,3.16-3.16,3.16,1.41,3.16,3.16Z"/>
          <path class="cls-13" d="M435.33,379.2c0,1.74-1.41,3.16-3.16,3.16s-3.16-1.41-3.16-3.16,1.41-3.16,3.16-3.16,3.16,1.41,3.16,3.16Z"/>
          <circle class="cls-13" cx="413.24" cy="399.93" r="3.16"/>
          <path class="cls-13" d="M398.82,413.45c0,1.74-1.41,3.16-3.16,3.16s-3.16-1.41-3.16-3.16,1.41-3.16,3.16-3.16,3.16,1.41,3.16,3.16Z"/>
          <path class="cls-13" d="M381.24,426.52c0,1.74-1.41,3.16-3.16,3.16s-3.16-1.41-3.16-3.16,1.41-3.16,3.16-3.16,3.16,1.41,3.16,3.16Z"/>
          <path class="cls-13" d="M351.04,438.69c0,1.74-1.41,3.16-3.16,3.16s-3.16-1.41-3.16-3.16,1.41-3.16,3.16-3.16,3.16,1.41,3.16,3.16Z"/>
          <path class="cls-13" d="M359.6,454.92c0,1.74-1.41,3.16-3.16,3.16s-3.16-1.41-3.16-3.16,1.41-3.16,3.16-3.16,3.16,1.41,3.16,3.16Z"/>
          <path class="cls-13" d="M441.64,289.5c0,1.74-1.41,3.16-3.16,3.16s-3.16-1.41-3.16-3.16,1.41-3.16,3.16-3.16,3.16,1.41,3.16,3.16Z"/>
          <circle class="cls-13" cx="299.2" cy="551.83" r="3.16"/>
          <text class="cls-14" transform="translate(363.99 454.79)"><tspan x="0" y="0">1</tspan></text>
          <text class="cls-14" transform="translate(356.33 446.23)"><tspan x="0" y="0">2</tspan></text>
          <text class="cls-14" transform="translate(381.12 437.67)"><tspan x="0" y="0">3</tspan></text>
          <text class="cls-14" transform="translate(398.7 426.4)"><tspan x="0" y="0">4</tspan></text>
          <text class="cls-14" transform="translate(416.73 411.07)"><tspan x="0" y="0">5</tspan></text>
          <text class="cls-14" transform="translate(435.21 388.98)"><tspan x="0" y="0">6</tspan></text>
          <text class="cls-14" transform="translate(447.38 368.7)"><tspan x="0" y="0">7</tspan></text>
          <text class="cls-14" transform="translate(456.84 347.07)"><tspan x="0" y="0">8</tspan></text>
          <text class="cls-14" transform="translate(464.51 318.67)"><tspan x="0" y="0">9</tspan></text>
          <text class="cls-14" transform="translate(473.52 300.64)"><tspan x="0" y="0">10</tspan></text>
          <text class="cls-14" transform="translate(479.38 281.71)"><tspan x="0" y="0">11</tspan></text>
          <text class="cls-14" transform="translate(459.1 263.68)"><tspan x="0" y="0">12</tspan></text>
          <text class="cls-14" transform="translate(448.25 281.71)"><tspan x="0" y="0">13</tspan></text>
          <text class="cls-14" transform="translate(430.49 283.06)"><tspan x="0" y="0">14</tspan></text>
          <text class="cls-14" transform="translate(434.31 263.68)"><tspan x="0" y="0">15</tspan></text>
          <text class="cls-14" transform="translate(414.92 243.85)"><tspan x="0" y="0">16</tspan></text>
          <text class="cls-14" transform="translate(434.31 229.42)"><tspan x="0" y="0">17</tspan></text>
          <text class="cls-14" transform="translate(448.28 214.1)"><tspan x="0" y="0">18</tspan></text>
          <text class="cls-14" transform="translate(455.94 189.76)"><tspan x="0" y="0">19 </tspan></text>
          <text class="cls-14" transform="translate(458.2 162.71)"><tspan x="0" y="0">20 </tspan></text>
          <text class="cls-14" transform="translate(446.48 130.71)"><tspan x="0" y="0">21 </tspan></text>
          <text class="cls-14" transform="translate(421.23 108.17)"><tspan x="0" y="0">22 </tspan></text>
          <text class="cls-14" transform="translate(393.74 96)"><tspan x="0" y="0">23 </tspan></text>
          <text class="cls-14" transform="translate(354.98 91.95)"><tspan x="0" y="0">24 </tspan></text>
          <text class="cls-14" transform="translate(328.83 104.57)"><tspan x="0" y="0">25 </tspan></text>
          <text class="cls-14" transform="translate(308.55 125.3)"><tspan x="0" y="0">26 </tspan></text>
          <text class="cls-14" transform="translate(300.89 150.09)"><tspan x="0" y="0">27 </tspan></text>
          <text class="cls-14" transform="translate(300.89 176.69)"><tspan x="0" y="0">28 </tspan></text>
          <text class="cls-14" transform="translate(279.7 173.08)"><tspan x="0" y="0">29 </tspan></text>
          <text class="cls-14" transform="translate(254.91 178.04)"><tspan x="0" y="0">30</tspan></text>
          <text class="cls-14" transform="translate(230.57 185.7)"><tspan class="cls-3" x="0" y="0">3</tspan><tspan x="7.98" y="0">1</tspan></text>
          <text class="cls-14" transform="translate(207.58 197.87)"><tspan x="0" y="0">32</tspan></text>
          <text class="cls-14" transform="translate(184.6 211.39)"><tspan x="0" y="0">33</tspan></text>
          <text class="cls-14" transform="translate(162.06 191.11)"><tspan x="0" y="0">34</tspan></text>
          <text class="cls-14" transform="translate(130.96 179.84)"><tspan x="0" y="0">35</tspan></text>
          <text class="cls-14" transform="translate(102.11 178.04)"><tspan class="cls-3" x="0" y="0">3</tspan><tspan x="7.98" y="0">6</tspan></text>
          <text class="cls-14" transform="translate(73.71 191.11)"><tspan x="0" y="0">37</tspan></text>
          <text class="cls-14" transform="translate(50.28 210.49)"><tspan x="0" y="0">38</tspan></text>
          <text class="cls-14" transform="translate(33.6 237.54)"><tspan class="cls-3" x="0" y="0">3</tspan><tspan x="7.98" y="0">9</tspan></text>
          <text class="cls-14" transform="translate(20.53 275.4)"><tspan class="cls-3" x="0" y="0">4</tspan><tspan x="8.52" y="0">0</tspan></text>
          <text class="cls-14" transform="translate(27.74 306.05)"><tspan class="cls-9" x="0" y="0">4</tspan><tspan x="7.95" y="0">1</tspan></text>
          <text class="cls-14" transform="translate(41.26 336.7)"><tspan x="0" y="0">42</tspan></text>
          <text class="cls-14" transform="translate(61.09 359.69)"><tspan x="0" y="0">43</tspan></text>
          <text class="cls-14" transform="translate(91.74 372.31)"><tspan x="0" y="0">44</tspan></text>
          <text class="cls-14" transform="translate(124.2 377.71)"><tspan class="cls-3" x="0" y="0">4</tspan><tspan x="8.52" y="0">5</tspan></text>
          <text class="cls-14" transform="translate(151.24 370.5)"><tspan class="cls-5" x="0" y="0">4</tspan><tspan x="8.44" y="0">6</tspan></text>
          <text class="cls-14" transform="translate(156.2 386.28)"><tspan x="0" y="0">47</tspan></text>
          <text class="cls-14" transform="translate(167.02 404.31)"><tspan x="0" y="0">48</tspan></text>
          <text class="cls-14" transform="translate(180.54 423.24)"><tspan class="cls-4" x="0" y="0">4</tspan><tspan x="8.16" y="0">9</tspan></text>
          <text class="cls-14" transform="translate(201.72 439.92)"><tspan class="cls-3" x="0" y="0">5</tspan><tspan class="cls-1" x="7.99" y="0">0</tspan></text>
          <text class="cls-14" transform="translate(222.91 451.64)"><tspan class="cls-10" x="0" y="0">5</tspan><tspan x="7.7" y="0">1</tspan></text>
          <text class="cls-14" transform="translate(247.7 457.5)"><tspan class="cls-3" x="0" y="0">5</tspan><tspan x="7.99" y="0">2</tspan></text>
          <text class="cls-14" transform="translate(265.28 463.81)"><tspan x="0" y="0">53</tspan></text>
          <text class="cls-14" transform="translate(281.86 462)"><tspan x="0" y="0">54</tspan></text>
          <text class="cls-14" transform="translate(300.89 476.43)"><tspan x="0" y="0">55</tspan></text>
          <text class="cls-14" transform="translate(266.98 477.78)"><tspan class="cls-3" x="0" y="0">5</tspan><tspan class="cls-1" x="7.99" y="0">6</tspan></text>
          <text class="cls-14" transform="translate(255.81 493.11)"><tspan x="0" y="0">57</tspan></text>
          <text class="cls-14" transform="translate(277.6 539.98)"><tspan x="0" y="0">58</tspan></text>
          <text class="cls-14" transform="translate(278.6 558.01)"><tspan class="cls-16" x="0" y="0">5</tspan><tspan x="7.78" y="0">9</tspan></text>
          <text class="cls-14" transform="translate(280.31 577.39)"><tspan class="cls-3" x="0" y="0">6</tspan><tspan class="cls-1" x="8.61" y="0">0</tspan></text>
          <text class="cls-14" transform="translate(282.66 597.68)"><tspan class="cls-12" x="0" y="0">6</tspan><tspan x="7.98" y="0">1</tspan></text>
          <text class="cls-14" transform="translate(279.5 616.16)"><tspan class="cls-5" x="0" y="0">6</tspan><tspan x="8.54" y="0">2</tspan></text>
          <text class="cls-14" transform="translate(278.35 642.3)"><tspan x="0" y="0">63</tspan></text>
          <text class="cls-14" transform="translate(275.2 666.19)"><tspan x="0" y="0">64</tspan></text>
          <text class="cls-14" transform="translate(280.6 691.88)"><tspan class="cls-3" x="0" y="0">6</tspan><tspan class="cls-1" x="8.61" y="0">5</tspan></text>
          <text class="cls-14" transform="translate(302.55 710.36)"><tspan x="0" y="0">66</tspan></text>
          <text class="cls-14" transform="translate(325.68 701.19)"><tspan class="cls-7" x="0" y="0">6</tspan><tspan x="8.34" y="0">7</tspan></text>
          <text class="cls-14" transform="translate(332.44 678.81)"><tspan x="0" y="0">68</tspan></text>
          <text class="cls-14" transform="translate(335.59 659.88)"><tspan class="cls-16" x="0" y="0">6</tspan><tspan class="cls-19" x="8.4" y="0">9</tspan></text>
          <text class="cls-14" transform="translate(337.85 639.14)"><tspan class="cls-5" x="0" y="0">7</tspan><tspan class="cls-1" x="7" y="0">0</tspan></text>
          <text class="cls-14" transform="translate(341 617.51)"><tspan x="0" y="0">71</tspan></text>
          <text class="cls-14" transform="translate(357.98 613.91)"><tspan x="0" y="0">72</tspan></text>
          <text class="cls-14" transform="translate(357.08 640.05)"><tspan class="cls-20" x="0" y="0">7</tspan><tspan class="cls-19" x="7.08" y="0">3</tspan></text>
          <text class="cls-14" transform="translate(354.98 663.03)"><tspan class="cls-12" x="0" y="0">7</tspan><tspan x="6.45" y="0">4</tspan></text>
          <text class="cls-14" transform="translate(361.09 685.67)"><tspan x="0" y="0">75</tspan></text>
          <text class="cls-14" transform="translate(378.87 697.74)"><tspan class="cls-11" x="0" y="0">7</tspan><tspan x="6.66" y="0">6</tspan></text>
          <text class="cls-14" transform="translate(395.99 706.31)"><tspan x="0" y="0">77</tspan></text>
          <text class="cls-14" transform="translate(414.92 701.8)"><tspan class="cls-8" x="0" y="0">7</tspan><tspan x="7" y="0">8</tspan></text>
          <text class="cls-14" transform="translate(420.79 674.31)"><tspan x="0" y="0">79</tspan></text>
          <text class="cls-14" transform="translate(410.42 659.88)"><tspan x="0" y="0">80</tspan></text>
          <text class="cls-14" transform="translate(405.46 639.14)"><tspan class="cls-18" x="0" y="0">8</tspan><tspan class="cls-15" x="8.12" y="0">1</tspan></text>
          <text class="cls-14" transform="translate(404.11 616.16)"><tspan x="0" y="0">82</tspan></text>
          <text class="cls-14" transform="translate(398.7 577.39)"><tspan x="0" y="0">83</tspan></text>
          <text class="cls-14" transform="translate(399.15 558.91)"><tspan x="0" y="0">84</tspan></text>
          <text class="cls-14" transform="translate(398.25 542.24)"><tspan x="0" y="0">85</tspan></text>
          <text class="cls-14" transform="translate(394.64 519.7)"><tspan x="0" y="0">86</tspan></text>
          <text class="cls-14" transform="translate(412.22 511.14)"><tspan x="0" y="0">87</tspan></text>
          <text class="cls-14" transform="translate(424.84 497.61)"><tspan x="0" y="0">88</tspan></text>
          <text class="cls-14" transform="translate(433.4 480.94)"><tspan class="cls-17" x="0" y="0">8</tspan><tspan x="8.33" y="0">9</tspan></text>
          <text class="cls-14" transform="translate(436.56 463.81)"><tspan x="0" y="0">90</tspan></text>
        </g>
        <g>
          <circle class="cls-13" cx="498.43" cy="471.6" r="3.16"/>
          <path class="cls-13" d="M488.97,488.28c0,1.74-1.41,3.16-3.16,3.16s-3.16-1.41-3.16-3.16,1.41-3.16,3.16-3.16,3.16,1.41,3.16,3.16Z"/>
          <path class="cls-13" d="M481.3,504.5c0,1.74-1.41,3.16-3.16,3.16s-3.16-1.41-3.16-3.16,1.41-3.16,3.16-3.16,3.16,1.41,3.16,3.16Z"/>
          <path class="cls-13" d="M476.8,522.98c0,1.74-1.41,3.16-3.16,3.16s-3.16-1.41-3.16-3.16,1.41-3.16,3.16-3.16,3.16,1.41,3.16,3.16Z"/>
          <path class="cls-13" d="M476.8,546.87c0,1.74-1.41,3.16-3.16,3.16s-3.16-1.41-3.16-3.16,1.41-3.16,3.16-3.16,3.16,1.41,3.16,3.16Z"/>
          <path class="cls-13" d="M481.3,570.76c0,1.74-1.41,3.16-3.16,3.16s-3.16-1.41-3.16-3.16,1.41-3.16,3.16-3.16,3.16,1.41,3.16,3.16Z"/>
          <path class="cls-13" d="M487.61,591.95c0,1.74-1.41,3.16-3.16,3.16s-3.16-1.41-3.16-3.16,1.41-3.16,3.16-3.16,3.16,1.41,3.16,3.16Z"/>
          <path class="cls-13" d="M496.18,615.39c0,1.74-1.41,3.16-3.16,3.16s-3.16-1.41-3.16-3.16,1.41-3.16,3.16-3.16,3.16,1.41,3.16,3.16Z"/>
          <path class="cls-13" d="M496.18,636.12c0,1.74-1.41,3.16-3.16,3.16s-3.16-1.41-3.16-3.16,1.41-3.16,3.16-3.16,3.16,1.41,3.16,3.16Z"/>
          <path class="cls-13" d="M496.18,656.85c0,1.74-1.41,3.16-3.16,3.16s-3.16-1.41-3.16-3.16,1.41-3.16,3.16-3.16,3.16,1.41,3.16,3.16Z"/>
          <path class="cls-13" d="M502.04,683c0,1.74-1.41,3.16-3.16,3.16s-3.16-1.41-3.16-3.16,1.41-3.16,3.16-3.16,3.16,1.41,3.16,3.16Z"/>
          <path class="cls-13" d="M524.58,683.9c0,1.74-1.41,3.16-3.16,3.16s-3.16-1.41-3.16-3.16,1.41-3.16,3.16-3.16,3.16,1.41,3.16,3.16Z"/>
          <path class="cls-13" d="M539,669.47c0,1.74-1.41,3.16-3.16,3.16s-3.16-1.41-3.16-3.16,1.41-3.16,3.16-3.16,3.16,1.41,3.16,3.16Z"/>
          <path class="cls-13" d="M571.9,649.64c0,1.74-1.41,3.16-3.16,3.16s-3.16-1.41-3.16-3.16,1.41-3.16,3.16-3.16,3.16,1.41,3.16,3.16Z"/>
          <path class="cls-13" d="M593.54,650.54c0,1.74-1.41,3.16-3.16,3.16s-3.16-1.41-3.16-3.16,1.41-3.16,3.16-3.16,3.16,1.41,3.16,3.16Z"/>
          <path class="cls-13" d="M614.27,649.64c0,1.74-1.41,3.16-3.16,3.16s-3.16-1.41-3.16-3.16,1.41-3.16,3.16-3.16,3.16,1.41,3.16,3.16Z"/>
          <circle class="cls-13" cx="627.34" cy="656.85" r="3.16"/>
          <circle class="cls-13" cx="637.26" cy="675.33" r="3.16"/>
          <path class="cls-13" d="M653.94,688.86c0,1.74-1.41,3.16-3.16,3.16s-3.16-1.41-3.16-3.16,1.41-3.16,3.16-3.16,3.16,1.41,3.16,3.16Z"/>
          <path class="cls-13" d="M671.97,687.05c0,1.74-1.41,3.16-3.16,3.16s-3.16-1.41-3.16-3.16,1.41-3.16,3.16-3.16,3.16,1.41,3.16,3.16Z"/>
          <path class="cls-13" d="M679.63,669.47c0,1.74-1.41,3.16-3.16,3.16s-3.16-1.41-3.16-3.16,1.41-3.16,3.16-3.16,3.16,1.41,3.16,3.16Z"/>
          <path class="cls-13" d="M682.79,646.04c0,1.74-1.41,3.16-3.16,3.16s-3.16-1.41-3.16-3.16,1.41-3.16,3.16-3.16,3.16,1.41,3.16,3.16Z"/>
          <path class="cls-13" d="M685.04,622.6c0,1.74-1.41,3.16-3.16,3.16s-3.16-1.41-3.16-3.16,1.41-3.16,3.16-3.16,3.16,1.41,3.16,3.16Z"/>
          <path class="cls-13" d="M694.96,600.96c0,1.74-1.41,3.16-3.16,3.16s-3.16-1.41-3.16-3.16,1.41-3.16,3.16-3.16,3.16,1.41,3.16,3.16Z"/>
          <path class="cls-13" d="M702.62,581.13c0,1.74-1.41,3.16-3.16,3.16s-3.16-1.41-3.16-3.16,1.41-3.16,3.16-3.16,3.16,1.41,3.16,3.16Z"/>
          <path class="cls-13" d="M707.58,556.34c0,1.74-1.41,3.16-3.16,3.16s-3.16-1.41-3.16-3.16,1.41-3.16,3.16-3.16,3.16,1.41,3.16,3.16Z"/>
          <path class="cls-13" d="M706.68,532c0,1.74-1.41,3.16-3.16,3.16s-3.16-1.41-3.16-3.16,1.41-3.16,3.16-3.16,3.16,1.41,3.16,3.16Z"/>
          <circle class="cls-13" cx="698.11" cy="509.46" r="3.16"/>
          <path class="cls-13" d="M694.96,490.08c0,1.74-1.41,3.16-3.16,3.16s-3.16-1.41-3.16-3.16,1.41-3.16,3.16-3.16,3.16,1.41,3.16,3.16Z"/>
          <path class="cls-13" d="M683.69,474.75c0,1.74-1.41,3.16-3.16,3.16s-3.16-1.41-3.16-3.16,1.41-3.16,3.16-3.16,3.16,1.41,3.16,3.16Z"/>
          <path class="cls-13" d="M666.56,458.53c0,1.74-1.41,3.16-3.16,3.16s-3.16-1.41-3.16-3.16,1.41-3.16,3.16-3.16,3.16,1.41,3.16,3.16Z"/>
          <path class="cls-13" d="M641.77,452.67c0,1.74-1.41,3.16-3.16,3.16s-3.16-1.41-3.16-3.16,1.41-3.16,3.16-3.16,3.16,1.41,3.16,3.16Z"/>
          <path class="cls-13" d="M619.23,455.82c0,1.74-1.41,3.16-3.16,3.16s-3.16-1.41-3.16-3.16,1.41-3.16,3.16-3.16,3.16,1.41,3.16,3.16Z"/>
          <path class="cls-13" d="M598.05,463.94c0,1.74-1.41,3.16-3.16,3.16s-3.16-1.41-3.16-3.16,1.41-3.16,3.16-3.16,3.16,1.41,3.16,3.16Z"/>
          <circle class="cls-13" cx="579.57" cy="457.63" r="3.16"/>
          <path class="cls-13" d="M553.87,650.54c0,1.74-1.41,3.16-3.16,3.16s-3.16-1.41-3.16-3.16,1.41-3.16,3.16-3.16,3.16,1.41,3.16,3.16Z"/>
          <text class="cls-14" transform="translate(574.36 474.8)"><tspan x="0" y="0">1</tspan></text>
          <text class="cls-14" transform="translate(589.36 458.64)"><tspan x="0" y="0">2</tspan></text>
          <text class="cls-14" transform="translate(611.45 449.38)"><tspan x="0" y="0">3</tspan></text>
          <text class="cls-14" transform="translate(634.44 446.23)"><tspan x="0" y="0">4</tspan></text>
          <text class="cls-14" transform="translate(661.48 451.64)"><tspan x="0" y="0">5</tspan></text>
          <text class="cls-14" transform="translate(680.41 468.31)"><tspan x="0" y="0">6</tspan></text>
          <text class="cls-14" transform="translate(697.99 489.95)"><tspan x="0" y="0">7</tspan></text>
          <text class="cls-14" transform="translate(705.2 513.84)"><tspan x="0" y="0">8</tspan></text>
          <text class="cls-14" transform="translate(710.16 536.83)"><tspan x="0" y="0">9</tspan></text>
          <text class="cls-14" transform="translate(710.16 561.62)"><tspan x="0" y="0">10</tspan></text>
          <text class="cls-14" transform="translate(705.86 589.77)"><tspan x="0" y="0">11</tspan></text>
          <text class="cls-14" transform="translate(697.99 608.05)"><tspan x="0" y="0">12</tspan></text>
          <text class="cls-14" transform="translate(688.53 628.78)"><tspan x="0" y="0">13</tspan></text>
          <text class="cls-14" transform="translate(684.92 651.77)"><tspan x="0" y="0">14</tspan></text>
          <text class="cls-14" transform="translate(681.76 674.31)"><tspan x="0" y="0">15</tspan></text>
          <text class="cls-14" transform="translate(673.2 698.64)"><tspan x="0" y="0">16</tspan></text>
          <text class="cls-14" transform="translate(648.86 706.31)"><tspan x="0" y="0">17</tspan></text>
          <text class="cls-14" transform="translate(629.48 691.88)"><tspan x="0" y="0">18</tspan></text>
          <text class="cls-14" transform="translate(617.76 675.21)"><tspan x="0" y="0">19</tspan></text>
          <text class="cls-14" transform="translate(601.12 665.98)"><tspan x="0" y="0">20</tspan></text>
          <text class="cls-14" transform="translate(583.29 667.54)"><tspan x="0" y="0">21</tspan></text>
          <text class="cls-14" transform="translate(564.57 667.54)"><tspan x="0" y="0">22</tspan></text>
          <text class="cls-14" transform="translate(547.44 667.54)"><tspan x="0" y="0">23</tspan></text>
          <text class="cls-14" transform="translate(539.78 681.97)"><tspan x="0" y="0">24</tspan></text>
          <text class="cls-14" transform="translate(524.46 697.74)"><tspan x="0" y="0">25</tspan></text>
          <text class="cls-14" transform="translate(492.9 700)"><tspan x="0" y="0">26</tspan></text>
          <text class="cls-14" transform="translate(473.31 665.29)"><tspan x="0" y="0">27</tspan></text>
          <text class="cls-14" transform="translate(473.31 644.1)"><tspan x="0" y="0">28</tspan></text>
          <text class="cls-14" transform="translate(471.96 622.47)"><tspan x="0" y="0">29</tspan></text>
          <text class="cls-14" transform="translate(462.74 602.39)"><tspan x="0" y="0">30</tspan></text>
          <text class="cls-14" transform="translate(459.76 583.88)"><tspan class="cls-20" x="0" y="0">3</tspan><tspan x="7.98" y="0">1</tspan></text>
          <text class="cls-14" transform="translate(458.2 561.62)"><tspan x="0" y="0">32</tspan></text>
          <text class="cls-14" transform="translate(452.58 526.01)"><tspan x="0" y="0">33</tspan></text>
          <text class="cls-14" transform="translate(456.63 506.18)"><tspan x="0" y="0">34</tspan></text>
          <text class="cls-14" transform="translate(465.65 486.59)"><tspan x="0" y="0">35</tspan></text>
          <text class="cls-14" transform="translate(482.78 465.4)"><tspan class="cls-20" x="0" y="0">3</tspan><tspan x="7.98" y="0">6</tspan></text>
        </g>
        <path class="cls-13" d="M623.51,431.38c-4.77-16.22-9.96-32.31-15.56-48.25-.09-.26-.21-.48-.36-.67,1.94-1.17,3.76-2.5,5.35-4.08,3.94-3.92,5.9-10.62,1.79-15.18-4.02-4.44-10.62-4.07-15.91-2.69-6.54,1.7-12.97,4.02-19.37,6.2-25.99,8.85-51.39,19.31-76.56,30.25-28.42,12.36-56.55,25.36-85.07,37.51-2.66,1.13-.37,5.02,2.28,3.89,48.17-20.52,95.31-43.55,144.5-61.63,6.13-2.25,12.28-4.42,18.47-6.5,6.08-2.04,12.26-4.44,18.55-5.76,2.73-.57,5.9-.8,8.4.67,2.86,1.68,3.05,4.98,1.55,7.72-2.78,5.09-9.83,7.75-14.86,9.89-25.35,10.75-50.98,20.86-76.46,31.29-28.55,11.68-57.11,23.36-85.66,35.03-2.65,1.08-1.49,5.45,1.2,4.35,20.82-8.51,41.65-16.98,62.49-25.46,4.46,15.13,9.96,29.93,16.45,44.31.51,1.13,1.52,1.36,2.41,1.04.8.74,2.02.95,2.95-.11,1.34-1.53,2.67-3.06,4.01-4.59.93-1.07,2.16-3.04,3.38-4.03.08.05.18.1.32.15.23.16.45.32.68.48.91.63,1.8,1.28,2.7,1.93l4.73,3.37c.95.68,2.57.21,3.08-.81.93-1.83,1.86-3.65,2.78-5.48.46-.91.93-1.83,1.39-2.74.2-.39.4-.78.6-1.17.19-.21.31-.38.37-.51.48.27.99.66,1.34.86.93.52,1.86,1.07,2.76,1.64,1.59,1,3.12,2.07,4.63,3.2.98.73,2.52.15,3.08-.81,1.52-2.6,2.9-5.26,4.16-7.99,2.54,1.4,5.15,2.63,7.84,3.73.45.18.85.21,1.21.13.99,1.08,3.32,1.08,4.06-.78,1.25-3.16,2.86-6.37,3.8-9.63.31-1.09-.02-1,1.03-.92.79.06,1.68.48,2.43.71,1.61.5,3.2,1.06,4.78,1.65.84.32,2.17-.19,2.55-1.04.84-1.87,1.61-3.75,2.32-5.67.98.74,2.01,1.4,3.1,1.96,1.87.95,4.36,2.18,6.5,1.88,2.28-.33,3.16-2.7,4.01-4.55.83-1.8,1.52-3.64,2.11-5.53,1.37.42,2.74.84,4.12,1.15,1.3.3,2.61.43,3.76-.41,1.2-.87,1.08-2.07,1.88-3.08.88-1.11,3.03-.4,4.16-.09,1.73.47,2.85-1.01,2.79-2.39.79-.45,1.31-1.31.98-2.45ZM612.71,432.74c-.61.57-1.3,2.54-1.57,2.71-.35.22-2.69-.77-3.13-.9-1.04-.3-2.09-.6-3.13-.9-1.15-.33-2.47.4-2.77,1.57-.43,1.69-.93,3.36-1.57,4.98-.37.94-.78,1.87-1.23,2.77-.29.58-1.11,1.25-.45,1.28-1.27-.01-3.02-1.09-4.03-1.65-1.56-.87-2.9-1.94-4.16-3.21-1.24-1.25-3.25-.59-3.77.99-.68,2.1-1.44,4.16-2.29,6.19-1.65-.58-3.31-1.11-4.99-1.59-1.85-.52-3.77-1.02-5.27.51-1.41,1.43-1.94,4.03-2.66,5.85-.66,1.68-1.33,3.37-1.99,5.05-.17-.13-.36-.24-.57-.33-3.09-1.27-6.06-2.8-8.92-4.52-.95-.57-2.6-.3-3.08.81-1.17,2.69-2.46,5.31-3.87,7.88-1.45-1.02-2.94-1.99-4.48-2.89-1.69-.99-4.04-2.78-6.14-2.26-2,.5-2.77,2.89-3.59,4.5l-2.86,5.62c-1.37-.98-2.75-1.96-4.12-2.94-1.6-1.14-3.34-2.78-5.47-2.31-1.86.41-3.12,2.47-4.29,3.8-1.43,1.64-2.86,3.27-4.3,4.91-6.14-13.78-11.33-27.96-15.57-42.44,31.52-12.83,63.03-25.68,94.45-38.74,2.22-.92,4.52-1.87,6.76-2.95,5.44,15.49,10.49,31.11,15.14,46.86-2.16-.33-4.46-.2-6.11,1.33Z"/>
        <path class="cls-13" d="M320,502.15c-33.59,15.07-67.64,29.11-102.09,42.09-.15.06-.29.13-.41.2-.26-.14-.55-.25-.89-.29-2.84-.37-4.81-3.27-5.14-5.93-.39-3.13,1.26-6.22,3.33-8.44,4.71-5.06,12.16-7.2,18.3-9.96,13.63-6.13,26.92-12.97,40.57-19.07,7.84-3.5,15.8-6.72,23.96-9.43,2.74-.91,1.57-5.26-1.2-4.35-16.49,5.48-32.14,13.07-47.77,20.59-7.79,3.75-15.6,7.46-23.54,10.89-6.72,2.9-13.92,6.26-16.99,13.4-3.03,7.04.42,15.76,8.49,16.81.37.05.69.01.96-.08.42.2.94.23,1.54,0,34.82-13.12,69.22-27.32,103.17-42.55,2.64-1.19.35-5.07-2.27-3.89Z"/>
        <path class="cls-13" d="M394.87,444.17c-18.21,8.34-36.67,16.15-55.34,23.42-2.67,1.04-1.51,5.4,1.2,4.35,19.03-7.41,37.85-15.37,56.41-23.88,2.63-1.21.35-5.09-2.28-3.89Z"/>
        <path class="cls-13" d="M396.42,467.78c-11.85,5.5-23.7,11-35.55,16.5-2.63,1.22-.34,5.11,2.28,3.89,11.85-5.5,23.7-11,35.55-16.5,2.63-1.22.34-5.11-2.28-3.89Z"/>
      </g>
    </g>
  </g>
</svg>