<?xml version="1.0" encoding="UTF-8"?>
<svg xmlns="http://www.w3.org/2000/svg" width="800" height="800" version="1.1" viewBox="0 0 800 800">
  <defs>
    <style>
      .cls-1 {
        fill: #fff;
      }
    </style>
  </defs>
  <!-- Generator: Adobe Illustrator 28.7.3, SVG Export Plug-In . SVG Version: 1.2.0 Build 164)  -->
  <g>
    <g id="Camada_1">
      <g>
        <path d="M558.14,399.25c-.03.15-.06.29-.07.44.02-.15.04-.31.08-.47,0,.01-.01.02-.01.03ZM355.39,466.42c-.23-.8-.78-1.51-1.19-2.26-.43-.03-.87-.06-1.31-.08-.39,2.58-1.21,5.19-1.09,7.76.03.61.08,1.22.14,1.82.01.03.01.05.01.05l9.39,5.66c-2.12-3.39-3.95-6.96-5.27-10.82-.25-.7-.47-1.41-.68-2.13Z"/>
        <path d="M49.08,156.46c-.04-13.14,10.17-24.15,22.55-24.29,12.19-.14,22.56,10.22,22.66,22.65.1,12.6-11.03,23.84-23.6,23.85-11.91,0-21.56-9.92-21.6-22.21ZM56.39,153.44c-.84,6.84,3.09,13.42,9.37,15.7,6.33,2.3,14.05-.07,17.76-5.45,3.7-5.38,3.35-13.12-.8-17.79-4.09-4.61-9.44-6.38-13.19-4.36,3.6,7.14,3.6,10.36,0,13.45-4.01,3.43-7.03,3.07-13.13-1.54ZM70.44,146.6c-1.23-1.56-2.24-4.14-3.74-4.47-2.97-.66-7.29,3.31-7.42,5.91-.13,2.64,2.6,5.07,5.65,5.03,2.82-.03,4.66-2.32,5.51-6.47Z"/>
        <path d="M52.85,224.91c-10.62-.18-17.86-7.51-17.67-17.92.19-10.73,8.3-19.29,18-18.97,9.53.31,17.7,9.25,17.56,19.2-.14,9.74-8.33,17.85-17.89,17.68ZM43.26,209.7c.63,1.29.96,2.38,1.61,3.22,2.59,3.37,7.6,4.91,11.31,3.59,4.16-1.48,6.88-5.1,6.86-9.13-.02-4.72-2.89-8.71-7.28-10.16-3.77-1.25-7.48-1.28-10.18,1.95-.93,1.11-.63,3.25-.89,4.92,1.5.03,3.04.27,4.5.03.96-.15,1.8-.99,3.2-1.81-1.06,5.35-4.7,6.57-9.13,7.38Z"/>
        <path d="M491.75,583.37c.11-9.74,8.23-17.92,17.77-17.91,9.67,0,18.98,9.11,18.89,18.47-.09,10.31-8.93,18.95-19.24,18.81-9.12-.12-17.53-9.48-17.42-19.38ZM509.56,595.23c6.22,0,11.2-4.92,11.23-11.11.03-5.73-5.36-10.91-11.49-11.04-5.63-.11-10.83,5.5-10.8,11.65.03,5.35,5.44,10.49,11.06,10.5Z"/>
        <path d="M589.16,544.9c-.03,8.93-7.11,15.72-16.26,15.59-8.81-.12-14.76-7-14.69-16.98.06-8.67,6.7-15.35,15.21-15.3,9,.05,15.77,7.23,15.74,16.68ZM573.56,553.02c4.95,0,8.61-3.72,8.63-8.79.03-4.87-4.37-8.88-9.65-8.79-4.22.07-8.01,4.26-7.9,8.74.11,4.54,4.45,8.84,8.92,8.84Z"/>
        <path d="M563.8,591.93c.02,4.93-4.55,9.86-9.21,9.94-5.38.09-10.36-5.22-10.42-11.11-.05-5.53,4.14-10.48,8.95-10.55,5.73-.09,10.64,5.31,10.67,11.72ZM550.47,589.41c.03,3.57,1.23,5.2,3.65,4.84.98-.14,2.63-2.18,2.42-2.83-.56-1.66-2-3.02-3.09-4.51-1.18.98-2.35,1.97-2.98,2.49Z"/>
        <path d="M121.99,137.28c0,5.16-4.25,9.27-9.63,9.31-5.29.04-9.34-4.08-9.35-9.53,0-5.32,4.21-9.64,9.37-9.61,5.43.04,9.61,4.31,9.62,9.83ZM111.98,131.94c-1.45,2.35-3.06,3.84-2.78,4.74.45,1.45,2.15,2.51,3.32,3.73,1.05-1.08,3.03-2.25,2.93-3.21-.15-1.47-1.73-2.8-3.47-5.26Z"/>
        <path class="cls-1" d="M534.55,316.42c-15.89-27.75-36.28-51.92-59.67-73.49-9.97-9.19-20.72-17.5-31.99-25.34-17.51-12.17-35.35-23.26-55.13-31.19-26.73-10.71-54.47-16.98-83.16-19.33-35.45-2.9-70.38-1.1-104.45,10.22-15.17,5.04-30.03,10.62-43.75,19-16.3,9.96-30.03,22.95-43.12,36.61-19.21,20.04-32.19,43.97-42.35,69.56-.48,1.21-.74,2.5-1.16,3.91,5.04-5.53,9.46-11.2,14.69-15.98,15.42-14.08,38.21-14.72,52.77-1.7,12.96,11.6,19.19,26.4,20.07,43.63.88,17.08-5.29,31.77-15.75,44.76-14.67,18.21-40.63,21.79-58.07,7.72-11.37-9.17-18.25-21.49-21.25-35.86-.54-2.57-.96-5.17-1.44-7.76-.89,1.1-1.37,2.13-1.5,3.2-2.32,18.9-4.26,37.76-1.81,56.86,2.42,18.75,7.24,36.8,14.75,54.05,10.56,24.28,25.48,45.63,44.77,63.9,18.96,17.97,39.9,33.16,63.68,43.99,10.86,4.94,22.37,8.59,33.8,12.18,16.95,5.32,34.4,8.94,52.13,9.69,15.13.64,30.37.08,45.48-.99,10.77-.77,21.42-3.17,32.07-5.14,1.65-.3,3.86-1.95,4.35-3.45,2.81-8.53,3.77-17.36,3.37-26.69,13.37-7.46,25.81-16.56,35.49-29.61-9.77-5.77-17.14-13.39-23.78-21.65-5.65-7.02-10.64-14.59-11.64-23.81,0,0,0-.02-.01-.05-.22-1.22-3.95-24.15,31.36-34.9,12.91-5.45,26.52-7.78,40.55-7.81,2.01,0,3.14-.38,3.67-2.32,1.56-5.65,3.3-11.25,4.7-16.94,5.71-23.06,6.27-46.28,1.2-69.5-2.82-12.96-6.34-25.77-9.32-38.7-4.92-21.3-14.03-40.7-26.07-58.84-1.48-2.23-2.51-4.77-3.75-7.17.3-.2.6-.39.9-.59,1.56,1.44,3.31,2.73,4.66,4.35,11.67,14.06,19.68,30.25,24.83,47.54,5.52,18.51,9.55,37.49,13.87,56.35,3.06,13.38,4.71,27.06,2.91,40.71-1.93,14.63-3.74,29.38-8.91,43.39-.19.51-.18,1.1-.14.82,9.51,2.62,18.61,5.12,27.65,7.61.35-8.06-6.64-12.54-10.75-18.83,2.38,0,4.65.01,6.08,1.12,6.45,4.98,11.45,10.91,11.2,19.82-.03,1.29.67,2.98,1.62,3.87,10.22,9.59,15.17,21.59,14.65,35.31-.9,23.53-19.02,44.62-42.11,49.53-15.66,3.33-31,2.08-45.54-5.21-1.5-.75-2.63-1.35-4.26.42-9.32,10.05-19.46,19.17-31.32,26.22-1.22.72-2.78,2.04-2.91,3.22-.82,7.8-1.3,15.63-1.88,23.45,21.92-4.74,58.75-19.01,78.83-32.69,16.02-10.9,33.01-20.21,46.63-34.51,16.68-17.53,32.75-35.48,46.01-55.78,11.4-17.46,18.47-36.46,21.56-57.21,4.19-28.23,1.02-54.95-13.31-79.97ZM139.57,251.98c-7.24,3.54-14.88,6.51-22.65,8.61-5.08,1.37-8.82-2.72-9.36-8.16.97-2.43,1.45-5.25,3.01-7.22,5.81-7.36,13.24-11.81,23.02-11.33,5.15.24,8.51,2.5,9.99,6.8,1.39,4.05.3,9.2-4.01,11.3ZM100.33,418.73c-4.25,2.5-9.3,3.64-14.45,5.57-5.09-1.81-10.16-3.02-14.68-5.34-6.9-3.54-4.89-13.92-.52-17.45,6.93-5.58,22.86-6.16,30.02-.94,6.64,4.83,6.72,14-.37,18.16ZM297.05,221.64c2.82-.74,5.74-1.1,8.3-1.57,11.56,1.42,21.09,5.55,27.07,15.65,3.77,6.38,2.07,12.42-4.35,15.33-1.72.78-4,1.04-5.85.67-8.23-1.63-16.41-3.56-24.6-5.42-6.87-1.57-10.47-5.69-10.68-12.12-.2-6.31,3.28-10.74,10.11-12.54ZM222.3,190.09c3.14.57,7.79,5.44,7.2,8.39-.38,1.94-2.01,4.1-3.71,5.15-.94.58-3.42-.57-4.76-1.56-2.21-1.62-4.07-3.74-6.25-5.82,1.39-4.39,4.3-6.74,7.52-6.16ZM210.48,204.39c2.14.53,5.98-.81,5.74,3.17-.1,1.65-2.31,3.18-4.44,5.86-2.05-2.65-3.76-4-4.21-5.68-.43-1.6.46-3.95,2.91-3.35ZM202.53,192.6c2.4.17,4.62,2.99,4.48,5.73-.13,2.83-5.05,7.26-7.96,7.17-2.7-.08-4.86-2.55-4.74-5.41.16-3.82,4.46-7.74,8.22-7.49ZM168.41,350.94c.91-1.54,3.69-2.5,5.76-2.72,2.51-.27,4.15,1.49,3.34,4.19-1.01,3.4.48,5.23,3.22,6.8,5.42,3.11,9.91,4.4,16.4,4.37,8.29,0,15.81-2.5,22.59-7.19.76-.53,1.41-1.81,1.39-2.73-.09-5.43.57-6.57,4.31-6.62,4.08-.05,7.99,3.29,7.51,7-1.8,13.99-3.41,28.02-5.96,41.88-1.61,8.78-6.96,15.9-14.1,21.25-6.74,5.05-18.76,6.07-26.95-4.1-8.6-10.67-12.44-22.99-13.93-36.29-.25-2.29-.75-4.58-.72-6.86.06-4.38-.33-8.43-2.93-12.33-1.05-1.59-.94-4.94.07-6.65ZM163.77,533.46c42.82,13.39,85.99,24.78,131.44,23.39-45.97,4.04-89.52-5.19-131.44-23.39ZM365.71,432.18c-10.19,5-20.87,5.75-31.64,2.54-5.78-1.73-10.45-5.57-10.8-12.09-.37-7.09,4.2-11.84,10.1-14.5,4.52-2.03,9.76-2.48,15.32-3.78,5.53,1.51,11.4,2.65,16.9,4.77,4.78,1.85,7.88,5.91,7.91,11.25.03,5.44-2.95,9.44-7.79,11.81ZM376.32,353.09c-4,17.94-14.7,32.83-31.24,41.81-29.38,15.95-61.06,9.43-81.67-15.79-10.51-12.85-14.7-27.76-14.71-40.44,1.3-33.53,18.18-57.32,46.04-66.6,20.57-6.85,39.99-3.33,56.82,10.6,22.24,18.41,30.99,42.42,24.76,70.42ZM436.2,279.78c7.84-7.34,9.47-15.16,6.84-24.4-2.76-9.72-9.69-13.72-19.9-14.96,3.7-3.59,7.11-2.88,10.15-2.31,8.56,1.6,15.57,10.28,16.96,20.53.76,5.69.39,11.21-2.7,16.28-2.28,3.76-5.59,5.33-11.35,4.86ZM450.43,347.43c6.7-3.26,10.57-8.67,12.78-15.51,3.6-11.11.9-21.22-8.18-28.54-3.66-2.95-7.75-5.35-11.56-8.12-1.61-1.16-4.21-2.17-1.9-5,.11-.14-1.01-1.27-1.28-2.51,2.47,1.08,4.95,2.12,7.4,3.26,9.85,4.57,18.42,10.53,22.25,21.36,4.24,12.01,1.9,23.01-6.17,32.51-2.14,2.51-6.21,3.51-9.54,4.82-.94.36-2.41-.65-3.64-1.04-.05-.41-.11-.82-.16-1.23ZM477.45,390.5c-2.7,10.38-8.47,18.22-19.49,20.91-1.93.46-4.07.06-6.11.06-.17-.6-.33-1.2-.5-1.81,1.82-1.18,3.54-2.53,5.45-3.53,10.82-5.65,16.15-16.39,13.3-28.15-1.83-7.58-6.95-12.83-13.63-16.72-1.76-1.03-3.01-2.91-4.5-4.39,2.17-.23,4.48-1.06,6.49-.6,13.34,3.04,22.72,19.93,18.99,34.23ZM481.54,347.98c1.49-1.43,2.55-2.73,3.88-3.65,12.56-8.71,8.32-24.33.48-31.05-2.86-2.46-6.33-4.2-9.5-6.3-.7-.47-1.31-1.09-1.95-1.63.05-.41.1-.82.15-1.23,2.22-.1,4.59-.77,6.62-.2,9.68,2.73,16.04,9.03,18.77,18.77,2.77,9.91-.94,17.76-8.22,24.21-2.82,2.49-6.34,1.97-10.23,1.08ZM512.4,390.75c-5.74,6.29-13.64,8.8-19.78,5.53,2.01-1.09,3.52-2.01,5.12-2.74,11.03-4.99,16.15-15.36,12.81-25.93-2-6.35-6.48-10.52-11.9-13.98-1.92-1.23-3.56-2.91-5.96-4.92,7.03-2.24,17.25,3.33,21.87,10.71,6.37,10.16,5.49,22.94-2.16,31.33ZM472.26,472.91c.08-1.55.26-2.19.12-2.76-1.88-7.64-5.39-14.38-11.57-19.39-9.49-7.68-20.97-9.64-32.65-10.5-9.53-.7-18.89.05-28.16,1.58,0,0-.1.02-.28.05-3.81.67-45.06,8.37-43.65,26.66,1.32,3.86,3.15,7.43,5.27,10.82,2.34,3.74,5.04,7.26,7.84,10.71,16.66,20.54,37.92,31.53,64.75,29.85,9.63-.6,18.04-4.79,25.85-11.61-1.63-.22-2.59-.41-3.56-.48-27.56-1.99-51.62-13.19-74.12-28.38-1.8-1.22-3.04-3.29-4.54-4.96.28-.29.56-.59.84-.88,1.26.51,2.58.91,3.77,1.55,8.99,4.8,17.92,9.71,26.93,14.48,15.82,8.37,32.57,13.35,50.58,13.46,1.75.01,4.14-.46,5.15-1.64,5.69-6.62,7.95-14.57,8.27-23.47-2.19-.35-4.06-.65-5.92-.92-26.75-3.89-53.76-6.15-80.12-12.51-1.54-.37-2.96-1.24-4.44-1.88.16-.6.31-1.2.46-1.8,29.64,3.99,59.27,7.99,89.18,12.02Z"/>
        <path class="cls-1" d="M734.71,270.76c-1.11,18.25-5.72,35.48-14.58,51.53-1.92,3.48-4.66,4.63-8.68,4.89-23.86,1.52-46.99,6.91-69.39,15.04-19.91,7.23-39.62,15.03-59.19,23.11-8.07,3.33-15.57,8.06-23.39,12.18-.34-4.75-.71-9.41-.95-14.07-.03-.74.39-1.69.92-2.24,4.32-4.49,8.89-8.76,13.08-13.37,20.1-22.11,43.23-40.36,69.25-55.05,17.67-9.98,36.34-17.35,56-22.28,10.95-2.75,22.02-4.25,33.36-3.65,2.87.16,3.74,1.1,3.57,3.91Z"/>
        <path class="cls-1" d="M734.85,261.97c-5.74,0-10.96-.29-16.14.05-22.75,1.5-44.01,8.46-64.58,17.89-26.51,12.14-49.76,28.93-71.01,48.79-8.78,8.19-16.27,17.25-22.8,27.21-.47.72-1.09,1.33-1.59,1.93-1.37-5.18-2.8-10.2-3.95-15.29-.31-1.37-.18-3.15.46-4.37,10.27-19.64,22.48-38.01,36.71-55,27.07-32.31,60.17-55.46,101.55-65.45,8.11-1.96,16.68-2.01,25.05-2.82,3.25-.32,5.35,1.15,6.8,4.28,4.95,10.7,7.27,22.02,8.58,33.63.32,2.78.57,5.57.92,9.15Z"/>
        <path class="cls-1" d="M558.61,398.19c-.14.35-.3.69-.46,1.03.07-.36.2-.73.37-1.12,0,0,.01,0,.01.01,0,0,.02.01.03.03.01,0,.03,0,.04.03,0,.01.01.02.01.02Z"/>
        <path class="cls-1" d="M740.68,474.4c-1.87,7.26-5.99,14.01-12.18,19.6-7.57,6.83-17,6.41-26.11,6.4-19.57-.03-37.71-5.94-55.1-14.45-28.24-13.8-52.34-33.13-73.93-55.77-4.58-4.8-8.94-9.81-13.42-14.7-.85-.92-1.81-1.73-3.44-2.19.66,1.56,1.16,3.21,2,4.67,6.09,10.64,14.3,19.58,22.99,28.08,21.08,20.63,44.63,37.78,71.99,49.17,18.94,7.89,38.64,12.2,59.36,10.32.08.35.16.69.25,1.03-6.96,1.9-13.83,4.31-20.9,5.6-12.77,2.33-25.12-.65-37.28-4.37-23.52-7.2-42.54-21.79-61.11-37.14-14.85-12.26-27.64-26.48-39.86-41.29-1.94-2.36-2.34-4.56-1.66-7.38,1.53-6.31,2.83-12.67,4.35-18.98.32-1.29.93-2.51,1.51-3.75,0-.01.01-.02.01-.03-.04.16-.06.32-.08.47-.27,2.45,1.53,4.17,3.25,5.65,9.08,7.82,17.81,16.18,27.6,23,13.16,9.17,26.78,17.87,40.93,25.41,25.86,13.77,53.51,22.27,83.02,22.95,9.19.22,18.42-1.47,27.81-2.3Z"/>
        <path class="cls-1" d="M558.6,398.17h.01v.02s-.01-.01-.01-.02Z"/>
        <path class="cls-1" d="M742.28,464.29c-.09,3.04-2.14,3.43-4.23,3.99-9.61,2.57-19.4,3.07-29.26,2.41-27.7-1.83-53.48-10.28-78.12-22.7-20.95-10.56-40.1-23.83-58.32-38.51-4.62-3.72-9.16-7.53-13.74-11.31v-8.47c.3-.32.61-.64.91-.95,3.69,2.41,7.37,4.84,11.08,7.22,4.37,2.82,8.49,6.2,13.19,8.28,27.07,11.99,55.1,20.94,84.65,24.04,20.72,2.17,41.54,3.11,62.02-2.37,2.42-.65,3.78-.07,4.79,2.23,5.09,11.52,7.4,23.55,7.03,36.14Z"/>
        <path class="cls-1" d="M719.36,209.53c-13.52-.43-25.82,1.89-37.77,5.54-30.08,9.19-56.43,24.75-78.6,47.26-17.31,17.57-32.25,36.91-44.03,58.59-2.35,4.32-3.72,9.17-5.42,13.46-2.82-5.48-5.84-11.16-8.65-16.94-.47-.97-.41-2.6.09-3.58,6.92-13.64,13.32-27.61,21.11-40.74,13.76-23.2,30.26-44.31,51.73-61.05,14.35-11.19,29.97-20.09,48.03-23.61,21.7-4.22,39.01,3.6,53.51,21.07Z"/>
        <path class="cls-1" d="M731.22,419.67c-.28.52-.57,1.04-.85,1.56-32.54,5.34-64.98,3.55-96.59-5.36-44.5-12.54-58.65-19.06-64.1-26.19,9.5-.51,18.78-.68,27.99-1.58,23.23-2.26,46.43-4.81,69.62-7.39,4.02-.44,7.94-2.14,11.94-2.29,3.14-.13,6.58.68,9.45,2.03,12.13,5.66,21.9,14.45,30.62,24.44,4.16,4.77,7.96,9.84,11.92,14.78Z"/>
        <path class="cls-1" d="M713.79,332.99c-3.87,4.81-7.62,9.72-11.64,14.4-6.95,8.09-14.69,15.28-24,20.66-2.88,1.66-5.09,3.74-2,7.45-20.19,2.04-39.6,4.08-59.03,5.96-19.24,1.85-38.5,3.54-58.02,5.33v-5.72c16.63-6.92,32.72-13.6,48.79-20.31,25.93-10.83,52.51-19.69,79.91-25.89,8.24-1.87,16.79-2.32,25.19-3.42.27.51.53,1.03.8,1.54Z"/>
        <path class="cls-1" d="M404.34,641.19c-5.65,2.49-11.08,5.84-16.98,7.29-10.75,2.63-21.83,2.73-32.65.04-15.58-3.86-28.19-12.6-37.47-25.53-5.33-7.42-9.42-15.74-13.97-23.7-.74-1.28-1.01-2.84-1.55-4.46,7.67-.86,15.06-1.81,22.49-2.39,1.03-.08,2.56,1.43,3.24,2.58,3.48,5.93,6.62,12.07,10.13,17.99,8.69,14.63,19.8,26.91,35.08,34.92,1.6.84,3.62.86,5.58.76-19.3-15.88-35.52-33.9-46.74-56.32,6.19-1.14,12.15-2.24,18.09-3.34,9.88,16.36,26.45,31.87,54.75,52.16Z"/>
        <path class="cls-1" d="M369.6,137.37c-10.33,7.08-20.82,13.23-27.44,24.19-16.11-2.2-32.72-4.46-49.76-6.78.48-.93,1.01-2.58,2.03-3.83,6.64-8.15,15.32-13.73,24.22-19,.83-.49,1.94-.73,2.91-.71,15.47.28,30.78,1.94,45.89,5.3.6.13,1.15.44,2.15.83Z"/>
        <path class="cls-1" d="M125.31,540.39c-8.41,12.41-17.24,24.36-29,33.83-.7.56-1.57.96-2.11,1.64-4.09,5.13-9.08,4.45-14.5,2.62-6.62-2.23-12.3-5.94-17.37-9.65,17.21-12.92,34.25-25.72,51.18-38.43,3.74,3.17,7.51,6.36,11.8,9.99Z"/>
        <path class="cls-1" d="M419.98,614.85c-2.31,8.29-6.24,15.37-12.75,21.36-19.99-13.34-37.47-29.28-52.17-48.42,5-1.58,9.89-3.18,14.82-4.62.64-.18,1.72.24,2.27.75,12.46,11.54,26.75,20.3,41.89,27.81,1.92.95,3.8,1.99,5.94,3.12Z"/>
        <path class="cls-1" d="M486.57,191.53c-11.36,7.07-21.95,13.66-32.72,20.36-9.42-6.22-19.2-12.67-29.38-19.4,2.34-1.86,4.71-4.1,7.41-5.83,7.93-5.12,15.94-10.11,24.05-14.95,1.15-.69,3.46-.92,4.4-.22,8.71,6.43,17.23,13.11,26.24,20.04Z"/>
        <path class="cls-1" d="M415.55,150.43c-10.96,6.92-21.4,13.86-30.16,23.34-12.45-3.69-25.35-7.52-38.58-11.44.25-.4.62-1.52,1.39-2.15,7.9-6.43,15.81-12.87,23.85-19.13,2.75-2.14,5.94-2.48,9.42-1.38,10.7,3.37,21.47,6.54,32.2,9.8.56.17,1.05.53,1.88.96Z"/>
        <path class="cls-1" d="M453.58,167.32c-11.41,7.46-22.71,14.86-33.95,22.2-9.82-4.47-20.01-9.1-30.61-13.92,1.14-1.17,2.2-2.62,3.58-3.6,8.22-5.82,16.53-11.53,24.79-17.29,3.23-2.24,6.24-2.43,9.91-.44,6.15,3.35,12.66,6.02,18.97,9.07,2.62,1.26,5.12,2.78,7.31,3.98Z"/>
        <path class="cls-1" d="M110.07,526.12c-16.7,13.2-33.24,26.28-49.99,39.53-6.11-6.17-8.46-13.19-8.42-21.09.01-.89.92-2.13,1.75-2.6,13.12-7.3,26.21-14.66,39.49-21.68,7.18-3.8,7.32-3.51,13.01,2.03,1.18,1.16,2.44,2.24,4.16,3.81Z"/>
        <path class="cls-1" d="M311.11,131.14c-4.15,3.36-8.76,6.72-12.91,10.58-2.85,2.66-5.37,5.8-7.48,9.1-2.5,3.92-5.44,5.68-10.3,5.63-11.21-.1-22.43.41-33.64.81-2.11.07-4.19.77-6.29,1.18-.28-.27-.57-.54-.85-.81,2.69-3.52,5.13-7.29,8.13-10.53,10.62-11.46,24.1-16.09,39.48-15.97,8.02.06,16.05.01,23.86.01Z"/>
        <path class="cls-1" d="M508.49,218.07c-9.63,5.04-18.6,9.83-27.7,14.38-.88.43-2.81-.3-3.75-1.09-6.32-5.32-12.49-10.79-18.91-16.38,4.37-2.82,8.92-5.76,13.46-8.71,5.24-3.39,10.41-6.89,15.75-10.11.95-.57,3.22-.6,3.76.05,5.89,7.13,11.55,14.44,17.39,21.86Z"/>
        <path class="cls-1" d="M129.3,378.37c-4.94,4.04-9.93,4.95-14.87,5.8-16.89,2.91-30.07-5.66-37.83-19.3-15.16-26.61-4.77-56.28,17.61-71.92,5.2-3.63,11.09-5.29,18.32-5.52-4.53,2.11-8.36,3.53-11.82,5.56-12.28,7.23-18.61,18.54-21.23,32.18-2.47,12.85-1.16,25.19,5.51,36.66,8.4,14.42,24.03,21.1,40.29,17.33.97-.23,1.95-.39,4.02-.79Z"/>
        <path class="cls-1" d="M549.32,497.62c-1.82,6.95-5.55,12.97-10.18,18.43-.63.75-2.66.91-3.78.56-2.91-.93-5.74-2.15-8.47-3.51-7.86-3.91-15.67-7.95-24.04-12.22,2-2.3,3.96-4.56,5.93-6.82,1.6-1.82,3.67-3.39,4.73-5.48,1.87-3.69,4.45-3.63,7.6-2.36,9.21,3.71,18.41,7.44,28.21,11.4Z"/>
        <path class="cls-1" d="M536.3,521.72c-7.28,5.45-13.77,10.52-20.55,15.17-1.24.84-4.12.58-5.49-.32-3.82-2.49-7.24-5.59-10.83-8.45-4.27-3.41-8.54-6.81-13.51-10.76,3.67-3.44,7.16-6.94,10.92-10.11.92-.78,2.95-1.05,4.1-.6,8.16,3.2,16.24,6.62,24.31,10.04,3.28,1.39,6.49,2.94,11.05,5.03Z"/>
        <path class="cls-1" d="M144.13,557.85c-3.69,7.95-9.99,13.19-17.42,17.63-10.12,6.05-21.03,6.61-32.4,6.14,14.59-9.83,25.17-23.21,35.08-37.49,4.91,3.42,9.93,6.82,14.77,10.45.53.4.4,2.34-.03,3.27Z"/>
        <path class="cls-1" d="M420.94,609.24c-.37.32-.74.65-1.1.97-14.54-9.25-29.07-18.51-43.6-27.76.12-.47.24-.93.36-1.39,5.67-1.65,11.33-3.33,17.02-4.9.79-.22,1.82-.07,2.61.25,7.33,2.89,14.65,5.81,21.91,8.87,1.11.47,2.64,1.74,2.67,2.68.23,7.09.13,14.18.13,21.28Z"/>
        <path class="cls-1" d="M125.13,315c.03,8.53-6.92,15.43-15.64,15.55-7.46.09-14.12-6.9-14-14.7.13-8.3,6.98-15.41,14.89-15.46,8.64-.05,14.72,5.97,14.75,14.61Z"/>
        <path class="cls-1" d="M516.92,250.51c-3.66,2.29-7.39,4.51-11.27,6.4-.96.46-3.05.04-3.81-.75-5.98-6.24-11.76-12.66-17.9-19.35,8.3-4.51,16.87-9.17,25.7-13.96,4.09,8.29,7.25,16.29,8.54,24.91.13.86-.52,2.29-1.26,2.75Z"/>
        <path class="cls-1" d="M96.59,512.33c-14.66,8.33-29.42,16.72-44.04,25.03,1.32-13.02,16.16-29.84,33.52-37.3,3.54,4.13,7.16,8.35,10.52,12.27Z"/>
        <path class="cls-1" d="M552.84,474.17c-.21,6.17-.66,12.33-1.03,18.49-.56.32-1.13.64-1.7.97-9.76-4.13-19.52-8.26-29.55-12.5,3.56-5.37,6.84-10.44,10.29-15.39.34-.48,1.84-.53,2.63-.26,5.9,2,11.78,4.06,17.59,6.28.81.31,1.79,1.6,1.77,2.41Z"/>
        <path class="cls-1" d="M509.4,541.94c-7,2.23-13.22,4.52-19.62,6.05-1.62.39-4.07-1.31-5.71-2.6-5.09-4.01-9.97-8.27-15.36-12.8,5.2-4.03,9.71-7.52,14.33-11.1,8.46,6.56,16.88,13.09,26.36,20.45Z"/>
        <path class="cls-1" d="M253.98,137.06c-3,2.65-6.43,5.15-9.18,8.25-2.84,3.2-4.85,7.12-7.56,10.46-1.41,1.73-3.35,3.66-5.37,4.14-12.96,3.1-26,5.82-38.24,8.5,6.73-9.28,43.24-28.52,60.35-31.35Z"/>
        <path class="cls-1" d="M147.14,345.24c-.04,5.18-4.97,9.93-10.23,9.85-5.04-.08-9.6-4.69-9.47-9.59.12-4.49,5.39-9.62,9.79-9.53,5.09.11,9.94,4.64,9.91,9.27Z"/>
        <path class="cls-1" d="M481.58,549.33c-10.94,2.41-23.59.39-30.09-4.86,5.04-3.4,9.77-6.58,14.47-9.75,5.28,4.94,10.34,9.67,15.62,14.61Z"/>
        <path class="cls-1" d="M519.88,254.86v22.89c-4.59-5.66-8.92-11.01-13.63-16.82,4.55-2.03,8.79-3.92,13.63-6.07Z"/>
        <path class="cls-1" d="M419.29,579.77c-.34.29-.69.58-1.04.86-5.96-2.26-11.92-4.52-17.88-6.78-.01-.34-.02-.68-.04-1.03,4.17-1.92,8.34-3.83,13.3-6.11,1.97,4.55,3.82,8.81,5.66,13.06Z"/>
        <path class="cls-1" d="M551.46,466.73c-6.07-2.08-11.59-3.97-17.28-5.91,2.26-3.71,4.14-6.8,6.02-9.88,4.48,2.56,7.9,7.31,11.26,15.79Z"/>
        <path class="cls-1" d="M140,320.53c-.81,2.08-2.64,3.77-4.88,6.64-1.54-2.52-3.25-4.26-2.91-4.92,1.08-2.01,2.93-3.62,4.48-5.38,1.18,1.25,3.58,2.97,3.31,3.66Z"/>
        <path class="cls-1" d="M56.39,153.44c6.1,4.61,9.12,4.96,13.13,1.54,3.61-3.09,3.61-6.31,0-13.45,3.76-2.01,9.1-.25,13.19,4.36,4.15,4.68,4.5,12.42.8,17.79-3.7,5.38-11.43,7.75-17.76,5.45-6.28-2.28-10.21-8.86-9.37-15.7Z"/>
        <path class="cls-1" d="M70.44,146.6c-.85,4.15-2.68,6.44-5.51,6.47-3.05.03-5.78-2.39-5.65-5.03.13-2.6,4.44-6.57,7.42-5.91,1.5.33,2.51,2.91,3.74,4.47Z"/>
        <path class="cls-1" d="M43.26,209.7c4.43-.81,8.07-2.04,9.13-7.38-1.39.82-2.24,1.65-3.2,1.81-1.46.24-3,0-4.5-.03.26-1.67-.04-3.81.89-4.92,2.7-3.24,6.41-3.2,10.18-1.95,4.39,1.45,7.26,5.44,7.28,10.16.02,4.03-2.7,7.65-6.86,9.13-3.71,1.32-8.72-.21-11.31-3.59-.65-.84-.98-1.93-1.61-3.22Z"/>
        <path class="cls-1" d="M509.56,595.23c-5.61,0-11.03-5.15-11.06-10.5-.03-6.15,5.17-11.76,10.8-11.65,6.13.12,11.53,5.3,11.49,11.04-.04,6.19-5.02,11.12-11.23,11.11Z"/>
        <path class="cls-1" d="M573.56,553.02c-4.47,0-8.81-4.3-8.92-8.84-.11-4.48,3.68-8.67,7.9-8.74,5.28-.09,9.67,3.92,9.65,8.79-.03,5.07-3.68,8.79-8.63,8.79Z"/>
        <path class="cls-1" d="M550.47,589.41c.63-.53,1.8-1.51,2.98-2.49,1.09,1.48,2.53,2.85,3.09,4.51.22.65-1.43,2.68-2.42,2.83-2.42.36-3.62-1.27-3.65-4.84Z"/>
        <path class="cls-1" d="M111.98,131.94c1.73,2.47,3.31,3.79,3.47,5.26.1.96-1.88,2.13-2.93,3.21-1.17-1.22-2.87-2.28-3.32-3.73-.28-.9,1.32-2.39,2.78-4.74Z"/>
        <path d="M248.7,338.67c1.3-33.53,18.18-57.32,46.04-66.6,20.57-6.85,39.99-3.33,56.82,10.6,22.24,18.41,30.99,42.42,24.76,70.42-4,17.95-14.69,32.83-31.24,41.81-29.38,15.95-61.06,9.43-81.67-15.79-10.5-12.85-14.69-27.76-14.7-40.44ZM315.06,278.08c-7.74-.46-15.09.85-21.77,3.68-22.68,9.61-37.38,32.78-35.78,57.38,1.14,17.6,6.8,33.54,21.66,44.29,18.96,13.71,39.33,15.06,60.4,4.76,7.71-3.77,15.5-10.8,18.02-16.44-1.18.89-2.16,1.49-2.97,2.26-8.26,7.8-18.17,11.49-29.4,12.28-16.67,1.17-30.71-3.95-41.54-16.91-10.48-12.54-12.49-27.37-11.02-42.95,1.23-13.08,5.94-24.63,15.31-34.26,7.56-7.77,17.02-11.38,27.09-14.09ZM293.01,310.95c.03,11.36,8.42,20.33,18.99,20.3,10.5-.03,20.14-9.85,20.2-20.58.06-10.67-9.12-19.26-20.53-19.21-10.8.05-18.68,8.29-18.65,19.49ZM349.06,335.92c-5.7,0-11.65,5.56-11.63,10.89.02,5.7,5.87,11.3,11.76,11.24,6.01-.06,12.13-5.35,12.15-10.51.03-6.06-5.84-11.61-12.29-11.61ZM351.24,318.47c-2.77-1.77-4.62-3.89-6.03-3.63-1.74.33-4.08,2.45-4.4,4.13-.43,2.27,1.21,5.3,4.02,4.74,2.03-.4,3.64-2.87,6.41-5.25Z"/>
        <path d="M197.13,363.58c8.3,0,15.81-2.5,22.59-7.19.76-.52,1.41-1.81,1.39-2.73-.09-5.43.57-6.56,4.31-6.61,4.08-.05,8,3.29,7.52,7-1.8,13.99-3.42,28.02-5.96,41.88-1.61,8.77-6.96,15.9-14.1,21.25-6.74,5.05-18.76,6.08-26.95-4.1-8.59-10.67-12.44-22.99-13.93-36.3-.25-2.28-.75-4.57-.72-6.85.06-4.39-.33-8.43-2.93-12.33-1.06-1.59-.94-4.93.06-6.64.91-1.55,3.7-2.51,5.76-2.73,2.51-.27,4.16,1.49,3.35,4.2-1.02,3.4.47,5.23,3.22,6.8,5.41,3.11,9.91,4.39,16.39,4.37ZM222.25,384.98c-.36-.32-.72-.63-1.08-.95-1.97.25-4.04.2-5.9.8-10,3.22-16.82,9.66-19.7,19.96-1.23,4.39-.02,6.3,4.55,7.07,6.06,1.02,11.99-1.87,15.17-8.51,2.82-5.88,4.68-12.23,6.96-18.37Z"/>
        <path d="M305.35,220.07c11.56,1.42,21.09,5.55,27.06,15.65,3.77,6.38,2.08,12.42-4.35,15.33-1.72.78-3.99,1.04-5.84.67-8.24-1.63-16.41-3.56-24.6-5.43-6.87-1.57-10.47-5.69-10.67-12.11-.2-6.32,3.28-10.75,10.1-12.55,2.82-.74,5.74-1.1,8.3-1.57ZM304.46,227.57c-2.5.8-5.93,1.44-8.92,2.97-3.21,1.64-3.07,4.63-.04,6.63,1.04.68,2.28,1.18,3.49,1.45,8.07,1.78,16.13,3.56,24.24,5.12,1.13.22,3.06-.39,3.58-1.25.49-.82,0-2.79-.75-3.67-5.4-6.39-12.37-9.98-21.61-11.24Z"/>
        <path d="M348.69,404.35c5.52,1.51,11.4,2.65,16.89,4.77,4.78,1.85,7.89,5.91,7.92,11.25.03,5.44-2.96,9.43-7.79,11.8-10.19,5-20.87,5.76-31.64,2.54-5.78-1.73-10.45-5.57-10.8-12.08-.38-7.09,4.19-11.84,10.1-14.5,4.52-2.03,9.76-2.48,15.32-3.78ZM344.71,431.3c8.91-.76,15.88-1.11,21.33-6.1,3.82-3.51,3.7-7.61-.85-9.97-4.3-2.23-9.14-3.99-13.92-4.57-7.11-.85-14.35-.15-20.09,5.02-4.9,4.41-4.37,9.47,1.59,12.1,4.33,1.91,9.14,2.73,11.93,3.52Z"/>
        <path d="M107.56,252.43c.97-2.43,1.45-5.25,3.01-7.22,5.81-7.36,13.25-11.81,23.02-11.34,5.15.25,8.51,2.5,9.99,6.81,1.39,4.05.3,9.2-4.01,11.3-7.24,3.54-14.88,6.5-22.65,8.61-5.08,1.37-8.82-2.72-9.36-8.16ZM117.43,254.3c6.02-2.61,12.09-5.13,18.02-7.93.82-.39,1.49-2.15,1.36-3.18-.1-.8-1.42-1.77-2.39-2.09-4.87-1.63-17.36,4.28-19.45,9.09-.97,2.22-.15,3.37,2.45,4.11Z"/>
        <path d="M450.43,347.43c6.71-3.26,10.57-8.67,12.79-15.51,3.6-11.11.89-21.22-8.18-28.54-3.66-2.95-7.75-5.35-11.56-8.12-1.61-1.17-4.2-2.17-1.9-5.01.11-.14-1.01-1.27-1.27-2.51,2.47,1.08,4.95,2.13,7.4,3.26,9.86,4.58,18.43,10.53,22.25,21.36,4.24,12.01,1.9,23.01-6.17,32.51-2.14,2.52-6.21,3.51-9.54,4.82-.93.37-2.41-.65-3.63-1.03-.06-.41-.11-.82-.17-1.23Z"/>
        <path d="M451.35,409.66c1.81-1.19,3.54-2.54,5.45-3.53,10.81-5.65,16.14-16.39,13.3-28.15-1.83-7.57-6.95-12.82-13.63-16.72-1.76-1.02-3.01-2.9-4.5-4.39,2.17-.23,4.48-1.06,6.49-.6,13.34,3.04,22.72,19.93,18.99,34.23-2.71,10.38-8.48,18.23-19.5,20.91-1.93.47-4.07.07-6.11.07-.16-.6-.33-1.21-.49-1.81Z"/>
        <path d="M85.88,424.3c-5.09-1.81-10.17-3.02-14.68-5.34-6.91-3.54-4.9-13.92-.53-17.45,6.93-5.59,22.87-6.16,30.02-.95,6.64,4.84,6.72,14-.37,18.16-4.25,2.5-9.3,3.64-14.45,5.57ZM85.5,418.54c4.04-1.46,8.3-2.45,12-4.47,4.17-2.27,4.1-5.84.49-8.94-6.14-5.28-18.46-4.97-24.43.6-3.11,2.91-2.98,6.79.87,8.85,3.29,1.76,7.08,2.58,11.07,3.96Z"/>
        <path d="M492.69,348.71c7.03-2.24,17.25,3.33,21.87,10.71,6.37,10.17,5.49,22.95-2.16,31.33-5.74,6.29-13.64,8.8-19.78,5.53,2.01-1.08,3.52-2.01,5.12-2.74,11.03-4.99,16.15-15.36,12.81-25.93-2.01-6.35-6.48-10.52-11.9-13.98-1.92-1.23-3.56-2.91-5.97-4.92Z"/>
        <path d="M474.6,304.12c2.21-.1,4.59-.76,6.62-.19,9.68,2.72,16.04,9.02,18.77,18.77,2.77,9.91-.94,17.76-8.22,24.21-2.81,2.49-6.34,1.97-10.23,1.08,1.5-1.43,2.55-2.73,3.88-3.65,12.56-8.71,8.33-24.33.49-31.05-2.86-2.45-6.33-4.2-9.5-6.3-.7-.47-1.3-1.08-1.95-1.63.05-.41.1-.82.16-1.23Z"/>
        <path d="M295.21,556.85c-45.97,4.05-89.52-5.19-131.44-23.39,42.82,13.39,85.99,24.78,131.44,23.39Z"/>
        <path d="M436.2,279.78c7.84-7.34,9.47-15.17,6.85-24.4-2.76-9.72-9.7-13.72-19.9-14.96,3.7-3.59,7.11-2.89,10.15-2.32,8.56,1.6,15.57,10.29,16.96,20.53.77,5.69.39,11.21-2.69,16.28-2.28,3.76-5.59,5.33-11.36,4.86Z"/>
        <path d="M214.78,196.25c1.38-4.39,4.3-6.74,7.52-6.16,3.14.57,7.79,5.44,7.2,8.39-.39,1.95-2.01,4.1-3.71,5.15-.94.58-3.42-.57-4.76-1.56-2.21-1.63-4.07-3.75-6.25-5.82Z"/>
        <path d="M199.05,205.5c-2.7-.08-4.86-2.55-4.74-5.41.16-3.82,4.46-7.74,8.22-7.49,2.4.16,4.62,2.99,4.49,5.73-.14,2.83-5.06,7.25-7.97,7.17Z"/>
        <path d="M211.78,213.42c-2.05-2.64-3.76-3.99-4.21-5.68-.43-1.6.46-3.94,2.91-3.34,2.14.52,5.99-.82,5.74,3.17-.1,1.65-2.32,3.18-4.44,5.86Z"/>
        <path class="cls-1" d="M315.06,278.08c-10.06,2.71-19.52,6.32-27.09,14.09-9.37,9.63-14.07,21.18-15.31,34.26-1.47,15.58.54,30.41,11.02,42.95,10.83,12.96,24.87,18.08,41.54,16.91,11.23-.79,21.14-4.48,29.4-12.28.82-.77,1.8-1.37,2.97-2.26-2.52,5.64-10.31,12.67-18.02,16.44-21.07,10.3-41.44,8.95-60.4-4.76-14.86-10.75-20.52-26.69-21.66-44.29-1.59-24.6,13.1-47.78,35.78-57.38,6.68-2.83,14.03-4.14,21.77-3.68Z"/>
        <path class="cls-1" d="M293.01,310.95c-.03-11.2,7.85-19.43,18.65-19.49,11.41-.06,20.59,8.54,20.53,19.21-.06,10.73-9.7,20.55-20.2,20.58-10.57.03-18.96-8.94-18.99-20.3Z"/>
        <path class="cls-1" d="M349.06,335.92c6.44,0,12.32,5.55,12.29,11.61-.03,5.16-6.14,10.45-12.15,10.51-5.89.06-11.74-5.53-11.76-11.24-.02-5.32,5.93-10.89,11.63-10.89Z"/>
        <path class="cls-1" d="M351.24,318.47c-2.77,2.38-4.39,4.85-6.41,5.25-2.82.55-4.46-2.47-4.02-4.74.32-1.68,2.66-3.81,4.4-4.13,1.41-.26,3.27,1.86,6.03,3.63Z"/>
        <path class="cls-1" d="M222.25,384.98c-2.28,6.14-4.13,12.49-6.96,18.37-3.19,6.64-9.12,9.53-15.17,8.51-4.57-.77-5.78-2.68-4.55-7.07,2.88-10.3,9.7-16.74,19.7-19.96,1.86-.6,3.93-.55,5.9-.8.36.32.72.63,1.08.95Z"/>
        <path class="cls-1" d="M304.46,227.57c9.24,1.26,16.2,4.85,21.61,11.24.75.88,1.24,2.86.75,3.67-.51.86-2.44,1.47-3.58,1.25-8.11-1.56-16.18-3.34-24.24-5.12-1.22-.27-2.45-.77-3.49-1.45-3.03-2-3.17-4.99.04-6.63,2.98-1.52,6.42-2.17,8.92-2.97Z"/>
        <path class="cls-1" d="M344.71,431.3c-2.79-.79-7.6-1.61-11.93-3.52-5.96-2.63-6.5-7.68-1.59-12.1,5.74-5.17,12.98-5.87,20.09-5.02,4.77.57,9.62,2.34,13.92,4.57,4.55,2.36,4.67,6.46.85,9.97-5.45,4.99-12.42,5.34-21.33,6.1Z"/>
        <path class="cls-1" d="M117.43,254.3c-2.6-.74-3.41-1.89-2.45-4.11,2.09-4.81,14.58-10.72,19.45-9.09.97.33,2.29,1.29,2.39,2.09.12,1.02-.54,2.79-1.36,3.18-5.94,2.79-12,5.32-18.02,7.93Z"/>
        <path class="cls-1" d="M85.5,418.54c-3.99-1.38-7.78-2.2-11.07-3.96-3.85-2.06-3.98-5.95-.87-8.85,5.97-5.57,18.29-5.87,24.43-.6,3.61,3.1,3.68,6.67-.49,8.94-3.7,2.02-7.96,3.01-12,4.47Z"/>
        <path d="M750.25,443.75c-5.29-27.05-21.07-47.47-42.62-63.79-4.59-3.48-9.69-6.29-14.66-9.48,1.52-1.22,2.97-2.25,4.28-3.43,17-15.52,29.39-34.27,38.15-55.41,8.24-19.88,10.06-40.68,7.97-61.99-1.86-18.88-7.54-36.18-20.04-50.78-14.12-16.5-32.29-23.42-53.64-20.98-24.18,2.76-44.55,14.35-62.72,29.84-28.82,24.57-49.8,54.91-64.51,89.7-1.07,2.53-1.96,5.14-2.8,7.36-3.42-4.59-6.74-8.76-9.69-13.17-1.17-1.75-2.19-4.09-2.1-6.11.31-7.61,1.81-15.22,1.61-22.8-.59-22.26-7.08-42.72-20.81-60.51-20.94-27.12-48.36-45.61-79.91-57.98-29.8-11.69-60.49-19.92-92.64-22.52-32.77-2.65-64.99-1.94-96.39,9.38-15.29,5.52-29.7,12.46-42.19,22.86-4.87,4.05-9.64,8.6-13.08,13.83-2.93,4.44-5.87,7.79-11.06,8.98-.73.17-1.41.59-2.11.9-16.52,7.24-31.31,17.13-44.97,28.85-17.67,15.18-32.89,32.39-44.91,52.43-18.91,31.56-29.37,65.86-33.11,102.25-2.76,26.81-.31,53.25,7.75,79.07,5.67,18.14,14.14,34.95,24.7,51.08-1.22.75-2.37,1.51-3.56,2.19-10.45,6.02-19.24,13.91-26.24,23.72-12.62,17.68-12.83,41.34,4.99,58.43,9.44,9.04,20.75,13.7,33.51,15.32,19.29,2.45,37.26-.5,52.49-13.49,4.54-3.88,8.49-8.47,12.51-12.91,1.62-1.79,2.87-1.96,4.88-.75,20.38,12.18,42.5,19.83,65.53,25.07,6.72,1.52,13.73,2.01,20.26,4.08,6.66,2.1,13.39,1.92,20.11,2.47,8.51.7,17.05.99,25.55,1.45,5.75,13.88,12.1,27.46,22.15,38.71,18.37,20.61,41.57,28.88,68.9,25.26,13.39-1.78,24.9-7.4,33.47-18.17,9.74-12.27,15.46-26.14,15.61-41.93.13-13.49-.67-26.86-9.39-38.18,7.07-4.32,14.23-8.7,21.59-13.2,6.4,5.1,13.64,9.04,22.21,9.81,18.38,1.65,35.86-1.39,52.04-10.6,25.61-14.58,42.04-35.58,45.27-65.58,1.54-14.29-1.9-26.86-13.61-36.29-5.22-4.21-5.17-4.28-1.77-12.05,1.98,2.31,3.78,4.23,5.37,6.3,2.63,3.45,4.92,7.18,7.72,10.48,19.77,23.33,42.63,42.99,69.77,57.28,18.77,9.89,38.61,16.62,60.25,14.26,24.34-2.65,43.74-13.83,55.57-35.83,7.35-13.67,7.2-28.71,4.32-43.43ZM719.3,404.89c4.16,4.77,7.96,9.84,11.92,14.78-.28.52-.57,1.04-.85,1.56-32.54,5.34-64.98,3.55-96.59-5.36-44.5-12.54-58.65-19.06-64.1-26.19,9.5-.51,18.78-.68,27.99-1.58,23.23-2.26,46.43-4.81,69.62-7.39,4.02-.44,7.94-2.14,11.94-2.29,3.14-.13,6.58.68,9.45,2.03,12.13,5.66,21.9,14.45,30.62,24.44ZM702.15,347.39c-6.95,8.09-14.69,15.28-24,20.66-2.88,1.66-5.09,3.74-2,7.45-20.19,2.04-39.6,4.08-59.03,5.96-19.24,1.85-38.5,3.54-58.02,5.33v-5.72c16.63-6.92,32.72-13.6,48.79-20.31,25.93-10.83,52.51-19.69,79.91-25.89,8.24-1.87,16.79-2.32,25.19-3.42.27.51.53,1.03.8,1.54-3.87,4.81-7.62,9.72-11.64,14.4ZM734.71,270.76c-1.11,18.25-5.72,35.48-14.58,51.53-1.92,3.48-4.66,4.63-8.68,4.89-23.86,1.52-46.99,6.91-69.39,15.04-19.91,7.23-39.62,15.03-59.19,23.11-8.07,3.33-15.57,8.06-23.39,12.18-.34-4.75-.71-9.41-.95-14.07-.03-.74.39-1.69.92-2.24,4.32-4.49,8.89-8.76,13.08-13.37,20.1-22.11,43.23-40.36,69.25-55.05,17.67-9.98,36.34-17.35,56-22.28,10.95-2.75,22.02-4.25,33.36-3.65,2.87.16,3.74,1.1,3.57,3.91ZM725.35,219.19c4.95,10.7,7.27,22.02,8.58,33.63.32,2.78.57,5.57.92,9.15-5.74,0-10.96-.29-16.14.05-22.75,1.5-44.01,8.46-64.58,17.89-26.51,12.14-49.76,28.93-71.01,48.79-8.78,8.19-16.27,17.25-22.8,27.21-.47.72-1.09,1.33-1.59,1.93-1.37-5.18-2.8-10.2-3.95-15.29-.31-1.37-.18-3.15.46-4.37,10.27-19.64,22.48-38.01,36.71-55,27.07-32.31,60.17-55.46,101.55-65.45,8.11-1.96,16.68-2.01,25.05-2.82,3.25-.32,5.35,1.15,6.8,4.28ZM544.98,313.86c6.92-13.64,13.32-27.61,21.11-40.74,13.76-23.2,30.26-44.31,51.73-61.05,14.35-11.19,29.97-20.09,48.03-23.61,21.7-4.22,39.01,3.6,53.51,21.07-13.52-.43-25.82,1.89-37.77,5.54-30.08,9.19-56.43,24.75-78.6,47.26-17.31,17.57-32.25,36.91-44.03,58.59-2.35,4.32-3.72,9.17-5.42,13.46-2.82-5.48-5.84-11.16-8.65-16.94-.47-.97-.41-2.6.09-3.58ZM509.64,222.85c4.09,8.29,7.25,16.29,8.54,24.91.13.86-.52,2.29-1.26,2.75-3.66,2.29-7.39,4.51-11.27,6.4-.96.46-3.05.04-3.81-.75-5.98-6.24-11.76-12.66-17.9-19.35,8.3-4.51,16.87-9.17,25.7-13.96ZM519.88,254.86v22.89c-4.59-5.66-8.92-11.01-13.63-16.82,4.55-2.03,8.79-3.92,13.63-6.07ZM491.1,196.21c5.89,7.13,11.55,14.44,17.39,21.86-9.63,5.04-18.6,9.83-27.7,14.38-.88.43-2.81-.3-3.75-1.09-6.32-5.32-12.49-10.79-18.91-16.38,4.37-2.82,8.92-5.76,13.46-8.71,5.24-3.39,10.41-6.89,15.75-10.11.95-.57,3.22-.6,3.76.05ZM460.33,171.49c8.71,6.43,17.23,13.11,26.24,20.04-11.36,7.07-21.95,13.66-32.72,20.36-9.42-6.22-19.2-12.67-29.38-19.4,2.34-1.86,4.71-4.1,7.41-5.83,7.93-5.12,15.94-10.11,24.05-14.95,1.15-.69,3.46-.92,4.4-.22ZM427.3,154.27c6.15,3.35,12.66,6.02,18.97,9.07,2.62,1.26,5.12,2.78,7.31,3.98-11.41,7.46-22.71,14.86-33.95,22.2-9.82-4.47-20.01-9.1-30.61-13.92,1.14-1.17,2.2-2.62,3.58-3.6,8.22-5.82,16.53-11.53,24.79-17.29,3.23-2.24,6.24-2.43,9.91-.44ZM381.47,139.67c10.7,3.37,21.47,6.54,32.2,9.8.56.17,1.05.53,1.88.96-10.96,6.92-21.4,13.86-30.16,23.34-12.45-3.69-25.35-7.52-38.58-11.44.25-.4.62-1.52,1.39-2.15,7.9-6.43,15.81-12.87,23.85-19.13,2.75-2.14,5.94-2.48,9.42-1.38ZM321.56,131.24c15.47.28,30.78,1.94,45.89,5.3.6.13,1.15.44,2.15.83-10.33,7.08-20.82,13.23-27.44,24.19-16.11-2.2-32.72-4.46-49.76-6.78.48-.93,1.01-2.58,2.03-3.83,6.64-8.15,15.32-13.73,24.22-19,.83-.49,1.94-.73,2.91-.71ZM311.11,131.14c-4.15,3.36-8.76,6.72-12.91,10.58-2.85,2.66-5.37,5.8-7.48,9.1-2.5,3.92-5.44,5.68-10.3,5.63-11.21-.1-22.43.41-33.64.81-2.11.07-4.19.77-6.29,1.18-.28-.27-.57-.54-.85-.81,2.69-3.52,5.13-7.29,8.13-10.53,10.62-11.46,24.1-16.09,39.48-15.97,8.02.06,16.05.01,23.86.01ZM253.98,137.06c-3,2.65-6.43,5.15-9.18,8.25-2.84,3.2-4.85,7.12-7.56,10.46-1.41,1.73-3.35,3.66-5.37,4.14-12.96,3.1-26,5.82-38.24,8.5,6.73-9.28,43.24-28.52,60.35-31.35ZM100.71,292.99c-12.28,7.23-18.61,18.54-21.23,32.18-2.47,12.85-1.16,25.19,5.51,36.66,8.4,14.42,24.03,21.1,40.29,17.33.97-.23,1.95-.39,4.02-.79-4.94,4.04-9.93,4.95-14.87,5.8-16.89,2.91-30.07-5.66-37.83-19.3-15.16-26.61-4.77-56.28,17.61-71.92,5.2-3.63,11.09-5.29,18.32-5.52-4.53,2.11-8.36,3.53-11.82,5.56ZM125.13,315c.03,8.53-6.92,15.43-15.64,15.55-7.46.09-14.12-6.9-14-14.7.13-8.3,6.98-15.41,14.89-15.46,8.64-.05,14.72,5.97,14.75,14.61ZM137.23,335.97c5.09.11,9.94,4.64,9.91,9.27-.04,5.18-4.97,9.93-10.23,9.85-5.04-.08-9.6-4.69-9.47-9.59.12-4.49,5.39-9.62,9.79-9.53ZM132.21,322.25c1.08-2.01,2.93-3.62,4.48-5.38,1.18,1.25,3.58,2.97,3.31,3.66-.81,2.08-2.64,3.77-4.88,6.64-1.54-2.52-3.25-4.26-2.91-4.92ZM86.07,500.06c3.54,4.13,7.16,8.35,10.52,12.27-14.66,8.33-29.42,16.72-44.04,25.03,1.32-13.02,16.16-29.84,33.52-37.3ZM51.66,544.56c.01-.89.92-2.13,1.75-2.6,13.12-7.3,26.21-14.66,39.49-21.68,7.18-3.8,7.32-3.51,13.01,2.03,1.18,1.16,2.44,2.24,4.16,3.81-16.7,13.2-33.24,26.28-49.99,39.53-6.11-6.17-8.46-13.19-8.42-21.09ZM79.7,578.48c-6.62-2.23-12.3-5.94-17.37-9.65,17.21-12.92,34.25-25.72,51.18-38.43,3.74,3.17,7.51,6.36,11.8,9.99-8.41,12.41-17.24,24.36-29,33.83-.7.56-1.57.96-2.11,1.64-4.09,5.13-9.08,4.45-14.5,2.62ZM144.13,557.85c-3.69,7.95-9.99,13.19-17.42,17.63-10.12,6.05-21.03,6.61-32.4,6.14,14.59-9.83,25.17-23.21,35.08-37.49,4.91,3.42,9.93,6.82,14.77,10.45.53.4.4,2.34-.03,3.27ZM387.36,648.48c-10.75,2.63-21.83,2.73-32.65.04-15.58-3.86-28.19-12.6-37.47-25.53-5.33-7.42-9.42-15.74-13.97-23.7-.74-1.28-1.01-2.84-1.55-4.46,7.67-.86,15.06-1.81,22.49-2.39,1.03-.08,2.56,1.43,3.24,2.58,3.48,5.93,6.62,12.07,10.13,17.99,8.69,14.63,19.8,26.91,35.08,34.92,1.6.84,3.62.86,5.58.76-19.3-15.88-35.52-33.9-46.74-56.32,6.19-1.14,12.15-2.24,18.09-3.34,9.88,16.36,26.45,31.87,54.75,52.16-5.65,2.49-11.08,5.84-16.98,7.29ZM407.23,636.21c-19.99-13.34-37.47-29.28-52.17-48.42,5-1.58,9.89-3.18,14.82-4.62.64-.18,1.72.24,2.27.75,12.46,11.54,26.75,20.3,41.89,27.81,1.92.95,3.8,1.99,5.94,3.12-2.31,8.29-6.24,15.37-12.75,21.36ZM420.94,609.24c-.37.32-.74.65-1.1.97-14.54-9.25-29.07-18.51-43.6-27.76.12-.47.24-.93.36-1.39,5.67-1.65,11.33-3.33,17.02-4.9.79-.22,1.82-.07,2.61.25,7.33,2.89,14.65,5.81,21.91,8.87,1.11.47,2.64,1.74,2.67,2.68.23,7.09.13,14.18.13,21.28ZM400.33,572.82c4.17-1.92,8.34-3.83,13.3-6.11,1.97,4.55,3.82,8.81,5.66,13.06-.34.29-.69.58-1.04.86-5.96-2.26-11.92-4.52-17.88-6.78-.01-.34-.02-.68-.04-1.03ZM451.49,544.47c5.04-3.4,9.77-6.58,14.47-9.75,5.28,4.94,10.34,9.67,15.62,14.61-10.94,2.41-23.59.39-30.09-4.86ZM489.78,547.99c-1.62.39-4.07-1.31-5.71-2.6-5.09-4.01-9.97-8.27-15.36-12.8,5.2-4.03,9.71-7.52,14.33-11.1,8.46,6.56,16.88,13.09,26.36,20.45-7,2.23-13.22,4.52-19.62,6.05ZM515.75,536.89c-1.24.84-4.12.58-5.49-.32-3.82-2.49-7.24-5.59-10.83-8.45-4.27-3.41-8.54-6.81-13.51-10.76,3.67-3.44,7.16-6.94,10.92-10.11.92-.78,2.95-1.05,4.1-.6,8.16,3.2,16.24,6.62,24.31,10.04,3.28,1.39,6.49,2.94,11.05,5.03-7.28,5.45-13.77,10.52-20.55,15.17ZM539.14,516.05c-.63.75-2.66.91-3.78.56-2.91-.93-5.74-2.15-8.47-3.51-7.86-3.91-15.67-7.95-24.04-12.22,2-2.3,3.96-4.56,5.93-6.82,1.6-1.82,3.67-3.39,4.73-5.48,1.87-3.69,4.45-3.63,7.6-2.36,9.21,3.71,18.41,7.44,28.21,11.4-1.82,6.95-5.55,12.97-10.18,18.43ZM552.84,474.17c-.21,6.17-.66,12.33-1.03,18.49-.56.32-1.13.64-1.7.97-9.76-4.13-19.52-8.26-29.55-12.5,3.56-5.37,6.84-10.44,10.29-15.39.34-.48,1.84-.53,2.63-.26,5.9,2,11.78,4.06,17.59,6.28.81.31,1.79,1.6,1.77,2.41ZM551.46,466.73c-6.07-2.08-11.59-3.97-17.28-5.91,2.26-3.71,4.14-6.8,6.02-9.88,4.48,2.56,7.9,7.31,11.26,15.79ZM547.86,396.39c-3.09,20.75-10.16,39.75-21.56,57.21-13.26,20.3-29.33,38.25-46.01,55.78-13.62,14.3-30.61,23.61-46.63,34.51-20.08,13.68-56.91,27.95-78.83,32.69.58-7.82,1.06-15.65,1.88-23.45.13-1.18,1.69-2.5,2.91-3.22,11.86-7.05,22-16.17,31.32-26.22,1.63-1.77,2.76-1.17,4.26-.42,14.54,7.29,29.88,8.54,45.54,5.21,23.09-4.91,41.21-26,42.11-49.53.52-13.72-4.43-25.72-14.65-35.31-.95-.89-1.65-2.58-1.62-3.87.25-8.91-4.75-14.84-11.2-19.82-1.43-1.11-3.7-1.13-6.08-1.12,4.11,6.29,11.1,10.77,10.75,18.83-9.04-2.49-18.14-4.99-27.65-7.61-.04.28-.05-.31.14-.82,5.17-14.01,6.98-28.76,8.91-43.39,1.8-13.65.15-27.33-2.91-40.71-4.32-18.86-8.35-37.84-13.87-56.35-5.15-17.29-13.16-33.48-24.83-47.54-1.35-1.62-3.1-2.91-4.66-4.35-.3.2-.6.39-.9.59,1.24,2.4,2.27,4.94,3.75,7.17,12.04,18.14,21.15,37.54,26.07,58.84,2.98,12.93,6.5,25.74,9.32,38.7,5.07,23.22,4.51,46.44-1.2,69.5-1.4,5.69-3.14,11.29-4.7,16.94-.53,1.94-1.66,2.32-3.67,2.32-14.03.03-27.64,2.36-40.55,7.81-35.31,10.75-31.58,33.68-31.36,34.9-.06-.6-.11-1.21-.14-1.82-.12-2.57.7-5.18,1.09-7.76.44.02.88.05,1.31.08.41.75.96,1.46,1.19,2.26.21.72.43,1.43.68,2.13-1.34-17.42,36-25.23,42.86-26.52.26-.05.53-.1.79-.14.18-.03.28-.05.28-.05,9.27-1.53,18.63-2.28,28.16-1.58,11.68.86,23.16,2.82,32.65,10.5,6.18,5.01,9.69,11.75,11.57,19.39.14.57-.04,1.21-.12,2.76-29.91-4.03-59.54-8.03-89.18-12.02-.15.6-.3,1.2-.46,1.8,1.48.64,2.9,1.51,4.44,1.88,26.36,6.36,53.37,8.62,80.12,12.51,1.86.27,3.73.57,5.92.92-.32,8.9-2.58,16.85-8.27,23.47-1.01,1.18-3.4,1.65-5.15,1.64-18.01-.11-34.76-5.09-50.58-13.46-9.01-4.77-17.94-9.68-26.93-14.48-1.19-.64-2.51-1.04-3.77-1.55-.28.29-.56.59-.84.88,1.5,1.67,2.74,3.74,4.54,4.96,22.5,15.19,46.56,26.39,74.12,28.38.97.07,1.93.26,3.56.48-7.81,6.82-16.22,11.01-25.85,11.61-26.83,1.68-48.09-9.31-64.75-29.85-2.8-3.45-5.5-6.97-7.84-10.71l-9.39-5.66c1,9.22,5.99,16.79,11.64,23.81,6.64,8.26,14.01,15.88,23.78,21.65-9.68,13.05-22.12,22.15-35.49,29.61.4,9.33-.56,18.16-3.37,26.69-.49,1.5-2.7,3.15-4.35,3.45-10.65,1.97-21.3,4.37-32.07,5.14-15.11,1.07-30.35,1.63-45.48.99-17.73-.75-35.18-4.37-52.13-9.69-11.43-3.59-22.94-7.24-33.8-12.18-23.78-10.83-44.72-26.02-63.68-43.99-19.29-18.27-34.21-39.62-44.77-63.9-7.51-17.25-12.33-35.3-14.75-54.05-2.45-19.1-.51-37.96,1.81-56.86.13-1.07.61-2.1,1.5-3.2.48,2.59.9,5.19,1.44,7.76,3,14.37,9.88,26.69,21.25,35.86,17.44,14.07,43.4,10.49,58.07-7.72,10.46-12.99,16.63-27.68,15.75-44.76-.88-17.23-7.11-32.03-20.07-43.63-14.56-13.02-37.35-12.38-52.77,1.7-5.23,4.78-9.65,10.45-14.69,15.98.42-1.41.68-2.7,1.16-3.91,10.16-25.59,23.14-49.52,42.35-69.56,13.09-13.66,26.82-26.65,43.12-36.61,13.72-8.38,28.58-13.96,43.75-19,34.07-11.32,69-13.12,104.45-10.22,28.69,2.35,56.43,8.62,83.16,19.33,19.78,7.93,37.62,19.02,55.13,31.19,11.27,7.84,22.02,16.15,31.99,25.34,23.39,21.57,43.78,45.74,59.67,73.49,14.33,25.02,17.5,51.74,13.31,79.97ZM742.28,464.29c-.09,3.04-2.14,3.43-4.23,3.99-9.61,2.57-19.4,3.07-29.26,2.41-27.7-1.83-53.48-10.28-78.12-22.7-20.95-10.56-40.1-23.83-58.32-38.51-4.62-3.72-9.16-7.53-13.74-11.31v.02c-.14.35-.3.69-.46,1.03-.04.16-.06.32-.08.47-.27,2.45,1.53,4.17,3.25,5.65,9.08,7.82,17.81,16.18,27.6,23,13.16,9.17,26.78,17.87,40.93,25.41,25.86,13.77,53.51,22.27,83.02,22.95,9.19.22,18.42-1.47,27.81-2.3-1.87,7.26-5.99,14.01-12.18,19.6-7.57,6.83-17,6.41-26.11,6.4-19.57-.03-37.71-5.94-55.1-14.45-28.24-13.8-52.34-33.13-73.93-55.77-4.58-4.8-8.94-9.81-13.42-14.7-.85-.92-1.81-1.73-3.44-2.19.66,1.56,1.16,3.21,2,4.67,6.09,10.64,14.3,19.58,22.99,28.08,21.08,20.63,44.63,37.78,71.99,49.17,18.94,7.89,38.64,12.2,59.36,10.32.08.35.16.69.25,1.03-6.96,1.9-13.83,4.31-20.9,5.6-12.77,2.33-25.12-.65-37.28-4.37-23.52-7.2-42.54-21.79-61.11-37.14-14.85-12.26-27.64-26.48-39.86-41.29-1.94-2.36-2.34-4.56-1.66-7.38,1.53-6.31,2.83-12.67,4.35-18.98.32-1.29.93-2.51,1.51-3.75.07-.37.19-.76.37-1.16h.01s.01.01.01.02c0,0,.02.01.03.03.01,0,.03,0,.04.03h.01v-8.47c.3-.32.61-.64.91-.95,3.69,2.41,7.37,4.84,11.08,7.22,4.37,2.82,8.49,6.2,13.19,8.28,27.07,11.99,55.1,20.94,84.65,24.04,20.72,2.17,41.54,3.11,62.02-2.37,2.42-.65,3.78-.07,4.79,2.23,5.09,11.52,7.4,23.55,7.03,36.14Z"/>
        <path d="M361.34,479.37l-9.39-5.66s0-.02-.01-.05c-.06-.6-.11-1.21-.14-1.82-.12-2.57.7-5.18,1.09-7.76.44.02.88.05,1.31.08.41.75.96,1.46,1.19,2.26.21.72.43,1.43.68,2.13.25,3.26,1.85,6.86,5.27,10.82Z"/>
      </g>
    </g>
  </g>
</svg>