<?xml version="1.0" encoding="UTF-8"?>
<svg xmlns="http://www.w3.org/2000/svg" width="800" height="800" version="1.1" viewBox="0 0 800 800">
  <defs>
    <style>
      .cls-1 {
        fill: #fff;
      }
    </style>
  </defs>
  <!-- Generator: Adobe Illustrator 28.7.3, SVG Export Plug-In . SVG Version: 1.2.0 Build 164)  -->
  <g>
    <g id="Camada_1">
      <g>
        <path d="M187.41,402.54c-1.19-.31-2.36-.73-3.56-.91-20.54-3.08-38.19-12.45-54.65-24.67-21.77-16.17-37.19-37.34-49.19-61.32-8.58-17.14-15.51-34.86-19.83-53.57-5.56-24.05-8.53-48.32-7-73.04.91-14.68,3.62-28.9,10.25-42.21,9.27-18.65,24.22-28.54,45.01-29.77,11.15-.66,21.81,1.65,32.41,4.72,26.98,7.81,51.54,20.87,75.28,35.43,25.89,15.88,50.18,33.94,72.51,54.69,29.36,27.28,55.31,57.23,75.5,91.97.44.75.91,1.47,1.61,2.59,3.35-7.17,6.56-14.04,9.79-20.94-15.53-7.89-22.46-20.96-22.28-38.2.19-17.87,11.63-28.01,25.4-36.92-4.38-15.77-11.34-30.42-20.92-43.83-10.46-14.66-22.73-27.53-37.79-37.53-11.68-7.76-24.67-12.4-38.26-15.56-2.24-.52-2.89.49-3.85,2.26-3.23,5.96-8.68,8.12-15.23,8.35-6.68.23-10.45-3.54-12.71-9.13-2.38-5.89-2.49-11.68,2.19-16.77,6.98-7.59,23.16-6.35,27.39,1.88.65,1.27,2.62,2.33,4.14,2.6,25.11,4.42,46.02,16.42,63.54,34.74,16.33,17.07,29.18,36.32,37.32,58.58,1.15,3.15,1.89,6.46,3.09,9.59.35.91,1.59,2.05,2.47,2.09,5.07.2,10.15.1,15.06.1,3.22-8.09,5.92-16.26,9.64-23.93,10.72-22.09,25.6-41.11,44.67-56.57,12.52-10.16,27.02-16.86,42.52-21.32,3.35-.96,6.67-2.13,10.09-2.76,3.69-.68,6.08-1.94,8.21-5.64,2.72-4.74,8.53-5.31,13.73-4.96,6.22.42,11.93,5.27,13.41,10.93,1.72,6.6-.34,12.04-5.49,16.38-5.01,4.22-12.44,5.61-17.43,2.35-2.95-1.93-4.96-5.31-7.88-8.59-13.93,2.37-27.99,7.23-40.75,15.36-29.05,18.52-48,44.88-59.38,77.07-1.13,3.21-.73,4.91,2.54,6.76,14.25,8.08,22.12,20.47,22.01,36.95-.1,15.38-7.39,27.12-20.53,35.17-.52.32-1.08.59-1.6.88,2.99,6.75,5.94,13.38,9.13,20.57,2.88-4.58,5.59-8.73,8.15-12.98,11.43-19.01,24.97-36.43,39.95-52.72,29.41-31.98,62.68-59.33,99.79-81.94,20.69-12.61,41.72-24.72,64.92-32.15,11.71-3.75,23.73-7.03,35.86-8.86,20.95-3.16,38.01,4.15,50.01,22.07,8.99,13.42,12.98,28.5,14.13,44.38,3.17,43.86-5.5,85.67-23.27,125.55-12.77,28.65-31.39,53.04-57.55,70.96-15.63,10.71-32.08,19.84-52.46,22.19,1.95,1.38,3.18,2.43,4.56,3.21,38.5,21.72,62.34,54.69,72.64,97.17,7.15,29.48,2.69,58.24-9.98,85.7-9.08,19.67-20.77,37.71-36.8,52.35-22.37,20.44-48.13,35.48-78.63,38.73-29.71,3.16-56.21-6.18-78.15-27.08-18.01-17.16-29.74-38.26-38.69-61.18-7.52-19.27-9.94-39.63-13.32-59.8-1.34-8-2.63-16-3.98-23.99-.2-1.16-.57-2.29-1.04-4.12-1.74,5.4-2.85,10.26-4.85,14.72-2.59,5.78-5.32,11.64-8.98,16.76-7.33,10.25-17.84,10.35-26.01.6-6.12-7.3-9.58-16-12.19-25.05-1.16-4.03-2.14-8.12-3.14-11.94-2.4,15.86-4.58,31.95-7.32,47.95-4.98,29.15-14.09,56.86-29.96,82.06-16.57,26.32-39.71,43.62-70.42,49.64-27.29,5.34-52.57-1.11-75.98-15.42-26.71-16.32-47.52-38.34-61.85-66.2-14.28-27.76-19.73-57.15-14.49-88.14,4.55-26.93,16.55-50.31,34.74-70.53,10.12-11.26,20.78-21.94,34.35-29.19,3.26-1.74,6.43-3.64,9.63-5.46-.08-.39-.16-.78-.24-1.17ZM437.97,393.82c0,3.78.43,7.07-.09,10.19-1.18,7.08.49,13.57,3.03,20.04,12.21,31.1,24.3,62.25,36.56,93.33,7.96,20.18,16.12,40.29,24.23,60.41,6.52,16.19,13.06,32.37,19.69,48.51.56,1.37,1.66,3.18,2.86,3.52,9.83,2.73,19.71,6.31,30.07,4.61,7.31-1.2,14.44-3.58,21.55-5.78,3.39-1.04,4.84-3.72,3.9-7.4-1.2-4.71-1.81-9.65-3.61-14.11-5.23-12.95-10.24-26.06-16.57-38.48-12.42-24.33-25.03-48.6-38.79-72.18-10.72-18.38-22.04-36.52-36.38-52.55-8.56-9.57-16.94-19.41-24.28-29.91-5.24-7.5-12.27-12.67-18.84-18.52-.84-.74-2.05-1.06-3.34-1.69ZM612.24,150.93c-.29-.26-.58-.52-.87-.78-11.29,6.38-22.82,12.39-33.83,19.21-30.71,19.01-58.52,41.8-83.84,67.45-24.39,24.71-45.12,52.32-61.66,82.95-.48.9-.79,2.19-.54,3.13.92,3.39,2.1,6.7,3.13,9.86,1.95-1.84,3.86-3.62,5.74-5.43,7.01-6.75,14.04-13.49,21-20.29,2.86-2.79,5.47-5.83,8.4-8.53,1.41-1.3,3.09-3.52,5.3-.92,1.92,2.26,3.09,4.56.29,7.14-2.39,2.19-4.56,4.62-6.92,6.85-8.51,8.03-16.19,17.07-26.96,22.38-1.57.77-3.38,1.3-4.6,2.45-1.12,1.06-1.59,2.81-2.34,4.25,1.28.42,2.58,1.25,3.83,1.18,2.22-.13,4.45-.65,6.59-1.28,30.12-8.82,57.81-22.41,82.83-41.51,12.63-9.65,24.45-20.04,31.84-34.26,6.26-12.04,11.97-24.45,16.9-37.09,8.58-21.98,17.42-43.79,29.14-64.34,2.32-4.06,4.38-8.27,6.56-12.41ZM358.29,392.55c-2.23,1.06-3.81,1.49-4.99,2.43-3.21,2.58-6.59,5.06-9.29,8.13-7.56,8.62-14.82,17.51-22.19,26.3-14.58,17.39-29.55,34.36-41.42,53.97-19.98,33.01-38.45,66.79-55.26,101.49-5.6,11.56-10.49,23.46-12.31,36.38-.41,2.95.2,4.88,2.79,6.13,3.14,1.51,6.24,3.17,9.51,4.33,14.48,5.13,28.82,2.55,43.08-1.14.94-.24,1.92-1.5,2.32-2.5,14.03-35.62,27.94-71.29,41.97-106.92,8.95-22.74,18.08-45.42,27.07-68.15,4.45-11.24,7.71-23.12,13.51-33.6,4.76-8.61,3.09-17.36,5.18-26.85ZM359.55,332.26c.63-2.42.72-4.43,1.65-5.92,1.59-2.55.97-4.55-.37-6.88-5.57-9.61-10.45-19.65-16.61-28.85-13.23-19.75-28.77-37.64-45.34-54.69-29.98-30.85-63.91-56.48-101.18-77.79-3.77-2.16-7.74-3.97-11.62-5.94.38,2.74,1.18,4.82,2.12,6.84,6.3,13.57,12.95,26.99,18.88,40.72,8.4,19.46,16.15,39.2,24.43,58.71,8.3,19.55,23.23,33.32,40.18,45.33,21.67,15.37,45.25,26.83,70.4,35.13,5.37,1.77,11.05,2.6,16.54,3.84,1.79-5.82.66-8.04-4.27-9.64-2.6-.84-5.65-1.27-7.6-2.93-8.93-7.6-17.6-15.51-26.19-23.49-.86-.79-1.21-3.05-.74-4.19,1.63-3.97,3.92-4.34,7.1-1.33,10.77,10.2,21.48,20.46,32.63,31.08ZM457.83,369.31c-.12.44-.23.88-.35,1.32,1.4.71,2.73,1.63,4.2,2.09,11.66,3.63,23.27,7.42,35.04,10.68,24.26,6.71,49.05,10.28,74.17,11.33,28.06,1.18,54.95-2.59,78.86-19.09,15.32-10.58,29.5-22.35,40.1-37.77,27.81-40.49,40.77-85.73,41.98-134.53.43-17.5-1.71-34.59-9.57-50.61-9.38-19.1-23.19-26.85-44.64-24.83-16.19,1.52-31.65,6.77-46.64,13.12-1.36.58-2.78,1.31-3.8,2.34-.95.96-1.38,2.42-2.43,4.38,4.65-2.25,8.14-4.2,11.83-5.67,13.41-5.35,27.24-5.86,40.51-.48,20.82,8.43,31.82,24.74,33.28,46.97,1.2,18.25-6.05,32.53-22.33,41.7-1.38.78-2.79,1.49-4.38,2.35,14.75,9.88,14.76,24.36,12.46,39.23-2.43,15.71-11.84,26.21-26.63,32.12,3.16,4.82,4.15,9.77,3.07,14.75-3.23,14.97-10.43,27.92-22.31,37.62-12.24,9.99-26.43,16.43-41.88,19.99-19.43,4.47-39.22,4.92-58.84,3.27-25.83-2.17-51.52-6.02-77.27-9.07-4.79-.57-9.61-.81-14.42-1.21ZM334.6,371.33c-.04-.34-.07-.69-.11-1.03-1.46.14-2.92.22-4.37.41-10.38,1.42-20.73,3.13-31.14,4.24-14.88,1.58-29.81,2.62-44.7,4.08-18.55,1.83-37.07,2.6-55.64.32-19.9-2.44-38.2-9.07-53.6-22.05-16.32-13.74-27.36-29.89-19.66-53.21-.97-.52-2.21-1.04-3.31-1.79-4.49-3.07-9.45-5.69-13.3-9.43-8.95-8.68-11.77-20.18-12.13-32.11-.27-9.04,2.24-17.58,9.22-24.09,1.68-1.56,3.66-2.79,4.97-3.77-4.35-2.91-9.08-5.15-12.66-8.6-20.18-19.47-18.23-50.67-.57-69.17,16.7-17.49,37.2-20.29,59.65-14.27,2.95.79,5.79,1.98,8.68,2.99-1.06-1.61-2.41-2.63-3.92-3.32-13.85-6.28-28.4-10.02-43.41-12.26-21.24-3.16-37.27,5.38-46.78,24.68-6.52,13.23-8.41,27.44-9.04,41.77-1.17,26.26,2.84,52.02,10.34,77.12,7.8,26.09,19.45,50.39,36.18,72.13,8.94,11.62,19.84,20.9,32.05,29.14.1-2.61-.42-5.44,3.26-5.71,3.05-.22,5.88,1.82,6.48,4.55.84,3.81-1.81,4.43-4.66,5.37,6.51,3.15,13.02,6.29,19.12,9.24.34-2.89.58-5.02.83-7.15,1.73.73,3.96,1.02,5.07,2.29,1.48,1.69,2.72,4.17-.58,6.5,5.89,1.78,11.69,2.94,17.43,4.33,13.53,3.29,27.28,3.1,40.99,2.37,19.83-1.06,39.4-4.23,58.72-8.84,15.9-3.79,31.31-9.06,46.59-14.74ZM358.36,352.97c-5.17-1.53-9.09-2.74-13.05-3.85-10.31-2.91-20.52-6.29-30.98-8.51-11.68-2.48-23.66-3.52-35.38-5.84-16.39-3.25-32.57-7.57-48.99-10.61-29.42-5.44-58.94-10.3-88.44-15.34-7.71-1.32-11.36,2.45-10.19,10.37,1.1,7.42,3.91,14.09,8.54,20.06,9.74,12.54,22.67,20.42,37.27,25.95,15.73,5.96,32.27,6.86,48.69,6.31,20.14-.67,40.24-2.8,60.33-4.54,13.29-1.15,26.52-2.93,39.81-4.07,9.27-.79,18.33-2.12,26.78-6.21,1.7-.82,3.19-2.1,5.61-3.72ZM436.94,352.94c-.03.41-.07.82-.1,1.23,2,.87,3.93,2.15,6.02,2.54,12.02,2.2,24.04,4.5,36.14,6.17,15.31,2.11,30.76,3.27,46.05,5.52,20.08,2.96,40.16,4.31,60.42,2.88,21.3-1.5,40.7-7.98,57.67-21.33,11.03-8.67,17.9-19.62,20.15-33.45,1.07-6.57-1.46-9.12-8.08-8.23-.49.07-.98.17-1.47.26-12.4,2.21-24.79,4.48-37.21,6.6-18.81,3.21-37.73,5.87-56.44,9.56-22.38,4.42-44.5,10.17-66.91,14.4-12.31,2.32-25.02,2.19-36.84,7.4-6.21,2.74-12.93,4.34-19.42,6.45ZM324.3,622.61c-5.6-1.17-8.58-3.21-8.05-6.29.37-2.15,2.07-4.24,3.66-5.9.54-.57,2.89-.15,3.82.57,1.73,1.34,3.03,3.23,4.89,5.32,9.05-18.7,16.11-38.14,21.72-58.13-2.58,4.03-4.81,8.2-6.94,12.41-12.04,23.77-28.89,43.25-51.32,57.8-14.78,9.59-31.03,14.84-48.57,15.34-13.08.37-25.2-3.6-36.9-9.52-21.21-10.73-40.19-24-51.99-45.22-11.62-20.9-17.32-43.25-15.69-67.51,1.61-24,8.87-45.5,23.83-64.49,16.73-21.22,36.58-38.37,61.6-49.12.88-.38,1.66-.96,2.74-1.59-8.55,0-16.53-.02-24.5.04-.79,0-1.65.39-2.35.81-2.72,1.66-5.32,3.5-8.07,5.11-5.89,3.46-12.45,6.08-17.63,10.37-8.12,6.74-15.72,14.22-22.84,22.03-13.62,14.94-23.62,32.22-29.72,51.48-6.77,21.37-7.64,43.14-1.84,64.94,9.01,33.82,27.62,61.22,55,83,18.29,14.55,38.45,23.48,61.94,25.47,16.1,1.37,31.04-1.73,45.38-8.45,17.08-8,29.66-21.24,40.67-36.16.49-.67.76-1.5,1.16-2.31ZM567.98,406.44c-.03.29-.06.57-.09.86,3.75,1.53,7.58,2.88,11.22,4.63,13.04,6.26,24.62,14.67,35.17,24.5,19.09,17.78,32.36,39.06,38.55,64.57,2.88,11.85,4.46,23.96,3.51,36-1.82,22.88-9.76,43.74-23.85,62.02-6.05,7.85-12.93,14.97-21.58,19.99-11.1,6.45-22.23,12.89-33.64,18.76-7.93,4.08-16.69,6.12-25.62,6.23-25.06.31-46.8-8.6-65.87-24.55-16.37-13.7-28.47-30.63-37.83-49.67-1.07-2.17-2.15-4.34-3.23-6.51,4.59,18.05,10.04,35.7,19.69,52.19,2.15-5.21,3.74-6.36,7.1-5.45,3.14.85,4.58,3.08,4.13,6.17-.23,1.6-.97,3.51-2.15,4.47-1.18.96-3.18.91-5.99,1.59,8.06,8.74,15.35,17.42,23.46,25.26,11.41,11.01,25.33,17.42,40.99,20.11,16.23,2.79,32.32,3.1,47.99-2.77,35.3-13.24,62.14-36.29,80.39-69.38,16.05-29.1,22.63-59.85,14.22-92.39-8.94-34.58-28.2-62.49-58.09-82.62-6.79-4.57-13.71-8.97-20.61-13.38-1.02-.65-2.28-1.33-3.42-1.32-8.16.13-16.31.44-24.47.7ZM293.75,328.73c-8.38-5.39-16.33-10.06-23.81-15.39-15.03-10.71-29.57-22.04-45.56-31.42-20.95-12.29-42.83-22.51-65.46-31.12-10.47-3.98-21.22-7.31-32.03-10.25-9.39-2.55-18.52,3.23-20.52,12.11-4.77,21.14,8.34,41.57,29.57,45.87,5.37,1.09,10.85,1.62,16.25,2.6,31.53,5.71,63.08,11.3,94.56,17.31,15.53,2.96,30.91,6.74,47.01,10.29ZM501.55,327.69c1.08-.19,2.17-.34,3.25-.57,18.18-3.81,36.3-8.01,54.56-11.37,26.25-4.83,52.63-8.95,78.91-13.62,8.93-1.59,18.04-3.06,26.51-6.12,19.35-6.99,28.09-26.58,21.35-45.9-2.81-8.05-8.93-11.53-17.3-9.8-1.59.33-3.16.76-4.7,1.25-24.07,7.58-47.52,16.78-70.3,27.63-17.13,8.16-33.96,16.89-49.18,28.41-13.9,10.52-27.03,22.19-43.1,30.09ZM358.15,367.79c-2.06,1.19-3.24,1.63-4.1,2.41-9.38,8.51-20.75,13.51-32.54,17.11-21.22,6.47-42.58,12.55-64.7,15.42-5.92.77-11.84,1.99-16.1,6.99-.91,1.07-2.44,1.76-3.82,2.26-10.52,3.79-20.06,9.33-29.34,15.52-22.28,14.87-39.78,33.89-51.59,58.02-.93,1.91-1.63,3.93-2.73,6.6,2.51-.88,4.18-1.37,5.76-2.05,9.17-3.93,18.49-7.54,27.43-11.94,28.08-13.79,56.46-27.09,83.9-42.07,29.08-15.88,57.94-32.32,84.24-52.74.66-.51,1.59-1.12,1.7-1.8.68-4.14,1.17-8.32,1.88-13.72ZM437.46,370.09c-.11,7.55.88,13.69,7.84,17.95,16.25,9.97,31.81,21.09,48.28,30.65,21.56,12.5,43.48,24.45,65.73,35.69,21.25,10.73,43.09,20.28,64.71,30.27,5.24,2.42,10.62,4.54,15.94,6.79l.82-.85c-1.8-3.9-3.46-7.87-5.44-11.67-10.65-20.51-26.09-36.55-45.29-49.34-9.58-6.38-18.85-13.02-30.12-16.23-2.38-.68-4.3-2.87-6.55-4.14-2.98-1.67-5.92-3.79-9.16-4.55-14.44-3.42-28.98-6.36-43.46-9.59-21.17-4.72-41.7-11.08-59.8-23.61-.94-.65-2.18-.87-3.5-1.38ZM589.44,620.7c26.2-11.38,42.91-30.58,51.63-57.05.89-2.69.35-4.46-1.88-6.06-4.65-3.35-9.06-7.05-13.85-10.18-8.88-5.8-18.15-11.01-26.92-16.97-24.77-16.82-49.37-33.9-74.04-50.86-.52-.36-1.15-.56-2.61-1.26,2.67,4.5,4.96,8.05,6.94,11.77,9.63,18.05,19.27,36.09,28.75,54.22,10.88,20.79,21.01,41.93,28.68,64.15,1.33,3.85,2.15,7.88,3.31,12.25ZM204.09,621.34c.74-4.2,1.15-8.06,2.13-11.78,4.01-15.15,10.32-29.42,17.6-43.21,13.63-25.79,27.68-51.36,41.5-77.05,1.6-2.97,2.88-6.12,4.3-9.19-5.27,3.19-9.84,6.88-14.69,10.14-14.39,9.67-28.91,19.14-43.35,28.74-19.32,12.84-38.62,25.7-57.86,38.65-.81.54-1.56,2.3-1.28,3.14,1.66,5.08,3.32,10.2,5.55,15.05,9.53,20.75,24.47,36.14,46.09,45.51ZM479.07,419.99c-.17.15-.35.31-.52.46.21.45.36.96.66,1.34,4.51,5.81,9.32,11.41,13.51,17.45,8.75,12.59,19.5,22.9,32.49,31.08,13.72,8.64,27.18,17.69,40.68,26.66,18.59,12.36,37.08,24.89,55.69,37.22,7.55,5.01,15.31,9.7,23.18,14.67.34-.93.62-1.48.74-2.07,2.8-13.44,1.72-26.81-1.07-40.09-.29-1.4-1.71-3.05-3.03-3.68-28.55-13.43-57.19-26.69-85.77-40.06-22.4-10.47-44.3-21.86-64.71-35.93-3.78-2.61-7.89-4.73-11.85-7.07ZM315.48,419.85c-.6.35-1.24.64-1.8,1.04-18.61,13.39-38.97,23.72-59.37,33.98-17.26,8.69-34.5,17.44-51.95,25.73-16.56,7.86-33.4,15.12-50.07,22.76-1.13.52-2.54,1.96-2.61,3.05-.63,10.45-1.13,20.92-1.35,31.38-.07,3.38.83,6.78,1.36,10.71,1.9-1.1,3.22-1.76,4.43-2.57,6.65-4.42,13.24-8.92,19.91-13.31,23.45-15.43,46.97-30.76,70.37-46.26,9.77-6.48,19.39-13.2,28.95-19.99,17.39-12.34,29.6-29.5,42.13-46.52ZM358.88,429.76c-25.73,64.34-51.44,128.62-77.18,192.99.56-.23,1.22-.47,1.86-.76,17.03-7.8,29.89-20.51,39.67-35.98,7.96-12.6,14.45-26.15,21.25-39.45,3.45-6.75,7.26-13.64,8.91-20.92,3.23-14.29,5.47-28.84,7.36-43.39,2.29-17.52.11-35.02-1.87-52.49ZM510.62,624.69c-25.4-63.95-50.63-127.5-76.27-192.06-.49,5.46-.94,9.79-1.26,14.13-.57,7.84-1.78,15.71-1.41,23.51.56,11.81,2.17,23.57,3.46,35.34,1.71,15.62,5.61,30.73,12.87,44.67,6.33,12.15,13.27,24.01,20.59,35.59,10.44,16.51,23.96,29.95,42.01,38.82ZM103.62,163.01c-4.74,4.57-7.49,9.76-9.04,15.71-4.59,17.66-.07,33.29,13.18,42.4,5.48,3.76,11.74,6.55,17.93,9.05,5.87,2.37,12.18,3.62,18.2,5.65,20.61,6.92,40.54,15.48,60.1,24.94,4.31,2.09,8.68,4.05,13.02,6.07-22.74-23.08-45.7-45.74-69.21-67.82-13.8-12.96-28.08-25.49-44.2-36ZM573.19,268.91c2.78-1.55,5.44-3.39,8.37-4.59,23.06-9.46,46.07-19.04,69.3-28.06,11.13-4.32,22.92-6.87,33.2-13.38,10.72-6.79,16.62-16.4,17.09-29.02.41-10.93-1.25-21.41-9.45-30.04-43.99,30.04-78.51,70.62-118.5,105.09ZM220.31,254.67c-1.35-3.03-2.72-6.04-4.04-9.09-9.43-21.85-18.85-43.71-28.26-65.57-4.27-9.93-11.23-17.63-20.02-23.69-15.66-10.79-32.35-11.98-49.73-4.68-2.45,1.03-4.63,2.7-7.89,4.65,40.95,28.8,72.64,66.46,109.94,98.38ZM685.34,156.48c-6.99-4.69-13.61-7.89-21.05-8.56-21.48-1.92-38.75,6.72-51.36,23.43-6.43,8.52-10.73,18.79-15.2,28.64-7.98,17.59-15.35,35.46-22.96,53.22-.1.24.08.6.22,1.55,36.67-32.98,70.02-68.98,110.34-98.27ZM426.74,352.64c-2.65-12.86-4.9-25.87-8.14-38.63-1.82-7.17-5.31-13.92-8.03-20.87-.75-1.92-1.9-2.52-4.04-2.05-7.27,1.57-14.57,1.65-22.28-.63-10.91,20.19-14.72,42.03-16.67,63.5,5.07,1.47,9.48,2.48,13.7,4.02,13.51,4.92,26.57,4.73,39.2-2.72,1.67-.99,3.61-1.53,6.28-2.62ZM427.14,236.66c.26-.36.51-.72.77-1.09-.87-1.61-1.47-3.44-2.64-4.78-9.55-10.97-21.41-15.75-35.82-12.34-8.53,2.02-16.27,5.74-20.96,13.75-.74,1.26-1.43,3.94-.98,4.25,1.66,1.12,3.92,2.24,5.73,1.97,1.5-.23,2.69-2.44,4.17-3.92,4.39,1.41,5.93,4.44,5.15,10.83-.56,4.62-3.58,7.73-7.89,8.12-3.25.3-5.69-1.21-7.1-3.91-1.26-2.41-1.91-5.13-2.79-7.6-4.32,8.35-.18,22.61,9.69,30.83,11.04,9.19,27.53,12.68,42.3,2.41,10.27-7.15,16.68-23.23,12.84-33.58-1.06,2.03-2,3.7-2.82,5.44-2.25,4.75-4.87,6.46-8.88,5.72-3.82-.71-6.04-4.01-6.05-9.12,0-1.36,0-2.78.33-4.08,1.28-4.87,5.31-6.62,9.88-4.55,1.61.73,3.37,1.13,5.07,1.67ZM367.04,385.88c1.57.09,2.96-.01,4.26.28,1.43.32,2.81.95,4.18,1.53,11.58,4.9,23.48,6.7,35.74,3.05,5.32-1.59,10.45-3.77,15.63-5.67v-23.07c-20.55,13.89-40.08,10.64-59.8-1.18v25.06ZM427.84,393.95c-.2-.39-.41-.78-.61-1.18-20.02,14.09-40.1,11.58-60.43.4.23,5.17.56,9.52.57,13.87.02,3.91.17,7.37,5.3,7.92,1.36.14,2.57,1.47,3.91,2.13,13,6.42,26.17,7.76,39.56,1.22,3.49-1.71,6.91-3.57,10.52-5.44.38-6.04.78-12.48,1.18-18.92ZM370.66,443.83c2.35.97,4.31,1.71,6.21,2.58,8.84,4.05,18.18,5.92,27.66,4,6.24-1.26,12.13-4.28,18.15-6.57.33-.12.57-.8.63-1.25.91-6.24,1.79-12.49,2.8-19.63-19.4,13.59-38.39,11.31-57.65.73.76,7.01,1.48,13.56,2.19,20.14ZM371.77,454.93c.67,4.75,1.4,9,1.84,13.29.38,3.7,1.18,6.75,5.65,7.29,1.43.17,2.75,1.14,4.17,1.62,9.55,3.24,19,3.79,28.32-.91,2.71-1.37,5.56-2.45,8.66-3.81.68-5.79,1.42-12.02,2.24-18.95-17.08,11.05-33.82,8.86-50.89,1.47ZM418.95,483.85c-.21-.28-.42-.56-.63-.84-13.52,8.74-27.39,8.15-42.18,1.39.78,3.43,1.59,5.89,1.86,8.41.77,7,3.62,11.54,11.36,12.61,4.47.62,8.72,1.84,13.18.22,3.38-1.22,6.83-2.25,10.22-3.44.62-.22,1.45-.71,1.6-1.23,1.6-5.69,3.08-11.4,4.6-17.11ZM383.05,512.41c2.91,7.3,5.56,13.61,10.81,18.34,3.26,2.94,4.61,2.88,7.45-.33,4.78-5.39,7.46-11.85,9.96-19.55-9.3,6.73-18.34,5.75-28.22,1.53ZM263.8,114.12c4.19.04,7.28-2.55,7.4-6.23.12-3.39-2.93-6.5-6.31-6.47-3.62.04-7.34,3.66-7.33,7.14.01,3.12,2.71,5.52,6.24,5.56ZM531.82,113.62c3.62-.05,6.72-3.11,6.66-6.57-.05-3.04-2.74-5.63-5.8-5.6-3.51.04-6.94,3.2-6.9,6.37.04,3.97,2,5.85,6.04,5.79Z"/>
        <path class="cls-1" d="M437.97,393.82c1.29.64,2.5.95,3.34,1.69,6.58,5.86,13.6,11.03,18.84,18.52,7.34,10.5,15.72,20.35,24.28,29.91,14.34,16.02,25.66,34.17,36.38,52.55,13.76,23.58,26.37,47.85,38.79,72.18,6.34,12.41,11.35,25.52,16.57,38.48,1.8,4.46,2.41,9.4,3.61,14.11.94,3.68-.52,6.35-3.9,7.4-7.11,2.19-14.25,4.58-21.55,5.78-10.36,1.7-20.23-1.88-30.07-4.61-1.2-.33-2.3-2.15-2.86-3.52-6.63-16.14-13.17-32.32-19.69-48.51-8.11-20.12-16.27-40.23-24.23-60.41-12.26-31.08-24.35-62.23-36.56-93.33-2.54-6.47-4.21-12.96-3.03-20.04.52-3.12.09-6.41.09-10.19ZM542.15,609.91c-.23,3.43,2.94,7.37,6.21,7.72,3.17.33,6.05-2.64,6.25-6.45.21-3.95-2.16-6.47-6.29-6.68-3.63-.18-5.94,1.84-6.17,5.42ZM538.63,580.93c-3.28-.03-5.59,2.25-5.68,5.6-.09,3.41,3.13,6.91,6.43,7,2.75.07,5.18-2.82,5.2-6.18.01-3.34-2.82-6.4-5.95-6.42ZM525.21,561.67c-2.75.33-4.24,1.97-4.2,4.92.03,2.78,2.3,4.89,5.11,4.63,2.75-.25,4.25-1.82,4.2-4.65-.05-2.92-2.15-4.97-5.11-4.91Z"/>
        <path class="cls-1" d="M612.24,150.93c-2.18,4.14-4.25,8.35-6.56,12.41-11.71,20.55-20.56,42.36-29.14,64.34-4.93,12.64-10.64,25.05-16.9,37.09-7.4,14.22-19.21,24.62-31.84,34.26-25.02,19.1-52.71,32.69-82.83,41.51-2.15.63-4.38,1.15-6.59,1.28-1.25.07-2.55-.76-3.83-1.18.75-1.44,1.22-3.19,2.34-4.25,1.22-1.15,3.03-1.68,4.6-2.45,10.77-5.31,18.45-14.35,26.96-22.38,2.36-2.23,4.53-4.66,6.92-6.85,2.81-2.57,1.63-4.87-.29-7.14-2.21-2.6-3.89-.38-5.3.92-2.93,2.7-5.54,5.74-8.4,8.53-6.97,6.8-13.99,13.54-21,20.29-1.88,1.81-3.79,3.59-5.74,5.43-1.03-3.16-2.22-6.47-3.13-9.86-.25-.94.05-2.23.54-3.13,16.54-30.63,37.27-58.24,61.66-82.95,25.33-25.65,53.13-48.44,83.84-67.45,11.02-6.82,22.54-12.83,33.83-19.21.29.26.58.52.87.78ZM550.43,225.73c-.16-4.78-4.81-8.08-9.11-6.35-5.23,2.1-9.11,6.03-11.82,10.93-1.55,2.82-.23,5.6,2.01,7.29,1.67,1.26,5.11,2.71,6.05,1.95,4.47-3.6,8.38-7.91,12.41-12.04.44-.45.38-1.4.46-1.78Z"/>
        <path class="cls-1" d="M358.29,392.55c-2.09,9.49-.42,18.24-5.18,26.85-5.8,10.48-9.06,22.36-13.51,33.6-9,22.73-18.12,45.4-27.07,68.15-14.02,35.63-27.94,71.29-41.97,106.92-.4,1.01-1.38,2.26-2.32,2.5-14.26,3.69-28.61,6.28-43.08,1.14-3.27-1.16-6.37-2.82-9.51-4.33-2.59-1.25-3.2-3.18-2.79-6.13,1.81-12.93,6.71-24.82,12.31-36.38,16.81-34.7,35.28-68.48,55.26-101.49,11.86-19.61,26.83-36.58,41.42-53.97,7.37-8.79,14.62-17.68,22.19-26.3,2.69-3.07,6.08-5.55,9.29-8.13,1.17-.94,2.75-1.37,4.99-2.43ZM249.28,609.53c0-3.78-1.97-5.74-5.74-5.68-3.2.05-6.02,3.16-6.13,6.74-.09,3.18,2.99,6.45,6.01,6.37,3.07-.08,5.85-3.6,5.86-7.43ZM254.16,580.87c-3.14-.04-5.8,3.04-5.89,6.82-.07,3.02,2.56,6.03,5.32,6.1,3.06.07,6.19-3.45,6.31-7.1.11-3.49-2.14-5.78-5.74-5.82ZM269.98,566.51c-.01-2.65-2.39-4.96-5.1-4.94-2.61.01-4.63,2.16-4.56,4.87.06,2.43,2.78,5.24,5.02,5.19,2.17-.05,4.65-2.78,4.64-5.11Z"/>
        <path class="cls-1" d="M359.55,332.26c-11.14-10.62-21.85-20.88-32.63-31.08-3.18-3.01-5.47-2.64-7.1,1.33-.47,1.14-.12,3.39.74,4.19,8.6,7.98,17.26,15.89,26.19,23.49,1.95,1.66,5,2.09,7.6,2.93,4.93,1.6,6.06,3.82,4.27,9.64-5.48-1.25-11.17-2.07-16.54-3.84-25.15-8.3-48.73-19.76-70.4-35.13-16.95-12.02-31.87-25.78-40.18-45.33-8.29-19.51-16.03-39.25-24.43-58.71-5.93-13.73-12.58-27.15-18.88-40.72-.94-2.02-1.74-4.1-2.12-6.84,3.88,1.97,7.85,3.79,11.62,5.94,37.27,21.31,71.2,46.94,101.18,77.79,16.57,17.05,32.11,34.95,45.34,54.69,6.16,9.2,11.05,19.25,16.61,28.85,1.35,2.32,1.97,4.32.37,6.88-.93,1.49-1.02,3.51-1.65,5.92ZM269.77,252.82c3.33.02,5.85-2.34,5.44-5.05-.82-5.54-3.42-10.3-8.48-12.9-1.68-.86-4.72-.47-6.46.53-2.31,1.33-2.9,4.36-1.35,6.63,2.35,3.44,5.2,6.55,8.04,9.62.75.81,2.23.94,2.81,1.17ZM255.82,227.01c-.3-3.94-7.08-11.41-11.1-11.62-1.71-.09-4.2.72-5.05,1.99-.99,1.46-1.48,4.67-.57,5.73,2.85,3.34,6.18,6.49,9.88,8.82,2.98,1.87,7.1-1.46,6.84-4.92Z"/>
        <path class="cls-1" d="M457.83,369.31c4.81.39,9.63.64,14.42,1.21,25.76,3.06,51.44,6.9,77.27,9.07,19.62,1.65,39.42,1.19,58.84-3.27,15.45-3.55,29.64-10,41.88-19.99,11.87-9.69,19.08-22.64,22.31-37.62,1.08-4.99.09-9.94-3.07-14.75,14.79-5.91,24.21-16.41,26.63-32.12,2.29-14.86,2.29-29.35-12.46-39.23,1.6-.85,3.01-1.57,4.38-2.35,16.28-9.16,23.53-23.45,22.33-41.7-1.46-22.23-12.47-38.54-33.28-46.97-13.27-5.37-27.09-4.87-40.51.48-3.69,1.47-7.18,3.43-11.83,5.67,1.05-1.96,1.49-3.42,2.43-4.38,1.02-1.03,2.44-1.76,3.8-2.34,14.99-6.36,30.45-11.6,46.64-13.12,21.45-2.02,35.26,5.73,44.64,24.83,7.86,16.02,10,33.11,9.57,50.61-1.21,48.8-14.17,94.04-41.98,134.53-10.59,15.42-24.77,27.19-40.1,37.77-23.9,16.5-50.79,20.27-78.86,19.09-25.12-1.06-49.91-4.62-74.17-11.33-11.76-3.25-23.38-7.05-35.04-10.68-1.47-.46-2.81-1.38-4.2-2.09.12-.44.23-.88.35-1.32ZM692.59,311.24c3.52-.03,5.83-1.86,5.72-4.51-.14-3.17-2.62-5.54-5.83-5.57-3.14-.03-6.07,2.33-6.07,4.9,0,2.89,2.77,5.21,6.19,5.18ZM712.82,234.12c4.53.05,7.52-2.41,7.05-4.63-.78-3.68-7.35-6.35-10.48-4.23-1.95,1.32-2.75,3.31-1.25,5.11,1.49,1.78,3.67,2.98,4.67,3.76ZM711.07,244.87c-2.75-.16-5.76,2.52-5.84,5.2-.07,2.38,2.68,4.9,5.55,5.08,2.95.18,5.7-1.89,5.92-4.48.24-2.87-2.42-5.61-5.63-5.79ZM723.01,171.65c.03-3.94-1.79-6.17-4.8-6.28-2.81-.09-5.38,2.3-5.39,5.01,0,2.43,3.42,5.66,6.09,5.55,2.9-.11,4.19-1.81,4.09-4.29ZM726.65,191.49c.02-2.87-2.63-5.89-5.15-5.86-2.15.02-5.29,3.48-4.45,5.85.76,2.16,2.65,4.51,4.67,5.46,1.93.9,4.92-2.81,4.93-5.44ZM685.03,319.11c-2.74-.06-4.92,2.09-4.96,4.88-.04,2.93,1.9,5.07,4.68,5.17,2.62.1,5.14-2.17,5.26-4.72.13-2.91-2.07-5.27-4.98-5.33ZM702.63,284.8c-2.3.33-4.34,1.52-4.65,4.45-.26,2.41,2.59,5.94,4.6,5.2,2.1-.78,4.33-2.71,5.25-4.72.95-2.08-2.21-4.9-5.19-4.93ZM708.11,273.79c2.65.02,5.57-2.37,5.58-4.57,0-2.13-2.71-4.8-4.92-4.83-2.48-.04-5.38,2.43-5.5,4.7-.13,2.34,2.29,4.68,4.84,4.7ZM689.24,133.76c.07-3.32-2.05-4.28-4.81-4.28-2.74,0-4.91,1.1-5.11,4.17-.17,2.65,2.91,5.37,5.71,5.16,3.07-.24,4.16-2.25,4.21-5.05ZM675.93,336.23c-2.57.43-4.23,2.03-4.34,4.93-.09,2.43,2.69,5.11,5.07,5.05,2.52-.07,4.62-2.39,4.53-4.99-.1-2.78-2.41-5.1-5.25-4.99ZM706.89,154.24c.11,2.59,1.54,5.19,4.28,4.62,2.04-.42,4.17-2.84,5.23-4.89.95-1.85-2.39-4.62-5.04-4.71-3.32-.11-4.25,1.94-4.47,4.98ZM646.92,376.44c2.35-2.42,4.37-4.27,6.01-6.4.31-.4-.6-2.39-1.41-2.88-2.47-1.51-4.97-1.16-7.12.91-.18.17-.5.25-.58.45-.51,1.24-1.7,2.86-1.3,3.68.73,1.46,2.42,2.44,4.4,4.25ZM719.87,206.52c-2.32.1-4.77,2.8-4.61,5.08.15,2.19,3.64,5.58,5.38,4.67,1.81-.95,3.68-2.94,4.23-4.85.68-2.35-2.5-5-5-4.89ZM700.54,148.52c2.09-2.85,4.01-4.61,4.79-6.78.67-1.87-2.75-4.53-5-4.37-2.29.16-5.17,3.24-4.4,5.44.63,1.81,2.5,3.19,4.61,5.71ZM669.8,356.43c-.26-4.06-1.54-5.81-4.42-5.92-2.59-.1-4.92,2.14-4.92,4.58,0,2.33,3,5.23,5.32,4.49,1.75-.56,3.09-2.39,4.02-3.15ZM625.25,386.91c2.12-1.88,4.44-3.06,5.23-4.89.69-1.59-.68-3.52-3.2-3.51-3.13.02-6.8,2.5-6.17,4.68.36,1.24,2.2,2.05,4.14,3.71Z"/>
        <path class="cls-1" d="M334.6,371.33c-15.28,5.67-30.7,10.94-46.59,14.74-19.33,4.61-38.89,7.78-58.72,8.84-13.71.73-27.46.92-40.99-2.37-5.74-1.4-11.54-2.55-17.43-4.33,3.3-2.33,2.06-4.82.58-6.5-1.11-1.27-3.34-1.56-5.07-2.29-.25,2.13-.5,4.26-.83,7.15-6.1-2.95-12.61-6.1-19.12-9.24,2.84-.94,5.49-1.56,4.66-5.37-.6-2.73-3.44-4.76-6.48-4.55-3.68.26-3.16,3.09-3.26,5.71-12.21-8.24-23.11-17.52-32.05-29.14-16.72-21.74-28.38-46.04-36.18-72.13-7.5-25.09-11.51-50.86-10.34-77.12.64-14.32,2.52-28.53,9.04-41.77,9.51-19.3,25.54-27.85,46.78-24.68,15.02,2.24,29.56,5.98,43.41,12.26,1.51.68,2.86,1.71,3.92,3.32-2.89-1.01-5.73-2.2-8.68-2.99-22.45-6.02-42.95-3.22-59.65,14.27-17.66,18.49-19.61,49.69.57,69.17,3.57,3.45,8.3,5.69,12.66,8.6-1.31.98-3.29,2.21-4.97,3.77-6.98,6.5-9.49,15.04-9.22,24.09.36,11.93,3.18,23.43,12.13,32.11,3.86,3.74,8.81,6.36,13.3,9.43,1.1.75,2.34,1.28,3.31,1.79-7.7,23.32,3.35,39.47,19.66,53.21,15.41,12.98,33.7,19.61,53.6,22.05,18.57,2.28,37.1,1.5,55.64-.32,14.89-1.47,29.82-2.5,44.7-4.08,10.41-1.11,20.76-2.82,31.14-4.24,1.45-.2,2.91-.28,4.37-.41.04.34.07.69.11,1.03ZM83.69,148.38c-2.98-.1-6.21,2.78-6.34,5.65-.11,2.53,2.85,5.54,5.49,5.57,2.52.03,5.45-3.2,5.5-6.06.05-2.92-1.9-5.08-4.65-5.17ZM100.51,141.75c-.41-2.5-1.32-4.8-4.48-4.89-3.31-.1-6.57,2.77-6.47,5.5.1,2.6,2.92,5.58,5.22,5.5,2.7-.09,5.76-3.27,5.73-6.11ZM82.29,244.59c-3.02-.1-5.53,2.27-5.61,5.29-.06,2.34,3.23,5.13,6.26,5.31,2.31.14,5.23-2.81,5.23-5.28,0-2.36-3.17-5.23-5.88-5.32ZM100.6,301.13c-3.15.03-4.32,2.16-4.67,4.78-.31,2.33,2.9,4.6,6.16,4.63,2.87.03,4.4-1.6,4.67-4.23.27-2.61-3.04-5.24-6.16-5.18ZM80.09,211.1c-.06-2.76-2.92-5.43-5.73-5.34-2.45.07-5.58,3.22-4.54,5.28,1.03,2.04,3.36,3.85,5.54,4.76,1.91.8,4.78-2.45,4.73-4.69ZM77.32,175.07c2.31.02,4.58-2.45,4.55-4.94-.03-2.22-3.42-5.66-5.58-4.85-1.98.74-4.02,2.72-4.88,4.66-.77,1.75,3.49,5.12,5.9,5.13ZM122,340.43c.05-3.29-1.93-5.19-5.42-5.27-2.74-.06-4.65.67-4.5,3.97.13,2.87,2.6,5.81,5.34,5.64,2.53-.16,4.56-1.32,4.57-4.34ZM107.37,318.73c-2.34.82-2.82,3.27-3.01,5.71-.16,2.13,3.32,5.18,5.46,4.3,1.81-.75,3.75-2.83,4.26-4.69.61-2.23-3.6-5.45-6.71-5.32ZM93.09,293.9c1.14-1.64,2.89-3.15,3.26-4.94.54-2.6-3.24-6.06-5.91-5.19-1.82.59-3.57,2.8-4.36,4.7-.73,1.75,3.63,4.91,7.01,5.43ZM84.81,263.97c-2.36-.06-5.19,2.65-5.15,4.95.04,2.08,3.41,5.24,5.9,4.57,1.82-.49,3.88-2.51,4.51-4.32.75-2.15-2.74-5.14-5.26-5.2ZM72.99,195.23c2.38,0,4.63-2.43,4.53-4.89-.12-2.98-2.45-5.44-5.11-5.28-3.03.19-4.29,2.21-4.52,4.92-.22,2.66,2.42,5.26,5.1,5.25ZM127.23,349.98c-2.38.05-4.15,2.11-4.12,4.81.03,2.48,2.96,5.12,5.65,4.87,2.7-.25,4.38-1.73,4.37-4.61-.01-2.74-2.84-5.13-5.9-5.07ZM85.3,228.05c-.14-2.54-2.27-3.56-4.93-3.78-2.22-.19-5.6,3-4.76,4.98.78,1.84,2.87,3.55,4.8,4.37,1.95.83,4.76-2.36,4.9-5.57ZM90.26,234.62c-.56.75-2.16,2.03-2.5,3.57-.5,2.3,3.61,5.89,6.16,5.25,1.22-.31,2.56-2.23,2.87-3.63.57-2.54-2.3-5.12-6.53-5.19ZM110.06,129.04c-1.05,1.47-2.77,2.83-3.02,4.42-.48,3.06,1.82,5.67,4.27,5.42,3.1-.31,4.08-2.59,4.07-5.3-.02-2.78-1.75-3.93-5.31-4.55Z"/>
        <path class="cls-1" d="M358.36,352.97c-2.42,1.62-3.91,2.89-5.61,3.72-8.45,4.09-17.51,5.42-26.78,6.21-13.29,1.14-26.52,2.92-39.81,4.07-20.09,1.75-40.19,3.87-60.33,4.54-16.42.55-32.96-.35-48.69-6.31-14.6-5.53-27.53-13.41-37.27-25.95-4.63-5.96-7.44-12.64-8.54-20.06-1.17-7.92,2.48-11.69,10.19-10.37,29.49,5.04,59.02,9.9,88.44,15.34,16.42,3.04,32.6,7.36,48.99,10.61,11.72,2.32,23.7,3.36,35.38,5.84,10.46,2.22,20.67,5.61,30.98,8.51,3.95,1.11,7.88,2.32,13.05,3.85ZM161,332.62c.09,2.59,2.42,3.4,5.04,3.57,3.03.21,5.36-2.01,5.41-4.86.07-3.71-1.95-6.54-4.67-6.55-3-.01-5.75,3.37-5.78,7.83ZM186.7,338.2c-2.32-1.62-3.5-3.11-4.73-3.16-2.65-.11-4.25,1.81-3.76,4.37.25,1.31,2.5,3.48,2.92,3.29,1.73-.81,3.1-2.38,5.58-4.5Z"/>
        <path class="cls-1" d="M436.94,352.94c6.49-2.11,13.2-3.72,19.42-6.45,11.82-5.21,24.53-5.08,36.84-7.4,22.41-4.23,44.53-9.98,66.91-14.4,18.71-3.7,37.63-6.36,56.44-9.56,12.42-2.12,24.8-4.4,37.21-6.6.49-.09.98-.19,1.47-.26,6.61-.89,9.14,1.66,8.08,8.23-2.25,13.83-9.13,24.78-20.15,33.45-16.98,13.35-36.37,19.83-57.67,21.33-20.26,1.43-40.35.08-60.42-2.88-15.29-2.25-30.74-3.41-46.05-5.52-12.1-1.67-24.12-3.97-36.14-6.17-2.09-.38-4.02-1.67-6.02-2.54.03-.41.07-.82.1-1.23ZM625.47,325.39c-2.45.09-4.57,2.73-4.46,5.54.12,2.97,3.83,6.44,6.75,5.52,1.68-.53,3.66-2.78,3.94-4.51.55-3.38-3.04-6.67-6.24-6.55ZM613.32,335.26c-2.03,4.69-1.32,6.63,2.02,7.77.59.2,1.59.26,1.91-.07.39-.41.56-1.52.28-1.97-1.14-1.79-2.5-3.44-4.21-5.73Z"/>
        <path class="cls-1" d="M324.3,622.61c-.4.81-.66,1.64-1.16,2.31-11.01,14.92-23.59,28.16-40.67,36.16-14.34,6.72-29.28,9.82-45.38,8.45-23.49-1.99-43.65-10.92-61.94-25.47-27.38-21.79-45.99-49.18-55-83-5.8-21.8-4.93-43.57,1.84-64.94,6.1-19.26,16.1-36.54,29.72-51.48,7.12-7.81,14.71-15.29,22.84-22.03,5.18-4.3,11.74-6.92,17.63-10.37,2.74-1.61,5.35-3.45,8.07-5.11.7-.43,1.56-.8,2.35-.81,7.98-.06,15.95-.04,24.5-.04-1.08.63-1.86,1.22-2.74,1.59-25.02,10.76-44.87,27.9-61.6,49.12-14.96,18.98-22.22,40.49-23.83,64.49-1.63,24.25,4.07,46.61,15.69,67.51,11.8,21.22,30.78,34.5,51.99,45.22,11.7,5.92,23.83,9.89,36.9,9.52,17.54-.5,33.79-5.75,48.57-15.34,22.43-14.55,39.28-34.03,51.32-57.8,2.13-4.21,4.36-8.38,6.94-12.41-5.61,19.99-12.66,39.42-21.72,58.13-1.86-2.08-3.16-3.98-4.89-5.32-.94-.72-3.28-1.13-3.82-.57-1.59,1.66-3.29,3.76-3.66,5.9-.53,3.08,2.45,5.13,8.05,6.29ZM138.01,585.05c.65-.22,1.29-.45,1.94-.67.51-3.62,1.38-7.24,1.43-10.87.04-3.45-4.09-6.02-7.64-5.3-2.34.48-4.22,4.3-2.71,7.13,1.86,3.48,4.61,6.49,6.98,9.71ZM180.27,636.33c0,3.06,2.08,4.93,5.56,5,4.23.08,6.38-2.09,6.34-6.41-.03-3.65-1.83-5.34-5.62-5.31-3.83.04-6.27,2.65-6.27,6.72ZM174.36,622.81c.09-3.38-2.16-5.65-5.79-5.84-3.22-.16-6.14,2.94-6.17,6.55-.02,2.8,2.47,5.19,5.58,5.34,3.86.19,6.27-2.1,6.38-6.06ZM273.13,658.96c3.03-.03,4.67-1.99,4.54-5.44-.1-2.94-4.26-6.7-7.45-6.74-2.68-.04-4.49,2.25-4.49,5.69,0,4.08,2.8,6.53,7.4,6.49ZM208.02,646.42c.04-3.27-2.35-6.34-4.96-6.4-3.21-.07-6.18,2.85-6.22,6.12-.04,3.28,2.11,5.86,4.92,5.88,3.29.03,6.23-2.6,6.26-5.6ZM247.59,650.48c-3.17-.01-4.4,1.41-4.37,5.05.03,3.67,2.49,6.71,5.52,6.82,3.05.11,5.87-2.57,5.81-5.52-.07-3.5-3.17-6.34-6.95-6.35ZM123.87,545.95c.1,2.77,4.08,6.77,6.61,6.64,2.22-.11,4.77-3.33,4.71-5.93-.08-3.38-3.24-6.2-6.74-6.02-2.61.13-4.68,2.54-4.58,5.32ZM129.14,527.05c2.32-.02,4.44-2.66,4.45-5.53.01-2.93-3.38-5.88-6.67-5.8-2.82.07-5.02,2.47-4.99,5.45.02,2.62,4.06,5.91,7.22,5.88ZM287.07,637.78c-2.9-.08-4.84.97-4.91,4.19-.07,3.41,3.34,6.75,7.02,6.73,2.47-.01,4.88-.41,4.98-3.66.11-3.52-3.57-7.2-7.09-7.26ZM155.51,600.85c-.01-3.44-2.58-7.06-4.92-6.94-2.04.1-5.48,4.47-5.44,6.91.04,2.47,3.37,5.74,5.91,5.8,2.56.06,4.47-2.41,4.45-5.77ZM164.03,448.37c2.48.09,5.28-2.57,5.49-5.2.22-2.8-2.83-5.7-6.16-5.85-2.36-.11-4.68,2.77-4.68,5.78,0,2.6,2.61,5.17,5.35,5.27ZM146.26,459c.03,2.82,2.76,5.83,5.32,5.85,2.29.02,5.38-3.37,5.38-5.9,0-2.69-2.85-5.15-5.89-5.08-2.84.07-4.84,2.2-4.81,5.12ZM224.26,653.93c.11-3.18-1.38-5.28-3.88-5.45-2.85-.19-6.56,3.07-6.5,6.09.04,2.32.28,5.01,3.46,5.31,3.41.32,6.81-2.74,6.92-5.95ZM145.13,477.52c-.02-3.31-2.16-5.55-5.21-5.46-2.8.08-5.28,2.81-5.18,5.71.09,2.8,2.48,5.04,5.37,5.03,2.75,0,5.04-2.41,5.02-5.28ZM305.41,625.62c-2.62.17-4.53,1.6-4.95,4.4-.38,2.49,3.82,6.84,6.25,6.11,1.74-.53,3.91-2.43,4.29-4.09.66-2.9-2.76-6.39-5.59-6.42ZM176.02,427.16c.49,2.37,1.34,4.69,4.52,4.76,2.48.06,6.12-3.3,5.7-5.41-.51-2.6-1.83-4.62-4.96-4.57-3.21.05-5.32,2.02-5.25,5.22ZM137.11,499.02c-.05-2.79-2.29-5.1-4.93-5.09-2.22.02-5.05,2.97-4.12,5.14.91,2.12,2.99,4.14,5.07,5.22,1.67.87,4.02-2.49,3.98-5.27ZM195.28,415.43c-1.06,1.16-1.64,1.8-2.22,2.44,1.1.82,2.11,1.85,3.34,2.33.43.17,1.4-1.04,2.12-1.61-.96-.93-1.91-1.87-3.24-3.16Z"/>
        <path class="cls-1" d="M567.98,406.44c8.15-.25,16.31-.56,24.47-.7,1.14-.02,2.4.66,3.42,1.32,6.9,4.41,13.81,8.81,20.61,13.38,29.89,20.13,49.15,48.04,58.09,82.62,8.41,32.54,1.82,63.29-14.22,92.39-18.25,33.09-45.09,56.14-80.39,69.38-15.67,5.88-31.76,5.56-47.99,2.77-15.66-2.69-29.59-9.1-40.99-20.11-8.12-7.84-15.41-16.52-23.46-25.26,2.81-.68,4.82-.63,5.99-1.59,1.17-.96,1.91-2.87,2.15-4.47.45-3.09-.99-5.32-4.13-6.17-3.35-.91-4.94.24-7.1,5.45-9.65-16.48-15.11-34.14-19.69-52.19,1.08,2.17,2.16,4.33,3.23,6.51,9.35,19.04,21.45,35.97,37.83,49.67,19.07,15.96,40.81,24.86,65.87,24.55,8.93-.11,17.7-2.15,25.62-6.23,11.41-5.88,22.54-12.32,33.64-18.76,8.65-5.02,15.53-12.14,21.58-19.99,14.09-18.28,22.03-39.15,23.85-62.02.96-12.04-.63-24.15-3.51-36-6.19-25.52-19.46-46.79-38.55-64.57-10.55-9.83-22.14-18.24-35.17-24.5-3.64-1.75-7.47-3.1-11.22-4.63.03-.29.06-.57.09-.86ZM656.1,578.02c1.77,1.87,4,2.24,5.43.16,1.4-2.03,2.41-4.64,2.58-7.06.09-1.22-1.99-3.59-3.21-3.67-1.49-.1-4.08,1.37-4.46,2.66-.73,2.48-.23,5.32-.25,8.01-1.3-.5-3.49-1.71-3.74-1.39-1.1,1.4-2.59,3.56-2.15,4.85.54,1.61,2.96,3.8,4.32,3.64,2.13-.25,2.91-2.7,2.11-5.07-.24-.7-.42-1.42-.63-2.14ZM571.82,660.5c3.23.28,4.9-1.28,5.11-4.43.23-3.4-3.51-7.13-7.4-7.45-2.32-.19-5.35,2.94-5.39,5.59-.05,2.82,3.96,6.1,7.68,6.29ZM619.85,623.04c-.06,3.49,2.06,5.88,5.27,5.92,3.03.04,6.03-3.32,6.13-6.86.08-2.78-2.25-4.55-6.06-4.62-3.65-.06-5.28,1.63-5.35,5.57ZM644.02,593.56c-3.62-.2-5.61,1.64-5.72,5.28-.11,3.65,1.56,5.97,4.48,6.22,3.38.29,5.95-2.17,6.21-5.95.23-3.47-1.46-5.36-4.97-5.55ZM512.2,644.05c.06-2.91-2.79-6.14-5.37-6.09-2.76.05-6.44,3.68-6.39,6.3.05,2.61,2.7,5.21,5.33,5.23,3.34.04,6.37-2.53,6.44-5.44ZM528.79,652.71c.04-3.12-1.73-5.13-4.59-5.23-3.23-.11-6.58,3.07-6.64,6.3-.04,2.47,2.72,5.07,5.45,5.14,2.86.07,5.73-3.02,5.78-6.2ZM493.4,632.17c.08-2.8-2.83-5.81-5.66-5.84-2.87-.03-6.19,3.1-6.24,5.88-.04,2.54,3.06,4.89,6.46,4.91,3.01.01,5.36-2.12,5.44-4.95ZM670.26,548.04c-.44-2.22-.3-3.76-1-4.59-1.24-1.46-3.17-3.63-4.48-3.42-1.71.27-4.03,2.38-4.36,4.05-.36,1.77.97,4.19,2.19,5.86.95,1.29,3.62,2.96,4.21,2.56,1.64-1.12,2.58-3.24,3.43-4.46ZM586.83,640.07c-3.12-.21-3.9,1.9-4.02,4.51-.15,3.14,3.14,6.97,6,7.09,1.78.08,4.99-3.7,4.97-5.84-.03-2.83-3.48-5.74-6.95-5.77ZM612.82,633.97c.04-2.66-3.21-5.64-6.31-5.79-2.36-.11-4.32,2.21-4.28,5.07.04,2.96,2.94,6.81,5.27,7,2.32.19,5.28-3.31,5.33-6.28ZM628.59,436.24c-3.03-.47-4.32,1.44-4.64,4.24-.38,3.34,2.33,6.87,5.23,7.05,2.7.16,5.1-2.21,5.24-5.16.15-3.35-2.2-5.92-5.82-6.12ZM547.11,662.07c.88-.98,3.1-2.46,3.73-4.44.87-2.71-2.88-6.83-5.5-6.87-2.79-.05-5.37,2.36-5.42,5.06-.06,3.11,2.78,6.19,7.19,6.25ZM654.5,471.83c-3.05.04-5.36,2.17-5.38,4.99-.03,2.97,3.03,6.11,6,5.91,3.25-.23,4.27-2.76,4.56-5.42.34-3.14-2.11-5.52-5.18-5.48ZM648.15,459.89c0-3.53-2.12-5.93-5.08-6.01-2.83-.07-5.52,2.44-5.41,5.05.11,2.61,3.59,5.95,6.37,5.85,3.24-.11,3.88-2.53,4.12-4.9ZM661.33,521.47c.06,2.35,2.93,4.67,5.82,4.71,2.15.03,4.9-2.96,4.69-5.38-.26-2.86-1.92-4.5-4.88-4.54-3.14-.05-5.7,2.36-5.62,5.21ZM662.94,494.05c-3.33-.05-6.15,2.31-5.43,4.8.59,2.04,2.39,4.3,4.27,5.25,1.96.98,4.91-2.46,4.94-5.26.03-2.94-1.38-4.62-3.79-4.79ZM613.87,432.27c1.7-2.3,3.62-3.74,3.72-5.29.19-2.74-1.79-4.58-4.68-4.83-2.23-.2-5.93,2.8-5.12,4.4,1.02,2.01,3.42,3.33,6.08,5.72Z"/>
        <path class="cls-1" d="M293.75,328.73c-16.1-3.55-31.48-7.33-47.01-10.29-31.47-6.01-63.03-11.6-94.56-17.31-5.4-.98-10.88-1.51-16.25-2.6-21.23-4.3-34.34-24.73-29.57-45.87,2-8.87,11.13-14.66,20.52-12.11,10.81,2.94,21.57,6.26,32.03,10.25,22.63,8.61,44.51,18.83,65.46,31.12,16,9.38,30.54,20.71,45.56,31.42,7.48,5.33,15.43,10,23.81,15.39ZM152.11,278.96c2.69,0,5.34-2.79,5.38-5.67.05-3.41-2.17-5.73-5.46-5.72-3.16,0-5.47,2.51-5.4,5.85.06,2.9,2.67,5.54,5.48,5.54ZM138.51,264.45c.1-3.4-2.87-6.31-6.02-6.38-2.83-.06-5.64,2.23-5.82,4.73-.19,2.71,3.57,5.83,7.07,5.8,3.02-.03,4.4-1.82,4.77-4.15ZM134.7,288.62c2.84.11,5.73-2.22,5.84-4.7.13-2.98-2.44-5.81-5.47-6.01-3.01-.2-5.66,2.35-5.77,5.56-.08,2.43,2.65,5.05,5.39,5.16Z"/>
        <path class="cls-1" d="M501.55,327.69c16.06-7.9,29.19-19.56,43.1-30.09,15.22-11.52,32.05-20.25,49.18-28.41,22.78-10.85,46.23-20.05,70.3-27.63,1.55-.49,3.12-.92,4.7-1.25,8.38-1.74,14.49,1.74,17.3,9.8,6.73,19.31-2,38.91-21.35,45.9-8.47,3.06-17.58,4.54-26.51,6.12-26.28,4.67-52.66,8.79-78.91,13.62-18.27,3.36-36.38,7.56-54.56,11.37-1.07.23-2.16.38-3.25.57ZM660.1,268.71c4.6-.1,7.68-2.23,7.74-5.35.06-3.36-2.4-5.55-6.12-5.42-3.8.13-6.74,3.03-6.61,6.59.12,3.2,2.18,4.16,4.99,4.17ZM665.89,283.76c.01-2.77-3.58-6.29-6.35-6.21-2.41.07-4.86,2.91-4.89,5.68-.03,2.54,3.16,5.63,5.9,5.71,2.47.08,5.34-2.69,5.35-5.18ZM637.13,272.46c-.03,3.58,2.09,6.43,4.79,6.45,2.67.02,5.44-2.76,5.5-5.51.08-3.71-1.81-5.87-5.13-5.86-3.42,0-5.13,1.64-5.15,4.92Z"/>
        <path class="cls-1" d="M358.15,367.79c-.71,5.4-1.2,9.57-1.88,13.72-.11.68-1.04,1.29-1.7,1.8-26.3,20.41-55.16,36.86-84.24,52.74-27.44,14.98-55.81,28.28-83.9,42.07-8.94,4.39-18.27,8-27.43,11.94-1.59.68-3.26,1.17-5.76,2.05,1.1-2.67,1.79-4.69,2.73-6.6,11.81-24.13,29.31-43.15,51.59-58.02,9.28-6.19,18.82-11.73,29.34-15.52,1.38-.5,2.91-1.19,3.82-2.26,4.26-5,10.17-6.22,16.1-6.99,22.12-2.86,43.48-8.95,64.7-15.42,11.79-3.6,23.16-8.6,32.54-17.11.86-.78,2.04-1.22,4.1-2.41Z"/>
        <path class="cls-1" d="M437.46,370.09c1.32.51,2.56.73,3.5,1.38,18.1,12.53,38.63,18.89,59.8,23.61,14.48,3.23,29.03,6.17,43.46,9.59,3.23.77,6.18,2.88,9.16,4.55,2.26,1.27,4.17,3.47,6.55,4.14,11.28,3.21,20.55,9.85,30.12,16.23,19.19,12.78,34.64,28.82,45.29,49.34,1.98,3.81,3.63,7.78,5.44,11.67l-.82.85c-5.32-2.26-10.7-4.37-15.94-6.79-21.62-9.99-43.46-19.54-64.71-30.27-22.25-11.24-44.17-23.19-65.73-35.69-16.48-9.55-32.04-20.67-48.28-30.65-6.95-4.27-7.95-10.4-7.84-17.95Z"/>
        <path class="cls-1" d="M589.44,620.7c-1.16-4.37-1.98-8.4-3.31-12.25-7.67-22.22-17.81-43.36-28.68-64.15-9.48-18.13-19.11-36.17-28.75-54.22-1.98-3.71-4.27-7.26-6.94-11.77,1.46.7,2.09.9,2.61,1.26,24.67,16.96,49.27,34.04,74.04,50.86,8.77,5.96,18.04,11.17,26.92,16.97,4.79,3.13,9.2,6.83,13.85,10.18,2.23,1.61,2.77,3.37,1.88,6.06-8.72,26.47-25.43,45.67-51.63,57.05ZM612.67,582.2c.06-4.13-2.67-7.73-5.89-7.79-3.26-.06-5.68,2.42-5.84,6-.16,3.47,3.51,7.63,6.81,7.73,2.66.08,4.87-2.6,4.92-5.94ZM595.76,556.76c-4.51-.06-8.64,3.11-8.57,6.57.06,2.8,3.5,5.59,6.87,5.56,2.58-.02,5.5-3.76,5.47-7.37-.02-2.4-.35-4.9-3.77-4.75ZM580.62,542.33c.04-3.18-.99-4.95-4.07-4.99-3.11-.03-4.84,1.92-4.88,4.53-.04,2.71,2.01,4.43,4.88,4.62,3.24.21,3.86-2.03,4.07-4.16Z"/>
        <path class="cls-1" d="M204.09,621.34c-21.62-9.37-36.56-24.75-46.09-45.51-2.23-4.85-3.89-9.97-5.55-15.05-.28-.84.48-2.6,1.28-3.14,19.24-12.95,38.55-25.81,57.86-38.65,14.44-9.6,28.96-19.07,43.35-28.74,4.85-3.26,9.41-6.95,14.69-10.14-1.43,3.07-2.7,6.21-4.3,9.19-13.82,25.69-27.88,51.25-41.5,77.05-7.28,13.79-13.6,28.06-17.6,43.21-.98,3.71-1.39,7.58-2.13,11.78ZM185.41,574.39c-3.32-.12-6.5,3.55-6.7,7.73-.17,3.45,2.27,6.24,5.46,6.27,3.52.03,6.9-3.54,7.04-7.42.13-3.5-2.48-6.46-5.8-6.58ZM198.36,556.91c-3.73-.14-5.57,1.69-5.75,5.7-.16,3.69,2.42,6.57,5.99,6.68,3.22.1,6-2.64,6.25-6.15.23-3.3-2.68-6.09-6.49-6.23ZM216.28,537.33c-3.04.15-4.48,1.78-4.7,4.45-.2,2.43,2.75,5.59,5.13,5.36,2.68-.25,4.35-1.92,4.1-4.71-.25-2.77-1.5-4.94-4.54-5.1Z"/>
        <path class="cls-1" d="M479.07,419.99c3.96,2.35,8.07,4.47,11.85,7.07,20.41,14.07,42.31,25.46,64.71,35.93,28.59,13.36,57.22,26.63,85.77,40.06,1.32.62,2.74,2.28,3.03,3.68,2.79,13.28,3.87,26.65,1.07,40.09-.12.58-.4,1.14-.74,2.07-7.87-4.97-15.63-9.66-23.18-14.67-18.61-12.34-37.1-24.86-55.69-37.22-13.5-8.98-26.97-18.02-40.68-26.66-12.99-8.18-23.74-18.49-32.49-31.08-4.19-6.03-9-11.63-13.51-17.45-.3-.39-.44-.89-.66-1.34.17-.15.35-.31.52-.46ZM625.66,515.59c.05-3.16-2.17-5.7-4.79-5.46-3.09.28-3.4,2.94-3.62,5.24-.26,2.68,1.12,4.22,3.93,4.23,2.91,0,4.27-1.59,4.47-4.01Z"/>
        <path class="cls-1" d="M315.48,419.85c-12.53,17.02-24.74,34.18-42.13,46.52-9.56,6.79-19.18,13.51-28.95,19.99-23.4,15.51-46.92,30.83-70.37,46.26-6.67,4.39-13.26,8.89-19.91,13.31-1.22.81-2.53,1.47-4.43,2.57-.53-3.93-1.42-7.33-1.36-10.71.21-10.47.72-20.93,1.35-31.38.06-1.09,1.48-2.53,2.61-3.05,16.67-7.64,33.51-14.9,50.07-22.76,17.45-8.29,34.69-17.04,51.95-25.73,20.39-10.26,40.76-20.59,59.37-33.98.56-.4,1.2-.7,1.8-1.04ZM165.39,514.79c.6,3.4,3.29,6.49,5.75,5.89,1.47-.36,3.29-2.22,3.62-3.7.58-2.59-2.78-6.18-5.11-5.58-1.61.41-2.86,2.22-4.26,3.4Z"/>
        <path class="cls-1" d="M358.88,429.76c1.98,17.47,4.15,34.96,1.87,52.49-1.9,14.54-4.13,29.1-7.36,43.39-1.65,7.28-5.46,14.17-8.91,20.92-6.79,13.31-13.28,26.86-21.25,39.45-9.78,15.47-22.65,28.18-39.67,35.98-.64.29-1.3.53-1.86.76,25.74-64.37,51.45-128.65,77.18-192.99ZM324.75,567.76c2.52.07,5.32-2.89,5.38-5.68.06-2.78-2.3-5.33-5.05-5.46-3-.14-5.3,2.17-5.38,5.41-.08,3.29,1.99,5.64,5.05,5.73Z"/>
        <path class="cls-1" d="M510.62,624.69c-18.05-8.87-31.57-22.31-42.01-38.82-7.32-11.58-14.26-23.45-20.59-35.59-7.26-13.94-11.15-29.05-12.87-44.67-1.29-11.77-2.9-23.53-3.46-35.34-.37-7.8.84-15.67,1.41-23.51.31-4.34.77-8.67,1.26-14.13,25.64,64.55,50.88,128.11,76.27,192.06ZM462.96,562.69c-.2,2.69,1.85,5.04,4.62,5.31,2.67.26,5.56-2.32,5.82-5.19.24-2.71-2.66-5.66-5.69-5.77-2.59-.1-4.5,2.17-4.75,5.65Z"/>
        <path class="cls-1" d="M103.62,163.01c16.11,10.51,30.39,23.04,44.2,36,23.51,22.07,46.47,44.74,69.21,67.82-4.34-2.02-8.71-3.99-13.02-6.07-19.56-9.46-39.49-18.02-60.1-24.94-6.02-2.02-12.33-3.28-18.2-5.65-6.2-2.5-12.46-5.29-17.93-9.05-13.26-9.1-17.77-24.74-13.18-42.4,1.55-5.95,4.29-11.13,9.04-15.71Z"/>
        <path class="cls-1" d="M573.19,268.91c39.98-34.47,74.5-75.05,118.5-105.09,8.21,8.63,9.86,19.11,9.45,30.04-.47,12.62-6.37,22.23-17.09,29.02-10.28,6.51-22.07,9.06-33.2,13.38-23.23,9.02-46.24,18.6-69.3,28.06-2.92,1.2-5.58,3.05-8.37,4.59Z"/>
        <path class="cls-1" d="M220.31,254.67c-37.29-31.92-68.98-69.58-109.94-98.38,3.26-1.95,5.44-3.62,7.89-4.65,17.38-7.3,34.07-6.11,49.73,4.68,8.79,6.05,15.74,13.76,20.02,23.69,9.41,21.86,18.83,43.72,28.26,65.57,1.31,3.04,2.69,6.06,4.04,9.09Z"/>
        <path class="cls-1" d="M685.34,156.48c-40.32,29.3-73.68,65.29-110.34,98.27-.15-.94-.32-1.31-.22-1.55,7.6-17.76,14.98-35.62,22.96-53.22,4.46-9.84,8.76-20.11,15.2-28.64,12.61-16.71,29.88-25.35,51.36-23.43,7.43.66,14.06,3.87,21.05,8.56Z"/>
        <path class="cls-1" d="M426.74,352.64c-2.66,1.1-4.6,1.64-6.28,2.62-12.63,7.45-25.69,7.64-39.2,2.72-4.22-1.54-8.62-2.55-13.7-4.02,1.95-21.47,5.76-43.31,16.67-63.5,7.71,2.28,15.01,2.2,22.28.63,2.15-.46,3.29.13,4.04,2.05,2.72,6.95,6.2,13.69,8.03,20.87,3.25,12.76,5.49,25.77,8.14,38.63ZM389.26,316.89c-1.89-1.68-3.01-2.67-4.13-3.65-1.18,1.35-2.85,2.54-3.33,4.11-.23.73,1.96,3.17,2.82,3.06,1.38-.18,2.57-1.84,4.64-3.51Z"/>
        <path class="cls-1" d="M427.14,236.66c-1.69-.55-3.46-.94-5.07-1.67-4.57-2.07-8.6-.31-9.88,4.55-.34,1.3-.34,2.72-.33,4.08.01,5.11,2.23,8.4,6.05,9.12,4.01.75,6.62-.96,8.88-5.72.82-1.73,1.76-3.41,2.82-5.44,3.84,10.35-2.56,26.43-12.84,33.58-14.77,10.28-31.26,6.78-42.3-2.41-9.87-8.22-14-22.48-9.69-30.83.88,2.46,1.53,5.19,2.79,7.6,1.41,2.7,3.86,4.21,7.1,3.91,4.31-.39,7.33-3.5,7.89-8.12.78-6.39-.76-9.42-5.15-10.83-1.47,1.48-2.67,3.69-4.17,3.92-1.82.28-4.08-.84-5.73-1.97-.45-.31.25-2.99.98-4.25,4.69-8.01,12.43-11.73,20.96-13.75,14.41-3.41,26.27,1.37,35.82,12.34,1.17,1.34,1.77,3.18,2.64,4.78-.26.36-.51.72-.77,1.09Z"/>
        <path class="cls-1" d="M367.04,385.88v-25.06c19.72,11.82,39.25,15.06,59.8,1.18v23.07c-5.17,1.9-10.31,4.08-15.63,5.67-12.26,3.66-24.15,1.85-35.74-3.05-1.37-.58-2.74-1.21-4.18-1.53-1.3-.29-2.7-.19-4.26-.28Z"/>
        <path class="cls-1" d="M427.84,393.95c-.4,6.44-.8,12.88-1.18,18.92-3.61,1.87-7.02,3.74-10.52,5.44-13.39,6.54-26.56,5.19-39.56-1.22-1.34-.66-2.55-1.99-3.91-2.13-5.13-.54-5.29-4.01-5.3-7.92-.02-4.35-.35-8.7-.57-13.87,20.33,11.17,40.41,13.69,60.43-.4.2.39.41.78.61,1.18Z"/>
        <path class="cls-1" d="M370.66,443.83c-.72-6.58-1.43-13.13-2.19-20.14,19.26,10.58,38.25,12.86,57.65-.73-1.01,7.14-1.88,13.38-2.8,19.63-.07.45-.3,1.12-.63,1.25-6.02,2.29-11.91,5.31-18.15,6.57-9.48,1.92-18.83.05-27.66-4-1.9-.87-3.87-1.61-6.21-2.58Z"/>
        <path class="cls-1" d="M371.77,454.93c17.07,7.39,33.81,9.58,50.89-1.47-.82,6.93-1.56,13.17-2.24,18.95-3.1,1.35-5.95,2.44-8.66,3.81-9.32,4.7-18.77,4.15-28.32.91-1.41-.48-2.73-1.45-4.17-1.62-4.48-.54-5.27-3.59-5.65-7.29-.44-4.29-1.17-8.54-1.84-13.29Z"/>
        <path class="cls-1" d="M418.95,483.85c-1.51,5.71-3,11.43-4.6,17.11-.15.53-.98,1.02-1.6,1.23-3.39,1.19-6.84,2.21-10.22,3.44-4.46,1.61-8.71.39-13.18-.22-7.73-1.07-10.59-5.61-11.36-12.61-.28-2.52-1.08-4.98-1.86-8.41,14.79,6.76,28.66,7.35,42.18-1.39.21.28.42.56.63.84Z"/>
        <path class="cls-1" d="M383.05,512.41c9.88,4.21,18.92,5.2,28.22-1.53-2.49,7.7-5.18,14.16-9.96,19.55-2.84,3.2-4.19,3.27-7.45.33-5.25-4.73-7.9-11.04-10.81-18.34Z"/>
        <path class="cls-1" d="M263.8,114.12c-3.53-.03-6.23-2.43-6.24-5.56-.01-3.48,3.7-7.1,7.33-7.14,3.39-.04,6.43,3.08,6.31,6.47-.13,3.68-3.21,6.27-7.4,6.23Z"/>
        <path class="cls-1" d="M531.82,113.62c-4.05.06-6-1.82-6.04-5.79-.03-3.17,3.39-6.33,6.9-6.37,3.06-.03,5.74,2.56,5.8,5.6.06,3.46-3.04,6.52-6.66,6.57Z"/>
        <path d="M542.15,609.91c.24-3.58,2.54-5.6,6.17-5.42,4.12.21,6.5,2.73,6.29,6.68-.2,3.82-3.08,6.79-6.25,6.45-3.27-.34-6.44-4.28-6.21-7.72Z"/>
        <path d="M538.63,580.93c3.13.03,5.96,3.08,5.95,6.42-.01,3.36-2.44,6.25-5.2,6.18-3.31-.09-6.52-3.59-6.43-7,.09-3.35,2.4-5.63,5.68-5.6Z"/>
        <path d="M525.21,561.67c2.97-.06,5.06,2,5.11,4.91.05,2.83-1.45,4.4-4.2,4.65-2.81.25-5.08-1.85-5.11-4.63-.03-2.95,1.45-4.6,4.2-4.92Z"/>
        <path d="M550.43,225.73c-.09.38-.02,1.33-.46,1.78-4.03,4.13-7.94,8.44-12.41,12.04-.94.76-4.38-.69-6.05-1.95-2.24-1.69-3.56-4.47-2.01-7.29,2.7-4.9,6.59-8.83,11.82-10.93,4.3-1.73,8.95,1.57,9.11,6.35Z"/>
        <path d="M249.28,609.53c0,3.82-2.78,7.35-5.86,7.43-3.02.08-6.1-3.19-6.01-6.37.1-3.58,2.93-6.69,6.13-6.74,3.76-.06,5.74,1.9,5.74,5.68Z"/>
        <path d="M254.16,580.87c3.6.04,5.85,2.33,5.74,5.82-.12,3.64-3.25,7.17-6.31,7.1-2.76-.06-5.39-3.08-5.32-6.1.08-3.78,2.74-6.85,5.89-6.82Z"/>
        <path d="M269.98,566.51c.01,2.33-2.47,5.06-4.64,5.11-2.24.05-4.97-2.76-5.02-5.19-.06-2.71,1.95-4.86,4.56-4.87,2.71-.01,5.09,2.29,5.1,4.94Z"/>
        <path d="M269.77,252.82c-.59-.23-2.06-.36-2.81-1.17-2.84-3.07-5.69-6.19-8.04-9.62-1.55-2.27-.96-5.3,1.35-6.63,1.74-1,4.78-1.39,6.46-.53,5.06,2.6,7.66,7.36,8.48,12.9.4,2.71-2.12,5.07-5.44,5.05Z"/>
        <path d="M255.82,227.01c.26,3.46-3.86,6.79-6.84,4.92-3.71-2.33-7.03-5.48-9.88-8.82-.91-1.06-.41-4.27.57-5.73.85-1.27,3.34-2.08,5.05-1.99,4.01.21,10.8,7.67,11.1,11.62Z"/>
        <path d="M692.59,311.24c-3.42.03-6.2-2.29-6.19-5.18,0-2.57,2.93-4.93,6.07-4.9,3.21.03,5.7,2.4,5.83,5.57.12,2.65-2.2,4.47-5.72,4.51Z"/>
        <path d="M712.82,234.12c-1-.77-3.19-1.97-4.67-3.76-1.5-1.8-.7-3.79,1.25-5.11,3.13-2.12,9.69.54,10.48,4.23.47,2.22-2.52,4.68-7.05,4.63Z"/>
        <path d="M711.07,244.87c3.21.18,5.87,2.93,5.63,5.79-.22,2.59-2.97,4.67-5.92,4.48-2.87-.18-5.62-2.7-5.55-5.08.08-2.68,3.09-5.35,5.84-5.2Z"/>
        <path d="M723.01,171.65c.1,2.47-1.19,4.17-4.09,4.29-2.67.11-6.1-3.12-6.09-5.55,0-2.71,2.58-5.1,5.39-5.01,3.01.1,4.82,2.34,4.8,6.28Z"/>
        <path d="M726.65,191.49c-.01,2.63-3.01,6.35-4.93,5.44-2.01-.95-3.91-3.3-4.67-5.46-.83-2.37,2.3-5.82,4.45-5.85,2.51-.03,5.16,2.99,5.15,5.86Z"/>
        <path d="M685.03,319.11c2.91.06,5.11,2.42,4.98,5.33-.12,2.56-2.63,4.82-5.26,4.72-2.79-.1-4.73-2.25-4.68-5.17.04-2.8,2.22-4.94,4.96-4.88Z"/>
        <path d="M702.63,284.8c2.98.03,6.14,2.86,5.19,4.93-.91,2-3.15,3.94-5.25,4.72-2.01.74-4.85-2.79-4.6-5.2.31-2.93,2.35-4.12,4.65-4.45Z"/>
        <path d="M708.11,273.79c-2.55-.02-4.97-2.36-4.84-4.7.12-2.27,3.02-4.74,5.5-4.7,2.2.03,4.92,2.7,4.92,4.83,0,2.19-2.92,4.58-5.58,4.57Z"/>
        <path d="M689.24,133.76c-.05,2.81-1.14,4.82-4.21,5.05-2.8.21-5.88-2.5-5.71-5.16.19-3.08,2.36-4.17,5.11-4.17,2.76,0,4.89.95,4.81,4.28Z"/>
        <path d="M675.93,336.23c2.84-.11,5.15,2.21,5.25,4.99.09,2.6-2.01,4.92-4.53,4.99-2.37.06-5.16-2.62-5.07-5.05.11-2.91,1.77-4.5,4.34-4.93Z"/>
        <path d="M706.89,154.24c.21-3.04,1.15-5.09,4.47-4.98,2.65.09,5.99,2.86,5.04,4.71-1.06,2.06-3.19,4.47-5.23,4.89-2.74.57-4.17-2.03-4.28-4.62Z"/>
        <path d="M646.92,376.44c-1.98-1.81-3.68-2.79-4.4-4.25-.41-.82.79-2.44,1.3-3.68.08-.2.41-.28.58-.45,2.15-2.07,4.65-2.41,7.12-.91.81.49,1.72,2.48,1.41,2.88-1.65,2.14-3.67,3.99-6.01,6.4Z"/>
        <path d="M719.87,206.52c2.5-.11,5.68,2.54,5,4.89-.55,1.91-2.42,3.91-4.23,4.85-1.74.91-5.23-2.48-5.38-4.67-.16-2.28,2.29-4.98,4.61-5.08Z"/>
        <path d="M700.54,148.52c-2.11-2.52-3.98-3.9-4.61-5.71-.76-2.2,2.11-5.28,4.4-5.44,2.25-.16,5.67,2.5,5,4.37-.78,2.17-2.7,3.93-4.79,6.78Z"/>
        <path d="M669.8,356.43c-.92.77-2.27,2.59-4.02,3.15-2.32.74-5.33-2.16-5.32-4.49,0-2.44,2.34-4.69,4.92-4.58,2.88.11,4.15,1.86,4.42,5.92Z"/>
        <path d="M625.25,386.91c-1.94-1.66-3.78-2.47-4.14-3.71-.63-2.18,3.04-4.67,6.17-4.68,2.52-.01,3.89,1.91,3.2,3.51-.79,1.83-3.11,3.01-5.23,4.89Z"/>
        <path d="M83.69,148.38c2.76.09,4.7,2.25,4.65,5.17-.05,2.86-2.98,6.08-5.5,6.06-2.64-.03-5.6-3.04-5.49-5.57.13-2.87,3.36-5.75,6.34-5.65Z"/>
        <path d="M100.51,141.75c.03,2.83-3.03,6.02-5.73,6.11-2.29.07-5.12-2.9-5.22-5.5-.11-2.73,3.15-5.6,6.47-5.5,3.16.09,4.07,2.39,4.48,4.89Z"/>
        <path d="M82.29,244.59c2.71.09,5.89,2.96,5.88,5.32,0,2.47-2.92,5.41-5.23,5.28-3.04-.18-6.33-2.97-6.26-5.31.08-3.02,2.6-5.38,5.61-5.29Z"/>
        <path d="M100.6,301.13c3.12-.06,6.43,2.57,6.16,5.18-.27,2.63-1.8,4.25-4.67,4.23-3.26-.03-6.47-2.3-6.16-4.63.35-2.62,1.51-4.75,4.67-4.77Z"/>
        <path d="M80.09,211.1c.05,2.24-2.82,5.49-4.73,4.69-2.18-.91-4.51-2.72-5.54-4.76-1.04-2.06,2.09-5.21,4.54-5.28,2.81-.08,5.67,2.58,5.73,5.34Z"/>
        <path d="M77.32,175.07c-2.41-.02-6.67-3.38-5.9-5.13.86-1.94,2.9-3.92,4.88-4.66,2.16-.8,5.55,2.63,5.58,4.85.03,2.48-2.25,4.96-4.55,4.94Z"/>
        <path d="M122,340.43c-.02,3.02-2.05,4.18-4.57,4.34-2.75.17-5.21-2.78-5.34-5.64-.15-3.3,1.76-4.03,4.5-3.97,3.48.08,5.46,1.99,5.42,5.27Z"/>
        <path d="M107.37,318.73c3.11-.13,7.33,3.08,6.71,5.32-.51,1.87-2.45,3.94-4.26,4.69-2.14.89-5.62-2.16-5.46-4.3.18-2.44.66-4.89,3.01-5.71Z"/>
        <path d="M93.09,293.9c-3.38-.52-7.73-3.68-7.01-5.43.79-1.9,2.54-4.11,4.36-4.7,2.67-.87,6.46,2.59,5.91,5.19-.38,1.8-2.13,3.3-3.26,4.94Z"/>
        <path d="M84.81,263.97c2.51.07,6,3.06,5.26,5.2-.63,1.8-2.69,3.83-4.51,4.32-2.49.67-5.86-2.5-5.9-4.57-.04-2.29,2.79-5.01,5.15-4.95Z"/>
        <path d="M72.99,195.23c-2.68,0-5.32-2.59-5.1-5.25.23-2.71,1.49-4.73,4.52-4.92,2.67-.17,4.99,2.3,5.11,5.28.1,2.46-2.15,4.88-4.53,4.89Z"/>
        <path d="M127.23,349.98c3.06-.06,5.89,2.33,5.9,5.07.01,2.88-1.67,4.36-4.37,4.61-2.69.25-5.63-2.4-5.65-4.87-.03-2.7,1.74-4.76,4.12-4.81Z"/>
        <path d="M85.3,228.05c-.14,3.22-2.95,6.4-4.9,5.57-1.92-.82-4.02-2.53-4.8-4.37-.83-1.98,2.54-5.16,4.76-4.98,2.67.22,4.79,1.23,4.93,3.78Z"/>
        <path d="M90.26,234.62c4.24.07,7.1,2.64,6.53,5.19-.31,1.41-1.65,3.33-2.87,3.63-2.54.64-6.65-2.95-6.16-5.25.33-1.55,1.94-2.82,2.5-3.57Z"/>
        <path d="M110.06,129.04c3.56.62,5.3,1.77,5.31,4.55.02,2.71-.97,4.99-4.07,5.3-2.45.24-4.75-2.37-4.27-5.42.25-1.59,1.97-2.95,3.02-4.42Z"/>
        <path d="M161,332.62c.03-4.46,2.77-7.85,5.78-7.83,2.72.01,4.73,2.84,4.67,6.55-.05,2.85-2.37,5.07-5.41,4.86-2.62-.18-4.95-.98-5.04-3.57Z"/>
        <path d="M186.7,338.2c-2.47,2.12-3.85,3.69-5.58,4.5-.42.2-2.67-1.98-2.92-3.29-.49-2.55,1.11-4.48,3.76-4.37,1.24.05,2.41,1.54,4.73,3.16Z"/>
        <path d="M625.47,325.39c3.19-.12,6.79,3.17,6.24,6.55-.28,1.73-2.26,3.98-3.94,4.51-2.92.92-6.63-2.55-6.75-5.52-.11-2.81,2.01-5.44,4.46-5.54Z"/>
        <path d="M613.32,335.26c1.71,2.28,3.07,3.94,4.21,5.73.29.45.11,1.56-.28,1.97-.32.34-1.32.28-1.91.07-3.34-1.14-4.05-3.07-2.02-7.77Z"/>
        <path d="M138.01,585.05c-2.37-3.21-5.12-6.22-6.98-9.71-1.51-2.83.37-6.65,2.71-7.13,3.55-.72,7.68,1.85,7.64,5.3-.05,3.63-.92,7.24-1.43,10.87-.65.22-1.29.45-1.94.67Z"/>
        <path d="M180.27,636.33c0-4.07,2.44-6.68,6.27-6.72,3.8-.04,5.59,1.66,5.62,5.31.03,4.32-2.11,6.49-6.34,6.41-3.48-.06-5.56-1.94-5.56-5Z"/>
        <path d="M174.36,622.81c-.11,3.96-2.52,6.25-6.38,6.06-3.1-.16-5.6-2.55-5.58-5.34.03-3.61,2.96-6.71,6.17-6.55,3.63.19,5.88,2.46,5.79,5.84Z"/>
        <path d="M273.13,658.96c-4.6.05-7.4-2.4-7.4-6.49,0-3.44,1.81-5.73,4.49-5.69,3.2.05,7.35,3.81,7.45,6.74.12,3.45-1.52,5.4-4.54,5.44Z"/>
        <path d="M208.02,646.42c-.04,3.01-2.97,5.63-6.26,5.6-2.81-.02-4.96-2.6-4.92-5.88.04-3.27,3.01-6.18,6.22-6.12,2.62.05,5,3.13,4.96,6.4Z"/>
        <path d="M247.59,650.48c3.78.01,6.88,2.85,6.95,6.35.06,2.95-2.76,5.62-5.81,5.52-3.03-.11-5.49-3.14-5.52-6.82-.03-3.64,1.2-5.06,4.37-5.05Z"/>
        <path d="M123.87,545.95c-.1-2.78,1.97-5.18,4.58-5.32,3.5-.18,6.66,2.64,6.74,6.02.06,2.61-2.49,5.82-4.71,5.93-2.53.13-6.51-3.87-6.61-6.64Z"/>
        <path d="M129.14,527.05c-3.16.03-7.2-3.26-7.22-5.88-.03-2.98,2.18-5.38,4.99-5.45,3.29-.08,6.68,2.87,6.67,5.8-.01,2.88-2.13,5.51-4.45,5.53Z"/>
        <path d="M287.07,637.78c3.52.05,7.19,3.74,7.09,7.26-.1,3.24-2.51,3.64-4.98,3.66-3.68.02-7.09-3.31-7.02-6.73.07-3.21,2.02-4.27,4.91-4.19Z"/>
        <path d="M155.51,600.85c.01,3.35-1.89,5.83-4.45,5.77-2.54-.06-5.87-3.32-5.91-5.8-.04-2.44,3.4-6.81,5.44-6.91,2.34-.12,4.9,3.5,4.92,6.94Z"/>
        <path d="M164.03,448.37c-2.74-.09-5.35-2.66-5.35-5.27,0-3.02,2.32-5.89,4.68-5.78,3.33.15,6.38,3.05,6.16,5.85-.21,2.63-3.01,5.28-5.49,5.2Z"/>
        <path d="M146.26,459c-.04-2.93,1.96-5.06,4.81-5.12,3.04-.07,5.89,2.39,5.89,5.08,0,2.53-3.09,5.92-5.38,5.9-2.56-.03-5.29-3.03-5.32-5.85Z"/>
        <path d="M224.26,653.93c-.11,3.21-3.51,6.26-6.92,5.95-3.18-.3-3.41-2.99-3.46-5.31-.06-3.02,3.65-6.28,6.5-6.09,2.49.17,3.98,2.27,3.88,5.45Z"/>
        <path d="M145.13,477.52c.02,2.87-2.27,5.28-5.02,5.28-2.89,0-5.28-2.23-5.37-5.03-.1-2.9,2.38-5.63,5.18-5.71,3.05-.09,5.19,2.15,5.21,5.46Z"/>
        <path d="M305.41,625.62c2.83.04,6.26,3.53,5.59,6.42-.38,1.66-2.55,3.57-4.29,4.09-2.43.73-6.63-3.62-6.25-6.11.42-2.8,2.33-4.24,4.95-4.4Z"/>
        <path d="M176.02,427.16c-.07-3.2,2.04-5.17,5.25-5.22,3.13-.05,4.45,1.97,4.96,4.57.42,2.11-3.22,5.47-5.7,5.41-3.18-.08-4.03-2.39-4.52-4.76Z"/>
        <path d="M137.11,499.02c.05,2.78-2.31,6.14-3.98,5.27-2.08-1.08-4.16-3.1-5.07-5.22-.93-2.17,1.9-5.12,4.12-5.14,2.63-.02,4.88,2.3,4.93,5.09Z"/>
        <path d="M195.28,415.43c1.33,1.3,2.28,2.23,3.24,3.16-.72.58-1.69,1.78-2.12,1.61-1.23-.48-2.24-1.52-3.34-2.33.58-.64,1.16-1.28,2.22-2.44Z"/>
        <path d="M571.82,660.5c-3.73-.19-7.74-3.47-7.68-6.29.05-2.65,3.07-5.78,5.39-5.59,3.88.32,7.62,4.05,7.4,7.45-.21,3.15-1.88,4.71-5.11,4.43Z"/>
        <path d="M619.85,623.04c.07-3.93,1.7-5.63,5.35-5.57,3.81.07,6.14,1.84,6.06,4.62-.1,3.54-3.1,6.9-6.13,6.86-3.21-.04-5.33-2.42-5.27-5.92Z"/>
        <path d="M644.02,593.56c3.51.19,5.21,2.08,4.97,5.55-.25,3.78-2.83,6.25-6.21,5.95-2.93-.25-4.6-2.58-4.48-6.22.11-3.64,2.1-5.47,5.72-5.28Z"/>
        <path d="M512.2,644.05c-.06,2.91-3.1,5.48-6.44,5.44-2.63-.03-5.28-2.63-5.33-5.23-.05-2.62,3.63-6.25,6.39-6.3,2.59-.05,5.44,3.18,5.37,6.09Z"/>
        <path d="M528.79,652.71c-.04,3.19-2.91,6.27-5.78,6.2-2.74-.06-5.5-2.66-5.45-5.14.06-3.22,3.41-6.41,6.64-6.3,2.86.1,4.63,2.11,4.59,5.23Z"/>
        <path d="M493.4,632.17c-.08,2.83-2.43,4.97-5.44,4.95-3.41-.02-6.51-2.37-6.46-4.91.05-2.79,3.37-5.92,6.24-5.88,2.83.03,5.75,3.03,5.66,5.84Z"/>
        <path d="M670.26,548.04c-.85,1.21-1.8,3.34-3.43,4.46-.6.41-3.27-1.26-4.21-2.56-1.22-1.67-2.55-4.09-2.19-5.86.33-1.66,2.66-3.78,4.36-4.05,1.31-.21,3.24,1.96,4.48,3.42.7.83.56,2.37,1,4.59Z"/>
        <path d="M586.83,640.07c3.47.03,6.92,2.94,6.95,5.77.02,2.13-3.2,5.91-4.97,5.84-2.86-.12-6.14-3.95-6-7.09.12-2.61.9-4.73,4.02-4.51Z"/>
        <path d="M612.82,633.97c-.05,2.97-3.02,6.47-5.33,6.28-2.33-.19-5.23-4.04-5.27-7-.03-2.87,1.92-5.18,4.28-5.07,3.11.15,6.36,3.13,6.31,5.79Z"/>
        <path d="M628.59,436.24c3.63.21,5.98,2.78,5.82,6.12-.13,2.96-2.54,5.33-5.24,5.16-2.9-.18-5.62-3.71-5.23-7.05.32-2.8,1.61-4.71,4.64-4.24Z"/>
        <path d="M547.11,662.07c-4.42-.06-7.26-3.14-7.19-6.25.05-2.7,2.64-5.11,5.42-5.06,2.62.05,6.37,4.16,5.5,6.87-.63,1.98-2.86,3.45-3.73,4.44Z"/>
        <path d="M654.5,471.83c3.07-.04,5.52,2.34,5.18,5.48-.29,2.66-1.31,5.19-4.56,5.42-2.97.21-6.03-2.94-6-5.91.03-2.81,2.33-4.95,5.38-4.99Z"/>
        <path d="M648.15,459.89c-.24,2.37-.88,4.79-4.12,4.9-2.78.1-6.26-3.24-6.37-5.85-.11-2.61,2.58-5.12,5.41-5.05,2.96.07,5.08,2.47,5.08,6.01Z"/>
        <path d="M656.2,578.13c.01-2.69-.48-5.53.25-8.01.38-1.3,2.97-2.76,4.46-2.66,1.22.08,3.3,2.44,3.21,3.67-.17,2.43-1.18,5.04-2.58,7.06-1.43,2.08-3.66,1.7-5.43-.16l.1.11Z"/>
        <path d="M661.33,521.47c-.08-2.85,2.48-5.26,5.62-5.21,2.96.04,4.63,1.69,4.88,4.54.22,2.42-2.54,5.41-4.69,5.38-2.89-.04-5.75-2.36-5.82-4.71Z"/>
        <path d="M662.94,494.05c2.4.18,3.81,1.86,3.79,4.79-.02,2.79-2.98,6.24-4.94,5.26-1.88-.94-3.68-3.21-4.27-5.25-.72-2.5,2.1-4.86,5.43-4.8Z"/>
        <path d="M613.87,432.27c-2.66-2.39-5.06-3.71-6.08-5.72-.81-1.6,2.9-4.6,5.12-4.4,2.89.25,4.87,2.09,4.68,4.83-.11,1.56-2.02,2.99-3.72,5.29Z"/>
        <path d="M656.1,578.02c.21.71.39,1.43.63,2.14.8,2.37.03,4.82-2.11,5.07-1.36.16-3.78-2.03-4.32-3.64-.43-1.29,1.05-3.45,2.15-4.85.25-.32,2.44.89,3.74,1.39,0,0-.1-.11-.1-.11Z"/>
        <path d="M152.11,278.96c-2.81,0-5.42-2.63-5.48-5.54-.07-3.34,2.24-5.84,5.4-5.85,3.29,0,5.51,2.31,5.46,5.72-.04,2.88-2.68,5.67-5.38,5.67Z"/>
        <path d="M138.51,264.45c-.37,2.32-1.75,4.12-4.77,4.15-3.5.03-7.26-3.09-7.07-5.8.18-2.5,2.99-4.79,5.82-4.73,3.14.07,6.12,2.98,6.02,6.38Z"/>
        <path d="M134.7,288.62c-2.74-.11-5.48-2.72-5.39-5.16.11-3.21,2.76-5.76,5.77-5.56,3.03.21,5.6,3.04,5.47,6.01-.11,2.49-3,4.81-5.84,4.7Z"/>
        <path d="M660.1,268.71c-2.81,0-4.87-.97-4.99-4.17-.13-3.57,2.81-6.46,6.61-6.59,3.71-.13,6.18,2.05,6.12,5.42-.06,3.12-3.15,5.25-7.74,5.35Z"/>
        <path d="M665.89,283.76c-.01,2.48-2.88,5.26-5.35,5.18-2.74-.09-5.93-3.17-5.9-5.71.03-2.76,2.49-5.61,4.89-5.68,2.78-.07,6.37,3.44,6.35,6.21Z"/>
        <path d="M637.13,272.46c.03-3.28,1.73-4.91,5.15-4.92,3.32,0,5.21,2.15,5.13,5.86-.06,2.75-2.83,5.53-5.5,5.51-2.7-.02-4.81-2.87-4.79-6.45Z"/>
        <path d="M612.67,582.2c-.05,3.34-2.26,6.01-4.92,5.94-3.3-.1-6.97-4.26-6.81-7.73.16-3.57,2.58-6.05,5.84-6,3.22.06,5.95,3.66,5.89,7.79Z"/>
        <path d="M595.76,556.76c3.42-.14,3.75,2.35,3.77,4.76.03,3.61-2.89,7.35-5.47,7.37-3.37.03-6.81-2.76-6.87-5.56-.07-3.46,4.06-6.62,8.57-6.57Z"/>
        <path d="M580.62,542.33c-.22,2.13-.83,4.37-4.07,4.16-2.87-.19-4.92-1.91-4.88-4.62.04-2.6,1.77-4.56,4.88-4.53,3.09.03,4.11,1.81,4.07,4.99Z"/>
        <path d="M185.41,574.39c3.32.12,5.92,3.07,5.8,6.58-.14,3.88-3.52,7.45-7.04,7.42-3.19-.02-5.63-2.82-5.46-6.27.2-4.18,3.38-7.85,6.7-7.73Z"/>
        <path d="M198.36,556.91c3.81.14,6.72,2.93,6.49,6.23-.24,3.51-3.03,6.25-6.25,6.15-3.57-.11-6.15-2.99-5.99-6.68.18-4.02,2.01-5.84,5.75-5.7Z"/>
        <path d="M216.28,537.33c3.03.16,4.29,2.33,4.54,5.1.25,2.79-1.43,4.46-4.1,4.71-2.38.23-5.33-2.93-5.13-5.36.22-2.67,1.66-4.3,4.7-4.45Z"/>
        <path d="M625.66,515.59c-.21,2.42-1.56,4.02-4.47,4.01-2.81,0-4.2-1.55-3.93-4.23.22-2.3.52-4.95,3.62-5.24,2.62-.24,4.84,2.3,4.79,5.46Z"/>
        <path d="M165.39,514.79c1.41-1.18,2.66-2.99,4.26-3.4,2.32-.6,5.69,3,5.11,5.58-.33,1.48-2.14,3.34-3.62,3.7-2.46.61-5.15-2.49-5.75-5.89Z"/>
        <path d="M324.75,567.76c-3.06-.09-5.13-2.44-5.05-5.73.08-3.24,2.37-5.55,5.38-5.41,2.75.13,5.11,2.68,5.05,5.46-.06,2.79-2.86,5.75-5.38,5.68Z"/>
        <path d="M462.96,562.69c.26-3.48,2.16-5.74,4.75-5.65,3.03.11,5.93,3.06,5.69,5.77-.26,2.87-3.15,5.44-5.82,5.19-2.77-.27-4.82-2.62-4.62-5.31Z"/>
        <path d="M389.26,316.89c-2.07,1.68-3.26,3.33-4.64,3.51-.86.11-3.04-2.33-2.82-3.06.48-1.56,2.15-2.76,3.33-4.11,1.12.99,2.23,1.98,4.13,3.65Z"/>
      </g>
    </g>
  </g>
</svg>